<svg width="37" height="37" viewBox="0 0 37 37" fill="none" xmlns="http://www.w3.org/2000/svg">
<path d="M17.5977 21.6133L2.54891 30.3239L0.337891 28.1129L13.5302 19.2484L17.5977 21.6133Z" fill="#0D86BB"/>
<path d="M17.9379 22.2025L2.8699 30.8799L3.67917 33.9002L17.9522 26.9075L17.9379 22.2025Z" fill="#0D86BB"/>
<path d="M18.5361 22.2025L33.604 30.8798L32.7948 33.9001L18.5217 26.9075L18.5361 22.2025Z" fill="#0D86BB"/>
<path d="M18.8762 21.6133L33.925 30.3239L36.1361 28.1129L22.9437 19.2484L18.8762 21.6133Z" fill="#0D86BB"/>
<path d="M18.5361 20.9696L18.5169 3.5817L21.5372 2.7724L22.6179 18.6296L18.5361 20.9696Z" fill="#0D86BB"/>
<path d="M17.8558 20.9696L17.875 3.5817L14.8547 2.7724L13.774 18.6296L17.8558 20.9696Z" fill="#0D86BB"/>
<path d="M17.5977 21.6133L2.54891 30.3239L0.337891 28.1129L13.5302 19.2484L17.5977 21.6133Z" stroke="#0D86BB" stroke-width="0.197327"/>
<path d="M17.9379 22.2025L2.8699 30.8799L3.67917 33.9002L17.9522 26.9075L17.9379 22.2025Z" stroke="#0D86BB" stroke-width="0.197327"/>
<path d="M18.5361 22.2025L33.604 30.8798L32.7948 33.9001L18.5217 26.9075L18.5361 22.2025Z" stroke="#0D86BB" stroke-width="0.197327"/>
<path d="M18.8762 21.6133L33.925 30.3239L36.1361 28.1129L22.9437 19.2484L18.8762 21.6133Z" stroke="#0D86BB" stroke-width="0.197327"/>
<path d="M18.5361 20.9696L18.5169 3.5817L21.5372 2.7724L22.6179 18.6296L18.5361 20.9696Z" stroke="#0D86BB" stroke-width="0.197327"/>
<path d="M17.8558 20.9696L17.875 3.5817L14.8547 2.7724L13.774 18.6296L17.8558 20.9696Z" stroke="#0D86BB" stroke-width="0.197327"/>
</svg>
