<svg width="20" height="20" viewBox="0 0 20 20" fill="none" xmlns="http://www.w3.org/2000/svg">
<path d="M11.4583 11.4583V13.5417H13.5417M14.7917 11.4583H16.875M16.875 14.7917H14.7917V16.875M11.4583 16.4583V16.875M4.79167 16.875H6.875C7.79547 16.875 8.54167 16.1288 8.54167 15.2083V13.125C8.54167 12.2045 7.79547 11.4583 6.875 11.4583H4.79167C3.87119 11.4583 3.125 12.2045 3.125 13.125V15.2083C3.125 16.1288 3.87119 16.875 4.79167 16.875ZM13.125 8.54167H15.2083C16.1288 8.54167 16.875 7.79547 16.875 6.875V4.79167C16.875 3.87119 16.1288 3.125 15.2083 3.125H13.125C12.2045 3.125 11.4583 3.87119 11.4583 4.79167V6.875C11.4583 7.79547 12.2045 8.54167 13.125 8.54167ZM4.79167 8.54167H6.875C7.79547 8.54167 8.54167 7.79547 8.54167 6.875V4.79167C8.54167 3.87119 7.79547 3.125 6.875 3.125H4.79167C3.87119 3.125 3.125 3.87119 3.125 4.79167V6.875C3.125 7.79547 3.87119 8.54167 4.79167 8.54167Z" stroke="#F0F4FC" stroke-width="1.5" stroke-linecap="round" stroke-linejoin="round"/>
</svg>
