<svg width="14" height="14" viewBox="0 0 14 14" fill="none" xmlns="http://www.w3.org/2000/svg">
<path d="M13 9.66667H11C10.6464 9.66667 10.3072 9.80714 10.0572 10.0572C9.80714 10.3072 9.66667 10.6464 9.66667 11V13M13 13V13.0067M7 3.66667V5.66667C7 6.02029 6.85952 6.35943 6.60948 6.60948C6.35943 6.85952 6.02029 7 5.66667 7H3.66667M1 7H1.00667M7 1H7.00667M7 9.66667V9.67333M9.66667 7H10.3333M13 7V7.00667M7 13V12.3333M1.66667 1H3.66667C4.03486 1 4.33333 1.29848 4.33333 1.66667V3.66667C4.33333 4.03486 4.03486 4.33333 3.66667 4.33333H1.66667C1.29848 4.33333 1 4.03486 1 3.66667V1.66667C1 1.29848 1.29848 1 1.66667 1ZM10.3333 1H12.3333C12.7015 1 13 1.29848 13 1.66667V3.66667C13 4.03486 12.7015 4.33333 12.3333 4.33333H10.3333C9.96514 4.33333 9.66667 4.03486 9.66667 3.66667V1.66667C9.66667 1.29848 9.96514 1 10.3333 1ZM1.66667 9.66667H3.66667C4.03486 9.66667 4.33333 9.96514 4.33333 10.3333V12.3333C4.33333 12.7015 4.03486 13 3.66667 13H1.66667C1.29848 13 1 12.7015 1 12.3333V10.3333C1 9.96514 1.29848 9.66667 1.66667 9.66667Z" stroke="#F0F4FC" stroke-width="1.5" stroke-linecap="round" stroke-linejoin="round"/>
</svg>
