<svg width="24" height="24" viewBox="0 0 24 24" fill="none" xmlns="http://www.w3.org/2000/svg">
<path id="Vector" d="M7.19922 20.4V12" stroke="#F0F4FC" stroke-width="2" stroke-linecap="round" stroke-linejoin="round"/>
<path id="Vector_2" d="M7.19922 12C8.85607 12 10.1992 10.6569 10.1992 9C10.1992 7.34315 8.85607 6 7.19922 6C5.54236 6 4.19922 7.34315 4.19922 9C4.19922 10.6569 5.54236 12 7.19922 12Z" stroke="#F0F4FC" stroke-width="2" stroke-linecap="round" stroke-linejoin="round"/>
<path id="Vector_3" d="M7.19922 5.99961V3.59961" stroke="#F0F4FC" stroke-width="2" stroke-linecap="round" stroke-linejoin="round"/>
<path id="Vector_4" d="M16.8008 3.59961V11.9996" stroke="#F0F4FC" stroke-width="2" stroke-linecap="round" stroke-linejoin="round"/>
<path id="Vector_5" d="M16.8008 18C18.4576 18 19.8008 16.6569 19.8008 15C19.8008 13.3431 18.4576 12 16.8008 12C15.1439 12 13.8008 13.3431 13.8008 15C13.8008 16.6569 15.1439 18 16.8008 18Z" stroke="#F0F4FC" stroke-width="2" stroke-linecap="round" stroke-linejoin="round"/>
<path id="Vector_6" d="M16.8008 18V20.4" stroke="#F0F4FC" stroke-width="2" stroke-linecap="round" stroke-linejoin="round"/>
</svg>
