<svg width="24" height="24" viewBox="0 0 24 24" fill="none" xmlns="http://www.w3.org/2000/svg">
<path id="Vector" d="M10.8008 3.68481C11.1932 3.62841 11.594 3.59961 12.0008 3.59961C12.4076 3.59961 12.8084 3.62841 13.2008 3.68481" stroke="#F0F4FC" stroke-width="2" stroke-linecap="round" stroke-linejoin="round"/>
<path id="Vector_2" d="M17.0312 5.27148C17.3481 5.50908 17.6516 5.77188 17.9396 6.05988C18.2277 6.34788 18.4904 6.65148 18.728 6.96828" stroke="#F0F4FC" stroke-width="2" stroke-linecap="round" stroke-linejoin="round"/>
<path id="Vector_3" d="M20.3145 10.7998C20.3709 11.1922 20.3997 11.593 20.3997 11.9998C20.3997 12.4066 20.3709 12.8074 20.3145 13.1998" stroke="#F0F4FC" stroke-width="2" stroke-linecap="round" stroke-linejoin="round"/>
<path id="Vector_4" d="M18.7281 17.0303C18.4905 17.3471 18.2276 17.6507 17.9396 17.9387C17.6516 18.2267 17.348 18.4895 17.0312 18.7271" stroke="#F0F4FC" stroke-width="2" stroke-linecap="round" stroke-linejoin="round"/>
<path id="Vector_5" d="M13.2008 20.3145C12.8084 20.3709 12.4076 20.3997 12.0008 20.3997C11.594 20.3997 11.1932 20.3709 10.8008 20.3145" stroke="#F0F4FC" stroke-width="2" stroke-linecap="round" stroke-linejoin="round"/>
<path id="Vector_6" d="M6.97024 18.7281C6.65344 18.4905 6.34984 18.2276 6.06184 17.9396C5.77384 17.6516 5.51104 17.348 5.27344 17.0312" stroke="#F0F4FC" stroke-width="2" stroke-linecap="round" stroke-linejoin="round"/>
<path id="Vector_7" d="M3.68481 13.1998C3.62841 12.8074 3.59961 12.4066 3.59961 11.9998C3.59961 11.593 3.62841 11.1922 3.68481 10.7998" stroke="#F0F4FC" stroke-width="2" stroke-linecap="round" stroke-linejoin="round"/>
<path id="Vector_8" d="M5.27148 6.96926C5.50908 6.65246 5.77188 6.34886 6.05988 6.06086C6.34788 5.77286 6.65148 5.51006 6.96828 5.27246" stroke="#F0F4FC" stroke-width="2" stroke-linecap="round" stroke-linejoin="round"/>
</svg>
