<svg width="12" height="12" viewBox="0 0 12 12" fill="none" xmlns="http://www.w3.org/2000/svg">
<path d="M5.8726 2.3328C5.85115 2.14338 5.691 2.0002 5.5004 2C5.30975 1.99981 5.1493 2.14266 5.12745 2.33204C4.98544 3.56346 4.61727 4.42936 4.02331 5.0233C3.42936 5.61725 2.56346 5.98545 1.33204 6.12745C1.14266 6.1493 0.999805 6.30975 1 6.5004C1.0002 6.691 1.14338 6.85115 1.3328 6.8726C2.54386 7.0098 3.42816 7.3778 4.03623 7.9749C4.64199 8.5697 5.01785 9.4354 5.12645 10.6582C5.14365 10.8519 5.306 11.0002 5.5004 11C5.69485 10.9998 5.85685 10.851 5.8736 10.6573C5.9777 9.4547 6.3532 8.57075 6.962 7.962C7.57075 7.3532 8.4547 6.9777 9.65735 6.8736C9.85105 6.85685 9.9998 6.69485 10 6.5004C10.0002 6.306 9.85185 6.14365 9.6582 6.12645C8.4354 6.01785 7.5697 5.642 6.9749 5.0362C6.3778 4.42817 6.0098 3.54386 5.8726 2.3328Z" fill="#FFC25C"/>
<path d="M9.8949 0.62942C9.88655 0.555755 9.8243 0.500075 9.75015 0.5C9.676 0.499925 9.6136 0.55548 9.60515 0.629125C9.5499 1.10801 9.4067 1.44475 9.17575 1.67573C8.94475 1.90672 8.608 2.0499 8.1291 2.10513C8.0555 2.11362 7.9999 2.17602 8 2.25015C8.0001 2.32429 8.05575 2.38657 8.1294 2.39491C8.6004 2.44826 8.9443 2.59138 9.18075 2.82357C9.41635 3.05489 9.5625 3.39155 9.60475 3.86707C9.61145 3.94238 9.67455 4.00009 9.75015 4C9.82575 3.99992 9.88875 3.94207 9.8953 3.86675C9.9358 3.39905 10.0818 3.0553 10.3186 2.81855C10.5553 2.58181 10.8991 2.43578 11.3668 2.39529C11.4421 2.38877 11.4999 2.32577 11.5 2.25017C11.5001 2.17456 11.4424 2.11143 11.3671 2.10474C10.8916 2.0625 10.5549 1.91633 10.3236 1.68076C10.0914 1.44429 9.94825 1.10039 9.8949 0.62942Z" fill="#FFC25C"/>
</svg>
