<svg width="400" height="416" viewBox="0 0 400 416" fill="none" xmlns="http://www.w3.org/2000/svg">
<path d="M195.168 399.881C272.336 359.518 445.695 256.06 447.551 256.06M160.604 379.932C237.773 339.569 411.131 236.11 412.987 236.11M126.041 359.982C203.209 319.62 376.568 216.161 378.424 216.161M91.4771 340.033C168.646 299.67 342.004 196.212 343.86 196.212M56.9136 320.084C134.082 279.721 307.441 176.262 309.297 176.262M22.3501 300.134C99.5187 259.771 272.877 156.313 274.733 156.313M-12.2134 280.185C64.9552 239.822 238.314 136.363 240.17 136.363M-46.7769 260.235C30.3917 219.873 203.75 116.414 205.606 116.414M205.606 399.881C128.438 359.518 -44.9211 256.06 -46.7769 256.06M240.17 379.932C163.001 339.569 -10.3576 236.11 -12.2134 236.11M274.733 359.982C197.565 319.62 24.2059 216.161 22.3501 216.161M309.297 340.033C232.128 299.67 58.7694 196.212 56.9136 196.212M343.86 320.084C266.692 279.721 93.3329 176.262 91.4771 176.262M378.424 300.134C301.255 259.771 127.896 156.313 126.041 156.313M412.987 280.185C335.819 239.822 162.46 136.363 160.604 136.363M447.551 260.235C370.382 219.873 197.023 116.414 195.168 116.414" stroke="url(#paint0_radial_39598_79157)" stroke-opacity="0.6" stroke-width="0.23197" stroke-linecap="round"/>
<g opacity="0.5" filter="url(#filter0_f_39598_79157)">
<circle cx="80.9098" cy="80.9098" r="80.9098" transform="matrix(-1 0 0 1 208.17 50.2832)" fill="url(#paint1_radial_39598_79157)"/>
</g>
<g opacity="0.5" filter="url(#filter1_f_39598_79157)">
<circle cx="80.9098" cy="80.9098" r="80.9098" transform="matrix(-1 0 0 1 335.475 222.146)" fill="url(#paint2_radial_39598_79157)"/>
</g>
<path d="M115.812 165.405C114.359 165.405 112.905 165.084 111.799 164.442L90.4994 152.101C89.3941 151.46 88.7849 150.596 88.7849 149.667C88.7849 148.738 89.3941 147.874 90.4994 147.233L111.798 134.892C114.012 133.609 117.613 133.609 119.826 134.892L141.125 147.233C142.23 147.874 142.839 148.738 142.839 149.667C142.839 150.596 142.23 151.46 141.126 152.101L119.827 164.442C118.72 165.084 117.266 165.405 115.812 165.405ZM115.812 134.301C114.425 134.301 113.04 134.606 111.985 135.218L90.6861 147.559C89.7 148.13 89.1577 148.879 89.1577 149.669C89.1577 150.458 89.7 151.207 90.6861 151.778L111.985 164.119C114.095 165.342 117.53 165.342 119.64 164.119L140.938 151.778C141.924 151.208 142.467 150.459 142.467 149.669C142.467 148.879 141.924 148.13 140.937 147.559L119.639 135.218C118.585 134.606 117.198 134.301 115.812 134.301Z" fill="url(#paint3_linear_39598_79157)"/>
<g filter="url(#filter2_f_39598_79157)">
<path d="M129.737 158.626C129.535 158.508 129.275 158.576 129.156 158.778C129.038 158.98 129.106 159.24 129.309 159.359L129.737 158.626ZM129.523 158.992L129.309 159.359L154.345 173.999L154.559 173.632L154.774 173.266L129.737 158.626L129.523 158.992Z" fill="url(#paint4_linear_39598_79157)"/>
</g>
<path d="M129.737 158.626C129.535 158.508 129.275 158.576 129.156 158.778C129.038 158.98 129.106 159.24 129.309 159.359L129.737 158.626ZM129.523 158.992L129.309 159.359L154.345 173.999L154.559 173.632L154.774 173.266L129.737 158.626L129.523 158.992Z" fill="url(#paint5_linear_39598_79157)"/>
<path d="M142.684 131.847V136.064C142.684 137.289 141.868 138.544 140.256 139.479L121.955 150.118L121.954 150.119C120.3 151.097 118.105 151.59 115.902 151.59C113.699 151.59 111.505 151.096 109.851 150.119L109.849 150.118L91.4615 139.479L91.4586 139.478L91.151 139.298C89.6634 138.385 88.9479 137.211 88.9479 136.064V131.847H142.684Z" fill="#10305D"/>
<path d="M142.684 131.847V136.064C142.684 137.289 141.868 138.544 140.256 139.479L121.955 150.118L121.954 150.119C120.3 151.097 118.105 151.59 115.902 151.59C113.699 151.59 111.505 151.096 109.851 150.119L109.849 150.118L91.4615 139.479L91.4586 139.478L91.151 139.298C89.6634 138.385 88.9479 137.211 88.9479 136.064V131.847H142.684Z" fill="url(#paint6_linear_39598_79157)"/>
<path d="M142.684 131.847V136.064C142.684 137.289 141.868 138.544 140.256 139.479L121.955 150.118L121.954 150.119C120.3 151.097 118.105 151.59 115.902 151.59C113.699 151.59 111.505 151.096 109.851 150.119L109.849 150.118L91.4615 139.479L91.4586 139.478L91.151 139.298C89.6634 138.385 88.9479 137.211 88.9479 136.064V131.847H142.684Z" stroke="#244C85" stroke-width="0.306578"/>
<path d="M140.173 127.62C143.54 129.61 143.54 132.724 140.259 134.713L121.957 145.353C118.59 147.343 113.152 147.343 109.698 145.353L91.3101 134.713C87.9432 132.724 87.9432 129.61 91.3101 127.62L109.612 116.98C112.979 114.991 118.418 114.991 121.785 116.98L140.173 127.62Z" fill="#052046"/>
<g filter="url(#filter3_d_39598_79157)">
<path d="M134 128.502C136.518 129.98 136.518 132.295 134.065 133.774L120.381 141.682C117.863 143.161 113.797 143.161 111.215 141.682L97.4664 133.774C94.949 132.295 94.949 129.98 97.4664 128.502L111.15 120.593C113.668 119.115 117.734 119.115 120.252 120.593L134 128.502Z" fill="#052046"/>
<path d="M115.701 121.528C117.077 121.528 118.343 121.843 119.216 122.355L119.225 122.36L119.233 122.365L132.981 130.273C133.406 130.526 133.634 130.76 133.746 130.919C133.853 131.07 133.853 131.146 133.853 131.155C133.853 131.165 133.854 131.238 133.755 131.383C133.65 131.537 133.434 131.764 133.029 132.012L119.358 139.912L119.346 139.92C118.474 140.432 117.207 140.747 115.823 140.747C114.44 140.747 113.147 140.433 112.231 139.908L98.4856 132.002C98.0601 131.75 97.8331 131.516 97.7229 131.359C97.6188 131.211 97.6223 131.14 97.6223 131.138C97.6223 131.134 97.6196 131.063 97.7229 130.916C97.8334 130.759 98.0608 130.524 98.4885 130.271L98.4895 130.271L112.173 122.363L112.179 122.359L112.186 122.355C113.059 121.843 114.326 121.528 115.701 121.528Z" stroke="#15D7AC" stroke-width="4.08771"/>
</g>
<path d="M115.655 115.512V115.944C117.9 115.944 119.972 116.463 121.526 117.328L139.914 127.968C141.382 128.833 142.245 129.958 142.245 131.169C142.245 132.38 141.468 133.504 139.914 134.283L121.698 145.009C120.144 145.961 118.072 146.393 115.828 146.393C113.583 146.393 111.511 145.874 109.957 145.009L91.569 134.369C90.1014 133.504 89.2382 132.38 89.2382 131.169C89.2382 129.958 90.0151 128.833 91.569 127.968L109.871 117.328C111.425 116.377 113.497 115.944 115.741 115.944V115.512M115.655 115.512C113.411 115.512 111.252 116.031 109.526 116.982L91.3101 127.622C87.9432 129.612 87.9432 132.726 91.3101 134.715L109.698 145.355C111.425 146.307 113.583 146.826 115.828 146.826C118.072 146.826 120.231 146.307 121.957 145.355L140.259 134.715C143.626 132.726 143.626 129.612 140.173 127.622L121.785 116.982C120.144 116.031 117.9 115.512 115.655 115.512Z" fill="#244C85"/>
<path fill-rule="evenodd" clip-rule="evenodd" d="M88.8586 111.198L115.885 100.135V146.49C113.689 146.478 111.5 145.98 109.837 144.998L91.4485 134.358C89.7219 133.406 88.8586 132.109 88.8586 130.811V111.198Z" fill="url(#paint7_linear_39598_79157)" fill-opacity="0.46"/>
<path d="M122.096 144.998L140.398 134.358C142.038 133.406 142.901 132.109 142.901 130.811V111.198L115.885 100.135V146.49C118.135 146.502 120.392 146.004 122.096 144.998Z" fill="url(#paint8_linear_39598_79157)" fill-opacity="0.46"/>
<path d="M115.844 123.879L115.914 123.913L115.982 123.879L142.684 110.411V116.458C142.684 117.682 141.868 118.936 140.256 119.871V119.872L121.955 130.512H121.954C120.3 131.489 118.105 131.982 115.902 131.982C113.699 131.982 111.505 131.489 109.851 130.512H109.849L91.4615 119.871L91.4586 119.87L91.151 119.691C89.6633 118.779 88.9481 117.604 88.9479 116.458V110.41L115.844 123.879Z" fill="#10305D"/>
<path d="M115.844 123.879L115.914 123.913L115.982 123.879L142.684 110.411V116.458C142.684 117.682 141.868 118.936 140.256 119.871V119.872L121.955 130.512H121.954C120.3 131.489 118.105 131.982 115.902 131.982C113.699 131.982 111.505 131.489 109.851 130.512H109.849L91.4615 119.871L91.4586 119.87L91.151 119.691C89.6633 118.779 88.9481 117.604 88.9479 116.458V110.41L115.844 123.879Z" fill="url(#paint9_linear_39598_79157)"/>
<path d="M115.844 123.879L115.914 123.913L115.982 123.879L142.684 110.411V116.458C142.684 117.682 141.868 118.936 140.256 119.871V119.872L121.955 130.512H121.954C120.3 131.489 118.105 131.982 115.902 131.982C113.699 131.982 111.505 131.489 109.851 130.512H109.849L91.4615 119.871L91.4586 119.87L91.151 119.691C89.6633 118.779 88.9481 117.604 88.9479 116.458V110.41L115.844 123.879Z" stroke="#244C85" stroke-width="0.306578"/>
<path d="M91.3972 112.482L88.9509 109.673C88.9749 108.466 89.7883 107.234 91.3757 106.313L109.677 95.6738L109.678 95.6729C111.333 94.6954 113.527 94.2021 115.73 94.2021C117.933 94.2022 120.127 94.6956 121.781 95.6729L121.783 95.6738L140.171 106.313L140.174 106.315L140.481 106.494C141.94 107.389 142.655 108.536 142.682 109.661L138.844 113.027C138.812 113.009 138.773 112.987 138.727 112.961C138.59 112.882 138.389 112.767 138.132 112.619C137.617 112.324 136.88 111.902 135.989 111.393C134.207 110.374 131.811 109.007 129.35 107.614C126.89 106.222 124.364 104.803 122.327 103.682C120.295 102.563 118.736 101.733 118.215 101.524C117.332 101.171 116.551 100.997 115.763 101C114.977 101.003 114.194 101.183 113.309 101.524C113.131 101.593 112.675 101.832 112.028 102.188C111.376 102.548 110.517 103.034 109.525 103.602C107.541 104.737 105.019 106.203 102.54 107.653C100.06 109.103 97.6218 110.538 95.8035 111.609C94.8944 112.145 94.1399 112.59 93.613 112.901C93.3496 113.057 93.1425 113.179 93.0017 113.262C92.9449 113.295 92.8997 113.324 92.865 113.345L91.3972 112.482Z" fill="#10305D" stroke="#244C85" stroke-width="0.306578"/>
<path d="M109.629 95.6346C112.986 93.6505 118.411 93.6505 121.768 95.6346L140.106 106.245C143.464 108.229 143.464 111.335 140.192 113.319L121.94 123.929C118.583 125.913 113.159 125.913 109.715 123.929L91.3766 113.319C88.0191 111.335 88.0192 108.229 91.3766 106.245L109.629 95.6346ZM120.357 98.9607C117.766 97.4347 113.58 97.4347 110.989 98.9607L96.905 107.122C94.3139 108.648 94.3139 111.036 96.905 112.562L111.055 120.723C113.713 122.249 117.899 122.249 120.49 120.723L134.574 112.562C137.098 111.036 137.099 108.648 134.507 107.122L120.357 98.9607Z" fill="#052046"/>
<path d="M109.612 95.6035C112.979 93.614 118.418 93.6139 121.785 95.6035L140.173 106.243C143.539 108.233 143.54 111.346 140.26 113.336L121.957 123.977C118.59 125.966 113.151 125.966 109.698 123.977L91.3103 113.336C87.9434 111.346 87.9434 108.233 91.3103 106.243L109.612 95.6035ZM120.369 98.9384C117.771 97.4083 113.573 97.4082 110.975 98.9384L96.8523 107.122C94.2545 108.652 94.2546 111.047 96.8523 112.577L111.043 120.761C113.707 122.291 117.904 122.291 120.502 120.761L134.625 112.577C137.156 111.047 137.156 108.652 134.558 107.122L120.369 98.9384Z" fill="#052046"/>
<path d="M109.612 95.6035C112.979 93.614 118.418 93.6139 121.785 95.6035L140.173 106.243C143.539 108.233 143.54 111.346 140.26 113.336L121.957 123.977C118.59 125.966 113.151 125.966 109.698 123.977L91.3103 113.336C87.9434 111.346 87.9434 108.233 91.3103 106.243L109.612 95.6035ZM120.369 98.9384C117.771 97.4083 113.573 97.4082 110.975 98.9384L96.8523 107.122C94.2545 108.652 94.2546 111.047 96.8523 112.577L111.043 120.761C113.707 122.291 117.904 122.291 120.502 120.761L134.625 112.577C137.156 111.047 137.156 108.652 134.558 107.122L120.369 98.9384Z" fill="url(#paint10_linear_39598_79157)"/>
<path d="M115.655 94.1289V94.5614C117.9 94.5614 119.972 95.0804 121.526 95.9455L139.914 106.585C141.382 107.45 142.245 108.575 142.245 109.786C142.245 110.997 141.468 112.121 139.914 112.9L121.698 123.626C120.144 124.578 118.072 125.01 115.828 125.01C113.583 125.01 111.511 124.491 109.957 123.626L91.569 112.986C90.1014 112.121 89.2382 110.997 89.2382 109.786C89.2382 108.575 90.0151 107.45 91.569 106.585L109.871 95.9455C111.425 94.9939 113.497 94.5614 115.741 94.5614V94.1289M115.655 94.1289C113.411 94.1289 111.252 94.6479 109.526 95.5995L91.3101 106.239C87.9432 108.229 87.9432 111.343 91.3101 113.332L109.698 123.972C111.425 124.924 113.583 125.443 115.828 125.443C118.072 125.443 120.231 124.924 121.957 123.972L140.259 113.332C143.626 111.343 143.626 108.229 140.173 106.239L121.785 95.5995C120.144 94.6479 117.9 94.1289 115.655 94.1289Z" fill="#244C85"/>
<path opacity="0.5" d="M136.924 60.8926H115.294H94.7002V109.686C94.7002 110.697 95.3747 111.708 96.7237 112.449L111.091 120.739C113.721 122.289 118.038 122.289 120.668 120.739L134.968 112.449C136.249 111.708 136.924 110.697 136.924 109.686V60.8926Z" fill="url(#paint11_linear_39598_79157)"/>
<g clip-path="url(#clip0_39598_79157)">
<path d="M153.92 86.7337L144.487 65.2744L120.257 62.7151L117.208 66.8577L117.405 67.3016L126.529 88.4946L150.46 90.8346L150.871 90.8763L153.92 86.7337Z" fill="#24D3AC"/>
<path d="M117.854 66.6849L142.45 69.5121L151.155 89.8816L127.224 87.5415L117.854 66.6849Z" fill="#22BE9C"/>
<path d="M129.69 84.1732L153.92 86.7326L150.871 90.8752L126.652 88.3245L129.69 84.1732Z" fill="#22BE9C"/>
<path d="M120.257 62.7123L144.487 65.2717L153.92 86.7309L129.69 84.1715L120.257 62.7123Z" fill="#33E6BF"/>
<path d="M129.69 84.1729L126.652 88.3241L117.208 66.8563L120.257 62.7137L129.69 84.1729Z" fill="#24D3AC"/>
<path d="M143.905 85.6739L140.026 76.8035L150.515 77.9114L148.838 74.1117L138.349 73.0038L134.366 63.9767L130.379 63.5555L134.362 72.5825L124.139 71.5028L124.13 71.4818L121.095 75.6296L122.777 79.4461L125.812 75.2984L125.815 75.3024L136.038 76.3823L139.917 85.2527L139.918 85.2534L139.916 85.2533L136.929 89.336L140.944 89.7207L143.904 85.6747L143.903 85.6745L143.905 85.6739Z" fill="#FED322"/>
<path d="M136.038 76.3812L134.362 72.5814L124.138 71.5016L125.815 75.3013L136.038 76.3812ZM150.515 77.9102L148.838 74.1104L138.349 73.0026L140.026 76.8023L150.515 77.9102Z" fill="#FECE00"/>
<path d="M143.905 85.6759L140.026 76.8056L138.35 73.0058L134.367 63.9788L130.379 63.5575L134.362 72.5846L136.039 76.3844L139.917 85.2547L143.905 85.6759Z" fill="#FED322"/>
<path d="M144.086 74.5064C143.519 73.2213 142.666 72.5177 141.749 72.4208L140.94 72.3355C141.398 70.3926 141.311 68.2176 140.593 66.5888C140.268 65.8529 139.78 65.4499 139.254 65.3944L135.617 65.0102C135.618 65.0104 135.62 65.0107 135.622 65.0109C135.102 64.9538 134.545 65.2372 134.075 65.8756C133.132 67.1566 132.89 69.3884 133.535 70.8507L134.985 74.1372L137.029 78.7685C137.355 79.508 137.847 79.9107 138.375 79.963C138.373 79.9628 138.37 79.9632 138.367 79.9628L142.005 80.3471C142.523 80.4018 143.078 80.118 143.546 79.4817C144.489 78.2005 144.731 75.9687 144.086 74.5064Z" fill="#FECE00"/>
<path d="M135.429 66.7941L139.066 67.1783C138.81 67.1513 138.537 67.2912 138.306 67.6047C137.842 68.2359 137.722 69.3357 138.04 70.0563L134.403 69.672C134.085 68.9515 134.204 67.8517 134.669 67.2205C134.9 66.907 135.173 66.7672 135.429 66.7941Z" fill="#FED322"/>
<path d="M134.403 69.6727L138.04 70.0568L139.46 73.2739L135.822 72.8897L134.403 69.6727Z" fill="#FED322"/>
<path d="M135.617 65.0108L139.254 65.3951C139.78 65.4506 140.268 65.8534 140.593 66.5894C141.332 68.2646 141.404 70.518 140.902 72.5017L137.264 72.1175C137.767 70.1337 137.694 67.8804 136.955 66.2052C136.631 65.4693 136.142 65.0664 135.617 65.0108Z" fill="#FFDE56"/>
<path d="M137.923 73.8214L141.56 74.2056C141.082 74.1551 140.579 74.3369 140.114 74.7581L136.477 74.3739C136.942 73.9526 137.445 73.771 137.923 73.8214Z" fill="#FED322"/>
<path d="M136.477 74.3738L140.114 74.758L141.534 77.9751L137.896 77.5909L136.477 74.3738Z" fill="#FED322"/>
<path d="M142.193 78.5633L138.556 78.179C138.297 78.1517 138.056 77.953 137.896 77.5906L141.534 77.9748C141.694 78.3374 141.934 78.536 142.193 78.5633Z" fill="#FED322"/>
<path d="M138.111 72.0331L141.748 72.4173C142.666 72.5143 143.519 73.2178 144.086 74.5029L140.449 74.1187C139.882 72.8337 139.029 72.1301 138.111 72.0331Z" fill="#FFDE56"/>
<path d="M140.449 74.1215C141.094 75.5839 140.852 77.8157 139.909 79.0967C138.966 80.3777 137.674 80.2301 137.029 78.7678L134.986 74.1365L133.535 70.85C132.89 69.3876 133.132 67.1558 134.075 65.8748C135.018 64.5939 136.31 64.7414 136.955 66.2037C137.694 67.8788 137.767 70.1322 137.264 72.1159C138.485 71.7593 139.71 72.4463 140.449 74.1215ZM137.896 77.5894C138.214 78.3099 138.851 78.3826 139.315 77.7514C139.78 77.1202 139.899 76.0204 139.581 75.2999C138.884 73.7183 137.575 73.3775 136.477 74.3724L137.896 77.5894ZM134.403 69.6717L135.822 72.8888C136.646 71.272 136.786 68.9638 136.088 67.3821C135.77 66.6616 135.133 66.5889 134.669 67.2201C134.204 67.8513 134.085 68.951 134.403 69.6717Z" fill="#FEDA44"/>
<path d="M142.005 80.3466L138.367 79.9624C138.886 80.0171 139.441 79.7334 139.909 79.097C140.852 77.816 141.094 75.5841 140.449 74.1218L144.086 74.506C144.731 75.9684 144.489 78.2003 143.546 79.4812C143.078 80.1176 142.523 80.4014 142.005 80.3466Z" fill="#FFDE56"/>
</g>
<path d="M123.493 100.139C123.52 98.4422 122.371 96.2886 123.817 96.3257C126.911 96.405 126.736 95.2254 127.215 93.3691" stroke="#FEDA44" stroke-width="0.443027"/>
<path d="M106.007 85.1074C106.462 85.8871 107.636 86.4461 106.898 86.9562C105.317 88.0479 105.731 88.5197 106.003 89.5369" stroke="#FEDA44" stroke-width="0.443027"/>
<path d="M136.194 106.289C135.522 106.023 135.076 105.081 134.592 105.826C133.555 107.422 133.154 107.138 132.264 107.078" stroke="#FEDA44" stroke-width="0.443027"/>
<path d="M134.172 94.7168C132.868 97.0134 130.115 101.008 132.377 100.756C135.129 100.45 135.871 97.9084 133.712 97.944C131.552 97.9795 129.332 99.0463 129.241 100.593" stroke="#F3972C" stroke-width="0.221513"/>
<path d="M115.175 82.6415C114.257 85.1213 113.048 89.8485 111.451 87.7653C109.508 85.2311 111.085 83.0862 112.785 84.9531C114.485 86.8199 115.352 89.3518 114.103 90.3493" stroke="#F3972C" stroke-width="0.221513"/>
<path d="M121.19 89.6582L121.624 91.4624L120.037 92.7989L119.603 90.9947L121.19 89.6582Z" fill="#96FDE9"/>
<path d="M137.894 101.215L136.654 100.934L135.624 102.603L136.864 102.884L137.894 101.215Z" fill="#96FDE9"/>
<path d="M114.037 97.8281L112.809 98.1569L111.498 95.7197L112.726 95.3909L114.037 97.8281Z" fill="#96FDE9"/>
<path d="M116.589 109.338C115.393 107.446 112.868 104.189 114.944 104.246C117.469 104.316 118.149 106.459 116.168 106.582C114.186 106.704 112.149 105.94 112.066 104.61" stroke="#F3972C" stroke-width="0.221513"/>
<path d="M110.572 111.174C111.248 112.879 111.47 115.504 112.233 114.902C113.864 113.615 114.23 114.876 115.211 116.566" stroke="#FEDA44" stroke-width="0.443027"/>
<path d="M100.773 108.387C100.633 107.202 101.511 105.724 100.223 105.717C97.4688 105.704 97.544 104.884 96.9897 103.577" stroke="#FEDA44" stroke-width="0.443027"/>
<path d="M104.077 97.082C105.572 97.5595 108.407 98.8792 107.788 100.338C107.17 101.796 108.149 103.724 108.716 104.505" stroke="#FEDA44" stroke-width="0.443027"/>
<path d="M129.399 109.669C127.079 109.668 125.945 107.246 124.829 108.37C123.713 109.495 123.906 111.648 124.143 112.584" stroke="#FEDA44" stroke-width="0.443027"/>
<path d="M98.9733 98.0078H100.829L101.757 99.8636H99.9011L98.9733 98.0078Z" fill="#96FDE9"/>
<g filter="url(#filter4_f_39598_79157)">
<path d="M252.285 146.658C256.507 146.196 260.81 146.952 263.99 148.78L323.401 182.935C326.037 184.45 327.253 186.347 327.253 188.151C327.253 189.956 326.037 191.853 323.401 193.368L167.157 283.19C165.373 284.216 163.178 284.906 160.875 285.195L160.866 285.196C156.673 285.812 151.936 285.228 148.483 283.374L148.153 283.19L88.741 249.035C86.1629 247.553 84.9669 245.644 84.9666 243.819C84.9664 241.995 86.162 240.085 88.741 238.603L244.985 148.78C247.066 147.584 249.662 146.891 252.276 146.659L252.285 146.658Z" stroke="#03FFCF" stroke-width="0.848704"/>
<path d="M252.285 146.658C256.507 146.196 260.81 146.952 263.99 148.78L323.401 182.935C326.037 184.45 327.253 186.347 327.253 188.151C327.253 189.956 326.037 191.853 323.401 193.368L167.157 283.19C165.373 284.216 163.178 284.906 160.875 285.195L160.866 285.196C156.673 285.812 151.936 285.228 148.483 283.374L148.153 283.19L88.741 249.035C86.1629 247.553 84.9669 245.644 84.9666 243.819C84.9664 241.995 86.162 240.085 88.741 238.603L244.985 148.78C247.066 147.584 249.662 146.891 252.276 146.659L252.285 146.658Z" stroke="url(#paint12_linear_39598_79157)" stroke-width="0.848704"/>
</g>
<path d="M252.285 146.658C256.507 146.196 260.81 146.952 263.99 148.78L323.401 182.935C326.037 184.45 327.253 186.347 327.253 188.151C327.253 189.956 326.037 191.853 323.401 193.368L167.157 283.19C165.373 284.216 163.178 284.906 160.875 285.195L160.866 285.196C156.673 285.812 151.936 285.228 148.483 283.374L148.153 283.19L88.741 249.035C86.1629 247.553 84.9669 245.644 84.9666 243.819C84.9664 241.995 86.162 240.085 88.741 238.603L244.985 148.78C247.066 147.584 249.662 146.891 252.276 146.659L252.285 146.658Z" stroke="#03FFCF" stroke-width="0.848704"/>
<path d="M252.285 146.658C256.507 146.196 260.81 146.952 263.99 148.78L323.401 182.935C326.037 184.45 327.253 186.347 327.253 188.151C327.253 189.956 326.037 191.853 323.401 193.368L167.157 283.19C165.373 284.216 163.178 284.906 160.875 285.195L160.866 285.196C156.673 285.812 151.936 285.228 148.483 283.374L148.153 283.19L88.741 249.035C86.1629 247.553 84.9669 245.644 84.9666 243.819C84.9664 241.995 86.162 240.085 88.741 238.603L244.985 148.78C247.066 147.584 249.662 146.891 252.276 146.659L252.285 146.658Z" stroke="url(#paint13_linear_39598_79157)" stroke-width="0.848704"/>
<path d="M250.478 117.591C253.906 117.444 257.22 118.059 259.643 119.481L259.645 119.482L324.222 156.723C326.331 157.989 327.439 159.645 327.439 161.251C327.439 163.154 326.093 165.297 323.387 166.958L322.828 167.283L322.825 167.285L320.563 168.576L320.562 168.577L171.39 254.788C168.576 256.381 165.062 257.288 161.636 257.435C158.208 257.581 154.895 256.966 152.471 255.544L152.469 255.543L91.5513 220.456L87.894 218.304H87.8931C85.7903 217.041 84.7827 215.386 84.7827 213.773C84.7828 211.738 86.2118 209.436 89.2905 207.63L89.2915 207.631L240.725 120.235C243.539 118.643 247.053 117.737 250.478 117.591Z" fill="#1E4780"/>
<path d="M250.478 117.591C253.906 117.444 257.22 118.059 259.643 119.481L259.645 119.482L324.222 156.723C326.331 157.989 327.439 159.645 327.439 161.251C327.439 163.154 326.093 165.297 323.387 166.958L322.828 167.283L322.825 167.285L320.563 168.576L320.562 168.577L171.39 254.788C168.576 256.381 165.062 257.288 161.636 257.435C158.208 257.581 154.895 256.966 152.471 255.544L152.469 255.543L91.5513 220.456L87.894 218.304H87.8931C85.7903 217.041 84.7827 215.386 84.7827 213.773C84.7828 211.738 86.2118 209.436 89.2905 207.63L89.2915 207.631L240.725 120.235C243.539 118.643 247.053 117.737 250.478 117.591Z" fill="url(#paint14_linear_39598_79157)"/>
<path d="M250.478 117.591C253.906 117.444 257.22 118.059 259.643 119.481L259.645 119.482L324.222 156.723C326.331 157.989 327.439 159.645 327.439 161.251C327.439 163.154 326.093 165.297 323.387 166.958L322.828 167.283L322.825 167.285L320.563 168.576L320.562 168.577L171.39 254.788C168.576 256.381 165.062 257.288 161.636 257.435C158.208 257.581 154.895 256.966 152.471 255.544L152.469 255.543L91.5513 220.456L87.894 218.304H87.8931C85.7903 217.041 84.7827 215.386 84.7827 213.773C84.7828 211.738 86.2118 209.436 89.2905 207.63L89.2915 207.631L240.725 120.235C243.539 118.643 247.053 117.737 250.478 117.591Z" stroke="#4C78B7" stroke-width="0.478613"/>
<path d="M152.405 252.455L93.5812 218.493C88.6867 215.667 89.3004 210.731 94.952 207.468L240.632 123.36C246.284 120.097 254.834 119.742 259.729 122.568L318.553 156.53C323.447 159.356 322.833 164.292 317.181 167.555L171.501 251.663C165.85 254.927 157.3 255.281 152.405 252.455Z" fill="#162D55"/>
<path d="M313.17 167.157L170.749 249.384C169.072 250.352 167.02 250.998 164.878 251.268C160.869 251.859 156.302 251.267 153.04 249.384L98.8849 218.117C94.0384 215.319 94.0373 210.691 98.8849 207.893L241.306 125.666C243.263 124.536 245.687 123.89 248.11 123.675C252.025 123.244 256.032 123.944 259.015 125.666L313.17 156.933C318.11 159.785 318.11 164.305 313.17 167.157Z" fill="#162D55"/>
<path d="M305.991 152.788L302.264 154.94C299.933 156.285 296.204 156.285 293.967 154.994L262.462 136.804C260.132 135.459 260.133 133.306 262.463 131.961L266.19 129.809L305.991 152.788Z" fill="#1E4780"/>
<g opacity="0.05">
<path d="M248.018 204.775L190.975 237.709L190.879 154.782L241.305 125.669C243.261 124.54 245.686 123.893 248.109 123.678L248.018 204.775Z" fill="white" fill-opacity="0.5"/>
<path d="M180.441 243.785L170.747 249.382C169.07 250.35 167.018 250.996 164.876 251.266L164.781 169.845L180.438 160.805L180.441 243.785Z" fill="white" fill-opacity="0.5"/>
</g>
<path d="M327.677 161.254V175.784C327.677 177.936 326.062 180.197 322.942 182.026L171.507 269.421C168.708 271.143 165.049 272.004 161.605 272.111C158.161 272.327 154.824 271.682 152.348 270.281L87.7706 232.934C85.6186 231.643 84.5417 229.92 84.5417 228.199V213.776C84.5417 215.499 85.6186 217.221 87.7706 218.512L91.4301 220.665L152.348 255.753C154.824 257.15 158.161 257.797 161.604 257.582C165.048 257.473 168.708 256.612 171.506 254.998L320.68 168.787L322.942 167.495C326.062 165.774 327.677 163.406 327.677 161.254Z" fill="#1E4780"/>
<path d="M327.677 161.254V175.784C327.677 177.936 326.062 180.197 322.942 182.026L171.507 269.421C168.708 271.143 165.049 272.004 161.605 272.111C158.161 272.327 154.824 271.682 152.348 270.281L87.7706 232.934C85.6186 231.643 84.5417 229.92 84.5417 228.199V213.776C84.5417 215.499 85.6186 217.221 87.7706 218.512L91.4301 220.665L152.348 255.753C154.824 257.15 158.161 257.797 161.604 257.582C165.048 257.473 168.708 256.612 171.506 254.998L320.68 168.787L322.942 167.495C326.062 165.774 327.677 163.406 327.677 161.254Z" fill="url(#paint15_linear_39598_79157)"/>
<path fill-rule="evenodd" clip-rule="evenodd" d="M302.535 185.891C302.272 185.434 301.689 185.277 301.232 185.539L287.665 193.441C287.208 193.704 287.051 194.287 287.313 194.743C287.576 195.2 288.159 195.357 288.615 195.095L302.183 187.193C302.64 186.93 302.797 186.347 302.535 185.891Z" fill="#2CFFFC"/>
<path fill-rule="evenodd" clip-rule="evenodd" d="M284.673 196.367C284.411 195.911 283.828 195.753 283.371 196.016L269.804 203.918C269.347 204.18 269.19 204.763 269.452 205.22C269.715 205.677 270.297 205.834 270.754 205.572L284.322 197.669C284.778 197.407 284.936 196.824 284.673 196.367Z" fill="#2CFFFC"/>
<mask id="mask0_39598_79157" style="mask-type:luminance" maskUnits="userSpaceOnUse" x="237" y="130" width="16" height="10">
<path d="M247.703 139.338C246.739 139.338 245.819 139.143 245.131 138.746L238.899 135.148C237.382 134.272 237.572 132.742 239.325 131.73C240.283 131.177 241.51 130.893 242.674 130.893C243.638 130.893 244.559 131.088 245.246 131.484L251.478 135.083C252.995 135.959 252.805 137.49 251.053 138.501C250.094 139.055 248.867 139.338 247.703 139.338Z" fill="white"/>
</mask>
<g mask="url(#mask0_39598_79157)">
<rect x="236.83" y="130.426" width="16.7091" height="9.39659" fill="white"/>
</g>
<mask id="mask1_39598_79157" style="mask-type:luminance" maskUnits="userSpaceOnUse" x="288" y="160" width="15" height="10">
<path d="M297.832 169.387C296.868 169.387 295.947 169.192 295.26 168.795L289.028 165.197C287.511 164.321 287.701 162.791 289.453 161.779C290.412 161.225 291.639 160.942 292.803 160.942C293.766 160.942 294.687 161.136 295.375 161.533L301.607 165.131C303.124 166.008 302.934 167.538 301.181 168.55C300.223 169.103 298.996 169.387 297.832 169.387Z" fill="white"/>
</mask>
<g mask="url(#mask1_39598_79157)">
<rect x="286.959" y="160.477" width="16.7091" height="9.39659" fill="white"/>
</g>
<path d="M242.766 129.303C241.635 129.303 240.441 129.571 239.511 130.093C238.638 130.583 238.137 131.224 238.137 131.852C238.137 132.362 238.476 132.833 239.09 133.178L245.255 136.637C246.722 137.46 249.295 137.354 250.994 136.401C251.868 135.911 252.369 135.27 252.369 134.643C252.369 134.132 252.03 133.661 251.415 133.316L245.249 129.857C244.586 129.485 243.698 129.303 242.766 129.303ZM247.739 137.42C246.763 137.421 245.831 137.228 245.136 136.838L238.97 133.379C238.278 132.991 237.897 132.448 237.897 131.852C237.897 131.139 238.442 130.424 239.391 129.892C241.155 128.902 243.837 128.796 245.369 129.656L251.534 133.115C252.227 133.503 252.608 134.046 252.608 134.643C252.608 135.356 252.063 136.07 251.114 136.603C250.15 137.143 248.913 137.42 247.739 137.42Z" fill="#15D7AC"/>
<path d="M292.815 159.287C291.685 159.287 290.491 159.555 289.56 160.078C288.687 160.568 288.186 161.208 288.186 161.836C288.186 162.347 288.525 162.818 289.14 163.162L295.305 166.622C296.771 167.444 299.345 167.339 301.044 166.386C301.918 165.896 302.419 165.255 302.419 164.627C302.419 164.117 302.08 163.646 301.465 163.3L295.299 159.841C294.636 159.47 293.747 159.287 292.815 159.287ZM297.789 167.404C296.813 167.405 295.881 167.213 295.186 166.823L289.02 163.364C288.328 162.975 287.947 162.433 287.947 161.836C287.947 161.123 288.492 160.409 289.441 159.876C291.205 158.886 293.887 158.781 295.419 159.64L301.584 163.099C302.276 163.487 302.658 164.03 302.658 164.627C302.658 165.34 302.113 166.055 301.163 166.587C300.2 167.127 298.963 167.404 297.789 167.404Z" fill="#15D7AC"/>
<g filter="url(#filter5_f_39598_79157)">
<path d="M243.815 239.547L301.509 273.026C303.333 274.084 303.4 276.693 301.633 277.843L278.329 293.015" stroke="url(#paint16_linear_39598_79157)" stroke-width="0.848704"/>
</g>
<path d="M243.815 239.547L301.509 273.026C303.333 274.084 303.4 276.693 301.633 277.843L278.329 293.015" stroke="url(#paint17_linear_39598_79157)" stroke-width="0.848704"/>
<path d="M257.859 326.949C256.411 326.949 254.963 326.629 253.861 325.99L232.65 313.7C231.55 313.062 230.943 312.201 230.943 311.276C230.943 310.351 231.55 309.49 232.65 308.852L253.861 296.562C256.065 295.284 259.652 295.284 261.856 296.562L283.066 308.852C284.167 309.49 284.774 310.351 284.774 311.276C284.774 312.201 284.167 313.062 283.067 313.699L261.857 325.989C260.755 326.629 259.307 326.949 257.859 326.949ZM257.858 295.973C256.477 295.973 255.098 296.277 254.047 296.886L232.836 309.176C231.854 309.745 231.314 310.491 231.314 311.277C231.314 312.064 231.854 312.81 232.836 313.378L254.047 325.668C256.148 326.886 259.569 326.886 261.67 325.668L282.88 313.378C283.862 312.81 284.402 312.064 284.402 311.278C284.402 310.491 283.862 309.745 282.88 309.176L261.669 296.886C260.619 296.277 259.239 295.973 257.858 295.973Z" fill="#03FFCF"/>
<path d="M284.619 299.193V303.395C284.619 304.614 283.807 305.863 282.202 306.794L263.976 317.39L263.975 317.391C262.327 318.364 260.142 318.855 257.948 318.855C255.755 318.855 253.569 318.364 251.922 317.391L251.921 317.39L233.609 306.794L233.607 306.793L233.3 306.614C231.819 305.705 231.106 304.536 231.106 303.395V299.193H284.619Z" fill="#10305D"/>
<path d="M284.619 299.193V303.395C284.619 304.614 283.807 305.863 282.202 306.794L263.976 317.39L263.975 317.391C262.327 318.364 260.142 318.855 257.948 318.855C255.755 318.855 253.569 318.364 251.922 317.391L251.921 317.39L233.609 306.794L233.607 306.793L233.3 306.614C231.819 305.705 231.106 304.536 231.106 303.395V299.193H284.619Z" fill="url(#paint18_linear_39598_79157)"/>
<path d="M284.619 299.193V303.395C284.619 304.614 283.807 305.863 282.202 306.794L263.976 317.39L263.975 317.391C262.327 318.364 260.142 318.855 257.948 318.855C255.755 318.855 253.569 318.364 251.922 317.391L251.921 317.39L233.609 306.794L233.607 306.793L233.3 306.614C231.819 305.705 231.106 304.536 231.106 303.395V299.193H284.619Z" stroke="#244C85" stroke-width="0.30531"/>
<path d="M282.118 294.99C285.471 296.971 285.471 300.072 282.204 302.054L263.978 312.65C260.625 314.631 255.209 314.631 251.77 312.65L233.458 302.054C230.105 300.072 230.105 296.971 233.458 294.99L251.684 284.394C255.037 282.413 260.453 282.413 263.806 284.394L282.118 294.99Z" fill="#052046"/>
<g filter="url(#filter6_d_39598_79157)">
<path d="M275.972 295.865C278.479 297.337 278.479 299.642 276.036 301.115L262.408 308.991C259.901 310.463 255.852 310.463 253.281 308.991L239.589 301.115C237.082 299.642 237.082 297.337 239.589 295.865L253.216 287.989C255.723 286.517 259.773 286.517 262.28 287.989L275.972 295.865Z" fill="#052046"/>
<path d="M257.748 288.92C259.117 288.92 260.379 289.234 261.249 289.744L261.256 289.749L261.265 289.754L274.941 297.619V297.62C275.374 297.875 275.605 298.111 275.718 298.271C275.823 298.42 275.825 298.496 275.825 298.507C275.825 298.516 275.826 298.588 275.727 298.733C275.623 298.887 275.407 299.114 275.003 299.36L261.39 307.229L261.383 307.232L261.378 307.235C260.509 307.746 259.247 308.06 257.869 308.06C256.578 308.06 255.365 307.785 254.467 307.32L254.293 307.225L240.604 299.351C240.18 299.099 239.954 298.867 239.844 298.711C239.743 298.566 239.744 298.496 239.744 298.49C239.744 298.488 239.741 298.417 239.844 298.27C239.955 298.111 240.186 297.875 240.62 297.62L240.619 297.619L254.235 289.752L254.241 289.748L254.248 289.744C255.117 289.234 256.378 288.92 257.748 288.92Z" stroke="#15D7AC" stroke-width="4.07081"/>
</g>
<path d="M257.702 282.928V283.358C259.937 283.358 262.001 283.875 263.548 284.737L281.86 295.333C283.322 296.194 284.182 297.314 284.182 298.52C284.182 299.726 283.408 300.846 281.86 301.621L263.72 312.303C262.173 313.251 260.109 313.681 257.874 313.681C255.639 313.681 253.575 313.164 252.028 312.303L233.715 301.707C232.254 300.846 231.394 299.726 231.394 298.52C231.394 297.314 232.168 296.194 233.715 295.333L251.942 284.737C253.489 283.789 255.553 283.358 257.788 283.358V282.928M257.702 282.928C255.467 282.928 253.317 283.445 251.598 284.392L233.458 294.988C230.105 296.969 230.105 300.07 233.458 302.052L251.77 312.648C253.489 313.595 255.639 314.112 257.874 314.112C260.109 314.112 262.259 313.595 263.978 312.648L282.204 302.052C285.557 300.07 285.557 296.969 282.118 294.988L263.806 284.392C262.173 283.445 259.937 282.928 257.702 282.928Z" fill="#244C85"/>
<path fill-rule="evenodd" clip-rule="evenodd" d="M231.016 278.633H257.926L257.931 313.778C255.744 313.767 253.564 313.271 251.908 312.293L233.596 301.697C231.876 300.749 231.016 299.457 231.016 298.165V278.633Z" fill="url(#paint19_linear_39598_79157)" fill-opacity="0.46"/>
<path d="M264.116 312.293L282.342 301.697C283.976 300.749 284.836 299.457 284.836 298.165V278.633H257.926L257.931 313.778C260.172 313.791 262.419 313.295 264.116 312.293Z" fill="url(#paint20_linear_39598_79157)" fill-opacity="0.46"/>
<path d="M284.619 277.753V283.869C284.619 285.088 283.807 286.338 282.202 287.269L263.976 297.864L263.975 297.865C262.327 298.839 260.142 299.33 257.948 299.33C255.755 299.33 253.569 298.839 251.922 297.865L251.921 297.864L233.609 287.269L233.607 287.268L233.3 287.089C231.818 286.18 231.106 285.011 231.106 283.869V277.753H284.619Z" fill="#10305D"/>
<path d="M284.619 277.753V283.869C284.619 285.088 283.807 286.338 282.202 287.269L263.976 297.864L263.975 297.865C262.327 298.839 260.142 299.33 257.948 299.33C255.755 299.33 253.569 298.839 251.922 297.865L251.921 297.864L233.609 287.269L233.607 287.268L233.3 287.089C231.818 286.18 231.106 285.011 231.106 283.869V277.753H284.619Z" fill="url(#paint21_linear_39598_79157)"/>
<path d="M284.619 277.753V283.869C284.619 285.088 283.807 286.338 282.202 287.269L263.976 297.864L263.975 297.865C262.327 298.839 260.142 299.33 257.948 299.33C255.755 299.33 253.569 298.839 251.922 297.865L251.921 297.864L233.609 287.269L233.607 287.268L233.3 287.089C231.818 286.18 231.106 285.011 231.106 283.869V277.753H284.619Z" stroke="#244C85" stroke-width="0.30531"/>
<path d="M282.118 273.693C285.471 275.674 285.471 278.776 282.204 280.757L263.978 291.353C260.625 293.334 255.209 293.334 251.77 291.353L233.458 280.757C230.105 278.776 230.105 275.674 233.458 273.693L251.684 263.097C255.037 261.116 260.453 261.116 263.806 263.097L282.118 273.693Z" fill="#052046"/>
<path d="M282.118 273.693C285.471 275.674 285.471 278.776 282.204 280.757L263.978 291.353C260.625 293.334 255.209 293.334 251.77 291.353L233.458 280.757C230.105 278.776 230.105 275.674 233.458 273.693L251.684 263.097C255.037 261.116 260.453 261.116 263.806 263.097L282.118 273.693Z" fill="url(#paint22_linear_39598_79157)"/>
<path d="M257.702 261.635V262.065C259.937 262.065 262.001 262.582 263.548 263.444L281.86 274.04C283.322 274.901 284.182 276.021 284.182 277.227C284.182 278.433 283.408 279.553 281.86 280.328L263.72 291.01C262.173 291.958 260.109 292.388 257.874 292.388C255.639 292.388 253.575 291.871 252.028 291.01L233.715 280.414C232.254 279.553 231.394 278.433 231.394 277.227C231.394 276.021 232.168 274.901 233.715 274.04L251.942 263.444C253.489 262.496 255.553 262.065 257.788 262.065V261.635M257.702 261.635C255.467 261.635 253.317 262.152 251.598 263.099L233.458 273.695C230.105 275.676 230.105 278.778 233.458 280.759L251.77 291.355C253.489 292.302 255.639 292.819 257.874 292.819C260.109 292.819 262.259 292.302 263.978 291.355L282.204 280.759C285.557 278.778 285.557 275.676 282.118 273.695L263.806 263.099C262.173 262.152 259.937 261.635 257.702 261.635Z" fill="#244C85"/>
<ellipse cx="281.266" cy="276.958" rx="0.852975" ry="0.526916" transform="rotate(0.480098 281.266 276.958)" fill="#15D7AC"/>
<ellipse cx="279.552" cy="277.999" rx="0.852975" ry="0.526916" transform="rotate(0.480098 279.552 277.999)" fill="#15D7AC" fill-opacity="0.47"/>
<ellipse cx="277.837" cy="279.038" rx="0.852975" ry="0.526916" transform="rotate(0.480098 277.837 279.038)" fill="#15D7AC" fill-opacity="0.22"/>
<g opacity="0.5" filter="url(#filter7_f_39598_79157)">
<ellipse cx="58.702" cy="46.5373" rx="58.702" ry="46.5373" transform="matrix(-1 0 0 1 265.74 138.551)" fill="url(#paint23_radial_39598_79157)"/>
</g>
<path d="M204.511 214.205C202.224 214.205 199.936 213.699 198.194 212.687L164.678 193.233C162.938 192.222 161.98 190.859 161.98 189.395C161.98 187.931 162.938 186.568 164.678 185.557L198.193 166.103C201.677 164.08 207.344 164.08 210.827 166.103L244.343 185.557C246.082 186.568 247.041 187.931 247.041 189.395C247.041 190.859 246.082 192.222 244.344 193.231L210.828 212.686C209.087 213.699 206.799 214.205 204.511 214.205ZM204.51 165.171C202.328 165.171 200.148 165.652 198.487 166.616L164.971 186.071C163.42 186.972 162.566 188.152 162.566 189.397C162.566 190.642 163.42 191.823 164.971 192.723L198.488 212.178C201.807 214.106 207.214 214.106 210.533 212.178L244.049 192.723C245.6 191.824 246.454 190.643 246.454 189.398C246.454 188.152 245.6 186.972 244.048 186.071L210.532 166.616C208.873 165.652 206.691 165.171 204.51 165.171Z" fill="#03FFCF"/>
<path d="M204.511 221.737C201.533 221.737 198.554 221.077 196.286 219.758L152.645 194.398C150.38 193.08 149.132 191.304 149.132 189.395C149.132 187.486 150.38 185.71 152.645 184.393L196.285 159.032C200.821 156.396 208.2 156.396 212.735 159.032L256.376 184.393C258.64 185.71 259.889 187.486 259.889 189.395C259.889 191.304 258.64 193.08 256.377 194.396L212.737 219.757C210.469 221.077 207.49 221.737 204.511 221.737ZM204.509 157.817C201.669 157.817 198.831 158.445 196.668 159.701L153.027 185.062C151.007 186.236 149.896 187.775 149.896 189.398C149.896 191.021 151.007 192.56 153.027 193.734L196.669 219.095C200.991 221.607 208.031 221.607 212.353 219.095L255.993 193.734C258.012 192.561 259.125 191.022 259.125 189.399C259.125 187.775 258.012 186.236 255.992 185.062L212.351 159.701C210.191 158.445 207.35 157.817 204.509 157.817Z" fill="#03FFCF" fill-opacity="0.4"/>
<path d="M204.511 229.487C200.819 229.487 197.124 228.669 194.313 227.034L140.197 195.594C137.389 193.961 135.841 191.758 135.841 189.392C135.841 187.026 137.389 184.824 140.197 183.19L194.311 151.75C199.936 148.482 209.086 148.482 214.71 151.75L268.823 183.19C271.632 184.824 273.179 187.026 273.179 189.392C273.179 191.758 271.632 193.961 268.825 195.592L214.711 227.032C211.899 228.669 208.205 229.487 204.511 229.487ZM204.509 150.244C200.987 150.244 197.468 151.022 194.785 152.58L140.672 184.02C138.166 185.476 136.788 187.384 136.788 189.396C136.788 191.408 138.166 193.316 140.672 194.771L194.787 226.211C200.146 229.326 208.876 229.326 214.235 226.211L268.349 194.771C270.853 193.318 272.232 191.409 272.232 189.397C272.232 187.384 270.853 185.476 268.347 184.02L214.233 152.58C211.555 151.022 208.032 150.244 204.509 150.244Z" fill="#03FFCF" fill-opacity="0.1"/>
<g clip-path="url(#clip1_39598_79157)">
<path d="M238.629 154.57L205.819 135.566L171.743 155.369L171.72 163.689L172.401 164.08V190.832L204.554 209.109L238.029 189.306V163.228L238.606 162.89L238.629 154.57Z" fill="#24D3AC"/>
<path d="M204.554 181.129L238.029 161.326V189.308L204.554 209.11V181.129Z" fill="#17CAA3"/>
<path d="M172.401 162.851L207.21 143.049L238.029 161.325L204.554 181.128L172.401 162.851Z" fill="#22BE9C"/>
<path d="M204.554 181.13V209.112L172.401 190.835V162.854L204.554 181.13Z" fill="#22BE9C"/>
<path d="M204.554 174.373L238.629 154.57L238.606 162.89L204.554 182.693V174.373Z" fill="#22BE9C"/>
<path d="M171.743 155.369L205.819 135.566L238.629 154.57L204.554 174.372L171.743 155.369Z" fill="#33E6BF"/>
<path d="M204.554 174.374V182.694L171.72 163.691L171.743 155.371L204.554 174.374Z" fill="#24D3AC"/>
<path d="M224.544 162.757L211.008 154.882L225.759 146.31L219.941 142.951L205.19 151.523L191.369 143.544L185.761 146.802L199.583 154.782L185.207 163.136L185.175 163.118V198.197L191.015 201.574V166.494L191.023 166.496L205.4 158.141L218.936 166.016L218.937 166.016L218.935 166.018V200.767L224.544 197.435V162.759L224.543 162.759L224.544 162.757Z" fill="#FED322"/>
<path d="M191.015 166.491L185.175 163.115V198.195L191.015 201.571V166.491Z" fill="#EEBF00"/>
<path d="M218.935 166.017L224.544 162.758V197.434L218.935 200.767V166.017Z" fill="#FECE00"/>
<path d="M205.4 158.141L199.583 154.782L185.205 163.138L191.023 166.497L205.4 158.141ZM225.759 146.31L219.941 142.951L205.19 151.523L211.008 154.882L225.759 146.31Z" fill="#FECE00"/>
<path d="M224.544 162.754L211.008 154.88L205.19 151.521L191.369 143.541L185.761 146.8L199.583 154.78L205.401 158.138L218.936 166.013L224.544 162.754Z" fill="#FED322"/>
<path d="M214.114 148.004C212.146 146.868 210.361 146.764 209.071 147.514L207.934 148.174C206.676 145.201 204.485 142.444 201.991 141.005C200.865 140.354 199.842 140.295 199.103 140.724L193.988 143.697C193.99 143.695 193.993 143.694 193.995 143.693C193.262 144.115 192.806 145.017 192.802 146.299C192.795 148.871 194.61 152.016 196.849 153.309L201.881 156.214L208.972 160.308C210.105 160.962 211.131 161.018 211.871 160.582C211.867 160.584 211.864 160.587 211.86 160.589L216.976 157.616C217.705 157.192 218.158 156.292 218.162 155.014C218.168 152.441 216.353 149.296 214.114 148.004Z" fill="#FECE00"/>
<path d="M195.446 146.207L200.561 143.234C200.201 143.443 199.978 143.887 199.976 144.516C199.973 145.784 200.867 147.334 201.971 147.971L196.855 150.943C195.752 150.307 194.858 148.757 194.861 147.489C194.863 146.859 195.086 146.416 195.446 146.207Z" fill="#FED322"/>
<path d="M196.856 150.943L201.971 147.971L206.897 150.815L201.782 153.787L196.856 150.943Z" fill="#FED322"/>
<path d="M193.988 143.697L199.103 140.724C199.842 140.295 200.864 140.354 201.991 141.005C204.556 142.485 206.802 145.358 208.041 148.427L202.926 151.4C201.687 148.331 199.44 145.458 196.876 143.977C195.749 143.327 194.726 143.267 193.988 143.697Z" fill="#FFDE56"/>
<path d="M205.413 152.996L210.528 150.023C209.856 150.414 209.373 151.132 209.168 152.126L204.053 155.098C204.258 154.104 204.741 153.387 205.413 152.996Z" fill="#FED322"/>
<path d="M204.053 155.098L209.168 152.125L214.094 154.969L208.979 157.941L204.053 155.098Z" fill="#FED322"/>
<path d="M215.517 155.107L210.402 158.08C210.038 158.291 209.534 158.262 208.979 157.941L214.094 154.969C214.649 155.289 215.153 155.319 215.517 155.107Z" fill="#FED322"/>
<path d="M203.955 150.486L209.07 147.513C210.361 146.763 212.146 146.867 214.114 148.003L208.999 150.975C207.031 149.84 205.245 149.736 203.955 150.486Z" fill="#FFDE56"/>
<path d="M208.999 150.978C211.238 152.271 213.053 155.416 213.046 157.989C213.039 160.561 211.211 161.603 208.972 160.31L201.881 156.216L196.849 153.311C194.61 152.018 192.794 148.874 192.802 146.301C192.809 143.728 194.637 142.686 196.876 143.979C199.44 145.46 201.687 148.333 202.926 151.402C204.178 149.771 206.434 149.497 208.999 150.978ZM208.979 157.943C210.082 158.58 210.983 158.067 210.986 156.799C210.99 155.532 210.095 153.982 208.992 153.345C206.57 151.947 204.537 152.752 204.053 155.1L208.979 157.943ZM196.856 150.944L201.782 153.788C201.313 150.891 199.291 147.744 196.869 146.346C195.766 145.709 194.865 146.222 194.862 147.49C194.858 148.758 195.753 150.307 196.856 150.944Z" fill="#FEDA44"/>
<path d="M216.976 157.616L211.86 160.589C212.59 160.165 213.043 159.265 213.046 157.987C213.054 155.414 211.238 152.269 208.999 150.976L214.114 148.004C216.353 149.297 218.169 152.441 218.161 155.014C218.158 156.292 217.705 157.193 216.976 157.616Z" fill="#FFDE56"/>
</g>
<path d="M265.14 268.154C265.169 266.228 263.865 263.782 265.507 263.824C269.02 263.914 268.822 262.575 269.365 260.467" stroke="#FEDA44" stroke-width="0.443027"/>
<path d="M245.282 251.084C245.8 251.969 247.133 252.604 246.294 253.183C244.5 254.423 244.97 254.959 245.279 256.114" stroke="#FEDA44" stroke-width="0.443027"/>
<path d="M279.562 275.137C278.799 274.835 278.293 273.764 277.743 274.611C276.566 276.423 276.111 276.101 275.099 276.032" stroke="#FEDA44" stroke-width="0.443027"/>
<path d="M277.266 261.997C275.785 264.605 272.659 269.141 275.228 268.855C278.352 268.507 279.195 265.621 276.743 265.661C274.291 265.702 271.77 266.913 271.666 268.67" stroke="#F3972C" stroke-width="0.221513"/>
<path d="M255.694 248.284C254.651 251.1 253.278 256.468 251.464 254.103C249.258 251.225 251.049 248.789 252.98 250.909C254.91 253.029 255.895 255.904 254.476 257.037" stroke="#F3972C" stroke-width="0.221513"/>
<path d="M262.524 256.25L263.017 258.299L261.215 259.816L260.722 257.768L262.524 256.25Z" fill="#96FDE9"/>
<path d="M281.492 269.371L280.084 269.052L278.914 270.948L280.322 271.267L281.492 269.371Z" fill="#96FDE9"/>
<path d="M254.401 265.527L253.007 265.901L251.519 263.133L252.913 262.76L254.401 265.527Z" fill="#96FDE9"/>
<path d="M257.299 278.601C255.941 276.453 253.074 272.755 255.431 272.82C258.298 272.898 259.071 275.332 256.821 275.472C254.57 275.611 252.257 274.743 252.163 273.232" stroke="#F3972C" stroke-width="0.221513"/>
<path d="M250.466 280.684C251.233 282.619 251.486 285.601 252.352 284.918C254.204 283.456 254.62 284.888 255.734 286.807" stroke="#FEDA44" stroke-width="0.443027"/>
<path d="M239.339 277.518C239.18 276.172 240.177 274.493 238.715 274.486C235.587 274.471 235.672 273.54 235.043 272.056" stroke="#FEDA44" stroke-width="0.443027"/>
<path d="M243.09 264.68C244.788 265.222 248.008 266.72 247.305 268.377C246.603 270.033 247.715 272.222 248.359 273.109" stroke="#FEDA44" stroke-width="0.443027"/>
<path d="M271.845 278.975C269.211 278.975 267.924 276.224 266.656 277.501C265.389 278.778 265.609 281.223 265.877 282.286" stroke="#FEDA44" stroke-width="0.443027"/>
<path d="M237.296 265.734H239.403L240.457 267.842H238.349L237.296 265.734Z" fill="#96FDE9"/>
<defs>
<filter id="filter0_f_39598_79157" x="14.9479" y="18.8812" width="224.624" height="224.623" filterUnits="userSpaceOnUse" color-interpolation-filters="sRGB">
<feFlood flood-opacity="0" result="BackgroundImageFix"/>
<feBlend mode="normal" in="SourceGraphic" in2="BackgroundImageFix" result="shape"/>
<feGaussianBlur stdDeviation="15.701" result="effect1_foregroundBlur_39598_79157"/>
</filter>
<filter id="filter1_f_39598_79157" x="142.253" y="190.744" width="224.624" height="224.623" filterUnits="userSpaceOnUse" color-interpolation-filters="sRGB">
<feFlood flood-opacity="0" result="BackgroundImageFix"/>
<feBlend mode="normal" in="SourceGraphic" in2="BackgroundImageFix" result="shape"/>
<feGaussianBlur stdDeviation="15.701" result="effect1_foregroundBlur_39598_79157"/>
</filter>
<filter id="filter2_f_39598_79157" x="125.986" y="155.455" width="31.8992" height="21.6555" filterUnits="userSpaceOnUse" color-interpolation-filters="sRGB">
<feFlood flood-opacity="0" result="BackgroundImageFix"/>
<feBlend mode="normal" in="SourceGraphic" in2="BackgroundImageFix" result="shape"/>
<feGaussianBlur stdDeviation="1.55596" result="effect1_foregroundBlur_39598_79157"/>
</filter>
<filter id="filter3_d_39598_79157" x="85.543" y="110.267" width="60.3888" height="43.3773" filterUnits="userSpaceOnUse" color-interpolation-filters="sRGB">
<feFlood flood-opacity="0" result="BackgroundImageFix"/>
<feColorMatrix in="SourceAlpha" type="matrix" values="0 0 0 0 0 0 0 0 0 0 0 0 0 0 0 0 0 0 127 0" result="hardAlpha"/>
<feOffset dy="0.817543"/>
<feGaussianBlur stdDeviation="5.01767"/>
<feComposite in2="hardAlpha" operator="out"/>
<feColorMatrix type="matrix" values="0 0 0 0 0.0117647 0 0 0 0 1 0 0 0 0 0.811765 0 0 0 0.39 0"/>
<feBlend mode="normal" in2="BackgroundImageFix" result="effect1_dropShadow_39598_79157"/>
<feBlend mode="normal" in="SourceGraphic" in2="effect1_dropShadow_39598_79157" result="shape"/>
</filter>
<filter id="filter4_f_39598_79157" x="81.4298" y="142.99" width="249.359" height="145.979" filterUnits="userSpaceOnUse" color-interpolation-filters="sRGB">
<feFlood flood-opacity="0" result="BackgroundImageFix"/>
<feBlend mode="normal" in="SourceGraphic" in2="BackgroundImageFix" result="shape"/>
<feGaussianBlur stdDeviation="1.55596" result="effect1_foregroundBlur_39598_79157"/>
</filter>
<filter id="filter5_f_39598_79157" x="240.49" y="236.068" width="65.9648" height="60.4152" filterUnits="userSpaceOnUse" color-interpolation-filters="sRGB">
<feFlood flood-opacity="0" result="BackgroundImageFix"/>
<feBlend mode="normal" in="SourceGraphic" in2="BackgroundImageFix" result="shape"/>
<feGaussianBlur stdDeviation="1.55596" result="effect1_foregroundBlur_39598_79157"/>
</filter>
<filter id="filter6_d_39598_79157" x="227.715" y="277.705" width="60.1389" height="43.1976" filterUnits="userSpaceOnUse" color-interpolation-filters="sRGB">
<feFlood flood-opacity="0" result="BackgroundImageFix"/>
<feColorMatrix in="SourceAlpha" type="matrix" values="0 0 0 0 0 0 0 0 0 0 0 0 0 0 0 0 0 0 127 0" result="hardAlpha"/>
<feOffset dy="0.814161"/>
<feGaussianBlur stdDeviation="4.99691"/>
<feComposite in2="hardAlpha" operator="out"/>
<feColorMatrix type="matrix" values="0 0 0 0 0.0117647 0 0 0 0 1 0 0 0 0 0.811765 0 0 0 0.39 0"/>
<feBlend mode="normal" in2="BackgroundImageFix" result="effect1_dropShadow_39598_79157"/>
<feBlend mode="normal" in="SourceGraphic" in2="effect1_dropShadow_39598_79157" result="shape"/>
</filter>
<filter id="filter7_f_39598_79157" x="116.934" y="107.149" width="180.208" height="155.878" filterUnits="userSpaceOnUse" color-interpolation-filters="sRGB">
<feFlood flood-opacity="0" result="BackgroundImageFix"/>
<feBlend mode="normal" in="SourceGraphic" in2="BackgroundImageFix" result="shape"/>
<feGaussianBlur stdDeviation="15.701" result="effect1_foregroundBlur_39598_79157"/>
</filter>
<radialGradient id="paint0_radial_39598_79157" cx="0" cy="0" r="1" gradientUnits="userSpaceOnUse" gradientTransform="translate(200.387 258.148) rotate(90) scale(121.784 139.212)">
<stop stop-color="#4C78B7"/>
<stop offset="1" stop-color="white" stop-opacity="0"/>
</radialGradient>
<radialGradient id="paint1_radial_39598_79157" cx="0" cy="0" r="1" gradientUnits="userSpaceOnUse" gradientTransform="translate(80.9098 80.9098) rotate(90) scale(80.9098)">
<stop stop-color="#0439C7"/>
<stop offset="1" stop-color="#02122B" stop-opacity="0"/>
</radialGradient>
<radialGradient id="paint2_radial_39598_79157" cx="0" cy="0" r="1" gradientUnits="userSpaceOnUse" gradientTransform="translate(80.9098 80.9098) rotate(90) scale(80.9098)">
<stop stop-color="#0439C7"/>
<stop offset="1" stop-color="#02122B" stop-opacity="0"/>
</radialGradient>
<linearGradient id="paint3_linear_39598_79157" x1="141.955" y1="101.89" x2="90.923" y2="145.227" gradientUnits="userSpaceOnUse">
<stop stop-color="#0E284D"/>
<stop offset="0.333333" stop-color="#294772"/>
<stop offset="0.666667" stop-color="#377CDD"/>
<stop offset="1" stop-color="#34E6BF"/>
</linearGradient>
<linearGradient id="paint4_linear_39598_79157" x1="138.996" y1="145.309" x2="78.513" y2="158.012" gradientUnits="userSpaceOnUse">
<stop stop-color="#34E6BF"/>
<stop offset="0.333333" stop-color="#377CDD"/>
<stop offset="0.666667" stop-color="#294772"/>
<stop offset="1" stop-color="#0E284D"/>
</linearGradient>
<linearGradient id="paint5_linear_39598_79157" x1="138.996" y1="145.309" x2="78.513" y2="158.012" gradientUnits="userSpaceOnUse">
<stop stop-color="#34E6BF"/>
<stop offset="0.333333" stop-color="#377CDD"/>
<stop offset="0.666667" stop-color="#294772"/>
<stop offset="1" stop-color="#0E284D"/>
</linearGradient>
<linearGradient id="paint6_linear_39598_79157" x1="141.949" y1="111.281" x2="96.9657" y2="161.565" gradientUnits="userSpaceOnUse">
<stop stop-color="#0E284D"/>
<stop offset="0.333333" stop-color="#294772"/>
<stop offset="0.666667" stop-color="#377CDD"/>
<stop offset="1" stop-color="#34E6BF"/>
</linearGradient>
<linearGradient id="paint7_linear_39598_79157" x1="95.9475" y1="116.525" x2="115.935" y2="146.453" gradientUnits="userSpaceOnUse">
<stop stop-color="#03FFCF"/>
<stop offset="1" stop-color="#2CFFFC"/>
</linearGradient>
<linearGradient id="paint8_linear_39598_79157" x1="117.067" y1="107.424" x2="142.067" y2="122.782" gradientUnits="userSpaceOnUse">
<stop stop-color="#02E6BA"/>
<stop offset="1" stop-color="#2CFFFC"/>
</linearGradient>
<linearGradient id="paint9_linear_39598_79157" x1="141.949" y1="79.1978" x2="83.4563" y2="129.174" gradientUnits="userSpaceOnUse">
<stop stop-color="#0E284D"/>
<stop offset="0.333333" stop-color="#294772"/>
<stop offset="0.666667" stop-color="#377CDD"/>
<stop offset="1" stop-color="#34E6BF"/>
</linearGradient>
<linearGradient id="paint10_linear_39598_79157" x1="193.618" y1="61.5515" x2="74.2439" y2="87.6811" gradientUnits="userSpaceOnUse">
<stop stop-color="#0E284D"/>
<stop offset="0.333333" stop-color="#294772"/>
<stop offset="0.666667" stop-color="#377CDD"/>
<stop offset="0.890329" stop-color="#34E6BF"/>
</linearGradient>
<linearGradient id="paint11_linear_39598_79157" x1="115.812" y1="121.902" x2="115.812" y2="60.8926" gradientUnits="userSpaceOnUse">
<stop stop-color="#03FFCF"/>
<stop offset="0.26" stop-color="#235F87"/>
<stop offset="0.4587" stop-color="#1C3F72"/>
<stop offset="0.715" stop-color="#162561" stop-opacity="0"/>
<stop offset="1" stop-color="#02122A" stop-opacity="0"/>
</linearGradient>
<linearGradient id="paint12_linear_39598_79157" x1="377.416" y1="59.7752" x2="-469.335" y2="102.455" gradientUnits="userSpaceOnUse">
<stop stop-color="#34E6BF"/>
<stop offset="0.333333" stop-color="#377CDD"/>
<stop offset="0.666667" stop-color="#294772"/>
<stop offset="1" stop-color="#0E284D"/>
</linearGradient>
<linearGradient id="paint13_linear_39598_79157" x1="377.416" y1="59.7752" x2="-469.335" y2="102.455" gradientUnits="userSpaceOnUse">
<stop stop-color="#34E6BF"/>
<stop offset="0.333333" stop-color="#377CDD"/>
<stop offset="0.666667" stop-color="#294772"/>
<stop offset="1" stop-color="#0E284D"/>
</linearGradient>
<linearGradient id="paint14_linear_39598_79157" x1="433.149" y1="123.742" x2="122.521" y2="272.609" gradientUnits="userSpaceOnUse">
<stop stop-color="#0E284D"/>
<stop offset="0.333333" stop-color="#294772"/>
<stop offset="0.666667" stop-color="#377CDD"/>
<stop offset="1" stop-color="#34E6BF"/>
</linearGradient>
<linearGradient id="paint15_linear_39598_79157" x1="363.153" y1="203.672" x2="122.105" y2="308.061" gradientUnits="userSpaceOnUse">
<stop stop-color="#0E284D"/>
<stop offset="0.333333" stop-color="#294772"/>
<stop offset="0.666667" stop-color="#377CDD"/>
<stop offset="1" stop-color="#34E6BF"/>
</linearGradient>
<linearGradient id="paint16_linear_39598_79157" x1="265.741" y1="199.383" x2="103.145" y2="230.49" gradientUnits="userSpaceOnUse">
<stop stop-color="#34E6BF"/>
<stop offset="0.333333" stop-color="#377CDD"/>
<stop offset="0.666667" stop-color="#294772"/>
<stop offset="1" stop-color="#0E284D"/>
</linearGradient>
<linearGradient id="paint17_linear_39598_79157" x1="265.741" y1="199.383" x2="103.145" y2="230.49" gradientUnits="userSpaceOnUse">
<stop stop-color="#34E6BF"/>
<stop offset="0.333333" stop-color="#377CDD"/>
<stop offset="0.666667" stop-color="#294772"/>
<stop offset="1" stop-color="#0E284D"/>
</linearGradient>
<linearGradient id="paint18_linear_39598_79157" x1="283.888" y1="278.713" x2="239.091" y2="328.789" gradientUnits="userSpaceOnUse">
<stop stop-color="#0E284D"/>
<stop offset="0.333333" stop-color="#294772"/>
<stop offset="0.666667" stop-color="#377CDD"/>
<stop offset="1" stop-color="#34E6BF"/>
</linearGradient>
<linearGradient id="paint19_linear_39598_79157" x1="238.076" y1="283.938" x2="257.981" y2="313.742" gradientUnits="userSpaceOnUse">
<stop stop-color="#03FFCF"/>
<stop offset="1" stop-color="#2CFFFC"/>
</linearGradient>
<linearGradient id="paint20_linear_39598_79157" x1="259.108" y1="284.159" x2="279.878" y2="300.919" gradientUnits="userSpaceOnUse">
<stop stop-color="#02E6BA"/>
<stop offset="1" stop-color="#2CFFFC"/>
</linearGradient>
<linearGradient id="paint21_linear_39598_79157" x1="283.888" y1="246.763" x2="225.637" y2="296.533" gradientUnits="userSpaceOnUse">
<stop stop-color="#0E284D"/>
<stop offset="0.333333" stop-color="#294772"/>
<stop offset="0.666667" stop-color="#377CDD"/>
<stop offset="1" stop-color="#34E6BF"/>
</linearGradient>
<linearGradient id="paint22_linear_39598_79157" x1="340.424" y1="228.222" x2="221.135" y2="261.971" gradientUnits="userSpaceOnUse">
<stop stop-color="#0E284D"/>
<stop offset="0.333333" stop-color="#294772"/>
<stop offset="0.666667" stop-color="#377CDD"/>
<stop offset="1" stop-color="#34E6BF"/>
</linearGradient>
<radialGradient id="paint23_radial_39598_79157" cx="0" cy="0" r="1" gradientUnits="userSpaceOnUse" gradientTransform="translate(58.702 46.5373) rotate(90) scale(46.5373 58.702)">
<stop stop-color="#03FFCF"/>
<stop offset="1" stop-color="#02122B" stop-opacity="0"/>
</radialGradient>
<clipPath id="clip0_39598_79157">
<rect width="45.4662" height="45.4662" fill="white" transform="translate(125.819 51.6152) rotate(36.1919)"/>
</clipPath>
<clipPath id="clip1_39598_79157">
<rect width="73.5424" height="73.5424" fill="white" transform="translate(168.403 135.566)"/>
</clipPath>
</defs>
</svg>
