<svg width="12" height="12" viewBox="0 0 12 12" fill="none" xmlns="http://www.w3.org/2000/svg">
<path d="M2 5.00045C2 2.79106 3.79106 1 6.00043 1C8.20983 1 10.0009 2.79106 10.0009 5.00045C10.0009 6.29305 9.38742 7.4425 8.43733 8.17325C8.29882 8.27975 8.15312 8.37745 8.00102 8.4654V8.5H3.99985V8.4654C3.84777 8.37745 3.70206 8.27975 3.56355 8.17325C2.61345 7.4425 2 6.29305 2 5.00045Z" fill="#5CA7FF"/>
<path d="M4 9.25V9.4994C4 10.6043 4.8957 11.5 6.00058 11.5C7.10548 11.5 8.00117 10.6043 8.00117 9.4994V9.25H4Z" fill="#5CA7FF"/>
</svg>
