<svg width="24" height="24" viewBox="0 0 24 24" fill="none" xmlns="http://www.w3.org/2000/svg">
<path id="Vector" d="M18.6004 10.1996C18.6004 6.55461 15.6454 3.59961 12.0004 3.59961C8.35539 3.59961 5.40039 6.55461 5.40039 10.1996C5.40039 12.9969 7.14351 15.382 9.60039 16.3428V19.1996C9.60039 19.8624 10.1376 20.3996 10.8004 20.3996H13.2004C13.8632 20.3996 14.4004 19.8624 14.4004 19.1996V16.3428C16.8573 15.3819 18.6004 12.9968 18.6004 10.1996Z" stroke="#F0F4FC" stroke-width="2" stroke-linecap="round" stroke-linejoin="round"/>
<path id="Vector_2" d="M9.59961 18H14.3996V19.2C14.3996 19.8623 13.8619 20.4 13.1996 20.4H10.7996C10.1373 20.4 9.59961 19.8623 9.59961 19.2V18Z" fill="#F0F4FC"/>
</svg>
