<svg width="32" height="32" viewBox="0 0 32 32" fill="none" xmlns="http://www.w3.org/2000/svg">
<g clip-path="url(#clip0_48948_110039)">
<mask id="mask0_48948_110039" style="mask-type:luminance" maskUnits="userSpaceOnUse" x="5" y="4" width="23" height="25">
<path d="M27.5 4H5.5V28.2759H27.5V4Z" fill="white"/>
</mask>
<g mask="url(#mask0_48948_110039)">
<path d="M18.3435 17.9856L17.1399 21.2082C17.1044 21.2975 17.1044 21.3968 17.1399 21.4862L19.2068 27.0326L21.5989 25.682L18.7295 17.9856C18.6634 17.8069 18.4095 17.8069 18.3435 17.9856Z" fill="white"/>
<path d="M20.751 12.5637C20.685 12.385 20.4311 12.385 20.3651 12.5637L19.1615 15.7863C19.1259 15.8757 19.1259 15.975 19.1615 16.0644L22.5488 25.1461L24.9408 23.7955L20.751 12.5637Z" fill="white"/>
<path d="M16.5 5.50452C16.5609 5.50452 16.6168 5.51941 16.6727 5.54921L25.7936 10.6983C25.9003 10.7579 25.9663 10.8672 25.9663 10.9863V21.2846C25.9663 21.4037 25.9003 21.513 25.7936 21.5725L16.6727 26.7267C16.6219 26.7564 16.5609 26.7714 16.5 26.7714C16.4391 26.7714 16.3832 26.7564 16.3273 26.7267L7.21145 21.5775C7.1048 21.5179 7.03878 21.4087 7.03878 21.2896V10.9863C7.03878 10.8672 7.1048 10.7579 7.21145 10.6983L16.3324 5.54921C16.3832 5.51941 16.4442 5.50452 16.5 5.50452ZM16.5 4C16.175 4 15.8499 4.08441 15.5604 4.24827L6.43952 9.3974C5.86057 9.72511 5.5 10.3309 5.5 10.9863V21.2846C5.5 21.94 5.86057 22.5508 6.43952 22.8785L15.5604 28.0276C15.8499 28.1914 16.175 28.2759 16.5 28.2759C16.825 28.2759 17.1501 28.1914 17.4396 28.0276L26.5604 22.8785C27.1445 22.5508 27.5 21.9449 27.5 21.2846V10.9863C27.5 10.3309 27.1394 9.72014 26.5604 9.39243L17.4446 4.24827C17.1501 4.08441 16.825 4 16.5 4Z" fill="white"/>
<path d="M10.4727 25.1506L11.3106 22.9062L12.9967 24.2767L11.4223 25.6868L10.4727 25.1506Z" fill="white"/>
<path d="M15.7334 10.2578H13.4227C13.25 10.2578 13.0925 10.3621 13.0367 10.521L8.08008 23.8084L10.472 25.159L15.9314 10.5259C15.9771 10.3968 15.8806 10.2578 15.7334 10.2578Z" fill="white"/>
<path d="M19.7801 10.2578H17.4694C17.2967 10.2578 17.1392 10.3621 17.0834 10.521L11.4209 25.6952L13.8128 27.0459L19.9731 10.5309C20.0238 10.3968 19.9223 10.2578 19.7801 10.2578Z" fill="white"/>
</g>
</g>
<defs>
<clipPath id="clip0_48948_110039">
<rect width="22" height="24.2759" fill="white" transform="translate(5.5 4)"/>
</clipPath>
</defs>
</svg>
