<svg width="15" height="12" viewBox="0 0 15 12" fill="none" xmlns="http://www.w3.org/2000/svg">
<path fill-rule="evenodd" clip-rule="evenodd" d="M1.33333 1.83333C1.33333 0.820813 2.15415 0 3.16667 0H11.5C12.5125 0 13.3333 0.820813 13.3333 1.83333V8.66667H14.1667C14.4428 8.66667 14.6667 8.89053 14.6667 9.16667V10.1667C14.6667 11.1792 13.8459 12 12.8333 12H1.83333C0.820813 12 0 11.1792 0 10.1667V9.16667C0 8.89053 0.22386 8.66667 0.5 8.66667H1.33333V1.83333ZM1 9.66667V10.1667C1 10.6269 1.37309 11 1.83333 11H12.8333C13.2936 11 13.6667 10.6269 13.6667 10.1667V9.66667H1Z" fill="#1CC79B"/>
</svg>
