<svg width="22" height="25" viewBox="0 0 22 25" fill="none" xmlns="http://www.w3.org/2000/svg">
<g style="mix-blend-mode:plus-lighter">
<path d="M6.23535 4.87207V2.55615C6.23535 1.77588 6.47054 1.16439 6.94092 0.72168C7.41683 0.278971 8.08089 0.0576172 8.93311 0.0576172H13.0586C13.9053 0.0576172 14.5666 0.278971 15.0425 0.72168C15.5184 1.16439 15.7563 1.77588 15.7563 2.55615V4.87207H14.0298V2.63916C14.0298 2.3348 13.9329 2.09408 13.7393 1.91699C13.5456 1.73438 13.2827 1.64307 12.9507 1.64307H9.04102C8.70898 1.64307 8.44613 1.73438 8.25244 1.91699C8.05876 2.09408 7.96191 2.3348 7.96191 2.63916V4.87207H6.23535ZM1.37109 5.87646C1.14421 5.87646 0.947754 5.79622 0.781738 5.63574C0.621257 5.47526 0.541016 5.27881 0.541016 5.04639C0.541016 4.8195 0.621257 4.62581 0.781738 4.46533C0.947754 4.29932 1.14421 4.21631 1.37109 4.21631H20.6289C20.8613 4.21631 21.0578 4.29655 21.2183 4.45703C21.3787 4.61751 21.459 4.81396 21.459 5.04639C21.459 5.27881 21.3787 5.47526 21.2183 5.63574C21.0633 5.79622 20.8669 5.87646 20.6289 5.87646H1.37109ZM6.11914 24.0552C5.59342 24.0552 5.13411 23.9528 4.74121 23.748C4.35384 23.5433 4.04671 23.2528 3.81982 22.8765C3.59847 22.5002 3.47673 22.0547 3.45459 21.54L2.68262 5.68555H4.39258L5.15625 21.2661C5.17285 21.5981 5.2863 21.8693 5.49658 22.0796C5.7124 22.2899 5.97526 22.395 6.28516 22.395H15.7065C16.0275 22.395 16.2931 22.2899 16.5034 22.0796C16.7137 21.8693 16.8271 21.5981 16.8438 21.2661L17.5742 5.67725H19.3257L18.562 21.5317C18.5343 22.0464 18.4071 22.4919 18.1802 22.8682C17.9533 23.25 17.6434 23.5433 17.2505 23.748C16.8631 23.9528 16.4149 24.0552 15.9058 24.0552H6.11914ZM7.8291 20.5356C7.63542 20.5356 7.4777 20.4775 7.35596 20.3613C7.23975 20.2451 7.17887 20.0929 7.17334 19.9048L6.83301 8.44971C6.82747 8.26156 6.88558 8.10938 7.00732 7.99316C7.12907 7.87142 7.28955 7.81055 7.48877 7.81055C7.67692 7.81055 7.83187 7.86865 7.95361 7.98486C8.07536 8.10107 8.139 8.25049 8.14453 8.43311L8.48486 19.8965C8.4904 20.0846 8.43229 20.2368 8.31055 20.353C8.1888 20.4748 8.02832 20.5356 7.8291 20.5356ZM11.0083 20.5356C10.8091 20.5356 10.6458 20.4748 10.5186 20.353C10.3968 20.2368 10.3359 20.0874 10.3359 19.9048V8.44141C10.3359 8.25326 10.3968 8.10107 10.5186 7.98486C10.6458 7.86865 10.8091 7.81055 11.0083 7.81055C11.2075 7.81055 11.368 7.86865 11.4897 7.98486C11.6115 8.10107 11.6724 8.25326 11.6724 8.44141V19.9048C11.6724 20.0874 11.6115 20.2368 11.4897 20.353C11.368 20.4748 11.2075 20.5356 11.0083 20.5356ZM14.1792 20.5356C13.9744 20.5356 13.814 20.4775 13.6978 20.3613C13.5815 20.2451 13.5262 20.0902 13.5317 19.8965L13.8638 8.44141C13.8693 8.25326 13.9329 8.10384 14.0547 7.99316C14.1764 7.87695 14.3341 7.81885 14.5278 7.81885C14.7215 7.81885 14.8765 7.87695 14.9927 7.99316C15.1144 8.10938 15.1725 8.26156 15.167 8.44971L14.835 19.9131C14.8294 20.1012 14.7658 20.2507 14.644 20.3613C14.5223 20.4775 14.3674 20.5356 14.1792 20.5356Z" fill="#F0F4FC" style="mix-blend-mode:plus-darker"/>
</g>
</svg>
