<svg width="24" height="24" viewBox="0 0 24 24" fill="none" xmlns="http://www.w3.org/2000/svg">
<path d="M9.08997 9.00008C9.32507 8.33175 9.78912 7.76819 10.3999 7.40921C11.0107 7.05024 11.7289 6.91902 12.4271 7.03879C13.1254 7.15857 13.7588 7.52161 14.215 8.06361C14.6713 8.60561 14.921 9.2916 14.92 10.0001C14.92 12.0001 11.92 13.0001 11.92 13.0001M12 17H12.01M7.9 20C9.80858 20.9791 12.0041 21.2443 14.0909 20.7478C16.1777 20.2514 18.0186 19.0259 19.2818 17.2922C20.545 15.5586 21.1474 13.4308 20.9806 11.2922C20.8137 9.15366 19.8886 7.14502 18.3718 5.62824C16.855 4.11146 14.8464 3.1863 12.7078 3.01946C10.5693 2.85263 8.44147 3.45509 6.70782 4.71829C4.97417 5.98149 3.74869 7.82236 3.25222 9.90916C2.75575 11.996 3.02094 14.1915 4 16.1L2 22L7.9 20Z" stroke="#F0F4FC" stroke-width="2" stroke-linecap="round" stroke-linejoin="round"/>
</svg>
