<svg width="32" height="32" viewBox="0 0 32 32" fill="none" xmlns="http://www.w3.org/2000/svg">
<path fill-rule="evenodd" clip-rule="evenodd" d="M19.3221 7H10.8038L10.0979 10.9458L17.7846 10.9551C21.5702 10.9551 22.6897 12.3294 22.6578 14.611C22.6413 15.7799 22.1346 17.7556 21.9158 18.3962C21.3324 20.1036 20.1341 22.0521 15.6409 22.0444L8.16898 22.0413L7.46148 25.9887H15.9607C18.9586 25.9887 20.2346 25.6401 21.5836 25.016C24.5769 23.6339 26.358 20.6799 27.0711 16.8247C28.1339 11.0838 26.8106 7 19.3221 7ZM4.37534 16.8103C4.5868 15.9288 4.92673 14.5119 7.12916 14.5119H15.8509C15.8509 14.5119 15.7603 14.9779 15.4837 16.1288C15.481 16.14 15.4783 16.1514 15.4755 16.1629C15.2641 17.0444 14.9241 18.4613 12.7217 18.4613H4C4 18.4613 4.09063 17.9953 4.36714 16.8445C4.36985 16.8332 4.37259 16.8218 4.37534 16.8103Z" fill="#008DE4"/>
</svg>
