<svg width="24" height="24" viewBox="0 0 24 24" fill="none" xmlns="http://www.w3.org/2000/svg">
<g id="file-pen">
<g id="Vector">
<path d="M4.80078 8.39961H8.40078C9.06318 8.39961 9.60078 7.86201 9.60078 7.19961V3.59961" fill="#F0F4FC"/>
<path d="M4.80078 8.39961H8.40078C9.06318 8.39961 9.60078 7.86201 9.60078 7.19961V3.59961" stroke="#F0F4FC" stroke-width="2" stroke-linejoin="round"/>
</g>
<path id="Vector_2" d="M19.1564 6.76281C18.9392 4.98321 17.4392 3.59961 15.6008 3.59961H10.0976C9.77958 3.59961 9.47358 3.72561 9.24918 3.95121L5.15238 8.04801C4.92678 8.27361 4.80078 8.57841 4.80078 8.89641V16.7996C4.80078 18.1484 5.55078 19.3088 6.64758 19.9256" stroke="#F0F4FC" stroke-width="2" stroke-linecap="round" stroke-linejoin="round"/>
<path id="Vector_3" d="M10.8008 20.3905L11.4008 16.7905L17.0492 11.1517C17.5184 10.6825 18.278 10.6825 18.746 11.1517L20.0492 12.4549C20.5184 12.9241 20.5184 13.6837 20.0492 14.1517L14.4008 19.7905L10.8008 20.3905Z" stroke="#F0F4FC" stroke-width="2" stroke-linecap="round" stroke-linejoin="round"/>
</g>
</svg>
