<svg width="20" height="20" viewBox="0 0 20 20" fill="none" xmlns="http://www.w3.org/2000/svg">
<g clip-path="url(#clip0_63182_43057)">
<path fill-rule="evenodd" clip-rule="evenodd" d="M16.6673 1.66406C14.8264 1.66406 13.334 3.15645 13.334 4.9974C13.334 6.83835 14.8264 8.33073 16.6673 8.33073C18.5082 8.33073 20.0007 6.83835 20.0007 4.9974C20.0007 3.15645 18.5082 1.66406 16.6673 1.66406ZM14.584 4.9974C14.584 3.8468 15.5167 2.91406 16.6673 2.91406C17.8179 2.91406 18.7507 3.8468 18.7507 4.9974C18.7507 6.14799 17.8179 7.08073 16.6673 7.08073C15.5167 7.08073 14.584 6.14799 14.584 4.9974Z" fill="#2561FF"/>
<path d="M16.666 9.63808C16.3344 9.63808 16.011 9.60325 15.6992 9.53708C13.9753 10.3694 12.0418 10.836 9.99935 10.836C6.83519 10.836 3.93255 9.71633 1.66602 7.85156V14.3777C1.66602 15.6433 2.69203 16.6693 3.95768 16.6693H16.041C17.3067 16.6693 18.3327 15.6433 18.3327 14.3777V9.32941C17.8154 9.52883 17.2535 9.63808 16.666 9.63808Z" fill="#2561FF"/>
<path d="M12.0306 5.0026C12.0306 4.41511 12.1399 3.85315 12.3393 3.33594H3.95768C2.69203 3.33594 1.66602 4.36195 1.66602 5.6276V6.17091C3.80976 8.28276 6.75237 9.58594 9.99935 9.58594C11.4389 9.58594 12.8187 9.32977 14.0954 8.8606C12.8506 8.02944 12.0306 6.61178 12.0306 5.0026Z" fill="#2561FF"/>
</g>
<defs>
<clipPath id="clip0_63182_43057">
<rect width="20" height="20" fill="white"/>
</clipPath>
</defs>
</svg>
