<svg width="24" height="24" viewBox="0 0 24 24" fill="none" xmlns="http://www.w3.org/2000/svg">
<path id="Vector" d="M16.7996 6H7.19961C5.21138 6 3.59961 7.61177 3.59961 9.6V15.6C3.59961 17.5882 5.21138 19.2 7.19961 19.2H16.7996C18.7878 19.2 20.3996 17.5882 20.3996 15.6V9.6C20.3996 7.61177 18.7878 6 16.7996 6Z" stroke="#F0F4FC" stroke-width="2" stroke-linecap="round" stroke-linejoin="round"/>
<path id="Vector_2" d="M13.1996 16.2C15.1878 16.2 16.7996 14.5882 16.7996 12.6C16.7996 10.6118 15.1878 9 13.1996 9C11.2114 9 9.59961 10.6118 9.59961 12.6C9.59961 14.5882 11.2114 16.2 13.1996 16.2Z" fill="#F0F4FC"/>
<path id="Vector_3" d="M7.2 10.8004C7.86274 10.8004 8.4 10.2631 8.4 9.60039C8.4 8.93765 7.86274 8.40039 7.2 8.40039C6.53726 8.40039 6 8.93765 6 9.60039C6 10.2631 6.53726 10.8004 7.2 10.8004Z" fill="#F0F4FC"/>
<path id="Vector_4" d="M7.19922 2.40039H9.59922" stroke="#F0F4FC" stroke-width="2" stroke-linecap="round" stroke-linejoin="round"/>
</svg>
