<svg width="24" height="24" viewBox="0 0 24 24" fill="none" xmlns="http://www.w3.org/2000/svg">
<path fill-rule="evenodd" clip-rule="evenodd" d="M8.12666 5C8.98667 3.79079 10.4006 3 12 3C13.5994 3 15.0133 3.79079 15.8733 5H19.25C20.7688 5 22 6.23122 22 7.75V18.25C22 19.7688 20.7688 21 19.25 21H4.75C3.23122 21 2 19.7688 2 18.25V7.75C2 6.23122 3.23122 5 4.75 5H8.12666ZM12 9C10.067 9 8.5 10.567 8.5 12.5C8.5 14.433 10.067 16 12 16C13.933 16 15.5 14.433 15.5 12.5C15.5 10.567 13.933 9 12 9Z" fill="#F0F4FC"/>
</svg>
