<svg width="24" height="24" viewBox="0 0 24 24" fill="none" xmlns="http://www.w3.org/2000/svg">
<g id="book-bookmark" clip-path="url(#clip0_947_5781)">
<path id="Vector" d="M16.8008 19.2002H18.0008" stroke="#F0F4FC" stroke-width="2" stroke-linecap="round" stroke-linejoin="round"/>
<path id="Vector_2" d="M4.80078 16.7996V5.99961C4.80078 4.67409 5.87526 3.59961 7.20078 3.59961H16.8008C18.1263 3.59961 19.2008 4.67409 19.2008 5.99961V14.3996H7.20078C5.87526 14.3996 4.80078 15.4741 4.80078 16.7996ZM4.80078 16.7996C4.80078 18.1251 5.87526 19.1996 7.20078 19.1996H12.0008" stroke="#F0F4FC" stroke-width="2" stroke-linecap="round" stroke-linejoin="round"/>
<path id="Vector_3" d="M13.5004 16.7998H9.30039C8.80347 16.7998 8.40039 17.2029 8.40039 17.6998V23.0998C8.40039 23.4842 8.64411 23.8264 9.00855 23.9506C9.37299 24.0736 9.77499 23.9553 10.0106 23.653L11.4004 21.8658L12.7902 23.653C12.9636 23.8756 13.2285 23.9999 13.5004 23.9999C13.5977 23.9999 13.6961 23.9835 13.7922 23.9507C14.1567 23.8265 14.4004 23.4843 14.4004 23.0999V17.6999C14.4004 17.203 13.9973 16.7998 13.5004 16.7998Z" fill="#F0F4FC"/>
<path id="Vector_4" d="M9.60039 8.4C10.2631 8.4 10.8004 7.86274 10.8004 7.2C10.8004 6.53726 10.2631 6 9.60039 6C8.93765 6 8.40039 6.53726 8.40039 7.2C8.40039 7.86274 8.93765 8.4 9.60039 8.4Z" fill="#F0F4FC"/>
<path id="Vector_5" d="M9.60039 11.9996C10.2631 11.9996 10.8004 11.4624 10.8004 10.7996C10.8004 10.1369 10.2631 9.59961 9.60039 9.59961C8.93765 9.59961 8.40039 10.1369 8.40039 10.7996C8.40039 11.4624 8.93765 11.9996 9.60039 11.9996Z" fill="#F0F4FC"/>
</g>
<defs>
<clipPath id="clip0_947_5781">
<rect width="24" height="24" fill="white"/>
</clipPath>
</defs>
</svg>
