<svg width="32" height="32" viewBox="0 0 32 32" fill="none" xmlns="http://www.w3.org/2000/svg">
<g clip-path="url(#clip0_48948_109689)">
<path d="M16 27C22.0751 27 27 22.0751 27 16C27 9.92487 22.0751 5 16 5C9.92487 5 5 9.92487 5 16C5 22.0751 9.92487 27 16 27Z" fill="#2E3148"/>
<path d="M15.9999 22.3826C19.525 22.3826 22.3826 19.525 22.3826 15.9999C22.3826 12.4748 19.525 9.61719 15.9999 9.61719C12.4748 9.61719 9.61719 12.4748 9.61719 15.9999C9.61719 19.525 12.4748 22.3826 15.9999 22.3826Z" fill="#1B1E36"/>
<path d="M16.0223 6.40625C14.8349 6.40625 13.8721 10.713 13.8721 16.0256C13.8721 21.3383 14.8349 25.645 16.0223 25.645C17.2096 25.645 18.1725 21.3383 18.1725 16.0256C18.1725 10.713 17.2096 6.40625 16.0223 6.40625ZM16.1707 25.1021C16.0349 25.2832 15.8992 25.1473 15.8992 25.1473C15.3523 24.5137 15.0789 23.3367 15.0789 23.3367C14.1224 20.2585 14.3501 13.6494 14.3501 13.6494C14.7996 8.40253 15.6173 7.16305 15.8955 6.88787C15.924 6.85979 15.9614 6.84263 16.0012 6.83941C16.041 6.83619 16.0807 6.84712 16.1133 6.87027C16.517 7.15636 16.8556 8.35281 16.8556 8.35281C17.8556 12.0647 17.765 15.5503 17.765 15.5503C17.8556 18.5833 17.2639 21.9783 17.2639 21.9783C16.8085 24.5585 16.1707 25.1021 16.1707 25.1021Z" fill="#6F7390"/>
<path d="M24.3664 11.2348C23.7753 10.2045 19.5609 11.5127 14.9504 14.1564C10.34 16.8001 7.08791 19.7787 7.67866 20.8085C8.2694 21.8384 12.4842 20.5306 17.0947 17.8869C21.7051 15.2432 24.9572 12.2647 24.3664 11.2348ZM8.22408 20.6672C7.99774 20.6387 8.04887 20.4526 8.04887 20.4526C8.32651 19.6632 9.21003 18.8402 9.21003 18.8402C11.405 16.4787 17.2514 13.3873 17.2514 13.3873C22.0257 11.166 23.5087 11.2597 23.8849 11.3633C23.9235 11.3741 23.9571 11.3982 23.9796 11.4313C24.0022 11.4645 24.0123 11.5045 24.0081 11.5444C23.9629 12.0372 23.0914 12.926 23.0914 12.926C20.3712 15.6416 17.3025 17.2979 17.3025 17.2979C14.7168 18.8863 11.4775 20.0619 11.4775 20.0619C9.01274 20.9501 8.22417 20.6672 8.22417 20.6672H8.22408Z" fill="#6F7390"/>
<path d="M24.346 20.8426C24.9418 19.815 21.6979 16.8228 17.1036 14.1593C12.5094 11.4957 8.29554 10.1713 7.70031 11.2006C7.10508 12.2299 10.3485 15.2204 14.9453 17.8839C19.5422 20.5475 23.7508 21.872 24.346 20.8426ZM8.09508 11.5977C8.00708 11.389 8.19285 11.3388 8.19285 11.3388C9.01529 11.1835 10.1706 11.5374 10.1706 11.5374C13.3135 12.2531 18.9178 15.7636 18.9178 15.7636C23.2327 18.783 23.8944 20.1129 23.9936 20.4904C24.0037 20.5291 23.9998 20.5702 23.9825 20.6063C23.9653 20.6424 23.9359 20.6713 23.8994 20.6878C23.4495 20.8938 22.2444 20.5869 22.2444 20.5869C18.5302 19.591 15.5598 17.7663 15.5598 17.7663C12.8908 16.3268 10.2517 14.1118 10.2517 14.1118C8.24635 12.4234 8.09569 11.6 8.09569 11.6L8.09508 11.5977Z" fill="#6F7390"/>
<path d="M15.9998 17.1305C16.6249 17.1305 17.1315 16.6239 17.1315 15.9989C17.1315 15.3739 16.6249 14.8672 15.9998 14.8672C15.3748 14.8672 14.8682 15.3739 14.8682 15.9989C14.8682 16.6239 15.3748 17.1305 15.9998 17.1305Z" fill="#B7B9C8"/>
<path d="M20.6398 12.3346C21.0023 12.3346 21.2962 12.0306 21.2962 11.6556C21.2962 11.2806 21.0023 10.9766 20.6398 10.9766C20.2773 10.9766 19.9834 11.2806 19.9834 11.6556C19.9834 12.0306 20.2773 12.3346 20.6398 12.3346Z" fill="#B7B9C8"/>
<path d="M9.86635 14.6393C10.2289 14.6393 10.5227 14.3353 10.5227 13.9603C10.5227 13.5853 10.2289 13.2812 9.86635 13.2812C9.50384 13.2812 9.20996 13.5853 9.20996 13.9603C9.20996 14.3353 9.50384 14.6393 9.86635 14.6393Z" fill="#B7B9C8"/>
<path d="M14.6642 22.9674C15.0267 22.9674 15.3206 22.6634 15.3206 22.2884C15.3206 21.9134 15.0267 21.6094 14.6642 21.6094C14.3017 21.6094 14.0078 21.9134 14.0078 22.2884C14.0078 22.6634 14.3017 22.9674 14.6642 22.9674Z" fill="#B7B9C8"/>
</g>
<defs>
<clipPath id="clip0_48948_109689">
<rect width="22" height="22" fill="white" transform="translate(5 5)"/>
</clipPath>
</defs>
</svg>
