<svg width="24" height="24" viewBox="0 0 24 24" fill="none" xmlns="http://www.w3.org/2000/svg">
<g clip-path="url(#clip0_49019_123891)">
<path d="M23.0811 7.23032C21.9561 6.19157 20.3998 4.60532 19.1323 3.48032L19.0573 3.42782C18.9325 3.32761 18.7918 3.24902 18.6411 3.19532C15.5848 2.62532 1.36105 -0.0334315 1.08355 0.000318475C1.0058 0.0112085 0.931473 0.0394005 0.866055 0.0828185L0.794805 0.139068C0.707071 0.228169 0.640436 0.33581 0.599805 0.454068L0.581055 0.502818V0.769068V0.810318C2.1823 5.26907 8.50481 19.8753 9.74981 23.3028C9.82481 23.5353 9.96731 23.9778 10.2336 24.0003H10.2936C10.4361 24.0003 11.0436 23.1978 11.0436 23.1978C11.0436 23.1978 21.9036 10.0278 23.0023 8.62532C23.1445 8.45256 23.2701 8.26673 23.3773 8.07032C23.4047 7.91664 23.3918 7.7585 23.3398 7.61129C23.2879 7.46408 23.1988 7.33283 23.0811 7.23032ZM13.8298 8.76407L18.4648 4.92032L21.1836 7.42532L13.8298 8.76407ZM12.0298 8.51282L4.0498 1.97282L16.9611 4.35407L12.0298 8.51282ZM12.7498 10.2266L20.9173 8.91032L11.5798 20.1603L12.7498 10.2266ZM2.96605 2.62532L11.3623 9.75032L10.1473 20.1678L2.96605 2.62532Z" fill="#02122B"/>
</g>
<defs>
<clipPath id="clip0_49019_123891">
<rect width="24" height="24" fill="white"/>
</clipPath>
</defs>
</svg>
