<svg width="26" height="26" viewBox="0 0 26 26" fill="none" xmlns="http://www.w3.org/2000/svg">
<g clip-path="url(#clip0_49019_123678)">
<path d="M13 0C20.1797 0 26 5.8203 26 13C26 20.1797 20.1797 26 13 26C5.8203 26 0 20.1797 0 13C0 5.8203 5.8203 0 13 0ZM13 1.3C6.53827 1.3 1.3 6.53827 1.3 13C1.3 19.4617 6.53827 24.7 13 24.7C19.4617 24.7 24.7 19.4617 24.7 13C24.7 6.53827 19.4617 1.3 13 1.3Z" fill="#02122B"/>
<path d="M12.6644 9.46387H5.5144V10.7639H12.6644V9.46387Z" fill="#02122B"/>
<path d="M20.4648 9.46387H13.9648V10.7639H20.4648V9.46387Z" fill="#02122B"/>
<path d="M20.4648 7.19238H13.9648V8.49238H20.4648V7.19238Z" fill="#02122B"/>
<path d="M11.039 7.19238H6.81396V8.49238H11.039V7.19238Z" fill="#02122B"/>
<path d="M18.1569 7.21111L16.0886 5.14282L15.1694 6.06206L17.2377 8.13035L18.1569 7.21111Z" fill="#02122B"/>
<path d="M9.54898 10.6242L11.0403 8.49438L9.97539 7.74874L8.48409 9.87853L9.54898 10.6242Z" fill="#02122B"/>
<path d="M4.964 11.1674L8.87866 5.57666L7.81376 4.83101L3.89911 10.4217L4.964 11.1674Z" fill="#02122B"/>
<path d="M14.4933 19.1688L15.7295 16.5178L14.5513 15.9684L13.3151 18.6194L14.4933 19.1688Z" fill="#02122B"/>
<path d="M20.3 20.347L18.5144 16.5178L19.6926 15.9684L21.4782 19.7976L20.3 20.347Z" fill="#02122B"/>
<path d="M20.4648 13.6924H13.9648V14.9924H20.4648V13.6924Z" fill="#02122B"/>
<path d="M17.864 19.5461H14.939V20.8461H17.864V19.5461Z" fill="#02122B"/>
<path d="M12.3398 14.9944H5.83984V16.2944H12.3398V14.9944Z" fill="#02122B"/>
<path d="M12.0153 12.3999H6.16528V13.3749H12.0153V12.3999Z" fill="#02122B"/>
<path d="M6.8144 10.4424H5.5144V16.2924H6.8144V10.4424Z" fill="#02122B"/>
<path d="M9.73897 10.4424H8.43896V16.2924H9.73897V10.4424Z" fill="#02122B"/>
<path d="M15.2648 10.4424H13.9648V14.0174H15.2648V10.4424Z" fill="#02122B"/>
<path d="M17.864 14.3389H16.564V20.8389H17.864V14.3389Z" fill="#02122B"/>
<path d="M6.8144 17.2749H5.5144V20.1999H6.8144V17.2749Z" fill="#02122B"/>
<path d="M8.76484 17.2749H7.46484V20.1999H8.76484V17.2749Z" fill="#02122B"/>
<path d="M10.7153 17.2749H9.41528V20.1999H10.7153V17.2749Z" fill="#02122B"/>
<path d="M12.666 17.2749H11.366V18.5749H12.666V17.2749Z" fill="#02122B"/>
<path d="M20.4653 10.4424H19.1653V14.0174H20.4653V10.4424Z" fill="#02122B"/>
<path d="M12.666 10.4424H11.366V16.2924H12.666V10.4424Z" fill="#02122B"/>
</g>
<defs>
<clipPath id="clip0_49019_123678">
<rect width="26" height="26" fill="white"/>
</clipPath>
</defs>
</svg>
