<svg width="20" height="20" viewBox="0 0 20 20" fill="none" xmlns="http://www.w3.org/2000/svg">
<path d="M8.125 14.7923C8.125 14.3321 8.49808 13.959 8.95833 13.959H11.0417C11.5019 13.959 11.875 14.3321 11.875 14.7923V16.8757C11.875 17.3359 11.5019 17.709 11.0417 17.709H8.95833C8.49808 17.709 8.125 17.3359 8.125 16.8757V14.7923Z" stroke="#5CA7FF" stroke-width="1.5" stroke-linecap="round" stroke-linejoin="round"/>
<path d="M8.125 3.12435C8.125 2.66412 8.49808 2.29102 8.95833 2.29102H11.0417C11.5019 2.29102 11.875 2.66412 11.875 3.12435V5.20768C11.875 5.66792 11.5019 6.04102 11.0417 6.04102H8.95833C8.49808 6.04102 8.125 5.66792 8.125 5.20768V3.12435Z" stroke="#5CA7FF" stroke-width="1.5" stroke-linecap="round" stroke-linejoin="round"/>
<path d="M16.8752 8.125C17.3354 8.125 17.7085 8.49808 17.7085 8.95833V11.0417C17.7085 11.5019 17.3354 11.875 16.8752 11.875H14.7918C14.3316 11.875 13.9585 11.5019 13.9585 11.0417V8.95833C13.9585 8.49808 14.3316 8.125 14.7918 8.125H16.8752Z" stroke="#5CA7FF" stroke-width="1.5" stroke-linecap="round" stroke-linejoin="round"/>
<path d="M5.20817 8.125C5.6684 8.125 6.0415 8.49808 6.0415 8.95833V11.0417C6.0415 11.5019 5.6684 11.875 5.20817 11.875H3.12484C2.6646 11.875 2.2915 11.5019 2.2915 11.0417V8.95833C2.2915 8.49808 2.6646 8.125 3.12484 8.125H5.20817Z" stroke="#5CA7FF" stroke-width="1.5" stroke-linecap="round" stroke-linejoin="round"/>
<path d="M4.5835 7.83141C5.1755 6.35451 6.35402 5.17598 7.83092 4.58398" stroke="#5CA7FF" stroke-width="1.5" stroke-linecap="round" stroke-linejoin="round"/>
<path d="M12.1694 4.58398C13.6464 5.17598 14.8249 6.35451 15.4169 7.83141" stroke="#5CA7FF" stroke-width="1.5" stroke-linecap="round" stroke-linejoin="round"/>
<path d="M15.4169 12.1699C14.8249 13.6468 13.6464 14.8253 12.1694 15.4173" stroke="#5CA7FF" stroke-width="1.5" stroke-linecap="round" stroke-linejoin="round"/>
<path d="M7.83092 15.4173C6.35402 14.8253 5.1755 13.6468 4.5835 12.1699" stroke="#5CA7FF" stroke-width="1.5" stroke-linecap="round" stroke-linejoin="round"/>
</svg>
