<svg width="24" height="24" viewBox="0 0 24 24" fill="none" xmlns="http://www.w3.org/2000/svg">
<path id="Vector" d="M3.59961 4.7998H16.1996C17.8564 4.7998 19.1996 6.14296 19.1996 7.7998C19.1996 9.45664 17.8564 10.7998 16.1996 10.7998H3.59961" stroke="#F0F4FC" stroke-width="2" stroke-linecap="round" stroke-linejoin="round"/>
<path id="Vector_2" d="M13.8008 16.7998H7.80078C6.14394 16.7998 4.80078 15.4566 4.80078 13.7998C4.80078 12.143 6.14394 10.7998 7.80078 10.7998H20.4008" stroke="#F0F4FC" stroke-width="2" stroke-linecap="round" stroke-linejoin="round"/>
<path id="Vector_3" d="M20.3992 16.7998H19.1992" stroke="#F0F4FC" stroke-width="2" stroke-linecap="round" stroke-linejoin="round"/>
<path id="Vector_4" d="M14.6996 13.7998H10.4996C10.0027 13.7998 9.59961 14.2029 9.59961 14.6998V20.6998C9.59961 21.0842 9.84333 21.4264 10.2078 21.5506C10.5722 21.6736 10.9742 21.5553 11.2098 21.253L12.5996 19.4658L13.9894 21.253C14.1628 21.4756 14.4277 21.5999 14.6996 21.5999C14.7969 21.5999 14.8953 21.5835 14.9914 21.5507C15.3559 21.4265 15.5996 21.0843 15.5996 20.6999V14.6999C15.5996 14.203 15.1965 13.7998 14.6996 13.7998Z" fill="#F0F4FC"/>
<path id="Vector_5" d="M4.80078 4.7998C6.40074 6.79984 6.40074 8.79976 4.80078 10.7998" stroke="#F0F4FC" stroke-width="2" stroke-linecap="round" stroke-linejoin="round"/>
<path id="Vector_6" d="M19.2 16.7998C17.6 14.7998 17.6 12.7998 19.2 10.7998" stroke="#F0F4FC" stroke-width="2" stroke-linecap="round" stroke-linejoin="round"/>
</svg>
