<svg width="18" height="16" viewBox="0 0 17.222 15.3048" fill="none" xmlns="http://www.w3.org/2000/svg">
<path d="M4.08333 13.6667V3.25C4.08333 2.78977 3.71023 2.41667 3.25 2.41667H1.58333C1.1231 2.41667 0.75 2.78977 0.75 3.25V13.6667C0.75 14.1269 1.1231 14.5 1.58333 14.5H3.25C3.71023 14.5 4.08333 14.1269 4.08333 13.6667ZM4.08333 13.6667V1.58333C4.08333 1.1231 4.45643 0.75 4.91667 0.75H8.66667C9.12692 0.75 9.5 1.1231 9.5 1.58333V13.6667C9.5 14.1269 9.12692 14.5 8.66667 14.5H4.91667C4.45643 14.5 4.08333 14.1269 4.08333 13.6667ZM4.08333 4.1875H9.5M4.08333 11.0625H9.5M13.8417 14.526L15.854 13.9867C16.2986 13.8677 16.5623 13.4108 16.4433 12.9662L13.9629 3.70937C13.8438 3.26481 13.3868 3.00099 12.9422 3.12011L10.9299 3.65932C10.4854 3.77843 10.2216 4.23538 10.3407 4.67994L12.821 13.9368C12.9402 14.3813 13.3971 14.6451 13.8417 14.526Z" stroke="#F0F4FC" stroke-width="1.5" stroke-linecap="round" stroke-linejoin="round"/>
</svg>
