<svg width="32" height="32" viewBox="0 0 32 32" fill="none" xmlns="http://www.w3.org/2000/svg">
<path d="M6 7.66667C6 6.74619 6.74619 6 7.66667 6H10.6667C11.2189 6 11.6667 5.55228 11.6667 5C11.6667 4.44772 11.2189 4 10.6667 4H7.66667C5.64163 4 4 5.64163 4 7.66667V10.6667C4 11.2189 4.44772 11.6667 5 11.6667C5.55228 11.6667 6 11.2189 6 10.6667V7.66667Z" fill="#4879FD"/>
<path d="M21.333 4C20.7807 4 20.333 4.44772 20.333 5C20.333 5.55228 20.7807 6 21.333 6H24.333C25.2535 6 25.9997 6.74619 25.9997 7.66667V10.6667C25.9997 11.2189 26.4474 11.6667 26.9997 11.6667C27.5519 11.6667 27.9997 11.2189 27.9997 10.6667V7.66667C27.9997 5.64163 26.3581 4 24.333 4H21.333Z" fill="#4879FD"/>
<path d="M6 21.333C6 20.7807 5.55228 20.333 5 20.333C4.44772 20.333 4 20.7807 4 21.333V24.333C4 26.3581 5.64163 27.9997 7.66667 27.9997H10.6667C11.2189 27.9997 11.6667 27.5519 11.6667 26.9997C11.6667 26.4474 11.2189 25.9997 10.6667 25.9997H7.66667C6.74619 25.9997 6 25.2535 6 24.333V21.333Z" fill="#4879FD"/>
<path d="M27.9997 21.333C27.9997 20.7807 27.5519 20.333 26.9997 20.333C26.4474 20.333 25.9997 20.7807 25.9997 21.333V24.333C25.9997 25.2535 25.2535 25.9997 24.333 25.9997H21.333C20.7807 25.9997 20.333 26.4474 20.333 26.9997C20.333 27.5519 20.7807 27.9997 21.333 27.9997H24.333C26.3581 27.9997 27.9997 26.3581 27.9997 24.333V21.333Z" fill="#4879FD"/>
<path fill-rule="evenodd" clip-rule="evenodd" d="M20.0003 13.5575V13.333C20.0003 11.1239 18.2095 9.33301 16.0003 9.33301C13.7911 9.33301 12.0003 11.1239 12.0003 13.333V13.5575C11.212 13.9321 10.667 14.7355 10.667 15.6663V18.9997C10.667 20.2883 11.7117 21.333 13.0003 21.333H19.0003C20.289 21.333 21.3337 20.2883 21.3337 18.9997V15.6663C21.3337 14.7355 20.7886 13.9321 20.0003 13.5575ZM14.0003 13.333H18.0003C18.0003 12.2284 17.1049 11.333 16.0003 11.333C14.8958 11.333 14.0003 12.2284 14.0003 13.333Z" fill="#4879FD"/>
</svg>
