<svg width="23" height="22" viewBox="0 0 23 22" fill="none" xmlns="http://www.w3.org/2000/svg">
<g clip-path="url(#clip0_49019_123729)">
<path d="M17.4398 13.1041C17.7955 12.4965 18.6787 12.4965 19.0305 13.1041L22.8097 19.5803C23.1654 20.188 22.7199 20.9446 22.0124 20.9446H14.454C13.7465 20.9446 13.3049 20.188 13.6567 19.5803L17.4359 13.1041H17.4398Z" fill="#02122B"/>
<path d="M15.1574 8.78671C15.5014 8.183 15.5014 7.43814 15.1574 6.83052L12.0583 1.40885C11.7105 0.801216 10.8428 0.801216 10.495 1.40885L0.122564 19.5712C-0.225267 20.1789 0.208544 20.9394 0.904205 20.9394H7.09871C7.79046 20.9394 8.42752 20.5669 8.77143 19.9633L15.1535 8.78671H15.1574Z" fill="#02122B"/>
</g>
<defs>
<clipPath id="clip0_49019_123729">
<rect width="23" height="20.0845" fill="white" transform="translate(0 0.953125)"/>
</clipPath>
</defs>
</svg>
