<svg width="25" height="29" viewBox="0 0 25 29" fill="none" xmlns="http://www.w3.org/2000/svg">
<g clip-path="url(#clip0_49019_123787)">
<path d="M8.099 6.77637H17.1543L18.2457 11.3923H7.05054L8.099 6.77637ZM14.6168 14.6663L15.5829 12.0902H9.72257L10.7088 14.6663L10.407 17.5587H12.6435L14.8968 17.5461L14.6168 14.6663Z" fill="#02122B"/>
<path d="M18.2647 12.9646L15.6145 14.6907V17.7563L13.5874 19.701V20.6158L15.5406 22.4142H17.1734L21.2899 15.2423L18.2647 12.9646ZM9.71051 14.6907L7.02671 12.9856L3.99146 15.2423L8.12899 22.4344H9.78282L11.736 20.6158V19.701L9.70967 17.7563L9.71051 14.6907Z" fill="#02122B"/>
<path fill-rule="evenodd" clip-rule="evenodd" d="M0.648053 7.5452L12.6318 0.625488L24.6467 7.56201V21.4334L12.6344 28.3716L12.6033 28.3548L0.616943 21.4351V7.56201L0.648053 7.5452ZM12.6318 2.04138L1.8445 8.27164V20.7288L12.6318 26.9574L23.4209 20.7288V8.27248L12.6318 2.04138Z" fill="#02122B"/>
</g>
<defs>
<clipPath id="clip0_49019_123787">
<rect width="24.3829" height="28.5869" fill="white" transform="translate(0.616943 0.206543)"/>
</clipPath>
</defs>
</svg>
