<svg width="16" height="16" viewBox="0 0 16 16" fill="none" xmlns="http://www.w3.org/2000/svg">
<path d="M9.49967 13.5H10.1663M9.49967 13.5V6.5M9.49967 13.5H2.49967M9.49967 6.5V3.83333C9.49967 3.09695 8.90274 2.5 8.16634 2.5H3.83301C3.09663 2.5 2.49967 3.09695 2.49967 3.83333V13.5M9.49967 6.5H10.4997C11.2361 6.5 11.833 7.09693 11.833 7.83333V10.3333C11.833 10.9777 12.3553 11.5 12.9997 11.5C13.644 11.5 14.1663 10.9777 14.1663 10.3333V5.92715C14.1663 5.54917 14.0059 5.18895 13.7249 4.93609L12.4997 3.83333M2.49967 13.5H1.83301M7.49967 6.5H4.49967" stroke="#C9D6E8" stroke-width="1.5" stroke-linecap="round" stroke-linejoin="round"/>
</svg>
