<svg width="20" height="20" viewBox="0 0 20 20" fill="none" xmlns="http://www.w3.org/2000/svg">
<path fill-rule="evenodd" clip-rule="evenodd" d="M10 1.875C7.69886 1.875 5.83337 3.74048 5.83337 6.04167V7.5H5.62504C4.35939 7.5 3.33337 8.526 3.33337 9.79167V16.0417C3.33337 17.3073 4.35939 18.3333 5.62504 18.3333H14.375C15.6407 18.3333 16.6667 17.3073 16.6667 16.0417V9.79167C16.6667 8.526 15.6407 7.5 14.375 7.5H14.1667V6.04167C14.1667 3.74048 12.3012 1.875 10 1.875ZM12.9167 7.5V6.04167C12.9167 4.43083 11.6109 3.125 10 3.125C8.38921 3.125 7.08337 4.43083 7.08337 6.04167V7.5H12.9167ZM10 11.0417C10.3452 11.0417 10.625 11.3215 10.625 11.6667V14.1667C10.625 14.5118 10.3452 14.7917 10 14.7917C9.65487 14.7917 9.37504 14.5118 9.37504 14.1667V11.6667C9.37504 11.3215 9.65487 11.0417 10 11.0417Z" fill="#5CA7FF"/>
</svg>
