<svg width="880" height="880" viewBox="0 0 880 880" fill="none" xmlns="http://www.w3.org/2000/svg">
<circle cx="401" cy="401" r="401" fill="#E1E1E1"/>
<g clip-path="url(#clip0_2871_10583)">
<path d="M401.578 580.448L212.12 487.948L401.406 742.667L429.844 704.396V566.604L401.578 580.448Z" fill="#8C8C8C"/>
<path d="M401.406 60L184 450.099H618.818L401.406 60Z" fill="#8C8C8C"/>
<path d="M618.818 450.677L401.406 60V450.677H618.818Z" fill="#343434"/>
<path d="M401.406 344.161L400.552 343.755L184.021 450.422H184.213L400.745 557.089L401.599 556.682L429.844 542.859V358.089L401.406 344.161Z" fill="#393939"/>
<path d="M401.578 580.448L401.406 742.667L590.828 487.776L401.578 580.448Z" fill="#3C3C3B"/>
<path d="M618.411 450.422L401.406 344.161L400.552 343.755L400.745 557.089L401.599 556.682L618.604 450.422H618.411Z" fill="#141414"/>
</g>
<g clip-path="url(#clip1_2871_10583)">
<mask id="mask0_2871_10583" style="mask-type:luminance" maskUnits="userSpaceOnUse" x="454" y="454" width="408" height="408">
<path d="M657.998 861.019C770.124 861.019 861.017 770.124 861.017 658C861.017 545.876 770.124 454.981 657.998 454.981C545.875 454.981 454.98 545.876 454.98 658C454.98 770.124 545.875 861.019 657.998 861.019Z" fill="white"/>
</mask>
<g mask="url(#mask0_2871_10583)">
<path d="M880.242 435.758H435.757V880.242H880.242V435.758Z" fill="url(#paint0_linear_2871_10583)"/>
</g>
<path d="M716.713 701.81L774.152 668.644C777.194 666.887 779.076 663.62 779.076 660.106V593.781C779.076 590.275 777.186 587 774.152 585.243L716.713 552.077C713.671 550.319 709.9 550.327 706.858 552.077L649.419 585.243C646.377 587 644.495 590.275 644.495 593.781V712.313L604.217 735.565L563.938 712.313V665.801L604.217 642.548L630.785 657.883V626.683L609.141 614.19C607.649 613.328 605.941 612.872 604.208 612.872C602.476 612.872 600.768 613.328 599.285 614.19L541.846 647.356C538.804 649.113 536.922 652.38 536.922 655.895V722.22C536.922 725.725 538.812 729 541.846 730.757L599.285 763.923C602.318 765.673 606.098 765.673 609.141 763.923L666.579 730.765C669.621 729.008 671.503 725.734 671.503 722.228V603.695L672.233 603.281L711.781 580.443L752.06 603.695V650.208L711.781 673.46L685.255 658.141V689.343L706.858 701.818C709.9 703.568 713.671 703.568 716.713 701.818V701.81Z" fill="white"/>
</g>
<defs>
<linearGradient id="paint0_linear_2871_10583" x1="354.528" y1="472.29" x2="813.387" y2="753.09" gradientUnits="userSpaceOnUse">
<stop stop-color="#A229C5"/>
<stop offset="1" stop-color="#7B3FE4"/>
</linearGradient>
<clipPath id="clip0_2871_10583">
<rect width="682.667" height="682.667" fill="white" transform="translate(60 60)"/>
</clipPath>
<clipPath id="clip1_2871_10583">
<rect width="408" height="408" fill="white" transform="translate(454 454)"/>
</clipPath>
</defs>
</svg>
