<svg width="18" height="20" viewBox="0 0 18 20" fill="none" xmlns="http://www.w3.org/2000/svg">
<path d="M1.5376 15.4854C1.21663 15.3027 0.964844 15.0565 0.782227 14.7466C0.605143 14.4367 0.516602 14.0964 0.516602 13.7256V6.28809C0.516602 5.91178 0.605143 5.56868 0.782227 5.25879C0.964844 4.94889 1.21663 4.70264 1.5376 4.52002L7.979 0.80127C8.29997 0.613118 8.63753 0.519043 8.9917 0.519043C9.3514 0.519043 9.6945 0.613118 10.021 0.80127L16.4541 4.52002C16.7751 4.70264 17.0241 4.94889 17.2012 5.25879C17.3838 5.56868 17.4751 5.91178 17.4751 6.28809V13.7256C17.4751 14.0964 17.3838 14.4367 17.2012 14.7466C17.0241 15.0565 16.7751 15.3027 16.4541 15.4854L10.021 19.2124C9.6945 19.4061 9.3514 19.5029 8.9917 19.5029C8.63753 19.5029 8.29997 19.4061 7.979 19.2124L1.5376 15.4854ZM8.18652 17.4609V10.7539L2.12695 7.30078V13.4268C2.12695 13.7809 2.28467 14.0521 2.6001 14.2402L8.04541 17.3862C8.07861 17.4084 8.10352 17.4222 8.12012 17.4277C8.13672 17.4388 8.15885 17.4499 8.18652 17.4609ZM8.9917 9.32617L15.2754 5.74023C15.2422 5.7015 15.2035 5.66829 15.1592 5.64062L9.46484 2.35352C9.15495 2.1709 8.84229 2.1709 8.52686 2.35352L2.83252 5.64062C2.79378 5.66276 2.76611 5.68213 2.74951 5.69873C2.73844 5.7098 2.72184 5.72363 2.69971 5.74023L8.9917 9.32617ZM9.80518 17.4609C9.84391 17.4388 9.87435 17.4222 9.89648 17.4111C9.92415 17.4001 9.96289 17.3779 10.0127 17.3447L15.3916 14.2402C15.7015 14.0521 15.8564 13.7809 15.8564 13.4268V7.29248L9.80518 10.7456V17.4609Z" fill="white"/>
</svg>
