<svg width="24" height="24" viewBox="0 0 24 24" fill="none" xmlns="http://www.w3.org/2000/svg">
<path d="M18 5L15.586 2.586C15.211 2.2109 14.7024 2.00011 14.172 2H6C5.46957 2 4.96086 2.21071 4.58579 2.58579C4.21071 2.96086 4 3.46957 4 4V20C4 20.5304 4.21071 21.0391 4.58579 21.4142C4.96086 21.7893 5.46957 22 6 22H18C18.5304 22 19.0391 21.7893 19.4142 21.4142C19.7893 21.0391 20 20.5304 20 20M8 18H9M21.378 12.6259C21.7763 12.2275 22.0001 11.6873 22.0001 11.1239C22.0001 10.5605 21.7763 10.0203 21.378 9.6219C20.9796 9.22355 20.4393 8.99976 19.876 8.99976C19.3126 8.99976 18.7723 9.22355 18.374 9.6219L14.364 13.6339C14.1262 13.8715 13.9522 14.1652 13.858 14.4879L13.021 17.3579C12.9959 17.444 12.9944 17.5352 13.0166 17.622C13.0389 17.7088 13.084 17.7881 13.1474 17.8515C13.2108 17.9148 13.2901 17.96 13.3769 17.9823C13.4637 18.0045 13.5549 18.003 13.641 17.9779L16.511 17.1409C16.8336 17.0467 17.1274 16.8727 17.365 16.6349L21.378 12.6259Z" stroke="#F0F4FC" stroke-width="2" stroke-linecap="round" stroke-linejoin="round"/>
</svg>
