<svg width="24" height="24" viewBox="0 0 24 24" fill="none" xmlns="http://www.w3.org/2000/svg">
<path id="Vector" d="M17.7757 5.89847C17.3077 5.45687 16.7821 5.06207 16.2001 4.72607C15.6181 4.39007 15.0133 4.13207 14.3965 3.94727" stroke="#F0F4FC" stroke-width="2" stroke-linecap="round" stroke-linejoin="round"/>
<path id="Vector_2" d="M9.60381 3.94727C8.98701 4.13087 8.38221 4.39007 7.80021 4.72607C7.21821 5.06207 6.69261 5.45687 6.22461 5.89847" stroke="#F0F4FC" stroke-width="2" stroke-linecap="round" stroke-linejoin="round"/>
<path id="Vector_3" d="M3.82761 10.0488C3.67881 10.6752 3.59961 11.328 3.59961 12C3.59961 12.672 3.67881 13.3248 3.82761 13.9512" stroke="#F0F4FC" stroke-width="2" stroke-linecap="round" stroke-linejoin="round"/>
<path id="Vector_4" d="M6.22461 18.1016C6.69261 18.5432 7.21821 18.938 7.80021 19.274C8.38221 19.61 8.98701 19.868 9.60381 20.0528" stroke="#F0F4FC" stroke-width="2" stroke-linecap="round" stroke-linejoin="round"/>
<path id="Vector_5" d="M14.3965 20.0528C15.0133 19.8692 15.6181 19.61 16.2001 19.274C16.7821 18.938 17.3077 18.5432 17.7757 18.1016" stroke="#F0F4FC" stroke-width="2" stroke-linecap="round" stroke-linejoin="round"/>
<path id="Vector_6" d="M20.172 13.9512C20.3208 13.3248 20.4 12.672 20.4 12C20.4 11.328 20.3208 10.6752 20.172 10.0488" stroke="#F0F4FC" stroke-width="2" stroke-linecap="round" stroke-linejoin="round"/>
</svg>
