<svg width="32" height="32" viewBox="0 0 32 32" fill="none" xmlns="http://www.w3.org/2000/svg">
<path fill-rule="evenodd" clip-rule="evenodd" d="M11.4565 20.3887C11.0319 20.073 10.5194 19.8085 9.95267 19.6478C9.38594 19.4871 8.76497 19.4303 8.15779 19.4977C7.55059 19.565 6.95718 19.7565 6.43944 20.0375C5.9217 20.3185 5.47962 20.6889 5.1345 21.09C4.78842 21.4903 4.48692 21.9819 4.28498 22.5353C4.08305 23.0886 3.98067 23.7037 4.00317 24.3142C4.02566 24.9247 4.17302 25.5306 4.41512 26.0676C4.65723 26.6047 4.99409 27.0728 5.36869 27.4465C5.7424 27.8211 6.21052 28.158 6.74754 28.4001C7.28454 28.6421 7.89046 28.7895 8.50095 28.812C9.11145 28.8345 9.72654 28.7321 10.2799 28.5301C10.8333 28.3283 11.3249 28.0268 11.7252 27.6807C12.1263 27.3355 12.4967 26.8935 12.7777 26.3758C13.0586 25.858 13.2502 25.2645 13.3175 24.6574C13.3849 24.0502 13.3281 23.4292 13.1673 22.8625C13.0067 22.2958 12.7422 21.7833 12.4265 21.3587L13.4693 20.3159L14.2282 21.0749H14.6593L15.1796 20.5546V20.1235L14.4206 19.3645L15.5226 18.2625L16.6245 19.3645L15.8655 20.1235V20.5546L16.3858 21.0749H16.8169L17.5759 20.3159L18.6186 21.3587C18.303 21.7833 18.0385 22.2958 17.8778 22.8625C17.7172 23.4292 17.6603 24.0502 17.7276 24.6574C17.795 25.2645 17.9865 25.858 18.2675 26.3758C18.5484 26.8935 18.9189 27.3355 19.3199 27.6807C19.7202 28.0268 20.2118 28.3283 20.7652 28.5301C21.3186 28.7321 21.9337 28.8345 22.5442 28.812C23.1547 28.7895 23.7605 28.6421 24.2976 28.4001C24.8346 28.158 25.3027 27.8211 25.6764 27.4465C26.0511 27.0728 26.3879 26.6047 26.63 26.0676C26.8721 25.5306 27.0195 24.9247 27.042 24.3142C27.0644 23.7037 26.9621 23.0886 26.7602 22.5353C26.5582 21.9819 26.2567 21.4903 25.9106 21.09C25.5655 20.6889 25.1235 20.3185 24.6057 20.0375C24.0879 19.7565 23.4946 19.565 22.8874 19.4977C22.2802 19.4303 21.6592 19.4871 21.0925 19.6478C20.5258 19.8085 20.0132 20.073 19.5886 20.3887L18.5652 19.3636L19.3238 18.605V18.1739L18.785 17.6351H18.3539L17.5949 18.3942L16.4926 17.2926L22.2717 11.5135L24.6111 13.8529V11.4188H27.0451L24.7058 9.07938L27.0451 6.73998V6.30889L26.5063 5.77002H26.0752L15.5226 16.3226L4.96996 5.77002H4.53887L4 6.30889V6.73998L6.3394 9.07938L4 11.4188H6.4341V13.8529L8.77348 11.5135L14.5526 17.2926L13.4503 18.3942L12.6913 17.6351H12.2602L11.7213 18.1739V18.605L12.4799 19.3636L11.4565 20.3887ZM20.8345 25.7421C20.5966 26.2303 20.646 26.9067 20.9524 27.355C21.2339 27.8194 21.8293 28.1441 22.3721 28.1293C22.915 28.1441 23.5104 27.8194 23.7919 27.355C24.0983 26.9067 24.1477 26.2303 23.9097 25.7421L23.969 25.6783C24.4571 25.9176 25.1345 25.8691 25.5835 25.5628C26.0486 25.2816 26.3741 24.6855 26.3593 24.1421C26.3741 23.5988 26.0486 23.0027 25.5835 22.7215C25.1345 22.4152 24.4571 22.3668 23.969 22.606L23.9097 22.5422C24.1477 22.054 24.0983 21.3776 23.7919 20.9293C23.5104 20.465 22.915 20.1402 22.3721 20.155C21.8293 20.1402 21.2339 20.465 20.9524 20.9293C20.646 21.3776 20.5966 22.054 20.8345 22.5422L20.7753 22.606C20.2872 22.3668 19.6098 22.4152 19.1607 22.7215C18.6956 23.0027 18.3701 23.5988 18.385 24.1421C18.3701 24.6855 18.6956 25.2816 19.1607 25.5628C19.6098 25.8691 20.2872 25.9176 20.7753 25.6783L20.8345 25.7421ZM10.0925 27.355C10.3989 26.9067 10.4483 26.2303 10.2104 25.7421L10.2696 25.6783C10.7577 25.9176 11.4351 25.8691 11.8842 25.5628C12.3493 25.2816 12.6748 24.6855 12.6599 24.1421C12.6748 23.5988 12.3493 23.0027 11.8842 22.7215C11.4351 22.4152 10.7577 22.3668 10.2696 22.606L10.2104 22.5422C10.4483 22.054 10.3989 21.3776 10.0925 20.9293C9.81103 20.465 9.21561 20.1402 8.67278 20.155C8.12996 20.1402 7.53454 20.465 7.25305 20.9293C6.94666 21.3776 6.89723 22.054 7.1352 22.5422L7.07593 22.606C6.58786 22.3668 5.91045 22.4152 5.46139 22.7215C4.99626 23.0027 4.67079 23.5988 4.68565 24.1421C4.67079 24.6855 4.99626 25.2816 5.46139 25.5628C5.91045 25.8691 6.58786 25.9176 7.07593 25.6783L7.1352 25.7421C6.89723 26.2303 6.94666 26.9067 7.25305 27.355C7.53454 27.8194 8.12996 28.1441 8.67278 28.1293C9.21561 28.1441 9.81103 27.8194 10.0925 27.355Z" fill="#DD3300"/>
<path fill-rule="evenodd" clip-rule="evenodd" d="M15.5149 5.77011L18.285 3L19.6567 4.37173V8.99561L15.8578 12.7945H15.1719L11.373 8.99561V4.37173L12.7447 3L15.5149 5.77011ZM12.7447 3.96997L15.172 6.39716V10.8546L12.7447 8.42743V3.96997ZM15.858 6.39716L18.2851 3.96997V8.42743L15.858 10.8546V6.39716Z" fill="#DD3300"/>
</svg>
