<svg width="28" height="26" viewBox="0 0 28 26" fill="none" xmlns="http://www.w3.org/2000/svg">
<g clip-path="url(#clip0_49019_123857)">
<path d="M14.0304 5.76144C16.5479 5.76144 18.5886 4.55941 18.5886 3.07665C18.5886 1.59387 16.5479 0.391846 14.0304 0.391846C11.513 0.391846 9.47217 1.59387 9.47217 3.07665C9.47217 4.55941 11.513 5.76144 14.0304 5.76144Z" fill="#02122B"/>
<path d="M14.0304 25.978C16.5479 25.978 18.5886 24.776 18.5886 23.2932C18.5886 21.8104 16.5479 20.6084 14.0304 20.6084C11.513 20.6084 9.47217 21.8104 9.47217 23.2932C9.47217 24.776 11.513 25.978 14.0304 25.978Z" fill="#02122B"/>
<path d="M7.6764 9.47337C8.93512 7.26671 8.92729 4.87699 7.65892 4.13579C6.39055 3.39461 4.34193 4.58259 3.08322 6.78926C1.82451 8.99591 1.83234 11.3857 3.10072 12.1268C4.36909 12.868 6.41769 11.68 7.6764 9.47337Z" fill="#02122B"/>
<path d="M24.9782 19.5819C26.2369 17.3753 26.2288 14.9854 24.9601 14.2441C23.6914 13.5026 21.6426 14.6905 20.3838 16.8971C19.1251 19.1038 19.1332 21.4937 20.4019 22.2351C21.6706 22.9764 23.7194 21.7886 24.9782 19.5819Z" fill="#02122B"/>
<path d="M7.65933 22.2351C8.92803 21.4937 8.93611 19.1038 7.6774 16.8971C6.41869 14.6905 4.36983 13.5026 3.10113 14.2441C1.83243 14.9854 1.82434 17.3753 3.08306 19.5819C4.34177 21.7886 6.39064 22.9764 7.65933 22.2351Z" fill="#02122B"/>
<path d="M24.9601 12.1174C26.2288 11.376 26.2369 8.98616 24.9782 6.7795C23.7194 4.57284 21.6706 3.385 20.4019 4.12639C19.1332 4.86777 19.1251 7.25764 20.3838 9.4643C21.6426 11.671 23.6914 12.8588 24.9601 12.1174Z" fill="#02122B"/>
</g>
<defs>
<clipPath id="clip0_49019_123857">
<rect width="26.5285" height="25.6929" fill="white" transform="translate(0.73584 0.307129)"/>
</clipPath>
</defs>
</svg>
