<svg width="24" height="24" viewBox="0 0 24 24" fill="none" xmlns="http://www.w3.org/2000/svg">
<path id="Vector" d="M11.9996 7.19961H3.59961V5.39961C3.59961 4.40601 4.40601 3.59961 5.39961 3.59961H8.95761C9.35841 3.59961 9.73401 3.80001 9.95601 4.13361L11.9996 7.19961Z" fill="#F0F4FC" stroke="#F0F4FC" stroke-width="2" stroke-linecap="round" stroke-linejoin="round"/>
<path id="Vector_2" d="M14.4004 16.8V14.4C14.4004 13.074 15.4744 12 16.8004 12C18.1264 12 19.2004 13.074 19.2004 14.4V16.8" stroke="#F0F4FC" stroke-width="2" stroke-linecap="round" stroke-linejoin="round"/>
<path id="Vector_3" d="M20.3864 8.8706C20.3192 7.9382 19.5488 7.2002 18.5996 7.2002H3.59961V16.8002C3.59961 18.7886 5.21121 20.4002 7.19961 20.4002H9.06081" stroke="#F0F4FC" stroke-width="2" stroke-linecap="round" stroke-linejoin="round"/>
<path id="Vector_4" d="M19.7992 16.7998H13.7992C13.4678 16.7998 13.1992 17.0684 13.1992 17.3998V19.7998C13.1992 20.1312 13.4678 20.3998 13.7992 20.3998H19.7992C20.1306 20.3998 20.3992 20.1312 20.3992 19.7998V17.3998C20.3992 17.0684 20.1306 16.7998 19.7992 16.7998Z" fill="#F0F4FC" stroke="#F0F4FC" stroke-width="2" stroke-linecap="round" stroke-linejoin="round"/>
</svg>
