<svg width="16" height="20" viewBox="0 0 16 20" fill="none" xmlns="http://www.w3.org/2000/svg">
<path d="M11.384 3.97989L8 0.5L4.61598 3.97988L8 7.45977L11.384 3.97989Z" fill="#FFC25C"/>
<path d="M4.62265 3.97432L0 5.24805L1.23864 10.0017L5.86129 8.72793L4.62265 3.97432Z" fill="#FFC25C"/>
<path d="M1.23961 9.99639L0.000976562 14.75L4.62363 16.0237L5.86226 11.2701L1.23961 9.99639Z" fill="#FFC25C"/>
<path d="M4.61501 16.0182L7.99902 19.498L11.383 16.0182L7.99902 12.5383L4.61501 16.0182Z" fill="#FFC25C"/>
<path d="M11.3773 16.0218L16 14.748L14.7614 9.99444L10.1387 11.2682L11.3773 16.0218Z" fill="#FFC25C"/>
<path d="M14.7614 10.0036L16 5.25L11.3773 3.97627L10.1387 8.72989L14.7614 10.0036Z" fill="#FFC25C"/>
</svg>
