<svg width="24" height="24" viewBox="0 0 24 24" fill="none" xmlns="http://www.w3.org/2000/svg">
<path id="Vector" d="M4.92738 14.551C4.84422 14.1132 4.80078 13.6615 4.80078 13.1995C4.80078 11.4031 5.45874 9.76034 6.54678 8.49902" stroke="#F0F4FC" stroke-width="2" stroke-linecap="round" stroke-linejoin="round"/>
<path id="Vector_2" d="M16.707 18.6504C16.3694 18.9413 16 19.2048 15.6 19.4358C14.0442 20.334 12.2926 20.5856 10.6562 20.274" stroke="#F0F4FC" stroke-width="2" stroke-linecap="round" stroke-linejoin="round"/>
<path id="Vector_3" d="M14.3672 6.39844C14.7878 6.54532 15.2008 6.73348 15.6009 6.96448C17.1567 7.86268 18.2504 9.25384 18.7987 10.8268" stroke="#F0F4FC" stroke-width="2" stroke-linecap="round" stroke-linejoin="round"/>
<path id="Vector_4" d="M11.9996 8.39961C13.3251 8.39961 14.3996 7.32509 14.3996 5.99961C14.3996 4.67413 13.3251 3.59961 11.9996 3.59961C10.6741 3.59961 9.59961 4.67413 9.59961 5.99961C9.59961 7.32509 10.6741 8.39961 11.9996 8.39961Z" stroke="#F0F4FC" stroke-width="2" stroke-linecap="round" stroke-linejoin="round"/>
<path id="Vector_5" d="M5.76523 19.2004C7.09072 19.2004 8.16523 18.1259 8.16523 16.8004C8.16523 15.4749 7.09072 14.4004 5.76523 14.4004C4.43975 14.4004 3.36523 15.4749 3.36523 16.8004C3.36523 18.1259 4.43975 19.2004 5.76523 19.2004Z" stroke="#F0F4FC" stroke-width="2" stroke-linecap="round" stroke-linejoin="round"/>
<path id="Vector_6" d="M18.2359 19.2004C19.5614 19.2004 20.6359 18.1259 20.6359 16.8004C20.6359 15.4749 19.5614 14.4004 18.2359 14.4004C16.9105 14.4004 15.8359 15.4749 15.8359 16.8004C15.8359 18.1259 16.9105 19.2004 18.2359 19.2004Z" stroke="#F0F4FC" stroke-width="2" stroke-linecap="round" stroke-linejoin="round"/>
</svg>
