<svg width="24" height="24" viewBox="0 0 24 24" fill="none" xmlns="http://www.w3.org/2000/svg">
<g id="Vector">
<path d="M4.80078 8.39961H8.40078C9.06318 8.39961 9.60078 7.86201 9.60078 7.19961V3.59961" fill="#F0F4FC"/>
<path d="M4.80078 8.39961H8.40078C9.06318 8.39961 9.60078 7.86201 9.60078 7.19961V3.59961" stroke="#F0F4FC" stroke-width="2" stroke-linejoin="round"/>
</g>
<path id="Vector_2" d="M15.5996 17.1002V13.2002" stroke="#F0F4FC" stroke-width="2" stroke-linecap="round" stroke-linejoin="round"/>
<path id="Vector_3" d="M19.2008 11.0672V7.19961C19.2008 5.21121 17.5892 3.59961 15.6008 3.59961H10.0976C9.77958 3.59961 9.47358 3.72561 9.24918 3.95121L5.15238 8.04801C4.92678 8.27361 4.80078 8.57841 4.80078 8.89641V16.7996C4.80078 18.788 6.41238 20.3996 8.40078 20.3996H11.1212" stroke="#F0F4FC" stroke-width="2" stroke-linecap="round" stroke-linejoin="round"/>
<path id="Vector_4" d="M15.5996 22.2002C16.428 22.2002 17.0996 21.5286 17.0996 20.7002C17.0996 19.8718 16.428 19.2002 15.5996 19.2002C14.7712 19.2002 14.0996 19.8718 14.0996 20.7002C14.0996 21.5286 14.7712 22.2002 15.5996 22.2002Z" fill="#F0F4FC"/>
</svg>
