<svg width="24" height="24" viewBox="0 0 24 24" fill="none" xmlns="http://www.w3.org/2000/svg">
<g id="gauge-2">
<path id="Vector" d="M12.0008 13.1998C12.6635 13.1998 13.2008 12.6625 13.2008 11.9998C13.2008 11.3371 12.6635 10.7998 12.0008 10.7998C11.338 10.7998 10.8008 11.3371 10.8008 11.9998C10.8008 12.6625 11.338 13.1998 12.0008 13.1998Z" fill="#F0F4FC" stroke="#F0F4FC" stroke-width="2" stroke-linecap="round" stroke-linejoin="round"/>
<path id="Vector_2" d="M3.89241 9.83241C3.70761 10.5248 3.59961 11.2496 3.59961 11.9996C3.59961 16.6388 7.36041 20.3996 11.9996 20.3996C16.6388 20.3996 20.3996 16.6388 20.3996 11.9996C20.3996 7.36041 16.6388 3.59961 11.9996 3.59961C11.2484 3.59961 10.5248 3.70761 9.83241 3.89241" stroke="#F0F4FC" stroke-width="2" stroke-linecap="round" stroke-linejoin="round"/>
<path id="Vector_3" d="M12 12L6 6" stroke="#F0F4FC" stroke-width="2" stroke-linecap="round" stroke-linejoin="round"/>
</g>
</svg>
