<svg width="89" height="117" viewBox="0 0 89 117" fill="none" xmlns="http://www.w3.org/2000/svg">
<path d="M80.545 116.661C79.979 116.708 79.373 116.719 78.725 116.693C61.72 115.997 25.289 116.616 8.18601 116.613C3.19701 116.612 -0.00997668 112.759 2.33191e-05 108.003C0.0440233 87.3292 0.147011 66.6552 0.147011 45.9812C0.147011 33.3372 0.147011 20.6932 0.147011 8.04321C0.147011 3.60321 3.74601 0.00322222 8.18601 0.00222222C25.969 -0.00277778 62.776 0.00222222 80.534 0.00222222C84.975 0.00222222 88.575 3.60221 88.575 8.04321C88.575 28.4092 88.369 48.7742 88.355 69.1392C88.348 79.1712 88.385 89.2032 88.517 99.2332C88.616 106.733 89.314 115.935 80.545 116.661Z" fill="#324E77"/>
<path d="M8.48715 10.2993C7.79015 24.5113 8.59715 38.9883 8.30215 53.3043C7.99115 68.3963 7.60315 89.2803 7.78215 104.376C7.80715 104.377 7.83315 104.377 7.85815 104.378C10.6112 104.44 13.3641 104.452 16.1171 104.446C29.9651 72.6683 45.3802 41.4283 61.1342 10.3763C39.6392 10.2903 8.49315 10.1753 8.48715 10.2993Z" fill="#81F8DE"/>
<path d="M16.1169 104.447C22.4869 104.433 28.858 104.291 35.228 104.215C39.903 104.159 63.8749 104.134 68.5489 104.234C72.3779 104.315 76.2559 105.18 80.0799 104.623C80.9719 100.738 80.471 90.1662 80.604 86.1442C80.753 81.6542 80.875 77.1622 80.875 72.6692C80.875 65.6052 80.875 58.5402 80.875 51.4762C80.875 38.2052 80.875 24.9342 80.875 11.6632C80.875 11.6042 80.875 10.4542 80.875 10.4542C79.435 10.4542 71.38 10.4192 61.134 10.3772C45.38 41.4292 29.9649 72.6692 16.1169 104.447Z" fill="#33E6BF"/>
<path d="M49.3259 6.05328C45.9389 6.05328 42.6409 6.06028 39.2479 6.05328C38.6419 6.05228 38.1499 5.56028 38.1499 4.95328C38.1499 4.34528 38.6429 3.85327 39.2499 3.85327H49.3249C49.9329 3.85327 50.4249 4.34528 50.4249 4.95328C50.4249 5.56128 49.9329 6.05328 49.3259 6.05328Z" fill="#162A48"/>
<path d="M48.4689 110.637C48.4689 112.946 46.5969 114.818 44.2879 114.818C41.9789 114.818 40.1069 112.946 40.1069 110.637C40.1069 108.328 41.9789 106.456 44.2879 106.456C46.5969 106.456 48.4689 108.328 48.4689 110.637Z" fill="#162A48"/>
</svg>
