<svg width="20" height="20" viewBox="0 0 20 20" fill="none" xmlns="http://www.w3.org/2000/svg">
<path d="M6.04199 14.458C6.45606 14.4582 6.79199 14.7939 6.79199 15.208C6.79182 15.622 6.45595 15.9578 6.04199 15.958H3.125C2.7109 15.958 2.37518 15.6221 2.375 15.208C2.375 14.7938 2.71079 14.458 3.125 14.458H6.04199ZM7.70801 9.24902C8.12211 9.24902 8.45783 9.58496 8.45801 9.99902C8.45801 10.4132 8.12222 10.749 7.70801 10.749H3.125C2.71079 10.749 2.375 10.4132 2.375 9.99902C2.37518 9.58496 2.71089 9.24902 3.125 9.24902H7.70801ZM9 5.54102H3.125C2.71079 5.54102 2.375 5.20523 2.375 4.79102C2.375 4.3768 2.71079 4.04102 3.125 4.04102H9V5.54102ZM16.875 4.04102C17.2892 4.04102 17.625 4.3768 17.625 4.79102C17.625 5.20523 17.2892 5.54102 16.875 5.54102H11V4.04102H16.875Z" fill="#5CA7FF"/>
<path d="M18 12.4061L14.5455 15.8606L11.0909 12.4061M14.5455 15.4461V8.64062" stroke="#5CA7FF" stroke-width="1.5" stroke-linecap="round" stroke-linejoin="round"/>
</svg>
