<svg width="24" height="24" viewBox="0 0 24 24" fill="none" xmlns="http://www.w3.org/2000/svg">
<path d="M17.4999 19H8.99992C7.70178 18.9997 6.42931 18.6384 5.32469 17.9565C4.22008 17.2746 3.32684 16.2989 2.74479 15.1386C2.16274 13.9783 1.91481 12.679 2.02871 11.3858C2.14261 10.0927 2.61384 8.85671 3.38976 7.81598C4.16568 6.77526 5.21571 5.97079 6.42252 5.49249C7.62932 5.01418 8.94536 4.88087 10.2236 5.10747C11.5018 5.33406 12.6918 5.91162 13.6606 6.77561C14.6295 7.6396 15.339 8.75598 15.7099 10H17.4999C18.6934 10 19.838 10.4741 20.6819 11.318C21.5258 12.1619 21.9999 13.3065 21.9999 14.5C21.9999 15.6935 21.5258 16.8381 20.6819 17.682C19.838 18.5259 18.6934 19 17.4999 19Z" stroke="#F0F4FC" stroke-width="2" stroke-linecap="round" stroke-linejoin="round"/>
</svg>
