<svg width="24" height="24" viewBox="0 0 24 24" fill="none" xmlns="http://www.w3.org/2000/svg">
<path d="M18.0901 10.3701C19.0354 10.7225 19.8766 11.3076 20.5358 12.0713C21.1951 12.835 21.6512 13.7526 21.8618 14.7392C22.0725 15.7258 22.031 16.7496 21.7411 17.716C21.4513 18.6823 20.9224 19.5599 20.2035 20.2677C19.4846 20.9755 18.5988 21.4906 17.6281 21.7653C16.6573 22.0401 15.633 22.0656 14.6498 21.8396C13.6666 21.6135 12.7562 21.1432 12.0029 20.4721C11.2496 19.801 10.6777 18.9508 10.3401 18.0001M7 6H8V10M16.7101 13.8799L17.4101 14.5899L14.5901 17.4099M14 8C14 11.3137 11.3137 14 8 14C4.68629 14 2 11.3137 2 8C2 4.68629 4.68629 2 8 2C11.3137 2 14 4.68629 14 8Z" stroke="#F0F4FC" stroke-width="2" stroke-linecap="round" stroke-linejoin="round"/>
</svg>
