<svg width="24" height="25" viewBox="0 0 24 25" fill="none" xmlns="http://www.w3.org/2000/svg">
<g clip-path="url(#clip0_49019_123750)">
<path d="M11.9969 24.4769L11.9984 20.4095C11.5886 20.4095 11.1756 20.3768 10.7713 20.3122L10.1404 24.3301C10.7523 24.4274 11.377 24.4769 11.9977 24.4769H11.9969ZM13.8534 24.3317C14.4669 24.2344 15.0765 24.0885 15.6663 23.8963L14.4217 20.0266C14.0333 20.1535 13.6306 20.2499 13.2256 20.3138L13.8534 24.3317ZM8.32666 23.8939L9.57436 20.025C9.18514 19.8982 8.80384 19.7387 8.44 19.5521L6.60253 23.1753C7.15502 23.4592 7.73529 23.7009 8.32666 23.8939ZM17.3896 23.1801C17.9429 22.897 18.478 22.5668 18.9806 22.1991L16.6017 18.9101C16.2711 19.1526 15.9191 19.3695 15.5553 19.5553L17.3896 23.1801ZM5.01237 22.1928L7.39364 18.9053C7.06468 18.6645 6.75075 18.3933 6.45905 18.1006L3.59819 20.9749L3.60056 20.9773C4.03972 21.4191 4.51456 21.8283 5.01237 22.1928ZM20.3757 21.002L20.4003 20.9765C20.8379 20.5363 21.2437 20.0594 21.6068 19.5593L18.34 17.1627C18.1007 17.4929 17.8319 17.8087 17.5418 18.1014L17.5014 18.1429L18.8759 19.4484L20.3757 21.002ZM2.38853 19.5513L5.65683 17.1571C5.41586 16.8246 5.20024 16.4705 5.01474 16.1044L1.41271 17.9507C1.69412 18.5066 2.0223 19.0449 2.38853 19.5505V19.5513ZM22.5842 17.9586C22.8664 17.4028 23.1066 16.819 23.2992 16.224L19.4538 14.9679C19.3278 15.3595 19.1692 15.7431 18.9837 16.1092L22.5842 17.9586ZM0.700069 16.2152L4.54627 14.9623C4.42022 14.5715 4.32431 14.1664 4.26008 13.7588L0.266463 14.3921C0.363171 15.0094 0.509028 15.6227 0.700069 16.216V16.2152ZM23.7336 14.4009C23.8303 13.7852 23.8795 13.1567 23.8803 12.5331L19.8375 12.5307C19.8375 12.943 19.805 13.3585 19.7408 13.766L23.7336 14.4009ZM4.16417 12.5243C4.16417 12.112 4.19668 11.6956 4.26008 11.2889L0.266463 10.6556C0.169752 11.2713 0.121399 11.8998 0.120605 12.5235H4.1634L4.16417 12.5243ZM19.7423 11.2953L23.736 10.6644C23.6401 10.0471 23.4942 9.43383 23.304 8.84045L19.457 10.091C19.583 10.4826 19.6789 10.8869 19.7423 11.2945V11.2953ZM4.54627 10.0862C4.67229 9.69462 4.83083 9.31021 5.01554 8.94413L1.4135 7.09706C1.13209 7.65293 0.891905 8.23673 0.700069 8.83168L4.54547 10.0862H4.54627ZM18.9885 8.94973L22.5921 7.10583C22.3107 6.54914 21.9825 6.01082 21.6171 5.50518L18.3472 7.89778C18.5874 8.23036 18.803 8.58446 18.9885 8.95053V8.94973ZM5.65843 7.8914C5.89862 7.55962 6.16812 7.2422 6.45985 6.94953L6.46777 6.94153L3.60928 4.06564L3.60136 4.07361C3.16221 4.51545 2.75475 4.99477 2.39091 5.49641L5.65843 7.8914ZM17.5561 6.96387L18.4193 6.07782L20.4066 4.07918L20.4003 4.07281C19.9635 3.63337 19.4903 3.22584 18.994 2.86136L16.6112 6.14719C16.9394 6.38806 17.2525 6.65762 17.5418 6.94953L17.5561 6.96387ZM7.40316 6.13842C7.73372 5.89677 8.08567 5.67983 8.44952 5.49401L6.61759 1.86843C6.06427 2.15156 5.5292 2.48094 5.02665 2.8486L7.40316 6.13842ZM15.5656 5.50038L17.4055 1.8788C16.853 1.59488 16.2735 1.35243 15.6821 1.15943L14.432 5.02746C14.8213 5.15505 15.2025 5.31376 15.5664 5.50118L15.5656 5.50038ZM9.58467 5.02269C9.97389 4.89666 10.3766 4.80015 10.7809 4.73636L10.1554 0.717596C9.54265 0.814098 8.93227 0.960047 8.34249 1.15225L9.58467 5.02269ZM13.2358 4.73876L13.8684 0.720785C13.2565 0.623487 12.6318 0.573242 12.0119 0.573242L12.0079 4.64065C12.4178 4.64065 12.8308 4.67416 13.2358 4.73876Z" fill="#02122B"/>
<path d="M11.9985 20.5929V16.505C11.657 16.505 11.3163 16.4601 10.9868 16.3727L9.9319 20.322C10.6053 20.5015 11.3003 20.5929 11.9985 20.5929ZM14.0651 20.322C14.7409 20.1416 15.391 19.8731 15.9954 19.5236L13.9497 15.984C13.6555 16.1539 13.3396 16.2846 13.0109 16.3719L14.0651 20.322ZM8.00074 19.5228L10.0473 15.984C9.75393 15.814 9.48217 15.6048 9.23846 15.362L9.20081 15.3251L7.90937 16.6845L6.32455 18.2291L6.34778 18.2516C6.84319 18.7469 7.39954 19.1741 8.00154 19.5228H8.00074ZM17.6492 18.2532H17.65C18.1446 17.757 18.5719 17.2015 18.9198 16.6003L15.3814 14.5532C15.2114 14.8466 15.0022 15.1183 14.7593 15.3612L17.6492 18.2532ZM5.0724 16.5915L8.614 14.5492C8.44407 14.255 8.31419 13.9392 8.22682 13.6098L4.27557 14.6606C4.45514 15.3363 4.72367 15.9864 5.0724 16.5915ZM19.7198 14.671C19.8994 13.9977 19.9908 13.3028 19.9916 12.6046L15.9033 12.603C15.9033 12.9453 15.8583 13.2859 15.7702 13.6154L19.7198 14.671ZM8.09534 12.5982C8.09534 12.2559 8.14025 11.9153 8.22922 11.5859L4.28037 10.5278C4.10001 11.2011 4.00781 11.896 4.00781 12.5942L8.09614 12.5982H8.09534ZM15.771 11.5907L19.7214 10.5382C19.5411 9.8625 19.2725 9.21244 18.9238 8.60809L15.383 10.652C15.5529 10.9462 15.6836 11.262 15.771 11.5907ZM8.618 10.6472C8.78554 10.3579 8.99236 10.0893 9.23127 9.84887L9.24169 9.83847L7.77949 8.37644L6.37343 6.92641L6.34778 6.95127C5.85397 7.44502 5.4275 7.99891 5.0804 8.59846L8.618 10.6472ZM14.7617 9.84327L16.2095 8.39567L17.6869 6.98815L17.65 6.95047C17.1562 6.45672 16.6007 6.02948 16.0003 5.6816L13.9521 9.21966C14.2415 9.3872 14.5108 9.59399 14.7513 9.83284L14.7617 9.84327ZM10.0497 9.21726C10.3431 9.04733 10.659 8.91748 10.9884 8.82931L9.9367 4.87926C9.26012 5.0596 8.6108 5.32733 8.00557 5.6768L10.0497 9.21726ZM13.0134 8.83091L14.0707 4.88166C13.3974 4.7013 12.7023 4.60993 12.0041 4.60913L12.0017 8.69706C12.344 8.69706 12.6847 8.74194 13.0142 8.83011L13.0134 8.83091Z" fill="#02122B"/>
</g>
<defs>
<clipPath id="clip0_49019_123750">
<rect width="23.9991" height="24.2848" fill="white" transform="translate(0.000976562 0.357666)"/>
</clipPath>
</defs>
</svg>
