<svg width="20" height="20" viewBox="0 0 20 20" fill="none" xmlns="http://www.w3.org/2000/svg">
<path d="M9 15.958H3.125C2.7109 15.958 2.37518 15.6221 2.375 15.208C2.375 14.7938 2.71079 14.458 3.125 14.458H9V15.958ZM16.875 14.458C17.2892 14.458 17.625 14.7938 17.625 15.208C17.6248 15.6221 17.2891 15.958 16.875 15.958H11V14.458H16.875ZM9 10.749H3.125C2.71079 10.749 2.375 10.4132 2.375 9.99902C2.37518 9.58496 2.71089 9.24902 3.125 9.24902H9V10.749ZM16.875 9.24902C17.2891 9.24902 17.6248 9.58496 17.625 9.99902C17.625 10.4132 17.2892 10.749 16.875 10.749H11V9.24902H16.875ZM9 5.54102H3.125C2.71079 5.54102 2.375 5.20523 2.375 4.79102C2.375 4.3768 2.71079 4.04102 3.125 4.04102H9V5.54102ZM16.875 4.04102C17.2892 4.04102 17.625 4.3768 17.625 4.79102C17.625 5.20523 17.2892 5.54102 16.875 5.54102H11V4.04102H16.875Z" fill="#5CA7FF"/>
</svg>
