<svg width="880" height="880" viewBox="0 0 880 880" fill="none" xmlns="http://www.w3.org/2000/svg">
<circle cx="401" cy="401" r="401" fill="#E1E1E1"/>
<g clip-path="url(#clip0_2871_10707)">
<path d="M401.578 580.448L212.12 487.948L401.406 742.667L429.844 704.396V566.604L401.578 580.448Z" fill="#8C8C8C"/>
<path d="M401.406 60L184 450.099H618.818L401.406 60Z" fill="#8C8C8C"/>
<path d="M618.818 450.677L401.406 60V450.677H618.818Z" fill="#343434"/>
<path d="M401.406 344.161L400.552 343.755L184.021 450.422H184.213L400.745 557.089L401.599 556.682L429.844 542.859V358.089L401.406 344.161Z" fill="#393939"/>
<path d="M401.578 580.448L401.406 742.667L590.828 487.776L401.578 580.448Z" fill="#3C3C3B"/>
<path d="M618.411 450.422L401.406 344.161L400.552 343.755L400.745 557.089L401.599 556.682L618.604 450.422H618.411Z" fill="#141414"/>
</g>
<g clip-path="url(#clip1_2871_10707)">
<mask id="mask0_2871_10707" style="mask-type:luminance" maskUnits="userSpaceOnUse" x="454" y="454" width="408" height="408">
<path d="M657.998 861.019C770.124 861.019 861.017 770.124 861.017 658C861.017 545.876 770.124 454.981 657.998 454.981C545.875 454.981 454.98 545.876 454.98 658C454.98 770.124 545.875 861.019 657.998 861.019Z" fill="white"/>
</mask>
<g mask="url(#mask0_2871_10707)">
<path d="M880.242 435.758H435.757V880.242H880.242V435.758Z" fill="white"/>
</g>
<g clip-path="url(#clip2_2871_10707)">
<path fill-rule="evenodd" clip-rule="evenodd" d="M838 658C838 757.411 757.27 838 657.686 838C563.206 838 485.698 765.46 478 673.13H716.334V642.869H478C485.698 550.539 563.206 478 657.686 478C757.27 478 838 558.589 838 658Z" fill="#0052FF"/>
</g>
</g>
<defs>
<clipPath id="clip0_2871_10707">
<rect width="682.667" height="682.667" fill="white" transform="translate(60 60)"/>
</clipPath>
<clipPath id="clip1_2871_10707">
<rect width="408" height="408" fill="white" transform="translate(454 454)"/>
</clipPath>
<clipPath id="clip2_2871_10707">
<rect width="360" height="360" fill="white" transform="translate(478 478)"/>
</clipPath>
</defs>
</svg>
