<svg width="880" height="880" viewBox="0 0 880 880" fill="none" xmlns="http://www.w3.org/2000/svg">
<circle cx="401" cy="401" r="401" fill="#E1E1E1"/>
<g clip-path="url(#clip0_2871_10675)">
<path d="M401.578 580.448L212.12 487.948L401.406 742.667L429.844 704.396V566.604L401.578 580.448Z" fill="#8C8C8C"/>
<path d="M401.406 60L184 450.099H618.818L401.406 60Z" fill="#8C8C8C"/>
<path d="M618.818 450.677L401.406 60V450.677H618.818Z" fill="#343434"/>
<path d="M401.406 344.161L400.552 343.755L184.021 450.422H184.214L400.745 557.089L401.599 556.682L429.844 542.859V358.089L401.406 344.161Z" fill="#393939"/>
<path d="M401.578 580.448L401.406 742.667L590.828 487.776L401.578 580.448Z" fill="#3C3C3B"/>
<path d="M618.411 450.422L401.406 344.161L400.552 343.755L400.745 557.089L401.599 556.682L618.604 450.422H618.411Z" fill="#141414"/>
</g>
<g clip-path="url(#clip1_2871_10675)">
<mask id="mask0_2871_10675" style="mask-type:luminance" maskUnits="userSpaceOnUse" x="454" y="454" width="408" height="408">
<path d="M657.998 861.019C770.124 861.019 861.017 770.124 861.017 658C861.017 545.876 770.124 454.981 657.998 454.981C545.875 454.981 454.98 545.876 454.98 658C454.98 770.124 545.875 861.019 657.998 861.019Z" fill="white"/>
</mask>
<g mask="url(#mask0_2871_10675)">
<path d="M880.242 435.758H435.757V880.242H880.242V435.758Z" fill="white"/>
</g>
<path d="M657.723 504.531L789.7 581.091V734.686L657.875 811.469L656.808 811.204L526.299 734.686V581.091L656.808 504.531H657.723ZM657.292 520.421L540.162 589.12V726.657L657.279 795.342L671.586 787.006L775.838 726.615V589.148L671.586 528.408L657.292 520.421ZM558.309 668.57L592.981 642.458L623.633 662.174V697.641L646.826 720.151L646.813 730.706L624.465 751.79H605.597L558.323 668.57H558.309ZM667.871 730.734L667.829 720.122L690.938 697.641V662.174L721.258 642.208L755.861 668.584L708.822 751.554H690.19L667.871 730.734ZM635.015 662.174L623.73 632.419H690.8L679.737 662.174L683.009 695.436L657.126 695.492L631.549 695.534L635.015 662.174ZM657.126 624.265L593.384 624.237L605.236 570.898H708.711L721.188 624.307L657.126 624.265Z" fill="#1A90FF"/>
</g>
<defs>
<clipPath id="clip0_2871_10675">
<rect width="682.667" height="682.667" fill="white" transform="translate(60 60)"/>
</clipPath>
<clipPath id="clip1_2871_10675">
<rect width="408" height="408" fill="white" transform="translate(454 454)"/>
</clipPath>
</defs>
</svg>
