<svg width="12" height="12" viewBox="0 0 12 12" fill="none" xmlns="http://www.w3.org/2000/svg">
<path d="M9.6309 1.875V3.5C9.6309 3.7071 9.46305 3.875 9.2559 3.875H7.6309M2.375 10.125V8.5C2.375 8.2929 2.5429 8.125 2.75 8.125H4.375M1.90691 6.5156C1.88585 6.3467 1.875 6.1746 1.875 6C1.875 3.72182 3.72182 1.875 6 1.875C7.3383 1.875 8.55555 2.51231 9.3161 3.5M10.0931 5.4844C10.1141 5.6533 10.125 5.8254 10.125 6C10.125 8.27815 8.27815 10.125 6 10.125C4.66171 10.125 3.44443 9.4877 2.68392 8.5" stroke="#5CA7FF" stroke-width="1.5" stroke-linecap="round" stroke-linejoin="round"/>
</svg>
