<svg width="24" height="24" viewBox="0 0 24 24" fill="none" xmlns="http://www.w3.org/2000/svg">
<path id="Vector" d="M20.3996 13.9031L17.1207 10.6242C15.9512 9.45469 14.0481 9.45469 12.8785 10.6242L4.48605 19.0166C4.46565 19.037 4.46001 19.0663 4.44141 19.0879C5.10177 19.8829 6.08529 20.4 7.19961 20.4H16.7996C18.7879 20.4 20.3996 18.7883 20.3996 16.8V13.9031Z" fill="#F0F4FC"/>
<path id="Vector_2" d="M8.99922 10.8002C9.99333 10.8002 10.7992 9.99431 10.7992 9.0002C10.7992 8.00608 9.99333 7.2002 8.99922 7.2002C8.00511 7.2002 7.19922 8.00608 7.19922 9.0002C7.19922 9.99431 8.00511 10.8002 8.99922 10.8002Z" fill="#F0F4FC"/>
<path id="Vector_3" d="M11.8508 3.59961H7.19961C5.21133 3.59961 3.59961 5.21133 3.59961 7.19961V16.7996C3.59961 18.7879 5.21133 20.3996 7.19961 20.3996H16.7996C18.7879 20.3996 20.3996 18.7879 20.3996 16.7996V12.1492" stroke="#F0F4FC" stroke-width="2" stroke-linecap="round" stroke-linejoin="round"/>
<path id="Vector_4" d="M22.217 4.55747L20.2001 3.80099L19.443 1.78415C19.1805 1.08107 18.0204 1.08107 17.7579 1.78415L17.0008 3.80099L14.984 4.55747C14.6336 4.68935 14.4004 5.02499 14.4004 5.39999C14.4004 5.77499 14.6336 6.11075 14.984 6.24251L17.0008 6.99899L17.7579 9.01583C17.8892 9.36743 18.2254 9.59999 18.6004 9.59999C18.9754 9.59999 19.3118 9.36743 19.4429 9.01583L20.2 6.99899L22.2168 6.24251C22.5672 6.11063 22.8004 5.77499 22.8004 5.39999C22.8004 5.02499 22.5674 4.68923 22.217 4.55747Z" fill="#F0F4FC"/>
</svg>
