<svg width="27" height="24" viewBox="0 0 27 24" fill="none" xmlns="http://www.w3.org/2000/svg">
<g clip-path="url(#clip0_49019_123875)">
<path d="M11.8902 19.5035C12.5905 22.0893 15.093 24.0629 16.3564 23.9845C16.4005 23.9845 21.1508 23.0932 23.7513 18.7396C25.7738 15.3507 25.0882 12.0793 22.336 12.0059C21.3565 12.0793 10.5826 14.5769 11.8902 19.5035Z" fill="#3D6195"/>
<path d="M22.076 2.89174C20.3437 1.41447 18.2287 0.457605 15.9756 0.131759C13.7224 -0.194087 11.423 0.124394 9.34316 1.05038C9.07942 1.16028 8.82265 1.28621 8.5743 1.42747C8.40779 1.51562 8.23639 1.60867 8.08457 1.70661H8.12865C7.63469 2.04474 7.19959 2.46165 6.84068 2.94072C3.38813 7.50984 14.9946 10.8498 21.2092 10.8595C24.0691 12.9164 24.8723 5.07101 22.076 2.89174Z" fill="#3D6195"/>
<path d="M10.0488 2.98612C8.45233 5.39067 3.13393 7.08511 2.25732 6.82066L2.36506 6.60028C2.66251 6.00863 3.00468 5.44053 3.38859 4.90094C4.16805 3.85312 5.10081 2.92861 6.15552 2.15849C6.48125 1.91244 6.81962 1.68359 7.16925 1.47288C7.70556 1.16626 8.30976 0.997957 8.92736 0.983154C11.2976 1.02723 10.0586 2.94205 10.0488 2.94205" fill="#02122B"/>
<path d="M8.73607 19.9789C8.85361 20.7331 8.73607 23.7155 8.57936 23.9702C8.44713 23.9702 8.17289 23.9947 7.36974 23.5441C6.94896 23.3049 6.54334 23.04 6.15523 22.7508C5.63377 22.3644 5.14262 21.9387 4.68606 21.4775C4.22355 21.0221 3.7978 20.5308 3.41278 20.0083C2.62849 18.9444 2.0185 17.7624 1.6057 16.5068C1.38937 15.8682 1.22558 15.2131 1.11597 14.5479C0.893959 13.1774 0.893959 11.7802 1.11597 10.4097C1.22672 9.74475 1.39048 9.08969 1.6057 8.45083C1.64488 8.3235 1.68895 8.19618 1.73792 8.06885C2.65371 9.29316 3.69682 10.3999 4.62239 11.634C5.54797 12.8681 6.66454 14.7291 6.90451 15.1405C8.37368 17.6821 8.63813 19.2541 8.75076 20.0083" fill="#02122B"/>
<path d="M26.4054 12.459C26.407 14.063 26.1063 15.653 25.519 17.1456C24.0204 18.7568 13.9076 14.7852 13.8097 14.7411C12.4237 14.1338 8.21702 12.2925 7.83504 9.3835C7.30614 5.20616 15.7441 2.29721 19.4611 2.18457C19.9067 2.18457 21.2633 2.18457 22.0517 2.85059C23.4218 4.04806 24.5194 5.52528 25.2704 7.18272C26.0214 8.84017 26.4084 10.6393 26.4054 12.459Z" fill="#02122B"/>
<path d="M19.5492 23.7708C18.4473 24.2899 17.2328 23.9128 17.5511 22.8354C18.1535 20.7737 23.4278 18.6532 24.608 18.5405C24.75 18.5405 24.8137 18.6238 24.75 18.7364C23.5324 20.8765 21.7278 22.6234 19.5492 23.7708Z" fill="#02122B"/>
</g>
<defs>
<clipPath id="clip0_49019_123875">
<rect width="25.4656" height="23.9976" fill="white" transform="translate(0.939941 0.00244141)"/>
</clipPath>
</defs>
</svg>
