<svg width="1050" height="1050" viewBox="0 0 1050 1050" fill="none" xmlns="http://www.w3.org/2000/svg">
<line x1="527.221" y1="647.025" x2="527.221" y2="238.948" stroke="#F7F8FB" stroke-width="2.34769" stroke-linecap="round" stroke-dasharray="4.7 4.7"/>
<path d="M584.453 866.931C583.215 867.033 581.893 867.058 580.479 867.001C543.346 865.48 505.935 866.832 468.592 866.827C457.7 866.824 450.697 858.412 450.717 848.025C450.811 802.883 451.038 757.741 451.038 712.598C451.038 684.991 451.038 657.381 451.038 629.761C451.038 620.066 458.895 612.206 468.59 612.204C507.418 612.194 545.654 612.204 584.428 612.204C594.125 612.204 601.985 620.063 601.985 629.761C601.985 674.231 601.537 718.698 601.504 763.165C601.489 785.069 601.571 806.976 601.858 828.877C602.074 845.251 603.598 865.345 584.453 866.931Z" fill="#324E77"/>
<path d="M469.247 634.688C467.726 665.719 469.486 697.33 468.843 728.592C468.166 761.545 467.317 794.505 467.708 827.468C467.763 827.468 467.82 827.47 467.875 827.47C474.941 827.63 482.004 827.637 489.069 827.6C514.377 763.342 535.822 697.155 565.18 634.924C531.667 634.74 469.262 634.379 469.247 634.688Z" fill="#81F8DE"/>
<path d="M489.066 827.602C501.923 827.535 514.779 827.268 527.633 827.114C537.841 826.992 548.051 826.94 558.256 827.156C566.616 827.333 575.083 829.223 583.434 828.005C585.381 819.521 584.288 809.079 584.579 800.296C584.903 790.491 585.169 780.682 585.169 770.873C585.169 755.447 585.169 740.021 585.169 724.598C585.169 695.621 585.169 666.644 585.169 637.665C585.169 637.535 585.169 635.023 585.169 635.023C582.896 635.023 575.372 634.984 565.175 634.926C535.819 697.157 514.374 763.344 489.066 827.602Z" fill="#33E6BF"/>
<path d="M539.917 855.616H513.111C509.365 855.616 506.327 852.591 506.305 848.844C506.258 840.411 519.331 842.361 524.576 842.54C528.933 842.687 538.493 841.071 542.35 842.443C549.313 844.923 547.229 855.616 539.917 855.616Z" fill="#162A48"/>
<path d="M537.511 625.414C530.117 625.414 522.914 625.429 515.505 625.414C514.18 625.411 513.107 624.336 513.107 623.011C513.107 621.684 514.183 620.609 515.51 620.609H537.508C538.835 620.609 539.911 621.684 539.911 623.011C539.911 624.338 538.838 625.414 537.511 625.414Z" fill="#162A48"/>
<path d="M331.749 414.502C331.592 412.625 331.555 410.618 331.642 408.472C333.947 352.121 331.898 266.998 331.908 210.326C331.911 193.795 344.68 183.167 360.439 183.199C428.947 183.344 497.457 183.687 565.964 183.687C607.862 183.687 649.76 183.687 691.678 183.687C706.392 183.687 718.32 195.613 718.322 210.324C718.337 269.251 718.322 355.622 718.322 414.467C718.322 429.183 706.392 441.111 691.678 441.111C624.192 441.111 556.71 440.429 489.223 440.382C455.982 440.357 422.74 440.481 389.501 440.919C364.649 441.245 334.156 443.558 331.749 414.502Z" fill="#36537D"/>
<path d="M296.186 487.187C296.001 487.03 295.957 486.863 296.061 486.687C298.792 482.001 296.362 474.923 296.377 470.21C296.38 468.836 311.499 467.952 330.159 467.955C411.274 467.967 492.394 467.994 573.512 467.994C623.123 467.994 672.731 467.994 722.365 467.994C739.785 467.994 753.908 468.985 753.913 470.21C753.931 475.11 753.913 482.292 753.913 487.187C753.913 488.412 739.79 489.403 722.365 489.403C642.457 489.403 562.552 489.346 482.647 489.343C443.286 489.341 403.925 489.351 364.569 489.388C335.141 489.41 299.036 489.604 296.186 487.187Z" fill="#162A48"/>
<path d="M296.152 468.617C295.997 468.418 295.958 468.206 296.047 467.979C298.353 462.024 331.9 449.265 331.91 443.275C331.913 441.527 344.682 440.404 360.442 440.407C428.947 440.422 497.459 440.459 565.966 440.459C607.865 440.459 649.763 440.459 691.681 440.459C706.395 440.459 718.322 441.719 718.325 443.275C718.34 449.504 753.922 462.395 753.922 468.614C753.922 470.17 741.994 471.43 727.278 471.43C659.791 471.43 556.71 471.358 489.226 471.353C455.984 471.35 387.143 471.363 353.904 471.41C329.052 471.443 298.559 471.687 296.152 468.617Z" fill="#162A48"/>
<path d="M727.277 466.09C691.882 466.09 646.695 466.07 601.988 466.052C561.457 466.033 521.317 466.015 489.225 466.015H478.704C443.062 466.015 383.938 466.03 353.896 466.072L340.596 466.09C334.113 466.09 318.292 466.09 308.029 465.465C310.631 463.976 313.484 462.44 315.822 461.18C327.078 455.118 333.785 451.341 336.212 447.099C339.608 446.457 348.005 445.752 360.371 445.752L435.235 445.774C478.814 445.789 522.39 445.804 565.966 445.804H691.678C702.774 445.804 710.721 446.519 714.047 447.156C716.435 451.276 722.868 454.891 733.601 460.655C736.148 462.022 739.534 463.842 742.494 465.577C738.54 465.871 733.387 466.09 727.277 466.09Z" fill="#36537D"/>
<path d="M711.826 459.731C679.14 459.731 637.406 459.713 596.117 459.696C558.686 459.679 521.615 459.664 491.976 459.661H482.259C449.343 459.661 394.741 459.676 366.996 459.713L354.712 459.728C348.724 459.728 334.113 459.728 324.635 459.168C327.037 457.831 329.671 456.454 331.832 455.327C342.227 449.889 348.421 446.501 350.664 442.697C353.801 442.119 361.556 441.489 372.976 441.489L442.116 441.509C482.361 441.522 522.606 441.537 562.851 441.537H678.95C689.198 441.537 696.537 442.176 699.609 442.749C701.815 446.444 707.755 449.685 717.669 454.856C720.022 456.084 723.149 457.714 725.882 459.27C722.228 459.537 717.468 459.731 711.826 459.731Z" fill="#162A48"/>
<path d="M543.269 210.71C488.664 209.681 413.1 208.394 358.48 208.984C358.478 209.069 353.138 209.153 353.135 209.238C352.391 239.47 353.334 234.105 353.73 264.334C353.932 279.824 354.021 359.261 353.663 374.749C353.369 387.437 350.24 400.288 352.254 412.958C366.31 415.913 409.901 414.252 424.456 414.696C434.728 415.007 445.003 415.271 455.277 415.43C493.523 345.352 534.09 276.575 578.973 210.896C567.052 210.953 555.144 210.934 543.269 210.71Z" fill="#81F8DE"/>
<path d="M578.971 210.896C534.087 276.578 493.521 345.351 455.275 415.43C461.253 415.524 467.228 415.592 473.206 415.592C498.767 415.592 524.326 415.592 549.887 415.592C597.904 415.592 645.919 415.592 693.937 415.592C694.151 415.592 698.314 415.592 698.314 415.592C698.314 400.811 699.534 211.349 698.869 211.319C659.239 209.542 619.039 210.709 578.971 210.896Z" fill="#33E6BF"/>
<path d="M718.313 452.877H331.836V455.327H718.313V452.877Z" fill="#36537D"/>
<path d="M709.112 446.073H344.838V448.523H709.112V446.073Z" fill="#36537D"/>
<path d="M456.943 937.199V895.199H474.223C477.943 895.199 481.123 895.799 483.763 896.999C486.443 898.199 488.503 899.919 489.943 902.159C491.383 904.399 492.103 907.059 492.103 910.139C492.103 913.219 491.383 915.879 489.943 918.119C488.503 920.359 486.443 922.079 483.763 923.279C481.123 924.479 477.943 925.079 474.223 925.079H461.263L464.743 921.419V937.199H456.943ZM464.743 922.259L461.263 918.479H473.863C477.303 918.479 479.883 917.759 481.603 916.319C483.363 914.839 484.243 912.779 484.243 910.139C484.243 907.459 483.363 905.399 481.603 903.959C479.883 902.519 477.303 901.799 473.863 901.799H461.263L464.743 897.959V922.259ZM491.843 937.199L510.743 895.199H518.423L537.383 937.199H529.223L512.963 899.339H516.083L499.883 937.199H491.843ZM500.543 927.479L502.643 921.359H525.323L527.423 927.479H500.543ZM542.724 937.199V895.199H550.524V937.199H542.724ZM561.884 937.199V895.199H579.164C582.884 895.199 586.064 895.799 588.704 896.999C591.384 898.199 593.444 899.919 594.884 902.159C596.324 904.399 597.044 907.059 597.044 910.139C597.044 913.219 596.324 915.879 594.884 918.119C593.444 920.319 591.384 922.019 588.704 923.219C586.064 924.379 582.884 924.959 579.164 924.959H566.204L569.684 921.419V937.199H561.884ZM589.364 937.199L578.744 921.959H587.084L597.764 937.199H589.364ZM569.684 922.259L566.204 918.539H578.804C582.244 918.539 584.824 917.799 586.544 916.319C588.304 914.839 589.184 912.779 589.184 910.139C589.184 907.459 588.304 905.399 586.544 903.959C584.824 902.519 582.244 901.799 578.804 901.799H566.204L569.684 897.959V922.259Z" fill="white"/>
<path d="M446.642 103.6C443.362 103.6 440.222 103.14 437.222 102.22C434.222 101.26 431.842 100.04 430.082 98.56L432.782 92.5C434.462 93.82 436.542 94.92 439.022 95.8C441.502 96.68 444.042 97.12 446.642 97.12C448.842 97.12 450.622 96.88 451.982 96.4C453.342 95.92 454.342 95.28 454.982 94.48C455.622 93.64 455.942 92.7 455.942 91.66C455.942 90.38 455.482 89.36 454.562 88.6C453.642 87.8 452.442 87.18 450.962 86.74C449.522 86.26 447.902 85.82 446.102 85.42C444.342 85.02 442.562 84.56 440.762 84.04C439.002 83.48 437.382 82.78 435.902 81.94C434.462 81.06 433.282 79.9 432.362 78.46C431.442 77.02 430.982 75.18 430.982 72.94C430.982 70.66 431.582 68.58 432.782 66.7C434.022 64.78 435.882 63.26 438.362 62.14C440.882 60.98 444.062 60.4 447.902 60.4C450.422 60.4 452.922 60.72 455.402 61.36C457.882 62 460.042 62.92 461.882 64.12L459.422 70.18C457.542 69.06 455.602 68.24 453.602 67.72C451.602 67.16 449.682 66.88 447.842 66.88C445.682 66.88 443.922 67.14 442.562 67.66C441.242 68.18 440.262 68.86 439.622 69.7C439.022 70.54 438.722 71.5 438.722 72.58C438.722 73.86 439.162 74.9 440.042 75.7C440.962 76.46 442.142 77.06 443.582 77.5C445.062 77.94 446.702 78.38 448.502 78.82C450.302 79.22 452.082 79.68 453.842 80.2C455.642 80.72 457.262 81.4 458.702 82.24C460.182 83.08 461.362 84.22 462.242 85.66C463.162 87.1 463.622 88.92 463.622 91.12C463.622 93.36 463.002 95.44 461.762 97.36C460.562 99.24 458.702 100.76 456.182 101.92C453.662 103.04 450.482 103.6 446.642 103.6ZM479.291 103V67.6H465.371V61H501.011V67.6H487.091V103H479.291ZM498.815 103L517.715 61H525.395L544.355 103H536.195L519.935 65.14H523.055L506.855 103H498.815ZM507.515 93.28L509.615 87.16H532.295L534.395 93.28H507.515ZM549.697 103V61H566.977C570.697 61 573.877 61.6 576.517 62.8C579.197 64 581.257 65.72 582.697 67.96C584.137 70.2 584.857 72.86 584.857 75.94C584.857 79.02 584.137 81.68 582.697 83.92C581.257 86.12 579.197 87.82 576.517 89.02C573.877 90.18 570.697 90.76 566.977 90.76H554.017L557.497 87.22V103H549.697ZM577.177 103L566.557 87.76H574.897L585.577 103H577.177ZM557.497 88.06L554.017 84.34H566.617C570.057 84.34 572.637 83.6 574.357 82.12C576.117 80.64 576.997 78.58 576.997 75.94C576.997 73.26 576.117 71.2 574.357 69.76C572.637 68.32 570.057 67.6 566.617 67.6H554.017L557.497 63.76V88.06ZM601.517 103V67.6H587.597V61H623.237V67.6H609.317V103H601.517Z" fill="white"/>
</svg>
