<svg width="207" height="388" viewBox="0 0 207 388" fill="none" xmlns="http://www.w3.org/2000/svg">
<line x1="103.633" y1="269.706" x2="103.633" y2="90.0788" stroke="#F7F8FB" stroke-width="2.34769" stroke-linecap="round" stroke-dasharray="4.7 4.7"/>
<path d="M128.054 339.054C127.538 339.096 126.986 339.107 126.397 339.083C110.908 338.448 95.3038 339.012 79.7284 339.01C75.1853 339.009 72.2642 335.5 72.2725 331.168C72.3119 312.339 72.4064 293.51 72.4064 274.681C72.4064 263.166 72.4064 251.65 72.4064 240.13C72.4064 236.086 75.6837 232.808 79.7274 232.807C95.9227 232.802 111.871 232.807 128.044 232.807C132.088 232.807 135.367 236.085 135.367 240.13C135.367 258.678 135.18 277.225 135.166 295.773C135.16 304.909 135.194 314.046 135.314 323.181C135.404 330.011 136.039 338.392 128.054 339.054Z" fill="#324E77"/>
<path d="M80.0014 242.185C79.3669 255.128 80.101 268.313 79.8331 281.352C79.5507 295.097 79.1966 308.845 79.3596 322.594C79.3824 322.594 79.4063 322.595 79.4292 322.595C82.3763 322.661 85.3223 322.664 88.2694 322.649C98.825 295.847 107.77 268.24 120.015 242.283C106.037 242.207 80.0076 242.056 80.0014 242.185Z" fill="#81F8DE"/>
<path d="M88.2686 322.65C93.631 322.622 98.9935 322.511 104.355 322.446C108.612 322.395 112.871 322.373 117.128 322.464C120.615 322.538 124.146 323.326 127.629 322.818C128.441 319.279 127.985 314.924 128.107 311.26C128.242 307.171 128.353 303.079 128.353 298.988C128.353 292.554 128.353 286.12 128.353 279.687C128.353 267.6 128.353 255.514 128.353 243.427C128.353 243.373 128.353 242.325 128.353 242.325C127.405 242.325 124.267 242.308 120.013 242.284C107.769 268.241 98.8242 295.848 88.2686 322.65Z" fill="#33E6BF"/>
<path d="M109.478 334.334H98.2971C96.7343 334.334 95.4674 333.072 95.4581 331.51C95.4383 327.992 100.891 328.805 103.079 328.88C104.896 328.942 108.884 328.268 110.492 328.84C113.397 329.874 112.528 334.334 109.478 334.334Z" fill="#162A48"/>
<path d="M108.474 238.317C105.39 238.317 102.386 238.323 99.2957 238.317C98.7432 238.316 98.2957 237.867 98.2957 237.315C98.2957 236.761 98.7443 236.312 99.2978 236.312H108.473C109.027 236.312 109.475 236.761 109.475 237.315C109.475 237.868 109.028 238.317 108.474 238.317Z" fill="#162A48"/>
<path d="M38.3482 23.2667L32.2282 9.26672H35.0482L40.5082 21.9267H38.8882L44.4082 9.26672H47.0082L40.9082 23.2667H38.3482ZM54.7985 23.4667C52.8785 23.4667 51.3719 22.9267 50.2785 21.8467C49.1985 20.7667 48.6585 19.2067 48.6585 17.1667V9.26672H51.2585V17.0667C51.2585 18.5067 51.5652 19.5534 52.1785 20.2067C52.8052 20.8601 53.6852 21.1867 54.8185 21.1867C55.9519 21.1867 56.8252 20.8601 57.4385 20.2067C58.0519 19.5534 58.3585 18.5067 58.3585 17.0667V9.26672H60.9185V17.1667C60.9185 19.2067 60.3719 20.7667 59.2785 21.8467C58.1985 22.9267 56.7052 23.4667 54.7985 23.4667ZM64.5598 23.2667V9.26672H67.1598V21.0667H74.4798V23.2667H64.5598ZM78.0638 23.2667V11.4667H73.4238V9.26672H85.3038V11.4667H80.6638V23.2667H78.0638ZM87.2551 23.2667V9.26672H89.8551V23.2667H87.2551ZM97.9818 23.4667C96.8885 23.4667 95.8418 23.3134 94.8418 23.0067C93.8418 22.6867 93.0485 22.2801 92.4618 21.7867L93.3618 19.7667C93.9218 20.2067 94.6151 20.5734 95.4418 20.8667C96.2685 21.1601 97.1151 21.3067 97.9818 21.3067C98.7151 21.3067 99.3085 21.2267 99.7618 21.0667C100.215 20.9067 100.548 20.6934 100.762 20.4267C100.975 20.1467 101.082 19.8334 101.082 19.4867C101.082 19.0601 100.928 18.7201 100.622 18.4667C100.315 18.2001 99.9151 17.9934 99.4218 17.8467C98.9418 17.6867 98.4018 17.5401 97.8018 17.4067C97.2151 17.2734 96.6218 17.1201 96.0218 16.9467C95.4351 16.7601 94.8951 16.5267 94.4018 16.2467C93.9218 15.9534 93.5285 15.5667 93.2218 15.0867C92.9151 14.6067 92.7618 13.9934 92.7618 13.2467C92.7618 12.4867 92.9618 11.7934 93.3618 11.1667C93.7751 10.5267 94.3951 10.0201 95.2218 9.64672C96.0618 9.26006 97.1218 9.06672 98.4018 9.06672C99.2418 9.06672 100.075 9.17339 100.902 9.38672C101.728 9.60006 102.448 9.90672 103.062 10.3067L102.242 12.3267C101.615 11.9534 100.968 11.6801 100.302 11.5067C99.6351 11.3201 98.9951 11.2267 98.3818 11.2267C97.6618 11.2267 97.0751 11.3134 96.6218 11.4867C96.1818 11.6601 95.8551 11.8867 95.6418 12.1667C95.4418 12.4467 95.3418 12.7667 95.3418 13.1267C95.3418 13.5534 95.4885 13.9001 95.7818 14.1667C96.0885 14.4201 96.4818 14.6201 96.9618 14.7667C97.4551 14.9134 98.0018 15.0601 98.6018 15.2067C99.2018 15.3401 99.7951 15.4934 100.382 15.6667C100.982 15.8401 101.522 16.0667 102.002 16.3467C102.495 16.6267 102.888 17.0067 103.182 17.4867C103.488 17.9667 103.642 18.5734 103.642 19.3067C103.642 20.0534 103.435 20.7467 103.022 21.3867C102.622 22.0134 102.002 22.5201 101.162 22.9067C100.322 23.2801 99.2618 23.4667 97.9818 23.4667ZM108.62 15.0867H115.58V17.2267H108.62V15.0867ZM108.82 21.0867H116.72V23.2667H106.22V9.26672H116.44V11.4467H108.82V21.0867ZM119.618 23.2667V9.26672H125.378C126.618 9.26672 127.678 9.46672 128.558 9.86672C129.452 10.2667 130.138 10.8401 130.618 11.5867C131.098 12.3334 131.338 13.2201 131.338 14.2467C131.338 15.2734 131.098 16.1601 130.618 16.9067C130.138 17.6401 129.452 18.2067 128.558 18.6067C127.678 18.9934 126.618 19.1867 125.378 19.1867H121.058L122.218 18.0067V23.2667H119.618ZM128.778 23.2667L125.238 18.1867H128.018L131.578 23.2667H128.778ZM122.218 18.2867L121.058 17.0467H125.258C126.405 17.0467 127.265 16.8001 127.838 16.3067C128.425 15.8134 128.718 15.1267 128.718 14.2467C128.718 13.3534 128.425 12.6667 127.838 12.1867C127.265 11.7067 126.405 11.4667 125.258 11.4667H121.058L122.218 10.1867V18.2867ZM138.387 23.2667L132.267 9.26672H135.087L140.547 21.9267H138.927L144.447 9.26672H147.047L140.947 23.2667H138.387ZM150.925 15.0867H157.885V17.2267H150.925V15.0867ZM151.125 21.0867H159.025V23.2667H148.525V9.26672H158.745V11.4467H151.125V21.0867ZM161.923 23.2667V9.26672H167.683C168.923 9.26672 169.983 9.46672 170.863 9.86672C171.756 10.2667 172.443 10.8401 172.923 11.5867C173.403 12.3334 173.643 13.2201 173.643 14.2467C173.643 15.2734 173.403 16.1601 172.923 16.9067C172.443 17.6401 171.756 18.2067 170.863 18.6067C169.983 18.9934 168.923 19.1867 167.683 19.1867H163.363L164.523 18.0067V23.2667H161.923ZM171.083 23.2667L167.543 18.1867H170.323L173.883 23.2667H171.083ZM164.523 18.2867L163.363 17.0467H167.563C168.71 17.0467 169.57 16.8001 170.143 16.3067C170.73 15.8134 171.023 15.1267 171.023 14.2467C171.023 13.3534 170.73 12.6667 170.143 12.1867C169.57 11.7067 168.71 11.4667 167.563 11.4667H163.363L164.523 10.1867V18.2867Z" fill="white"/>
<path d="M93.7654 372.831V367.291L94.3454 368.891L88.2654 358.831H91.0454L95.9254 366.931H94.3654L99.2854 358.831H101.845L95.7654 368.891L96.3654 367.291V372.831H93.7654ZM109.503 373.031C108.409 373.031 107.403 372.851 106.483 372.491C105.563 372.131 104.763 371.631 104.083 370.991C103.403 370.338 102.876 369.578 102.503 368.711C102.129 367.831 101.943 366.871 101.943 365.831C101.943 364.791 102.129 363.838 102.503 362.971C102.876 362.091 103.403 361.331 104.083 360.691C104.763 360.038 105.563 359.531 106.483 359.171C107.403 358.811 108.403 358.631 109.483 358.631C110.576 358.631 111.576 358.811 112.483 359.171C113.403 359.531 114.203 360.038 114.883 360.691C115.563 361.331 116.089 362.091 116.463 362.971C116.836 363.838 117.023 364.791 117.023 365.831C117.023 366.871 116.836 367.831 116.463 368.711C116.089 369.591 115.563 370.351 114.883 370.991C114.203 371.631 113.403 372.131 112.483 372.491C111.576 372.851 110.583 373.031 109.503 373.031ZM109.483 370.751C110.189 370.751 110.843 370.631 111.443 370.391C112.043 370.151 112.563 369.811 113.003 369.371C113.443 368.918 113.783 368.398 114.023 367.811C114.276 367.211 114.403 366.551 114.403 365.831C114.403 365.111 114.276 364.458 114.023 363.871C113.783 363.271 113.443 362.751 113.003 362.311C112.563 361.858 112.043 361.511 111.443 361.271C110.843 361.031 110.189 360.911 109.483 360.911C108.776 360.911 108.123 361.031 107.523 361.271C106.936 361.511 106.416 361.858 105.963 362.311C105.523 362.751 105.176 363.271 104.923 363.871C104.683 364.458 104.563 365.111 104.563 365.831C104.563 366.538 104.683 367.191 104.923 367.791C105.176 368.391 105.523 368.918 105.963 369.371C106.403 369.811 106.923 370.151 107.523 370.391C108.123 370.631 108.776 370.751 109.483 370.751ZM125.798 373.031C123.878 373.031 122.372 372.491 121.278 371.411C120.198 370.331 119.658 368.771 119.658 366.731V358.831H122.258V366.631C122.258 368.071 122.565 369.118 123.178 369.771C123.805 370.424 124.685 370.751 125.818 370.751C126.952 370.751 127.825 370.424 128.438 369.771C129.052 369.118 129.358 368.071 129.358 366.631V358.831H131.918V366.731C131.918 368.771 131.372 370.331 130.278 371.411C129.198 372.491 127.705 373.031 125.798 373.031Z" fill="white"/>
<path d="M59.1618 149.338L36.0295 136.596V77.6702L59.1618 90.4118V149.338Z" fill="#0439C7"/>
<path d="M56.7211 145.008L38.4692 134.955V81.9999L56.7211 92.0532V145.008Z" fill="#042271"/>
<path d="M55.8565 143.121L39.3342 134.02V83.8872L55.8565 92.9879V143.121Z" fill="#0439C7"/>
<path d="M54.763 97.0973L40.428 89.2016V87.2721L54.763 95.1681V97.0973Z" fill="#042271"/>
<path d="M55.8565 118.055L39.3342 108.954V107.389L55.8565 116.489V118.055Z" fill="#042271"/>
<path d="M55.8565 121.939L39.3342 112.839V111.273L55.8565 120.374V121.939Z" fill="#042271"/>
<path d="M55.8565 125.824L39.3342 116.723V115.158L55.8565 124.258V125.824Z" fill="#042271"/>
<path d="M55.8565 141.372L39.3342 132.272V130.707L55.8565 139.807V141.372Z" fill="#042271"/>
<path d="M49.2722 128.412C49.2722 130.178 48.5214 131.195 47.5956 130.685C46.6694 130.175 45.9189 128.331 45.9189 126.565C45.9189 124.799 46.6694 123.782 47.5956 124.292C48.5214 124.802 49.2722 126.647 49.2722 128.412Z" fill="#042271"/>
<path d="M111.194 61.7414L59.1325 90.418L36 77.6763L88.062 49L111.194 61.7414Z" fill="#4879FD"/>
<path d="M111.225 120.661L59.1616 149.338V90.412L111.225 61.7349V120.661Z" fill="#042271"/>
<path d="M74.1914 133.349L72.5283 134.265V120.282L74.1914 119.366V133.349Z" fill="#0439C7"/>
<path d="M78.9248 130.742L77.2617 131.658V117.675L78.9248 116.759V130.742Z" fill="#0439C7"/>
<path d="M83.6582 128.135L81.9951 129.051V115.067L83.6582 114.151V128.135Z" fill="#0439C7"/>
<path d="M88.3916 125.528L86.7285 126.444V112.46L88.3916 111.544V125.528Z" fill="#0439C7"/>
<path d="M93.125 122.92L91.4619 123.836V109.853L93.125 108.937V122.92Z" fill="#0439C7"/>
<path d="M97.8586 120.313L96.1956 121.229V107.246L97.8586 106.33V120.313Z" fill="#0439C7"/>
<path d="M86.2887 165.327L63.1565 152.585V93.6589L86.2887 106.401V165.327Z" fill="#0439C7"/>
<path d="M83.8486 160.997L65.5967 150.943V97.9883L83.8486 108.042V160.997Z" fill="#042271"/>
<path d="M82.984 159.11L66.4617 150.009V99.8761L82.984 108.977V159.11Z" fill="#0439C7"/>
<path d="M81.8899 113.085L67.5549 105.189V103.26L81.8899 111.156V113.085Z" fill="#042271"/>
<path d="M82.984 134.043L66.4617 124.942V123.377L82.984 132.478V134.043Z" fill="#042271"/>
<path d="M82.984 137.928L66.4617 128.827V127.262L82.984 136.362V137.928Z" fill="#042271"/>
<path d="M82.984 141.812L66.4617 132.711V131.146L82.984 140.247V141.812Z" fill="#042271"/>
<path d="M82.984 157.361L66.4617 148.26V146.695L82.984 155.796V157.361Z" fill="#042271"/>
<path d="M76.3994 144.401C76.3994 146.167 75.6489 147.184 74.7227 146.674C73.7969 146.164 73.0461 144.319 73.0461 142.554C73.0461 140.788 73.7969 139.771 74.7227 140.281C75.6489 140.791 76.3994 142.635 76.3994 144.401Z" fill="#042271"/>
<path d="M138.321 77.7303L86.2589 106.407L63.1267 93.6652L115.189 64.9886L138.321 77.7303Z" fill="#4879FD"/>
<path d="M138.352 136.65L86.2886 165.327V106.401L138.352 77.7235V136.65Z" fill="#042271"/>
<path d="M101.319 149.338L99.6553 150.254V136.27L101.319 135.354V149.338Z" fill="#0439C7"/>
<path d="M106.052 146.731L104.388 147.647V133.663L106.052 132.747V146.731Z" fill="#0439C7"/>
<path d="M110.785 144.124L109.122 145.04V131.056L110.785 130.14V144.124Z" fill="#0439C7"/>
<path d="M115.519 141.516L113.855 142.432V128.449L115.519 127.533V141.516Z" fill="#0439C7"/>
<path d="M120.252 138.909L118.589 139.825V125.841L120.252 124.926V138.909Z" fill="#0439C7"/>
<path d="M124.985 136.302L123.322 137.218V123.234L124.985 122.318V136.302Z" fill="#0439C7"/>
<path d="M113.415 181.315L90.2832 168.574V109.648L113.415 122.39V181.315Z" fill="#0439C7"/>
<path d="M110.975 176.986L92.7231 166.933V113.978L110.975 124.031V176.986Z" fill="#042271"/>
<path d="M110.11 175.099L93.5881 165.998V115.865L110.11 124.966V175.099Z" fill="#0439C7"/>
<path d="M109.017 129.075L94.6821 121.179V119.25L109.017 127.146V129.075Z" fill="#042271"/>
<path d="M110.11 150.032L93.5881 140.931V139.366L110.11 148.467V150.032Z" fill="#042271"/>
<path d="M110.11 153.917L93.5881 144.816V143.251L110.11 152.352V153.917Z" fill="#042271"/>
<path d="M110.11 157.801L93.5881 148.7V147.135L110.11 156.236V157.801Z" fill="#042271"/>
<path d="M110.11 173.35L93.5881 164.249V162.684L110.11 171.785V173.35Z" fill="#042271"/>
<path d="M103.526 160.39C103.526 162.156 102.775 163.173 101.849 162.663C100.923 162.153 100.173 160.308 100.173 158.543C100.173 156.777 100.923 155.76 101.849 156.27C102.775 156.78 103.526 158.624 103.526 160.39Z" fill="#042271"/>
<path d="M165.448 93.719L113.386 122.396L90.2534 109.654L142.315 80.9777L165.448 93.719Z" fill="#4879FD"/>
<path d="M165.479 152.638L113.415 181.315V122.389L165.479 93.7123V152.638Z" fill="#042271"/>
<path d="M128.445 165.326L126.782 166.242V152.259L128.445 151.343V165.326Z" fill="#0439C7"/>
<path d="M133.179 162.719L131.516 163.635V149.652L133.179 148.736V162.719Z" fill="#0439C7"/>
<path d="M137.912 160.112L136.249 161.028V147.045L137.912 146.128V160.112Z" fill="#0439C7"/>
<path d="M142.645 157.505L140.982 158.421V144.437L142.645 143.521V157.505Z" fill="#0439C7"/>
<path d="M147.379 154.898L145.716 155.814V141.83L147.379 140.914V154.898Z" fill="#0439C7"/>
<path d="M152.113 152.29L150.449 153.206V139.222L152.113 138.307V152.29Z" fill="#0439C7"/>
<path d="M40.1057 62.2842L43.9909 60.1301C58.6766 68.219 70.8594 62.3915 71.5008 62.0849L67.6156 64.239C66.9746 64.5453 54.7917 70.3731 40.1057 62.2842Z" fill="#A6FBE8"/>
<path d="M95.0583 92.5569L94.7138 95.0024L88.898 136.287L67.3709 144.294L57.8343 130.187L54.3338 124.993L50.7919 119.76L45.9822 112.647L45.4175 107.809L40.1116 62.2899C54.789 70.3759 66.9718 64.5513 67.6196 64.2358C67.9642 64.788 71.6993 70.7046 77.4044 77.3051C79.9405 80.2501 82.8616 83.3269 86.0592 86.114C87.644 87.4948 89.2978 88.8095 91.0067 90.0062C92.3298 90.9397 93.6804 91.7942 95.0583 92.5569Z" fill="#33E6BF"/>
<path d="M67.6119 69.1125C68.17 69.9973 78.7746 86.8119 91.6348 93.8955L86.2373 132.171L67.4036 139.174L48.673 111.479L43.5356 67.4019C56.3882 74.4813 67.0507 69.381 67.6119 69.1125Z" fill="#A6FBE8"/>
<path d="M67.6096 72.4846C68.1126 73.2823 77.6708 88.4377 89.2622 94.8221L84.3975 129.321L67.4219 135.633L50.5393 110.671L45.9089 70.943C57.4932 77.3238 67.1035 72.7266 67.6096 72.4846Z" fill="#33E6BF"/>
<path d="M67.6157 64.2391L71.5009 62.085C72.1386 63.0961 84.2557 82.3086 98.9501 90.4025L95.0649 92.5566C80.3706 84.4624 68.2537 65.2502 67.6157 64.2391Z" fill="#A6FBE8"/>
<path d="M95.0648 92.5563L98.95 90.4022L92.7829 134.136L88.8975 136.29L95.0648 92.5563Z" fill="#A6FBE8"/>
<g opacity="0.3">
<path d="M86.0592 86.1142L50.7919 119.76L45.9821 112.647L45.4175 107.809L77.4043 77.3052C79.9402 80.2502 82.8616 83.327 86.0592 86.1142Z" fill="white"/>
<path d="M95.0583 92.5572L94.7138 95.0027L57.8346 130.187L54.3337 124.993L91.0064 90.0065C92.3298 90.94 93.6804 91.7945 95.0583 92.5572Z" fill="white"/>
</g>
</svg>
