<svg width="27" height="27" viewBox="0 0 27 27" fill="none" xmlns="http://www.w3.org/2000/svg">
<path d="M4.4654 5.58021C3.8489 5.58021 3.34912 5.08043 3.34912 4.46394C3.34912 3.84744 3.8489 3.34766 4.4654 3.34766C5.0819 3.34766 5.58168 3.84744 5.58168 4.46394C5.58168 5.08043 5.0819 5.58021 4.4654 5.58021Z" fill="#2AF6AB"/>
<path d="M22.3258 5.58021C21.7092 5.58021 21.2095 5.08043 21.2095 4.46394C21.2095 3.84744 21.7092 3.34766 22.3258 3.34766C22.9423 3.34766 23.442 3.84744 23.442 4.46394C23.442 5.08043 22.9423 5.58021 22.3258 5.58021Z" fill="#2AF6AB"/>
<path d="M22.3258 23.4415C21.7092 23.4415 21.2095 22.9418 21.2095 22.3253C21.2095 21.7087 21.7092 21.209 22.3258 21.209C22.9423 21.209 23.442 21.7087 23.442 22.3253C23.442 22.9418 22.9423 23.4415 22.3258 23.4415Z" fill="#2AF6AB"/>
<path d="M4.4654 23.4415C3.8489 23.4415 3.34912 22.9418 3.34912 22.3253C3.34912 21.7087 3.8489 21.209 4.4654 21.209C5.0819 21.209 5.58168 21.7087 5.58168 22.3253C5.58168 22.9418 5.0819 23.4415 4.4654 23.4415Z" fill="#2AF6AB"/>
<path d="M14.9185 6.60173C13.9747 6.06244 12.8162 6.06244 11.8724 6.60173L8.24454 8.67482C8.01875 8.80384 7.81337 8.95909 7.63135 9.13547L13.3953 12.4292L19.1595 9.13531C18.9774 8.95899 18.7721 8.8038 18.5464 8.67482L14.9185 6.60173Z" fill="#2AF6AB"/>
<path d="M6.69775 11.3416C6.69775 11.0834 6.73018 10.8299 6.79214 10.5859L12.558 13.8807V20.4745C12.3215 20.4076 12.0912 20.3114 11.8724 20.1864L8.24449 18.1134C7.28803 17.5668 6.69775 16.5497 6.69775 15.448V11.3416Z" fill="#2AF6AB"/>
<path d="M14.919 20.1866C14.7001 20.3118 14.4696 20.4079 14.2329 20.4749V13.8809L19.9992 10.5859C20.0611 10.8299 20.0936 11.0836 20.0936 11.3418V15.4483C20.0936 16.5499 19.5033 17.5671 18.5469 18.1136L14.919 20.1866Z" fill="#2AF6AB"/>
</svg>
