<svg width="32" height="32" viewBox="0 0 32 32" fill="none" xmlns="http://www.w3.org/2000/svg">
<g clip-path="url(#clip0_48948_109674)">
<path d="M26.6632 18.663C25.1961 24.562 19.2207 28.138 13.337 26.6709C7.45332 25.2038 3.86198 19.2284 5.32909 13.3447C6.79619 7.44577 12.7716 3.86971 18.6553 5.33681C24.5542 6.78863 28.1303 12.764 26.6632 18.663Z" fill="#F7931A"/>
<path d="M20.8404 14.4364C21.0544 12.9693 19.9388 12.1899 18.4258 11.655L18.9149 9.66831L17.7076 9.36266L17.2338 11.2882C16.9129 11.2118 16.592 11.1354 16.271 11.059L16.7601 9.11815L15.5528 8.8125L15.0637 10.7992C14.8039 10.7381 14.5441 10.6769 14.2996 10.6158L12.6339 10.2032L12.3129 11.4869C12.3129 11.4869 13.2146 11.6856 13.184 11.7009C13.673 11.8231 13.7647 12.144 13.7495 12.4038L13.184 14.6656C13.2146 14.6809 13.2604 14.6809 13.3063 14.7115C13.2604 14.6962 13.2299 14.6962 13.184 14.6809L12.3893 17.8443C12.3282 17.9972 12.1754 18.2111 11.8392 18.1347C11.8545 18.15 10.9681 17.9208 10.9681 17.9208L10.3721 19.2962L11.9461 19.6935C12.2365 19.7699 12.5269 19.8463 12.802 19.9227L12.2976 21.9247L13.5049 22.2304L13.994 20.2437C14.3302 20.3354 14.6358 20.4118 14.9568 20.4882L14.4677 22.4596L15.675 22.7652L16.1793 20.7633C18.2425 21.1453 19.786 20.9925 20.4431 19.1281C20.9627 17.6304 20.4125 16.7593 19.3275 16.1939C20.0916 16.0257 20.6876 15.5061 20.8404 14.4364ZM18.0896 18.3028C17.7229 19.8005 15.186 18.9905 14.376 18.7918L15.0332 16.1327C15.8584 16.3314 18.4717 16.744 18.0896 18.3028ZM18.4564 14.4211C18.1202 15.7812 16.0112 15.0935 15.3388 14.9254L15.9348 12.5108C16.6225 12.6789 18.8232 12.9999 18.4564 14.4211Z" fill="white"/>
</g>
<defs>
<clipPath id="clip0_48948_109674">
<rect width="22" height="22" fill="white" transform="translate(5 5)"/>
</clipPath>
</defs>
</svg>
