<svg width="120" height="120" viewBox="0 0 120 120" fill="none" xmlns="http://www.w3.org/2000/svg">
<path d="M118.205 74.5143C110.192 106.657 77.6358 126.219 45.4888 118.204C13.3553 110.19 -6.20637 77.6324 1.81058 45.4918C9.8205 13.3451 42.3763 -6.21803 74.5133 1.79541C106.658 9.80884 126.219 42.3702 118.204 74.5149L118.205 74.5143H118.205Z" fill="#F7931A"/>
<path fill-rule="evenodd" clip-rule="evenodd" d="M86.465 51.4517C87.6592 43.467 81.5802 39.1749 73.2676 36.3117L75.9643 25.4957L69.3803 23.8551L66.7552 34.3863C65.0243 33.9546 63.2467 33.5479 61.48 33.1446L64.1242 22.5439L57.5443 20.9033L54.8462 31.7158C53.4138 31.3896 52.007 31.0673 50.6421 30.7277L50.6497 30.6937L41.5702 28.4264L39.8188 35.4585C39.8188 35.4585 44.7036 36.5783 44.6006 36.6472C47.2668 37.3126 47.7489 39.0775 47.6689 40.4765L44.5971 52.7984C44.7807 52.845 45.0188 52.9125 45.2816 53.0181L45.0906 52.9704L45.0904 52.9703C44.928 52.9297 44.7591 52.8874 44.5857 52.8459L40.2801 70.1072C39.9543 70.9172 39.1272 72.1328 37.2632 71.6712C37.3292 71.7668 32.4778 70.477 32.4778 70.477L29.209 78.0135L37.777 80.1495C38.7152 80.3848 39.6423 80.6264 40.5601 80.8657L40.5619 80.8662C41.2027 81.0332 41.8389 81.1991 42.4712 81.3607L39.7466 92.3007L46.323 93.9413L49.0211 83.1174C50.8177 83.6051 52.5613 84.055 54.2681 84.4791L51.5791 95.2519L58.1634 96.8925L60.8876 85.973C72.1148 88.0978 80.5567 87.2411 84.11 77.0862C86.9732 68.9103 83.9674 64.1945 78.0609 61.1192C82.3629 60.127 85.6033 57.2975 86.4673 51.4526L86.4653 51.4511L86.465 51.4517ZM71.422 72.5457C69.5552 80.0469 57.8139 76.9457 52.4418 75.5268C51.9586 75.3992 51.5269 75.2852 51.1585 75.1937L54.774 60.7001C55.2229 60.8122 55.7714 60.9353 56.3929 61.0747L56.393 61.0747C61.9497 62.3218 73.3347 64.8768 71.4223 72.5457H71.422ZM57.5076 54.348C61.9863 55.5433 71.7567 58.1508 73.4582 51.3332H73.4588C75.1963 44.3605 65.7012 42.2583 61.0638 41.2316C60.5421 41.1161 60.0819 41.0142 59.706 40.9205L56.4281 54.0653C56.7376 54.1425 57.1007 54.2394 57.5076 54.348Z" fill="white"/>
</svg>
