<svg width="17" height="16" viewBox="0 0 17 16" fill="none" xmlns="http://www.w3.org/2000/svg">
<path d="M1.83301 1.33301L15.1663 14.6663M4.35437 3.85433C3.42521 4.33475 2.6844 5.11341 2.25083 6.06532C1.81726 7.01724 1.71607 8.08723 1.9635 9.10355C2.21093 10.1199 2.79263 11.0236 3.61525 11.6697C4.43786 12.3158 5.45369 12.6668 6.4997 12.6663H12.1664C12.4616 12.6665 12.7552 12.6232 13.0377 12.5377M14.8543 10.9997C15.0813 10.5423 15.1877 10.0345 15.1636 9.52444C15.1394 9.01438 14.9854 8.51893 14.7163 8.085C14.4471 7.65107 14.0716 7.29303 13.6254 7.04478C13.1792 6.79653 12.677 6.66629 12.1663 6.66639H10.973C10.718 5.81257 10.2241 5.04949 9.54964 4.46715C8.87517 3.8848 8.04822 3.50749 7.16634 3.37972" stroke="#4879FD" stroke-width="1.5" stroke-linecap="round" stroke-linejoin="round"/>
</svg>
