<svg width="24" height="24" viewBox="0 0 24 24" fill="none" xmlns="http://www.w3.org/2000/svg">
<g id="qrcode">
<path id="Vector" d="M19.8008 19.2002H21.6008V21.6002H19.8008V19.2002Z" fill="#F0F4FC"/>
<path id="Vector_2" d="M18 16.7998H19.8V19.1998H18V16.7998Z" fill="#F0F4FC"/>
<path id="Vector_3" d="M19.8008 15H21.6008V16.8H19.8008V15Z" fill="#F0F4FC"/>
<path id="Vector_4" d="M15.5996 19.2002H17.9996V21.6002H15.5996V19.2002Z" fill="#F0F4FC"/>
<path id="Vector_5" d="M13.1992 15H15.5992V19.2H13.1992V15Z" fill="#F0F4FC"/>
<path id="Vector_6" d="M15.5996 13.2002H19.7996V15.0002H15.5996V13.2002Z" fill="#F0F4FC"/>
<path id="Vector_7" d="M7.79961 3.59961H5.39961C4.4055 3.59961 3.59961 4.4055 3.59961 5.39961V7.79961C3.59961 8.79372 4.4055 9.59961 5.39961 9.59961H7.79961C8.79372 9.59961 9.59961 8.79372 9.59961 7.79961V5.39961C9.59961 4.4055 8.79372 3.59961 7.79961 3.59961Z" stroke="#F0F4FC" stroke-width="2" stroke-linecap="round" stroke-linejoin="round"/>
<path id="Vector_8" d="M18.6004 3.59961H16.2004C15.2063 3.59961 14.4004 4.4055 14.4004 5.39961V7.79961C14.4004 8.79372 15.2063 9.59961 16.2004 9.59961H18.6004C19.5945 9.59961 20.4004 8.79372 20.4004 7.79961V5.39961C20.4004 4.4055 19.5945 3.59961 18.6004 3.59961Z" stroke="#F0F4FC" stroke-width="2" stroke-linecap="round" stroke-linejoin="round"/>
<path id="Vector_9" d="M7.79961 14.4004H5.39961C4.4055 14.4004 3.59961 15.2063 3.59961 16.2004V18.6004C3.59961 19.5945 4.4055 20.4004 5.39961 20.4004H7.79961C8.79372 20.4004 9.59961 19.5945 9.59961 18.6004V16.2004C9.59961 15.2063 8.79372 14.4004 7.79961 14.4004Z" stroke="#F0F4FC" stroke-width="2" stroke-linecap="round" stroke-linejoin="round"/>
</g>
</svg>
