<svg width="27" height="28" viewBox="0 0 27 28" fill="none" xmlns="http://www.w3.org/2000/svg">
<g clip-path="url(#clip0_49019_123804)">
<mask id="mask0_49019_123804" style="mask-type:luminance" maskUnits="userSpaceOnUse" x="0" y="0" width="27" height="28">
<path d="M26.0625 0.275879H0.9375V28H26.0625V0.275879Z" fill="white"/>
</mask>
<g mask="url(#mask0_49019_123804)">
<path d="M15.6054 16.2481L14.2308 19.9283C14.1903 20.0304 14.1903 20.1438 14.2308 20.2459L16.5914 26.5801L19.3232 25.0376L16.0463 16.2481C15.9708 16.0439 15.6808 16.0439 15.6054 16.2481Z" fill="#02122B"/>
<path d="M18.3548 10.0562C18.2795 9.85205 17.9895 9.85205 17.9141 10.0562L16.5395 13.7365C16.4989 13.8386 16.4989 13.952 16.5395 14.0541L20.408 24.4258L23.1398 22.8833L18.3548 10.0562Z" fill="#02122B"/>
<path d="M13.5 1.99411C13.5696 1.99411 13.6334 2.01111 13.6972 2.04514L24.1137 7.92567C24.2355 7.99372 24.3109 8.11847 24.3109 8.25457V20.0156C24.3109 20.1517 24.2355 20.2765 24.1137 20.3445L13.6972 26.2308C13.6392 26.2647 13.5696 26.2818 13.5 26.2818C13.4304 26.2818 13.3666 26.2647 13.3028 26.2308L2.89205 20.3502C2.77025 20.2821 2.69485 20.1574 2.69485 20.0213V8.25457C2.69485 8.11847 2.77025 7.99372 2.89205 7.92567L13.3086 2.04514C13.3666 2.01111 13.4362 1.99411 13.5 1.99411ZM13.5 0.275879C13.1288 0.275879 12.7576 0.372281 12.427 0.559414L2.01047 6.43994C1.34929 6.81421 0.9375 7.50604 0.9375 8.25457V20.0156C0.9375 20.7642 1.34929 21.4617 2.01047 21.836L12.427 27.7164C12.7576 27.9036 13.1288 28 13.5 28C13.8711 28 14.2424 27.9036 14.573 27.7164L24.9895 21.836C25.6565 21.4617 26.0625 20.7698 26.0625 20.0156V8.25457C26.0625 7.50604 25.6507 6.80854 24.9895 6.43427L14.5788 0.559414C14.2424 0.372281 13.8711 0.275879 13.5 0.275879Z" fill="#02122B"/>
<path d="M6.61646 24.4308L7.57343 21.8677L9.49898 23.4328L7.70102 25.0432L6.61646 24.4308Z" fill="#02122B"/>
<path d="M12.6244 7.42261H9.98551C9.78832 7.42261 9.60846 7.54169 9.54469 7.72315L3.88403 22.898L6.61577 24.4404L12.8506 7.72883C12.9028 7.58139 12.7926 7.42261 12.6244 7.42261Z" fill="#02122B"/>
<path d="M17.246 7.42261H14.6071C14.4099 7.42261 14.2301 7.54169 14.1663 7.72315L7.69946 25.0528L10.4312 26.5953L17.4664 7.73449C17.5244 7.58139 17.4085 7.42261 17.246 7.42261Z" fill="#02122B"/>
</g>
</g>
<defs>
<clipPath id="clip0_49019_123804">
<rect width="25.125" height="27.7241" fill="white" transform="translate(0.9375 0.275879)"/>
</clipPath>
</defs>
</svg>
