<svg width="32" height="32" viewBox="0 0 32 32" fill="none" xmlns="http://www.w3.org/2000/svg">
<g clip-path="url(#clip0_48948_109665)">
<path d="M22.4398 18.1041C22.7955 17.4965 23.6787 17.4965 24.0305 18.1041L27.8097 24.5803C28.1654 25.188 27.7199 25.9446 27.0124 25.9446H19.454C18.7465 25.9446 18.3049 25.188 18.6567 24.5803L22.4359 18.1041H22.4398Z" fill="#FF394A"/>
<path d="M20.1574 13.7867C20.5014 13.183 20.5014 12.4381 20.1574 11.8305L17.0583 6.40885C16.7105 5.80122 15.8428 5.80122 15.495 6.40885L5.12256 24.5712C4.77473 25.1789 5.20854 25.9394 5.90421 25.9394H12.0987C12.7905 25.9394 13.4275 25.5669 13.7714 24.9633L20.1535 13.7867H20.1574Z" fill="#FF394A"/>
</g>
<defs>
<clipPath id="clip0_48948_109665">
<rect width="23" height="20.0845" fill="white" transform="translate(5 5.95312)"/>
</clipPath>
</defs>
</svg>
