<svg width="16" height="20" viewBox="0 0 16 20" fill="none" xmlns="http://www.w3.org/2000/svg">
<path d="M11.1213 12.8656L14.169 12.9389C14.2746 12.9406 14.3666 12.8622 14.3768 12.7566L15.5625 1.9834C15.588 1.74661 15.2558 1.66314 15.1689 1.8863L10.9356 12.5863C10.8828 12.7191 10.9782 12.8622 11.1213 12.8656Z" fill="url(#paint0_linear_51817_156540)"/>
<path d="M13.5758 0.518708L3.63393 4.83208C3.53683 4.87467 3.48743 4.9837 3.5215 5.08591L4.49081 7.97682C4.53681 8.1114 4.70205 8.1608 4.81278 8.07222L13.7853 0.866231C13.971 0.716319 13.7939 0.42331 13.5758 0.518708Z" fill="url(#paint1_linear_51817_156540)"/>
<path d="M10.5864 13.2279L3.23389 19.1324C3.03628 19.2925 3.24752 19.5974 3.46728 19.468L13.9321 13.2603L13.5948 13.2517L10.721 13.1836C10.6733 13.1836 10.6256 13.1989 10.5881 13.2279H10.5864Z" fill="url(#paint2_linear_51817_156540)"/>
<path d="M10.1145 13.1878C10.2201 13.1043 10.2167 12.9425 10.1077 12.8624L7.45015 10.9033L4.79262 8.94256C4.68359 8.86249 4.53027 8.90678 4.48087 9.03285L1.00224 17.8197C0.952833 17.9441 0.993718 18.0855 1.10104 18.1655L2.38551 19.1127C2.49284 19.1928 2.64104 19.1894 2.74496 19.1059C4.03454 18.0701 9.48247 13.6971 10.1128 13.1895L10.1145 13.1878Z" fill="url(#paint3_linear_51817_156540)"/>
<path d="M4.30685 8.45419L3.51129 6.08456C3.44656 5.89036 3.16548 5.90228 3.11778 6.1016L0.443213 17.2394C0.383589 17.4864 0.73963 17.5988 0.833324 17.362L2.72426 12.5819L4.30174 8.59388C4.31877 8.54959 4.32048 8.49849 4.30515 8.45249L4.30685 8.45419Z" fill="url(#paint4_linear_51817_156540)"/>
<path d="M14.9995 1.42305L10.6129 12.5114C10.5635 12.6358 10.4102 12.6818 10.3011 12.6017C8.9775 11.6239 6.30975 9.65968 4.98439 8.68185C4.33364 8.43654 13.1733 1.93582 14.284 0.910285C14.3505 0.848958 14.4493 0.845551 14.5208 0.89836L14.9348 1.20329C15.0029 1.2544 15.0302 1.34469 14.9978 1.42305H14.9995Z" fill="url(#paint5_linear_51817_156540)"/>
<defs>
<linearGradient id="paint0_linear_51817_156540" x1="14.6983" y1="1.75586" x2="7.99672" y2="9.7698" gradientUnits="userSpaceOnUse">
<stop stop-color="#33E6BF"/>
<stop offset="1" stop-color="#4879FD"/>
</linearGradient>
<linearGradient id="paint1_linear_51817_156540" x1="11.9333" y1="0.5" x2="9.70913" y2="9.20717" gradientUnits="userSpaceOnUse">
<stop stop-color="#33E6BF"/>
<stop offset="1" stop-color="#4879FD"/>
</linearGradient>
<linearGradient id="paint2_linear_51817_156540" x1="11.9231" y1="13.1836" x2="10.4205" y2="20.5686" gradientUnits="userSpaceOnUse">
<stop stop-color="#33E6BF"/>
<stop offset="1" stop-color="#4879FD"/>
</linearGradient>
<linearGradient id="paint3_linear_51817_156540" x1="8.47468" y1="8.90234" x2="4.26525" y2="19.7772" gradientUnits="userSpaceOnUse">
<stop stop-color="#33E6BF"/>
<stop offset="1" stop-color="#4879FD"/>
</linearGradient>
<linearGradient id="paint4_linear_51817_156540" x1="3.59252" y1="5.94531" x2="-3.43442" y2="12.7445" gradientUnits="userSpaceOnUse">
<stop stop-color="#33E6BF"/>
<stop offset="1" stop-color="#4879FD"/>
</linearGradient>
<linearGradient id="paint5_linear_51817_156540" x1="13.1358" y1="0.861328" x2="8.13131" y2="13.1722" gradientUnits="userSpaceOnUse">
<stop stop-color="#33E6BF"/>
<stop offset="1" stop-color="#4879FD"/>
</linearGradient>
</defs>
</svg>
