<svg width="24" height="24" viewBox="0 0 24 24" fill="none" xmlns="http://www.w3.org/2000/svg">
<path id="Vector" d="M12.0004 2.40039C6.70671 2.40039 2.40039 6.70671 2.40039 12.0004C2.40039 17.2941 6.70671 21.6004 12.0004 21.6004C17.2941 21.6004 21.6004 17.2941 21.6004 12.0004C21.6004 6.70671 17.2941 2.40039 12.0004 2.40039ZM13.2004 17.37V18.0004C13.2004 18.663 12.6636 19.2004 12.0004 19.2004C11.3372 19.2004 10.8004 18.663 10.8004 18.0004V17.4004H9.60039C8.93715 17.4004 8.40039 16.863 8.40039 16.2004C8.40039 15.5378 8.93715 15.0004 9.60039 15.0004H12.9004C13.3961 15.0004 13.8004 14.5967 13.8004 14.1004C13.8004 13.6041 13.3961 13.2004 12.9004 13.2004H11.1004C9.28047 13.2004 7.80039 11.7203 7.80039 9.90039C7.80039 8.18319 9.12291 6.78507 10.8004 6.63075V6.00039C10.8004 5.33775 11.3372 4.80039 12.0004 4.80039C12.6636 4.80039 13.2004 5.33775 13.2004 6.00039V6.60039H14.4004C15.0636 6.60039 15.6004 7.13775 15.6004 7.80039C15.6004 8.46303 15.0636 9.00039 14.4004 9.00039H11.1004C10.6047 9.00039 10.2004 9.40407 10.2004 9.90039C10.2004 10.3967 10.6047 10.8004 11.1004 10.8004H12.9004C14.7203 10.8004 16.2004 12.2805 16.2004 14.1004C16.2004 15.8176 14.8779 17.2157 13.2004 17.37Z" fill="#F0F4FC"/>
</svg>
