<svg width="20" height="20" viewBox="0 0 20 20" fill="none" xmlns="http://www.w3.org/2000/svg">
<path d="M11.875 8.95768C11.875 8.03721 12.6212 7.29102 13.5417 7.29102H16.875C17.7955 7.29102 18.5417 8.03721 18.5417 8.95768V16.041C18.5417 16.9615 17.7955 17.7077 16.875 17.7077H13.5417C12.6212 17.7077 11.875 16.9615 11.875 16.041V8.95768Z" stroke="#5CA7FF" stroke-width="1.5" stroke-linecap="round" stroke-linejoin="round"/>
<path d="M14.375 15.209H16.25" stroke="#5CA7FF" stroke-width="1.5" stroke-linecap="round" stroke-linejoin="round"/>
<path d="M16.8747 7.29167V4.79167C16.8747 3.87119 16.1285 3.125 15.208 3.125H4.79134C3.87087 3.125 3.12467 3.87119 3.12467 4.79167V12.2917C3.12467 13.2122 2.37848 13.9583 1.45801 13.9583V15.2083C1.45801 16.1288 2.2042 16.875 3.12467 16.875H11.8747" stroke="#5CA7FF" stroke-width="1.5" stroke-linecap="round" stroke-linejoin="round"/>
<path d="M3.125 13.959H11.875" stroke="#5CA7FF" stroke-width="1.5" stroke-linecap="round" stroke-linejoin="round"/>
</svg>
