<svg width="21" height="20" viewBox="0 0 21 20" fill="none" xmlns="http://www.w3.org/2000/svg">
<path d="M6.95833 3.125C6.95833 2.77983 6.67851 2.5 6.33333 2.5C5.98816 2.5 5.70833 2.77983 5.70833 3.125H6.95833ZM5.70833 8.54167C5.70833 8.88683 5.98816 9.16667 6.33333 9.16667C6.67851 9.16667 6.95833 8.88683 6.95833 8.54167H5.70833ZM3.625 5.20833C3.27983 5.20833 3 5.48816 3 5.83333C3 6.17851 3.27983 6.45833 3.625 6.45833V5.20833ZM9.04167 6.45833C9.38683 6.45833 9.66667 6.17851 9.66667 5.83333C9.66667 5.48816 9.38683 5.20833 9.04167 5.20833V6.45833ZM17.0237 12.6935C17.2677 12.4494 17.2677 12.0538 17.0237 11.8097C16.7796 11.5656 16.3839 11.5656 16.1398 11.8097L17.0237 12.6935ZM12.3097 15.6398C12.0656 15.8839 12.0656 16.2796 12.3097 16.5237C12.5538 16.7677 12.9494 16.7677 13.1935 16.5237L12.3097 15.6398ZM13.1935 11.8097C12.9494 11.5656 12.5538 11.5656 12.3097 11.8097C12.0656 12.0538 12.0656 12.4494 12.3097 12.6935L13.1935 11.8097ZM16.1398 16.5237C16.3839 16.7677 16.7796 16.7677 17.0237 16.5237C17.2677 16.2796 17.2677 15.8839 17.0237 15.6398L16.1398 16.5237ZM14.6667 7.91667C13.5161 7.91667 12.5833 6.98392 12.5833 5.83333H11.3333C11.3333 7.67428 12.8257 9.16667 14.6667 9.16667V7.91667ZM16.75 5.83333C16.75 6.98392 15.8172 7.91667 14.6667 7.91667V9.16667C16.5076 9.16667 18 7.67428 18 5.83333H16.75ZM14.6667 3.75C15.8172 3.75 16.75 4.68274 16.75 5.83333H18C18 3.99238 16.5076 2.5 14.6667 2.5V3.75ZM14.6667 2.5C12.8257 2.5 11.3333 3.99238 11.3333 5.83333H12.5833C12.5833 4.68274 13.5161 3.75 14.6667 3.75V2.5ZM5.70833 3.125V5.83333H6.95833V3.125H5.70833ZM5.70833 5.83333V8.54167H6.95833V5.83333H5.70833ZM3.625 6.45833H6.33333V5.20833H3.625V6.45833ZM6.33333 6.45833H9.04167V5.20833H6.33333V6.45833ZM16.1398 11.8097L14.2247 13.7247L15.1086 14.6086L17.0237 12.6935L16.1398 11.8097ZM14.2247 13.7247L12.3097 15.6398L13.1935 16.5237L15.1086 14.6086L14.2247 13.7247ZM12.3097 12.6935L14.2247 14.6086L15.1086 13.7247L13.1935 11.8097L12.3097 12.6935ZM14.2247 14.6086L16.1398 16.5237L17.0237 15.6398L15.1086 13.7247L14.2247 14.6086ZM4.875 12.0833H7.79167V10.8333H4.875V12.0833ZM8.41667 12.7083V15.625H9.66667V12.7083H8.41667ZM7.79167 16.25H4.875V17.5H7.79167V16.25ZM4.25 15.625V12.7083H3V15.625H4.25ZM4.875 16.25C4.52982 16.25 4.25 15.9702 4.25 15.625H3C3 16.6605 3.83947 17.5 4.875 17.5V16.25ZM8.41667 15.625C8.41667 15.9702 8.13684 16.25 7.79167 16.25V17.5C8.8272 17.5 9.66667 16.6605 9.66667 15.625H8.41667ZM7.79167 12.0833C8.13684 12.0833 8.41667 12.3632 8.41667 12.7083H9.66667C9.66667 11.6728 8.8272 10.8333 7.79167 10.8333V12.0833ZM4.875 10.8333C3.83947 10.8333 3 11.6728 3 12.7083H4.25C4.25 12.3632 4.52982 12.0833 4.875 12.0833V10.8333Z" fill="#F0F4FC"/>
</svg>
