<svg width="21" height="28" viewBox="0 0 21 28" fill="none" xmlns="http://www.w3.org/2000/svg">
<g clip-path="url(#clip0_49019_123707)">
<path fill-rule="evenodd" clip-rule="evenodd" d="M16.3194 11.8379L16.319 11.8391C17.3825 13.1727 18.0181 14.8616 18.0181 16.6988C18.0181 18.5631 17.3635 20.2751 16.2712 21.6177L16.1772 21.7333L16.1523 21.5864C16.131 21.4614 16.1061 21.3353 16.0772 21.2081C15.5306 18.8065 13.7496 16.747 10.8184 15.0795C8.83905 13.9565 7.70606 12.6044 7.40859 11.0681C7.21646 10.0747 7.35927 9.07679 7.63531 8.22209C7.91128 7.3677 8.32172 6.65185 8.67047 6.22086L9.81091 4.82632C10.0109 4.58181 10.3851 4.58181 10.5851 4.82632L16.3194 11.8379ZM18.1229 10.445L10.4805 1.0994C10.3345 0.920969 10.0614 0.920969 9.91548 1.0994L2.27271 10.4445L2.24804 10.4759C0.841637 12.2211 0 14.439 0 16.8533C0 22.4762 4.56568 27.0346 10.198 27.0346C15.8302 27.0346 20.3959 22.4762 20.3959 16.8533C20.3959 14.439 19.5543 12.2211 18.1479 10.4759L18.1229 10.445ZM4.10138 11.8079L4.78529 10.9716L4.80595 11.1259C4.82231 11.2481 4.84215 11.371 4.86569 11.4944C5.308 13.8151 6.88806 15.7502 9.5298 17.2489C11.826 18.5558 13.163 20.0586 13.5483 21.7069C13.7089 22.3947 13.7376 23.0715 13.668 23.6632L13.6637 23.6998L13.6306 23.716C12.5941 24.2223 11.4291 24.5064 10.1977 24.5064C5.87879 24.5064 2.3774 21.011 2.3774 16.6988C2.3774 14.8474 3.02286 13.1462 4.10138 11.8079Z" fill="#02122B"/>
</g>
<defs>
<clipPath id="clip0_49019_123707">
<rect width="21" height="26.069" fill="white" transform="translate(0 0.965576)"/>
</clipPath>
</defs>
</svg>
