<svg width="46" height="46" viewBox="0 0 46 46" fill="none" xmlns="http://www.w3.org/2000/svg">
<g clip-path="url(#clip0_14980_9157)">
<path d="M2.2998 28.3667H43.6998V33.7334H2.2998V28.3667Z" fill="#1E3659"/>
<path d="M2.2998 12.2666H43.6998V17.6333H2.2998V12.2666Z" fill="#1E3659"/>
<path d="M43.6999 16.8667H2.29993C1.4531 16.8667 0.766602 17.5532 0.766602 18.4V27.6C0.766602 28.4469 1.4531 29.1334 2.29993 29.1334H43.6999C44.5468 29.1334 45.2333 28.4469 45.2333 27.6V18.4C45.2333 17.5532 44.5468 16.8667 43.6999 16.8667Z" fill="#57739C"/>
<path d="M43.6999 32.9668H2.29993C1.4531 32.9668 0.766602 33.6533 0.766602 34.5001V43.7001C0.766602 44.547 1.4531 45.2335 2.29993 45.2335H43.6999C44.5468 45.2335 45.2333 44.547 45.2333 43.7001V34.5001C45.2333 33.6533 44.5468 32.9668 43.6999 32.9668Z" fill="#57739C"/>
<path d="M43.6999 0.766602H2.29993C1.4531 0.766602 0.766602 1.4531 0.766602 2.29993V11.4999C0.766602 12.3468 1.4531 13.0333 2.29993 13.0333H43.6999C44.5468 13.0333 45.2333 12.3468 45.2333 11.4999V2.29993C45.2333 1.4531 44.5468 0.766602 43.6999 0.766602Z" fill="#57739C"/>
<path d="M6.1335 9.2001C7.40375 9.2001 8.4335 8.17035 8.4335 6.9001C8.4335 5.62984 7.40375 4.6001 6.1335 4.6001C4.86324 4.6001 3.8335 5.62984 3.8335 6.9001C3.8335 8.17035 4.86324 9.2001 6.1335 9.2001Z" fill="#33E6BF"/>
<path d="M13.8 9.2001C15.0703 9.2001 16.1 8.17035 16.1 6.9001C16.1 5.62984 15.0703 4.6001 13.8 4.6001C12.5297 4.6001 11.5 5.62984 11.5 6.9001C11.5 8.17035 12.5297 9.2001 13.8 9.2001Z" fill="#33E6BF"/>
<path d="M32.1998 5.3667H21.4664C20.6196 5.3667 19.9331 6.0532 19.9331 6.90003C19.9331 7.74687 20.6196 8.43337 21.4664 8.43337H32.1998C33.0466 8.43337 33.7331 7.74687 33.7331 6.90003C33.7331 6.0532 33.0466 5.3667 32.1998 5.3667Z" fill="#324E77"/>
<path d="M6.1335 25.3002C7.40375 25.3002 8.4335 24.2705 8.4335 23.0002C8.4335 21.7299 7.40375 20.7002 6.1335 20.7002C4.86324 20.7002 3.8335 21.7299 3.8335 23.0002C3.8335 24.2705 4.86324 25.3002 6.1335 25.3002Z" fill="#33E6BF"/>
<path d="M13.8 25.3002C15.0703 25.3002 16.1 24.2705 16.1 23.0002C16.1 21.7299 15.0703 20.7002 13.8 20.7002C12.5297 20.7002 11.5 21.7299 11.5 23.0002C11.5 24.2705 12.5297 25.3002 13.8 25.3002Z" fill="#33E6BF"/>
<path d="M32.1998 21.4668H21.4664C20.6196 21.4668 19.9331 22.1533 19.9331 23.0001C19.9331 23.847 20.6196 24.5335 21.4664 24.5335H32.1998C33.0466 24.5335 33.7331 23.847 33.7331 23.0001C33.7331 22.1533 33.0466 21.4668 32.1998 21.4668Z" fill="#324E77"/>
<path d="M6.1335 41.3998C7.40375 41.3998 8.4335 40.3701 8.4335 39.0998C8.4335 37.8295 7.40375 36.7998 6.1335 36.7998C4.86324 36.7998 3.8335 37.8295 3.8335 39.0998C3.8335 40.3701 4.86324 41.3998 6.1335 41.3998Z" fill="#33E6BF"/>
<path d="M13.8 41.3998C15.0703 41.3998 16.1 40.3701 16.1 39.0998C16.1 37.8295 15.0703 36.7998 13.8 36.7998C12.5297 36.7998 11.5 37.8295 11.5 39.0998C11.5 40.3701 12.5297 41.3998 13.8 41.3998Z" fill="#33E6BF"/>
<path d="M32.1998 37.5669H21.4664C20.6196 37.5669 19.9331 38.2534 19.9331 39.1002C19.9331 39.9471 20.6196 40.6336 21.4664 40.6336H32.1998C33.0466 40.6336 33.7331 39.9471 33.7331 39.1002C33.7331 38.2534 33.0466 37.5669 32.1998 37.5669Z" fill="#324E77"/>
<path d="M38.3331 6.13343H37.5665C37.3631 6.13343 37.1681 6.05266 37.0244 5.90888C36.8806 5.7651 36.7998 5.5701 36.7998 5.36676C36.7998 5.16343 36.8806 4.96843 37.0244 4.82465C37.1681 4.68087 37.3631 4.6001 37.5665 4.6001H38.3331C38.5365 4.6001 38.7315 4.68087 38.8753 4.82465C39.019 4.96843 39.0998 5.16343 39.0998 5.36676C39.0998 5.5701 39.019 5.7651 38.8753 5.90888C38.7315 6.05266 38.5365 6.13343 38.3331 6.13343Z" fill="#324E77"/>
<path d="M42.1666 6.13343H41.4C41.1966 6.13343 41.0016 6.05266 40.8579 5.90888C40.7141 5.7651 40.6333 5.5701 40.6333 5.36676C40.6333 5.16343 40.7141 4.96843 40.8579 4.82465C41.0016 4.68087 41.1966 4.6001 41.4 4.6001H42.1666C42.37 4.6001 42.565 4.68087 42.7088 4.82465C42.8525 4.96843 42.9333 5.16343 42.9333 5.36676C42.9333 5.5701 42.8525 5.7651 42.7088 5.90888C42.565 6.05266 42.37 6.13343 42.1666 6.13343Z" fill="#324E77"/>
<path d="M38.3331 9.20033H37.5665C37.3631 9.20033 37.1681 9.11955 37.0244 8.97577C36.8806 8.832 36.7998 8.63699 36.7998 8.43366C36.7998 8.23033 36.8806 8.03532 37.0244 7.89154C37.1681 7.74777 37.3631 7.66699 37.5665 7.66699H38.3331C38.5365 7.66699 38.7315 7.74777 38.8753 7.89154C39.019 8.03532 39.0998 8.23033 39.0998 8.43366C39.0998 8.63699 39.019 8.832 38.8753 8.97577C38.7315 9.11955 38.5365 9.20033 38.3331 9.20033Z" fill="#324E77"/>
<path d="M42.1666 9.20033H41.4C41.1966 9.20033 41.0016 9.11955 40.8579 8.97577C40.7141 8.832 40.6333 8.63699 40.6333 8.43366C40.6333 8.23033 40.7141 8.03532 40.8579 7.89154C41.0016 7.74777 41.1966 7.66699 41.4 7.66699H42.1666C42.37 7.66699 42.565 7.74777 42.7088 7.89154C42.8525 8.03532 42.9333 8.23033 42.9333 8.43366C42.9333 8.63699 42.8525 8.832 42.7088 8.97577C42.565 9.11955 42.37 9.20033 42.1666 9.20033Z" fill="#324E77"/>
<path d="M38.3331 22.2335H37.5665C37.3631 22.2335 37.1681 22.1528 37.0244 22.009C36.8806 21.8652 36.7998 21.6702 36.7998 21.4669C36.7998 21.2635 36.8806 21.0685 37.0244 20.9247C37.1681 20.781 37.3631 20.7002 37.5665 20.7002H38.3331C38.5365 20.7002 38.7315 20.781 38.8753 20.9247C39.019 21.0685 39.0998 21.2635 39.0998 21.4669C39.0998 21.6702 39.019 21.8652 38.8753 22.009C38.7315 22.1528 38.5365 22.2335 38.3331 22.2335Z" fill="#324E77"/>
<path d="M42.1666 22.2335H41.4C41.1966 22.2335 41.0016 22.1528 40.8579 22.009C40.7141 21.8652 40.6333 21.6702 40.6333 21.4669C40.6333 21.2635 40.7141 21.0685 40.8579 20.9247C41.0016 20.781 41.1966 20.7002 41.4 20.7002H42.1666C42.37 20.7002 42.565 20.781 42.7088 20.9247C42.8525 21.0685 42.9333 21.2635 42.9333 21.4669C42.9333 21.6702 42.8525 21.8652 42.7088 22.009C42.565 22.1528 42.37 22.2335 42.1666 22.2335Z" fill="#324E77"/>
<path d="M38.3331 25.2999H37.5665C37.3631 25.2999 37.1681 25.2192 37.0244 25.0754C36.8806 24.9316 36.7998 24.7366 36.7998 24.5333C36.7998 24.3299 36.8806 24.1349 37.0244 23.9912C37.1681 23.8474 37.3631 23.7666 37.5665 23.7666H38.3331C38.5365 23.7666 38.7315 23.8474 38.8753 23.9912C39.019 24.1349 39.0998 24.3299 39.0998 24.5333C39.0998 24.7366 39.019 24.9316 38.8753 25.0754C38.7315 25.2192 38.5365 25.2999 38.3331 25.2999Z" fill="#324E77"/>
<path d="M42.1666 25.2999H41.4C41.1966 25.2999 41.0016 25.2192 40.8579 25.0754C40.7141 24.9316 40.6333 24.7366 40.6333 24.5333C40.6333 24.3299 40.7141 24.1349 40.8579 23.9912C41.0016 23.8474 41.1966 23.7666 41.4 23.7666H42.1666C42.37 23.7666 42.565 23.8474 42.7088 23.9912C42.8525 24.1349 42.9333 24.3299 42.9333 24.5333C42.9333 24.7366 42.8525 24.9316 42.7088 25.0754C42.565 25.2192 42.37 25.2999 42.1666 25.2999Z" fill="#324E77"/>
<path d="M38.3331 38.3336H37.5665C37.3631 38.3336 37.1681 38.2529 37.0244 38.1091C36.8806 37.9653 36.7998 37.7703 36.7998 37.567C36.7998 37.3636 36.8806 37.1686 37.0244 37.0248C37.1681 36.8811 37.3631 36.8003 37.5665 36.8003H38.3331C38.5365 36.8003 38.7315 36.8811 38.8753 37.0248C39.019 37.1686 39.0998 37.3636 39.0998 37.567C39.0998 37.7703 39.019 37.9653 38.8753 38.1091C38.7315 38.2529 38.5365 38.3336 38.3331 38.3336Z" fill="#324E77"/>
<path d="M42.1666 38.3336H41.4C41.1966 38.3336 41.0016 38.2529 40.8579 38.1091C40.7141 37.9653 40.6333 37.7703 40.6333 37.567C40.6333 37.3636 40.7141 37.1686 40.8579 37.0248C41.0016 36.8811 41.1966 36.8003 41.4 36.8003H42.1666C42.37 36.8003 42.565 36.8811 42.7088 37.0248C42.8525 37.1686 42.9333 37.3636 42.9333 37.567C42.9333 37.7703 42.8525 37.9653 42.7088 38.1091C42.565 38.2529 42.37 38.3336 42.1666 38.3336Z" fill="#324E77"/>
<path d="M38.3331 41.4H37.5665C37.3631 41.4 37.1681 41.3193 37.0244 41.1755C36.8806 41.0317 36.7998 40.8367 36.7998 40.6334C36.7998 40.43 36.8806 40.235 37.0244 40.0913C37.1681 39.9475 37.3631 39.8667 37.5665 39.8667H38.3331C38.5365 39.8667 38.7315 39.9475 38.8753 40.0913C39.019 40.235 39.0998 40.43 39.0998 40.6334C39.0998 40.8367 39.019 41.0317 38.8753 41.1755C38.7315 41.3193 38.5365 41.4 38.3331 41.4Z" fill="#324E77"/>
<path d="M42.1666 41.4H41.4C41.1966 41.4 41.0016 41.3193 40.8579 41.1755C40.7141 41.0317 40.6333 40.8367 40.6333 40.6334C40.6333 40.43 40.7141 40.235 40.8579 40.0913C41.0016 39.9475 41.1966 39.8667 41.4 39.8667H42.1666C42.37 39.8667 42.565 39.9475 42.7088 40.0913C42.8525 40.235 42.9333 40.43 42.9333 40.6334C42.9333 40.8367 42.8525 41.0317 42.7088 41.1755C42.565 41.3193 42.37 41.4 42.1666 41.4Z" fill="#324E77"/>
</g>
<defs>
<clipPath id="clip0_14980_9157">
<rect width="46" height="46" fill="white"/>
</clipPath>
</defs>
</svg>
