<svg width="24" height="24" viewBox="0 0 24 24" fill="none" xmlns="http://www.w3.org/2000/svg">
<g id="keyboard">
<path id="Vector" d="M18.0004 4.7998H6.00039C4.01523 4.7998 2.40039 6.41464 2.40039 8.3998V15.5998C2.40039 17.585 4.01523 19.1998 6.00039 19.1998H18.0004C19.9856 19.1998 21.6004 17.585 21.6004 15.5998V8.3998C21.6004 6.41464 19.9856 4.7998 18.0004 4.7998ZM14.4004 8.0998C14.4004 7.60276 14.8034 7.1998 15.3004 7.1998H15.9004C16.3974 7.1998 16.8004 7.60276 16.8004 8.0998V8.6998C16.8004 9.19684 16.3974 9.5998 15.9004 9.5998H15.3004C14.8034 9.5998 14.4004 9.19684 14.4004 8.6998V8.0998ZM14.1004 10.7998C14.5974 10.7998 15.0004 11.2028 15.0004 11.6998V12.2998C15.0004 12.7968 14.5974 13.1998 14.1004 13.1998H13.5004C13.0034 13.1998 12.6004 12.7968 12.6004 12.2998V11.6998C12.6004 11.2028 13.0034 10.7998 13.5004 10.7998H14.1004ZM10.8004 8.0998C10.8004 7.60276 11.2034 7.1998 11.7004 7.1998H12.3004C12.7974 7.1998 13.2004 7.60276 13.2004 8.0998V8.6998C13.2004 9.19684 12.7974 9.5998 12.3004 9.5998H11.7004C11.2034 9.5998 10.8004 9.19684 10.8004 8.6998V8.0998ZM10.5004 10.7998C10.9974 10.7998 11.4004 11.2028 11.4004 11.6998V12.2998C11.4004 12.7968 10.9974 13.1998 10.5004 13.1998H9.90039C9.40335 13.1998 9.00039 12.7968 9.00039 12.2998V11.6998C9.00039 11.2028 9.40335 10.7998 9.90039 10.7998H10.5004ZM7.20039 8.0998C7.20039 7.60276 7.60335 7.1998 8.10039 7.1998H8.70039C9.19743 7.1998 9.60039 7.60276 9.60039 8.0998V8.6998C9.60039 9.19684 9.19743 9.5998 8.70039 9.5998H8.10039C7.60335 9.5998 7.20039 9.19684 7.20039 8.6998V8.0998ZM6.30039 13.1998C5.80335 13.1998 5.40039 12.7968 5.40039 12.2998V11.6998C5.40039 11.2028 5.80335 10.7998 6.30039 10.7998H6.90039C7.39743 10.7998 7.80039 11.2028 7.80039 11.6998V12.2998C7.80039 12.7968 7.39743 13.1998 6.90039 13.1998H6.30039ZM15.6004 16.7998H8.40039C7.73775 16.7998 7.20039 16.2624 7.20039 15.5998C7.20039 14.9372 7.73775 14.3998 8.40039 14.3998H15.6004C16.263 14.3998 16.8004 14.9372 16.8004 15.5998C16.8004 16.2624 16.263 16.7998 15.6004 16.7998ZM18.6004 12.2998C18.6004 12.7968 18.1974 13.1998 17.7004 13.1998H17.1004C16.6034 13.1998 16.2004 12.7968 16.2004 12.2998V11.6998C16.2004 11.2028 16.6034 10.7998 17.1004 10.7998H17.7004C18.1974 10.7998 18.6004 11.2028 18.6004 11.6998V12.2998Z" fill="#F0F4FC"/>
</g>
</svg>
