<svg width="32" height="32" viewBox="0 0 32 32" fill="none" xmlns="http://www.w3.org/2000/svg">
<g clip-path="url(#clip0_48948_110005)">
<path d="M14.0387 22.8775C14.6807 25.248 16.9749 27.0573 18.1332 26.9854C18.1736 26.9854 22.5285 26.1683 24.9125 22.1771C26.7667 19.0703 26.1382 16.0713 23.615 16.0039C22.7171 16.0713 12.84 18.3609 14.0387 22.8775Z" fill="#0D3CA4"/>
<path d="M23.3765 7.64898C21.7885 6.29468 19.8496 5.41746 17.7839 5.11874C15.7183 4.82001 13.6103 5.11198 11.7036 5.96089C11.4618 6.06164 11.2264 6.17709 10.9987 6.30659C10.8461 6.38741 10.689 6.47271 10.5498 6.5625H10.5902C10.1374 6.87248 9.73847 7.25469 9.40943 7.69388C6.24427 11.8827 16.8846 14.9446 22.5819 14.9535C25.2038 16.8392 25.9401 9.64685 23.3765 7.64898Z" fill="#0D3CA4"/>
<path d="M12.3509 7.73517C10.8873 9.93956 6.01164 11.493 5.20801 11.2505L5.30678 11.0485C5.57947 10.5061 5.89316 9.98527 6.2451 9.4906C6.95968 8.52999 7.8148 7.68244 8.78172 6.97643C9.08033 6.75086 9.39054 6.54106 9.71107 6.34788C10.2027 6.06679 10.7566 5.9125 11.3228 5.89893C13.4958 5.93933 12.3599 7.69476 12.3509 7.69476" fill="#5494F8"/>
<path d="M11.1472 23.3137C11.255 24.0051 11.1472 26.7393 11.0036 26.9727C10.8824 26.9727 10.6309 26.9952 9.89464 26.5821C9.50888 26.3628 9.13704 26.1199 8.78123 25.8548C8.30317 25.5006 7.8529 25.1104 7.43435 24.6875C7.01034 24.27 6.62003 23.8197 6.26706 23.3406C5.54805 22.3653 4.98884 21.2817 4.6104 20.1306C4.41208 19.5452 4.26193 18.9446 4.16144 18.3347C3.95791 17.0784 3.95791 15.7974 4.16144 14.541C4.26296 13.9314 4.4131 13.3309 4.6104 12.7452C4.64632 12.6285 4.68672 12.5117 4.73162 12.395C5.57117 13.5174 6.52745 14.5321 7.37599 15.6634C8.22452 16.7948 9.24814 18.5009 9.46813 18.878C10.815 21.2081 11.0574 22.6492 11.1607 23.3406" fill="#5494F8"/>
<path d="M27.3456 16.4196C27.3472 17.8902 27.0715 19.3478 26.533 20.7162C25.1592 22.1933 15.8882 18.5522 15.7984 18.5118C14.5278 17.9551 10.6713 16.267 10.3211 13.6002C9.83622 9.77056 17.5718 7.10375 20.9794 7.00049C21.3879 7.00049 22.6316 7.00049 23.3544 7.61107C24.6104 8.70886 25.6166 10.0631 26.3051 11.5826C26.9936 13.1021 27.3484 14.7515 27.3456 16.4196Z" fill="#5494F8"/>
<path d="M21.0602 26.79C20.05 27.2659 18.9366 26.9202 19.2285 25.9325C19.7807 24.0424 24.616 22.0984 25.698 21.9951C25.8281 21.9951 25.8865 22.0714 25.8281 22.1747C24.7119 24.1367 23.0574 25.7382 21.0602 26.79Z" fill="#5494F8"/>
</g>
<defs>
<clipPath id="clip0_48948_110005">
<rect width="23.3459" height="22" fill="white" transform="translate(4 5)"/>
</clipPath>
</defs>
</svg>
