<svg width="24" height="24" viewBox="0 0 24 24" fill="none" xmlns="http://www.w3.org/2000/svg">
<g id="vault-2">
<path id="Vector" d="M8.40039 18V20.4" stroke="#F0F4FC" stroke-width="2" stroke-linecap="round" stroke-linejoin="round"/>
<path id="Vector_2" d="M15.5996 18V20.4" stroke="#F0F4FC" stroke-width="2" stroke-linecap="round" stroke-linejoin="round"/>
<path id="Vector_3" d="M16.7992 3.59961H7.19922C5.54236 3.59961 4.19922 4.94275 4.19922 6.59961V14.9996C4.19922 16.6565 5.54236 17.9996 7.19922 17.9996H16.7992C18.4561 17.9996 19.7992 16.6565 19.7992 14.9996V6.59961C19.7992 4.94275 18.4561 3.59961 16.7992 3.59961Z" stroke="#F0F4FC" stroke-width="2" stroke-linecap="round" stroke-linejoin="round"/>
<path id="Vector_4" d="M16.7992 3.59961H7.19922C5.54238 3.59961 4.19922 4.94277 4.19922 6.59961V14.9996C4.19922 16.6564 5.54238 17.9996 7.19922 17.9996H16.7992C18.4561 17.9996 19.7992 16.6564 19.7992 14.9996V6.59961C19.7992 4.94277 18.4561 3.59961 16.7992 3.59961ZM13.1992 12.9463V14.3996C13.1992 15.0622 12.6619 15.5996 11.9992 15.5996C11.3366 15.5996 10.7992 15.0622 10.7992 14.3996V12.9463C9.74046 12.4831 8.99922 11.4291 8.99922 10.1996C8.99922 8.54277 10.3424 7.19961 11.9992 7.19961C13.6561 7.19961 14.9992 8.54277 14.9992 10.1996C14.9992 11.4292 14.258 12.4831 13.1992 12.9463Z" fill="#F0F4FC"/>
</g>
</svg>
