<svg width="16" height="16" viewBox="0 0 16 16" fill="none" xmlns="http://www.w3.org/2000/svg">
<path d="M5.83301 5.83301H3.16634C2.42996 5.83301 1.83301 6.42996 1.83301 7.16634V12.833C1.83301 13.5694 2.42996 14.1663 3.16634 14.1663H8.83301C9.56941 14.1663 10.1663 13.5694 10.1663 12.833V10.1663" stroke="#C9D6E8" stroke-width="1.5" stroke-linecap="round" stroke-linejoin="round"/>
<path d="M5.83301 5.83301V6.66634V8.66634V8.83301C5.83301 9.56941 6.42996 10.1663 7.16634 10.1663H7.33301H9.33301H10.1663M5.83301 3.33301V3.16634C5.83301 2.42996 6.42996 1.83301 7.16634 1.83301H7.33301M12.6663 1.83301H12.833C13.5694 1.83301 14.1663 2.42996 14.1663 3.16634V3.33301M9.33301 1.83301H10.6663M14.1663 5.33301V6.66634M14.1663 8.66634V8.83301C14.1663 9.56941 13.5694 10.1663 12.833 10.1663H12.6663" stroke="#F0F4FC" stroke-width="1.5" stroke-linecap="round" stroke-linejoin="round"/>
</svg>
