<svg width="24" height="24" viewBox="0 0 24 24" fill="none" xmlns="http://www.w3.org/2000/svg">
<path d="M23.25 13.4258V17.1572C23.25 17.3495 23.1164 17.6917 22.5586 18.0146H22.5576L14.7705 22.5332L14.7656 22.5361C14.1924 22.8741 13.3862 23.0654 12.5381 23.0654C11.6902 23.0654 10.8846 22.874 10.3115 22.5361L10.3057 22.5322L2.48145 18.0137L2.46777 18.0059L2.26758 17.8848C1.84895 17.6 1.75391 17.3189 1.75391 17.1572V13.4258H23.25Z" fill="#061B3A" stroke="#4879FD" stroke-width="1.5"/>
<path d="M23.25 8.92578V12.6572C23.25 12.8495 23.1164 13.1917 22.5586 13.5146H22.5576L14.7705 18.0332L14.7656 18.0361C14.1924 18.3741 13.3862 18.5654 12.5381 18.5654C11.6902 18.5654 10.8846 18.374 10.3115 18.0361L10.3057 18.0322L2.48145 13.5137L2.46777 13.5059L2.26758 13.3848C1.84895 13.1 1.75391 12.8189 1.75391 12.6572V8.92578H23.25Z" fill="#061B3A" stroke="#4879FD" stroke-width="1.5"/>
<path d="M12.4521 2.25C13.289 2.25003 14.0866 2.44048 14.6611 2.7793L14.667 2.7832L22.4912 7.30176C23.0697 7.64475 23.1936 7.97979 23.1953 8.16406C23.1969 8.34812 23.0785 8.67999 22.5146 9.02148L14.7393 13.5342H14.7383L14.7344 13.5361C14.16 13.8748 13.3624 14.0664 12.5205 14.0664C11.6796 14.0664 10.8692 13.8754 10.2725 13.5322L2.44922 9.01465C1.86918 8.67072 1.75005 8.33721 1.75 8.1582C1.75 7.97907 1.86875 7.64412 2.4502 7.2998L2.45117 7.30078L10.2383 2.78223L10.2432 2.7793C10.8177 2.44051 11.6153 2.25 12.4521 2.25Z" fill="#061B3A" stroke="#4879FD" stroke-width="1.5"/>
</svg>
