<svg width="24" height="24" viewBox="0 0 24 24" fill="none" xmlns="http://www.w3.org/2000/svg">
<path id="Vector" d="M16.7996 3.59961H7.19961C5.21121 3.59961 3.59961 5.21121 3.59961 7.19961V9.59961H20.3996V7.19961C20.3996 5.21121 18.788 3.59961 16.7996 3.59961ZM7.19961 7.19961C6.53721 7.19961 5.99961 6.66201 5.99961 5.99961C5.99961 5.33721 6.53721 4.79961 7.19961 4.79961C7.86201 4.79961 8.39961 5.33721 8.39961 5.99961C8.39961 6.66201 7.86201 7.19961 7.19961 7.19961ZM10.7996 7.19961C10.1372 7.19961 9.59961 6.66201 9.59961 5.99961C9.59961 5.33721 10.1372 4.79961 10.7996 4.79961C11.462 4.79961 11.9996 5.33721 11.9996 5.99961C11.9996 6.66201 11.462 7.19961 10.7996 7.19961Z" fill="#F0F4FC"/>
<path id="Vector_2" d="M3.59961 7.20039L3.59961 16.8004C3.59961 18.7886 5.21138 20.4004 7.19961 20.4004H16.7996C18.7878 20.4004 20.3996 18.7886 20.3996 16.8004V7.20039C20.3996 5.21217 18.7878 3.60039 16.7996 3.60039H7.19961C5.21138 3.60039 3.59961 5.21217 3.59961 7.20039Z" stroke="#F0F4FC" stroke-width="2" stroke-linecap="round" stroke-linejoin="round"/>
</svg>
