<svg width="32" height="32" viewBox="0 0 32 32" fill="none" xmlns="http://www.w3.org/2000/svg">
<g clip-path="url(#clip0_48948_109680)">
<path d="M16.0004 26.993C22.0736 26.993 26.9969 22.0697 26.9969 15.9965C26.9969 9.92329 22.0736 5 16.0004 5C9.9272 5 5.00391 9.92329 5.00391 15.9965C5.00391 22.0697 9.9272 26.993 16.0004 26.993Z" fill="#0AC18E"/>
<path d="M21.1576 16.4542L21.1515 16.4429L21.1504 16.441C21.1467 16.4295 21.144 16.4176 21.1397 16.4052L21.1392 16.4042L21.1387 16.4033L21.1382 16.4023L21.1377 16.4013L21.1372 16.4004L21.1366 16.3994L21.1356 16.3975C21.0065 15.9659 20.7506 15.583 20.4011 15.2987L20.4006 15.2977C20.3903 15.2898 20.3794 15.281 20.369 15.2732L20.3547 15.2625L20.3444 15.2547L20.34 15.251L20.3301 15.244L20.3257 15.2403L20.3158 15.2334L20.3114 15.2297L20.301 15.2219L20.2956 15.2186L20.2853 15.2108L20.2799 15.2076L20.2688 15.2002L20.2634 15.1969L20.2568 15.187L20.2509 15.1829L20.2398 15.1754L20.2339 15.1713L20.2228 15.1639L20.2169 15.1597L20.2058 15.1523L20.1999 15.1482L20.1881 15.1399L20.1822 15.1357L20.1695 15.1279L20.1636 15.1238L20.1509 15.116L20.145 15.1118L20.1322 15.104L20.1263 15.0999L20.1136 15.092L20.1067 15.0883L20.094 15.0805L20.0872 15.0768L20.0734 15.0694L20.0666 15.0657L20.0524 15.0575L20.0455 15.0538L20.0313 15.0456L20.0244 15.0419L20.0102 15.0336L20.0028 15.029L19.9886 15.0208L19.9812 15.0162L19.966 15.0085L19.9586 15.0039L19.9435 14.9962L19.9332 14.9907L19.9327 14.9897C19.9253 14.9851 19.9176 14.982 19.9102 14.9774C19.5958 14.8158 19.2563 14.7085 18.9062 14.6601C19.0043 14.5546 19.0943 14.4416 19.1752 14.3223L19.188 14.3031L19.189 14.3026L19.195 14.2933L19.2028 14.2805L19.2069 14.2746L19.2147 14.2619L19.2189 14.256L19.2267 14.2433L19.2309 14.2374L19.2387 14.2246L19.2428 14.2187L19.2506 14.206L19.2548 14.2001L19.2616 14.1879L19.2658 14.182L19.2726 14.1697L19.2759 14.1643L19.2827 14.152L19.2859 14.1466L19.2928 14.1344L19.296 14.129L19.3019 14.1172L19.3051 14.1118L19.311 14.1001L19.3142 14.0947L19.3201 14.0829L19.3233 14.0775L19.3297 14.0667L19.3329 14.0613L19.3393 14.0506L19.3425 14.0452L19.348 14.0349L19.3512 14.0295L19.3567 14.0192L19.359 14.0143L19.3644 14.0041L19.3667 13.9992L19.3722 13.9889L19.3744 13.984L19.3799 13.9738L19.3822 13.9689L19.3867 13.9591L19.389 13.9542L19.3935 13.9444L19.3957 13.9396L19.4003 13.9298L19.4025 13.9249L19.4075 13.9138L19.4143 13.899C19.4192 13.8879 19.4232 13.877 19.4282 13.8656L19.4292 13.8651C19.5798 13.4937 19.6151 13.0855 19.5305 12.6938L19.53 12.6928L19.529 12.6909L19.5284 12.69L19.5279 12.689L19.5274 12.688L19.5269 12.6871L19.5264 12.6861L19.5259 12.6852C19.5236 12.674 19.5213 12.6632 19.5182 12.6526V12.6505L19.5176 12.6496L19.5171 12.6486L19.5125 12.6401C19.5092 12.6248 19.5058 12.6095 19.501 12.5937C19.4977 12.5784 19.4929 12.5627 19.4886 12.5479L19.483 12.5375L19.4819 12.5356C19.4787 12.5251 19.4755 12.5146 19.4723 12.5041L19.4718 12.5032L19.4713 12.5022L19.4707 12.5012L19.4702 12.5003L19.4697 12.4993L19.4692 12.4983L19.4687 12.4974C19.3541 12.1132 19.1264 11.7725 18.8153 11.5196L18.8149 11.5186C18.806 11.5112 18.7961 11.5043 18.7872 11.4969L18.775 11.4876L18.7651 11.4807L18.7607 11.477L18.7523 11.4705L18.7479 11.4668L18.7394 11.4603L18.735 11.4566L18.7257 11.4506L18.7212 11.4469L18.7114 11.44L18.707 11.4363L18.6971 11.4294L18.6927 11.4257L18.6828 11.4187L18.6774 11.4155L18.6676 11.4086L18.6622 11.4054L18.6523 11.3984L18.6469 11.3952L18.6361 11.3888L18.6307 11.3856L18.6199 11.3792L18.6145 11.376L18.6037 11.3696L18.5983 11.3663L18.5876 11.3599L18.5822 11.3567L18.5709 11.3493L18.5654 11.3461L18.5542 11.3387L18.5487 11.3354L18.5365 11.3286L18.5311 11.3254L18.5189 11.3185L18.513 11.3144L18.5007 11.3075L18.4948 11.3034L18.4826 11.2965L18.4767 11.2924L18.464 11.2846L18.4571 11.2809L18.444 11.2727L18.4372 11.269L18.4235 11.2616L18.4166 11.2579L18.4029 11.2505L18.3932 11.246L18.3926 11.245L18.3721 11.2339C17.7716 10.9218 17.0086 10.8279 16.241 11.0248L16.0414 11.076L15.5363 9.10938L14.366 9.40937L14.8693 11.3683L13.9329 11.6098L13.4292 9.65715L12.2589 9.95715L12.7622 11.916L10.3486 12.5371L10.6698 13.7853L11.6423 13.5355C11.7969 13.4956 11.9609 13.5188 12.0984 13.5999C12.2359 13.6811 12.3355 13.8135 12.3753 13.968L12.3756 13.9692L13.7255 19.2217C13.752 19.3249 13.7364 19.4343 13.6822 19.526C13.6281 19.6177 13.5397 19.6842 13.4366 19.7108L12.5845 19.93L12.6346 21.4145L15.0453 20.795L15.5552 22.7503L16.7249 22.4493L16.2212 20.4895L17.1574 20.2494L17.6613 22.2092L18.8311 21.9082L18.3255 19.9407C18.5237 19.8889 18.6943 19.8449 18.8122 19.8144C19.6773 19.5919 20.3768 19.0847 20.8001 18.4523L20.8144 18.4312L20.8153 18.4307L20.8223 18.4209L20.8314 18.406L20.836 18.3986L20.8452 18.3838L20.8498 18.3764L20.858 18.3622L20.8626 18.3548L20.8709 18.3406L20.8746 18.3337L20.8828 18.3195L20.8865 18.3126L20.8947 18.2984L20.8984 18.2916L20.9058 18.2779L20.9095 18.271L20.9169 18.2573L20.9206 18.2504L20.9284 18.2377L20.9322 18.2309L20.94 18.2181L20.9437 18.2113L20.9505 18.199L20.9542 18.1922L20.9611 18.1799L20.9648 18.1731L20.9716 18.1609L20.9743 18.1545L20.9812 18.1423L20.9839 18.136L20.9898 18.1242L20.993 18.1188L20.9989 18.1071L21.0021 18.1017L21.008 18.0899L21.0112 18.0845L21.0171 18.0728L21.0203 18.0674L21.0262 18.0556L21.0294 18.0502L21.0353 18.0385L21.0386 18.0331L21.0435 18.022L21.0467 18.0166L21.0517 18.0054L21.0539 18.0006L21.0593 17.9879L21.0667 17.9718C21.0722 17.9591 21.0779 17.9474 21.0825 17.9352L21.0829 17.9337C21.2523 17.516 21.2921 17.0569 21.1972 16.6162L21.1967 16.6152L21.1962 16.6143L21.1957 16.6133L21.1952 16.6123L21.1947 16.6114L21.1942 16.6104L21.1936 16.6094L21.1931 16.6085C21.1903 16.5965 21.1876 16.5846 21.1848 16.5726V16.5702L21.1843 16.5693L21.1838 16.5683L21.1833 16.5673L21.1827 16.5664L21.1822 16.5654L21.1817 16.5644L21.1812 16.5635L21.1807 16.5625L21.1802 16.5616L21.1796 16.5606L21.1791 16.5596L21.1786 16.5587L21.1781 16.5577L21.176 16.554C21.1717 16.5368 21.1683 16.5191 21.1629 16.5024C21.1602 16.4865 21.1585 16.4704 21.1576 16.4542ZM14.2813 12.9405C14.4809 12.8892 15.3065 12.6819 15.5787 12.6111C16.0115 12.5003 16.438 12.5433 16.7709 12.7037L16.782 12.7087L16.7869 12.7109L16.7938 12.7146L16.7972 12.7164L16.804 12.7202L16.8074 12.722L16.8143 12.7257L16.8177 12.7275L16.8246 12.7312L16.828 12.733L16.8348 12.7367L16.8382 12.7385L16.8451 12.7422L16.8485 12.744L16.8553 12.7477L16.8587 12.7496L16.8656 12.7533L16.869 12.7551L16.8759 12.7588L16.8793 12.7606L16.8852 12.7647L16.8886 12.7666L16.8944 12.7707L16.8979 12.7725L16.9037 12.7767L16.9072 12.7785L16.9126 12.7817L16.916 12.7835L16.9214 12.7867L16.9248 12.7886L16.9302 12.7918L16.9336 12.7936L16.939 12.7968L16.9424 12.7986L16.9478 12.8019L16.9503 12.8042L16.9557 12.8074L16.9577 12.8088L16.9631 12.812L16.965 12.8134L16.9704 12.8166L16.9724 12.818L16.9778 12.8212L16.9798 12.8226L16.9842 12.8263L16.9862 12.8276L16.9916 12.8309L16.999 12.8354C17.0044 12.8387 17.0093 12.8433 17.0147 12.8466C17.1852 12.9752 17.3104 13.1546 17.3724 13.359L17.374 13.3619C17.3756 13.3671 17.3777 13.3733 17.3793 13.3786L17.3798 13.3795L17.3829 13.3852C17.385 13.3938 17.3877 13.4009 17.3899 13.4095C17.3923 13.4183 17.3938 13.4273 17.3945 13.4363L17.3976 13.442L17.3981 13.443C17.3989 13.4488 17.4004 13.4546 17.4025 13.4602L17.404 13.463C17.4478 13.6719 17.4244 13.8892 17.3373 14.084L17.3297 14.1016L17.3256 14.1099L17.3224 14.1153L17.3215 14.1182L17.3192 14.1231L17.3183 14.126L17.3151 14.1314L17.3142 14.1344L17.311 14.1398L17.3101 14.1427L17.3069 14.1481L17.306 14.151L17.3028 14.1564L17.3019 14.1594L17.2987 14.1648L17.2978 14.1677L17.2946 14.1731L17.2927 14.1765L17.2895 14.1819L17.2877 14.1853L17.2845 14.1907L17.2827 14.1942L17.2795 14.1996L17.2777 14.203L17.2735 14.2089L17.2717 14.2123L17.2675 14.2182L17.2657 14.2216L17.2616 14.2274L17.2597 14.2309L17.2556 14.2367L17.2538 14.2402L17.2496 14.246L17.2478 14.2494L17.2437 14.2553L17.2419 14.2587L17.2377 14.2646L17.2359 14.268L17.2317 14.2739L17.2299 14.2773L17.2248 14.2837L17.223 14.2872L17.2179 14.2936L17.2161 14.297L17.211 14.3034L17.2092 14.3068L17.204 14.3132L17.2003 14.3176L17.1934 14.3275C16.9782 14.629 16.6255 14.8727 16.1927 14.9834C15.92 15.0533 15.0964 15.2692 14.8969 15.3205L14.2813 12.9405ZM18.8558 16.9673L18.8589 16.9729L18.8594 16.9739C18.8605 16.9806 18.8622 16.9859 18.8633 16.9924L18.8638 16.9934L18.8643 16.9943L18.8649 16.9953L18.8654 16.9963C18.9115 17.2266 18.8784 17.4658 18.7713 17.6749L18.7608 17.694L18.7557 17.7028L18.752 17.7097L18.7502 17.7131L18.747 17.7185L18.7452 17.7219L18.742 17.7273L18.7402 17.7307L18.736 17.7366L18.7342 17.74L18.73 17.7459L18.7282 17.7493L18.7241 17.7552L18.7223 17.7586L18.7181 17.7645L18.7163 17.7679L18.7122 17.7738L18.7103 17.7772L18.7062 17.7831L18.7044 17.7865L18.7002 17.7924L18.6984 17.7958L18.6943 17.8017L18.6924 17.8051L18.6883 17.811L18.6865 17.8144L18.6814 17.8208L18.6796 17.8242L18.6744 17.8306L18.6726 17.834L18.668 17.8414L18.6662 17.8448L18.6616 17.8522L18.6598 17.8556L18.6552 17.863L18.6524 17.867L18.6479 17.8744L18.6451 17.8783L18.6395 17.8862L18.6367 17.8901L18.6312 17.8979L18.6284 17.9019L18.6229 17.9097L18.6201 17.9136L18.6145 17.9215L18.6117 17.9254L18.6062 17.9333L18.6015 17.9382L18.5927 17.9491C18.3313 18.2829 17.9097 18.5574 17.3977 18.6889C17.0747 18.7722 16.099 19.0274 15.8616 19.088L15.1974 16.5034C15.4344 16.4418 16.4127 16.1962 16.7356 16.1128C17.2477 15.9814 17.7504 16.0187 18.139 16.1846L18.1516 16.19L18.158 16.1927L18.1672 16.1964L18.1716 16.1977L18.1799 16.2018L18.1843 16.2031L18.1926 16.2072L18.1969 16.2084L18.2052 16.2125L18.2086 16.2143L18.2169 16.2184L18.2203 16.2202L18.2286 16.2243L18.232 16.2261L18.2403 16.2302L18.2437 16.232L18.2506 16.2357L18.254 16.2375L18.2608 16.2412L18.2642 16.243L18.2711 16.2467L18.2745 16.2486L18.2813 16.2523L18.2847 16.2541L18.2916 16.2578L18.295 16.2596L18.3019 16.2633L18.3053 16.2651L18.3121 16.2688L18.3155 16.2706L18.3224 16.2743L18.3258 16.2762L18.3326 16.2799L18.336 16.2817L18.3419 16.2858L18.3453 16.2876L18.3512 16.2918L18.3546 16.2936L18.3605 16.2977L18.3639 16.2996L18.3698 16.3037L18.3732 16.3055L18.3791 16.3097L18.3825 16.3115L18.3879 16.3147L18.3913 16.3165L18.3972 16.3207L18.4051 16.3262C18.411 16.3304 18.4178 16.334 18.4236 16.3382C18.618 16.47 18.7622 16.6636 18.8329 16.8876L18.835 16.8913C18.8371 16.8974 18.8387 16.9027 18.8408 16.9089L18.8413 16.9099L18.8444 16.9155C18.8466 16.9241 18.8487 16.9327 18.8514 16.9423C18.8562 16.9444 18.857 16.9549 18.8555 16.968L18.8558 16.9673Z" fill="white"/>
</g>
<defs>
<clipPath id="clip0_48948_109680">
<rect width="22" height="22" fill="white" transform="translate(5 5)"/>
</clipPath>
</defs>
</svg>
