<svg width="18" height="18" viewBox="0 0 18 18" fill="none" xmlns="http://www.w3.org/2000/svg">
<g clip-path="url(#clip0_46656_44833)">
<path d="M8.95313 17.4736C10.1097 17.4736 11.1971 17.2523 12.2153 16.8096C13.2391 16.3669 14.1411 15.7554 14.9214 14.9751C15.7017 14.1948 16.3132 13.2956 16.7559 12.2773C17.1986 11.2536 17.4199 10.1634 17.4199 9.00684C17.4199 7.85026 17.1986 6.76286 16.7559 5.74463C16.3132 4.72087 15.7017 3.81885 14.9214 3.03857C14.1411 2.2583 13.2391 1.64681 12.2153 1.2041C11.1916 0.761393 10.1014 0.540039 8.94483 0.540039C7.78825 0.540039 6.69808 0.761393 5.67432 1.2041C4.65609 1.64681 3.75684 2.2583 2.97656 3.03857C2.20182 3.81885 1.5931 4.72087 1.15039 5.74463C0.707682 6.76286 0.486328 7.85026 0.486328 9.00684C0.486328 10.1634 0.707682 11.2536 1.15039 12.2773C1.5931 13.2956 2.20459 14.1948 2.98487 14.9751C3.76514 15.7554 4.66439 16.3669 5.68262 16.8096C6.70638 17.2523 7.79655 17.4736 8.95313 17.4736ZM6.16406 12.4932C5.97591 12.4932 5.81543 12.4268 5.68262 12.2939C5.54981 12.1556 5.4834 11.9924 5.4834 11.8042C5.4834 11.616 5.54981 11.4556 5.68262 11.3228L7.99024 9.01514L5.68262 6.71582C5.54981 6.57747 5.4834 6.41699 5.4834 6.23438C5.4834 6.04069 5.54981 5.88021 5.68262 5.75293C5.81543 5.62012 5.97591 5.55371 6.16406 5.55371C6.34668 5.55371 6.50716 5.61735 6.64551 5.74463L8.96143 8.05225L11.294 5.73633C11.4268 5.60352 11.5845 5.53711 11.7671 5.53711C11.9553 5.53711 12.1157 5.60352 12.2485 5.73633C12.3814 5.86914 12.4478 6.02962 12.4478 6.21777C12.4478 6.40592 12.3814 6.56917 12.2485 6.70752L9.93262 9.01514L12.2402 11.3145C12.3731 11.4362 12.4395 11.5994 12.4395 11.8042C12.4395 11.9924 12.3731 12.1556 12.2402 12.2939C12.1074 12.4268 11.9442 12.4932 11.7505 12.4932C11.5513 12.4932 11.388 12.4268 11.2608 12.2939L8.96143 9.98633L6.67041 12.2939C6.53207 12.4268 6.36328 12.4932 6.16406 12.4932Z" fill="#97ACBF"/>
</g>
<defs>
<clipPath id="clip0_46656_44833">
<rect width="18" height="18" fill="white"/>
</clipPath>
</defs>
</svg>
