<svg width="32" height="32" viewBox="0 0 32 32" fill="none" xmlns="http://www.w3.org/2000/svg">
<g clip-path="url(#clip0_48948_109914)">
<path d="M15.9999 25.8142C21.4175 25.8142 25.8093 21.4224 25.8093 16.0048C25.8093 10.5871 21.4175 6.19531 15.9999 6.19531C10.5823 6.19531 6.19043 10.5871 6.19043 16.0048C6.19043 21.4224 10.5823 25.8142 15.9999 25.8142Z" fill="white"/>
<path d="M16 5C13.8244 5 11.6977 5.64514 9.88873 6.85383C8.07979 8.06253 6.66989 9.7805 5.83733 11.7905C5.00477 13.8005 4.78693 16.0122 5.21137 18.146C5.6358 20.2798 6.68345 22.2398 8.22183 23.7782C9.76021 25.3166 11.7202 26.3642 13.854 26.7886C15.9878 27.2131 18.1995 26.9952 20.2095 26.1627C22.2195 25.3301 23.9375 23.9202 25.1462 22.1113C26.3549 20.3023 27 18.1756 27 16C27.0042 14.5597 26.7247 13.1326 26.1774 11.8003C25.63 10.468 24.8257 9.2565 23.8102 8.23505C22.7946 7.21361 21.5879 6.40218 20.2588 5.84711C18.9297 5.29204 17.5043 5.00419 16.0639 5H16ZM16.1864 16.3729L15.0412 20.2349H21.1671C21.2077 20.2334 21.2481 20.24 21.2861 20.2543C21.3242 20.2685 21.359 20.2901 21.3887 20.3178C21.4184 20.3455 21.4423 20.3788 21.4591 20.4157C21.476 20.4527 21.4853 20.4926 21.4867 20.5332V20.6344L20.954 22.4722C20.9305 22.5591 20.8782 22.6354 20.8056 22.6886C20.733 22.7419 20.6444 22.7689 20.5545 22.7651H11.1792L12.7506 17.4116L10.9927 17.9443L11.3923 16.7191L13.1501 16.1864L15.3608 8.67554C15.3851 8.58912 15.4377 8.51333 15.5101 8.46024C15.5825 8.40714 15.6706 8.3798 15.7603 8.38257H18.1308C18.1713 8.38114 18.2118 8.38773 18.2498 8.40196C18.2879 8.41618 18.3227 8.43776 18.3524 8.46547C18.3821 8.49317 18.406 8.52646 18.4228 8.56342C18.4396 8.60038 18.449 8.64029 18.4504 8.68087V8.78208L16.586 15.1211L18.3438 14.5884L17.971 15.8668L16.1864 16.3729Z" fill="#345D9D"/>
</g>
<defs>
<clipPath id="clip0_48948_109914">
<rect width="22" height="22" fill="white" transform="translate(5 5)"/>
</clipPath>
</defs>
</svg>
