<svg width="20" height="20" viewBox="0 0 20 20" fill="none" xmlns="http://www.w3.org/2000/svg">
<path d="M4.79175 11.25C5.13692 11.25 5.41675 10.9702 5.41675 10.625C5.41675 10.2798 5.13692 10 4.79175 10C4.44657 10 4.16675 10.2798 4.16675 10.625C4.16675 10.9702 4.44657 11.25 4.79175 11.25ZM4.79175 15C5.13692 15 5.41675 14.7202 5.41675 14.375C5.41675 14.0298 5.13692 13.75 4.79175 13.75C4.44657 13.75 4.16675 14.0298 4.16675 14.375C4.16675 14.7202 4.44657 15 4.79175 15ZM15.2086 11.25C15.5538 11.25 15.8336 10.9702 15.8336 10.625C15.8336 10.2798 15.5538 10 15.2086 10C14.8634 10 14.5836 10.2798 14.5836 10.625C14.5836 10.9702 14.8634 11.25 15.2086 11.25ZM15.2086 15C15.5538 15 15.8336 14.7202 15.8336 14.375C15.8336 14.0298 15.5538 13.75 15.2086 13.75C14.8634 13.75 14.5836 14.0298 14.5836 14.375C14.5836 14.7202 14.8634 15 15.2086 15ZM8.12508 11.25C8.47025 11.25 8.75008 10.9702 8.75008 10.625C8.75008 10.2798 8.47025 10 8.12508 10C7.77991 10 7.50008 10.2798 7.50008 10.625C7.50008 10.9702 7.77991 11.25 8.12508 11.25ZM11.8751 11.25C12.2202 11.25 12.5001 10.9702 12.5001 10.625C12.5001 10.2798 12.2202 10 11.8751 10C11.5299 10 11.2501 10.2798 11.2501 10.625C11.2501 10.9702 11.5299 11.25 11.8751 11.25Z" fill="#5CA7FF" stroke="#5CA7FF" stroke-width="0.5"/>
<path d="M8.12492 14.3748H11.8749M4.79159 7.2915V5.62484C4.79159 4.70436 5.53778 3.95817 6.45825 3.95817H13.9583C14.6486 3.95817 15.2083 3.39853 15.2083 2.70817V2.2915M3.12492 7.2915H16.8749C17.7954 7.2915 18.5416 8.0377 18.5416 8.95817V16.0415C18.5416 16.962 17.7954 17.7082 16.8749 17.7082H3.12492C2.20444 17.7082 1.45825 16.962 1.45825 16.0415V8.95817C1.45825 8.0377 2.20444 7.2915 3.12492 7.2915Z" stroke="#5CA7FF" stroke-width="1.5" stroke-linecap="round" stroke-linejoin="round"/>
</svg>
