<svg width="22" height="20" viewBox="0 0 22 20" fill="none" xmlns="http://www.w3.org/2000/svg">
<path d="M10.665 11.6934L2.2381 16.5711L1 15.333L8.38733 10.3691L10.665 11.6934Z" stroke="#F0F4FC"/>
<path d="M10.8555 12.0234L2.41785 16.8824L2.87102 18.5737L10.8635 14.658L10.8555 12.0234Z" stroke="#F0F4FC"/>
<path d="M11.1905 12.0233L19.6281 16.8824L19.1749 18.5737L11.1824 14.658L11.1905 12.0233Z" stroke="#F0F4FC"/>
<path d="M11.3809 11.6934L19.8078 16.5711L21.0459 15.333L13.6586 10.3691L11.3809 11.6934Z" stroke="#F0F4FC"/>
<path d="M11.1905 11.333L11.1797 1.59625L12.871 1.14307L13.4762 10.0226L11.1905 11.333Z" stroke="#F0F4FC"/>
<path d="M10.8095 11.333L10.8202 1.59625L9.12898 1.14307L8.52381 10.0226L10.8095 11.333Z" stroke="#F0F4FC"/>
</svg>
