<svg width="571" height="568" viewBox="0 0 571 568" fill="none" xmlns="http://www.w3.org/2000/svg">
<path d="M275.254 332.069L35.9434 470.586L0.783203 435.427L210.572 294.461L275.254 332.069Z" fill="url(#paint0_linear_6897_19921)"/>
<path d="M280.663 341.438L41.048 479.428L53.9171 527.457L280.891 416.258L280.663 341.438Z" fill="url(#paint1_linear_6897_19921)"/>
<path d="M290.176 341.437L529.791 479.427L516.922 527.457L289.947 416.258L290.176 341.437Z" fill="url(#paint2_linear_6897_19921)"/>
<path d="M295.585 332.068L534.895 470.586L570.055 435.426L360.267 294.46L295.585 332.068Z" fill="url(#paint3_linear_6897_19921)"/>
<path d="M290.176 321.832L289.872 45.3248L337.901 32.4551L355.087 284.62L290.176 321.832Z" fill="url(#paint4_linear_6897_19921)"/>
<path d="M279.358 321.832L279.662 45.3248L231.633 32.4551L214.447 284.62L279.358 321.832Z" fill="url(#paint5_linear_6897_19921)"/>
<path d="M275.254 332.069L35.9434 470.586L0.783203 435.427L210.572 294.461L275.254 332.069Z" stroke="url(#paint6_linear_6897_19921)"/>
<path d="M280.663 341.438L41.048 479.428L53.9171 527.457L280.891 416.258L280.663 341.438Z" stroke="url(#paint7_linear_6897_19921)"/>
<path d="M290.176 341.437L529.791 479.427L516.922 527.457L289.947 416.258L290.176 341.437Z" stroke="url(#paint8_linear_6897_19921)"/>
<path d="M295.585 332.068L534.895 470.586L570.055 435.426L360.267 294.46L295.585 332.068Z" stroke="url(#paint9_linear_6897_19921)"/>
<path d="M290.176 321.832L289.872 45.3248L337.901 32.4551L355.087 284.62L290.176 321.832Z" stroke="url(#paint10_linear_6897_19921)"/>
<path d="M279.358 321.832L279.662 45.3248L231.633 32.4551L214.447 284.62L279.358 321.832Z" stroke="url(#paint11_linear_6897_19921)"/>
<defs>
<linearGradient id="paint0_linear_6897_19921" x1="285.419" y1="32.4551" x2="285.419" y2="527.457" gradientUnits="userSpaceOnUse">
<stop stop-color="#33E6BF"/>
<stop offset="1" stop-color="#0439C7"/>
</linearGradient>
<linearGradient id="paint1_linear_6897_19921" x1="285.419" y1="32.4551" x2="285.419" y2="527.457" gradientUnits="userSpaceOnUse">
<stop stop-color="#33E6BF"/>
<stop offset="1" stop-color="#0439C7"/>
</linearGradient>
<linearGradient id="paint2_linear_6897_19921" x1="285.419" y1="32.4551" x2="285.419" y2="527.457" gradientUnits="userSpaceOnUse">
<stop stop-color="#33E6BF"/>
<stop offset="1" stop-color="#0439C7"/>
</linearGradient>
<linearGradient id="paint3_linear_6897_19921" x1="285.419" y1="32.4551" x2="285.419" y2="527.457" gradientUnits="userSpaceOnUse">
<stop stop-color="#33E6BF"/>
<stop offset="1" stop-color="#0439C7"/>
</linearGradient>
<linearGradient id="paint4_linear_6897_19921" x1="285.419" y1="32.4551" x2="285.419" y2="527.457" gradientUnits="userSpaceOnUse">
<stop stop-color="#33E6BF"/>
<stop offset="1" stop-color="#0439C7"/>
</linearGradient>
<linearGradient id="paint5_linear_6897_19921" x1="285.419" y1="32.4551" x2="285.419" y2="527.457" gradientUnits="userSpaceOnUse">
<stop stop-color="#33E6BF"/>
<stop offset="1" stop-color="#0439C7"/>
</linearGradient>
<linearGradient id="paint6_linear_6897_19921" x1="285.419" y1="32.4551" x2="285.419" y2="527.457" gradientUnits="userSpaceOnUse">
<stop stop-color="#33E6BF"/>
<stop offset="1" stop-color="#0439C7"/>
</linearGradient>
<linearGradient id="paint7_linear_6897_19921" x1="285.419" y1="32.4551" x2="285.419" y2="527.457" gradientUnits="userSpaceOnUse">
<stop stop-color="#33E6BF"/>
<stop offset="1" stop-color="#0439C7"/>
</linearGradient>
<linearGradient id="paint8_linear_6897_19921" x1="285.419" y1="32.4551" x2="285.419" y2="527.457" gradientUnits="userSpaceOnUse">
<stop stop-color="#33E6BF"/>
<stop offset="1" stop-color="#0439C7"/>
</linearGradient>
<linearGradient id="paint9_linear_6897_19921" x1="285.419" y1="32.4551" x2="285.419" y2="527.457" gradientUnits="userSpaceOnUse">
<stop stop-color="#33E6BF"/>
<stop offset="1" stop-color="#0439C7"/>
</linearGradient>
<linearGradient id="paint10_linear_6897_19921" x1="285.419" y1="32.4551" x2="285.419" y2="527.457" gradientUnits="userSpaceOnUse">
<stop stop-color="#33E6BF"/>
<stop offset="1" stop-color="#0439C7"/>
</linearGradient>
<linearGradient id="paint11_linear_6897_19921" x1="285.419" y1="32.4551" x2="285.419" y2="527.457" gradientUnits="userSpaceOnUse">
<stop stop-color="#33E6BF"/>
<stop offset="1" stop-color="#0439C7"/>
</linearGradient>
</defs>
</svg>
