<svg width="1050" height="1050" viewBox="0 0 1050 1050" fill="none" xmlns="http://www.w3.org/2000/svg">
<line x1="340.919" y1="637.98" x2="507.302" y2="231.655" stroke="#F7F8FB" stroke-width="2.34769" stroke-linecap="round" stroke-dasharray="4.7 4.7"/>
<line x1="711.498" y1="619.64" x2="511.851" y2="234.357" stroke="#F7F8FB" stroke-width="2.34769" stroke-linecap="round" stroke-dasharray="4.7 4.7"/>
<path d="M774.47 833.764C773.233 833.866 771.911 833.891 770.497 833.833C733.364 832.312 695.952 833.664 658.61 833.659C647.718 833.657 640.715 825.244 640.734 814.857C640.829 769.715 641.056 724.573 641.056 679.431C641.056 651.823 641.056 624.213 641.056 596.593C641.056 586.898 648.913 579.039 658.608 579.036C697.436 579.026 735.672 579.036 774.445 579.036C784.143 579.036 792.002 586.896 792.002 596.593C792.002 641.063 791.554 685.53 791.522 729.998C791.507 751.902 791.589 773.808 791.875 795.709C792.092 812.084 793.616 832.178 774.47 833.764Z" fill="#324E77"/>
<path d="M659.264 601.52C657.743 632.551 659.503 664.162 658.861 695.424C658.184 728.377 657.335 761.338 657.726 794.3C657.781 794.3 657.838 794.303 657.893 794.303C664.958 794.462 672.021 794.47 679.087 794.432C704.394 730.175 725.84 663.988 755.198 601.757C721.685 601.573 659.279 601.212 659.264 601.52Z" fill="#81F8DE"/>
<path d="M679.084 794.434C691.94 794.367 704.797 794.101 717.651 793.946C727.858 793.824 738.068 793.772 748.274 793.989C756.634 794.166 765.101 796.055 773.451 794.838C775.398 786.353 774.305 775.911 774.596 767.128C774.92 757.324 775.186 747.515 775.186 737.705C775.186 722.28 775.186 706.854 775.186 691.431C775.186 662.454 775.186 633.477 775.186 604.497C775.186 604.368 775.186 601.856 775.186 601.856C772.913 601.856 765.39 601.816 755.192 601.759C725.837 663.99 704.391 730.177 679.084 794.434Z" fill="#33E6BF"/>
<path d="M729.935 822.448H703.129C699.382 822.448 696.345 819.423 696.322 815.676C696.275 807.244 709.348 809.193 714.594 809.373C718.951 809.519 728.511 807.904 732.367 809.275C739.331 811.755 737.247 822.448 729.935 822.448Z" fill="#162A48"/>
<path d="M727.528 592.246C720.134 592.246 712.932 592.261 705.523 592.246C704.198 592.244 703.125 591.168 703.125 589.844C703.125 588.517 704.201 587.441 705.528 587.441H727.526C728.853 587.441 729.929 588.517 729.929 589.844C729.929 591.171 728.855 592.246 727.528 592.246Z" fill="#162A48"/>
<path d="M431.528 871.965C430.119 872.082 428.61 872.109 426.997 872.044C384.661 870.312 293.961 871.853 251.38 871.845C238.959 871.843 230.975 862.25 231 850.41C231.11 798.939 231.366 747.468 231.366 695.997C231.366 664.518 231.366 633.039 231.366 601.545C231.366 590.491 240.326 581.529 251.38 581.526C295.653 581.514 387.29 581.526 431.501 581.526C442.557 581.526 451.52 590.489 451.52 601.545C451.52 652.249 451.007 702.951 450.972 753.652C450.955 778.628 451.047 803.604 451.375 828.575C451.622 847.248 453.36 870.157 431.528 871.965Z" fill="#324E77"/>
<path d="M252.128 607.162C250.393 642.545 252.402 678.587 251.667 714.229C250.893 751.802 249.927 803.796 250.373 841.38C250.435 841.382 250.5 841.382 250.562 841.385C257.416 841.539 264.27 841.569 271.124 841.554C305.6 762.438 343.978 684.662 383.2 607.354C329.685 607.139 252.143 606.853 252.128 607.162Z" fill="#81F8DE"/>
<path d="M271.125 841.556C286.984 841.521 302.846 841.168 318.705 840.979C330.344 840.839 390.025 840.777 401.662 841.026C411.195 841.228 420.849 843.381 430.37 841.994C432.591 832.322 431.343 806.002 431.674 795.988C432.045 784.81 432.349 773.626 432.349 762.441C432.349 744.854 432.349 727.264 432.349 709.678C432.349 676.638 432.349 643.598 432.349 610.558C432.349 610.411 432.349 607.548 432.349 607.548C428.764 607.548 408.71 607.461 383.201 607.356C343.979 684.664 305.602 762.441 271.125 841.556Z" fill="#33E6BF"/>
<path d="M353.805 596.591C345.372 596.591 337.161 596.608 328.714 596.591C327.205 596.589 325.98 595.364 325.98 593.852C325.98 592.339 327.208 591.114 328.719 591.114H353.802C355.316 591.114 356.541 592.339 356.541 593.852C356.541 595.366 355.316 596.591 353.805 596.591Z" fill="#162A48"/>
<path d="M351.674 856.967C351.674 862.715 347.013 867.376 341.265 867.376C335.516 867.376 330.855 862.715 330.855 856.967C330.855 851.218 335.516 846.558 341.265 846.558C347.013 846.558 351.674 851.218 351.674 856.967Z" fill="#162A48"/>
<path d="M319.032 409.502C318.875 407.625 318.838 405.618 318.925 403.472C321.23 347.121 319.181 261.998 319.191 205.326C319.194 188.795 331.963 178.167 347.723 178.199C416.23 178.344 484.74 178.687 553.247 178.687C595.145 178.687 637.044 178.687 678.962 178.687C693.675 178.687 705.603 190.613 705.606 205.324C705.621 264.251 705.606 350.622 705.606 409.467C705.606 424.183 693.675 436.111 678.962 436.111C611.475 436.111 543.993 435.429 476.507 435.382C443.265 435.357 410.023 435.481 376.784 435.919C351.933 436.245 321.439 438.558 319.032 409.502Z" fill="#36537D"/>
<path d="M283.469 482.187C283.285 482.03 283.24 481.863 283.344 481.687C286.076 477.001 283.646 469.923 283.661 465.21C283.663 463.836 298.783 462.952 317.442 462.955C398.557 462.967 479.677 462.994 560.795 462.994C610.406 462.994 660.014 462.994 709.648 462.994C727.068 462.994 741.192 463.985 741.197 465.21C741.214 470.11 741.197 477.292 741.197 482.187C741.197 483.412 727.073 484.403 709.648 484.403C629.74 484.403 549.835 484.346 469.93 484.343C430.569 484.341 391.208 484.351 351.852 484.388C322.424 484.41 286.32 484.604 283.469 482.187Z" fill="#162A48"/>
<path d="M283.435 463.617C283.281 463.418 283.241 463.206 283.33 462.979C285.636 457.024 319.184 444.265 319.194 438.275C319.196 436.527 331.966 435.404 347.725 435.407C416.23 435.422 484.742 435.459 553.25 435.459C595.148 435.459 637.046 435.459 678.964 435.459C693.678 435.459 705.606 436.719 705.608 438.275C705.623 444.504 741.205 457.395 741.205 463.614C741.205 465.17 729.277 466.43 714.561 466.43C647.074 466.43 543.993 466.358 476.509 466.353C443.267 466.35 374.426 466.363 341.187 466.41C316.336 466.443 285.842 466.687 283.435 463.617Z" fill="#162A48"/>
<path d="M714.56 461.09C679.165 461.09 633.978 461.07 589.272 461.052C548.74 461.033 508.6 461.015 476.508 461.015H465.987C430.346 461.015 371.222 461.03 341.179 461.072L327.879 461.09C321.396 461.09 305.575 461.09 295.312 460.465C297.914 458.976 300.767 457.44 303.105 456.18C314.361 450.118 321.068 446.341 323.495 442.099C326.891 441.457 335.289 440.752 347.655 440.752L422.518 440.774C466.097 440.789 509.673 440.804 553.249 440.804H678.961C690.057 440.804 698.004 441.519 701.33 442.156C703.718 446.276 710.151 449.891 720.884 455.655C723.431 457.022 726.817 458.842 729.777 460.577C725.823 460.871 720.67 461.09 714.56 461.09Z" fill="#36537D"/>
<path d="M699.109 454.731C666.423 454.731 624.689 454.713 583.401 454.696C545.969 454.679 508.898 454.664 479.259 454.661H469.542C436.626 454.661 382.024 454.676 354.279 454.713L341.995 454.728C336.008 454.728 321.396 454.728 311.918 454.168C314.32 452.831 316.954 451.454 319.115 450.327C329.51 444.889 335.704 441.501 337.947 437.697C341.084 437.119 348.839 436.489 360.259 436.489L429.399 436.509C469.644 436.522 509.889 436.537 550.134 436.537H666.233C676.481 436.537 683.82 437.176 686.892 437.749C689.098 441.444 695.039 444.685 704.952 449.856C707.305 451.084 710.432 452.714 713.166 454.27C709.511 454.537 704.751 454.731 699.109 454.731Z" fill="#162A48"/>
<path d="M530.552 205.71C475.947 204.681 400.384 203.394 345.763 203.984C345.761 204.069 340.421 204.153 340.418 204.238C339.674 234.47 340.617 229.105 341.013 259.334C341.215 274.824 341.305 354.261 340.946 369.749C340.652 382.437 337.523 395.288 339.537 407.958C353.593 410.913 397.185 409.252 411.739 409.696C422.011 410.007 432.286 410.271 442.561 410.43C480.806 340.352 521.373 271.575 566.256 205.896C554.336 205.953 542.428 205.934 530.552 205.71Z" fill="#81F8DE"/>
<path d="M566.254 205.896C521.371 271.578 480.804 340.351 442.559 410.43C448.536 410.524 454.511 410.592 460.489 410.592C486.05 410.592 511.609 410.592 537.17 410.592C585.188 410.592 633.203 410.592 681.22 410.592C681.434 410.592 685.597 410.592 685.597 410.592C685.597 395.811 686.817 206.349 686.152 206.319C646.522 204.542 606.322 205.709 566.254 205.896Z" fill="#33E6BF"/>
<path d="M705.596 447.877H319.119V450.327H705.596V447.877Z" fill="#36537D"/>
<path d="M696.395 441.073H332.121V443.523H696.395V441.073Z" fill="#36537D"/>
<path d="M433.926 98.6C430.646 98.6 427.506 98.14 424.506 97.22C421.506 96.26 419.126 95.04 417.366 93.56L420.066 87.5C421.746 88.82 423.826 89.92 426.306 90.8C428.786 91.68 431.326 92.12 433.926 92.12C436.126 92.12 437.906 91.88 439.266 91.4C440.626 90.92 441.626 90.28 442.266 89.48C442.906 88.64 443.226 87.7 443.226 86.66C443.226 85.38 442.766 84.36 441.846 83.6C440.926 82.8 439.726 82.18 438.246 81.74C436.806 81.26 435.186 80.82 433.386 80.42C431.626 80.02 429.846 79.56 428.046 79.04C426.286 78.48 424.666 77.78 423.186 76.94C421.746 76.06 420.566 74.9 419.646 73.46C418.726 72.02 418.266 70.18 418.266 67.94C418.266 65.66 418.866 63.58 420.066 61.7C421.306 59.78 423.166 58.26 425.646 57.14C428.166 55.98 431.346 55.4 435.186 55.4C437.706 55.4 440.206 55.72 442.686 56.36C445.166 57 447.326 57.92 449.166 59.12L446.706 65.18C444.826 64.06 442.886 63.24 440.886 62.72C438.886 62.16 436.966 61.88 435.126 61.88C432.966 61.88 431.206 62.14 429.846 62.66C428.526 63.18 427.546 63.86 426.906 64.7C426.306 65.54 426.006 66.5 426.006 67.58C426.006 68.86 426.446 69.9 427.326 70.7C428.246 71.46 429.426 72.06 430.866 72.5C432.346 72.94 433.986 73.38 435.786 73.82C437.586 74.22 439.366 74.68 441.126 75.2C442.926 75.72 444.546 76.4 445.986 77.24C447.466 78.08 448.646 79.22 449.526 80.66C450.446 82.1 450.906 83.92 450.906 86.12C450.906 88.36 450.286 90.44 449.046 92.36C447.846 94.24 445.986 95.76 443.466 96.92C440.946 98.04 437.766 98.6 433.926 98.6ZM466.574 98V62.6H452.654V56H488.294V62.6H474.374V98H466.574ZM486.098 98L504.998 56H512.678L531.638 98H523.478L507.218 60.14H510.338L494.138 98H486.098ZM494.798 88.28L496.898 82.16H519.578L521.678 88.28H494.798ZM536.98 98V56H554.26C557.98 56 561.16 56.6 563.8 57.8C566.48 59 568.54 60.72 569.98 62.96C571.42 65.2 572.14 67.86 572.14 70.94C572.14 74.02 571.42 76.68 569.98 78.92C568.54 81.12 566.48 82.82 563.8 84.02C561.16 85.18 557.98 85.76 554.26 85.76H541.3L544.78 82.22V98H536.98ZM564.46 98L553.84 82.76H562.18L572.86 98H564.46ZM544.78 83.06L541.3 79.34H553.9C557.34 79.34 559.92 78.6 561.64 77.12C563.4 75.64 564.28 73.58 564.28 70.94C564.28 68.26 563.4 66.2 561.64 64.76C559.92 63.32 557.34 62.6 553.9 62.6H541.3L544.78 58.76V83.06ZM588.801 98V62.6H574.881V56H610.521V62.6H596.601V98H588.801Z" fill="white"/>
<path d="M264.226 941V899H281.506C285.226 899 288.406 899.6 291.046 900.8C293.726 902 295.786 903.72 297.226 905.96C298.666 908.2 299.386 910.86 299.386 913.94C299.386 917.02 298.666 919.68 297.226 921.92C295.786 924.16 293.726 925.88 291.046 927.08C288.406 928.28 285.226 928.88 281.506 928.88H268.546L272.026 925.22V941H264.226ZM272.026 926.06L268.546 922.28H281.146C284.586 922.28 287.166 921.56 288.886 920.12C290.646 918.64 291.526 916.58 291.526 913.94C291.526 911.26 290.646 909.2 288.886 907.76C287.166 906.32 284.586 905.6 281.146 905.6H268.546L272.026 901.76V926.06ZM299.126 941L318.026 899H325.706L344.666 941H336.506L320.246 903.14H323.366L307.166 941H299.126ZM307.826 931.28L309.926 925.16H332.606L334.706 931.28H307.826ZM350.007 941V899H357.807V941H350.007ZM369.167 941V899H386.447C390.167 899 393.347 899.6 395.987 900.8C398.667 902 400.727 903.72 402.167 905.96C403.607 908.2 404.327 910.86 404.327 913.94C404.327 917.02 403.607 919.68 402.167 921.92C400.727 924.12 398.667 925.82 395.987 927.02C393.347 928.18 390.167 928.76 386.447 928.76H373.487L376.967 925.22V941H369.167ZM396.647 941L386.027 925.76H394.367L405.047 941H396.647ZM376.967 926.06L373.487 922.34H386.087C389.527 922.34 392.107 921.6 393.827 920.12C395.587 918.64 396.467 916.58 396.467 913.94C396.467 911.26 395.587 909.2 393.827 907.76C392.107 906.32 389.527 905.6 386.087 905.6H373.487L376.967 901.76V926.06Z" fill="white"/>
<path d="M648.226 905V863H665.506C669.226 863 672.406 863.6 675.046 864.8C677.726 866 679.786 867.72 681.226 869.96C682.666 872.2 683.386 874.86 683.386 877.94C683.386 881.02 682.666 883.68 681.226 885.92C679.786 888.16 677.726 889.88 675.046 891.08C672.406 892.28 669.226 892.88 665.506 892.88H652.546L656.026 889.22V905H648.226ZM656.026 890.06L652.546 886.28H665.146C668.586 886.28 671.166 885.56 672.886 884.12C674.646 882.64 675.526 880.58 675.526 877.94C675.526 875.26 674.646 873.2 672.886 871.76C671.166 870.32 668.586 869.6 665.146 869.6H652.546L656.026 865.76V890.06ZM683.126 905L702.026 863H709.706L728.666 905H720.506L704.246 867.14H707.366L691.166 905H683.126ZM691.826 895.28L693.926 889.16H716.606L718.706 895.28H691.826ZM734.007 905V863H741.807V905H734.007ZM753.167 905V863H770.447C774.167 863 777.347 863.6 779.987 864.8C782.667 866 784.727 867.72 786.167 869.96C787.607 872.2 788.327 874.86 788.327 877.94C788.327 881.02 787.607 883.68 786.167 885.92C784.727 888.12 782.667 889.82 779.987 891.02C777.347 892.18 774.167 892.76 770.447 892.76H757.487L760.967 889.22V905H753.167ZM780.647 905L770.027 889.76H778.367L789.047 905H780.647ZM760.967 890.06L757.487 886.34H770.087C773.527 886.34 776.107 885.6 777.827 884.12C779.587 882.64 780.467 880.58 780.467 877.94C780.467 875.26 779.587 873.2 777.827 871.76C776.107 870.32 773.527 869.6 770.087 869.6H757.487L760.967 865.76V890.06Z" fill="white"/>
</svg>
