<svg width="259" height="362" viewBox="0 0 259 362" fill="none" xmlns="http://www.w3.org/2000/svg">
<line x1="56.2111" y1="226.386" x2="121.565" y2="66.7832" stroke="#F7F8FB" stroke-width="2.34769" stroke-linecap="round" stroke-dasharray="4.7 4.7"/>
<line x1="202.401" y1="219.744" x2="123.988" y2="68.4211" stroke="#F7F8FB" stroke-width="2.34769" stroke-linecap="round" stroke-dasharray="4.7 4.7"/>
<path d="M228.295 304.845C227.805 304.886 227.281 304.895 226.721 304.873C212.016 304.27 197.2 304.806 182.411 304.804C178.098 304.803 175.324 301.471 175.332 297.358C175.37 279.48 175.459 261.603 175.459 243.726C175.459 232.792 175.459 221.858 175.459 210.92C175.459 207.081 178.571 203.968 182.41 203.967C197.787 203.963 212.93 203.967 228.285 203.967C232.125 203.967 235.238 207.08 235.238 210.92C235.238 228.531 235.06 246.141 235.048 263.751C235.042 272.426 235.074 281.101 235.188 289.775C235.273 296.259 235.877 304.217 228.295 304.845Z" fill="#324E77"/>
<path d="M182.67 212.871C182.068 225.16 182.765 237.679 182.51 250.06C182.242 263.11 181.906 276.163 182.061 289.217C182.082 289.217 182.105 289.218 182.127 289.218C184.925 289.281 187.722 289.284 190.52 289.269C200.542 263.822 209.035 237.61 220.662 212.965C207.39 212.892 182.676 212.749 182.67 212.871Z" fill="#81F8DE"/>
<path d="M190.52 289.27C195.611 289.244 200.703 289.138 205.793 289.077C209.835 289.029 213.879 289.008 217.92 289.094C221.231 289.164 224.584 289.912 227.891 289.43C228.662 286.07 228.229 281.935 228.345 278.456C228.473 274.573 228.578 270.689 228.578 266.804C228.578 260.695 228.578 254.586 228.578 248.478C228.578 237.003 228.578 225.527 228.578 214.05C228.578 213.999 228.578 213.004 228.578 213.004C227.678 213.004 224.699 212.989 220.66 212.966C209.035 237.611 200.542 263.823 190.52 289.27Z" fill="#33E6BF"/>
<path d="M210.657 300.364H200.041C198.557 300.364 197.354 299.166 197.346 297.682C197.327 294.343 202.504 295.115 204.581 295.186C206.307 295.244 210.093 294.604 211.62 295.147C214.378 296.129 213.553 300.364 210.657 300.364Z" fill="#162A48"/>
<path d="M209.705 209.199C206.776 209.199 203.924 209.204 200.99 209.199C200.465 209.198 200.04 208.772 200.04 208.247C200.04 207.722 200.466 207.296 200.992 207.296H209.704C210.229 207.296 210.655 207.722 210.655 208.247C210.655 208.773 210.23 209.199 209.705 209.199Z" fill="#162A48"/>
<path d="M92.4824 319.974C91.9243 320.02 91.3268 320.031 90.6879 320.006C73.9217 319.319 38.0023 319.93 21.1394 319.927C16.2205 319.926 13.0585 316.127 13.0684 311.438C13.1118 291.054 13.2133 270.67 13.2133 250.287C13.2133 237.82 13.2133 225.354 13.2133 212.881C13.2133 208.504 16.7618 204.954 21.1394 204.953C38.6727 204.948 74.9629 204.953 92.4715 204.953C96.8502 204.953 100.4 208.503 100.4 212.881C100.4 232.961 100.196 253.04 100.183 273.119C100.176 283.011 100.212 292.902 100.342 302.791C100.44 310.186 101.128 319.258 92.4824 319.974Z" fill="#324E77"/>
<path d="M21.4361 215.106C20.7489 229.118 21.5445 243.392 21.2537 257.507C20.9471 272.387 20.5645 292.977 20.741 307.861C20.7656 307.862 20.7913 307.862 20.8159 307.863C23.5303 307.925 26.2446 307.936 28.9589 307.931C42.6125 276.599 57.811 245.797 73.3438 215.181C52.1507 215.097 21.442 214.983 21.4361 215.106Z" fill="#81F8DE"/>
<path d="M28.959 307.932C35.2395 307.918 41.5211 307.778 47.8016 307.703C52.411 307.648 76.0464 307.623 80.6547 307.722C84.43 307.801 88.2535 308.654 92.0238 308.105C92.9033 304.275 92.4093 293.851 92.5405 289.886C92.6874 285.459 92.8077 281.03 92.8077 276.6C92.8077 269.635 92.8077 262.669 92.8077 255.704C92.8077 242.62 92.8077 229.535 92.8077 216.45C92.8077 216.392 92.8077 215.258 92.8077 215.258C91.3879 215.258 83.446 215.224 73.3439 215.182C57.8111 245.798 42.6125 276.6 28.959 307.932Z" fill="#33E6BF"/>
<path d="M61.7017 210.919C58.3622 210.919 55.1106 210.926 51.7652 210.919C51.1677 210.918 50.6826 210.433 50.6826 209.835C50.6826 209.235 51.1687 208.75 51.7672 208.75H61.7007C62.3002 208.75 62.7852 209.235 62.7852 209.835C62.7852 210.434 62.3002 210.919 61.7017 210.919Z" fill="#162A48"/>
<path d="M60.8569 314.035C60.8569 316.311 59.0112 318.157 56.7346 318.157C54.458 318.157 52.6123 316.311 52.6123 314.035C52.6123 311.758 54.458 309.912 56.7346 309.912C59.0112 309.912 60.8569 311.758 60.8569 314.035Z" fill="#162A48"/>
<path d="M85.1618 146.338L62.0295 133.596V74.6702L85.1618 87.4118V146.338Z" fill="#0439C7"/>
<path d="M82.7211 142.008L64.4692 131.955V78.9999L82.7211 89.0532V142.008Z" fill="#042271"/>
<path d="M81.8565 140.121L65.3342 131.02V80.8872L81.8565 89.9879V140.121Z" fill="#0439C7"/>
<path d="M80.763 94.0973L66.428 86.2016V84.2721L80.763 92.1681V94.0973Z" fill="#042271"/>
<path d="M81.8565 115.055L65.3342 105.954V104.389L81.8565 113.489V115.055Z" fill="#042271"/>
<path d="M81.8565 118.939L65.3342 109.839V108.273L81.8565 117.374V118.939Z" fill="#042271"/>
<path d="M81.8565 122.824L65.3342 113.723V112.158L81.8565 121.258V122.824Z" fill="#042271"/>
<path d="M81.8565 138.372L65.3342 129.272V127.707L81.8565 136.807V138.372Z" fill="#042271"/>
<path d="M75.2722 125.412C75.2722 127.178 74.5214 128.195 73.5956 127.685C72.6694 127.175 71.9189 125.331 71.9189 123.565C71.9189 121.799 72.6694 120.782 73.5956 121.292C74.5214 121.802 75.2722 123.647 75.2722 125.412Z" fill="#042271"/>
<path d="M137.194 58.7414L85.1325 87.418L62 74.6763L114.062 46L137.194 58.7414Z" fill="#4879FD"/>
<path d="M137.225 117.661L85.1616 146.338V87.412L137.225 58.7349V117.661Z" fill="#042271"/>
<path d="M100.191 130.349L98.5283 131.265V117.282L100.191 116.366V130.349Z" fill="#0439C7"/>
<path d="M104.925 127.742L103.262 128.658V114.675L104.925 113.759V127.742Z" fill="#0439C7"/>
<path d="M109.658 125.135L107.995 126.051V112.067L109.658 111.151V125.135Z" fill="#0439C7"/>
<path d="M114.392 122.528L112.729 123.444V109.46L114.392 108.544V122.528Z" fill="#0439C7"/>
<path d="M119.125 119.92L117.462 120.836V106.853L119.125 105.937V119.92Z" fill="#0439C7"/>
<path d="M123.859 117.313L122.196 118.229V104.246L123.859 103.33V117.313Z" fill="#0439C7"/>
<path d="M112.289 162.327L89.1565 149.585V90.6589L112.289 103.401V162.327Z" fill="#0439C7"/>
<path d="M109.849 157.997L91.5967 147.943V94.9883L109.849 105.042V157.997Z" fill="#042271"/>
<path d="M108.984 156.11L92.4617 147.009V96.8761L108.984 105.977V156.11Z" fill="#0439C7"/>
<path d="M107.89 110.085L93.5549 102.189V100.26L107.89 108.156V110.085Z" fill="#042271"/>
<path d="M108.984 131.043L92.4617 121.942V120.377L108.984 129.478V131.043Z" fill="#042271"/>
<path d="M108.984 134.928L92.4617 125.827V124.262L108.984 133.362V134.928Z" fill="#042271"/>
<path d="M108.984 138.812L92.4617 129.711V128.146L108.984 137.247V138.812Z" fill="#042271"/>
<path d="M108.984 154.361L92.4617 145.26V143.695L108.984 152.796V154.361Z" fill="#042271"/>
<path d="M102.399 141.401C102.399 143.167 101.649 144.184 100.723 143.674C99.7969 143.164 99.0461 141.319 99.0461 139.554C99.0461 137.788 99.7969 136.771 100.723 137.281C101.649 137.791 102.399 139.635 102.399 141.401Z" fill="#042271"/>
<path d="M164.321 74.7303L112.259 103.407L89.1267 90.6652L141.189 61.9886L164.321 74.7303Z" fill="#4879FD"/>
<path d="M164.352 133.65L112.289 162.327V103.401L164.352 74.7235V133.65Z" fill="#042271"/>
<path d="M127.319 146.338L125.655 147.254V133.27L127.319 132.354V146.338Z" fill="#0439C7"/>
<path d="M132.052 143.731L130.388 144.647V130.663L132.052 129.747V143.731Z" fill="#0439C7"/>
<path d="M136.785 141.124L135.122 142.04V128.056L136.785 127.14V141.124Z" fill="#0439C7"/>
<path d="M141.519 138.516L139.855 139.432V125.449L141.519 124.533V138.516Z" fill="#0439C7"/>
<path d="M146.252 135.909L144.589 136.825V122.841L146.252 121.926V135.909Z" fill="#0439C7"/>
<path d="M150.985 133.302L149.322 134.218V120.234L150.985 119.318V133.302Z" fill="#0439C7"/>
<path d="M139.415 178.315L116.283 165.574V106.648L139.415 119.39V178.315Z" fill="#0439C7"/>
<path d="M136.975 173.986L118.723 163.933V110.978L136.975 121.031V173.986Z" fill="#042271"/>
<path d="M136.11 172.099L119.588 162.998V112.865L136.11 121.966V172.099Z" fill="#0439C7"/>
<path d="M135.017 126.075L120.682 118.179V116.25L135.017 124.146V126.075Z" fill="#042271"/>
<path d="M136.11 147.032L119.588 137.931V136.366L136.11 145.467V147.032Z" fill="#042271"/>
<path d="M136.11 150.917L119.588 141.816V140.251L136.11 149.352V150.917Z" fill="#042271"/>
<path d="M136.11 154.801L119.588 145.7V144.135L136.11 153.236V154.801Z" fill="#042271"/>
<path d="M136.11 170.35L119.588 161.249V159.684L136.11 168.785V170.35Z" fill="#042271"/>
<path d="M129.526 157.39C129.526 159.156 128.775 160.173 127.849 159.663C126.923 159.153 126.173 157.308 126.173 155.543C126.173 153.777 126.923 152.76 127.849 153.27C128.775 153.78 129.526 155.624 129.526 157.39Z" fill="#042271"/>
<path d="M191.448 90.719L139.386 119.396L116.253 106.654L168.315 77.9777L191.448 90.719Z" fill="#4879FD"/>
<path d="M191.479 149.638L139.415 178.315V119.389L191.479 90.7123V149.638Z" fill="#042271"/>
<path d="M154.445 162.326L152.782 163.242V149.259L154.445 148.343V162.326Z" fill="#0439C7"/>
<path d="M159.179 159.719L157.516 160.635V146.652L159.179 145.736V159.719Z" fill="#0439C7"/>
<path d="M163.912 157.112L162.249 158.028V144.045L163.912 143.128V157.112Z" fill="#0439C7"/>
<path d="M168.645 154.505L166.982 155.421V141.437L168.645 140.521V154.505Z" fill="#0439C7"/>
<path d="M173.379 151.898L171.716 152.814V138.83L173.379 137.914V151.898Z" fill="#0439C7"/>
<path d="M178.113 149.29L176.449 150.206V136.222L178.113 135.307V149.29Z" fill="#0439C7"/>
<path d="M66.1057 59.2842L69.9909 57.1301C84.6766 65.219 96.8594 59.3915 97.5008 59.0849L93.6156 61.239C92.9746 61.5453 80.7917 67.3731 66.1057 59.2842Z" fill="#A6FBE8"/>
<path d="M121.058 89.5569L120.714 92.0024L114.898 133.287L93.3709 141.294L83.8343 127.187L80.3338 121.993L76.7919 116.76L71.9822 109.647L71.4175 104.809L66.1116 59.2899C80.789 67.3759 92.9718 61.5513 93.6196 61.2358C93.9642 61.788 97.6993 67.7046 103.404 74.3051C105.941 77.2501 108.862 80.3269 112.059 83.114C113.644 84.4948 115.298 85.8095 117.007 87.0062C118.33 87.9397 119.68 88.7942 121.058 89.5569Z" fill="#33E6BF"/>
<path d="M93.6119 66.1125C94.17 66.9973 104.775 83.8119 117.635 90.8955L112.237 129.171L93.4036 136.174L74.673 108.479L69.5356 64.4019C82.3882 71.4813 93.0507 66.381 93.6119 66.1125Z" fill="#A6FBE8"/>
<path d="M93.6096 69.4846C94.1126 70.2823 103.671 85.4377 115.262 91.8221L110.398 126.321L93.4219 132.633L76.5393 107.671L71.9089 67.943C83.4932 74.3238 93.1035 69.7266 93.6096 69.4846Z" fill="#33E6BF"/>
<path d="M93.6157 61.2391L97.5009 59.085C98.1386 60.0961 110.256 79.3086 124.95 87.4025L121.065 89.5566C106.371 81.4624 94.2537 62.2502 93.6157 61.2391Z" fill="#A6FBE8"/>
<path d="M121.065 89.5563L124.95 87.4022L118.783 131.136L114.897 133.29L121.065 89.5563Z" fill="#A6FBE8"/>
<g opacity="0.3">
<path d="M112.059 83.1142L76.7919 116.76L71.9821 109.647L71.4175 104.809L103.404 74.3052C105.94 77.2502 108.862 80.327 112.059 83.1142Z" fill="white"/>
<path d="M121.058 89.5572L120.714 92.0027L83.8346 127.187L80.3337 121.993L117.006 87.0065C118.33 87.94 119.68 88.7945 121.058 89.5572Z" fill="white"/>
</g>
<path d="M64.8482 23.2L58.7282 9.19995H61.5482L67.0082 21.86H65.3882L70.9082 9.19995H73.5082L67.4082 23.2H64.8482ZM81.2985 23.4C79.3785 23.4 77.8718 22.86 76.7785 21.78C75.6985 20.7 75.1585 19.14 75.1585 17.1V9.19995H77.7585V17C77.7585 18.44 78.0652 19.4866 78.6785 20.14C79.3052 20.7933 80.1852 21.12 81.3185 21.12C82.4518 21.12 83.3252 20.7933 83.9385 20.14C84.5518 19.4866 84.8585 18.44 84.8585 17V9.19995H87.4185V17.1C87.4185 19.14 86.8718 20.7 85.7785 21.78C84.6985 22.86 83.2052 23.4 81.2985 23.4ZM91.0597 23.2V9.19995H93.6597V21H100.98V23.2H91.0597ZM104.564 23.2V11.4H99.9238V9.19995H111.804V11.4H107.164V23.2H104.564ZM113.755 23.2V9.19995H116.355V23.2H113.755ZM124.482 23.4C123.388 23.4 122.342 23.2466 121.342 22.94C120.342 22.62 119.548 22.2133 118.962 21.72L119.862 19.7C120.422 20.14 121.115 20.5066 121.942 20.8C122.768 21.0933 123.615 21.24 124.482 21.24C125.215 21.24 125.808 21.16 126.262 21C126.715 20.84 127.048 20.6266 127.262 20.36C127.475 20.08 127.582 19.7666 127.582 19.42C127.582 18.9933 127.428 18.6533 127.122 18.4C126.815 18.1333 126.415 17.9266 125.922 17.78C125.442 17.62 124.902 17.4733 124.302 17.34C123.715 17.2066 123.122 17.0533 122.522 16.88C121.935 16.6933 121.395 16.46 120.902 16.18C120.422 15.8866 120.028 15.5 119.722 15.02C119.415 14.54 119.262 13.9266 119.262 13.18C119.262 12.42 119.462 11.7266 119.862 11.1C120.275 10.46 120.895 9.95328 121.722 9.57995C122.562 9.19328 123.622 8.99995 124.902 8.99995C125.742 8.99995 126.575 9.10662 127.402 9.31995C128.228 9.53328 128.948 9.83995 129.562 10.24L128.742 12.26C128.115 11.8866 127.468 11.6133 126.802 11.44C126.135 11.2533 125.495 11.16 124.882 11.16C124.162 11.16 123.575 11.2466 123.122 11.42C122.682 11.5933 122.355 11.82 122.142 12.1C121.942 12.38 121.842 12.7 121.842 13.06C121.842 13.4866 121.988 13.8333 122.282 14.1C122.588 14.3533 122.982 14.5533 123.462 14.7C123.955 14.8466 124.502 14.9933 125.102 15.14C125.702 15.2733 126.295 15.4266 126.882 15.6C127.482 15.7733 128.022 16 128.502 16.28C128.995 16.56 129.388 16.94 129.682 17.42C129.988 17.9 130.142 18.5066 130.142 19.24C130.142 19.9866 129.935 20.68 129.522 21.32C129.122 21.9466 128.502 22.4533 127.662 22.84C126.822 23.2133 125.762 23.4 124.482 23.4ZM135.12 15.02H142.08V17.16H135.12V15.02ZM135.32 21.02H143.22V23.2H132.72V9.19995H142.94V11.38H135.32V21.02ZM146.118 23.2V9.19995H151.878C153.118 9.19995 154.178 9.39995 155.058 9.79995C155.952 10.2 156.638 10.7733 157.118 11.52C157.598 12.2666 157.838 13.1533 157.838 14.18C157.838 15.2066 157.598 16.0933 157.118 16.84C156.638 17.5733 155.952 18.14 155.058 18.54C154.178 18.9266 153.118 19.12 151.878 19.12H147.558L148.718 17.94V23.2H146.118ZM155.278 23.2L151.738 18.12H154.518L158.078 23.2H155.278ZM148.718 18.22L147.558 16.98H151.758C152.905 16.98 153.765 16.7333 154.338 16.24C154.925 15.7466 155.218 15.06 155.218 14.18C155.218 13.2866 154.925 12.6 154.338 12.12C153.765 11.64 152.905 11.4 151.758 11.4H147.558L148.718 10.12V18.22ZM164.887 23.2L158.767 9.19995H161.587L167.047 21.86H165.427L170.947 9.19995H173.547L167.447 23.2H164.887ZM177.425 15.02H184.385V17.16H177.425V15.02ZM177.625 21.02H185.525V23.2H175.025V9.19995H185.245V11.38H177.625V21.02ZM188.423 23.2V9.19995H194.183C195.423 9.19995 196.483 9.39995 197.363 9.79995C198.256 10.2 198.943 10.7733 199.423 11.52C199.903 12.2666 200.143 13.1533 200.143 14.18C200.143 15.2066 199.903 16.0933 199.423 16.84C198.943 17.5733 198.256 18.14 197.363 18.54C196.483 18.9266 195.423 19.12 194.183 19.12H189.863L191.023 17.94V23.2H188.423ZM197.583 23.2L194.043 18.12H196.823L200.383 23.2H197.583ZM191.023 18.22L189.863 16.98H194.063C195.21 16.98 196.07 16.7333 196.643 16.24C197.23 15.7466 197.523 15.06 197.523 14.18C197.523 13.2866 197.23 12.6 196.643 12.12C196.07 11.64 195.21 11.4 194.063 11.4H189.863L191.023 10.12V18.22Z" fill="white"/>
<path d="M36.1661 348.72V343.18L36.7461 344.78L30.6661 334.72H33.4461L38.3261 342.82H36.7661L41.6861 334.72H44.2461L38.1661 344.78L38.7661 343.18V348.72H36.1661ZM51.9033 348.92C50.8099 348.92 49.8033 348.74 48.8833 348.38C47.9633 348.02 47.1633 347.52 46.4833 346.88C45.8033 346.227 45.2766 345.467 44.9033 344.6C44.5299 343.72 44.3433 342.76 44.3433 341.72C44.3433 340.68 44.5299 339.727 44.9033 338.86C45.2766 337.98 45.8033 337.22 46.4833 336.58C47.1633 335.927 47.9633 335.42 48.8833 335.06C49.8033 334.7 50.8033 334.52 51.8833 334.52C52.9766 334.52 53.9766 334.7 54.8833 335.06C55.8033 335.42 56.6033 335.927 57.2833 336.58C57.9633 337.22 58.4899 337.98 58.8633 338.86C59.2366 339.727 59.4233 340.68 59.4233 341.72C59.4233 342.76 59.2366 343.72 58.8633 344.6C58.4899 345.48 57.9633 346.24 57.2833 346.88C56.6033 347.52 55.8033 348.02 54.8833 348.38C53.9766 348.74 52.9833 348.92 51.9033 348.92ZM51.8833 346.64C52.5899 346.64 53.2433 346.52 53.8433 346.28C54.4433 346.04 54.9633 345.7 55.4033 345.26C55.8433 344.807 56.1833 344.287 56.4233 343.7C56.6766 343.1 56.8033 342.44 56.8033 341.72C56.8033 341 56.6766 340.347 56.4233 339.76C56.1833 339.16 55.8433 338.64 55.4033 338.2C54.9633 337.747 54.4433 337.4 53.8433 337.16C53.2433 336.92 52.5899 336.8 51.8833 336.8C51.1766 336.8 50.5233 336.92 49.9233 337.16C49.3366 337.4 48.8166 337.747 48.3633 338.2C47.9233 338.64 47.5766 339.16 47.3233 339.76C47.0833 340.347 46.9633 341 46.9633 341.72C46.9633 342.427 47.0833 343.08 47.3233 343.68C47.5766 344.28 47.9233 344.807 48.3633 345.26C48.8033 345.7 49.3233 346.04 49.9233 346.28C50.5233 346.52 51.1766 346.64 51.8833 346.64ZM68.1992 348.92C66.2792 348.92 64.7725 348.38 63.6792 347.3C62.5992 346.22 62.0592 344.66 62.0592 342.62V334.72H64.6592V342.52C64.6592 343.96 64.9659 345.007 65.5792 345.66C66.2059 346.313 67.0859 346.64 68.2192 346.64C69.3525 346.64 70.2259 346.313 70.8392 345.66C71.4525 345.007 71.7592 343.96 71.7592 342.52V334.72H74.3192V342.62C74.3192 344.66 73.7725 346.22 72.6792 347.3C71.5992 348.38 70.1059 348.92 68.1992 348.92Z" fill="white"/>
<path d="M182.612 338.028V324.028H188.372C189.612 324.028 190.672 324.228 191.552 324.628C192.445 325.028 193.132 325.601 193.612 326.348C194.092 327.094 194.332 327.981 194.332 329.008C194.332 330.034 194.092 330.921 193.612 331.668C193.132 332.414 192.445 332.988 191.552 333.388C190.672 333.788 189.612 333.988 188.372 333.988H184.052L185.212 332.768V338.028H182.612ZM185.212 333.048L184.052 331.788H188.252C189.399 331.788 190.259 331.548 190.832 331.068C191.419 330.574 191.712 329.888 191.712 329.008C191.712 328.114 191.419 327.428 190.832 326.948C190.259 326.468 189.399 326.228 188.252 326.228H184.052L185.212 324.948V333.048ZM194.245 338.028L200.545 324.028H203.105L209.425 338.028H206.705L201.285 325.408H202.325L196.925 338.028H194.245ZM197.145 334.788L197.845 332.748H205.405L206.105 334.788H197.145ZM211.206 338.028V324.028H213.806V338.028H211.206ZM217.593 338.028V324.028H223.353C224.593 324.028 225.653 324.228 226.533 324.628C227.426 325.028 228.113 325.601 228.593 326.348C229.073 327.094 229.313 327.981 229.313 329.008C229.313 330.034 229.073 330.921 228.593 331.668C228.113 332.401 227.426 332.968 226.533 333.368C225.653 333.754 224.593 333.948 223.353 333.948H219.033L220.193 332.768V338.028H217.593ZM226.753 338.028L223.213 332.948H225.993L229.553 338.028H226.753ZM220.193 333.048L219.033 331.808H223.233C224.379 331.808 225.239 331.561 225.813 331.068C226.399 330.574 226.693 329.888 226.693 329.008C226.693 328.114 226.399 327.428 225.813 326.948C225.239 326.468 224.379 326.228 223.233 326.228H219.033L220.193 324.948V333.048Z" fill="white"/>
</svg>
