<svg width="24" height="19" viewBox="0 0 24 19" fill="none" xmlns="http://www.w3.org/2000/svg">
<g clip-path="url(#clip0_49019_123660)">
<path d="M4.37425 14.1648C4.51285 14.0262 4.70342 13.9453 4.90553 13.9453H23.2347C23.5696 13.9453 23.7371 14.3495 23.5003 14.5863L19.8795 18.2071C19.741 18.3457 19.5504 18.4265 19.3483 18.4265H1.0191C0.684166 18.4265 0.516697 18.0223 0.753463 17.7855L4.37425 14.1648Z" fill="#02122B"/>
<path d="M4.37425 0.656942C4.51862 0.518347 4.70919 0.4375 4.90553 0.4375H23.2347C23.5696 0.4375 23.7371 0.841735 23.5003 1.0785L19.8795 4.69929C19.741 4.83789 19.5504 4.91873 19.3483 4.91873H1.0191C0.684166 4.91873 0.516697 4.5145 0.753463 4.27773L4.37425 0.656942Z" fill="#02122B"/>
<path d="M19.8795 7.36788C19.741 7.22928 19.5504 7.14844 19.3483 7.14844H1.0191C0.684166 7.14844 0.516697 7.55267 0.753463 7.78944L4.37425 11.4102C4.51285 11.5488 4.70342 11.6297 4.90553 11.6297H23.2347C23.5696 11.6297 23.7371 11.2254 23.5003 10.9887L19.8795 7.36788Z" fill="#02122B"/>
</g>
<defs>
<clipPath id="clip0_49019_123660">
<rect width="23.3524" height="18" fill="white" transform="translate(0.449219 0.4375)"/>
</clipPath>
</defs>
</svg>
