<svg width="20" height="20" viewBox="0 0 20 20" fill="none" xmlns="http://www.w3.org/2000/svg">
<g clip-path="url(#clip0_49019_123798)">
<path d="M18.6623 12.3325C18.6641 13.1641 18.5009 13.9878 18.1824 14.756C17.865 15.5242 17.3988 16.2221 16.8106 16.8095C16.2229 17.3978 15.5246 17.864 14.7559 18.1812C13.9896 18.4994 13.168 18.6629 12.3382 18.6624H12.3076C10.9724 18.6624 9.64706 18.2271 8.57294 17.4359C7.77673 16.8447 7.12975 16.0756 6.68363 15.1899C6.23751 14.3042 6.00462 13.3265 6.00353 12.3348V7.66785C6.00314 7.44913 6.04609 7.23251 6.12989 7.03049C6.21369 6.82846 6.33668 6.64504 6.49177 6.49081C6.64614 6.33626 6.82949 6.21368 7.0313 6.13007C7.23312 6.04647 7.44944 6.0035 7.66789 6.00361C7.88634 6.00372 8.10262 6.04691 8.30435 6.13071C8.50608 6.21451 8.68931 6.33728 8.84353 6.49199C9.15706 6.8061 9.33059 7.22374 9.33177 7.66726V12.3331C9.33101 12.7275 9.40857 13.1181 9.55993 13.4823C9.71129 13.8465 9.93345 14.1771 10.2135 14.4548C10.6329 14.8739 11.1676 15.1585 11.7494 15.2724C12.3324 15.3883 12.9318 15.3289 13.4818 15.1018C14.0299 14.8753 14.4984 14.491 14.8276 13.9977C15.1594 13.5036 15.3353 12.9283 15.3365 12.3331V3.00146C15.336 2.78293 15.3788 2.56648 15.4624 2.36457C15.546 2.16266 15.6688 1.97928 15.8235 1.82501C16.017 1.63175 16.255 1.48915 16.5167 1.40983C16.7784 1.33051 17.0556 1.31691 17.3238 1.37025C17.592 1.42358 17.8429 1.5422 18.0543 1.7156C18.2657 1.88901 18.4311 2.11185 18.5359 2.36441C18.62 2.56735 18.6623 2.78205 18.6623 3.00146V12.3325ZM5.54647 5.54436C5.26676 5.82252 5.04492 6.15334 4.89378 6.51771C4.74264 6.88208 4.66518 7.27279 4.66588 7.66726V16.9983C4.66643 17.2169 4.62362 17.4334 4.53991 17.6353C4.45621 17.8373 4.33328 18.0206 4.17824 18.1747C3.55 18.8041 2.45353 18.8041 1.82471 18.1747C1.66985 18.0205 1.54708 17.8371 1.46349 17.6352C1.37989 17.4333 1.33712 17.2168 1.33765 16.9983V7.66785C1.33895 6.15037 1.88502 4.6838 2.87647 3.53498C3.46158 2.85796 4.18352 2.31261 4.9947 1.93486C5.80589 1.55712 6.68791 1.35554 7.58266 1.34343C8.47741 1.33131 9.36457 1.50893 10.1857 1.86457C11.0068 2.22022 11.7432 2.74582 12.3465 3.40675L12.3559 3.39557L12.3647 3.4291C12.99 4.11995 13.4548 4.9405 13.7259 5.832L13.7518 5.91729C13.9171 6.48669 14.0006 7.07551 14.0012 7.66726V12.3325C14.0008 12.6613 13.9032 12.9826 13.7205 13.2561C13.5378 13.5295 13.2783 13.7427 12.9747 13.8689C12.7765 13.9513 12.5671 13.9901 12.3559 13.9924V13.9954C12.3476 13.9954 12.34 13.993 12.3318 13.993C12.2259 13.993 12.1194 13.986 12.0135 13.9648C11.9528 13.952 11.8929 13.9355 11.8341 13.9154V13.9072C11.7941 13.8942 11.7529 13.8877 11.7141 13.8719C11.4104 13.7456 11.1508 13.5323 10.9682 13.2588C10.7855 12.9852 10.6879 12.6637 10.6876 12.3348V8.10961H10.6865V7.66667C10.6857 7.07105 10.508 6.48909 10.1757 5.99473C9.84351 5.50037 9.37181 5.11593 8.82059 4.89025C8.45589 4.73724 8.06371 4.66056 7.66824 4.66496C7.274 4.66437 6.88354 4.74182 6.51938 4.89285C6.15522 5.04388 5.82457 5.26492 5.54647 5.54436ZM19.1194 0.880909C18.8414 0.601639 18.511 0.380113 18.147 0.229087C17.7831 0.0780614 17.3929 0.000518677 16.9988 0.000924127H16.9976C16.6037 0.00109197 16.2138 0.0791327 15.8501 0.230558C15.4865 0.381982 15.1564 0.603803 14.8788 0.883262C14.6002 1.16123 14.3793 1.4915 14.2286 1.85511C14.078 2.21871 14.0007 2.60849 14.0012 3.00205V3.3391C13.0457 1.944 11.6564 0.903377 10.0489 0.378791C8.44137 -0.145795 6.70565 -0.12499 5.11118 0.437975C3.61582 0.965523 2.32168 1.94531 1.40824 3.24146C0.490832 4.5348 -0.0013351 6.08159 2.72015e-06 7.66726V16.9983C2.72015e-06 17.8 0.312356 18.5535 0.879414 19.1206C1.15741 19.4003 1.48815 19.622 1.85246 19.773C2.21677 19.9239 2.60742 20.0011 3.00177 20C3.3961 20.001 3.78672 19.9238 4.15102 19.7728C4.51532 19.6219 4.84606 19.4002 5.12412 19.1206C5.40376 18.8426 5.62548 18.5118 5.77643 18.1475C5.92738 17.7832 6.00457 17.3926 6.00353 16.9983V16.6636C6.9595 18.0572 8.34849 19.0967 9.95523 19.6208C11.562 20.1448 13.2967 20.1243 14.8906 19.5623C16.3856 19.0347 17.6793 18.0549 18.5924 16.7589C19.5091 15.4661 20.001 13.9202 20 12.3354V3.00087C20.0003 2.60681 19.9226 2.21658 19.7715 1.85264C19.6204 1.48871 19.3988 1.15826 19.1194 0.880321V0.880909Z" fill="#02122B"/>
</g>
<defs>
<clipPath id="clip0_49019_123798">
<rect width="19.9997" height="20" fill="white"/>
</clipPath>
</defs>
</svg>
