<svg width="24" height="24" viewBox="0 0 24 24" fill="none" xmlns="http://www.w3.org/2000/svg">
<path id="Vector" d="M16.8004 2.40039H7.20039C4.55319 2.40039 2.40039 4.55319 2.40039 7.20039V16.8004C2.40039 19.4476 4.55319 21.6004 7.20039 21.6004H16.8004C19.4476 21.6004 21.6004 19.4476 21.6004 16.8004V7.20039C21.6004 4.55319 19.4476 2.40039 16.8004 2.40039ZM12.0004 18.6004C11.1724 18.6004 10.5004 17.9284 10.5004 17.1004C10.5004 16.2724 11.1724 15.6004 12.0004 15.6004C12.8284 15.6004 13.5004 16.2724 13.5004 17.1004C13.5004 17.9284 12.8284 18.6004 12.0004 18.6004ZM14.002 12.4564C13.4428 12.8536 13.2556 13.0168 13.18 13.4224C13.072 13.9984 12.568 14.4004 12.0016 14.4004C11.9284 14.4004 11.854 14.3932 11.7796 14.3788C11.128 14.2564 10.6996 13.63 10.8208 12.9784C11.0824 11.5864 12.0028 10.9324 12.6112 10.4992C13.2268 10.0624 13.372 9.93879 13.372 9.40479C13.372 8.47359 12.6028 8.40039 12.3676 8.40039C11.182 8.40039 10.8952 9.18759 10.8016 9.44679C10.5748 10.0708 9.88359 10.39 9.26319 10.1644C8.64039 9.93879 8.31879 9.24879 8.54559 8.62719C9.14439 6.98319 10.5724 6.00159 12.3676 6.00159C14.0176 6.00159 15.772 7.19439 15.772 9.40599C15.772 11.1988 14.7064 11.9548 14.002 12.4564Z" fill="#F0F4FC"/>
</svg>
