<svg width="32" height="15" viewBox="0 0 32 15" fill="none" xmlns="http://www.w3.org/2000/svg">
<g clip-path="url(#clip0_49019_123718)">
<path d="M26.9206 6.81417V0.855814C26.9206 0.505324 26.6401 0.219969 26.2879 0.212215C25.9263 0.204461 25.5631 0.210664 25.2077 0.230825C23.685 0.316122 22.2152 0.655756 20.8374 1.24043C19.7494 1.70257 18.7191 2.31826 17.7777 3.06732C17.1216 3.58995 16.5293 4.15756 16.0181 4.75773C15.9947 4.7841 15.9744 4.81201 15.951 4.83838C15.9292 4.81201 15.9074 4.7841 15.884 4.75773C15.3712 4.15911 14.7805 3.58995 14.1243 3.06732C13.1829 2.31671 12.1526 1.70257 11.0647 1.24043C9.68845 0.654205 8.21865 0.314571 6.69588 0.230825C6.34049 0.210664 5.97736 0.206012 5.61576 0.212215C5.26347 0.219969 4.98293 0.505324 4.98293 0.855814V6.81417H0V13.0594H6.27659V8.14632C7.01383 8.23005 7.67002 8.44254 8.26231 8.7899C8.72053 9.05976 9.16318 9.43817 9.61676 9.9484C9.83183 10.1903 10.0298 10.4493 10.2402 10.7223C10.4335 10.972 10.6314 11.2325 10.848 11.4822C10.873 11.5117 10.898 11.538 10.9244 11.5675L10.9587 11.6047L11.4372 11.1813L10.9619 11.6171C12.5828 13.368 14.1368 14.342 15.5816 14.5125C15.7219 14.5296 15.8622 14.5373 16.004 14.5373C17.5533 14.5373 19.2132 13.5526 20.9449 11.6047L20.9807 11.5644C21.0057 11.538 21.0291 11.5101 21.0524 11.4837C21.2691 11.234 21.467 10.9751 21.6603 10.7254C21.8707 10.4524 22.0686 10.1934 22.2853 9.9515C22.7389 9.44127 23.183 9.06133 23.6397 8.79301C24.232 8.44407 24.8866 8.23315 25.6255 8.14943V13.0625H31.902V6.81727H26.9191L26.9206 6.81417ZM4.98293 11.7706H1.29366V8.10133H4.9814V11.7706H4.98293ZM20.6347 9.93909C20.4446 10.1857 20.2669 10.4183 20.0736 10.6401L19.977 10.7471C18.4074 12.5135 16.9408 13.3742 15.7344 13.23C14.6246 13.0982 13.306 12.2406 11.922 10.7486L11.9251 10.7455L11.83 10.6385C11.6383 10.4167 11.4591 10.1841 11.2689 9.93598C11.0538 9.65687 10.8325 9.36839 10.5862 9.09233C10.0407 8.47974 9.49674 8.01761 8.92002 7.67798C8.1376 7.21894 7.25077 6.94131 6.27659 6.84827V1.50096C6.3935 1.50407 6.50885 1.50872 6.62419 1.51492C7.99575 1.59091 9.31907 1.89643 10.5581 2.42371C11.5385 2.84089 12.4659 3.39454 13.3169 4.07226C13.9092 4.54372 14.4407 5.0555 14.9005 5.5921C15.0346 5.75029 15.1624 5.91158 15.298 6.08371L15.3931 6.20621C15.5317 6.46522 15.8029 6.72887 16.096 7.01109C17.6047 8.47201 19.3441 9.3265 21.0259 9.43664C20.8903 9.60414 20.7609 9.77159 20.6347 9.93756V9.93909ZM22.9835 7.6795C22.7825 7.79738 22.5846 7.93078 22.3897 8.07965C22.2432 8.10133 22.0998 8.11996 21.9611 8.13238C21.8505 8.14322 21.7382 8.15096 21.6245 8.15716C21.52 8.16185 21.4156 8.16337 21.3096 8.16185C19.8788 8.1339 18.3467 7.39728 16.9953 6.08992C16.9563 6.05266 16.8691 5.96273 16.7771 5.86506C16.8519 5.77197 16.9252 5.68051 17.0016 5.5921C17.4598 5.0555 17.9928 4.54372 18.5851 4.07226C19.4346 3.39454 20.3635 2.84089 21.3439 2.42371C22.5814 1.89643 23.9062 1.59091 25.2779 1.51492C25.3932 1.50872 25.5085 1.50407 25.6255 1.50096V6.84827C24.6497 6.94131 23.7629 7.21894 22.982 7.67798L22.9835 7.6795ZM30.61 11.7706H26.9222V8.10133H30.61V11.7706Z" fill="#02122B"/>
</g>
<defs>
<clipPath id="clip0_49019_123718">
<rect width="32" height="14.3284" fill="white" transform="translate(0 0.206055)"/>
</clipPath>
</defs>
</svg>
