<svg width="24" height="24" viewBox="0 0 24 24" fill="none" xmlns="http://www.w3.org/2000/svg">
<path id="Vector" d="M14.3996 3.59961H9.59961V4.79961H14.3996V3.59961Z" stroke="#F0F4FC" stroke-width="2" stroke-linecap="round" stroke-linejoin="round"/>
<path id="Vector_2" d="M18.9941 13.4062C20.8687 15.2808 20.8687 18.32 18.9941 20.1945" stroke="#F0F4FC" stroke-width="2" stroke-linecap="round" stroke-linejoin="round"/>
<path id="Vector_3" d="M19.2008 9.22533V7.19961C19.2008 5.21133 17.5891 3.59961 15.6008 3.59961H8.40078C6.4125 3.59961 4.80078 5.21133 4.80078 7.19961V16.7996C4.80078 18.7879 6.4125 20.3996 8.40078 20.3996H13.472" stroke="#F0F4FC" stroke-width="2" stroke-linecap="round" stroke-linejoin="round"/>
<path id="Vector_4" d="M15.6004 17.9996C16.2631 17.9996 16.8004 17.4624 16.8004 16.7996C16.8004 16.1369 16.2631 15.5996 15.6004 15.5996C14.9376 15.5996 14.4004 16.1369 14.4004 16.7996C14.4004 17.4624 14.9376 17.9996 15.6004 17.9996Z" fill="#F0F4FC"/>
</svg>
