<svg width="30" height="30" viewBox="0 0 30 30" fill="none" xmlns="http://www.w3.org/2000/svg">
<path d="M22.9123 15.6966L22.9029 15.6792L22.9013 15.6763C22.8956 15.6587 22.8913 15.6404 22.8849 15.6214L22.8841 15.6199L22.8833 15.6184L22.8825 15.617L22.8817 15.6155L22.8809 15.614L22.8801 15.6125L22.8785 15.6096C22.6805 14.9474 22.2879 14.3601 21.7517 13.9239L21.7509 13.9224C21.7351 13.9103 21.7184 13.8968 21.7025 13.8848L21.6806 13.8684L21.6648 13.8564L21.6579 13.8507L21.6428 13.8401L21.636 13.8344L21.6209 13.8238L21.6141 13.8181L21.5982 13.8061L21.5899 13.8011L21.5741 13.7891L21.5658 13.7841L21.5487 13.7728L21.5404 13.7678L21.5304 13.7526L21.5213 13.7462L21.5043 13.7349L21.4953 13.7285L21.4782 13.7171L21.4692 13.7108L21.4521 13.6994L21.4431 13.693L21.425 13.6803L21.4159 13.674L21.3964 13.662L21.3874 13.6556L21.3678 13.6436L21.3588 13.6372L21.3392 13.6253L21.3302 13.6189L21.3107 13.6069L21.3002 13.6012L21.2806 13.5892L21.2701 13.5836L21.2491 13.5722L21.2386 13.5665L21.2167 13.5539L21.2062 13.5482L21.1844 13.5356L21.1739 13.5299L21.1521 13.5173L21.1407 13.5103L21.1189 13.4976L21.1075 13.4906L21.0843 13.4787L21.0729 13.4717L21.0497 13.4598L21.034 13.4514L21.0332 13.4499C21.0219 13.4429 21.01 13.438 20.9987 13.431C20.5163 13.1831 19.9955 13.0186 19.4583 12.9443C19.609 12.7824 19.7469 12.6091 19.871 12.426L19.8908 12.3966L19.8923 12.3958L19.9014 12.3815L19.9134 12.362L19.9198 12.3529L19.9317 12.3334L19.9381 12.3244L19.9501 12.3048L19.9565 12.2958L19.9684 12.2762L19.9748 12.2672L19.9868 12.2476L19.9932 12.2386L20.0037 12.2198L20.01 12.2108L20.0205 12.192L20.0255 12.1837L20.036 12.1649L20.0409 12.1566L20.0515 12.1378L20.0563 12.1295L20.0654 12.1115L20.0703 12.1032L20.0794 12.0851L20.0843 12.0769L20.0933 12.0588L20.0983 12.0505L20.108 12.034L20.113 12.0257L20.1228 12.0092L20.1278 12.0009L20.1362 11.9851L20.1411 11.9769L20.1495 11.9611L20.153 11.9536L20.1614 11.9379L20.1649 11.9304L20.1733 11.9146L20.1767 11.9071L20.1852 11.8914L20.1886 11.8839L20.1956 11.8689L20.199 11.8614L20.2059 11.8464L20.2094 11.8389L20.2163 11.8239L20.2198 11.8164L20.2274 11.7994L20.2378 11.7766C20.2454 11.7596 20.2516 11.743 20.2592 11.7255L20.2607 11.7247C20.4918 11.1549 20.546 10.5288 20.4162 9.92776L20.4154 9.92628L20.4138 9.92339L20.413 9.92191L20.4122 9.92043L20.4114 9.91895L20.4106 9.91748L20.4098 9.916L20.409 9.91452C20.4055 9.89748 20.4021 9.88077 20.3972 9.86464V9.8614L20.3964 9.85992L20.3956 9.85844L20.3886 9.84537C20.3834 9.82191 20.3783 9.79844 20.3709 9.7743C20.3658 9.75083 20.3584 9.72668 20.3518 9.70395L20.3432 9.68799L20.3416 9.68509C20.3367 9.66901 20.3318 9.65288 20.3269 9.6368L20.3261 9.63532L20.3253 9.63384L20.3245 9.63236L20.3237 9.63089L20.3229 9.62941L20.3221 9.62793L20.3213 9.62645C20.1455 9.03712 19.7962 8.51442 19.319 8.12645L19.3183 8.12498C19.3046 8.11361 19.2895 8.10293 19.2759 8.09157L19.2571 8.07736L19.242 8.06674L19.2352 8.06106L19.2223 8.05111L19.2155 8.04543L19.2026 8.03549L19.1958 8.02981L19.1815 8.02066L19.1746 8.01498L19.1596 8.00435L19.1528 7.99867L19.1377 7.98805L19.1308 7.98236L19.1157 7.97174L19.1074 7.9668L19.0923 7.95617L19.084 7.95123L19.0689 7.9406L19.0606 7.93566L19.0441 7.92583L19.0358 7.92089L19.0192 7.91106L19.0109 7.90611L18.9944 7.89628L18.9861 7.89134L18.9696 7.88151L18.9613 7.87657L18.944 7.8652L18.9357 7.86026L18.9183 7.8489L18.91 7.84396L18.8912 7.83344L18.8829 7.8285L18.8642 7.81799L18.8552 7.81163L18.8363 7.80111L18.8273 7.79475L18.8086 7.78424L18.7995 7.77787L18.78 7.76589L18.7695 7.76021L18.7494 7.74776L18.7389 7.74208L18.7179 7.73072L18.7074 7.72503L18.6863 7.71367L18.6713 7.70674L18.6705 7.70526L18.639 7.68822C17.7178 7.20941 16.5474 7.06526 15.3698 7.36736L15.0635 7.446L14.2887 4.42896L12.4933 4.88918L13.2655 7.8943L11.829 8.26481L11.0562 5.2693L9.26078 5.72952L10.033 8.73464L6.33032 9.68742L6.82299 11.6022L8.31492 11.219C8.55204 11.1579 8.80373 11.1935 9.01463 11.3179C9.22552 11.4423 9.37834 11.6455 9.43947 11.8826L9.43992 11.8844L11.5108 19.9422C11.5513 20.1005 11.5274 20.2683 11.4443 20.409C11.3613 20.5497 11.2258 20.6516 11.0676 20.6925L9.76032 21.0288L9.83714 23.3061L13.5354 22.3557L14.3176 25.3554L16.1121 24.8936L15.3394 21.887L16.7757 21.5188L17.5487 24.5253L19.3432 24.0636L18.5676 21.0453C18.8717 20.9657 19.1333 20.8982 19.3142 20.8514C20.6413 20.5101 21.7144 19.7321 22.3638 18.7619L22.3857 18.7295L22.3872 18.7287L22.3978 18.7136L22.4119 18.6909L22.419 18.6795L22.433 18.6568L22.4401 18.6454L22.4527 18.6236L22.4598 18.6122L22.4724 18.5904L22.4781 18.5799L22.4907 18.5581L22.4963 18.5476L22.509 18.5258L22.5146 18.5153L22.526 18.4942L22.5317 18.4837L22.543 18.4627L22.5487 18.4522L22.5607 18.4326L22.5664 18.4221L22.5784 18.4026L22.5841 18.3921L22.5946 18.3733L22.6003 18.3628L22.6108 18.344L22.6165 18.3335L22.627 18.3147L22.6311 18.305L22.6416 18.2863L22.6458 18.2766L22.6548 18.2586L22.6598 18.2503L22.6688 18.2322L22.6737 18.224L22.6828 18.2059L22.6877 18.1976L22.6967 18.1796L22.7017 18.1713L22.7107 18.1533L22.7157 18.145L22.7247 18.127L22.7296 18.1187L22.7373 18.1017L22.7422 18.0934L22.7498 18.0763L22.7532 18.0688L22.7615 18.0494L22.7729 18.0247C22.7812 18.0053 22.7899 17.9873 22.797 17.9686L22.7977 17.9663C23.0575 17.3254 23.1186 16.6212 22.973 15.9451L22.9723 15.9436L22.9715 15.9421L22.9707 15.9407L22.9699 15.9392L22.9691 15.9377L22.9683 15.9362L22.9675 15.9347L22.9667 15.9333C22.9625 15.9149 22.9583 15.8966 22.954 15.8783V15.8746L22.9532 15.8731L22.9524 15.8716L22.9516 15.8701L22.9508 15.8687L22.95 15.8672L22.9492 15.8657L22.9484 15.8642L22.9477 15.8628L22.9469 15.8613L22.9461 15.8598L22.9453 15.8583L22.9445 15.8569L22.9437 15.8554L22.9405 15.8497C22.9338 15.8233 22.9286 15.7962 22.9204 15.7705C22.9163 15.7461 22.9136 15.7214 22.9123 15.6966ZM12.3633 10.3062C12.6696 10.2276 13.9361 9.90952 14.3537 9.80094C15.0177 9.631 15.6719 9.69697 16.1827 9.94299L16.1998 9.9506L16.2073 9.95407L16.2178 9.95975L16.223 9.96253L16.2335 9.96822L16.2387 9.971L16.2492 9.97668L16.2545 9.97947L16.265 9.98515L16.2702 9.98793L16.2807 9.99361L16.2859 9.9964L16.2965 10.0021L16.3017 10.0049L16.3122 10.0105L16.3174 10.0133L16.3279 10.019L16.3332 10.0218L16.3437 10.0275L16.3489 10.0303L16.3579 10.0366L16.3632 10.0394L16.3722 10.0458L16.3774 10.0486L16.3865 10.0549L16.3917 10.0577L16.4 10.0626L16.4052 10.0654L16.4135 10.0704L16.4187 10.0732L16.427 10.0781L16.4323 10.0809L16.4405 10.0858L16.4458 10.0886L16.4541 10.0936L16.4579 10.0971L16.4662 10.1021L16.4692 10.1042L16.4775 10.1091L16.4805 10.1112L16.4888 10.1162L16.4918 10.1183L16.5001 10.1232L16.5031 10.1253L16.5099 10.131L16.5129 10.1331L16.5212 10.138L16.5326 10.1451C16.5409 10.15 16.5484 10.1572 16.5567 10.1621C16.8182 10.3595 17.0104 10.6348 17.1055 10.9483L17.1078 10.9526C17.1103 10.9607 17.1135 10.9702 17.1159 10.9783L17.1167 10.9798L17.1215 10.9884C17.1248 11.0016 17.1288 11.0126 17.1322 11.0258C17.1359 11.0392 17.1383 11.053 17.1394 11.0669L17.1441 11.0756L17.1449 11.0771C17.1461 11.0861 17.1484 11.0949 17.1516 11.1034L17.1539 11.1078C17.2211 11.4282 17.1853 11.7617 17.0516 12.0605L17.0399 12.0875L17.0336 12.1002L17.0287 12.1085L17.0273 12.113L17.0238 12.1205L17.0225 12.125L17.0175 12.1333L17.0162 12.1378L17.0112 12.1461L17.0099 12.1505L17.0049 12.1588L17.0036 12.1633L16.9986 12.1716L16.9973 12.1761L16.9923 12.1844L16.9909 12.1889L16.986 12.1972L16.9832 12.2024L16.9783 12.2107L16.9755 12.2159L16.9706 12.2242L16.9678 12.2295L16.9629 12.2378L16.9601 12.243L16.9537 12.252L16.9509 12.2572L16.9445 12.2663L16.9417 12.2715L16.9354 12.2805L16.9326 12.2858L16.9262 12.2948L16.9234 12.3L16.9171 12.3091L16.9143 12.3143L16.9079 12.3233L16.9052 12.3286L16.8988 12.3376L16.896 12.3428L16.8896 12.3519L16.8869 12.3571L16.879 12.3669L16.8762 12.3721L16.8684 12.382L16.8656 12.3872L16.8578 12.397L16.855 12.4022L16.8471 12.4121L16.8415 12.4189L16.8308 12.434C16.5007 12.8966 15.9596 13.2704 15.2957 13.4403C14.8773 13.5475 13.6138 13.8787 13.3078 13.9574L12.3633 10.3062ZM19.3811 16.4837L19.3858 16.4924L19.3866 16.4938C19.3883 16.5041 19.3908 16.5122 19.3926 16.5222L19.3934 16.5237L19.3942 16.5252L19.395 16.5267L19.3958 16.5282C19.4666 16.8815 19.4157 17.2485 19.2514 17.5693L19.2353 17.5986L19.2276 17.6121L19.2219 17.6226L19.2191 17.6278L19.2142 17.6361L19.2114 17.6413L19.2065 17.6496L19.2037 17.6549L19.1973 17.6639L19.1945 17.6691L19.1882 17.6782L19.1854 17.6834L19.179 17.6924L19.1762 17.6976L19.1699 17.7067L19.1671 17.7119L19.1607 17.7209L19.1579 17.7262L19.1516 17.7352L19.1488 17.7404L19.1424 17.7495L19.1396 17.7547L19.1333 17.7637L19.1305 17.769L19.1241 17.778L19.1213 17.7832L19.1135 17.793L19.1107 17.7983L19.1029 17.8081L19.1001 17.8133L19.093 17.8247L19.0903 17.8299L19.0832 17.8413L19.0804 17.8465L19.0734 17.8579L19.0691 17.8639L19.0621 17.8753L19.0578 17.8813L19.0493 17.8933L19.045 17.8994L19.0365 17.9114L19.0323 17.9174L19.0237 17.9295L19.0195 17.9355L19.0109 17.9475L19.0066 17.9536L18.9981 17.9656L18.9909 17.9732L18.9774 17.9899C18.5765 18.5019 17.9297 18.9231 17.1442 19.1247C16.6488 19.2526 15.152 19.6441 14.7878 19.7371L13.7687 15.772C14.1324 15.6776 15.6332 15.3008 16.1285 15.1729C16.9141 14.9712 17.6853 15.0284 18.2814 15.283L18.3008 15.2913L18.3105 15.2954L18.3248 15.3011L18.3315 15.3031L18.3442 15.3094L18.3509 15.3113L18.3636 15.3176L18.3703 15.3196L18.383 15.3258L18.3882 15.3286L18.4009 15.3349L18.4062 15.3376L18.4189 15.3439L18.4241 15.3467L18.4369 15.3529L18.4421 15.3557L18.4526 15.3614L18.4578 15.3642L18.4683 15.3699L18.4736 15.3726L18.4841 15.3783L18.4893 15.3811L18.4998 15.3868L18.505 15.3896L18.5155 15.3953L18.5208 15.398L18.5313 15.4037L18.5365 15.4065L18.547 15.4122L18.5523 15.415L18.5628 15.4207L18.568 15.4234L18.5785 15.4291L18.5837 15.4319L18.5928 15.4383L18.598 15.4411L18.607 15.4474L18.6123 15.4502L18.6213 15.4566L18.6265 15.4594L18.6355 15.4657L18.6408 15.4685L18.6498 15.4749L18.655 15.4776L18.6633 15.4826L18.6686 15.4854L18.6776 15.4917L18.6896 15.5003C18.6987 15.5066 18.7092 15.5122 18.718 15.5186C19.0162 15.7209 19.2375 16.0178 19.346 16.3614L19.3491 16.3671C19.3524 16.3766 19.3548 16.3846 19.358 16.3941L19.3588 16.3956L19.3636 16.4043C19.3669 16.4175 19.3703 16.4307 19.3744 16.4453C19.3817 16.4486 19.3829 16.4647 19.3806 16.4847L19.3811 16.4837Z" fill="#02122B"/>
</svg>
