<svg width="24" height="24" viewBox="0 0 24 24" fill="none" xmlns="http://www.w3.org/2000/svg">
<path d="M19 15V13C19 12.4696 18.7893 11.9609 18.4142 11.5858C18.0391 11.2107 17.5304 11 17 11C16.4696 11 15.9609 11.2107 15.5858 11.5858C15.2107 11.9609 15 12.4696 15 13V15M9 17H7L3 21V5C3 4.46957 3.21071 3.96086 3.58579 3.58579C3.96086 3.21071 4.46957 3 5 3H19C19.5304 3 20.0391 3.21071 20.4142 3.58579C20.7893 3.96086 21 4.46957 21 5V8.5M14 15H20C20.5523 15 21 15.4477 21 16V19C21 19.5523 20.5523 20 20 20H14C13.4477 20 13 19.5523 13 19V16C13 15.4477 13.4477 15 14 15Z" stroke="#F0F4FC" stroke-width="2" stroke-linecap="round" stroke-linejoin="round"/>
</svg>
