<svg width="227" height="20" viewBox="0 0 227 20" fill="none" xmlns="http://www.w3.org/2000/svg">
<g clip-path="url(#clip0_41672_12856)">
<path d="M7.89694 13.6814C8.24199 13.6814 8.516 13.5566 8.71897 13.3071L13.3568 7.44891C13.4177 7.37297 13.4735 7.29025 13.5242 7.20075C13.575 7.11125 13.6004 7.02039 13.6004 6.92818C13.6004 6.74918 13.5158 6.60544 13.3466 6.49695C13.1775 6.38847 12.9881 6.33423 12.7783 6.33423C12.4942 6.33423 12.2574 6.45627 12.068 6.70036L7.85635 12.1192L5.85712 10.0444C5.73534 9.91424 5.61525 9.82609 5.49685 9.77998C5.37845 9.73387 5.24821 9.71082 5.10613 9.71082C4.88963 9.71082 4.70527 9.77456 4.55305 9.90204C4.40082 10.0295 4.32471 10.1827 4.32471 10.3617C4.32471 10.5299 4.40251 10.698 4.55812 10.8662L7.03433 13.3071C7.16287 13.4373 7.2965 13.5322 7.4352 13.5919C7.57389 13.6515 7.7278 13.6814 7.89694 13.6814Z" fill="#13C89D"/>
</g>
<path d="M22.7878 15V7.148H19.8758V5.9H27.0648V7.148H24.1528V15H22.7878ZM27.7088 15V8.305H29.0088V9.501L31.5438 8.162V9.566L29.0088 10.827V15H27.7088ZM34.9599 15.13C33.6209 15.13 32.6459 14.272 32.6459 13.05C32.6459 11.88 33.4649 11.035 34.9729 10.931L36.9489 10.801V10.723C36.9489 10.086 36.3639 9.358 35.2979 9.358C34.2709 9.358 33.7899 10.021 33.6209 10.515L32.5939 9.995C32.8929 9.163 33.7249 8.188 35.3109 8.188C37.2089 8.188 38.2359 9.501 38.2359 10.775V15H36.9489V14.233C36.5979 14.766 35.8179 15.13 34.9599 15.13ZM33.9459 13.024C33.9459 13.622 34.4399 13.986 35.0899 13.986C36.2729 13.986 36.9749 13.18 36.9749 12.309V11.893L35.0639 12.023C34.4269 12.062 33.9459 12.387 33.9459 13.024ZM40.3718 15V8.305H41.6718V9.137C42.0228 8.578 42.6858 8.188 43.5958 8.188C45.0778 8.188 46.1178 9.293 46.1178 10.736V15H44.8178V11.048C44.8178 10.008 44.1288 9.41 43.2448 9.41C42.3478 9.41 41.6718 10.06 41.6718 11.048V15H40.3718ZM50.5271 15.117C48.8111 15.117 47.9271 14.116 47.6671 13.31L48.7591 12.764C48.9151 13.297 49.5261 13.96 50.5531 13.96C51.4371 13.96 51.9441 13.609 51.9441 13.115C51.9441 12.725 51.6711 12.439 51.0991 12.322L49.7991 12.075C48.7591 11.867 48.0311 11.269 48.0311 10.177C48.0311 9.02 49.0841 8.188 50.5791 8.188C52.2431 8.188 52.9711 9.124 53.2051 9.839L52.1261 10.359C52.0221 9.865 51.4891 9.319 50.5661 9.319C49.7731 9.319 49.2921 9.683 49.2921 10.151C49.2921 10.58 49.6041 10.814 50.0851 10.905L51.4501 11.178C52.6461 11.412 53.2701 12.153 53.2701 13.076C53.2701 14.285 52.1911 15.117 50.5271 15.117ZM56.8488 15.13C55.5098 15.13 54.5348 14.272 54.5348 13.05C54.5348 11.88 55.3538 11.035 56.8618 10.931L58.8378 10.801V10.723C58.8378 10.086 58.2528 9.358 57.1868 9.358C56.1598 9.358 55.6788 10.021 55.5098 10.515L54.4828 9.995C54.7818 9.163 55.6138 8.188 57.1998 8.188C59.0978 8.188 60.1248 9.501 60.1248 10.775V15H58.8378V14.233C58.4868 14.766 57.7068 15.13 56.8488 15.13ZM55.8348 13.024C55.8348 13.622 56.3288 13.986 56.9788 13.986C58.1618 13.986 58.8638 13.18 58.8638 12.309V11.893L56.9528 12.023C56.3158 12.062 55.8348 12.387 55.8348 13.024ZM65.1208 15.117C63.2488 15.117 61.6758 13.739 61.6758 11.646C61.6758 9.566 63.2098 8.188 65.1208 8.188C66.8628 8.188 67.8248 9.215 68.1888 10.138L67.0578 10.723C66.8238 10.06 66.1868 9.397 65.1208 9.397C63.8598 9.397 62.9888 10.346 62.9888 11.646C62.9888 12.92 63.8598 13.921 65.1208 13.921C66.1478 13.921 66.8238 13.284 67.0578 12.621L68.1888 13.206C67.8248 14.103 66.8108 15.117 65.1208 15.117ZM70.3292 15V9.449H69.1332V8.305H70.3682V6.576H71.6292V8.305H73.3582V9.449H71.6292V13.778H73.3842V15H70.3292ZM75.1263 15V8.305H76.4263V15H75.1263ZM74.8273 6.251C74.8273 5.705 75.2303 5.302 75.7763 5.302C76.3223 5.302 76.7253 5.705 76.7253 6.251C76.7253 6.784 76.3223 7.2 75.7763 7.2C75.2303 7.2 74.8273 6.784 74.8273 6.251ZM81.6034 15.117C79.5494 15.117 78.0804 13.661 78.0804 11.659C78.0804 9.657 79.5624 8.188 81.6034 8.188C83.6444 8.188 85.1264 9.657 85.1264 11.659C85.1264 13.648 83.6574 15.117 81.6034 15.117ZM79.3934 11.659C79.3934 12.985 80.3684 13.921 81.6034 13.921C82.8514 13.921 83.8134 12.985 83.8134 11.659C83.8134 10.333 82.8514 9.397 81.6034 9.397C80.3554 9.397 79.3934 10.333 79.3934 11.659ZM86.8123 15V8.305H88.1123V9.137C88.4633 8.578 89.1263 8.188 90.0363 8.188C91.5183 8.188 92.5583 9.293 92.5583 10.736V15H91.2583V11.048C91.2583 10.008 90.5693 9.41 89.6853 9.41C88.7883 9.41 88.1123 10.06 88.1123 11.048V15H86.8123ZM100.201 15.117C98.4854 15.117 97.6014 14.116 97.3414 13.31L98.4334 12.764C98.5894 13.297 99.2004 13.96 100.227 13.96C101.111 13.96 101.618 13.609 101.618 13.115C101.618 12.725 101.345 12.439 100.773 12.322L99.4734 12.075C98.4334 11.867 97.7054 11.269 97.7054 10.177C97.7054 9.02 98.7584 8.188 100.253 8.188C101.917 8.188 102.645 9.124 102.879 9.839L101.8 10.359C101.696 9.865 101.163 9.319 100.24 9.319C99.4474 9.319 98.9664 9.683 98.9664 10.151C98.9664 10.58 99.2784 10.814 99.7594 10.905L101.124 11.178C102.32 11.412 102.944 12.153 102.944 13.076C102.944 14.285 101.865 15.117 100.201 15.117ZM107.524 15.117C105.652 15.117 104.079 13.739 104.079 11.646C104.079 9.566 105.613 8.188 107.524 8.188C109.266 8.188 110.228 9.215 110.592 10.138L109.461 10.723C109.227 10.06 108.59 9.397 107.524 9.397C106.263 9.397 105.392 10.346 105.392 11.646C105.392 12.92 106.263 13.921 107.524 13.921C108.551 13.921 109.227 13.284 109.461 12.621L110.592 13.206C110.228 14.103 109.214 15.117 107.524 15.117ZM114.15 15.13C112.811 15.13 111.836 14.272 111.836 13.05C111.836 11.88 112.655 11.035 114.163 10.931L116.139 10.801V10.723C116.139 10.086 115.554 9.358 114.488 9.358C113.461 9.358 112.98 10.021 112.811 10.515L111.784 9.995C112.083 9.163 112.915 8.188 114.501 8.188C116.399 8.188 117.426 9.501 117.426 10.775V15H116.139V14.233C115.788 14.766 115.008 15.13 114.15 15.13ZM113.136 13.024C113.136 13.622 113.63 13.986 114.28 13.986C115.463 13.986 116.165 13.18 116.165 12.309V11.893L114.254 12.023C113.617 12.062 113.136 12.387 113.136 13.024ZM119.562 15V8.305H120.862V9.137C121.213 8.578 121.876 8.188 122.786 8.188C124.268 8.188 125.308 9.293 125.308 10.736V15H124.008V11.048C124.008 10.008 123.319 9.41 122.435 9.41C121.538 9.41 120.862 10.06 120.862 11.048V15H119.562ZM127.442 15V8.305H128.742V9.137C129.093 8.578 129.756 8.188 130.666 8.188C132.148 8.188 133.188 9.293 133.188 10.736V15H131.888V11.048C131.888 10.008 131.199 9.41 130.315 9.41C129.418 9.41 128.742 10.06 128.742 11.048V15H127.442ZM138.13 15.117C136.076 15.117 134.737 13.609 134.737 11.659C134.737 9.683 136.089 8.188 138.117 8.188C140.08 8.188 141.315 9.735 141.315 11.503V12.114H136.05C136.219 13.388 137.077 13.947 138.13 13.947C139.196 13.947 139.885 13.297 140.093 12.712L141.094 13.245C140.808 13.986 139.898 15.117 138.13 15.117ZM136.089 11.022H139.963C139.95 10.19 139.248 9.332 138.104 9.332C137.116 9.332 136.31 9.917 136.089 11.022ZM145.69 15.117C143.857 15.117 142.414 13.817 142.414 11.646C142.414 9.644 143.831 8.188 145.69 8.188C146.626 8.188 147.523 8.617 147.913 9.189V5.38H149.213V15H147.913V14.155C147.497 14.714 146.574 15.117 145.69 15.117ZM143.727 11.646C143.727 12.894 144.533 13.921 145.833 13.921C147.133 13.921 147.939 12.894 147.939 11.646C147.939 10.424 147.133 9.397 145.833 9.397C144.533 9.397 143.727 10.411 143.727 11.646ZM158.119 15.117C157.235 15.117 156.312 14.714 155.883 14.155V15H154.583V5.38H155.883V9.189C156.273 8.617 157.17 8.188 158.119 8.188C159.965 8.188 161.382 9.644 161.382 11.646C161.382 13.817 159.939 15.117 158.119 15.117ZM155.857 11.646C155.857 12.894 156.663 13.921 157.963 13.921C159.263 13.921 160.069 12.894 160.069 11.646C160.069 10.411 159.263 9.397 157.963 9.397C156.663 9.397 155.857 10.424 155.857 11.646ZM163.622 17.977L164.922 14.948L162.088 8.305H163.544L165.65 13.44L167.665 8.305H169.16L165.078 17.977H163.622Z" fill="#C9D6E8"/>
<g clip-path="url(#clip1_41672_12856)">
<path d="M182.033 14.8V5H184.077V14.8H182.033Z" fill="#C9D6E8"/>
<path d="M188.761 15C186.38 15 184.752 13.3818 184.752 11.2909C184.752 9.19997 186.38 7.58179 188.761 7.58179C191.143 7.58179 192.771 9.19997 192.771 11.2909C192.771 13.3818 191.143 15 188.761 15ZM188.761 13.5818C190.012 13.5818 190.706 12.6727 190.706 11.2909C190.706 9.92724 190.012 8.98179 188.761 8.98179C187.511 8.98179 186.816 9.90906 186.816 11.2909C186.816 12.6545 187.511 13.5818 188.761 13.5818Z" fill="#C9D6E8"/>
<path d="M196.998 15C194.577 15 193.048 13.3818 193.048 11.2909C193.048 9.19997 194.537 7.58179 196.879 7.58179C198.864 7.58179 200.095 8.63633 200.372 10.1636H198.388C198.249 9.54542 197.733 9.0727 196.978 9.0727C195.748 9.0727 195.113 9.92724 195.113 11.2909C195.113 12.6182 195.688 13.5091 196.939 13.5091C197.772 13.5091 198.348 13.1091 198.487 12.3091H200.452C200.313 13.8 199.043 15 196.998 15Z" fill="#C9D6E8"/>
<path d="M206.109 14.8L203.946 11.6L203.052 12.4364V14.8H201.028V5H203.052V10.4182L205.772 7.76364H208.213L205.375 10.4364L208.55 14.8H206.109Z" fill="#C9D6E8"/>
<path d="M213.532 14.8001C213.413 14.6546 213.334 14.3274 213.294 14.0183H213.254C212.857 14.5456 212.302 14.9637 210.992 14.9637C209.424 14.9637 208.312 14.2183 208.312 12.8183C208.312 11.2728 209.682 10.7819 211.389 10.5637C212.659 10.4001 213.254 10.3092 213.254 9.76373C213.254 9.25464 212.818 8.92737 211.964 8.92737C211.011 8.92737 210.535 9.23646 210.475 9.90919H208.669C208.729 8.67282 209.741 7.6001 211.984 7.6001C214.286 7.6001 215.219 8.54555 215.219 10.1819V13.7637C215.219 14.291 215.319 14.6183 215.497 14.7274V14.8001H213.532ZM211.508 13.6546C212.679 13.6546 213.314 13.0001 213.314 12.3092V11.2546C212.957 11.4546 212.401 11.5637 211.885 11.6728C210.813 11.891 210.297 12.1092 210.297 12.7637C210.297 13.4183 210.773 13.6546 211.508 13.6546Z" fill="#C9D6E8"/>
<path d="M216.231 14.8V7.76364H218.276V14.8H216.231ZM216.231 6.67273V5H218.276V6.67273H216.231Z" fill="#C9D6E8"/>
<path d="M222.146 15C220.221 15 218.891 13.5636 218.891 11.2909C218.891 9.09091 220.261 7.58182 222.166 7.58182C223.238 7.58182 223.913 8.03636 224.33 8.61818H224.369V5H226.414V14.8H224.449V13.8909H224.409C223.992 14.5455 223.238 15 222.146 15ZM222.603 13.4364C223.814 13.4364 224.449 12.6182 224.449 11.3273C224.449 9.98182 223.972 9.07273 222.662 9.07273C221.531 9.07273 220.975 9.98182 220.975 11.2727C220.975 12.6364 221.551 13.4364 222.603 13.4364Z" fill="#C9D6E8"/>
<path fill-rule="evenodd" clip-rule="evenodd" d="M178.857 6.6H171.533V5H178.857C180.226 5 181.338 6.01818 181.338 7.27273C181.338 8.52727 180.226 9.54545 178.857 9.54545H173.538C173.339 9.54545 173.16 9.69091 173.16 9.87273C173.16 10.0545 173.319 10.2 173.538 10.2H178.857C180.226 10.2 181.338 11.2182 181.338 12.4727C181.338 13.7273 180.226 14.7455 178.857 14.7455H171.533V13.1455H178.857C179.254 13.1455 179.591 12.8364 179.591 12.4727C179.591 12.1091 179.254 11.8 178.857 11.8H173.538C172.386 11.8182 171.434 10.9455 171.434 9.87273C171.434 8.81818 172.386 7.94545 173.538 7.94545H178.857C179.254 7.94545 179.591 7.63636 179.591 7.27273C179.591 6.90909 179.254 6.6 178.857 6.6Z" fill="#C9D6E8"/>
</g>
<defs>
<clipPath id="clip0_41672_12856">
<rect width="16.8667" height="16.8667" fill="white" transform="translate(0.566895 1.56665)"/>
</clipPath>
<clipPath id="clip1_41672_12856">
<rect width="55" height="10" fill="white" transform="translate(171.434 5)"/>
</clipPath>
</defs>
</svg>
