<svg width="24" height="24" viewBox="0 0 24 24" fill="none" xmlns="http://www.w3.org/2000/svg">
<path id="Vector" d="M7.80078 10.7996V7.79961C7.80078 5.48001 9.68118 3.59961 12.0008 3.59961C14.3204 3.59961 16.2008 5.48001 16.2008 7.79961V10.7996" stroke="#F0F4FC" stroke-width="2" stroke-linecap="round" stroke-linejoin="round"/>
<path id="Vector_2" d="M16.7996 9.59961H7.19961C5.21445 9.59961 3.59961 11.2144 3.59961 13.1996V17.9996C3.59961 19.9848 5.21445 21.5996 7.19961 21.5996H16.7996C18.7848 21.5996 20.3996 19.9848 20.3996 17.9996V13.1996C20.3996 11.2144 18.7848 9.59961 16.7996 9.59961ZM13.1996 16.1996C13.1996 16.8622 12.6628 17.3996 11.9996 17.3996C11.3364 17.3996 10.7996 16.8622 10.7996 16.1996V14.9996C10.7996 14.337 11.3364 13.7996 11.9996 13.7996C12.6628 13.7996 13.1996 14.337 13.1996 14.9996V16.1996Z" fill="#F0F4FC"/>
</svg>
