<svg width="14" height="17" viewBox="0 0 14 17" fill="none" xmlns="http://www.w3.org/2000/svg">
<path d="M12.8333 8.45833V10.75C12.8333 11.6705 12.0872 12.4167 11.1667 12.4167H2.625C1.58947 12.4167 0.75 13.2562 0.75 14.2917C0.75 15.3272 1.58947 16.1667 2.625 16.1667H5.125M4.08333 4.29167H9.5M4.08333 7.625H7M2.41667 0.75H11.1667C12.0872 0.75 12.8333 1.49619 12.8333 2.41667V14.5C12.8333 15.4205 12.0872 16.1667 11.1667 16.1667H2.41667C1.49619 16.1667 0.75 15.4205 0.75 14.5V2.41667C0.75 1.49619 1.49619 0.75 2.41667 0.75Z" stroke="#F0F4FC" stroke-width="1.5" stroke-linecap="round" stroke-linejoin="round"/>
</svg>
