<svg width="184" height="123" viewBox="0 0 184 123" fill="none" xmlns="http://www.w3.org/2000/svg">
<path d="M14.3588 92.906C14.2958 92.152 14.2808 91.346 14.3158 90.484C15.2418 67.85 14.4188 33.659 14.4228 10.896C14.4238 4.25603 19.5528 -0.0129704 25.8828 2.96073e-05C53.3998 0.0580296 80.9178 0.196029 108.435 0.196029C125.264 0.196029 142.093 0.196029 158.93 0.196029C164.84 0.196029 169.631 4.98603 169.632 10.895C169.638 34.564 169.632 69.256 169.632 92.892C169.632 98.803 164.84 103.594 158.93 103.594C131.823 103.594 104.718 103.32 77.6108 103.301C64.2588 103.291 50.9068 103.341 37.5558 103.517C27.5738 103.648 15.3258 104.577 14.3588 92.906Z" fill="#36537D"/>
<path d="M0.0749123 122.101C0.000912294 122.038 -0.0170908 121.971 0.0249092 121.9C1.12191 120.018 0.145908 117.175 0.151908 115.282C0.152908 114.73 6.22591 114.375 13.7209 114.376C46.3019 114.381 78.8849 114.392 111.467 114.392C131.394 114.392 151.32 114.392 171.256 114.392C178.253 114.392 183.926 114.79 183.928 115.282C183.935 117.25 183.928 120.135 183.928 122.101C183.928 122.593 178.255 122.991 171.256 122.991C139.16 122.991 107.065 122.968 74.9699 122.967C59.1599 122.966 43.3499 122.97 27.5419 122.985C15.7219 122.994 1.21991 123.072 0.0749123 122.101Z" fill="#162A48"/>
<path d="M0.0609434 114.642C-0.00105664 114.562 -0.0170488 114.477 0.0189512 114.386C0.944951 111.994 14.42 106.869 14.424 104.463C14.425 103.761 19.554 103.31 25.884 103.311C53.4 103.317 80.919 103.332 108.436 103.332C125.265 103.332 142.094 103.332 158.931 103.332C164.841 103.332 169.632 103.838 169.633 104.463C169.639 106.965 183.931 112.143 183.931 114.641C183.931 115.266 179.14 115.772 173.229 115.772C146.122 115.772 104.718 115.743 77.612 115.741C64.26 115.74 36.6089 115.745 23.2579 115.764C13.2759 115.777 1.02794 115.875 0.0609434 114.642Z" fill="#162A48"/>
<path d="M173.228 113.627C159.011 113.627 140.861 113.619 122.904 113.612C106.624 113.604 90.5011 113.597 77.6111 113.597H73.3851C59.0691 113.597 35.3211 113.603 23.2541 113.62L17.9121 113.627C15.3081 113.627 8.95305 113.627 4.83105 113.376C5.87605 112.778 7.02206 112.161 7.96106 111.655C12.4821 109.22 15.1761 107.703 16.1511 105.999C17.5151 105.741 20.8881 105.458 25.8551 105.458L55.9251 105.467C73.4291 105.473 90.9321 105.479 108.435 105.479H158.929C163.386 105.479 166.578 105.766 167.914 106.022C168.873 107.677 171.457 109.129 175.768 111.444C176.791 111.993 178.151 112.724 179.34 113.421C177.752 113.539 175.682 113.627 173.228 113.627Z" fill="#36537D"/>
<path d="M167.023 111.073C153.894 111.073 137.131 111.066 120.547 111.059C105.512 111.052 90.6219 111.046 78.7169 111.045H74.8139C61.5929 111.045 39.661 111.051 28.517 111.066L23.5829 111.072C21.1779 111.072 15.309 111.072 11.502 110.847C12.467 110.31 13.5249 109.757 14.3929 109.304C18.5679 107.12 21.056 105.759 21.957 104.231C23.217 103.999 26.3319 103.746 30.9189 103.746L58.69 103.754C74.855 103.759 91.02 103.765 107.185 103.765H153.818C157.934 103.765 160.882 104.022 162.116 104.252C163.002 105.736 165.388 107.038 169.37 109.115C170.315 109.608 171.571 110.263 172.669 110.888C171.201 110.995 169.289 111.073 167.023 111.073Z" fill="#162A48"/>
<path d="M99.32 11.0501C77.387 10.6371 47.036 10.1201 25.097 10.3571C25.096 10.3911 22.951 10.4251 22.95 10.4591C22.651 22.6021 23.03 20.4471 23.189 32.5891C23.27 38.8111 23.306 70.7181 23.162 76.9391C23.044 82.0351 21.787 87.1971 22.596 92.2861C28.242 93.4731 45.751 92.8061 51.597 92.9841C55.723 93.1091 59.85 93.2151 63.977 93.2791C79.339 65.1311 95.633 37.5061 113.661 11.1251C108.873 11.1481 104.09 11.1401 99.32 11.0501Z" fill="#81F8DE"/>
<path d="M113.66 11.1252C95.6321 37.5072 79.3381 65.1312 63.9761 93.2792C66.3771 93.3172 68.7771 93.3442 71.1781 93.3442C81.4451 93.3442 91.7111 93.3442 101.978 93.3442C121.265 93.3442 140.551 93.3442 159.838 93.3442C159.924 93.3442 161.596 93.3442 161.596 93.3442C161.596 87.4072 162.086 11.3072 161.819 11.2952C145.901 10.5812 129.754 11.0502 113.66 11.1252Z" fill="#33E6BF"/>
<path d="M169.628 108.32H14.394V109.304H169.628V108.32Z" fill="#36537D"/>
<path d="M165.932 105.587H19.616V106.571H165.932V105.587Z" fill="#36537D"/>
</svg>
