<svg width="16" height="16" viewBox="0 0 16 16" fill="none" xmlns="http://www.w3.org/2000/svg">
<path fill-rule="evenodd" clip-rule="evenodd" d="M7.9987 1.33594C4.3168 1.33594 1.33203 4.3207 1.33203 8.0026C1.33203 11.6845 4.3168 14.6693 7.9987 14.6693C11.6806 14.6693 14.6654 11.6845 14.6654 8.0026C14.6654 4.3207 11.6806 1.33594 7.9987 1.33594ZM6.66536 7.33594C6.66536 7.0598 6.88923 6.83594 7.16536 6.83594H7.9987C8.27483 6.83594 8.4987 7.0598 8.4987 7.33594V10.8359C8.4987 11.1121 8.27483 11.3359 7.9987 11.3359C7.72256 11.3359 7.4987 11.1121 7.4987 10.8359V7.83594H7.16536C6.88923 7.83594 6.66536 7.61207 6.66536 7.33594ZM7.9987 4.83594C7.72256 4.83594 7.4987 5.0598 7.4987 5.33594C7.4987 5.61208 7.72256 5.83594 7.9987 5.83594C8.27483 5.83594 8.4987 5.61208 8.4987 5.33594C8.4987 5.0598 8.27483 4.83594 7.9987 4.83594Z" fill="#F0F4FC"/>
</svg>
