<svg width="24" height="24" viewBox="0 0 24 24" fill="none" xmlns="http://www.w3.org/2000/svg">
<path id="Vector" d="M18.7884 5.2116C15.0456 1.4688 8.9544 1.4688 5.2116 5.2116C1.4688 8.9544 1.4688 15.0444 5.2116 18.7872C7.0836 20.6592 9.5412 21.594 12 21.594C14.4588 21.594 16.9176 20.658 18.7884 18.7872C22.5312 15.0444 22.5312 8.9544 18.7884 5.2116ZM16.4484 14.7516C16.9176 15.2208 16.9176 15.9792 16.4484 16.4484C16.2144 16.6824 15.9072 16.8 15.6 16.8C15.2928 16.8 14.9856 16.6824 14.7516 16.4484L12 13.6968L9.2484 16.4484C9.0144 16.6824 8.7072 16.8 8.4 16.8C8.0928 16.8 7.7856 16.6824 7.5516 16.4484C7.0824 15.9792 7.0824 15.2208 7.5516 14.7516L10.3032 12L7.5516 9.2484C7.0824 8.7792 7.0824 8.0208 7.5516 7.5516C8.0208 7.0824 8.7792 7.0824 9.2484 7.5516L12 10.3032L14.7516 7.5516C15.2208 7.0824 15.9792 7.0824 16.4484 7.5516C16.9176 8.0208 16.9176 8.7792 16.4484 9.2484L13.6968 12L16.4484 14.7516Z" fill="#F0F4FC"/>
</svg>
