<svg width="24" height="24" viewBox="0 0 24 24" fill="none" xmlns="http://www.w3.org/2000/svg">
<path id="Vector" d="M2.40039 8.39961V15.5996C2.40039 18.2468 4.55319 20.3996 7.20039 20.3996H16.8004C19.4476 20.3996 21.6004 18.2468 21.6004 15.5996V8.39961C21.6004 5.75241 19.4476 3.59961 16.8004 3.59961H7.20039C4.55319 3.59961 2.40039 5.75241 2.40039 8.39961ZM11.152 9.95121C11.6212 9.48201 12.3796 9.48201 12.8488 9.95121L15.424 12.5264L16.4632 11.4872C16.7212 11.2292 17.1052 11.1524 17.4436 11.2928C17.7808 11.432 17.9992 11.7584 17.9992 12.1232V15.8984C17.9992 16.394 17.5948 16.7984 17.0992 16.7984H13.324C12.958 16.7984 12.6328 16.58 12.4936 16.2428C12.3532 15.9056 12.43 15.5192 12.688 15.2624L13.7272 14.2232L11.152 11.648C10.6828 11.1788 10.6828 10.4204 11.152 9.95121Z" fill="#F0F4FC"/>
</svg>
