<svg width="20" height="20" viewBox="0 0 20 20" fill="none" xmlns="http://www.w3.org/2000/svg">
<g clip-path="url(#clip0_51817_156501)">
<path d="M19.3853 8.52471C19.3312 8.1862 19.0415 7.93669 18.6995 7.93669H12.1842H10.865H7.82021C7.35433 7.93669 7.06293 7.43242 7.295 7.0276L9.4761 3.24819C9.70992 2.84338 10.2927 2.84338 10.5265 3.24819C10.5265 3.24819 12.0079 5.82189 12.5541 6.77634C12.678 6.99445 12.91 7.12706 13.1595 7.12706H18.5059C18.7833 7.12706 18.97 6.84788 18.8688 6.58789C17.4328 2.85734 13.7109 0.260958 9.41852 0.517455C5.01968 0.780932 1.32926 4.1311 0.622581 8.48109C0.455073 9.51406 0.465542 10.5191 0.615602 11.477C0.669693 11.8156 0.959343 12.0651 1.30134 12.0651H7.81672H8.82003H12.1807C12.6466 12.0651 12.9379 12.5693 12.7059 12.9742L10.5248 16.7536C10.291 17.1584 9.70817 17.1584 9.47436 16.7536C9.47436 16.7536 7.99121 14.1799 7.44681 13.2254C7.32292 13.0073 7.09085 12.8747 6.84133 12.8747H1.49502C1.21759 12.8747 1.03088 13.1539 1.13209 13.4139C2.56987 17.1497 6.29693 19.7478 10.5963 19.4843C14.9934 19.2156 18.6786 15.8619 19.38 11.5119C19.5458 10.4807 19.5353 9.4809 19.3853 8.52645V8.52471Z" fill="#C9D6E8"/>
</g>
<defs>
<clipPath id="clip0_51817_156501">
<rect width="19" height="19" fill="white" transform="translate(0.5 0.5)"/>
</clipPath>
</defs>
</svg>
