<svg width="120" height="120" viewBox="0 0 120 120" fill="none" xmlns="http://www.w3.org/2000/svg">
<path d="M60 120C93.2502 120 120 93.2502 120 60C120 26.7498 93.2502 0 60 0C26.7498 0 0 26.7498 0 60C0 93.2502 26.7498 120 60 120Z" fill="#2775CA"/>
<path d="M76.4998 69.5C76.4998 60.7502 71.2498 57.7502 60.7498 56.5004C53.2498 55.5002 51.7498 53.5004 51.7498 50C51.7498 46.4996 54.25 44.2502 59.2498 44.2502C63.7498 44.2502 66.25 45.7502 67.4998 49.5002C67.75 50.2502 68.5 50.75 69.25 50.75H73.2496C74.2498 50.75 74.9998 50 74.9998 49.0004V48.7502C73.9996 43.25 69.4996 39.0002 63.7498 38.5004V32.5004C63.7498 31.5002 62.9998 30.7502 61.75 30.5H58C56.9998 30.5 56.2498 31.25 55.9996 32.5004V38.2502C48.4996 39.2504 43.75 44.2502 43.75 50.5004C43.75 58.7504 48.7498 62 59.2498 63.2504C66.25 64.5002 68.5 66.0002 68.5 70.0004C68.5 74.0006 64.9996 76.7504 60.25 76.7504C53.7496 76.7504 51.4996 74 50.7496 70.25C50.5 69.2504 49.75 68.75 49 68.75H44.7496C43.75 68.75 43 69.5 43 70.5002V70.7504C43.9996 77 47.9998 81.5 56.2498 82.7504V88.7504C56.2498 89.75 56.9998 90.5 58.2496 90.7502H61.9996C62.9998 90.7502 63.7498 90.0002 64 88.7504V82.7504C71.5 81.5 76.4998 76.25 76.4998 69.5Z" fill="white"/>
<path fill-rule="evenodd" clip-rule="evenodd" d="M25.0012 47.7496C17.7508 67 27.751 88.75 47.251 95.7496C48.001 96.25 48.751 97.2496 48.751 97.9996V101.5C48.751 102 48.751 102.25 48.5008 102.5C48.2512 103.5 47.251 104 46.2508 103.5C32.251 98.9998 21.5008 88.2496 17.0008 74.2498C9.50077 50.5 22.501 25.2496 46.2508 17.7496C46.501 17.5 47.0008 17.5 47.251 17.5C48.2512 17.7496 48.751 18.4996 48.751 19.4998V22.9996C48.751 24.25 48.2512 25 47.251 25.4998C37.0012 29.2498 28.7512 37.2496 25.0012 47.7496ZM71.5012 18.7498C71.7508 17.7496 72.751 17.2498 73.7512 17.7496C87.5008 22.2496 98.5012 32.9998 103.001 47.2498C110.501 70.9996 97.501 96.25 73.7512 103.75C73.501 104 73.0012 104 72.751 104C71.7508 103.75 71.251 103 71.251 102V98.5C71.251 97.2496 71.7508 96.4996 72.751 95.9998C83.0008 92.2498 91.2508 84.25 95.0008 73.75C102.251 54.4996 92.251 32.7496 72.751 25.75C72.001 25.2496 71.251 24.25 71.251 23.2498V19.75C71.251 19.2496 71.251 19 71.5012 18.7498Z" fill="white"/>
</svg>
