<svg width="24" height="24" viewBox="0 0 24 24" fill="none" xmlns="http://www.w3.org/2000/svg">
<path id="Vector" d="M12.0004 2.40039C6.70719 2.40039 2.40039 6.70719 2.40039 12.0004C2.40039 17.2936 6.70719 21.6004 12.0004 21.6004C17.2936 21.6004 21.6004 17.2936 21.6004 12.0004C21.6004 6.70719 17.2936 2.40039 12.0004 2.40039ZM16.2004 13.2004H13.2004V16.2004C13.2004 16.8628 12.6628 17.4004 12.0004 17.4004C11.338 17.4004 10.8004 16.8628 10.8004 16.2004V13.2004H7.80039C7.13799 13.2004 6.60039 12.6628 6.60039 12.0004C6.60039 11.338 7.13799 10.8004 7.80039 10.8004H10.8004V7.80039C10.8004 7.13799 11.338 6.60039 12.0004 6.60039C12.6628 6.60039 13.2004 7.13799 13.2004 7.80039V10.8004H16.2004C16.8628 10.8004 17.4004 11.338 17.4004 12.0004C17.4004 12.6628 16.8628 13.2004 16.2004 13.2004Z" fill="#F0F4FC"/>
</svg>
