<svg width="24" height="22" viewBox="0 0 24 22" fill="none" xmlns="http://www.w3.org/2000/svg">
<g clip-path="url(#clip0_49019_123754)">
<path d="M6.54849 10.9216C6.49864 11.8013 7.17392 12.5577 8.05322 12.608C8.08421 12.6096 8.11494 12.6107 8.14524 12.6107C8.9911 12.6107 9.69152 11.9486 9.73971 11.1029C9.78974 10.2232 9.1149 9.46676 8.2349 9.41682C7.34983 9.36514 6.5986 10.0457 6.54849 10.9216Z" fill="#02122B"/>
<path d="M0.589588 10.5087C0.304984 10.4923 0.060626 10.7102 0.0448245 10.995C0.0283249 11.2796 0.246057 11.5241 0.530746 11.5402C0.815611 11.5564 1.05988 11.3385 1.07621 11.0539C1.09201 10.7687 0.874453 10.5248 0.589588 10.5087Z" fill="#02122B"/>
<path d="M6.44547 1.64204C6.70004 1.51379 6.8028 1.20309 6.67437 0.948163C6.54569 0.693675 6.23534 0.590921 5.98024 0.719518C5.72576 0.847764 5.62327 1.15847 5.75168 1.41313C5.88011 1.66805 6.19046 1.77028 6.44547 1.64204Z" fill="#02122B"/>
<path d="M8.06813 4.4722C8.46212 4.27394 8.6204 3.79387 8.42196 3.40023C8.22353 3.00658 7.74337 2.84814 7.34964 3.0464C6.956 3.24474 6.79746 3.72482 6.99607 4.11855C7.1945 4.51236 7.6744 4.6709 8.06813 4.4722Z" fill="#02122B"/>
<path d="M2.61149 6.41804C2.9153 6.61727 3.32282 6.53267 3.52204 6.22878C3.721 5.92532 3.63632 5.5177 3.33268 5.31874C3.0287 5.11952 2.62144 5.20429 2.42222 5.50801C2.22299 5.81156 2.30794 6.21917 2.61149 6.41804Z" fill="#02122B"/>
<path d="M3.58385 10.2201C3.14385 10.1949 2.76671 10.5315 2.7413 10.9717C2.71625 11.4122 3.05297 11.7891 3.49306 11.8145C3.93341 11.8394 4.3109 11.5028 4.33578 11.0625C4.36075 10.6221 4.0242 10.2449 3.58385 10.2201Z" fill="#02122B"/>
<path d="M2.69943 15.5863C2.37528 15.7495 2.24494 16.1451 2.40845 16.4692C2.57171 16.7935 2.96727 16.9237 3.29125 16.7605C3.61549 16.5968 3.746 16.2016 3.5824 15.8771C3.41915 15.5532 3.02393 15.4226 2.69943 15.5863Z" fill="#02122B"/>
<path d="M5.80121 8.56842C6.2351 8.85302 6.81749 8.73193 7.10166 8.29787C7.38626 7.86442 7.26517 7.28203 6.83137 6.99786C6.39757 6.71308 5.81544 6.83435 5.53102 7.2678C5.24632 7.70186 5.3675 8.28399 5.80121 8.56842Z" fill="#02122B"/>
<path d="M15.6418 4.4039C16.0106 4.64564 16.5054 4.54262 16.7471 4.17377C16.9891 3.80536 16.8864 3.31045 16.5175 3.06845C16.149 2.82654 15.6539 2.92929 15.4121 3.2984C15.1702 3.66681 15.2733 4.16199 15.6418 4.4039Z" fill="#02122B"/>
<path d="M17.2795 1.59717C17.5177 1.7537 17.8383 1.68691 17.9947 1.44849C18.1509 1.20981 18.0844 0.889677 17.8459 0.733142C17.6076 0.576523 17.2873 0.643395 17.1305 0.881732C16.974 1.1205 17.0409 1.44054 17.2795 1.59717Z" fill="#02122B"/>
<path d="M15.7663 9.39336C14.8813 9.34194 14.1296 10.0223 14.08 10.8978C14.03 11.7777 14.7049 12.5342 15.5845 12.5843C15.6151 12.586 15.646 12.5869 15.6765 12.5869C16.5224 12.5869 17.2227 11.9248 17.2707 11.0798C17.2951 10.6533 17.1517 10.2431 16.8675 9.92494C16.5838 9.60611 16.1924 9.41745 15.7663 9.39336Z" fill="#02122B"/>
<path d="M8.59264 8.45831C8.86572 9.00036 9.41284 9.33752 10.0209 9.33752C10.268 9.33752 10.5165 9.27816 10.7388 9.16633C11.5257 8.76971 11.8433 7.80678 11.4468 7.01984C11.1734 6.47735 10.6264 6.14062 10.0185 6.14062C9.77139 6.14062 9.52293 6.19999 9.30066 6.31156C8.51381 6.70817 8.19612 7.67093 8.59264 8.45831Z" fill="#02122B"/>
<path d="M21.1187 6.4168C21.4426 6.25337 21.5734 5.85806 21.4099 5.53348C21.2463 5.20915 20.8511 5.07899 20.5269 5.24241C20.2025 5.40567 20.072 5.80115 20.2356 6.12538C20.3992 6.44953 20.7942 6.57987 21.1187 6.4168Z" fill="#02122B"/>
<path d="M17.0665 6.92113C16.6029 7.15449 16.4169 7.71933 16.6502 8.18256C16.8837 8.64586 17.4484 8.83191 17.9117 8.59872C18.3748 8.36519 18.5613 7.80035 18.328 7.33704C18.0945 6.8739 17.5296 6.68743 17.0665 6.92113Z" fill="#02122B"/>
<path d="M11.8508 1.35307C12.2133 1.37367 12.5239 1.09666 12.5446 0.733838C12.5651 0.371449 12.288 0.0606607 11.9256 0.0401408C11.5629 0.0195356 11.2521 0.296722 11.2315 0.659372C11.2111 1.02185 11.4881 1.33247 11.8508 1.35307Z" fill="#02122B"/>
<path d="M11.8412 5.48685C12.359 5.51627 12.8029 5.12019 12.8324 4.60222C12.8618 4.08426 12.4657 3.64016 11.9476 3.61091C11.43 3.5815 10.9862 3.97741 10.9566 4.49554C10.9272 5.01333 11.3233 5.45717 11.8412 5.48685Z" fill="#02122B"/>
<path d="M6.75151 15.083C7.21499 14.8495 7.40129 14.2847 7.16811 13.8215C6.93449 13.3584 6.36956 13.1717 5.90651 13.4055C5.44329 13.6389 5.2569 14.2033 5.49026 14.6668C5.72379 15.1299 6.28837 15.3162 6.75151 15.083Z" fill="#02122B"/>
<path d="M12.4488 6.8548C11.9655 7.59171 12.1718 8.58424 12.9087 9.06754C13.1699 9.23891 13.4725 9.32954 13.7838 9.32954C14.3253 9.32954 14.8248 9.05978 15.1217 8.60772C15.6047 7.87064 15.3984 6.87776 14.6616 6.39498C14.4003 6.2236 14.0979 6.13281 13.7866 6.13281C13.2451 6.13281 12.7453 6.40275 12.4488 6.8548Z" fill="#02122B"/>
<path d="M15.2275 13.5357C14.9542 12.9931 14.4068 12.6562 13.7992 12.6562C13.5518 12.6562 13.3033 12.7152 13.081 12.8274C12.6999 13.0195 12.4166 13.3486 12.2829 13.7542C12.1489 14.1594 12.1809 14.5924 12.3733 14.9739C12.6464 15.5162 13.1936 15.8531 13.801 15.8531C14.0487 15.8531 14.2969 15.794 14.5196 15.682C15.3064 15.2856 15.624 14.3225 15.2275 13.5357Z" fill="#02122B"/>
<path d="M18.0196 13.435C17.5861 13.1508 17.0035 13.2719 16.719 13.7053C16.4345 14.1391 16.556 14.7216 16.9895 15.006C17.4234 15.2903 18.0054 15.1695 18.29 14.7354C18.5746 14.3019 18.4537 13.7194 18.0196 13.435Z" fill="#02122B"/>
<path d="M21.078 11.0239C21.1033 10.5836 20.7664 10.2061 20.3259 10.181C19.8859 10.156 19.5087 10.4925 19.4835 10.9332C19.4583 11.3732 19.795 11.7505 20.2355 11.7756C20.6755 11.8008 21.0531 11.4637 21.078 11.0239Z" fill="#02122B"/>
<path d="M23.2875 10.4618C23.0023 10.4458 22.7586 10.6633 22.7421 10.9483C22.7259 11.2331 22.9436 11.4774 23.2288 11.4935C23.5135 11.5096 23.7575 11.2919 23.7737 11.007C23.7902 10.722 23.5724 10.4778 23.2875 10.4618Z" fill="#02122B"/>
<path d="M21.2068 15.5922C20.9029 15.3929 20.4952 15.4778 20.2966 15.7814C20.0973 16.085 20.182 16.4928 20.4857 16.6919C20.7893 16.891 21.1966 16.8064 21.3963 16.5025C21.595 16.1986 21.5107 15.7914 21.2068 15.5922Z" fill="#02122B"/>
<path d="M6.5412 20.4129C6.30269 20.2563 5.98239 20.323 5.82594 20.5615C5.66941 20.8002 5.73593 21.1203 5.97461 21.2768C6.21312 21.4334 6.53343 21.3665 6.68961 21.1281C6.84632 20.8893 6.77971 20.5692 6.5412 20.4129Z" fill="#02122B"/>
<path d="M17.3735 20.3601C17.119 20.4881 17.0165 20.7987 17.1451 21.0538C17.2732 21.3083 17.5837 21.4108 17.8388 21.2823C18.0933 21.1538 18.1962 20.8435 18.0677 20.5888C17.9393 20.3341 17.6285 20.2317 17.3735 20.3601Z" fill="#02122B"/>
<path d="M11.3698 15.1464C11.6037 14.7895 11.685 14.3627 11.5981 13.945C11.511 13.5273 11.2667 13.1681 10.9097 12.934C10.6484 12.7627 10.3456 12.6719 10.0342 12.6719C9.49322 12.6719 8.99316 12.9416 8.69668 13.3939C8.46262 13.7509 8.38152 14.1777 8.46874 14.5956C8.55542 15.0133 8.80004 15.3725 9.15693 15.6065C9.41831 15.7779 9.72081 15.8683 10.0321 15.8683C10.5733 15.8684 11.0732 15.5986 11.3698 15.1464Z" fill="#02122B"/>
<path d="M8.17767 17.5918C7.809 17.3499 7.31426 17.4529 7.07235 17.8215C6.83043 18.1904 6.93328 18.6851 7.30204 18.9271C7.6708 19.1689 8.16589 19.066 8.40762 18.6972C8.64962 18.3283 8.54626 17.8336 8.17767 17.5918Z" fill="#02122B"/>
<path d="M11.903 20.6495C11.5405 20.6288 11.2298 20.9061 11.2091 21.2686C11.1884 21.6314 11.4654 21.9418 11.8282 21.9627C12.1906 21.9831 12.5016 21.706 12.522 21.3433C12.5425 20.9808 12.2654 20.67 11.903 20.6495Z" fill="#02122B"/>
<path d="M11.9086 16.5093C11.391 16.4801 10.9469 16.8758 10.9176 17.3938C10.8881 17.9117 11.284 18.3557 11.8019 18.3849C12.3201 18.4146 12.7639 18.0184 12.7931 17.5006C12.8229 16.9826 12.4267 16.5387 11.9086 16.5093Z" fill="#02122B"/>
<path d="M15.7534 17.5308C15.36 17.7295 15.2015 18.2093 15.4002 18.6033C15.5983 18.9972 16.0784 19.1552 16.4723 18.9568C16.8662 18.7586 17.0242 18.2785 16.826 17.8847C16.6276 17.4909 16.1477 17.3325 15.7534 17.5308Z" fill="#02122B"/>
</g>
<defs>
<clipPath id="clip0_49019_123754">
<rect width="23.746" height="22" fill="white" transform="translate(0.0439453)"/>
</clipPath>
</defs>
</svg>
