<svg width="24" height="24" viewBox="0 0 24 24" fill="none" xmlns="http://www.w3.org/2000/svg">
<path id="Vector" d="M12.0004 21.6004C17.2936 21.6004 21.6004 17.2936 21.6004 12.0004C21.6004 6.70719 17.2936 2.40039 12.0004 2.40039C6.70719 2.40039 2.40039 6.70719 2.40039 12.0004C2.40039 17.2936 6.70719 21.6004 12.0004 21.6004ZM10.8004 7.20039C10.8004 6.53799 11.3368 6.00039 12.0004 6.00039C12.664 6.00039 13.2004 6.53799 13.2004 7.20039V12.6004C13.2004 13.2628 12.664 13.8004 12.0004 13.8004C11.3368 13.8004 10.8004 13.2628 10.8004 12.6004V7.20039ZM12.0004 15.0004C12.8272 15.0004 13.5004 15.6736 13.5004 16.5004C13.5004 17.3272 12.8272 18.0004 12.0004 18.0004C11.1736 18.0004 10.5004 17.3272 10.5004 16.5004C10.5004 15.6736 11.1736 15.0004 12.0004 15.0004Z" fill="#F0F4FC"/>
</svg>
