<svg width="24" height="24" viewBox="0 0 24 24" fill="none" xmlns="http://www.w3.org/2000/svg">
<g id="grip-dots-vertical">
<path id="Vector" d="M7.8 13.8002C8.79411 13.8002 9.6 12.9943 9.6 12.0002C9.6 11.0061 8.79411 10.2002 7.8 10.2002C6.80589 10.2002 6 11.0061 6 12.0002C6 12.9943 6.80589 13.8002 7.8 13.8002Z" fill="#F0F4FC"/>
<path id="Vector_2" d="M7.8 21.6C8.79411 21.6 9.6 20.7941 9.6 19.8C9.6 18.8059 8.79411 18 7.8 18C6.80589 18 6 18.8059 6 19.8C6 20.7941 6.80589 21.6 7.8 21.6Z" fill="#F0F4FC"/>
<path id="Vector_3" d="M7.8 6.00039C8.79411 6.00039 9.6 5.1945 9.6 4.20039C9.6 3.20628 8.79411 2.40039 7.8 2.40039C6.80589 2.40039 6 3.20628 6 4.20039C6 5.1945 6.80589 6.00039 7.8 6.00039Z" fill="#F0F4FC"/>
<path id="Vector_4" d="M16.2004 13.8002C17.1945 13.8002 18.0004 12.9943 18.0004 12.0002C18.0004 11.0061 17.1945 10.2002 16.2004 10.2002C15.2063 10.2002 14.4004 11.0061 14.4004 12.0002C14.4004 12.9943 15.2063 13.8002 16.2004 13.8002Z" fill="#F0F4FC"/>
<path id="Vector_5" d="M16.2004 21.6C17.1945 21.6 18.0004 20.7941 18.0004 19.8C18.0004 18.8059 17.1945 18 16.2004 18C15.2063 18 14.4004 18.8059 14.4004 19.8C14.4004 20.7941 15.2063 21.6 16.2004 21.6Z" fill="#F0F4FC"/>
<path id="Vector_6" d="M16.2004 6.00039C17.1945 6.00039 18.0004 5.1945 18.0004 4.20039C18.0004 3.20628 17.1945 2.40039 16.2004 2.40039C15.2063 2.40039 14.4004 3.20628 14.4004 4.20039C14.4004 5.1945 15.2063 6.00039 16.2004 6.00039Z" fill="#F0F4FC"/>
</g>
</svg>
