<svg width="260" height="212" viewBox="0 0 260 212" fill="none" xmlns="http://www.w3.org/2000/svg">
<path d="M250.95 51.8838H250.069C248.608 51.8838 247.425 52.4714 247.425 53.1954V62.378C247.425 63.1029 246.24 63.6896 244.781 63.6896C241.617 63.6896 239.052 62.4174 239.052 60.847V46.1986C239.052 45.716 238.263 45.3242 237.289 45.3242C236.315 45.3242 235.526 45.716 235.526 46.1986V88.6136C235.526 89.3385 234.342 89.9252 232.882 89.9252C230.691 89.9252 228.916 89.0447 228.916 87.957V57.5681C228.916 56.8432 227.733 56.2565 226.272 56.2565H224.509C223.049 56.2565 221.865 56.8441 221.865 57.5681V71.1235C221.865 71.8484 220.682 72.4351 219.221 72.4351H217.899C216.438 72.4351 215.255 71.8475 215.255 71.1235V49.1505C215.255 48.4868 214.169 47.9482 212.83 47.9482C211.491 47.9482 210.407 48.4868 210.407 49.1505V57.3495C210.407 59.5232 206.856 61.2851 202.475 61.2851C198.094 61.2851 194.542 59.5232 194.542 57.3495V53.1954C194.542 52.4705 193.359 51.8838 191.898 51.8838C190.438 51.8838 189.254 52.4714 189.254 53.1954V72.6537C189.254 73.3777 188.071 73.9652 186.61 73.9652H184.319C182.858 73.9652 181.675 73.3777 181.675 72.6537V42.4816C181.675 41.7568 180.491 41.1701 179.031 41.1701H177.356C175.895 41.1701 174.712 41.7577 174.712 42.4816V56.9228C174.712 57.8059 172.559 58.2484 171.3 57.6241C170.804 57.3784 170.526 57.0443 170.526 56.6963V31.2765C170.526 30.2203 168.799 29.3634 166.67 29.3634C164.54 29.3634 162.814 30.2203 162.814 31.2765V73.0909C162.814 73.8149 161.631 74.4024 160.17 74.4024H157.526C156.065 74.4024 154.882 73.8149 154.882 73.0909V45.6521C154.882 44.5049 153.007 43.5755 150.695 43.5755C148.382 43.5755 146.508 44.5049 146.508 45.6521V88.6145C146.508 89.3394 145.324 89.9261 143.863 89.9261H141.219C139.759 89.9261 138.575 89.3385 138.575 88.6145V67.5159C138.575 65.886 135.912 64.564 132.625 64.564C129.918 64.564 127.637 65.462 126.917 66.6896V55.9068C126.917 55.1819 125.733 54.5952 124.273 54.5952H123.391C121.931 54.5952 120.747 55.1828 120.747 55.9068V65.0895C120.747 65.8143 119.564 66.401 118.103 66.401C114.939 66.401 112.374 65.1288 112.374 63.5584V48.9109C112.374 48.4274 111.585 48.0365 110.611 48.0365C109.638 48.0365 108.849 48.4283 108.849 48.9109V91.326C108.849 92.0508 107.665 92.6375 106.204 92.6375C104.013 92.6375 102.238 91.7561 102.238 90.6693V60.2795C102.238 59.5547 101.055 58.968 99.5942 58.968H97.8314C96.3707 58.968 95.1873 59.5556 95.1873 60.2795V73.835C95.1873 74.5598 94.0038 75.1465 92.5432 75.1465H91.2211C89.7604 75.1465 88.577 74.5589 88.577 73.835V51.8619C88.577 51.1974 87.4916 50.6597 86.1537 50.6597C84.8148 50.6597 83.7294 51.1983 83.7294 51.8619V60.0609C83.7294 62.2346 80.178 63.9965 75.797 63.9965C71.4161 63.9965 67.8647 62.2346 67.8647 60.0609V55.9068C67.8647 55.1819 66.6812 54.5952 65.2206 54.5952C63.7599 54.5952 62.5765 55.1828 62.5765 55.9068V75.3651C62.5765 76.09 61.393 76.6767 59.9323 76.6767H57.641C56.1803 76.6767 54.9969 76.0891 54.9969 75.3651V45.194C54.9969 44.4691 53.8123 43.8824 52.3527 43.8824H50.6779C49.2172 43.8824 48.0338 44.47 48.0338 45.194V59.6351C48.0338 60.5191 45.881 60.9615 44.6221 60.3364C44.1262 60.0907 43.8478 59.7567 43.8478 59.4087V33.9888C43.8478 32.9326 42.1211 32.0757 39.9921 32.0757C37.863 32.0757 36.1363 32.9326 36.1363 33.9888V75.8032C36.1363 76.528 34.9529 77.1147 33.4922 77.1147H30.8481C29.3874 77.1147 28.204 76.5272 28.204 75.8032V48.3636C28.204 47.2164 26.3296 46.2869 24.018 46.2869C21.7064 46.2869 19.8309 47.2173 19.8309 48.3636V91.326C19.8309 92.0508 18.6475 92.6375 17.1868 92.6375H14.5427C13.082 92.6375 11.8985 92.0499 11.8985 91.326V70.2273C11.8985 68.5975 9.23526 67.2754 5.94983 67.2754C2.6644 67.2754 0 68.5966 0 70.2273V107.47V130.681V182.244C0 182.969 1.18342 183.556 2.64411 183.556H3.5255C4.9862 183.556 6.16962 182.968 6.16962 182.244V173.062C6.16962 172.337 7.35417 171.75 8.81373 171.75C11.9774 171.75 14.5427 173.022 14.5427 174.593V189.241C14.5427 189.724 15.3316 190.115 16.3054 190.115C17.2792 190.115 18.0682 189.724 18.0682 189.241V146.826C18.0682 146.101 19.2527 145.514 20.7123 145.514C22.9033 145.514 24.6785 146.396 24.6785 147.483V177.873C24.6785 178.598 25.8619 179.185 27.3226 179.185H29.0853C30.546 179.185 31.7295 178.597 31.7295 177.873V164.318C31.7295 163.593 32.9129 163.006 34.3736 163.006H35.6957C37.1564 163.006 38.3398 163.594 38.3398 164.318V186.291C38.3398 186.955 39.4252 187.493 40.763 187.493C42.102 187.493 43.1873 186.955 43.1873 186.291V178.092C43.1873 175.918 46.7388 174.156 51.1197 174.156C55.5007 174.156 59.0521 175.918 59.0521 178.092V182.246C59.0521 182.971 60.2355 183.558 61.6962 183.558C63.1569 183.558 64.3403 182.97 64.3403 182.246V162.788C64.3403 162.063 65.5237 161.476 66.9844 161.476H69.2758C70.7365 161.476 71.9199 162.064 71.9199 162.788V192.96C71.9199 193.685 73.1033 194.271 74.564 194.271H76.2389C77.6995 194.271 78.883 193.684 78.883 192.96V178.519C78.883 177.635 81.0357 177.193 82.2947 177.817C82.7906 178.063 83.0689 178.397 83.0689 178.745V204.165C83.0689 205.221 84.7956 206.078 86.9247 206.078C89.0537 206.078 90.7804 205.221 90.7804 204.165V162.351C90.7804 161.626 91.9639 161.039 93.4245 161.039H96.0686C97.5293 161.039 98.7128 161.627 98.7128 162.351V189.789C98.7128 190.936 100.587 191.867 102.9 191.867C105.213 191.867 107.087 190.936 107.087 189.789V146.827C107.087 146.102 108.27 145.515 109.731 145.515H112.375C113.836 145.515 115.019 146.103 115.019 146.827V167.926C115.019 169.555 117.683 170.877 120.968 170.877C123.675 170.877 125.956 169.979 126.677 168.752V179.535C126.677 180.26 127.86 180.847 129.321 180.847H130.202C131.663 180.847 132.846 180.259 132.846 179.535V170.353C132.846 169.628 134.03 169.041 135.49 169.041C138.654 169.041 141.219 170.313 141.219 171.884V186.532C141.219 187.015 142.008 187.407 142.982 187.407C143.956 187.407 144.745 187.015 144.745 186.532V144.117C144.745 143.392 145.928 142.806 147.389 142.806C149.58 142.806 151.355 143.687 151.355 144.774V175.164C151.355 175.889 152.539 176.476 153.999 176.476H155.762C157.223 176.476 158.406 175.888 158.406 175.164V161.609C158.406 160.884 159.59 160.297 161.05 160.297H162.372C163.833 160.297 165.016 160.885 165.016 161.609V183.582C165.016 184.246 166.102 184.784 167.44 184.784C168.779 184.784 169.864 184.246 169.864 183.582V175.383C169.864 173.209 173.415 171.448 177.796 171.448C182.177 171.448 185.729 173.209 185.729 175.383V179.537C185.729 180.262 186.912 180.849 188.373 180.849C189.834 180.849 191.017 180.261 191.017 179.537V160.079C191.017 159.355 192.2 158.767 193.661 158.767H195.952C197.413 158.767 198.597 159.355 198.597 160.079V190.251C198.597 190.976 199.781 191.562 201.241 191.562H202.916C204.376 191.562 205.56 190.975 205.56 190.251V175.81C205.56 174.927 207.712 174.484 208.971 175.109C209.467 175.354 209.746 175.688 209.746 176.036V201.456C209.746 202.512 211.472 203.369 213.601 203.369C215.73 203.369 217.457 202.512 217.457 201.456V159.642C217.457 158.917 218.641 158.33 220.101 158.33H222.745C224.206 158.33 225.389 158.918 225.389 159.642V187.08C225.389 188.228 227.264 189.157 229.575 189.157C231.887 189.157 233.763 188.227 233.763 187.08V144.118C233.763 143.393 234.946 142.807 236.407 142.807H239.051C240.511 142.807 241.695 143.394 241.695 144.118V165.217C241.695 166.847 244.358 168.169 247.644 168.169C250.929 168.169 253.593 166.847 253.593 165.217V127.974V104.759V53.1954C253.595 52.4705 252.411 51.8838 250.95 51.8838Z" fill="#0C264D"/>
<g clip-path="url(#clip0_1224_23490)">
<path d="M193.8 173.034L125.996 211.951V100.855L193.8 61.9379V173.034Z" fill="#0439C7"/>
<path d="M188.442 169.841L131.353 202.609V104.047L188.442 71.2805V169.841Z" fill="#0D1C44"/>
<path d="M125.996 211.951L58.193 173.034V61.9379L125.996 100.855V211.951Z" fill="#2155DF"/>
<path d="M120.639 202.609L63.5502 169.841V71.2805L120.639 104.047V202.609Z" fill="#152756"/>
<path d="M115.217 190.135L68.9723 163.592V83.7537L115.217 110.296V190.135Z" fill="#0D1C44"/>
<path d="M112.873 185.892L71.317 162.04V87.9968L112.873 111.848V185.892Z" fill="#152756"/>
<path d="M87.6487 114.188L86.0098 113.248C85.24 112.806 84.6157 111.62 84.6157 110.6V109.214C84.6157 108.193 85.24 107.724 86.0098 108.166L87.6487 109.107C88.4187 109.549 89.0426 110.734 89.0426 111.755V113.14C89.0426 114.161 88.4187 114.63 87.6487 114.188Z" fill="#0D1C44"/>
<path d="M86.9506 112.284L86.7082 112.145C86.276 111.897 85.9258 111.232 85.9258 110.658C85.9258 110.086 86.276 109.822 86.7082 110.07L86.9506 110.209C87.3828 110.457 87.7331 111.123 87.7331 111.696C87.7331 112.269 87.3828 112.532 86.9506 112.284Z" fill="#33E6BF"/>
<path d="M92.914 117.211L91.2752 116.27C90.5053 115.828 89.8812 114.642 89.8812 113.622V112.236C89.8812 111.215 90.5053 110.746 91.2752 111.188L92.914 112.128C93.6842 112.571 94.3082 113.756 94.3082 114.777V116.163C94.3082 117.183 93.6842 117.652 92.914 117.211Z" fill="#0D1C44"/>
<path d="M92.2158 115.306L91.9734 115.167C91.5414 114.919 91.191 114.253 91.191 113.681C91.191 113.107 91.5414 112.844 91.9734 113.092L92.2158 113.231C92.648 113.479 92.9982 114.145 92.9982 114.718C92.9982 115.291 92.648 115.554 92.2158 115.306Z" fill="#33E6BF"/>
<path d="M98.1795 120.232L96.5404 119.292C95.7704 118.85 95.1465 117.665 95.1465 116.644V115.258C95.1465 114.238 95.7704 113.768 96.5404 114.21L98.1795 115.151C98.9493 115.592 99.5734 116.778 99.5734 117.799V119.185C99.5734 120.206 98.9493 120.675 98.1795 120.232Z" fill="#0D1C44"/>
<path d="M97.4811 118.328L97.2387 118.189C96.8066 117.941 96.4563 117.275 96.4563 116.702C96.4563 116.13 96.8066 115.867 97.2387 116.115L97.4811 116.254C97.9133 116.501 98.2636 117.167 98.2636 117.74C98.2636 118.313 97.9133 118.576 97.4811 118.328Z" fill="#33E6BF"/>
<path d="M87.6487 120.84L86.0098 119.899C85.24 119.458 84.6157 118.272 84.6157 117.251V115.865C84.6157 114.845 85.24 114.376 86.0098 114.818L87.6487 115.758C88.4187 116.2 89.0426 117.386 89.0426 118.406V119.792C89.0426 120.812 88.4187 121.282 87.6487 120.84Z" fill="#0D1C44"/>
<path d="M86.9506 118.935L86.7082 118.796C86.276 118.548 85.9258 117.883 85.9258 117.31C85.9258 116.737 86.276 116.474 86.7082 116.722L86.9506 116.861C87.3828 117.109 87.7331 117.775 87.7331 118.347C87.7331 118.92 87.3828 119.184 86.9506 118.935Z" fill="#33E6BF"/>
<path d="M92.914 123.862L91.2752 122.922C90.5053 122.479 89.8812 121.294 89.8812 120.273V118.887C89.8812 117.867 90.5053 117.397 91.2752 117.84L92.914 118.78C93.6842 119.222 94.3082 120.407 94.3082 121.428V122.814C94.3082 123.835 93.6842 124.304 92.914 123.862Z" fill="#0D1C44"/>
<path d="M92.2158 121.958L91.9734 121.819C91.5414 121.57 91.191 120.905 91.191 120.332C91.191 119.759 91.5414 119.496 91.9734 119.744L92.2158 119.883C92.648 120.131 92.9982 120.796 92.9982 121.369C92.9982 121.943 92.648 122.205 92.2158 121.958Z" fill="#33E6BF"/>
<path d="M98.1795 126.884L96.5404 125.943C95.7704 125.502 95.1465 124.316 95.1465 123.295V121.909C95.1465 120.889 95.7704 120.42 96.5404 120.862L98.1795 121.802C98.9493 122.244 99.5734 123.43 99.5734 124.45V125.836C99.5734 126.857 98.9493 127.326 98.1795 126.884Z" fill="#0D1C44"/>
<path d="M97.4811 124.98L97.2387 124.841C96.8066 124.593 96.4563 123.927 96.4563 123.354C96.4563 122.782 96.8066 122.518 97.2387 122.766L97.4811 122.905C97.9133 123.153 98.2636 123.819 98.2636 124.392C98.2636 124.964 97.9133 125.228 97.4811 124.98Z" fill="#33E6BF"/>
<path d="M87.6487 127.491L86.0098 126.551C85.24 126.109 84.6157 124.923 84.6157 123.902V122.517C84.6157 121.496 85.24 121.027 86.0098 121.469L87.6487 122.41C88.4187 122.852 89.0426 124.037 89.0426 125.058V126.444C89.0426 127.464 88.4187 127.933 87.6487 127.491Z" fill="#0D1C44"/>
<path d="M86.9506 125.587L86.7082 125.448C86.276 125.2 85.9258 124.534 85.9258 123.961C85.9258 123.389 86.276 123.125 86.7082 123.373L86.9506 123.512C87.3828 123.761 87.7331 124.426 87.7331 124.999C87.7331 125.572 87.3828 125.835 86.9506 125.587Z" fill="#33E6BF"/>
<path d="M92.914 130.514L91.2752 129.573C90.5053 129.131 89.8812 127.945 89.8812 126.925V125.539C89.8812 124.518 90.5053 124.049 91.2752 124.491L92.914 125.431C93.6842 125.874 94.3082 127.059 94.3082 128.08V129.466C94.3082 130.486 93.6842 130.956 92.914 130.514Z" fill="#0D1C44"/>
<path d="M92.2158 128.609L91.9734 128.47C91.5414 128.222 91.191 127.557 91.191 126.983C91.191 126.411 91.5414 126.147 91.9734 126.395L92.2158 126.535C92.648 126.783 92.9982 127.448 92.9982 128.021C92.9982 128.594 92.648 128.857 92.2158 128.609Z" fill="#33E6BF"/>
<path d="M98.1795 133.535L96.5404 132.595C95.7704 132.153 95.1465 130.968 95.1465 129.947V128.561C95.1465 127.541 95.7704 127.071 96.5404 127.513L98.1795 128.454C98.9493 128.895 99.5734 130.081 99.5734 131.102V132.488C99.5734 133.509 98.9493 133.978 98.1795 133.535Z" fill="#0D1C44"/>
<path d="M97.4811 131.631L97.2387 131.492C96.8066 131.244 96.4563 130.578 96.4563 130.006C96.4563 129.433 96.8066 129.17 97.2387 129.417L97.4811 129.556C97.9133 129.805 98.2636 130.47 98.2636 131.043C98.2636 131.616 97.9133 131.879 97.4811 131.631Z" fill="#33E6BF"/>
<path d="M92.914 137.165L91.2752 136.224C90.5053 135.782 89.8812 134.597 89.8812 133.577V132.191C89.8812 131.17 90.5053 130.7 91.2752 131.143L92.914 132.083C93.6842 132.525 94.3082 133.711 94.3082 134.732V136.117C94.3082 137.138 93.6842 137.607 92.914 137.165Z" fill="#0D1C44"/>
<path d="M92.2158 135.26L91.9734 135.121C91.5414 134.874 91.191 134.208 91.191 133.635C91.191 133.062 91.5414 132.799 91.9734 133.047L92.2158 133.186C92.648 133.434 92.9982 134.099 92.9982 134.672C92.9982 135.245 92.648 135.509 92.2158 135.26Z" fill="#33E6BF"/>
<path d="M193.798 61.8736L125.995 22.9568L58.1942 61.8723L125.997 100.789L193.798 61.8736Z" fill="#4879FD"/>
<path d="M183.085 61.8737L125.995 29.1063L68.908 61.8724L125.997 94.6401L183.085 61.8737Z" fill="#314D99"/>
<path d="M77.3777 154.399L81.0526 152.276C81.839 157.222 84.9251 162.536 88.851 165.704L85.1757 167.827C81.2501 164.659 78.1639 159.345 77.3777 154.399Z" fill="#4879FD"/>
<path d="M80.099 145.657L83.7741 143.534C82.429 144.311 81.4669 145.739 81.0657 147.711L77.3905 149.835C77.7918 147.862 78.7539 146.434 80.099 145.657Z" fill="#4879FD"/>
<path d="M97.9808 167.798L94.3056 169.921C92.9411 170.709 91.1813 170.814 89.2043 170.139L92.8794 168.016C94.8562 168.69 96.6162 168.585 97.9808 167.798Z" fill="#4879FD"/>
<path d="M89.2297 161.202L92.9048 159.078L92.8794 168.016L89.2043 170.139L89.2297 161.202Z" fill="#4879FD"/>
<path d="M77.3905 149.835L81.0657 147.711L88.8893 152.202L85.2141 154.325L77.3905 149.835Z" fill="#4879FD"/>
<path d="M89.2427 156.638L92.9177 154.514L100.708 158.986L97.0328 161.109L89.2427 156.638Z" fill="#4879FD"/>
<path d="M89.2679 147.738L92.9433 145.615L92.9177 154.514L89.2427 156.638L89.2679 147.738Z" fill="#4879FD"/>
<path d="M77.0753 140.417L80.7502 138.294C83.3498 136.792 86.948 136.994 90.9271 139.278L87.252 141.401C83.2729 139.117 79.6748 138.916 77.0753 140.417Z" fill="#4879FD"/>
<path d="M101.026 172.988L97.3512 175.11C99.919 173.627 101.508 170.468 101.521 165.971C101.547 156.995 95.1755 145.949 87.2521 141.401L90.9271 139.278C98.8506 143.826 105.221 154.872 105.196 163.847C105.183 168.344 103.594 171.504 101.026 172.988Z" fill="#4879FD"/>
<path d="M89.2427 156.638L97.0328 161.109C96.2467 156.201 93.1937 150.906 89.2679 147.738L89.2427 156.638ZM85.2141 154.325L85.2396 145.427C81.3087 144.084 78.2021 145.844 77.3905 149.835L85.2141 154.325ZM89.2043 170.139C93.1351 171.481 96.2079 169.74 97.0201 165.673L89.2297 161.202L89.2043 170.139ZM85.1757 167.827L85.2013 158.889L77.3777 154.399C78.1639 159.345 81.2501 164.659 85.1757 167.827ZM87.252 141.401C95.1755 145.949 101.547 156.995 101.521 165.971C101.495 175.022 95.0822 178.656 87.1586 174.108C79.235 169.559 72.8639 158.589 72.8898 149.537C72.9154 140.562 79.3284 136.853 87.252 141.401Z" fill="#0439C7"/>
</g>
<g opacity="0.9" clip-path="url(#clip1_1224_23490)">
<path d="M39.5073 129.185L25.0925 137.685V121.068L39.5073 112.861V129.185Z" fill="#15D7AC"/>
<path d="M38.3684 128.396L26.2313 135.616V121.741L38.3684 114.831V128.396Z" fill="#072E25"/>
<path d="M25.0925 137.572L10.6776 129.691V112.861L25.0925 121.068V137.572Z" fill="#33E6BF"/>
<path d="M23.9535 135.546L11.8165 128.622V114.831L23.9535 121.741V135.546Z" fill="#0C4A3D"/>
<path d="M39.5071 112.848L25.0922 104.641L10.6779 112.847L25.0927 121.054L39.5071 112.848Z" fill="#A6FBE8"/>
<path d="M37.2294 112.848L25.0923 105.937L12.9556 112.847L25.0927 119.757L37.2294 112.848Z" fill="#45B19A"/>
</g>
<g opacity="0.9" clip-path="url(#clip2_1224_23490)">
<path d="M50.7188 158.657L41.6428 163.867V153.682L50.7188 148.652V158.657Z" fill="#15D7AC"/>
<path d="M50.0017 158.174L42.3598 162.599V154.095L50.0017 149.86V158.174Z" fill="#072E25"/>
<path d="M41.6427 163.798L32.5667 158.968V148.652L41.6427 153.682V163.798Z" fill="#33E6BF"/>
<path d="M40.9256 162.556L33.2838 158.312V149.86L40.9256 154.095V162.556Z" fill="#0C4A3D"/>
<path d="M50.7186 148.644L41.6426 143.614L32.5669 148.644L41.6429 153.674L50.7186 148.644Z" fill="#A6FBE8"/>
<path d="M49.2845 148.644L41.6426 144.409L34.001 148.644L41.6428 152.879L49.2845 148.644Z" fill="#45B19A"/>
</g>
<g opacity="0.9" clip-path="url(#clip3_1224_23490)">
<path d="M84.3533 24.544L69.9385 33.0443V16.4275L84.3533 8.22048V24.544Z" fill="#15D7AC"/>
<path d="M83.2145 23.7558L71.0774 30.9756V17.1007L83.2145 10.1906V23.7558Z" fill="#072E25"/>
<path d="M69.9385 32.9318L55.5236 25.0507V8.22052L69.9385 16.4275V32.9318Z" fill="#33E6BF"/>
<path d="M68.7995 30.9052L56.6625 23.981V10.1907L68.7995 17.1007V30.9052Z" fill="#0C4A3D"/>
<path d="M84.3531 8.2069L69.9382 -3.62396e-05L55.5239 8.20664L69.9387 16.4136L84.3531 8.2069Z" fill="#A6FBE8"/>
<path d="M82.0754 8.20688L69.9383 1.29676L57.8016 8.20662L69.9387 15.1168L82.0754 8.20688Z" fill="#45B19A"/>
</g>
<g opacity="0.9" clip-path="url(#clip4_1224_23490)">
<path d="M223.696 100.667L211.417 107.797V93.8601L223.696 86.9768V100.667Z" fill="#15D7AC"/>
<path d="M222.726 100.006L212.387 106.062V94.4247L222.726 88.6292V100.006Z" fill="#072E25"/>
<path d="M211.417 107.702L199.138 101.092V86.9767L211.417 93.86V107.702Z" fill="#33E6BF"/>
<path d="M210.447 106.003L200.108 100.195V88.6292L210.447 94.4247V106.003Z" fill="#0C4A3D"/>
<path d="M223.696 86.9654L211.417 80.0821L199.138 86.9652L211.417 93.8484L223.696 86.9654Z" fill="#A6FBE8"/>
<path d="M221.756 86.9654L211.417 81.1698L201.078 86.9652L211.417 92.7609L221.756 86.9654Z" fill="#45B19A"/>
</g>
<g opacity="0.9" clip-path="url(#clip5_1224_23490)">
<path d="M260 139.532L241.848 149.952V129.583L260 119.522V139.532Z" fill="#15D7AC"/>
<path d="M258.566 138.566L243.282 147.416V130.408L258.566 121.937V138.566Z" fill="#072E25"/>
<path d="M241.848 149.813L223.696 140.153V119.522L241.848 129.582V149.813Z" fill="#33E6BF"/>
<path d="M240.414 147.329L225.13 138.842V121.937L240.414 130.408V147.329Z" fill="#0C4A3D"/>
<path d="M260 119.506L241.848 109.446L223.696 119.505L241.848 129.566L260 119.506Z" fill="#A6FBE8"/>
<path d="M257.132 119.506L241.848 111.035L226.565 119.505L241.848 127.976L257.132 119.506Z" fill="#45B19A"/>
</g>
<defs>
<clipPath id="clip0_1224_23490">
<rect width="135.606" height="188.994" fill="white" transform="translate(58.193 22.9569)"/>
</clipPath>
<clipPath id="clip1_1224_23490">
<rect width="28.8296" height="33.1006" fill="white" transform="translate(10.6776 104.641)"/>
</clipPath>
<clipPath id="clip2_1224_23490">
<rect width="18.152" height="20.2875" fill="white" transform="translate(32.5667 143.614)"/>
</clipPath>
<clipPath id="clip3_1224_23490">
<rect width="28.8296" height="33.1006" fill="white" transform="translate(55.5236)"/>
</clipPath>
<clipPath id="clip4_1224_23490">
<rect width="24.5585" height="27.7618" fill="white" transform="translate(199.138 80.0822)"/>
</clipPath>
<clipPath id="clip5_1224_23490">
<rect width="36.3039" height="40.5749" fill="white" transform="translate(223.696 109.446)"/>
</clipPath>
</defs>
</svg>
