<svg width="24" height="24" viewBox="0 0 24 24" fill="none" xmlns="http://www.w3.org/2000/svg">
<g id="slider">
<path id="Vector" d="M3.59961 7.2002H11.9996" stroke="#F0F4FC" stroke-width="2" stroke-linecap="round" stroke-linejoin="round"/>
<path id="Vector_2" d="M15 10.2002C16.6569 10.2002 18 8.85705 18 7.2002C18 5.54334 16.6569 4.2002 15 4.2002C13.3431 4.2002 12 5.54334 12 7.2002C12 8.85705 13.3431 10.2002 15 10.2002Z" stroke="#F0F4FC" stroke-width="2" stroke-linecap="round" stroke-linejoin="round"/>
<path id="Vector_3" d="M18 7.2002H20.4" stroke="#F0F4FC" stroke-width="2" stroke-linecap="round" stroke-linejoin="round"/>
<path id="Vector_4" d="M20.4 16.7998H12" stroke="#F0F4FC" stroke-width="2" stroke-linecap="round" stroke-linejoin="round"/>
<path id="Vector_5" d="M9 19.7998C10.6569 19.7998 12 18.4567 12 16.7998C12 15.143 10.6569 13.7998 9 13.7998C7.34315 13.7998 6 15.143 6 16.7998C6 18.4567 7.34315 19.7998 9 19.7998Z" stroke="#F0F4FC" stroke-width="2" stroke-linecap="round" stroke-linejoin="round"/>
<path id="Vector_6" d="M5.99961 16.7998H3.59961" stroke="#F0F4FC" stroke-width="2" stroke-linecap="round" stroke-linejoin="round"/>
</g>
</svg>
