<svg width="24" height="24" viewBox="0 0 24 24" fill="none" xmlns="http://www.w3.org/2000/svg">
<path fill-rule="evenodd" clip-rule="evenodd" d="M19.0781 0H4.92188C2.20673 0.00726562 0.007305 2.2065 0 4.92188L9.4e-05 19.0783C0.007313 21.7934 2.20659 23.9927 4.92188 24L19.0783 23.9999C21.7935 23.9927 23.9927 21.7934 24 19.0781V4.92169C23.9927 2.2065 21.7935 0.00726562 19.0781 0ZM14.1458 6.22238C15.2323 6.40624 16.29 6.73146 17.292 7.18973C19.0176 9.7128 19.875 12.5585 19.5585 15.8418C18.3923 16.7039 17.0864 17.3588 15.698 17.7777C15.3855 17.3581 15.109 16.9127 14.8716 16.4465C15.3238 16.2776 15.7602 16.0692 16.1758 15.8235C16.0679 15.7504 15.9611 15.6689 15.8568 15.5837C14.6508 16.1502 13.3332 16.4456 12 16.4456C10.6668 16.4456 9.34912 16.1502 8.14322 15.5838C8.04009 15.663 7.93336 15.7445 7.82423 15.8236C8.23895 16.0688 8.6746 16.2767 9.12605 16.4449C8.88942 16.9102 8.61075 17.3573 8.29964 17.7772C6.91238 17.3569 5.60743 16.7019 4.44145 15.8407C4.17164 13.0094 4.71127 10.1373 6.70247 7.19166C7.70506 6.73372 8.76285 6.40786 9.84933 6.22223C9.99769 6.48708 10.1344 6.76256 10.2521 7.04039C10.8284 6.95461 11.4147 6.91027 11.9982 6.91027C12.5826 6.91048 13.1662 6.95435 13.7441 7.04152C13.8637 6.76168 13.9978 6.48826 14.1458 6.22238ZM19.5585 15.8418C19.5585 15.8418 19.5585 15.8418 19.5585 15.8419L19.5588 15.8415C19.5587 15.8416 19.5586 15.8417 19.5585 15.8418ZM8.09419 12.5777C8.09419 13.4171 8.71537 14.0995 9.46725 14.0995C10.2336 14.0995 10.8259 13.4171 10.8391 12.5777C10.8523 11.7383 10.236 11.0499 9.46486 11.0499C8.69377 11.0499 8.09419 11.7383 8.09419 12.5777ZM13.1608 12.5777C13.1608 13.4171 13.7796 14.0995 14.5327 14.0995C15.2989 14.0995 15.8902 13.4171 15.9033 12.5777C15.9165 11.7383 15.3049 11.0499 14.5327 11.0499C13.7603 11.0499 13.1608 11.7383 13.1608 12.5777Z" fill="#33E6BF"/>
</svg>
