<svg width="20" height="20" viewBox="0 0 20 20" fill="none" xmlns="http://www.w3.org/2000/svg">
<path d="M10 8.95898C10.6904 8.95898 11.25 8.39934 11.25 7.70898C11.25 7.01863 10.6904 6.45898 10 6.45898C9.30964 6.45898 8.75 7.01863 8.75 7.70898C8.75 8.39934 9.30964 8.95898 10 8.95898Z" stroke="#4879FD" stroke-width="1.5" stroke-linecap="round" stroke-linejoin="round"/>
<path d="M6.45831 17.709L9.79165 7.70898H10.2083L13.5416 17.709" stroke="#4879FD" stroke-width="1.5" stroke-linecap="round" stroke-linejoin="round"/>
<path d="M7.91669 14.791H12.0834" stroke="#4879FD" stroke-width="1.5" stroke-linecap="round" stroke-linejoin="round"/>
<path d="M6.46413 10.6244C5.06754 8.93552 5.06754 6.48001 6.46413 4.79102M13.5359 4.79102C14.9325 6.48001 14.9325 8.93552 13.5359 10.6244" stroke="#4879FD" stroke-width="1.5" stroke-linecap="round" stroke-linejoin="round"/>
<path d="M4.22076 2.29718C1.36902 5.33954 1.37083 10.0842 4.22619 13.1243M15.7734 2.29102C18.631 5.33312 18.6311 10.0821 15.7737 13.1243" stroke="#4879FD" stroke-width="1.5" stroke-linecap="round" stroke-linejoin="round"/>
</svg>
