<svg width="32" height="32" viewBox="0 0 32 32" fill="none" xmlns="http://www.w3.org/2000/svg">
<path d="M14.4759 22.5134L16.1682 16.8069L18.805 16.0592L19.356 14.1701L16.7585 14.9572L19.5134 5.59061V5.44106C19.5114 5.3811 19.4975 5.32213 19.4727 5.26751C19.4479 5.2129 19.4125 5.16372 19.3686 5.12278C19.3248 5.08184 19.2733 5.04995 19.2171 5.02893C19.1609 5.00792 19.1011 4.99818 19.0411 5.00028H15.5385C15.4059 4.99619 15.2758 5.03659 15.1688 5.11505C15.0618 5.1935 14.9841 5.30549 14.9482 5.43319L11.6817 16.5314L9.08423 17.3185L8.4939 19.1289L11.0914 18.3418L8.76938 26.2522H22.6225C22.7554 26.2577 22.8862 26.2178 22.9935 26.1392C23.1008 26.0605 23.1781 25.9477 23.2128 25.8193L23.9999 23.1038V22.9542C23.9979 22.8943 23.9841 22.8353 23.9592 22.7807C23.9344 22.7261 23.899 22.6769 23.8552 22.6359C23.8113 22.595 23.7598 22.5631 23.7036 22.5421C23.6474 22.5211 23.5876 22.5113 23.5277 22.5134H14.4759Z" fill="#02122B"/>
</svg>
