<svg width="24" height="24" viewBox="0 0 24 24" fill="none" xmlns="http://www.w3.org/2000/svg">
<path d="M7 9.99978V6.99978C7.00005 5.89915 7.36326 4.82929 8.03329 3.95611C8.70333 3.08294 9.64276 2.45524 10.7059 2.17038C11.769 1.88551 12.8964 1.95939 13.9133 2.38055C14.9302 2.80172 15.7796 3.54664 16.33 4.49978M13 15.9998C13 16.552 12.5523 16.9998 12 16.9998C11.4477 16.9998 11 16.552 11 15.9998C11 15.4475 11.4477 14.9998 12 14.9998C12.5523 14.9998 13 15.4475 13 15.9998ZM5 9.99976H19C20.1046 9.99976 21 10.8952 21 11.9998V19.9998C21 21.1043 20.1046 21.9998 19 21.9998H5C3.89543 21.9998 3 21.1043 3 19.9998V11.9998C3 10.8952 3.89543 9.99976 5 9.99976Z" stroke="#F0F4FC" stroke-width="2" stroke-linecap="round" stroke-linejoin="round"/>
</svg>
