<svg width="161" height="45" viewBox="0 0 161 45" fill="none" xmlns="http://www.w3.org/2000/svg">
<path d="M22.668 26.2151L3.77571 37.1504L1 34.3747L17.5617 23.2461L22.668 26.2151Z" fill="url(#paint0_linear_1214_9747)"/>
<path d="M23.0951 26.9547L4.1787 37.8483L5.19465 41.64L23.1131 32.8614L23.0951 26.9547Z" fill="url(#paint1_linear_1214_9747)"/>
<path d="M23.8461 26.9547L42.7624 37.8483L41.7465 41.64L23.828 32.8614L23.8461 26.9547Z" fill="url(#paint2_linear_1214_9747)"/>
<path d="M24.2731 26.2151L43.1654 37.1503L45.9411 34.3746L29.3794 23.2461L24.2731 26.2151Z" fill="url(#paint3_linear_1214_9747)"/>
<path d="M23.8461 25.407L23.822 3.57813L27.6137 2.56213L28.9705 22.4693L23.8461 25.407Z" fill="url(#paint4_linear_1214_9747)"/>
<path d="M22.992 25.407L23.0161 3.57813L19.2244 2.56213L17.8677 22.4693L22.992 25.407Z" fill="url(#paint5_linear_1214_9747)"/>
<path d="M22.668 26.2151L3.77571 37.1504L1 34.3747L17.5617 23.2461L22.668 26.2151Z" stroke="url(#paint6_linear_1214_9747)" stroke-width="0.247725"/>
<path d="M23.0951 26.9547L4.1787 37.8483L5.19465 41.64L23.1131 32.8614L23.0951 26.9547Z" stroke="url(#paint7_linear_1214_9747)" stroke-width="0.247725"/>
<path d="M23.8461 26.9547L42.7624 37.8483L41.7465 41.64L23.828 32.8614L23.8461 26.9547Z" stroke="url(#paint8_linear_1214_9747)" stroke-width="0.247725"/>
<path d="M24.2731 26.2151L43.1654 37.1503L45.9411 34.3746L29.3794 23.2461L24.2731 26.2151Z" stroke="url(#paint9_linear_1214_9747)" stroke-width="0.247725"/>
<path d="M23.8461 25.407L23.822 3.57813L27.6137 2.56213L28.9705 22.4693L23.8461 25.407Z" stroke="url(#paint10_linear_1214_9747)" stroke-width="0.247725"/>
<path d="M22.992 25.407L23.0161 3.57813L19.2244 2.56213L17.8677 22.4693L22.992 25.407Z" stroke="url(#paint11_linear_1214_9747)" stroke-width="0.247725"/>
<path d="M78.1909 9.40799H83.0215L71.6881 35.4191H66.9318L55.5613 9.40799H60.8007L69.4586 29.4737L78.1909 9.40799ZM91.9332 35.6792C85.8392 35.6792 81.3802 31.4431 81.3802 25.4977C81.3802 19.5523 85.8392 15.3534 91.9332 15.3534C98.1016 15.3534 102.523 19.5523 102.523 25.4977C102.523 31.4431 98.1016 35.6792 91.9332 35.6792ZM91.9332 31.7032C95.3147 31.7032 97.8415 29.2879 97.8415 25.4977C97.8415 21.7075 95.3147 19.2922 91.9332 19.2922C88.589 19.2922 86.0622 21.7075 86.0622 25.4977C86.0622 29.2879 88.589 31.7032 91.9332 31.7032ZM106.148 35.4191V7.84732H110.792V35.4191H106.148ZM127.678 31.0343L128.979 34.3415C127.864 35.2333 126.192 35.6792 124.52 35.6792C120.172 35.6792 117.683 33.3753 117.683 28.9906V19.4408H114.413V15.725H117.683V11.1916H122.328V15.725H127.641V19.4408H122.328V28.8791C122.328 30.8114 123.294 31.8518 125.077 31.8518C126.043 31.8518 126.972 31.5917 127.678 31.0343ZM134.323 12.3064C132.614 12.3064 131.351 11.0801 131.351 9.51946C131.351 7.9588 132.614 6.73256 134.323 6.73256C136.033 6.73256 137.296 7.88448 137.296 9.40799C137.296 11.043 136.07 12.3064 134.323 12.3064ZM131.982 35.4191V15.5763H136.627V35.4191H131.982ZM159.779 35.4191H154.54L149.449 28.5447L144.321 35.4191H139.194L146.923 25.3491L139.528 15.5763H144.693L149.561 22.0791L154.429 15.5763H159.445L152.013 25.2747L159.779 35.4191Z" fill="white"/>
<defs>
<linearGradient id="paint0_linear_1214_9747" x1="23.4706" y1="2.56213" x2="23.4706" y2="41.64" gradientUnits="userSpaceOnUse">
<stop stop-color="#33E6BF"/>
<stop offset="1" stop-color="#0439C7"/>
</linearGradient>
<linearGradient id="paint1_linear_1214_9747" x1="23.4706" y1="2.56213" x2="23.4706" y2="41.64" gradientUnits="userSpaceOnUse">
<stop stop-color="#33E6BF"/>
<stop offset="1" stop-color="#0439C7"/>
</linearGradient>
<linearGradient id="paint2_linear_1214_9747" x1="23.4706" y1="2.56213" x2="23.4706" y2="41.64" gradientUnits="userSpaceOnUse">
<stop stop-color="#33E6BF"/>
<stop offset="1" stop-color="#0439C7"/>
</linearGradient>
<linearGradient id="paint3_linear_1214_9747" x1="23.4706" y1="2.56213" x2="23.4706" y2="41.64" gradientUnits="userSpaceOnUse">
<stop stop-color="#33E6BF"/>
<stop offset="1" stop-color="#0439C7"/>
</linearGradient>
<linearGradient id="paint4_linear_1214_9747" x1="23.4706" y1="2.56213" x2="23.4706" y2="41.64" gradientUnits="userSpaceOnUse">
<stop stop-color="#33E6BF"/>
<stop offset="1" stop-color="#0439C7"/>
</linearGradient>
<linearGradient id="paint5_linear_1214_9747" x1="23.4706" y1="2.56213" x2="23.4706" y2="41.64" gradientUnits="userSpaceOnUse">
<stop stop-color="#33E6BF"/>
<stop offset="1" stop-color="#0439C7"/>
</linearGradient>
<linearGradient id="paint6_linear_1214_9747" x1="23.4706" y1="2.56213" x2="23.4706" y2="41.64" gradientUnits="userSpaceOnUse">
<stop stop-color="#33E6BF"/>
<stop offset="1" stop-color="#0439C7"/>
</linearGradient>
<linearGradient id="paint7_linear_1214_9747" x1="23.4706" y1="2.56213" x2="23.4706" y2="41.64" gradientUnits="userSpaceOnUse">
<stop stop-color="#33E6BF"/>
<stop offset="1" stop-color="#0439C7"/>
</linearGradient>
<linearGradient id="paint8_linear_1214_9747" x1="23.4706" y1="2.56213" x2="23.4706" y2="41.64" gradientUnits="userSpaceOnUse">
<stop stop-color="#33E6BF"/>
<stop offset="1" stop-color="#0439C7"/>
</linearGradient>
<linearGradient id="paint9_linear_1214_9747" x1="23.4706" y1="2.56213" x2="23.4706" y2="41.64" gradientUnits="userSpaceOnUse">
<stop stop-color="#33E6BF"/>
<stop offset="1" stop-color="#0439C7"/>
</linearGradient>
<linearGradient id="paint10_linear_1214_9747" x1="23.4706" y1="2.56213" x2="23.4706" y2="41.64" gradientUnits="userSpaceOnUse">
<stop stop-color="#33E6BF"/>
<stop offset="1" stop-color="#0439C7"/>
</linearGradient>
<linearGradient id="paint11_linear_1214_9747" x1="23.4706" y1="2.56213" x2="23.4706" y2="41.64" gradientUnits="userSpaceOnUse">
<stop stop-color="#33E6BF"/>
<stop offset="1" stop-color="#0439C7"/>
</linearGradient>
</defs>
</svg>
