<svg width="24" height="24" viewBox="0 0 24 24" fill="none" xmlns="http://www.w3.org/2000/svg">
<path id="Vector" d="M10.8008 20.4003C12.7856 16.8759 13.8428 15.9675 14.4224 16.1487C15.3512 16.4379 15.0812 19.5459 16.064 19.7271C16.7888 19.8615 17.4308 18.2643 18.2108 18.4635C18.8408 18.6243 18.8024 19.7595 19.5152 19.9791C19.802 20.0667 20.1104 19.9791 20.3996 19.8171" stroke="#F0F4FC" stroke-width="2" stroke-linecap="round" stroke-linejoin="round"/>
<path id="Vector_2" d="M7.19961 16.7996L5.39961 20.3996L3.59961 16.7996V4.79961C3.59961 4.13721 4.13721 3.59961 4.79961 3.59961H5.99961C6.66201 3.59961 7.19961 4.13721 7.19961 4.79961V16.7996Z" fill="#F0F4FC" stroke="#F0F4FC" stroke-width="2" stroke-linecap="round" stroke-linejoin="round"/>
<path id="Vector_3" d="M4.80078 7.2002H9.00078C9.99438 7.2002 10.8008 8.0066 10.8008 9.0002V13.2002" stroke="#F0F4FC" stroke-width="2" stroke-linecap="round" stroke-linejoin="round"/>
</svg>
