<svg width="28" height="28" viewBox="0 0 28 28" fill="none" xmlns="http://www.w3.org/2000/svg">
<g clip-path="url(#clip0_49019_123816)">
<path d="M6.85776 20.5059C5.39756 20.5059 4.20196 20.1629 3.27096 19.4769C2.34976 18.7811 1.88916 17.7815 1.88916 16.4977C1.88916 16.2233 1.91856 15.8999 1.97736 15.5079C2.13416 14.6259 2.35956 13.5675 2.65356 12.3229C3.48656 8.95171 5.64256 7.26611 9.11176 7.26611C10.0526 7.26611 10.9052 7.42291 11.65 7.74631C12.3948 8.05011 12.9828 8.52051 13.414 9.14771C13.8452 9.76511 14.0608 10.5001 14.0608 11.3527C14.0608 11.6075 14.0314 11.9309 13.9726 12.3229C13.7864 13.4107 13.5708 14.4789 13.3062 15.5079C12.875 17.1837 12.14 18.4479 11.0816 19.2809C10.033 20.1041 8.62176 20.5059 6.85776 20.5059ZM7.12236 17.8599C7.80836 17.8599 8.38656 17.6541 8.86676 17.2523C9.35676 16.8505 9.70956 16.2331 9.91536 15.3903C10.1996 14.2339 10.4152 13.2343 10.5622 12.3719C10.6112 12.1171 10.6406 11.8525 10.6406 11.5781C10.6406 10.4609 10.0624 9.90231 8.89616 9.90231C8.21016 9.90231 7.62216 10.1081 7.13216 10.5099C6.65196 10.9117 6.30896 11.5291 6.10316 12.3719C5.87776 13.1951 5.66216 14.1947 5.43676 15.3903C5.38776 15.6353 5.35836 15.8901 5.35836 16.1645C5.34856 17.3013 5.94636 17.8599 7.12236 17.8599Z" fill="#02122B"/>
<path d="M14.9105 20.3347C14.7733 20.3347 14.6753 20.2955 14.5969 20.2073C14.5381 20.1093 14.5185 20.0015 14.5381 19.8741L17.0763 7.91812C17.0959 7.78092 17.1645 7.67312 17.2821 7.58492C17.3899 7.49672 17.5075 7.45752 17.6349 7.45752H22.5251C23.8873 7.45752 24.9751 7.74172 25.7983 8.30032C26.6313 8.86872 27.0527 9.68212 27.0527 10.7503C27.0527 11.0541 27.0135 11.3775 26.9449 11.7107C26.6411 13.1219 26.0237 14.1607 25.0829 14.8369C24.1617 15.5131 22.8975 15.8463 21.2903 15.8463H18.8109L17.9681 19.8741C17.9387 20.0113 17.8799 20.1191 17.7623 20.2073C17.6545 20.2955 17.5369 20.3347 17.4095 20.3347H14.9105ZM21.4177 13.3081C21.9371 13.3081 22.3781 13.1709 22.7603 12.8867C23.1523 12.6025 23.4071 12.2007 23.5345 11.6715C23.5737 11.4657 23.5933 11.2795 23.5933 11.1227C23.5933 10.7699 23.4855 10.4955 23.2797 10.3093C23.0739 10.1133 22.7113 10.0153 22.2115 10.0153H20.0065L19.3107 13.3081H21.4177Z" fill="#02122B"/>
</g>
<defs>
<clipPath id="clip0_49019_123816">
<rect width="49" height="49" fill="white" transform="translate(-10.5 -10.5)"/>
</clipPath>
</defs>
</svg>
