<svg width="32" height="32" viewBox="0 0 32 32" fill="none" xmlns="http://www.w3.org/2000/svg">
<g clip-path="url(#clip0_77590_74056)">
<g clip-path="url(#clip1_77590_74056)">
<path fill-rule="evenodd" clip-rule="evenodd" d="M15.9694 28C19.5343 28 22.7371 26.4534 24.9401 23.9962C23.9153 23.1079 22.3709 23.0539 21.2799 23.932L21.0715 24.0997C19.074 25.7075 16.1633 25.4701 14.4541 23.56C13.522 22.5182 11.9255 22.4118 10.8627 23.3206L8.45971 25.3756C10.5179 27.0179 13.1287 28 15.9694 28ZM19.8701 22.1893C21.7727 20.6579 24.447 20.7128 26.2769 22.1918C27.3707 20.3841 28 18.2654 28 16C28 13.4828 27.223 11.1466 25.8952 9.21713C25.0392 9.0353 24.1113 9.24767 23.407 9.87022L23.2065 10.0474C21.2855 11.7454 18.367 11.6422 16.5713 9.81285C15.5919 8.8151 13.9922 8.78233 12.9726 9.73914L10.1762 12.3633L8.63783 10.7323L11.4342 8.10813C13.3442 6.31579 16.3409 6.37717 18.1755 8.2462C19.134 9.22277 20.6921 9.27785 21.7176 8.37141L21.918 8.19423C22.5406 7.64399 23.2607 7.27305 24.0149 7.07796C21.8834 5.16449 19.0628 4 15.9694 4C9.86223 4 4.8179 8.53907 4.04225 14.4195C5.89725 13.5316 8.18539 13.8733 9.69786 15.4182C10.6527 16.3935 12.1902 16.4964 13.2671 15.6572L14.8306 14.4388C16.7957 12.9076 19.5734 12.9817 21.4536 14.6155L24.4976 17.2609L23.0229 18.9493L19.9788 16.304C18.9097 15.3749 17.3302 15.3327 16.2128 16.2034L14.6493 17.4219C12.6706 18.9638 9.84591 18.7747 8.09162 16.9827C7.07151 15.9407 5.4031 15.9044 4.33835 16.901L4 17.2177C4.25321 19.724 5.27965 22.0028 6.83776 23.8129L9.40149 21.6206C11.3924 19.9181 14.3829 20.1173 16.1291 22.0688C17.0415 23.0885 18.5953 23.2152 19.6616 22.357L19.8701 22.1893Z" fill="#02122B"/>
</g>
</g>
<defs>
<clipPath id="clip0_77590_74056">
<rect width="32" height="32" fill="white"/>
</clipPath>
<clipPath id="clip1_77590_74056">
<rect width="32" height="32" fill="white"/>
</clipPath>
</defs>
</svg>
