<svg width="880" height="880" viewBox="0 0 880 880" fill="none" xmlns="http://www.w3.org/2000/svg">
<circle cx="401" cy="401" r="401" fill="#E1E1E1"/>
<g clip-path="url(#clip0_2871_10639)">
<path d="M401.578 580.448L212.12 487.948L401.406 742.667L429.844 704.396V566.604L401.578 580.448Z" fill="#8C8C8C"/>
<path d="M401.406 60L184 450.099H618.818L401.406 60Z" fill="#8C8C8C"/>
<path d="M618.818 450.677L401.406 60V450.677H618.818Z" fill="#343434"/>
<path d="M401.406 344.161L400.552 343.755L184.021 450.422H184.213L400.745 557.089L401.599 556.682L429.844 542.859V358.089L401.406 344.161Z" fill="#393939"/>
<path d="M401.578 580.448L401.406 742.667L590.828 487.776L401.578 580.448Z" fill="#3C3C3B"/>
<path d="M618.411 450.422L401.406 344.161L400.552 343.755L400.745 557.089L401.599 556.682L618.604 450.422H618.411Z" fill="#141414"/>
</g>
<g clip-path="url(#clip1_2871_10639)">
<mask id="mask0_2871_10639" style="mask-type:luminance" maskUnits="userSpaceOnUse" x="454" y="454" width="408" height="408">
<path d="M657.998 861.019C770.124 861.019 861.017 770.124 861.017 658C861.017 545.876 770.124 454.981 657.998 454.981C545.875 454.981 454.98 545.876 454.98 658C454.98 770.124 545.875 861.019 657.998 861.019Z" fill="white"/>
</mask>
<g mask="url(#mask0_2871_10639)">
<path d="M880.242 435.758H435.757V880.242H880.242V435.758Z" fill="white"/>
</g>
<mask id="mask1_2871_10639" style="mask-type:luminance" maskUnits="userSpaceOnUse" x="522" y="504" width="272" height="308">
<path d="M793.798 504.723H522.202V811.277H793.798V504.723Z" fill="white"/>
</mask>
<g mask="url(#mask1_2871_10639)">
<path d="M532.511 597.909V718.091C532.511 725.765 536.611 732.859 543.25 736.682L647.287 796.786C653.925 800.61 662.098 800.61 668.737 796.786L772.774 736.682C779.413 732.859 783.512 725.765 783.512 718.091V597.909C783.512 590.236 779.413 583.141 772.774 579.317L668.737 519.214C662.098 515.39 653.925 515.39 647.287 519.214L543.224 579.317C536.585 583.141 532.511 590.236 532.511 597.909Z" fill="#213147"/>
<path d="M680.708 681.309L665.87 722.015C665.467 723.147 665.467 724.38 665.87 725.512L691.396 795.553L720.919 778.496L685.485 681.309C684.681 679.07 681.512 679.07 680.708 681.309Z" fill="#12AAFF"/>
<path d="M710.457 612.853C709.652 610.614 706.483 610.614 705.679 612.853L690.842 653.559C690.438 654.691 690.438 655.924 690.842 657.056L732.662 771.728L762.185 754.671L710.457 612.853Z" fill="#12AAFF"/>
<path d="M658 523.717C658.729 523.717 659.459 523.919 660.112 524.271L772.7 589.305C774.007 590.06 774.812 591.469 774.812 592.953V722.996C774.812 724.506 774.007 725.89 772.7 726.644L660.112 791.679C659.484 792.056 658.729 792.232 658 792.232C657.271 792.232 656.541 792.032 655.888 791.679L543.301 726.695C541.993 725.94 541.188 724.532 541.188 723.047V592.978C541.188 591.469 541.993 590.085 543.301 589.33L655.888 524.296C656.541 523.919 657.271 523.717 658 523.717ZM658 504.723C654.001 504.723 649.978 505.754 646.382 507.842L533.82 572.852C526.628 577.003 522.202 584.676 522.202 592.978V723.022C522.202 731.324 526.628 738.998 533.82 743.148L646.407 808.182C650.003 810.246 654.001 811.303 658.026 811.303C662.024 811.303 666.047 810.272 669.644 808.182L782.23 743.148C789.423 738.998 793.848 731.324 793.848 723.022V592.978C793.848 584.676 789.423 577.003 782.23 572.852L669.618 507.842C666.021 505.754 661.999 504.723 658 504.723Z" fill="#9DCCED"/>
<path d="M583.538 771.88L593.899 743.501L614.747 760.834L595.257 778.647L583.538 771.88Z" fill="#213147"/>
<path d="M648.52 583.67H619.976C617.839 583.67 615.928 585.003 615.198 587.016L554.014 754.822L583.537 771.88L650.909 587.091C651.537 585.431 650.305 583.67 648.52 583.67Z" fill="white"/>
<path d="M698.464 583.67H669.921C667.783 583.67 665.872 585.003 665.142 587.016L595.282 778.621L624.806 795.679L700.853 587.091C701.457 585.431 700.224 583.67 698.464 583.67Z" fill="white"/>
</g>
</g>
<defs>
<clipPath id="clip0_2871_10639">
<rect width="682.667" height="682.667" fill="white" transform="translate(60 60)"/>
</clipPath>
<clipPath id="clip1_2871_10639">
<rect width="408" height="408" fill="white" transform="translate(454 454)"/>
</clipPath>
</defs>
</svg>
