<svg width="26" height="25" viewBox="0 0 26 25" fill="none" xmlns="http://www.w3.org/2000/svg">
<g clip-path="url(#clip0_49019_123827)">
<path d="M24.3787 4.419C24.1247 3.439 23.3077 2.459 21.8367 1.368C20.6567 0.499 19.4037 0 18.4047 0C18.2047 0 18.0237 0.018 17.8417 0.055C17.3877 0.147 16.9887 0.48 16.7337 0.98C16.4247 1.572 16.3527 2.367 16.5517 2.848C16.6247 2.996 16.7147 3.181 16.8237 3.347C15.8617 3.939 15.3167 4.105 15.2437 4.124C17.7497 4.975 19.8377 6.75 21.1457 9.061L21.1637 8.839C21.2177 8.229 21.3997 7.526 21.6537 6.805C21.9077 6.879 22.1617 6.916 22.4167 6.916C23.0887 6.916 23.6697 6.639 24.0327 6.139C24.3977 5.64 24.5427 4.974 24.3787 4.419Z" fill="#02122B"/>
<path d="M21.7653 6.26825C23.4173 6.73025 24.0893 5.43625 23.8713 4.56725C23.6353 3.69825 22.8723 2.81025 21.5293 1.81225C20.1853 0.813253 18.8233 0.407253 17.9523 0.592253C17.0803 0.777253 16.8263 2.12725 17.0443 2.64525C17.1353 2.84825 17.3353 3.14425 17.6073 3.47725C17.2623 3.71725 16.9353 3.90225 16.6633 4.06925C18.3343 4.82725 19.7863 6.01125 20.8763 7.49025C21.0033 6.99125 21.1853 6.54725 21.3483 6.15925C21.4743 6.17525 21.6193 6.21225 21.7653 6.26825Z" fill="#3E4A62"/>
<path opacity="0.6" d="M23.036 3.71642C21.656 2.23742 20.494 1.84842 19.096 1.53442C18.006 1.27542 18.297 0.646418 19.623 0.776418C18.987 0.554418 18.388 0.499418 17.952 0.591418C17.08 0.776418 16.826 2.12642 17.044 2.64442C17.135 2.84742 17.335 3.14342 17.607 3.47642C17.117 3.80942 16.699 4.04942 16.354 4.23442C16.517 4.30842 16.717 4.40042 16.953 4.53042C17.57 4.86342 18.242 5.41842 18.242 5.41842C17.225 4.53042 17.443 4.12442 18.841 3.12542C19.277 2.81142 20.076 2.84842 20.82 3.23642C21.564 3.62442 22.436 4.60442 22.436 4.60442L21.601 6.23142C21.655 6.25042 21.71 6.26842 21.764 6.28742C22.291 6.43542 22.708 6.39842 23.035 6.26842C23.417 6.02742 24.416 5.21342 23.036 3.71642Z" fill="#061B3A"/>
<path d="M19.0777 2.42714C19.4407 2.57514 19.9127 2.83414 20.4937 3.22214C21.1837 3.68414 21.7827 4.20214 22.1647 4.60914C21.5287 5.46013 21.1117 6.62514 20.8577 7.43814C20.9847 7.62314 21.1297 7.80814 21.2577 7.99314C21.3847 7.53114 21.6027 6.84614 21.8937 6.16214C21.9667 6.18114 22.0567 6.18113 22.1477 6.18113C22.3657 6.18113 22.6197 6.14413 22.8197 5.97814C22.9647 5.86714 23.1287 5.66414 23.1107 5.29414C23.1107 4.94314 22.8387 4.49914 22.2757 3.96314C21.8757 3.57514 21.3317 3.14914 20.7867 2.76114C19.2247 1.70714 18.1357 1.41114 17.6457 1.91014C17.3187 2.24314 17.3547 2.65014 17.4637 2.94614C16.8827 3.33414 16.3927 3.61214 16.0657 3.79714C16.2837 3.87114 16.4837 3.96314 16.7017 4.05614C17.2797 3.74014 18.1157 3.20414 19.0777 2.42714ZM22.5097 5.07214C22.5637 5.16414 22.5827 5.25714 22.5827 5.31214C22.5827 5.47814 22.5287 5.53413 22.4917 5.57113C22.4187 5.62613 22.2737 5.66314 22.1467 5.66314C22.2557 5.44113 22.3827 5.25614 22.5097 5.07214ZM18.0247 2.31614C18.0787 2.26114 18.2247 2.22414 18.4607 2.26114C18.2787 2.40914 18.0977 2.53814 17.9157 2.66814C17.8977 2.53814 17.9157 2.40914 18.0247 2.31614Z" fill="#02122B"/>
<path d="M12.3032 3.10645C6.36522 3.10645 1.55322 8.00645 1.55322 14.0534C1.55322 20.1004 6.36522 25.0004 12.3032 25.0004C18.2412 25.0004 23.0532 20.1004 23.0532 14.0534C23.0532 8.00745 18.2232 3.10645 12.3032 3.10645ZM12.3032 24.3904C6.69222 24.3904 2.15222 19.7674 2.15222 14.0534C2.15222 8.33945 6.69222 3.71645 12.3032 3.71645C17.9142 3.71645 22.4542 8.33945 22.4542 14.0534C22.4532 19.7674 17.8962 24.3904 12.3032 24.3904Z" fill="#02122B"/>
<path d="M12.3041 24.3932C17.9101 24.3932 22.4551 19.7652 22.4551 14.0562C22.4551 8.34722 17.9101 3.72021 12.3041 3.72021C6.69808 3.72021 2.15308 8.34821 2.15308 14.0572C2.15308 19.7662 6.69808 24.3932 12.3041 24.3932Z" fill="#061B3A"/>
<path opacity="0.6" d="M12.2311 23.1355C6.6931 22.2295 2.9341 16.9225 3.8421 11.2825C4.2421 8.78651 5.4761 6.65951 7.2201 5.12451C4.6771 6.62351 2.7891 9.23051 2.2801 12.4115C1.3901 18.0515 5.1491 23.3585 10.6691 24.2645C13.7561 24.7825 16.7341 23.8025 18.9311 21.8795C16.9891 23.0245 14.6281 23.5245 12.2311 23.1355Z" fill="#02122B"/>
<path d="M21.9468 13.9602C21.9468 19.3782 17.6248 23.7792 12.3048 23.7792C6.98478 23.7792 2.64478 19.3782 2.64478 13.9602H21.9468Z" fill="#3D6195" fill-opacity="0.7"/>
<g opacity="0.6">
<path opacity="0.6" d="M21.1831 13.9602C21.1831 19.2482 17.0791 23.5752 11.9221 23.7792C12.0491 23.7792 12.1761 23.7792 12.3031 23.7792C17.6231 23.7792 21.9451 19.3782 21.9451 13.9602H21.1831Z" fill="#315589"/>
</g>
<g opacity="0.7">
<path opacity="0.7" d="M4.00678 13.9602H2.64478C2.64478 19.3782 6.96677 23.7792 12.2868 23.7792C12.5228 23.7792 12.7408 23.7792 12.9588 23.7602C7.96478 23.3902 4.00678 19.1372 4.00678 13.9602Z" fill="black" fill-opacity="0.4"/>
</g>
<path d="M21.9288 14.0519C21.9288 12.9239 20.0038 12.2769 17.4438 12.0549C15.5918 11.9069 13.7218 12.0919 11.5788 12.7579C9.72678 13.3129 8.05578 13.2199 6.83978 13.0719C4.13378 12.7579 2.64478 12.7209 2.64478 14.0519C2.64478 15.9749 6.49478 18.3789 12.2688 17.5469C15.1928 17.1219 16.6998 16.2529 18.4248 15.6609C20.2948 15.0319 21.9288 15.0509 21.9288 14.0519Z" fill="#48658E"/>
</g>
<defs>
<clipPath id="clip0_49019_123827">
<rect width="25" height="25" fill="white" transform="translate(0.5)"/>
</clipPath>
</defs>
</svg>
