<svg width="20" height="20" viewBox="0 0 20 20" fill="none" xmlns="http://www.w3.org/2000/svg">
<path d="M10.0183 9.92775C10.1031 9.364 10.4185 9.0595 10.7347 8.84467C11.0438 8.63442 11.3531 8.36158 11.3531 7.8564C11.3531 7.15915 10.7937 6.59444 10.1031 6.59444C9.41242 6.59444 8.85308 7.15915 8.85308 7.8564M7.74518 15.403L9.46608 16.8456C9.77433 17.104 10.2232 17.1052 10.5331 16.8486L12.2817 15.3999C12.4311 15.2761 12.6192 15.2083 12.8132 15.2083H15.2083C16.1288 15.2083 16.875 14.4622 16.875 13.5417V4.79167C16.875 3.87119 16.1288 3.125 15.2083 3.125H4.79167C3.87119 3.125 3.125 3.87119 3.125 4.79167V13.5417C3.125 14.4622 3.87119 15.2083 4.79167 15.2083H7.20985C7.40563 15.2083 7.59515 15.2773 7.74518 15.403Z" stroke="#4879FD" stroke-width="1.5" stroke-linecap="round"/>
<path d="M9.375 11.875C9.375 12.2202 9.65483 12.5 10 12.5C10.3452 12.5 10.625 12.2202 10.625 11.875C10.625 11.5298 10.3452 11.25 10 11.25C9.65483 11.25 9.375 11.5298 9.375 11.875Z" fill="#4879FD" stroke="#4879FD" stroke-width="0.5"/>
</svg>
