<svg width="49" height="48" viewBox="0 0 49 48" fill="none" xmlns="http://www.w3.org/2000/svg">
<rect width="4.36364" height="4.36364" transform="matrix(-1 0 0 1 48.5 4.36365)" fill="#15D7AC"/>
<rect width="4.36364" height="8.72727" transform="matrix(0 -1 -1 0 48.5 4.36365)" fill="#15D7AC"/>
<rect x="48.5" y="43.6364" width="4.36364" height="4.36364" transform="rotate(-180 48.5 43.6364)" fill="#15D7AC"/>
<rect x="48.5" y="43.6364" width="4.36364" height="8.72727" transform="rotate(90 48.5 43.6364)" fill="#15D7AC"/>
<rect width="4.36364" height="4.36364" transform="matrix(1 0 0 -1 0.5 43.6364)" fill="#15D7AC"/>
<rect width="4.36364" height="8.72727" transform="matrix(0 1 1 0 0.5 43.6364)" fill="#15D7AC"/>
<rect x="0.5" y="4.36365" width="4.36364" height="4.36364" fill="#15D7AC"/>
<rect x="0.5" y="4.36365" width="4.36364" height="8.72727" transform="rotate(-90 0.5 4.36365)" fill="#15D7AC"/>
<rect x="5" y="26" width="4" height="39" transform="rotate(-90 5 26)" fill="#15D7AC"/>
<rect x="28.6816" y="10.7273" width="9.09091" height="9.09091" stroke="#4879FD" stroke-width="4"/>
<rect x="9.22656" y="8.72729" width="13.0909" height="4.36364" fill="#4879FD"/>
<rect x="9.22656" y="19.6364" width="10.9091" height="4.36364" transform="rotate(-90 9.22656 19.6364)" fill="#4879FD"/>
<rect x="2" y="-2" width="9.09091" height="9.09091" transform="matrix(1 0 0 -1 26.6816 35.2727)" stroke="#4879FD" stroke-width="4"/>
<rect x="20.3184" y="37.2727" width="9.09091" height="9.09091" transform="rotate(180 20.3184 37.2727)" stroke="#4879FD" stroke-width="4"/>
</svg>
