<svg width="32" height="32" viewBox="0 0 32 32" fill="none" xmlns="http://www.w3.org/2000/svg">
<g clip-path="url(#clip0_48948_109933)">
<path d="M25.5582 9.71196C25.3448 8.88876 24.6585 8.06556 23.4229 7.14912C22.4317 6.41916 21.3792 6 20.54 6C20.372 6 20.22 6.01512 20.0671 6.0462C19.6857 6.12348 19.3506 6.4032 19.1364 6.8232C18.8768 7.32048 18.8163 7.98828 18.9835 8.39232C19.0448 8.51664 19.1204 8.67204 19.212 8.81148C18.4039 9.30876 17.9461 9.4482 17.8848 9.46416C19.9898 10.179 21.7437 11.67 22.8424 13.6112L22.8576 13.4248C22.9029 12.9124 23.0558 12.3218 23.2692 11.7162C23.4825 11.7784 23.6959 11.8094 23.9101 11.8094C24.4746 11.8094 24.9626 11.5768 25.2675 11.1568C25.5741 10.7376 25.6959 10.1782 25.5582 9.71196Z" fill="#602F92"/>
<path d="M23.3628 11.2653C24.7505 11.6533 25.315 10.5664 25.1319 9.83641C24.9336 9.10645 24.2927 8.36053 23.1646 7.52221C22.0356 6.68305 20.8915 6.34201 20.1599 6.49741C19.4274 6.65281 19.2141 7.78681 19.3972 8.22193C19.4736 8.39245 19.6416 8.64109 19.8701 8.92081C19.5803 9.12241 19.3056 9.27781 19.0771 9.41809C20.4808 10.0548 21.7005 11.0494 22.6161 12.2917C22.7227 11.8726 22.8756 11.4996 23.0125 11.1737C23.1184 11.1871 23.2402 11.2182 23.3628 11.2653Z" fill="url(#paint0_radial_48948_109933)"/>
<path d="M15.4155 26.4903C20.1246 26.4903 23.9424 22.6028 23.9424 17.8072C23.9424 13.0117 20.1246 9.125 15.4155 9.125C10.7065 9.125 6.88867 13.0125 6.88867 17.8081C6.88867 22.6036 10.7065 26.4903 15.4155 26.4903Z" fill="url(#paint1_radial_48948_109933)"/>
<path opacity="0.6" d="M24.4303 9.12171C23.2711 7.87935 22.295 7.55259 21.1207 7.28883C20.2051 7.07127 20.4495 6.54291 21.5633 6.65211C21.0291 6.46563 20.5259 6.41943 20.1597 6.49671C19.4272 6.65211 19.2139 7.78611 19.397 8.22123C19.4734 8.39175 19.6414 8.64039 19.8699 8.92011C19.4583 9.19983 19.1072 9.40143 18.8174 9.55683C18.9543 9.61899 19.1223 9.69627 19.3205 9.80547C19.8388 10.0852 20.4033 10.5514 20.4033 10.5514C19.549 9.80547 19.7321 9.46443 20.9065 8.62527C21.2727 8.36151 21.9439 8.39259 22.5688 8.71851C23.1938 9.04443 23.9263 9.86763 23.9263 9.86763L23.2249 11.2343C23.2702 11.2503 23.3164 11.2654 23.3618 11.2814C23.8045 11.4057 24.1547 11.3746 24.4294 11.2654C24.7503 11.063 25.5895 10.3792 24.4303 9.12171Z" fill="#A98798"/>
<path d="M21.1053 8.03882C21.4102 8.16314 21.8067 8.3807 22.2947 8.70662C22.8743 9.0947 23.3775 9.52982 23.6984 9.8717C23.1641 10.5865 22.8138 11.5651 22.6005 12.2481C22.7072 12.4035 22.829 12.5589 22.9365 12.7143C23.0432 12.3262 23.2263 11.7508 23.4707 11.1762C23.532 11.1922 23.6076 11.1922 23.6841 11.1922C23.8672 11.1922 24.0806 11.1611 24.2486 11.0217C24.3704 10.9284 24.5081 10.7579 24.493 10.4471C24.493 10.1523 24.2645 9.7793 23.7916 9.32906C23.4556 9.00314 22.9986 8.6453 22.5408 8.31938C21.2288 7.43402 20.314 7.18538 19.9024 7.60454C19.6277 7.88426 19.658 8.22614 19.7495 8.47478C19.2615 8.8007 18.8499 9.03422 18.5752 9.18962C18.7583 9.25178 18.9263 9.32906 19.1094 9.40718C19.595 9.14174 20.2972 8.6915 21.1053 8.03882ZM23.9882 10.2606C24.0335 10.3379 24.0495 10.416 24.0495 10.4622C24.0495 10.6017 24.0041 10.6487 23.973 10.6798C23.9117 10.726 23.7899 10.7571 23.6832 10.7571C23.7748 10.5706 23.8815 10.4152 23.9882 10.2606ZM20.2208 7.94558C20.2661 7.89938 20.3888 7.8683 20.587 7.89938C20.4341 8.0237 20.2821 8.13206 20.1292 8.24126C20.1141 8.13206 20.1292 8.0237 20.2208 7.94558Z" fill="#602F92"/>
<path d="M15.4148 8.60938C10.4268 8.60938 6.38477 12.7254 6.38477 17.8049C6.38477 22.8843 10.4268 27.0003 15.4148 27.0003C20.4027 27.0003 24.4448 22.8843 24.4448 17.8049C24.4448 12.7262 20.3876 8.60938 15.4148 8.60938ZM15.4148 26.4879C10.7015 26.4879 6.88793 22.6046 6.88793 17.8049C6.88793 13.0051 10.7015 9.12177 15.4148 9.12177C20.128 9.12177 23.9416 13.0051 23.9416 17.8049C23.9408 22.6046 20.1129 26.4879 15.4148 26.4879Z" fill="#602F92"/>
<path opacity="0.6" d="M15.4155 26.4903C20.1246 26.4903 23.9424 22.6028 23.9424 17.8072C23.9424 13.0117 20.1246 9.125 15.4155 9.125C10.7065 9.125 6.88867 13.0125 6.88867 17.8081C6.88867 22.6036 10.7065 26.4903 15.4155 26.4903Z" fill="url(#paint2_linear_48948_109933)"/>
<path opacity="0.6" d="M15.3541 25.4339C10.7022 24.6729 7.54467 20.215 8.30739 15.4774C8.64339 13.3808 9.67995 11.5941 11.1449 10.3047C9.00879 11.5638 7.42287 13.7537 6.99531 16.4258C6.24771 21.1634 9.40527 25.6213 14.0421 26.3823C16.6351 26.8174 19.1367 25.9942 20.9821 24.3789C19.3509 25.3407 17.3676 25.7607 15.3541 25.4339Z" fill="#A98798"/>
<path opacity="0.6" d="M16.7727 9.24718C14.6223 8.89018 12.5324 9.38662 10.8238 10.4895C10.7936 10.5206 10.7625 10.5517 10.7625 10.5517C11.4185 10.1477 12.3795 9.79066 12.3795 9.79066C9.90823 11.2506 9.14551 12.9129 9.14551 12.9129C10.1065 11.0179 12.928 9.6823 15.1397 9.58906C17.3515 9.49582 18.8005 10.1636 20.5695 11.6084C22.3385 13.0683 23.407 16.0503 23.2995 18.4116C23.2079 20.7728 21.9874 22.683 21.9874 22.683C22.8266 21.5801 23.3297 20.7728 23.6498 19.9496C23.7111 19.701 23.7716 19.4523 23.8027 19.1886C24.5671 14.4661 21.4246 10.0082 16.7727 9.24718Z" fill="url(#paint3_linear_48948_109933)"/>
<path d="M23.5154 17.7266C23.5154 22.2777 19.885 25.9745 15.4162 25.9745C10.9474 25.9745 7.30176 22.2777 7.30176 17.7266H23.5154Z" fill="url(#paint4_linear_48948_109933)"/>
<g opacity="0.6">
<path opacity="0.6" d="M22.874 17.7266C22.874 22.1685 19.4266 25.8032 15.0947 25.9745C15.2014 25.9745 15.3081 25.9745 15.4148 25.9745C19.8836 25.9745 23.514 22.2777 23.514 17.7266H22.874Z" fill="url(#paint5_linear_48948_109933)"/>
</g>
<g opacity="0.7">
<path opacity="0.7" d="M8.44584 17.7266H7.30176C7.30176 22.2777 10.9322 25.9745 15.401 25.9745C15.5993 25.9745 15.7824 25.9745 15.9655 25.9586C11.7706 25.6478 8.44584 22.0752 8.44584 17.7266Z" fill="url(#paint6_linear_48948_109933)"/>
</g>
<path d="M23.5003 17.8036C23.5003 16.8561 21.8833 16.3126 19.7329 16.1261C18.1772 16.0018 16.6064 16.1572 14.8063 16.7166C13.2506 17.1828 11.847 17.1047 10.8256 16.9804C8.55252 16.7166 7.30176 16.6855 7.30176 17.8036C7.30176 19.4189 10.5358 21.4383 15.3859 20.7394C17.8421 20.3824 19.108 19.6524 20.557 19.1551C22.1278 18.6268 23.5003 18.6427 23.5003 17.8036Z" fill="url(#paint7_linear_48948_109933)"/>
<path d="M18.0688 13.8893C18.8274 13.8893 19.4414 13.2635 19.4414 12.4915C19.4414 11.7196 18.8265 11.0938 18.0688 11.0938C17.3112 11.0938 16.6963 11.7196 16.6963 12.4915C16.6963 13.2635 17.3112 13.8893 18.0688 13.8893Z" fill="white"/>
<path d="M20.312 14.931C20.6321 14.931 20.8916 14.6664 20.8916 14.3405C20.8916 14.0146 20.6321 13.75 20.312 13.75C19.992 13.75 19.7324 14.0146 19.7324 14.3405C19.7324 14.6673 19.992 14.931 20.312 14.931Z" fill="white"/>
<g opacity="0.6">
<path opacity="0.6" d="M22.3865 11.3784C22.3714 11.3784 22.3562 11.3784 22.3562 11.3784C22.2647 11.3624 22.2034 11.27 22.2193 11.1608C22.3562 10.446 22.9358 9.76308 22.9669 9.732C23.0282 9.65472 23.15 9.65472 23.2114 9.71604C23.2878 9.7782 23.2878 9.90252 23.2265 9.96468C23.2114 9.9798 22.6771 10.6174 22.5553 11.2381C22.5394 11.3314 22.4629 11.3784 22.3865 11.3784Z" fill="url(#paint8_linear_48948_109933)"/>
</g>
<path opacity="0.2" d="M14.8515 24.2843C15.0876 24.2843 15.2782 24.0894 15.2782 23.8492C15.2782 23.6089 15.0867 23.4141 14.8515 23.4141C14.6155 23.4141 14.4248 23.6089 14.4248 23.8492C14.4248 24.0894 14.6155 24.2843 14.8515 24.2843Z" fill="white"/>
<g opacity="0.4">
<path opacity="0.6" d="M14.6072 24.1286C14.4392 23.958 14.4392 23.6783 14.6072 23.507C14.6375 23.4759 14.6686 23.4608 14.6988 23.4297C14.6375 23.4456 14.5921 23.4759 14.5459 23.5229C14.3779 23.6934 14.3779 23.9732 14.5459 24.1445C14.6828 24.284 14.897 24.315 15.0642 24.2218C14.9122 24.284 14.729 24.2529 14.6072 24.1286Z" fill="url(#paint9_linear_48948_109933)"/>
</g>
<path opacity="0.3" d="M15.0037 23.7177C15.0541 23.7177 15.0952 23.6757 15.0952 23.6245C15.0952 23.5732 15.0541 23.5312 15.0037 23.5312C14.9533 23.5312 14.9121 23.5732 14.9121 23.6245C14.9121 23.6766 14.9524 23.7177 15.0037 23.7177Z" fill="white"/>
<path opacity="0.2" d="M17.0791 24.0656C17.3151 24.0656 17.5058 23.8707 17.5058 23.6304C17.5058 23.3902 17.3143 23.1953 17.0791 23.1953C16.843 23.1953 16.6523 23.3902 16.6523 23.6304C16.6523 23.8707 16.8439 24.0656 17.0791 24.0656Z" fill="white"/>
<g opacity="0.4">
<path opacity="0.6" d="M16.8338 23.9098C16.6658 23.7393 16.6658 23.4596 16.8338 23.2882C16.864 23.2571 16.8951 23.242 16.9254 23.2109C16.864 23.2269 16.8187 23.2571 16.7725 23.3042C16.6045 23.4747 16.6045 23.7544 16.7725 23.9258C16.9094 24.0652 17.1236 24.0963 17.2908 24.0031C17.1387 24.0652 16.9556 24.0341 16.8338 23.9098Z" fill="url(#paint10_linear_48948_109933)"/>
</g>
<path opacity="0.3" d="M17.2312 23.5068C17.2816 23.5068 17.3228 23.4648 17.3228 23.4136C17.3228 23.3623 17.2816 23.3203 17.2312 23.3203C17.1808 23.3203 17.1396 23.3623 17.1396 23.4136C17.1396 23.4648 17.1808 23.5068 17.2312 23.5068Z" fill="white"/>
<path opacity="0.2" d="M15.9792 25.0737C16.1565 25.0737 16.2993 24.9276 16.2993 24.7478C16.2993 24.568 16.1556 24.4219 15.9792 24.4219C15.802 24.4219 15.6592 24.568 15.6592 24.7478C15.6592 24.9276 15.802 25.0737 15.9792 25.0737Z" fill="white"/>
<g opacity="0.4">
<path opacity="0.6" d="M15.7969 24.9507C15.6751 24.8264 15.6751 24.6089 15.7969 24.4845C15.812 24.4686 15.8422 24.4535 15.8582 24.4375C15.8128 24.4535 15.7817 24.4845 15.7515 24.5148C15.6297 24.6391 15.6297 24.8567 15.7515 24.981C15.8582 25.0893 16.0111 25.1053 16.148 25.028C16.0253 25.0751 15.8884 25.044 15.7969 24.9507Z" fill="url(#paint11_linear_48948_109933)"/>
</g>
<path opacity="0.3" d="M16.0867 24.6399C16.1203 24.6399 16.148 24.6122 16.148 24.5778C16.148 24.5433 16.1203 24.5156 16.0867 24.5156C16.0531 24.5156 16.0254 24.5433 16.0254 24.5778C16.0254 24.6122 16.0531 24.6399 16.0867 24.6399Z" fill="white"/>
<path opacity="0.2" d="M17.948 24.8393C18.1252 24.8393 18.268 24.6932 18.268 24.5134C18.268 24.3337 18.1244 24.1875 17.948 24.1875C17.7716 24.1875 17.6279 24.3337 17.6279 24.5134C17.6279 24.6932 17.7716 24.8393 17.948 24.8393Z" fill="white"/>
<g opacity="0.4">
<path opacity="0.6" d="M17.7646 24.7155C17.6428 24.5912 17.6428 24.3736 17.7646 24.2493C17.7798 24.2334 17.81 24.2182 17.826 24.2031C17.7806 24.2191 17.7495 24.2493 17.7193 24.2804C17.5975 24.4047 17.5975 24.6223 17.7193 24.7466C17.826 24.855 17.9788 24.8709 18.1158 24.7928C17.9931 24.8398 17.8562 24.8088 17.7646 24.7155Z" fill="url(#paint12_linear_48948_109933)"/>
</g>
<path opacity="0.3" d="M18.0535 24.4056C18.0871 24.4056 18.1148 24.3779 18.1148 24.3434C18.1148 24.309 18.0871 24.2812 18.0535 24.2812C18.0199 24.2812 17.9922 24.309 17.9922 24.3434C17.993 24.3779 18.0199 24.4056 18.0535 24.4056Z" fill="white"/>
<path opacity="0.2" d="M13.0354 24.125C13.4226 24.125 13.7368 23.805 13.7368 23.4102C13.7368 23.0154 13.4226 22.6953 13.0354 22.6953C12.6481 22.6953 12.334 23.0154 12.334 23.4102C12.334 23.805 12.6481 24.125 13.0354 24.125Z" fill="white"/>
<g opacity="0.4">
<path opacity="0.6" d="M12.6394 23.868C12.3647 23.5883 12.3647 23.1381 12.6394 22.8584C12.6847 22.8122 12.7309 22.7811 12.7922 22.75C12.7007 22.7811 12.6242 22.8432 12.5478 22.9054C12.2731 23.1851 12.2731 23.6354 12.5478 23.9151C12.7763 24.1478 13.1274 24.1948 13.4021 24.0234C13.1425 24.1318 12.8376 24.0856 12.6394 23.868Z" fill="url(#paint13_linear_48948_109933)"/>
</g>
<path opacity="0.3" d="M13.2798 23.1936C13.3638 23.1936 13.4327 23.1239 13.4327 23.0382C13.4327 22.9525 13.3647 22.8828 13.2798 22.8828C13.1958 22.8828 13.127 22.9525 13.127 23.0382C13.127 23.1239 13.195 23.1936 13.2798 23.1936Z" fill="white"/>
<path opacity="0.2" d="M19.3049 22.375C19.6922 22.375 20.0063 22.055 20.0063 21.6602C20.0063 21.2654 19.6922 20.9453 19.3049 20.9453C18.9177 20.9453 18.6035 21.2654 18.6035 21.6602C18.6035 22.055 18.9168 22.375 19.3049 22.375Z" fill="white"/>
<g opacity="0.4">
<path opacity="0.6" d="M18.8933 22.1102C18.6186 21.8305 18.6186 21.3803 18.8933 21.1005C18.9386 21.0535 18.9848 21.0233 19.0462 20.9922C18.9546 21.0233 18.8782 21.0854 18.8017 21.1476C18.527 21.4273 18.527 21.8775 18.8017 22.1573C19.0302 22.3899 19.3813 22.437 19.656 22.2656C19.3964 22.3748 19.1066 22.3278 18.8933 22.1102Z" fill="url(#paint14_linear_48948_109933)"/>
</g>
<path opacity="0.3" d="M19.5494 21.4358C19.6334 21.4358 19.7022 21.3661 19.7022 21.2804C19.7022 21.1947 19.6342 21.125 19.5494 21.125C19.4654 21.125 19.3965 21.1947 19.3965 21.2804C19.3965 21.3661 19.4645 21.4358 19.5494 21.4358Z" fill="white"/>
</g>
<defs>
<radialGradient id="paint0_radial_48948_109933" cx="0" cy="0" r="1" gradientUnits="userSpaceOnUse" gradientTransform="translate(24.8538 8.85767) scale(6.81734 6.94219)">
<stop stop-color="#FBEAF3" stop-opacity="0.6"/>
<stop offset="0.6807" stop-color="#A087BF"/>
<stop offset="1" stop-color="#17102E"/>
</radialGradient>
<radialGradient id="paint1_radial_48948_109933" cx="0" cy="0" r="1" gradientUnits="userSpaceOnUse" gradientTransform="translate(21.0609 11.8208) scale(16.6795 16.985)">
<stop stop-color="#FBEAF3" stop-opacity="0.6"/>
<stop offset="0.6807" stop-color="#A087BF"/>
<stop offset="1" stop-color="#17102E"/>
</radialGradient>
<linearGradient id="paint2_linear_48948_109933" x1="14.0019" y1="26.3715" x2="16.829" y2="9.24345" gradientUnits="userSpaceOnUse">
<stop stop-color="#9AD9E5"/>
<stop offset="0.6202" stop-color="white" stop-opacity="0"/>
</linearGradient>
<linearGradient id="paint3_linear_48948_109933" x1="21.5018" y1="11.9949" x2="14.3344" y2="18.453" gradientUnits="userSpaceOnUse">
<stop offset="0.2888" stop-color="white"/>
<stop offset="0.7796" stop-color="white" stop-opacity="0"/>
</linearGradient>
<linearGradient id="paint4_linear_48948_109933" x1="7.30146" y1="21.8502" x2="23.5156" y2="21.8502" gradientUnits="userSpaceOnUse">
<stop stop-color="#384EA2"/>
<stop offset="0.9952" stop-color="#D54799"/>
</linearGradient>
<linearGradient id="paint5_linear_48948_109933" x1="24.3232" y1="18.4988" x2="15.3529" y2="26.8237" gradientUnits="userSpaceOnUse">
<stop offset="0.2888" stop-color="white"/>
<stop offset="0.7796" stop-color="white" stop-opacity="0"/>
</linearGradient>
<linearGradient id="paint6_linear_48948_109933" x1="7.30146" y1="21.8502" x2="15.9652" y2="21.8502" gradientUnits="userSpaceOnUse">
<stop stop-color="#2B2F82"/>
<stop offset="0.9952" stop-color="#72439A"/>
</linearGradient>
<linearGradient id="paint7_linear_48948_109933" x1="7.31919" y1="18.4839" x2="23.5007" y2="18.4839" gradientUnits="userSpaceOnUse">
<stop stop-color="#2B2F82"/>
<stop offset="0.9952" stop-color="#A14298"/>
</linearGradient>
<linearGradient id="paint8_linear_48948_109933" x1="23.2565" y1="9.66954" x2="22.0627" y2="11.5747" gradientUnits="userSpaceOnUse">
<stop offset="0.2888" stop-color="white"/>
<stop offset="0.7796" stop-color="white" stop-opacity="0"/>
</linearGradient>
<linearGradient id="paint9_linear_48948_109933" x1="14.42" y1="23.8521" x2="15.0654" y2="23.8521" gradientUnits="userSpaceOnUse">
<stop offset="0.2888" stop-color="white"/>
<stop offset="0.7796" stop-color="white" stop-opacity="0"/>
</linearGradient>
<linearGradient id="paint10_linear_48948_109933" x1="16.6447" y1="23.6334" x2="17.2901" y2="23.6334" gradientUnits="userSpaceOnUse">
<stop offset="0.2888" stop-color="white"/>
<stop offset="0.7796" stop-color="white" stop-opacity="0"/>
</linearGradient>
<linearGradient id="paint11_linear_48948_109933" x1="15.6575" y1="24.7573" x2="16.142" y2="24.7573" gradientUnits="userSpaceOnUse">
<stop offset="0.2888" stop-color="white"/>
<stop offset="0.7796" stop-color="white" stop-opacity="0"/>
</linearGradient>
<linearGradient id="paint12_linear_48948_109933" x1="17.6184" y1="24.5226" x2="18.1028" y2="24.5226" gradientUnits="userSpaceOnUse">
<stop offset="0.2888" stop-color="white"/>
<stop offset="0.7796" stop-color="white" stop-opacity="0"/>
</linearGradient>
<linearGradient id="paint13_linear_48948_109933" x1="12.3346" y1="23.4378" x2="13.3884" y2="23.4378" gradientUnits="userSpaceOnUse">
<stop offset="0.2888" stop-color="white"/>
<stop offset="0.7796" stop-color="white" stop-opacity="0"/>
</linearGradient>
<linearGradient id="paint14_linear_48948_109933" x1="18.5947" y1="21.6803" x2="19.6486" y2="21.6803" gradientUnits="userSpaceOnUse">
<stop offset="0.2888" stop-color="white"/>
<stop offset="0.7796" stop-color="white" stop-opacity="0"/>
</linearGradient>
<clipPath id="clip0_48948_109933">
<rect width="21" height="21" fill="white" transform="translate(5.5 6)"/>
</clipPath>
</defs>
</svg>
