<svg width="24" height="24" viewBox="0 0 24 24" fill="none" xmlns="http://www.w3.org/2000/svg">
<path fill-rule="evenodd" clip-rule="evenodd" d="M13.7598 19.6573C14.1213 19.4557 14.5783 19.5851 14.7803 19.9463C14.982 20.308 14.8519 20.765 14.4902 20.9668L13.3398 21.6094C12.5072 22.0739 11.4928 22.0739 10.6602 21.6094L9.50977 20.9668C9.14835 20.7649 9.01804 20.3079 9.21973 19.9463C9.42154 19.585 9.8787 19.4559 10.2402 19.6573L11.3906 20.2989C11.7692 20.5101 12.2308 20.5101 12.6094 20.2989L13.7598 19.6573ZM3.5 13.5625C3.91413 13.5625 4.24986 13.8984 4.25 14.3125V15.5811C4.25023 16.0329 4.4946 16.4499 4.88867 16.6709L5.99219 17.2901C6.35321 17.4928 6.48192 17.9505 6.2793 18.3116C6.07651 18.6724 5.61886 18.8011 5.25781 18.5987L4.1543 17.9795C3.28711 17.493 2.75023 16.5754 2.75 15.5811V14.3125C2.75014 13.8984 3.08587 13.5625 3.5 13.5625ZM20.5 13.5625C20.9141 13.5625 21.2499 13.8984 21.25 14.3125V15.5811C21.2497 16.5754 20.7128 17.493 19.8457 17.9795L18.7422 18.5987C18.3812 18.801 17.9235 18.6724 17.7207 18.3116C17.5182 17.9506 17.6469 17.4929 18.0078 17.2901L19.1113 16.6709C19.5055 16.4499 19.7497 16.0329 19.75 15.5811V14.3125C19.7501 13.8985 20.086 13.5627 20.5 13.5625ZM12 7.50004C12.2711 7.50004 12.514 7.66692 12.6113 7.91996L13.2559 9.59477C13.459 10.1228 13.8763 10.541 14.4043 10.7442L16.0801 11.3887C16.3329 11.4861 16.5 11.729 16.5 12C16.4998 12.271 16.3329 12.5141 16.0801 12.6114L14.4043 13.2559C13.8763 13.4591 13.4589 13.8763 13.2559 14.4043L12.6113 16.0801C12.5139 16.3329 12.2709 16.5 12 16.5C11.7291 16.5 11.4861 16.3329 11.3887 16.0801L10.7441 14.4043C10.5411 13.8763 10.1237 13.4591 9.5957 13.2559L7.91992 12.6114C7.66706 12.5141 7.50016 12.271 7.5 12C7.5 11.729 7.66705 11.4861 7.91992 11.3887L9.5957 10.7442C10.1237 10.541 10.541 10.1228 10.7441 9.59477L11.3887 7.91996C11.486 7.66692 11.7289 7.50004 12 7.50004ZM5.25781 5.40434C5.61898 5.20172 6.07657 5.33038 6.2793 5.69144C6.48182 6.0526 6.35325 6.51024 5.99219 6.71293L4.88867 7.33207C4.49457 7.55324 4.25012 7.97 4.25 8.42191V9.69047C4.24975 10.1044 3.91406 10.4405 3.5 10.4405C3.08594 10.4405 2.75025 10.1044 2.75 9.69047V8.42191C2.75012 7.42751 3.28707 6.51009 4.1543 6.02348L5.25781 5.40434ZM17.7207 5.69144C17.9234 5.33039 18.381 5.20187 18.7422 5.40434L19.8457 6.02348C20.713 6.51009 21.2499 7.4275 21.25 8.42191V9.69047C21.2498 10.1044 20.9141 10.4405 20.5 10.4405C20.086 10.4403 19.7502 10.1044 19.75 9.69047V8.42191C19.7499 7.96999 19.5055 7.55324 19.1113 7.33207L18.0078 6.71293C17.6469 6.5102 17.5183 6.05255 17.7207 5.69144ZM10.6602 2.38773C11.4928 1.92316 12.5071 1.92317 13.3398 2.38773L14.4902 3.03031C14.8519 3.23219 14.9821 3.68914 14.7803 4.05082C14.5782 4.41185 14.1211 4.54136 13.7598 4.33988L12.6094 3.69828C12.2308 3.48703 11.7692 3.487 11.3906 3.69828L10.2402 4.33988C9.87883 4.54111 9.42159 4.41193 9.21973 4.05082C9.01797 3.68928 9.14845 3.23231 9.50977 3.03031L10.6602 2.38773Z" fill="#8295AE"/>
</svg>
