<svg width="18" height="20" viewBox="0 0 18 20" fill="none" xmlns="http://www.w3.org/2000/svg">
<path d="M16.9558 3.23851L9.29957 0.0597217C9.10777 -0.0198877 8.89219 -0.0199268 8.70043 0.0597217L1.04418 3.23851C0.752578 3.3596 0.5625 3.64429 0.5625 3.96003V7.82429C0.5625 13.1451 3.77848 17.9313 8.70477 19.9421C8.89398 20.0193 9.10598 20.0193 9.29523 19.9421C14.2214 17.9314 17.4375 13.1452 17.4375 7.82429V3.96003C17.4375 3.64429 17.2475 3.3596 16.9558 3.23851ZM15.875 7.82429C15.875 12.3475 13.2188 16.5115 9 18.3701C4.89398 16.5611 2.125 12.4701 2.125 7.82429V4.4816L9 1.62714L15.875 4.4816V7.82429ZM8.13648 10.4577L11.4945 7.09972C11.7995 6.79464 12.2942 6.7946 12.5993 7.09972C12.9044 7.40484 12.9044 7.89949 12.5993 8.20457L8.68891 12.1149C8.38375 12.4201 7.8891 12.42 7.58406 12.1149L5.4007 9.93156C5.09559 9.62644 5.09559 9.13179 5.4007 8.82671C5.70582 8.52164 6.20047 8.5216 6.50555 8.82671L8.13648 10.4577Z" fill="#4879FD"/>
</svg>
