<svg width="24" height="24" viewBox="0 0 24 24" fill="none" xmlns="http://www.w3.org/2000/svg">
<path id="Vector" d="M19.038 9.76128L19.6966 9.1026C20.634 8.16528 20.634 6.64572 19.6966 5.70852L18.2907 4.3026C17.3535 3.36528 15.8338 3.36528 14.8966 4.3026L4.79961 14.3996L3.59961 20.3996L9.59961 19.1996L10.9914 17.8079" stroke="#F0F4FC" stroke-width="2" stroke-linecap="round" stroke-linejoin="round"/>
<path id="Vector_2" d="M6.30078 7.7998C7.12921 7.7998 7.80078 7.12823 7.80078 6.2998C7.80078 5.47138 7.12921 4.7998 6.30078 4.7998C5.47235 4.7998 4.80078 5.47138 4.80078 6.2998C4.80078 7.12823 5.47235 7.7998 6.30078 7.7998Z" fill="#F0F4FC"/>
<path id="Vector_3" d="M19.9142 14.8354L18.1816 14.1856L17.5312 12.4531C17.3057 11.849 16.309 11.849 16.0835 12.4531L15.4331 14.1856L13.7006 14.8354C13.3996 14.9487 13.1992 15.2371 13.1992 15.5593C13.1992 15.8815 13.3996 16.1698 13.7006 16.2831L15.4331 16.9329L16.0835 18.6655C16.1963 18.9675 16.4852 19.1673 16.8074 19.1673C17.1296 19.1673 17.4184 18.9675 17.5312 18.6655L18.1816 16.9329L19.9142 16.2831C20.2151 16.1698 20.4155 15.8815 20.4155 15.5593C20.4155 15.2371 20.2151 14.9487 19.9142 14.8354Z" fill="#F0F4FC"/>
</svg>
