<svg width="72" height="102" viewBox="0 0 72 102" fill="none" xmlns="http://www.w3.org/2000/svg">
<path d="M30.5815 50.9855L68.6768 72.8253C69.9925 73.5854 71.6882 72.6206 71.6882 71.1003V30.8707C71.6882 29.3504 70.0217 28.3856 68.6768 29.1458L30.5815 50.9855Z" fill="#31CB9E"/>
<path d="M66.4547 19.7314L41.1651 0.406034C39.9956 -0.471064 38.2999 0.142904 37.9783 1.5755L28.7395 44.6118L66.2501 23.0644C67.5073 22.3335 67.6242 20.6085 66.4547 19.7314Z" fill="#31CB9E"/>
<path d="M41.1651 101.594L66.5132 82.2393C67.6534 81.3622 67.5365 79.6372 66.3086 78.9063L28.7395 57.3882L38.0075 100.424C38.2706 101.857 39.9664 102.471 41.1651 101.594Z" fill="#31CB9E"/>
<path d="M20.8165 50.9853L30.7861 4.61603C31.1662 2.80336 29.0904 1.45848 27.5993 2.62794L2.0758 22.1288C0.760151 23.1228 0 24.7016 0 26.3388V75.7194C0 77.3567 0.760151 78.9355 2.0758 79.9295L27.5993 99.4011C29.0612 100.512 31.1662 99.1964 30.7861 97.413L20.8165 50.9853Z" fill="#31CB9E"/>
</svg>
