<svg width="24" height="24" viewBox="0 0 24 24" fill="none" xmlns="http://www.w3.org/2000/svg">
<path d="M21.2494 4.75H21.9994V4H21.2494V4.75ZM21.2494 19.25V20H21.9994V19.25H21.2494ZM2.74945 19.25H1.99945V20H2.74945V19.25ZM2.74945 4.75V4H1.99945V4.75H2.74945ZM11.9994 12.6607L11.6619 13.3305L11.9994 13.5005L12.3369 13.3305L11.9994 12.6607ZM3.33693 7.45618L2.66715 7.11871L1.99219 8.45827L2.66197 8.79575L3.33693 7.45618ZM21.3369 8.79575L22.0067 8.45827L21.3317 7.11871L20.6619 7.45618L21.3369 8.79575ZM20.4994 4.75V19.25H21.9994V4.75H20.4994ZM21.2494 18.5H2.74945V20H21.2494V18.5ZM3.49945 19.25V4.75H1.99945V19.25H3.49945ZM2.74945 5.5H21.2494V4H2.74945V5.5ZM12.3369 11.9909L3.33693 7.45618L2.66197 8.79575L11.6619 13.3305L12.3369 11.9909ZM20.6619 7.45618L11.6619 11.9909L12.3369 13.3305L21.3369 8.79575L20.6619 7.45618Z" fill="#4879FD"/>
</svg>
