<svg width="62" height="103" viewBox="0 0 62 103" fill="none" xmlns="http://www.w3.org/2000/svg">
<path d="M54.2919 102.317C53.7949 102.358 53.264 102.368 52.696 102.345C37.781 101.734 22.754 102.277 7.75496 102.275C3.37996 102.274 0.566968 98.8948 0.574968 94.7228C0.612968 76.5908 0.703966 58.4588 0.703966 40.3268C0.703966 29.2378 0.703966 18.1478 0.703966 7.05378C0.703966 3.15978 3.85995 0.00277778 7.75395 0.00177778C23.35 -0.00222222 38.708 0.00177778 54.282 0.00177778C58.177 0.00177778 61.334 3.15878 61.334 7.05378C61.334 24.9158 61.1539 42.7768 61.1409 60.6378C61.1349 69.4358 61.1679 78.2348 61.2829 87.0318C61.3699 93.6088 61.9819 101.68 54.2919 102.317Z" fill="#324E77"/>
<path d="M8.01807 9.03273C7.40707 21.4967 8.11406 34.1937 7.85606 46.7507C7.58406 59.9867 7.24306 73.2257 7.40006 86.4657C7.42206 86.4657 7.44508 86.4667 7.46708 86.4667C10.3051 86.5307 13.1421 86.5337 15.9801 86.5187C26.1451 60.7087 34.7591 34.1237 46.5511 9.12773C33.0901 9.05373 8.02407 8.90873 8.01807 9.03273Z" fill="#81F8DE"/>
<path d="M15.979 86.5198C21.143 86.4928 26.307 86.3858 31.47 86.3238C35.57 86.2748 39.671 86.2538 43.77 86.3408C47.128 86.4118 50.529 87.1708 53.883 86.6818C54.665 83.2738 54.226 79.0798 54.343 75.5518C54.473 71.6138 54.58 67.6738 54.58 63.7338C54.58 57.5378 54.58 51.3418 54.58 45.1468C54.58 33.5078 54.58 21.8688 54.58 10.2288C54.58 10.1768 54.58 9.16776 54.58 9.16776C53.667 9.16776 50.645 9.15178 46.549 9.12878C34.758 34.1248 26.144 60.7098 15.979 86.5198Z" fill="#33E6BF"/>
<path d="M36.4029 97.7717H25.6359C24.1309 97.7717 22.9109 96.5567 22.9019 95.0517C22.8829 91.6647 28.1339 92.4478 30.2409 92.5198C31.9909 92.5788 35.8309 91.9297 37.3799 92.4807C40.1769 93.4767 39.3399 97.7717 36.4029 97.7717Z" fill="#162A48"/>
<path d="M35.438 5.3078C32.468 5.3078 29.575 5.3138 26.599 5.3078C26.067 5.3068 25.636 4.8748 25.636 4.3428C25.636 3.8098 26.068 3.37781 26.601 3.37781H35.437C35.97 3.37781 36.402 3.8098 36.402 4.3428C36.402 4.8758 35.971 5.3078 35.438 5.3078Z" fill="#162A48"/>
</svg>
