<svg width="16" height="16" viewBox="0 0 16 16" fill="none" xmlns="http://www.w3.org/2000/svg">
<path d="M3.16979 3.43911C3.09971 3.29894 2.89968 3.29894 2.82959 3.43911L2.39413 4.31005C2.37572 4.34686 2.34588 4.3767 2.30907 4.3951L1.43813 4.83057C1.29797 4.90066 1.29797 5.10068 1.43813 5.17077L2.30907 5.60624C2.34588 5.62464 2.37572 5.65448 2.39413 5.69129L2.82959 6.56223C2.89968 6.70238 3.09971 6.70238 3.16979 6.56223L3.60527 5.69129C3.62367 5.65448 3.65351 5.62464 3.69031 5.60624L4.56125 5.17077C4.70142 5.10068 4.70142 4.90066 4.56125 4.83057L3.69031 4.3951C3.65351 4.3767 3.62367 4.34686 3.60527 4.31005L3.16979 3.43911Z" fill="#F0F4FC"/>
<path d="M6.17664 1.44295C6.10399 1.29766 5.89666 1.29766 5.82401 1.44295L5.50404 2.08288C5.48497 2.12103 5.45404 2.15196 5.41589 2.17104L4.77596 2.491C4.63067 2.56365 4.63067 2.77098 4.77596 2.84363L5.41589 3.1636C5.45404 3.18267 5.48497 3.2136 5.50404 3.25175L5.82401 3.89168C5.89666 4.03697 6.10399 4.03697 6.17664 3.89168L6.4966 3.25175C6.51568 3.2136 6.54661 3.18267 6.58476 3.1636L7.22466 2.84363C7.36999 2.77098 7.36999 2.56365 7.22466 2.491L6.58476 2.17104C6.54661 2.15196 6.51568 2.12103 6.4966 2.08288L6.17664 1.44295Z" fill="#F0F4FC"/>
<path d="M12.5033 10.1052C12.4332 9.96495 12.2332 9.96495 12.1631 10.1052L11.7277 10.9761C11.7093 11.0129 11.6794 11.0428 11.6426 11.0612L10.7717 11.4966C10.6315 11.5667 10.6315 11.7667 10.7717 11.8368L11.6426 12.2722C11.6794 12.2906 11.7093 12.3205 11.7277 12.3573L12.1631 13.2282C12.2332 13.3684 12.4332 13.3684 12.5033 13.2282L12.9387 12.3573C12.9571 12.3205 12.987 12.2906 13.0238 12.2722L13.8947 11.8368C14.0349 11.7667 14.0349 11.5667 13.8947 11.4966L13.0238 11.0612C12.987 11.0428 12.9571 11.0129 12.9387 10.9761L12.5033 10.1052Z" fill="#F0F4FC"/>
<path d="M12.2761 2.94326L13.0572 3.72431C13.5779 4.24501 13.5779 5.08923 13.0572 5.60993L5.55719 13.11C5.30714 13.36 4.96801 13.5004 4.61438 13.5004H2.5V11.3861C2.5 11.0324 2.64047 10.6933 2.89053 10.4433L10.3905 2.94326C10.9112 2.42256 11.7555 2.42256 12.2761 2.94326Z" stroke="#F0F4FC" stroke-width="1.5" stroke-linecap="round" stroke-linejoin="round"/>
</svg>
