<svg width="16" height="16" viewBox="0 0 16 16" fill="none" xmlns="http://www.w3.org/2000/svg">
<path d="M1.64003 6.63752L2.39251 10.905C2.52038 11.6302 3.21193 12.1145 3.93711 11.9866L6.74273 11.4919M1.64003 6.63752L1.4085 5.32445C1.28063 4.59925 1.76485 3.90771 2.49005 3.77984L8.72713 2.68007C9.45233 2.55219 10.1439 3.03642 10.2718 3.76161L10.5033 5.07469L1.64003 6.63752ZM10.6665 7.83333V9.33333L11.9999 10.6667M14.8332 9.33333C14.8332 11.6345 12.9677 13.5 10.6665 13.5C8.36533 13.5 6.49989 11.6345 6.49989 9.33333C6.49989 7.03213 8.36533 5.16665 10.6665 5.16665C12.9677 5.16665 14.8332 7.03213 14.8332 9.33333Z" stroke="#8295AE" stroke-linecap="round" stroke-linejoin="round"/>
</svg>
