<svg width="32" height="32" viewBox="0 0 32 32" fill="none" xmlns="http://www.w3.org/2000/svg">
<g clip-path="url(#clip0_48948_109918)">
<path d="M15.9972 27.35L15.9986 23.6653C15.6274 23.6653 15.2532 23.6357 14.887 23.5772L14.3154 27.2171C14.8697 27.3053 15.4356 27.35 15.9979 27.35H15.9972ZM17.679 27.2186C18.2349 27.1304 18.7871 26.9982 19.3214 26.8241L18.1939 23.3185C17.842 23.4334 17.4773 23.5208 17.1103 23.5786L17.679 27.2186ZM12.6723 26.8219L13.8026 23.317C13.45 23.2022 13.1046 23.0577 12.775 22.8886L11.1104 26.1709C11.6109 26.4281 12.1366 26.6471 12.6723 26.8219ZM20.8826 26.1753C21.3838 25.9188 21.8686 25.6197 22.3239 25.2866L20.1688 22.307C19.8693 22.5267 19.5505 22.7232 19.2208 22.8915L20.8826 26.1753ZM9.66981 25.2808L11.8271 22.3027C11.529 22.0845 11.2447 21.8388 10.9804 21.5737L8.38869 24.1776L8.39084 24.1797C8.78868 24.58 9.21884 24.9506 9.66981 25.2808ZM23.5877 24.2021L23.61 24.179C24.0064 23.7802 24.3741 23.3481 24.703 22.8951L21.7436 20.724C21.5267 21.0231 21.2833 21.3092 21.0205 21.5744L20.9838 21.612L22.229 22.7947L23.5877 24.2021ZM7.29283 22.8879L10.2536 20.7189C10.0354 20.4177 9.84002 20.0969 9.67196 19.7653L6.40882 21.4378C6.66376 21.9414 6.96106 22.4291 7.29283 22.8872V22.8879ZM25.5884 21.4451C25.8441 20.9415 26.0617 20.4126 26.2362 19.8736L22.7526 18.7357C22.6384 19.0904 22.4948 19.438 22.3267 19.7696L25.5884 21.4451ZM5.76323 19.8657L9.24757 18.7306C9.13338 18.3766 9.04649 18.0096 8.98831 17.6404L5.37042 18.2141C5.45803 18.7733 5.59016 19.3289 5.76323 19.8664V19.8657ZM26.6297 18.222C26.7173 17.6642 26.7618 17.0949 26.7626 16.5299L23.1001 16.5277C23.1001 16.9013 23.0707 17.2777 23.0125 17.6469L26.6297 18.222ZM8.90142 16.522C8.90142 16.1484 8.93087 15.7713 8.98831 15.4028L5.37042 14.8291C5.2828 15.3869 5.239 15.9562 5.23828 16.5212H8.90072L8.90142 16.522ZM23.014 15.4086L26.6319 14.8371C26.545 14.2779 26.4128 13.7223 26.2405 13.1847L22.7554 14.3176C22.8696 14.6724 22.9565 15.0387 23.014 15.4079V15.4086ZM9.24757 14.3133C9.36174 13.9585 9.50536 13.6103 9.67269 13.2787L6.40954 11.6054C6.15461 12.1089 5.93701 12.6378 5.76323 13.1768L9.24684 14.3133H9.24757ZM22.331 13.2837L25.5956 11.6133C25.3407 11.109 25.0434 10.6213 24.7123 10.1632L21.7501 12.3307C21.9677 12.632 22.163 12.9528 22.331 13.2845V13.2837ZM10.2551 12.325C10.4727 12.0244 10.7168 11.7368 10.9811 11.4717L10.9883 11.4645L8.39873 8.85914L8.39156 8.86636C7.99372 9.26663 7.6246 9.70086 7.29499 10.1553L10.2551 12.325ZM21.0334 11.4847L21.8154 10.682L23.6157 8.87141L23.61 8.86563C23.2143 8.46754 22.7856 8.09835 22.3361 7.76816L20.1774 10.7448C20.4747 10.9631 20.7583 11.2073 21.0205 11.4717L21.0334 11.4847ZM11.8357 10.7369C12.1351 10.518 12.454 10.3215 12.7836 10.1531L11.124 6.86865C10.6228 7.12514 10.138 7.42353 9.68276 7.7566L11.8357 10.7369ZM19.2302 10.1589L20.8969 6.87804C20.3964 6.62083 19.8715 6.40119 19.3357 6.22635L18.2033 9.73047C18.5559 9.84606 18.9013 9.98983 19.2309 10.1596L19.2302 10.1589ZM13.8119 9.72614C14.1645 9.61198 14.5294 9.52455 14.8956 9.46675L14.329 5.82609C13.7739 5.91351 13.2209 6.04573 12.6866 6.21985L13.8119 9.72614ZM17.1196 9.46893L17.6927 5.82897C17.1383 5.74083 16.5724 5.69531 16.0108 5.69531L16.0072 9.38005C16.3785 9.38005 16.7526 9.41041 17.1196 9.46893Z" fill="white"/>
<path d="M15.9987 23.8315V20.1282C15.6893 20.1282 15.3807 20.0876 15.0822 20.0084L14.1265 23.5861C14.7365 23.7488 15.3661 23.8315 15.9987 23.8315ZM17.8708 23.5861C18.483 23.4227 19.072 23.1795 19.6196 22.8629L17.7663 19.6562C17.4997 19.8102 17.2136 19.9285 16.9159 20.0077L17.8708 23.5861ZM12.377 22.8622L14.2311 19.6562C13.9653 19.5023 13.7191 19.3128 13.4983 19.0927L13.4642 19.0593L12.2943 20.2909L10.8585 21.6901L10.8796 21.7105C11.3284 22.1592 11.8324 22.5463 12.3778 22.8622H12.377ZM21.1178 21.7119H21.1185C21.5665 21.2624 21.9536 20.7592 22.2688 20.2146L19.0633 18.3601C18.9093 18.6258 18.7198 18.872 18.4997 19.092L21.1178 21.7119ZM9.72419 20.2066L12.9326 18.3564C12.7786 18.0899 12.661 17.8038 12.5818 17.5054L9.00234 18.4574C9.16501 19.0695 9.40827 19.6584 9.72419 20.2066ZM22.9936 18.4668C23.1562 17.8568 23.239 17.2273 23.2398 16.5948L19.5361 16.5934C19.5361 16.9034 19.4954 17.212 19.4155 17.5105L22.9936 18.4668ZM12.4627 16.589C12.4627 16.2789 12.5034 15.9703 12.584 15.6719L9.00668 14.7134C8.84329 15.3233 8.75977 15.9529 8.75977 16.5854L12.4635 16.589H12.4627ZM19.4162 15.6763L22.995 14.7228C22.8316 14.1107 22.5883 13.5218 22.2724 12.9743L19.0647 14.8259C19.2187 15.0924 19.3371 15.3785 19.4162 15.6763ZM12.9362 14.8216C13.088 14.5595 13.2754 14.3162 13.4918 14.0983L13.5012 14.0889L12.1766 12.7644L10.9028 11.4508L10.8796 11.4733C10.4322 11.9206 10.0459 12.4224 9.73144 12.9656L12.9362 14.8216ZM18.5019 14.0933L19.8135 12.7819L21.1519 11.5068L21.1185 11.4726C20.6711 11.0253 20.1679 10.6383 19.6239 10.3231L17.7685 13.5283C18.0306 13.6801 18.2746 13.8674 18.4925 14.0838L18.5019 14.0933ZM14.2332 13.5262C14.499 13.3722 14.7852 13.2546 15.0836 13.1747L14.1308 9.59628C13.5179 9.75965 12.9297 10.0022 12.3814 10.3188L14.2332 13.5262ZM16.9181 13.1761L17.8759 9.59845C17.2659 9.43506 16.6363 9.35229 16.0037 9.35156L16.0016 13.0549C16.3117 13.0549 16.6203 13.0955 16.9188 13.1754L16.9181 13.1761Z" fill="white"/>
</g>
<defs>
<clipPath id="clip0_48948_109918">
<rect width="21.7412" height="22" fill="white" transform="translate(5.12988 5.5)"/>
</clipPath>
</defs>
</svg>
