<svg width="32" height="32" viewBox="0 0 32 32" fill="none" xmlns="http://www.w3.org/2000/svg">
<g clip-path="url(#clip0_48948_109922)">
<path d="M26.9206 15.8142V9.85581C26.9206 9.50532 26.6401 9.21997 26.2879 9.21222C25.9263 9.20446 25.5631 9.21066 25.2077 9.23083C23.685 9.31612 22.2152 9.65576 20.8374 10.2404C19.7494 10.7026 18.7191 11.3183 17.7777 12.0673C17.1216 12.59 16.5293 13.1576 16.0181 13.7577C15.9947 13.7841 15.9744 13.812 15.951 13.8384C15.9292 13.812 15.9074 13.7841 15.884 13.7577C15.3712 13.1591 14.7805 12.59 14.1243 12.0673C13.1829 11.3167 12.1526 10.7026 11.0647 10.2404C9.68845 9.65421 8.21865 9.31457 6.69588 9.23083C6.34049 9.21066 5.97736 9.20601 5.61576 9.21222C5.26347 9.21997 4.98293 9.50532 4.98293 9.85581V15.8142H0V22.0594H6.27659V17.1463C7.01383 17.23 7.67002 17.4425 8.26231 17.7899C8.72053 18.0598 9.16318 18.4382 9.61676 18.9484C9.83183 19.1903 10.0298 19.4493 10.2402 19.7223C10.4335 19.972 10.6314 20.2325 10.848 20.4822C10.873 20.5117 10.898 20.538 10.9244 20.5675L10.9587 20.6047L11.4372 20.1813L10.9619 20.6171C12.5828 22.368 14.1368 23.342 15.5816 23.5125C15.7219 23.5296 15.8622 23.5373 16.004 23.5373C17.5533 23.5373 19.2132 22.5526 20.9449 20.6047L20.9807 20.5644C21.0057 20.538 21.0291 20.5101 21.0524 20.4837C21.2691 20.234 21.467 19.9751 21.6603 19.7254C21.8707 19.4524 22.0686 19.1934 22.2853 18.9515C22.7389 18.4413 23.183 18.0613 23.6397 17.793C24.232 17.4441 24.8866 17.2332 25.6255 17.1494V22.0625H31.902V15.8173H26.9191L26.9206 15.8142ZM4.98293 20.7706H1.29366V17.1013H4.9814V20.7706H4.98293ZM20.6347 18.9391C20.4446 19.1857 20.2669 19.4183 20.0736 19.6401L19.977 19.7471C18.4074 21.5135 16.9408 22.3742 15.7344 22.23C14.6246 22.0982 13.306 21.2406 11.922 19.7486L11.9251 19.7455L11.83 19.6385C11.6383 19.4167 11.4591 19.1841 11.2689 18.936C11.0538 18.6569 10.8325 18.3684 10.5862 18.0923C10.0407 17.4797 9.49674 17.0176 8.92002 16.678C8.1376 16.2189 7.25077 15.9413 6.27659 15.8483V10.501C6.3935 10.5041 6.50885 10.5087 6.62419 10.5149C7.99575 10.5909 9.31907 10.8964 10.5581 11.4237C11.5385 11.8409 12.4659 12.3945 13.3169 13.0723C13.9092 13.5437 14.4407 14.0555 14.9005 14.5921C15.0346 14.7503 15.1624 14.9116 15.298 15.0837L15.3931 15.2062C15.5317 15.4652 15.8029 15.7289 16.096 16.0111C17.6047 17.472 19.3441 18.3265 21.0259 18.4366C20.8903 18.6041 20.7609 18.7716 20.6347 18.9376V18.9391ZM22.9835 16.6795C22.7825 16.7974 22.5846 16.9308 22.3897 17.0796C22.2432 17.1013 22.0998 17.12 21.9611 17.1324C21.8505 17.1432 21.7382 17.151 21.6245 17.1572C21.52 17.1618 21.4156 17.1634 21.3096 17.1618C19.8788 17.1339 18.3467 16.3973 16.9953 15.0899C16.9563 15.0527 16.8691 14.9627 16.7771 14.8651C16.8519 14.772 16.9252 14.6805 17.0016 14.5921C17.4598 14.0555 17.9928 13.5437 18.5851 13.0723C19.4346 12.3945 20.3635 11.8409 21.3439 11.4237C22.5814 10.8964 23.9062 10.5909 25.2779 10.5149C25.3932 10.5087 25.5085 10.5041 25.6255 10.501V15.8483C24.6497 15.9413 23.7629 16.2189 22.982 16.678L22.9835 16.6795ZM30.61 20.7706H26.9222V17.1013H30.61V20.7706Z" fill="url(#paint0_linear_48948_109922)"/>
</g>
<defs>
<linearGradient id="paint0_linear_48948_109922" x1="19.8822" y1="26.715" x2="30.1247" y2="0.406166" gradientUnits="userSpaceOnUse">
<stop stop-color="#54EEF6"/>
<stop offset="1" stop-color="#72FFA0"/>
</linearGradient>
<clipPath id="clip0_48948_109922">
<rect width="32" height="14.3284" fill="white" transform="translate(0 9.20605)"/>
</clipPath>
</defs>
</svg>
