<svg width="252" height="252" viewBox="0 0 252 252" fill="none" xmlns="http://www.w3.org/2000/svg">
<path d="M189 189C223.794 154.206 223.794 97.7939 189 63C154.206 28.2061 97.7939 28.2061 63 63C28.2061 97.7939 28.2061 154.206 63 189C97.7939 223.794 154.206 223.794 189 189Z" fill="#102E59"/>
<g opacity="0.4">
<path d="M70.3443 93.3751H62.0532V112.473H70.3443V93.3751Z" fill="#33E6BF"/>
<path d="M66.8164 76.6647H65.5797V115.756H66.8164V76.6647Z" fill="#33E6BF"/>
<path d="M82.8968 72.8967H74.6057V97.0502H82.8968V72.8967Z" fill="#33E6BF"/>
<path d="M79.3703 65.7789H78.1335V109.265H79.3703V65.7789Z" fill="#33E6BF"/>
<path d="M170.771 99.2675H162.48V112.879H170.771V99.2675Z" fill="#33E6BF"/>
<path d="M167.244 92.1497H166.008V125.094H167.244V92.1497Z" fill="#33E6BF"/>
<path d="M246.093 58.8077H237.802V81.2595H246.093V58.8077Z" fill="#33E6BF"/>
<path d="M242.565 48.9053H241.328V94.7407H242.565V48.9053Z" fill="#33E6BF"/>
<path d="M57.7905 110.36H49.4994V123.148H57.7905V110.36Z" fill="#33E6BF"/>
<path d="M54.2638 106.264H53.0271V129.594H54.2638V106.264Z" fill="#33E6BF"/>
<path d="M158.219 97.2692H149.927V106.507H158.219V97.2692Z" fill="#33E6BF"/>
<path d="M154.691 94.3103H153.454V111.163H154.691V94.3103Z" fill="#33E6BF"/>
<path d="M145.665 80.0823H137.374V106.799H145.665V80.0823Z" fill="#33E6BF"/>
<path d="M142.138 74.9015H140.901V114.954H142.138V74.9015Z" fill="#33E6BF"/>
<path d="M133.111 73.4911H124.82V109.835H133.111V73.4911Z" fill="#33E6BF"/>
<path d="M129.584 65.1589H128.347V114.271H129.584V65.1589Z" fill="#33E6BF"/>
<path d="M120.557 74.6443H112.266V82.5757H120.557V74.6443Z" fill="#33E6BF"/>
<path d="M117.03 72.1038H115.794V97.1157H117.03V72.1038Z" fill="#33E6BF"/>
<path d="M108.004 67.5922H99.7134V94.3091H108.004V67.5922Z" fill="#33E6BF"/>
<path d="M104.477 62.4115H103.24V102.464H104.477V62.4115Z" fill="#33E6BF"/>
<path d="M95.4506 80.5784H87.1595V107.334H95.4506V80.5784Z" fill="#33E6BF"/>
<path d="M91.9242 71.4894H90.6875V110.58H91.9242V71.4894Z" fill="#33E6BF"/>
<path d="M195.879 73.1387H187.588V95.7503H195.879V73.1387Z" fill="#33E6BF"/>
<path d="M192.351 66.9713H191.114V99.0343H192.351V66.9713Z" fill="#33E6BF"/>
<path d="M208.431 63.2034H200.14V80.3288H208.431V63.2034Z" fill="#33E6BF"/>
<path d="M204.904 56.0854H203.668V92.5439H204.904V56.0854Z" fill="#33E6BF"/>
<path d="M183.325 93.6378H175.034V106.426H183.325V93.6378Z" fill="#33E6BF"/>
<path d="M179.798 89.5424H178.562V112.872H179.798V89.5424Z" fill="#33E6BF"/>
<path d="M233.539 55.5795H225.248V64.5161H233.539V55.5795Z" fill="#33E6BF"/>
<path d="M230.011 52.7181H228.774V79.5632H230.011V52.7181Z" fill="#33E6BF"/>
<path d="M220.985 70.8838H212.694V104.666H220.985V70.8838Z" fill="#33E6BF"/>
<path d="M217.459 61.796H216.222V107.915H217.459V61.796Z" fill="#33E6BF"/>
<path d="M21.1285 101.813H12.8374V120.911H21.1285V101.813Z" fill="#33E6BF"/>
<path d="M17.6005 95.6449H16.3638V124.194H17.6005V95.6449Z" fill="#33E6BF"/>
<path d="M33.6809 81.3362H25.3898V105.49H33.6809V81.3362Z" fill="#33E6BF"/>
<path d="M30.1545 74.2183H28.9177V117.704H30.1545V74.2183Z" fill="#33E6BF"/>
<path d="M8.57465 117.801H0.283569V127.474H8.57465V117.801Z" fill="#33E6BF"/>
<path d="M5.04667 114.703H3.80994V132.351H5.04667V114.703Z" fill="#33E6BF"/>
<path d="M46.2348 99.5587H37.9437V115.772H46.2348V99.5587Z" fill="#33E6BF"/>
<path d="M42.7083 79.929H41.4716V119.02H42.7083V79.929Z" fill="#33E6BF"/>
</g>
<path d="M170.526 202.656L154.686 211.861C166.098 205.228 174.141 197.746 174.915 197.026L190.755 187.822C189.981 188.542 181.938 196.024 170.526 202.656Z" fill="#4879FD"/>
<path d="M61.1735 39.5342L77.013 30.3293L134.124 37.2088L118.284 46.4137L61.1735 39.5342Z" fill="#4879FD"/>
<path d="M118.284 46.4139L175.175 105.353L174.915 197.026C173.431 198.407 145.23 224.642 117.786 222.092C90.4179 192.996 62.3892 134.297 60.9138 131.207L61.1736 39.5344L118.284 46.4139Z" fill="#0439C7"/>
<path d="M118.284 46.4136L134.124 37.2087L191.015 96.1479L175.175 105.353L118.284 46.4136Z" fill="#4879FD"/>
<path d="M175.175 105.353L191.015 96.1481L190.755 187.821L174.915 197.026L175.175 105.353Z" fill="#042D9A"/>
<path d="M165.446 109.308V185.944C165.446 185.944 140.838 209.206 118.027 207.071C113.083 201.788 107.913 195.047 103.193 187.966C95.8902 177.629 89.1473 166.28 83.7534 156.392C75.8878 142.234 70.6074 131.222 70.6074 131.222V54.5852L118.027 60.2034L148.478 91.6674L165.446 109.308Z" fill="#15D7AC"/>
<path d="M118.042 72.4159L109.444 77.38L118.042 92.272L126.64 87.3078L118.042 72.4159Z" fill="#4879FD"/>
<path d="M118.041 175.969L109.443 180.933L118.041 195.825L126.639 190.861L118.041 175.969Z" fill="#4879FD"/>
<path d="M93.4087 100.836L96.9459 111.153L104.855 117.047L99.1319 120.184L100.483 130.059L93.4087 121.681L86.3344 121.891L87.686 113.575L81.9629 103.83L89.8716 107.069L93.4087 100.836Z" fill="#FFC947"/>
<path d="M117.98 115.022L121.517 125.34L129.426 131.233L123.703 134.37L125.054 144.246L117.98 135.867L110.906 136.077L112.257 127.762L106.534 118.016L114.443 121.255L117.98 115.022Z" fill="#FFC947"/>
<path d="M142.551 129.208L146.088 139.526L153.997 145.419L148.274 148.557L149.625 158.432L142.551 150.053L135.477 150.264L136.828 141.948L131.105 132.202L139.014 135.441L142.551 129.208Z" fill="#FFC947"/>
<g opacity="0.3">
<path d="M165.446 109.307V125.603L103.194 187.966C95.8906 177.628 89.1476 166.279 83.7538 156.392L148.479 91.6671L165.446 109.307Z" fill="white"/>
</g>
</svg>
