<svg width="32" height="32" viewBox="0 0 32 32" fill="none" xmlns="http://www.w3.org/2000/svg">
<g clip-path="url(#clip0_48948_110013)">
<path d="M26.6191 11.4291C25.541 10.4336 24.0496 8.91343 22.8349 7.8353L22.763 7.78499C22.6435 7.68896 22.5086 7.61365 22.3641 7.56218C19.4352 7.01593 5.80414 4.46796 5.5382 4.50031C5.46369 4.51074 5.39246 4.53776 5.32977 4.57937L5.26148 4.63327C5.17741 4.71866 5.11355 4.82182 5.07461 4.93515L5.05664 4.98187V5.23702V5.27656C6.59117 9.54952 12.6502 23.5472 13.8434 26.8319C13.9152 27.0547 14.0518 27.4787 14.307 27.5003H14.3645C14.501 27.5003 15.0832 26.7312 15.0832 26.7312C15.0832 26.7312 25.4907 14.11 26.5437 12.7659C26.68 12.6004 26.8003 12.4223 26.903 12.2341C26.9293 12.0868 26.9169 11.9352 26.8672 11.7941C26.8174 11.6531 26.732 11.5273 26.6191 11.4291ZM17.7534 12.8989L22.1952 9.2153L24.8007 11.6159L17.7534 12.8989ZM16.0284 12.6581L8.38086 6.39062L20.7541 8.67265L16.0284 12.6581ZM16.7184 14.3005L24.5455 13.0391L15.5971 23.8203L16.7184 14.3005ZM7.34227 7.01593L15.3887 13.8441L14.2243 23.8275L7.34227 7.01593Z" fill="#FF060A"/>
</g>
<defs>
<clipPath id="clip0_48948_110013">
<rect width="23" height="23" fill="white" transform="translate(4.5 4.5)"/>
</clipPath>
</defs>
</svg>
