<svg width="32" height="32" viewBox="0 0 32 32" fill="none" xmlns="http://www.w3.org/2000/svg">
<g clip-path="url(#clip0_48948_109669)">
<path d="M10.0039 7.6761L16.3727 4L22.7415 7.6761L20.4 9.03415L16.3727 6.7161L12.3454 9.03415L10.0039 7.6761ZM22.7415 12.3122L20.4 10.9542L16.3727 13.2722L12.3454 10.9542L10.0039 12.3122V15.0283L14.0312 17.3463V21.9824L16.3727 23.3405L18.7142 21.9824V17.3463L22.7415 15.0283V12.3122ZM22.7415 19.6644V16.9483L20.4 18.3063V21.0224L22.7415 19.6644ZM24.4039 20.6244L20.3766 22.9424V25.6585L26.7454 21.9824V14.6302L24.4039 15.9883V20.6244ZM22.0625 9.99415L24.4039 11.3522V14.0683L26.7454 12.7102V9.99415L24.4039 8.6361L22.0625 9.99415ZM14.0312 23.9259V26.642L16.3727 28L18.7142 26.642V23.9259L16.3727 25.2839L14.0312 23.9259ZM10.0039 19.6644L12.3454 21.0224V18.3063L10.0039 16.9483V19.6644ZM14.0312 9.99415L16.3727 11.3522L18.7142 9.99415L16.3727 8.6361L14.0312 9.99415ZM8.34146 11.3522L10.6829 9.99415L8.34146 8.6361L6 9.99415V12.7102L8.34146 14.0683V11.3522ZM8.34146 15.9883L6 14.6302V21.9824L12.3688 25.6585V22.9424L8.34146 20.6244V15.9883Z" fill="#F0B90B"/>
</g>
<defs>
<clipPath id="clip0_48948_109669">
<rect width="21" height="24" fill="white" transform="translate(6 4)"/>
</clipPath>
</defs>
</svg>
