<svg width="24" height="24" viewBox="0 0 24 24" fill="none" xmlns="http://www.w3.org/2000/svg">
<path id="Vector" d="M12.0004 2.40039C6.70719 2.40039 2.40039 6.70719 2.40039 12.0004C2.40039 17.2936 6.70719 21.6004 12.0004 21.6004C17.2936 21.6004 21.6004 17.2936 21.6004 12.0004C21.6004 6.70719 17.2936 2.40039 12.0004 2.40039ZM15.394 6.90879C15.8632 6.43959 16.6228 6.43959 17.0908 6.90879C17.56 7.37799 17.56 8.13759 17.0908 8.60559C16.6216 9.07479 15.862 9.07479 15.394 8.60559C14.926 8.13639 14.9248 7.37679 15.394 6.90879ZM4.80039 12.0004C4.80039 11.338 5.33799 10.8004 6.00039 10.8004C6.66279 10.8004 7.20039 11.338 7.20039 12.0004C7.20039 12.6628 6.66279 13.2004 6.00039 13.2004C5.33799 13.2004 4.80039 12.6628 4.80039 12.0004ZM8.60679 17.092C8.13759 17.5612 7.37799 17.5612 6.90999 17.092C6.44079 16.6228 6.44079 15.8632 6.90999 15.3952C7.37919 14.926 8.13879 14.926 8.60679 15.3952C9.07479 15.8644 9.07599 16.624 8.60679 17.092ZM12.0004 19.2004C11.338 19.2004 10.8004 18.6628 10.8004 18.0004C10.8004 17.338 11.338 16.8004 12.0004 16.8004C12.6628 16.8004 13.2004 17.338 13.2004 18.0004C13.2004 18.6628 12.6628 19.2004 12.0004 19.2004ZM12.8488 12.8488C12.6148 13.0828 12.3076 13.2004 12.0004 13.2004C11.6932 13.2004 11.386 13.0828 11.152 12.8488L6.95199 8.64879C6.48279 8.17959 6.48279 7.42119 6.95199 6.95199C7.42119 6.48279 8.17959 6.48279 8.64879 6.95199L12.8488 11.152C13.318 11.6212 13.318 12.3796 12.8488 12.8488ZM12.0004 7.20039C11.338 7.20039 10.8004 6.66279 10.8004 6.00039C10.8004 5.33799 11.338 4.80039 12.0004 4.80039C12.6628 4.80039 13.2004 5.33799 13.2004 6.00039C13.2004 6.66279 12.6628 7.20039 12.0004 7.20039ZM17.092 17.092C16.6228 17.5612 15.8632 17.5612 15.3952 17.092C14.926 16.6228 14.926 15.8632 15.3952 15.3952C15.8644 14.9272 16.624 14.926 17.092 15.3952C17.5612 15.8644 17.5612 16.624 17.092 17.092ZM18.0004 13.2004C17.338 13.2004 16.8004 12.6628 16.8004 12.0004C16.8004 11.338 17.338 10.8004 18.0004 10.8004C18.6628 10.8004 19.2004 11.338 19.2004 12.0004C19.2004 12.6628 18.6628 13.2004 18.0004 13.2004Z" fill="#F0F4FC"/>
</svg>
