<svg width="196" height="45" viewBox="0 0 196 45" fill="none" xmlns="http://www.w3.org/2000/svg">
<path d="M22.168 26.2152L3.27571 37.1504L0.5 34.3747L17.0617 23.2462L22.168 26.2152Z" fill="url(#paint0_linear_1214_9747)"/>
<path d="M22.5951 26.9548L3.6787 37.8484L4.69465 41.6401L22.6131 32.8615L22.5951 26.9548Z" fill="url(#paint1_linear_1214_9747)"/>
<path d="M23.3461 26.9548L42.2624 37.8484L41.2465 41.6401L23.328 32.8615L23.3461 26.9548Z" fill="url(#paint2_linear_1214_9747)"/>
<path d="M23.7731 26.2151L42.6654 37.1504L45.4411 34.3747L28.8794 23.2462L23.7731 26.2151Z" fill="url(#paint3_linear_1214_9747)"/>
<path d="M23.3461 25.4071L23.322 3.57819L27.1137 2.56219L28.4705 22.4693L23.3461 25.4071Z" fill="url(#paint4_linear_1214_9747)"/>
<path d="M22.492 25.4071L22.5161 3.57819L18.7244 2.56219L17.3677 22.4693L22.492 25.4071Z" fill="url(#paint5_linear_1214_9747)"/>
<path d="M22.168 26.2152L3.27571 37.1504L0.5 34.3747L17.0617 23.2462L22.168 26.2152Z" stroke="url(#paint6_linear_1214_9747)" stroke-width="0.247725"/>
<path d="M22.5951 26.9548L3.6787 37.8484L4.69465 41.6401L22.6131 32.8615L22.5951 26.9548Z" stroke="url(#paint7_linear_1214_9747)" stroke-width="0.247725"/>
<path d="M23.3461 26.9548L42.2624 37.8484L41.2465 41.6401L23.328 32.8615L23.3461 26.9548Z" stroke="url(#paint8_linear_1214_9747)" stroke-width="0.247725"/>
<path d="M23.7731 26.2151L42.6654 37.1504L45.4411 34.3747L28.8794 23.2462L23.7731 26.2151Z" stroke="url(#paint9_linear_1214_9747)" stroke-width="0.247725"/>
<path d="M23.3461 25.4071L23.322 3.57819L27.1137 2.56219L28.4705 22.4693L23.3461 25.4071Z" stroke="url(#paint10_linear_1214_9747)" stroke-width="0.247725"/>
<path d="M22.492 25.4071L22.5161 3.57819L18.7244 2.56219L17.3677 22.4693L22.492 25.4071Z" stroke="url(#paint11_linear_1214_9747)" stroke-width="0.247725"/>
<path d="M66.4318 35.4191L55.0613 9.40799H60.3007L70.445 32.9294H67.4351L77.6909 9.40799H82.5215L71.1881 35.4191H66.4318ZM91.7476 35.6792C90.0631 35.6792 88.5768 35.3695 87.2886 34.7502C86.0004 34.1061 84.9971 33.14 84.2787 31.8518C83.5603 30.5389 83.2011 28.8915 83.2011 26.9097V15.5763H87.846V26.278C87.846 28.0616 88.2423 29.3994 89.0351 30.2912C89.8525 31.1582 91.0045 31.5917 92.4908 31.5917C93.5808 31.5917 94.5222 31.3688 95.3149 30.9229C96.1324 30.477 96.7641 29.8081 97.21 28.9163C97.6806 28.0245 97.916 26.9221 97.916 25.6092V15.5763H102.561V35.4191H98.1389V30.0682L98.9193 31.7032C98.2504 32.9914 97.2719 33.9823 95.9837 34.6759C94.6956 35.3448 93.2835 35.6792 91.7476 35.6792ZM107.825 35.4191V7.84732H112.47V35.4191H107.825ZM126.197 35.6792C124.017 35.6792 122.333 35.1218 121.144 34.007C119.955 32.8675 119.36 31.1954 119.36 28.9906V11.1916H124.005V28.8791C124.005 29.8205 124.24 30.5513 124.711 31.0715C125.206 31.5917 125.888 31.8518 126.755 31.8518C127.795 31.8518 128.662 31.5793 129.356 31.0343L130.656 34.3415C130.111 34.7874 129.442 35.1218 128.65 35.3448C127.857 35.5677 127.039 35.6792 126.197 35.6792ZM116.09 19.4408V15.725H129.319V19.4408H116.09ZM133.66 35.4191V15.5763H138.305V35.4191H133.66ZM136.001 12.3064C135.134 12.3064 134.415 12.0339 133.846 11.4889C133.301 10.9439 133.028 10.2874 133.028 9.51946C133.028 8.72675 133.301 8.07027 133.846 7.55005C134.415 7.00506 135.134 6.73256 136.001 6.73256C136.868 6.73256 137.574 6.99267 138.119 7.51289C138.689 8.00834 138.973 8.64004 138.973 9.40799C138.973 10.2255 138.701 10.9191 138.156 11.4889C137.611 12.0339 136.893 12.3064 136.001 12.3064ZM149.715 35.6792C148.055 35.6792 146.457 35.4686 144.921 35.0475C143.41 34.6016 142.209 34.069 141.317 33.4497L143.1 29.9196C143.992 30.4893 145.057 30.96 146.296 31.3316C147.535 31.7032 148.773 31.889 150.012 31.889C151.473 31.889 152.526 31.6908 153.17 31.2945C153.839 30.8981 154.174 30.3655 154.174 29.6966C154.174 29.1516 153.951 28.7429 153.505 28.4704C153.059 28.1731 152.477 27.9502 151.758 27.8015C151.04 27.6529 150.235 27.5167 149.343 27.3928C148.476 27.2689 147.597 27.1079 146.705 26.9097C145.838 26.6868 145.045 26.3771 144.327 25.9808C143.608 25.5596 143.026 25.0022 142.58 24.3086C142.134 23.615 141.911 22.6984 141.911 21.5589C141.911 20.2955 142.27 19.2055 142.989 18.2889C143.707 17.3476 144.711 16.6292 145.999 16.1337C147.312 15.6135 148.86 15.3534 150.644 15.3534C151.981 15.3534 153.331 15.502 154.694 15.7993C156.056 16.0966 157.183 16.5177 158.075 17.0627L156.292 20.5928C155.35 20.023 154.397 19.639 153.43 19.4408C152.489 19.2179 151.548 19.1064 150.606 19.1064C149.194 19.1064 148.142 19.317 147.448 19.7381C146.779 20.1592 146.445 20.6918 146.445 21.3359C146.445 21.9305 146.668 22.3764 147.113 22.6736C147.559 22.9709 148.142 23.2062 148.86 23.3797C149.578 23.5531 150.371 23.7017 151.238 23.8256C152.13 23.9246 153.009 24.0857 153.876 24.3086C154.743 24.5316 155.536 24.8412 156.255 25.2376C156.998 25.6092 157.592 26.1418 158.038 26.8354C158.484 27.529 158.707 28.4332 158.707 29.548C158.707 30.7866 158.335 31.8642 157.592 32.7808C156.874 33.6974 155.846 34.4158 154.508 34.936C153.17 35.4315 151.573 35.6792 149.715 35.6792ZM161.89 35.4191V15.5763H166.534V35.4191H161.89ZM164.231 12.3064C163.364 12.3064 162.645 12.0339 162.075 11.4889C161.53 10.9439 161.258 10.2874 161.258 9.51946C161.258 8.72675 161.53 8.07027 162.075 7.55005C162.645 7.00506 163.364 6.73256 164.231 6.73256C165.098 6.73256 165.804 6.99267 166.349 7.51289C166.918 8.00834 167.203 8.64004 167.203 9.40799C167.203 10.2255 166.931 10.9191 166.386 11.4889C165.841 12.0339 165.122 12.3064 164.231 12.3064ZM180.806 42.888C178.973 42.888 177.177 42.6402 175.418 42.1448C173.684 41.6741 172.259 40.9805 171.144 40.0639L173.225 36.571C174.092 37.2894 175.182 37.8592 176.495 38.2803C177.833 38.7262 179.183 38.9491 180.546 38.9491C182.726 38.9491 184.323 38.4413 185.339 37.4256C186.355 36.4347 186.863 34.936 186.863 32.9294V29.3994L187.234 24.9032L187.086 20.407V15.5763H191.507V32.4092C191.507 36.0012 190.591 38.6395 188.758 40.324C186.924 42.0333 184.274 42.888 180.806 42.888ZM180.211 34.5273C178.328 34.5273 176.619 34.1309 175.083 33.3382C173.572 32.5207 172.371 31.3935 171.479 29.9567C170.612 28.5199 170.178 26.8354 170.178 24.9032C170.178 22.9957 170.612 21.3235 171.479 19.8867C172.371 18.4499 173.572 17.3352 175.083 16.5425C176.619 15.7497 178.328 15.3534 180.211 15.3534C181.896 15.3534 183.407 15.6878 184.745 16.3567C186.082 17.0255 187.147 18.066 187.94 19.478C188.758 20.89 189.166 22.6984 189.166 24.9032C189.166 27.1079 188.758 28.9287 187.94 30.3655C187.147 31.7775 186.082 32.8303 184.745 33.524C183.407 34.1928 181.896 34.5273 180.211 34.5273ZM180.917 30.5884C182.081 30.5884 183.122 30.3531 184.038 29.8824C184.955 29.387 185.661 28.7181 186.157 27.8759C186.677 27.0088 186.937 26.0179 186.937 24.9032C186.937 23.7884 186.677 22.8099 186.157 21.9676C185.661 21.1006 184.955 20.4441 184.038 19.9982C183.122 19.5275 182.081 19.2922 180.917 19.2922C179.753 19.2922 178.7 19.5275 177.759 19.9982C176.842 20.4441 176.124 21.1006 175.603 21.9676C175.108 22.8099 174.86 23.7884 174.86 24.9032C174.86 26.0179 175.108 27.0088 175.603 27.8759C176.124 28.7181 176.842 29.387 177.759 29.8824C178.7 30.3531 179.753 30.5884 180.917 30.5884Z" fill="white"/>
<defs>
<linearGradient id="paint0_linear_1214_9747" x1="22.9706" y1="2.56219" x2="22.9706" y2="41.6401" gradientUnits="userSpaceOnUse">
<stop stop-color="#33E6BF"/>
<stop offset="1" stop-color="#0439C7"/>
</linearGradient>
<linearGradient id="paint1_linear_1214_9747" x1="22.9706" y1="2.56219" x2="22.9706" y2="41.6401" gradientUnits="userSpaceOnUse">
<stop stop-color="#33E6BF"/>
<stop offset="1" stop-color="#0439C7"/>
</linearGradient>
<linearGradient id="paint2_linear_1214_9747" x1="22.9706" y1="2.56219" x2="22.9706" y2="41.6401" gradientUnits="userSpaceOnUse">
<stop stop-color="#33E6BF"/>
<stop offset="1" stop-color="#0439C7"/>
</linearGradient>
<linearGradient id="paint3_linear_1214_9747" x1="22.9706" y1="2.56219" x2="22.9706" y2="41.6401" gradientUnits="userSpaceOnUse">
<stop stop-color="#33E6BF"/>
<stop offset="1" stop-color="#0439C7"/>
</linearGradient>
<linearGradient id="paint4_linear_1214_9747" x1="22.9706" y1="2.56219" x2="22.9706" y2="41.6401" gradientUnits="userSpaceOnUse">
<stop stop-color="#33E6BF"/>
<stop offset="1" stop-color="#0439C7"/>
</linearGradient>
<linearGradient id="paint5_linear_1214_9747" x1="22.9706" y1="2.56219" x2="22.9706" y2="41.6401" gradientUnits="userSpaceOnUse">
<stop stop-color="#33E6BF"/>
<stop offset="1" stop-color="#0439C7"/>
</linearGradient>
<linearGradient id="paint6_linear_1214_9747" x1="22.9706" y1="2.56219" x2="22.9706" y2="41.6401" gradientUnits="userSpaceOnUse">
<stop stop-color="#33E6BF"/>
<stop offset="1" stop-color="#0439C7"/>
</linearGradient>
<linearGradient id="paint7_linear_1214_9747" x1="22.9706" y1="2.56219" x2="22.9706" y2="41.6401" gradientUnits="userSpaceOnUse">
<stop stop-color="#33E6BF"/>
<stop offset="1" stop-color="#0439C7"/>
</linearGradient>
<linearGradient id="paint8_linear_1214_9747" x1="22.9706" y1="2.56219" x2="22.9706" y2="41.6401" gradientUnits="userSpaceOnUse">
<stop stop-color="#33E6BF"/>
<stop offset="1" stop-color="#0439C7"/>
</linearGradient>
<linearGradient id="paint9_linear_1214_9747" x1="22.9706" y1="2.56219" x2="22.9706" y2="41.6401" gradientUnits="userSpaceOnUse">
<stop stop-color="#33E6BF"/>
<stop offset="1" stop-color="#0439C7"/>
</linearGradient>
<linearGradient id="paint10_linear_1214_9747" x1="22.9706" y1="2.56219" x2="22.9706" y2="41.6401" gradientUnits="userSpaceOnUse">
<stop stop-color="#33E6BF"/>
<stop offset="1" stop-color="#0439C7"/>
</linearGradient>
<linearGradient id="paint11_linear_1214_9747" x1="22.9706" y1="2.56219" x2="22.9706" y2="41.6401" gradientUnits="userSpaceOnUse">
<stop stop-color="#33E6BF"/>
<stop offset="1" stop-color="#0439C7"/>
</linearGradient>
</defs>
</svg>
