<svg width="20" height="20" viewBox="0 0 20 20" fill="none" xmlns="http://www.w3.org/2000/svg">
<path d="M13.5417 7.29167H5C3.96447 7.29167 3.125 6.4522 3.125 5.41667M13.5417 7.29167H15.2083C16.1288 7.29167 16.875 8.03786 16.875 8.95833V15.2083C16.875 16.1288 16.1288 16.875 15.2083 16.875H10.2083M13.5417 7.29167V4.35049C13.5417 3.67367 12.993 3.125 12.3162 3.125H5.41667C4.15102 3.125 3.125 4.15102 3.125 5.41667M3.125 5.41667V9.375" stroke="#5CA7FF" stroke-width="1.5" stroke-linecap="round" stroke-linejoin="round"/>
<path d="M4.99984 11.2148L7.70817 12.7947V15.9544L4.99984 17.5343L2.2915 15.9544V12.7947L4.99984 11.2148Z" stroke="#5CA7FF" stroke-width="1.5" stroke-linecap="round" stroke-linejoin="round"/>
<path d="M12.9168 12.0833V12.075M13.1252 12.0833C13.1252 12.1984 13.0319 12.2917 12.9168 12.2917C12.8017 12.2917 12.7085 12.1984 12.7085 12.0833C12.7085 11.9682 12.8017 11.875 12.9168 11.875C13.0319 11.875 13.1252 11.9682 13.1252 12.0833Z" stroke="#5CA7FF" stroke-width="1.5" stroke-linecap="round"/>
</svg>
