<svg width="208" height="229" viewBox="0 0 208 229" fill="none" xmlns="http://www.w3.org/2000/svg">
<path d="M144.208 228.493H146.773V161.263L182.281 133.418V53.712L163.419 38.8404V0H160.854V39.6782L179.715 54.5508V132.58L144.208 160.425V228.493Z" fill="#33E6BF" fill-opacity="0.28"/>
<path d="M120.423 228.493H122.987V155.509L148.429 135.449V69.5909L152.925 66.0447V0H150.361V65.2078L145.865 68.7521V134.611L120.423 154.67V228.493Z" fill="#33E6BF" fill-opacity="0.28"/>
<path d="M91.5102 228.493H94.0754V132.462L79.9188 121.3V75.415L87.1504 69.7118V0H84.5862V68.875L77.3535 74.5783V122.139L91.5102 133.3V228.493Z" fill="#33E6BF" fill-opacity="0.28"/>
<path d="M69.9758 228.493H72.5401V158.695L41.2025 133.987V67.114L24.0642 53.6002V21.4157H21.5V54.439L38.6383 67.9518V134.825L39.013 135.122L69.9758 159.534V228.493Z" fill="#33E6BF" fill-opacity="0.28"/>
<path d="M60.0067 228.493H62.572V163.226L10.4808 122.152L8.66504 123.583L60.0067 164.064V228.493Z" fill="#33E6BF" fill-opacity="0.28"/>
<path d="M77.7282 75.7116L79.5439 74.2817L70.202 66.917V0H67.6367V67.7548L77.7282 75.7116Z" fill="#33E6BF" fill-opacity="0.28"/>
<path d="M93.7006 133.596L106.201 123.739V86.2823H103.636V122.902L91.8848 132.167L93.7006 133.596Z" fill="#33E6BF" fill-opacity="0.28"/>
<path d="M146.24 69.8864L148.056 68.4555L133.42 56.9169V15.2971H130.855V57.7558L146.24 69.8864Z" fill="#33E6BF" fill-opacity="0.28"/>
<path d="M181.906 54.8463L194.712 44.7478V20.3961H192.147V43.9099L180.09 53.4164L181.906 54.8463Z" fill="#33E6BF" fill-opacity="0.28"/>
<path d="M181.906 133.714L202.396 117.615V95.8386H199.831V116.778L180.09 132.283L181.906 133.714Z" fill="#33E6BF" fill-opacity="0.28"/>
<path d="M39.0133 115.561L40.8291 114.13L12.531 91.8201V60.7963H9.9668V92.6579L39.0133 115.561Z" fill="#33E6BF" fill-opacity="0.28"/>
<path d="M40.8264 68.2484L48.7933 61.9683V0H46.2281V61.1295L39.0137 66.8175L40.8264 68.2484Z" fill="#33E6BF" fill-opacity="0.28"/>
<path d="M105.25 228.493H107.814V139.854L125.362 126.019V74.2126L108.969 61.2889V0H106.404V62.1267L122.797 75.0515V125.181L105.25 139.015V228.493Z" fill="#33E6BF" fill-opacity="0.28"/>
<path d="M194.712 91.6871C194.712 88.3581 197.531 85.6497 200.997 85.6497C204.463 85.6497 207.283 88.3581 207.283 91.6871C207.283 95.016 204.464 97.7234 200.997 97.7234C197.532 97.7234 194.712 95.016 194.712 91.6871ZM205.098 91.6871C205.098 89.5676 203.259 87.8432 200.997 87.8432C198.735 87.8432 196.897 89.5676 196.897 91.6871C196.897 93.8055 198.736 95.5299 200.997 95.5299C203.258 95.5299 205.098 93.8045 205.098 91.6871Z" fill="#33E6BF" fill-opacity="0.28"/>
<path d="M187.011 15.7967C187.011 12.4677 189.83 9.75928 193.296 9.75928C196.762 9.75928 199.582 12.4677 199.582 15.7967C199.582 19.1256 196.763 21.833 193.296 21.833C189.83 21.833 187.011 19.1256 187.011 15.7967ZM197.397 15.7967C197.397 13.6772 195.558 11.9528 193.296 11.9528C191.035 11.9528 189.196 13.6772 189.196 15.7967C189.196 17.9151 191.035 19.6395 193.296 19.6395C195.557 19.6385 197.397 17.9151 197.397 15.7967Z" fill="#33E6BF" fill-opacity="0.28"/>
<path d="M0 119.676C0 116.347 2.81915 113.639 6.28519 113.639C9.75123 113.639 12.5714 116.347 12.5714 119.676C12.5714 123.005 9.75123 125.713 6.28519 125.713C2.81915 125.714 0 123.006 0 119.676ZM10.3859 119.676C10.3859 117.557 8.5468 115.832 6.28519 115.832C4.0246 115.832 2.18545 117.557 2.18545 119.676C2.18545 121.795 4.0246 123.519 6.28519 123.519C8.54578 123.519 10.3859 121.795 10.3859 119.676Z" fill="#33E6BF" fill-opacity="0.28"/>
<path d="M4.75879 56.0569C4.75879 52.7279 7.57792 50.0195 11.044 50.0195C14.51 50.0195 17.3292 52.7279 17.3292 56.0569C17.3292 59.3858 14.51 62.0932 11.044 62.0932C7.57792 62.0943 4.75879 59.3868 4.75879 56.0569ZM15.1447 56.0569C15.1447 53.9374 13.3056 52.2141 11.044 52.2141C8.78337 52.2141 6.94422 53.9384 6.94422 56.0569C6.94422 58.1753 8.78337 59.8997 11.044 59.8997C13.3046 59.8997 15.1447 58.1753 15.1447 56.0569Z" fill="#33E6BF" fill-opacity="0.28"/>
<path d="M16.6748 17.3687C16.6748 14.0398 19.4939 11.3314 22.96 11.3314C26.426 11.3314 29.2462 14.0398 29.2462 17.3687C29.2462 20.6977 26.427 23.4051 22.96 23.4051C19.4939 23.4051 16.6748 20.6977 16.6748 17.3687ZM27.0608 17.3687C27.0608 15.2493 25.2216 13.5249 22.96 13.5249C20.6984 13.5249 18.8603 15.2493 18.8603 17.3687C18.8603 19.4872 20.6994 21.2115 22.96 21.2115C25.2206 21.2115 27.0608 19.4872 27.0608 17.3687Z" fill="#33E6BF" fill-opacity="0.28"/>
<path d="M125.909 11.3771C125.909 8.04818 128.728 5.33972 132.194 5.33972C135.66 5.33972 138.481 8.04818 138.481 11.3771C138.481 14.7061 135.661 17.4135 132.194 17.4135C128.729 17.4145 125.909 14.7071 125.909 11.3771ZM136.295 11.3771C136.295 9.25768 134.456 7.53329 132.194 7.53329C129.933 7.53329 128.095 9.25768 128.095 11.3771C128.095 13.4955 129.934 15.2199 132.194 15.2199C134.455 15.2199 136.295 13.4955 136.295 11.3771Z" fill="#33E6BF" fill-opacity="0.28"/>
<path d="M98.6201 82.4294C98.6201 79.1004 101.439 76.392 104.905 76.392C108.371 76.392 111.191 79.1004 111.191 82.4294C111.191 85.7583 108.372 88.4657 104.905 88.4657C101.439 88.4668 98.6201 85.7593 98.6201 82.4294ZM109.006 82.4294C109.006 80.3099 107.167 78.5855 104.905 78.5855C102.644 78.5855 100.806 80.3099 100.806 82.4294C100.806 84.5478 102.645 86.2722 104.905 86.2722C107.166 86.2722 109.006 84.5478 109.006 82.4294Z" fill="#33E6BF" fill-opacity="0.28"/>
<path d="M24.8584 53.796L34.4694 48.2341C40.1025 44.9744 47.1743 45.169 54.8344 49.5729C59.6229 52.3257 64.1457 56.423 68.2301 61.515L58.6191 67.0768C54.5347 61.9844 50.0121 57.8876 45.2235 55.1343C37.5634 50.7304 30.4915 50.5362 24.8584 53.796Z" fill="#4879FD"/>
<path d="M68.1924 58.1388L77.8033 52.577C86.4362 47.5811 97.2709 47.8759 109.063 54.6555L99.4519 60.2174C87.66 53.4377 76.8253 53.1429 68.1924 58.1388Z" fill="#4879FD"/>
<path d="M99.4512 60.2174L109.062 54.6555C125.735 64.241 140.458 84.6297 149.635 108.316L140.024 113.878C130.847 90.1911 116.124 69.8024 99.4512 60.2174Z" fill="#4879FD"/>
<path d="M140.024 113.877L149.635 108.316C153.735 107.929 158.31 109.062 163.055 111.79C181.339 122.301 196.077 152.727 196 179.775L186.389 185.336C186.466 158.289 171.728 127.864 153.444 117.352C148.699 114.624 144.124 113.49 140.024 113.877Z" fill="#4879FD"/>
<path d="M99.4515 60.2173C116.124 69.8024 130.848 90.1911 140.024 113.877C144.124 113.49 148.699 114.624 153.444 117.352C171.728 127.864 186.466 158.289 186.389 185.336L12 85.0776C12.077 58.0301 26.9837 44.6478 45.2238 55.1347C50.0124 57.8876 54.5351 61.9844 58.6195 67.0768C67.9438 54.0272 82.7357 50.6066 99.4515 60.2173Z" fill="#0439C7"/>
<path d="M79.2093 73.7706L72.423 77.6977C67.7874 80.3809 60.8162 81.7514 50.9053 77.5894L57.6919 73.6627C67.6022 77.8243 74.5737 76.4534 79.2093 73.7706Z" fill="#28E0B7"/>
<path d="M105.195 191.209L98.4082 195.136C116.749 184.522 128.18 155.563 128.954 153.603L135.74 149.677C134.966 151.636 123.536 180.594 105.195 191.209Z" fill="#0FB590"/>
<path d="M128.977 153.591C127.966 156.181 108.757 204.84 79.6781 198.416C72.2637 191.465 65.4753 181.685 59.5056 170.85C54.354 161.55 49.7801 151.53 45.9289 141.942C36.7816 119.266 31.3893 99.13 30.8594 97.2127L50.8874 77.6049C71.8307 86.3781 79.6294 70.5093 80.0629 69.6941C80.3041 70.6053 84.0589 82.5426 93.1579 94.9114V94.9594C97.2983 100.569 102.546 106.273 109.094 111.02L112.416 118.163L128.977 153.591Z" fill="#15D7AC"/>
<path d="M80.0537 69.6872L86.84 65.7601C87.2473 67.0647 94.9867 91.863 115.879 107.116L109.093 111.043C88.2 95.7897 80.4614 70.9922 80.0537 69.6872Z" fill="#28E0B7"/>
<path d="M109.093 111.043L115.879 107.116L135.74 149.677L128.953 153.603L109.093 111.043Z" fill="#28E0B7"/>
<path d="M97.5865 169.479L62.2344 149.155V108.508L97.5865 128.832V169.479Z" fill="#FFC947"/>
<path d="M73.4423 116.592L86.3783 124.029V116.595C86.3783 112.494 83.4793 107.493 79.9122 105.443C76.3454 103.392 73.4423 105.056 73.4423 109.158V116.592ZM90.5474 131.22L69.2725 118.989V106.761C69.2725 100.019 74.045 97.2758 79.9122 100.649C85.7756 104.02 90.5474 112.25 90.5474 118.992V131.22Z" fill="#FFC947"/>
<path d="M79.9105 149.687C78.0268 148.605 76.5 145.699 76.5 143.199V133.291C76.5 130.79 78.0268 129.641 79.9105 130.724C81.7943 131.807 83.3207 134.712 83.3207 137.213V147.12C83.3207 149.621 81.7943 150.77 79.9105 149.687Z" fill="#36434D"/>
<path d="M59.5054 170.85C54.3538 161.55 49.78 151.53 45.9287 141.942L62.2343 125.721V149.155L74.317 156.101L59.5054 170.85ZM97.5865 132.929V128.832L90.5474 124.785V118.992C90.5474 113.943 87.8713 108.059 84.0637 104.006L93.1578 94.9594C96.0629 98.8947 99.5123 102.877 103.574 106.542C105.301 108.108 107.141 109.617 109.093 111.043L112.415 118.163L97.5865 132.929Z" fill="#5BE3C5"/>
<path d="M109.093 111.043C107.141 109.617 105.301 108.108 103.574 106.542C105.301 108.101 107.14 109.603 109.094 111.02L109.102 111.038L109.093 111.043Z" fill="#AFE1F8"/>
<path d="M112.415 118.163L109.093 111.043L109.102 111.038L112.415 118.162" fill="#AFE1F8"/>
<path d="M86.3784 122.388L73.4424 114.951V114.572L81.486 106.57C84.2943 108.994 86.3784 113.117 86.3784 116.595V122.388Z" fill="#5BE3C5"/>
<path d="M74.317 156.101L62.2344 149.155V125.721L69.2726 118.72V118.989L90.5475 131.22V124.785L97.5865 128.832V132.93L83.3208 147.135C83.3208 147.13 83.3208 147.125 83.3208 147.12V137.212C83.3208 134.712 81.7944 131.807 79.9106 130.724C79.4294 130.447 78.9718 130.316 78.5568 130.316C77.3469 130.316 76.5001 131.429 76.5001 133.291V143.199C76.5001 145.699 78.0269 148.605 79.9106 149.687C80.1077 149.801 80.3011 149.89 80.4888 149.955L74.317 156.101ZM86.3784 124.029L73.4424 116.592V114.951L86.3784 122.388V124.029Z" fill="#FFD97E"/>
<path d="M90.5474 131.22L69.2725 118.989V118.72L73.4423 114.572V114.951V116.592L86.3783 124.029V122.388V116.595C86.3783 113.117 84.2942 108.994 81.486 106.57L84.0636 104.006C87.8712 108.059 90.5474 113.943 90.5474 118.992V124.785V131.22Z" fill="#FFD97E"/>
<path d="M80.4887 149.955C80.301 149.89 80.1076 149.801 79.9105 149.687C78.0268 148.605 76.5 145.699 76.5 143.199V133.291C76.5 131.429 77.3468 130.316 78.5567 130.316C78.9717 130.316 79.4293 130.447 79.9105 130.724C81.7943 131.807 83.3207 134.712 83.3207 137.212V147.12C83.3207 147.125 83.3207 147.13 83.3207 147.135L80.4887 149.955Z" fill="#848F95"/>
</svg>
