<svg width="24" height="24" viewBox="0 0 24 24" fill="none" xmlns="http://www.w3.org/2000/svg">
<path id="Vector" d="M8.497 15.5018C11.0823 18.0871 14.4868 19.853 18.2992 20.3882C18.886 20.4698 19.4416 20.099 19.5916 19.5254L20.362 16.5554C20.5048 16.0046 20.2288 15.431 19.708 15.1994L17.4448 14.1942C16.9624 13.9794 16.3948 14.1174 16.0648 14.5302L13.5933 17.345C12.1269 16.549 10.7901 15.5474 9.62092 14.3781C8.45164 13.2088 7.45 11.872 6.65404 10.4058L9.46888 7.93424C9.88168 7.60424 10.0197 7.03664 9.80488 6.55424L8.79964 4.29104C8.56804 3.77024 7.99444 3.49424 7.44364 3.63704L4.47364 4.40744C3.90004 4.55744 3.52924 5.11304 3.61084 5.69984C4.14604 9.51224 5.91172 12.9165 8.497 15.5018Z" fill="#F0F4FC" stroke="#F0F4FC" stroke-width="2" stroke-linecap="round" stroke-linejoin="round"/>
</svg>
