<svg width="16" height="16" viewBox="0 0 16 16" fill="none" xmlns="http://www.w3.org/2000/svg">
<g clip-path="url(#clip0_63025_112778)">
<path fill-rule="evenodd" clip-rule="evenodd" d="M5.16732 15.3307C4.1548 15.3307 3.33398 14.5099 3.33398 13.4974V2.4974C3.33398 1.48488 4.1548 0.664062 5.16732 0.664062H10.834C11.8465 0.664062 12.6673 1.48488 12.6673 2.4974V13.4974C12.6673 14.5099 11.8465 15.3307 10.834 15.3307H5.16732ZM7.16732 2.32406C6.89118 2.32406 6.66732 2.54792 6.66732 2.82406C6.66732 3.1002 6.89118 3.32406 7.16732 3.32406H8.83398C9.11012 3.32406 9.33398 3.1002 9.33398 2.82406C9.33398 2.54792 9.11012 2.32406 8.83398 2.32406H7.16732Z" fill="#1DC79B"/>
</g>
<defs>
<clipPath id="clip0_63025_112778">
<rect width="16" height="16" fill="white"/>
</clipPath>
</defs>
</svg>
