<svg width="24" height="24" viewBox="0 0 24 24" fill="none" xmlns="http://www.w3.org/2000/svg">
<path id="Vector" d="M3.59961 8.39961V7.19961C3.59961 5.21133 5.21133 3.59961 7.19961 3.59961H8.39961" stroke="#F0F4FC" stroke-width="2" stroke-linecap="round" stroke-linejoin="round"/>
<path id="Vector_2" d="M8.39961 20.3996H7.19961C5.21133 20.3996 3.59961 18.7879 3.59961 16.7996V15.5996" stroke="#F0F4FC" stroke-width="2" stroke-linecap="round" stroke-linejoin="round"/>
<path id="Vector_3" d="M15.5996 3.59961H16.7996C18.7879 3.59961 20.3996 5.21133 20.3996 7.19961V8.39961" stroke="#F0F4FC" stroke-width="2" stroke-linecap="round" stroke-linejoin="round"/>
<path id="Vector_4" d="M12.0004 15.6004C13.9886 15.6004 15.6004 13.9886 15.6004 12.0004C15.6004 10.0122 13.9886 8.40039 12.0004 8.40039C10.0122 8.40039 8.40039 10.0122 8.40039 12.0004C8.40039 13.9886 10.0122 15.6004 12.0004 15.6004Z" stroke="#F0F4FC" stroke-width="2" stroke-linecap="round" stroke-linejoin="round"/>
<path id="Vector_5" d="M14.5449 14.5449L19.1997 19.1997" stroke="#F0F4FC" stroke-width="2" stroke-linecap="round" stroke-linejoin="round"/>
</svg>
