<svg width="32" height="32" viewBox="0 0 32 32" fill="none" xmlns="http://www.w3.org/2000/svg">
<path d="M12.3995 22.6735C11.6597 22.6735 10.9014 22.6423 10.1247 22.58C9.34794 22.5177 8.64516 22.418 8.01636 22.2809L10.9754 9.75546C11.6782 9.61837 12.4118 9.52489 13.1762 9.47504C13.953 9.42519 14.6619 9.40026 15.3031 9.40026C16.0428 9.40026 16.6778 9.48127 17.208 9.64329C17.7505 9.79285 18.1882 9.99849 18.521 10.2602C18.8663 10.5219 19.119 10.8335 19.2793 11.195C19.4519 11.5439 19.5382 11.9178 19.5382 12.3166C19.5382 12.5908 19.5074 12.8775 19.4458 13.1766C19.3964 13.4757 19.2855 13.7748 19.1129 14.0739C18.9526 14.3606 18.7245 14.6348 18.4286 14.8965C18.145 15.1582 17.7689 15.395 17.3004 15.6069C17.8553 15.8562 18.2621 16.1989 18.521 16.6351C18.78 17.0589 18.9094 17.5325 18.9094 18.0559C18.9094 18.6541 18.7923 19.2337 18.558 19.7945C18.3238 20.3429 17.9477 20.8352 17.4299 21.2714C16.9121 21.6951 16.2401 22.0379 15.414 22.2996C14.588 22.5489 13.5831 22.6735 12.3995 22.6735ZM12.1406 16.8407L11.3453 20.2058C11.5426 20.2432 11.7892 20.2743 12.0851 20.2993C12.3933 20.3117 12.6769 20.318 12.9358 20.318C13.3057 20.318 13.6694 20.293 14.027 20.2432C14.3968 20.1809 14.7236 20.0749 15.0072 19.9254C15.3031 19.7758 15.5435 19.5702 15.7284 19.3084C15.9134 19.0467 16.0058 18.7102 16.0058 18.2989C16.0058 18.1244 15.9689 17.95 15.8949 17.7755C15.8332 17.601 15.7284 17.4452 15.5805 17.3081C15.4325 17.171 15.2352 17.0589 14.9887 16.9716C14.7544 16.8844 14.4708 16.8407 14.1379 16.8407H12.1406ZM12.6769 14.6535H14.4893C15.2291 14.6535 15.7777 14.4914 16.1353 14.1674C16.5052 13.8434 16.6901 13.457 16.6901 13.0083C16.6901 12.7715 16.6346 12.5721 16.5237 12.4101C16.425 12.2356 16.2894 12.0985 16.1168 11.9988C15.9442 11.8991 15.7469 11.8306 15.525 11.7932C15.3031 11.7433 15.075 11.7184 14.8407 11.7184C14.5818 11.7184 14.3044 11.7309 14.0085 11.7558C13.7126 11.7683 13.4906 11.787 13.3427 11.8119L12.6769 14.6535Z" fill="#02122B"/>
<path d="M6.29738 9H7.5102L4.21283 23H3L6.29738 9Z" fill="#02122B"/>
<path d="M30 15.9999L20.5722 21.1842L21.2544 18.5538L25.8688 15.9999L21.7471 13.5225V10.9303L30 15.9999Z" fill="#02122B"/>
</svg>
