<svg width="16" height="16" viewBox="0 0 16 16" fill="none" xmlns="http://www.w3.org/2000/svg">
<path d="M10.8333 5.83333H4C3.17157 5.83333 2.5 5.16176 2.5 4.33333M10.8333 5.83333H12.1667C12.9031 5.83333 13.5 6.43029 13.5 7.16667V12.1667C13.5 12.9031 12.9031 13.5 12.1667 13.5H8.16667M10.8333 5.83333V3.48039C10.8333 2.93893 10.3944 2.5 9.85293 2.5H4.33333C3.32081 2.5 2.5 3.32081 2.5 4.33333M2.5 4.33333V7.5" stroke="#4879FD" stroke-width="1.5" stroke-linecap="round" stroke-linejoin="round"/>
<path d="M10.3334 9.66667V9.66M10.5 9.66667C10.5 9.75873 10.4254 9.83333 10.3334 9.83333C10.2413 9.83333 10.1667 9.75873 10.1667 9.66667C10.1667 9.5746 10.2413 9.5 10.3334 9.5C10.4254 9.5 10.5 9.5746 10.5 9.66667Z" stroke="#4879FD" stroke-width="1.5" stroke-linecap="round"/>
<path d="M5.08659 9.11442L6.01023 8.19079C6.26461 7.9364 6.67708 7.9364 6.93146 8.19079L7.4759 8.73523C7.73028 8.98963 7.73028 9.40208 7.4759 9.65647L6.55227 10.5801M5.08659 9.11442L1.85748 12.3435C1.73532 12.4657 1.66669 12.6314 1.66669 12.8041V14H2.86254C3.0353 14 3.20099 13.9314 3.32316 13.8092L6.55227 10.5801M5.08659 9.11442L6.55227 10.5801" stroke="#4879FD" stroke-width="1.5" stroke-linecap="round" stroke-linejoin="round"/>
</svg>
