<svg width="24" height="24" viewBox="0 0 24 24" fill="none" xmlns="http://www.w3.org/2000/svg">
<path id="Vector" d="M16.8004 4.80039H16.2701L15.812 3.80019C15.4223 2.94999 14.5656 2.40039 13.6305 2.40039H10.3703C9.43515 2.40039 8.57847 2.94999 8.18823 3.80079L7.73067 4.80039H7.20039C4.55367 4.80039 2.40039 6.95367 2.40039 9.60039V15.6004C2.40039 18.2471 4.55367 20.4004 7.20039 20.4004H16.8004C19.4471 20.4004 21.6004 18.2471 21.6004 15.6004V9.60039C21.6004 6.95367 19.4471 4.80039 16.8004 4.80039ZM12.0004 16.8004C9.68079 16.8004 7.80039 14.92 7.80039 12.6004C7.80039 10.2808 9.68079 8.40039 12.0004 8.40039C14.32 8.40039 16.2004 10.2808 16.2004 12.6004C16.2004 14.92 14.32 16.8004 12.0004 16.8004Z" fill="#F0F4FC"/>
</svg>
