<svg width="24" height="24" viewBox="0 0 24 24" fill="none" xmlns="http://www.w3.org/2000/svg">
<path fill-rule="evenodd" clip-rule="evenodd" d="M2 6.75C2 5.23122 3.23122 4 4.75 4H19.25C20.7688 4 22 5.23122 22 6.75V17.25C22 18.7688 20.7688 20 19.25 20H4.75C3.23122 20 2 18.7688 2 17.25V6.75ZM4.75 5.5C4.05964 5.5 3.5 6.05964 3.5 6.75V7H20.5V6.75C20.5 6.05964 19.9404 5.5 19.25 5.5H4.75ZM20.5 8.5H3.5V10H8.75C9.16421 10 9.5 10.3358 9.5 10.75V11.25C9.5 11.9404 10.0596 12.5 10.75 12.5H13.25C13.9404 12.5 14.5 11.9404 14.5 11.25V10.75C14.5 10.3358 14.8358 10 15.25 10H20.5V8.5Z" fill="#F0F4FC"/>
</svg>
