<svg width="24" height="24" viewBox="0 0 24 24" fill="none" xmlns="http://www.w3.org/2000/svg">
<path id="Vector" d="M11.9996 7.19961H3.59961V5.39961C3.59961 4.40601 4.40601 3.59961 5.39961 3.59961H8.95761C9.35841 3.59961 9.73401 3.80001 9.95601 4.13361L11.9996 7.19961Z" fill="#F0F4FC" stroke="#F0F4FC" stroke-width="2" stroke-linecap="round" stroke-linejoin="round"/>
<path id="Vector_2" d="M11.9996 20.3996C13.3251 20.3996 14.3996 19.3251 14.3996 17.9996C14.3996 16.6741 13.3251 15.5996 11.9996 15.5996C10.6741 15.5996 9.59961 16.6741 9.59961 17.9996C9.59961 19.3251 10.6741 20.3996 11.9996 20.3996Z" stroke="#F0F4FC" stroke-width="2" stroke-linecap="round" stroke-linejoin="round"/>
<path id="Vector_3" d="M20.4004 18H14.4004" stroke="#F0F4FC" stroke-width="2" stroke-linecap="round" stroke-linejoin="round"/>
<path id="Vector_4" d="M18 20.4V18" stroke="#F0F4FC" stroke-width="2" stroke-linecap="round" stroke-linejoin="round"/>
<path id="Vector_5" d="M20.3996 13.8002V9.0002C20.3996 8.0066 19.5932 7.2002 18.5996 7.2002H3.59961V16.8002C3.59961 18.269 4.48161 19.5278 5.74281 20.087" stroke="#F0F4FC" stroke-width="2" stroke-linecap="round" stroke-linejoin="round"/>
</svg>
