<svg width="20" height="20" viewBox="0 0 20 20" fill="none" xmlns="http://www.w3.org/2000/svg">
<path d="M2.29163 15.209C2.29163 16.5897 3.41092 17.709 4.79163 17.709H7.08329C8.11883 17.709 8.95829 16.8695 8.95829 15.834C8.95829 14.7985 8.11883 13.959 7.08329 13.959C7.04168 13.959 7.00033 13.9603 6.95931 13.9631C6.52782 13.2138 5.71922 12.709 4.79163 12.709C3.41092 12.709 2.29163 13.8282 2.29163 15.209Z" stroke="#5CA7FF" stroke-width="1.5" stroke-linejoin="round"/>
<path d="M3.95837 10.2077V3.95768C3.95837 3.03721 4.70457 2.29102 5.62504 2.29102H9.93471C10.3767 2.29102 10.8006 2.46661 11.1132 2.77917L15.5535 7.21952C15.8661 7.53209 16.0417 7.95601 16.0417 8.39802V16.041C16.0417 16.9615 15.2955 17.7077 14.375 17.7077H11.0417" stroke="#5CA7FF" stroke-width="1.5" stroke-linecap="round" stroke-linejoin="round"/>
<path d="M10.625 2.70898V6.04232C10.625 6.96279 11.3712 7.70898 12.2917 7.70898H15.625" stroke="#5CA7FF" stroke-width="1.5" stroke-linejoin="round"/>
</svg>
