<svg width="24" height="24" viewBox="0 0 24 24" fill="none" xmlns="http://www.w3.org/2000/svg">
<path fill-rule="evenodd" clip-rule="evenodd" d="M19.4324 2.73845C19.9368 3.27778 20.1599 4.06457 19.8747 4.87143C19.2694 6.58361 18.0774 7.9952 17.0782 8.95837C16.6963 9.32647 16.3352 9.63608 16.0333 9.87922L16.1696 9.97937C17.1001 10.663 17.586 11.9544 16.9272 13.0971C15.7056 15.2164 12.5711 18.9 5.73462 18.9C5.68309 18.9 5.63277 18.8948 5.58416 18.8849C5.52739 19.6671 5.5 20.4573 5.5 21.25C5.5 21.6642 5.16421 22 4.75 22C4.33579 22 4 21.6642 4 21.25C4 16.8193 4.82101 12.3197 6.90854 8.76516C9.01508 5.17831 12.3988 2.58337 17.401 2.01628C18.1892 1.92692 18.9389 2.21078 19.4324 2.73845Z" fill="#13C79E"/>
</svg>
