<svg width="24" height="24" viewBox="0 0 24 24" fill="none" xmlns="http://www.w3.org/2000/svg">
<path id="Vector" d="M6.59961 9.59961C8.25646 9.59961 9.59961 8.25646 9.59961 6.59961C9.59961 4.94276 8.25646 3.59961 6.59961 3.59961C4.94276 3.59961 3.59961 4.94276 3.59961 6.59961C3.59961 8.25646 4.94276 9.59961 6.59961 9.59961Z" stroke="#F0F4FC" stroke-width="2" stroke-linecap="round" stroke-linejoin="round"/>
<path id="Vector_2" d="M6.59961 20.4004C8.25646 20.4004 9.59961 19.0572 9.59961 17.4004C9.59961 15.7435 8.25646 14.4004 6.59961 14.4004C4.94276 14.4004 3.59961 15.7435 3.59961 17.4004C3.59961 19.0572 4.94276 20.4004 6.59961 20.4004Z" stroke="#F0F4FC" stroke-width="2" stroke-linecap="round" stroke-linejoin="round"/>
<path id="Vector_3" d="M17.4004 9.59961C19.0572 9.59961 20.4004 8.25646 20.4004 6.59961C20.4004 4.94276 19.0572 3.59961 17.4004 3.59961C15.7435 3.59961 14.4004 4.94276 14.4004 6.59961C14.4004 8.25646 15.7435 9.59961 17.4004 9.59961Z" stroke="#F0F4FC" stroke-width="2" stroke-linecap="round" stroke-linejoin="round"/>
<path id="Vector_4" d="M17.4004 14.4004V20.4004" stroke="#F0F4FC" stroke-width="2" stroke-linecap="round" stroke-linejoin="round"/>
<path id="Vector_5" d="M20.4004 17.4004H14.4004" stroke="#F0F4FC" stroke-width="2" stroke-linecap="round" stroke-linejoin="round"/>
</svg>
