<svg width="24" height="24" viewBox="0 0 24 24" fill="none" xmlns="http://www.w3.org/2000/svg">
<g id="gas-pump">
<path id="Vector" d="M14.4004 9.5998V11.3998C14.4004 13.0566 15.7436 14.3998 17.4004 14.3998C19.0572 14.3998 20.4004 13.0566 20.4004 11.3998V8.3998L18.0004 4.7998" stroke="#F0F4FC" stroke-width="2" stroke-linecap="round" stroke-linejoin="round"/>
<path id="Vector_2" d="M16.2 20.4004H3" stroke="#F0F4FC" stroke-width="2" stroke-linecap="round" stroke-linejoin="round"/>
<path id="Vector_3" d="M4.80078 20.3996V5.99961C4.80078 4.67409 5.87526 3.59961 7.20078 3.59961H12.0008C13.3263 3.59961 14.4008 4.67409 14.4008 5.99961V20.3996" stroke="#F0F4FC" stroke-width="2" stroke-linecap="round" stroke-linejoin="round"/>
<path id="Vector_4" d="M20.4 10.8004H19.8C18.8059 10.8004 18 9.99449 18 9.00041V7.20041C18 6.71525 18.2918 6.27761 18.7406 6.09185C19.1906 5.90729 19.7051 6.00869 20.0484 6.35201L21.2486 7.55225C21.4736 7.77725 21.6 8.08229 21.6 8.40041V9.60041C21.6 10.2632 21.0628 10.8004 20.4 10.8004Z" fill="#F0F4FC"/>
<path id="Vector_5" d="M14.4008 9.59961H4.80078V20.3996H14.4008V9.59961Z" fill="#F0F4FC"/>
</g>
</svg>
