<svg width="32" height="32" viewBox="0 0 32 32" fill="none" xmlns="http://www.w3.org/2000/svg">
<g clip-path="url(#clip0_48948_109742)">
<path d="M16.375 27.375C22.4501 27.375 27.375 22.4501 27.375 16.375C27.375 10.2999 22.4501 5.375 16.375 5.375C10.2999 5.375 5.375 10.2999 5.375 16.375C5.375 22.4501 10.2999 27.375 16.375 27.375Z" fill="#988430"/>
<path d="M16.3752 27.0219C22.2557 27.0219 27.0228 22.2547 27.0228 16.3742C27.0228 10.4937 22.2557 5.72656 16.3752 5.72656C10.4947 5.72656 5.72754 10.4937 5.72754 16.3742C5.72754 22.2547 10.4947 27.0219 16.3752 27.0219Z" fill="#7A6A2A"/>
<path d="M16.3745 26.7997C22.1311 26.7997 26.7978 22.1331 26.7978 16.3764C26.7978 10.6198 22.1311 5.95312 16.3745 5.95312C10.6178 5.95312 5.95117 10.6198 5.95117 16.3764C5.95117 22.1331 10.6178 26.7997 16.3745 26.7997Z" fill="#BA9F33"/>
<path fill-rule="evenodd" clip-rule="evenodd" d="M10.1838 15.1929C10.1215 15.136 10.0557 15.0789 9.99511 15.022C9.93456 14.9651 9.87238 14.9081 9.81007 14.8512L9.62492 14.6752C9.59465 14.6449 9.56262 14.6183 9.53234 14.5879C9.50207 14.5613 9.46652 14.531 9.43625 14.5042C9.19055 14.2711 8.94345 14.0379 8.70116 13.8047C8.95213 14.0343 9.19783 14.2623 9.4488 14.4953L9.53598 14.5826C9.56625 14.6128 9.59829 14.6395 9.62856 14.6698L9.81359 14.8406C9.8759 14.8975 9.93644 14.9546 9.99874 15.0166C10.061 15.0787 10.1216 15.1358 10.1839 15.1926L10.1838 15.1929ZM6.92297 15.1577C6.92297 15.1577 7.81646 15.2501 8.25259 15.3124C8.65657 15.3694 9.92037 15.5634 9.92037 15.5634L6.92297 15.1577ZM6.92297 15.1577C7.17394 15.179 7.42492 15.2056 7.6759 15.2324C7.80402 15.2448 7.92687 15.259 8.04972 15.2715L8.23828 15.2929C8.30058 15.3017 8.36112 15.3107 8.42343 15.3196L9.17108 15.4388L9.54478 15.5011C9.66763 15.5224 9.79048 15.5457 9.91861 15.567C9.79576 15.5546 9.66763 15.5368 9.54478 15.5189L9.17108 15.4655L8.42343 15.3552C8.36112 15.3463 8.30058 15.3338 8.23828 15.325L8.0496 15.3033C7.92676 15.2908 7.79863 15.273 7.67578 15.2587C7.4248 15.2285 7.17383 15.1964 6.92285 15.1573L6.92297 15.1577ZM9.83143 15.7962C9.83143 15.7962 8.87739 16.0384 8.55519 16.1309C8.23839 16.2181 7.27896 16.51 7.27896 16.51L9.83131 15.7963L9.83143 15.7962Z" fill="#CFB66C"/>
<path fill-rule="evenodd" clip-rule="evenodd" d="M9.83133 15.8047C9.61954 15.867 9.40893 15.9275 9.19409 15.9846L8.55685 16.1554C8.34507 16.2177 8.13445 16.2782 7.92325 16.3405L7.60645 16.4277C7.50144 16.458 7.39467 16.4846 7.28613 16.515C7.39103 16.4798 7.49792 16.4438 7.60293 16.4135L7.91973 16.3122C8.13152 16.2462 8.34213 16.1839 8.55333 16.1181C8.76864 16.0647 8.98054 16.0077 9.19585 15.956C9.40048 15.9044 9.6159 15.8529 9.83133 15.8048V15.8047ZM7.4125 17.1059C7.5174 17.0667 8.72781 16.5026 9.00906 16.3708C9.14986 16.3049 9.55911 16.1596 9.55911 16.1596L7.4125 17.1059Z" fill="#CFB66C"/>
<path fill-rule="evenodd" clip-rule="evenodd" d="M7.4132 17.1003C7.50566 17.0651 7.59296 17.022 7.6819 16.9811L7.94531 16.8582L8.47401 16.6037C8.65001 16.5201 8.82109 16.4277 9.0026 16.3491C9.09518 16.31 9.18775 16.278 9.28021 16.2477L9.42101 16.2033C9.469 16.1908 9.51359 16.1765 9.56181 16.1641C9.38581 16.2477 9.20054 16.3189 9.02431 16.4007C8.84831 16.488 8.66832 16.5592 8.48669 16.6375L7.94918 16.8742C7.76872 16.9473 7.59272 17.0255 7.41309 17.1003H7.4132ZM7.53054 17.5931C7.53054 17.5931 8.6269 16.9505 9.00424 16.744C9.20183 16.6337 9.84083 16.3168 9.84083 16.3168L7.53054 17.5931Z" fill="#CFB66C"/>
<path fill-rule="evenodd" clip-rule="evenodd" d="M7.53027 17.6001C7.71531 17.4861 7.90398 17.3704 8.09265 17.253L8.37425 17.082C8.47035 17.0251 8.56292 16.9717 8.6609 16.9148C8.75699 16.8578 8.84957 16.8009 8.94743 16.7475C8.99401 16.7188 9.04282 16.6938 9.09339 16.6728L9.24287 16.598C9.44046 16.5019 9.63805 16.404 9.84632 16.3203C9.65764 16.4396 9.46357 16.5411 9.26962 16.646C9.17353 16.6994 9.07555 16.7475 8.97946 16.8009C8.88336 16.8543 8.79079 16.9113 8.69281 16.9629C8.59672 17.0199 8.50414 17.0732 8.40628 17.1249L8.11612 17.2833L7.53051 17.6001H7.53027ZM9.83165 16.4644C9.83165 16.4644 9.14994 16.9877 8.92924 17.155C8.70853 17.3223 8.05886 17.7923 8.05886 17.7923L9.83165 16.4644Z" fill="#CFB66C"/>
<path fill-rule="evenodd" clip-rule="evenodd" d="M13.7443 20.6878L13.3955 20.0275L13.5984 19.2016L15.0454 18.6427L14.4296 17.379L14.7339 16.1028L15.3053 14.96L17.0711 14.6824L18.3686 13.4453L21.1702 13.6571L21.7202 16.6527L20.6611 20.4244L20.0578 22.3771L17.6121 22.4697L16.4766 21.6829L15.1469 21.1275L13.7443 20.6878Z" fill="#E2CC85"/>
<path fill-rule="evenodd" clip-rule="evenodd" d="M18.0345 20.6611C18.0345 20.6611 17.6962 20.816 17.1193 20.7803C16.9523 20.5561 15.783 20.451 15.783 20.451C15.783 20.451 15.637 20.4066 15.3789 20.5133C15.1191 20.6189 14.8734 20.6059 14.6438 20.6628C14.4142 20.7197 14.1862 20.4208 14.0102 20.3585C13.8342 20.2926 13.6008 20.1342 13.6008 20.1342L13.108 20.0861L12.1184 19.6678L10.5463 18.1016L10.1191 18.7704L9.9873 19.598L10.4626 20.5788L11.7424 21.7446L14.2378 22.3782L15.7169 21.9425L17.5699 21.1593L18.0345 20.661V20.6611Z" fill="#F1D789"/>
<path fill-rule="evenodd" clip-rule="evenodd" d="M9.16856 15.1256L9.48536 14.1663L9.86282 13.5468L11.0784 13.4453L10.7135 14.5098L9.69726 16.3182L10.1191 17.9326L9.37155 18.3063L9.14181 17.954L8.95677 17.1459L8.94434 16.2381L9.16856 15.1256Z" fill="#F4ECB4"/>
<path fill-rule="evenodd" clip-rule="evenodd" d="M10.532 20.5978L10.2989 20.2721C10.2989 20.2721 10.2366 20.1172 10.2722 19.982C10.3074 19.8449 10.3024 19.836 10.2847 19.7844C10.267 19.7327 10.1174 19.5548 10.1263 19.4016C10.1351 19.2468 10.1138 19.1951 10.2277 19.0724C10.3469 18.9532 10.3113 18.7467 10.3113 18.7467L10.4662 18.8428L10.5014 18.7894C10.5014 18.7894 10.5583 18.8339 10.5583 18.9033C10.5707 18.8072 10.5191 18.3622 10.6366 18.2608C10.754 18.1594 10.9623 18.736 10.9623 18.736L10.8342 17.8994L10.5048 17.0416L9.91919 16.2584L9.88399 15.3951V15.3203C9.88399 15.3203 9.61517 15.7333 9.54043 16.0595C9.48705 16.2837 9.61518 16.5561 9.58854 16.8783C9.56707 17.1987 9.54043 17.1737 9.6187 17.3007C9.69696 17.4276 9.88751 17.6887 9.81276 17.8774C9.74694 18.0394 9.5226 17.9255 9.5226 17.9255C9.5226 17.9255 9.47813 18.0571 9.41759 18.1052C9.39623 18.027 9.37312 17.9771 9.33041 17.9292C9.32677 17.9595 9.31797 18.0004 9.31797 18.0004C9.31797 18.0004 9.27878 17.8776 9.23959 17.7227C9.18632 17.5163 9.1293 17.244 9.07767 17.098C9.05632 17.1817 9.00293 17.4362 9.00293 17.4362L9.0332 17.8278L9.17916 18.3653L9.31996 18.7173L9.45701 19.1481L9.5761 19.4374L9.6722 19.6581L9.75586 20.1548L10.1598 20.5819L10.3753 20.6781L10.5318 20.598L10.532 20.5978Z" fill="#F3E19D"/>
<path fill-rule="evenodd" clip-rule="evenodd" d="M9.37974 14.3448C9.37974 14.3448 9.08958 14.8376 9.00603 15.3344C8.92249 15.8312 8.84763 16.3562 8.90043 17.0325C8.95382 17.7143 9.05531 18.1325 9.13721 18.4315C9.27801 18.9282 9.64268 19.6188 9.64268 19.6188L9.65512 19.5921C9.59382 19.4759 9.5449 19.3536 9.50916 19.2272C9.46105 19.0385 9.44322 18.8143 9.39875 18.7128C9.35956 18.6114 9.29374 18.5241 9.2617 18.3995C9.23143 18.2803 9.2265 18.0916 9.13357 17.9511C9.09439 17.894 9.04628 17.7446 9.03208 17.5951C9.01425 17.3707 9.041 17.1198 9.01964 16.9134C8.98046 16.5698 8.95382 16.3367 8.98937 16.1568C9.02492 15.9769 9.21019 15.4663 9.32412 15.0604C9.39887 14.8005 9.35428 14.5816 9.49132 14.3555C9.62837 14.1313 9.71215 13.9337 9.7423 13.7966C9.7775 13.672 9.37927 14.3448 9.37927 14.3448H9.37974Z" fill="#F2E8B0"/>
<path fill-rule="evenodd" clip-rule="evenodd" d="M10.7558 14.1484C10.7558 14.1484 10.6063 14.193 10.5351 14.2713C10.4638 14.346 10.4336 14.4083 10.3375 14.5347C10.2414 14.6611 10.236 14.7643 10.1576 14.9227C10.0793 15.0776 9.90662 15.3107 9.88526 15.3944C9.86391 15.4781 9.82836 15.8696 9.78389 16.0548C9.7447 16.2399 9.82836 16.4678 9.82836 16.4678L9.92973 16.4463C9.92973 16.4463 9.92973 16.5781 10.0312 16.6671C10.1326 16.7543 10.1504 16.3716 10.1504 16.3716L10.5295 15.0918L11.1008 14.7038L11.1631 14.3905L10.7555 14.1484H10.7558Z" fill="#F5EEC0"/>
<path fill-rule="evenodd" clip-rule="evenodd" d="M11.0329 14.7237C11.0329 14.7237 10.764 14.7414 10.6324 14.8376C10.579 14.8767 10.5577 14.9087 10.5008 14.9568C10.3957 15.044 10.2888 15.1241 10.2373 15.2384C10.1803 15.3522 10.118 15.5249 10.0753 15.8507C10.0575 15.9877 10.0575 16.1141 10.045 16.2245C10.0272 16.374 10.0006 16.4932 10.0148 16.5765C10.0326 16.7473 10.2088 16.8364 10.226 17.0303L10.5909 16.8453L10.9344 15.4907L11.6642 15.0331L11.2512 14.5703L11.0324 14.7228L11.0329 14.7237Z" fill="#E6DB9D"/>
<path fill-rule="evenodd" clip-rule="evenodd" d="M9.10852 23.846C9.11004 23.8326 9.11157 23.8193 9.11309 23.8055C9.16636 23.3479 9.1754 23.0011 9.21447 22.7839C9.27137 22.476 9.31056 22.3615 9.30165 22.2463C9.28921 22.0613 9.27501 21.926 9.29285 21.7835C9.31948 21.5949 9.50463 21.3706 9.49935 21.2158C9.49572 21.0929 9.43341 21.0129 9.38003 20.9381C9.32664 20.8634 9.28393 20.8011 9.28393 20.8011C9.28393 20.8011 9.64884 20.5501 9.64532 19.5391C9.65277 19.5412 9.65994 19.5442 9.66667 19.548L9.84642 20.0587L9.96927 20.2082L10.441 21.0875L11.0479 21.6768L11.9449 22.2801L12.5074 22.8922L12.5643 24.5244L11.8292 25.4785L11.7089 25.6965C10.7524 25.2163 9.8754 24.5922 9.1084 23.8459L9.10852 23.846Z" fill="#E5CB7A"/>
<path fill-rule="evenodd" clip-rule="evenodd" d="M11.3535 25.4041C11.3535 25.4041 11.366 25.2012 11.5333 25.0695C11.56 25.1139 11.5777 25.1568 11.5725 25.1887C11.6027 25.1354 11.8145 24.7936 12.2934 24.7046C12.7722 24.6174 12.8879 24.2685 12.8879 24.2685L13.9041 23.3448L15.0664 22.275L16.4797 21.7784L17.1402 21.6163C17.1402 21.6163 17.1526 21.6644 17.1277 21.7712C17.2505 21.7624 17.5228 21.7001 17.8058 21.6004C17.9197 21.5559 18.0266 21.5381 18.0835 21.5969C18.1672 21.6751 18.1796 21.8603 18.1849 21.9706C18.3219 21.9403 18.4803 21.8086 18.6073 21.8211C18.8103 21.8424 18.99 22.081 19.1965 22.081C19.4689 22.081 19.5916 21.9137 19.7822 21.7819C19.8961 21.7036 20.0598 21.6059 20.1523 21.5398C20.373 21.3778 22.7083 20.6641 22.7083 20.6641L23.5271 20.7174L23.6588 21.5967L23.5884 23.8953C23.5798 23.9036 23.5711 23.9123 23.5623 23.9206L19.8395 25.865L14.6792 26.656C13.5233 26.4672 12.4078 26.0835 11.3803 25.5213L11.3539 25.404L11.3535 25.4041Z" fill="#D8C173"/>
<path fill-rule="evenodd" clip-rule="evenodd" d="M9.4209 24.14C9.49423 23.9866 9.56017 23.8584 9.57179 23.8125C9.58094 23.905 9.59772 24.1078 9.63151 24.3235C9.56056 24.2632 9.49036 24.202 9.4209 24.1399V24.14Z" fill="#F1D789"/>
<path fill-rule="evenodd" clip-rule="evenodd" d="M13.1903 26.3054L13.8577 26.1197L13.9146 26.1376C13.9146 26.1376 13.9448 26.1554 13.9448 26.2158C14.0285 26.1678 14.0997 26.1766 14.1514 26.1447C14.178 26.2016 14.2046 26.3903 14.3222 26.4134C14.4449 26.4402 14.5767 26.36 14.7102 26.2587C14.8419 26.1536 14.9918 26.0219 15.1053 25.9685C15.1469 26.045 15.1838 26.1241 15.2157 26.2052C15.3652 26.0859 15.6251 25.6018 15.9952 25.6106C16.1022 25.3578 16.281 25.1418 16.5094 24.9895C16.853 24.7563 17.0683 24.7385 17.3371 24.7598C17.4438 24.6212 17.5754 24.5035 17.7251 24.4128C17.7696 24.4306 17.8924 24.5053 18.0455 24.4341C18.2004 24.363 18.3748 24.0871 18.6044 24.0515C18.7281 24.0345 18.8539 24.0609 18.9604 24.1262C18.9604 24.1262 19.6292 23.4623 20.0906 23.2416C20.0728 23.1882 20.0373 22.9871 20.5783 22.542C20.6086 22.5688 20.5872 22.6435 20.6086 22.6476C20.6174 22.6476 20.7494 22.5907 20.9164 22.4625C21.1229 22.3077 21.3703 22.1457 21.5198 22.1012C21.8014 22.0175 22.1001 22.1884 22.1001 22.1884C22.1255 22.1706 22.1538 22.1573 22.1838 22.1492C22.2549 22.1367 22.3065 22.1278 22.3457 22.114C22.3422 22.2066 22.3938 22.365 22.3457 22.502C22.4014 22.5333 22.4604 22.5584 22.5217 22.5767C22.4915 22.6426 22.4256 22.8099 22.3153 22.89C22.4077 22.9345 22.4202 22.9861 22.5519 23.0308C22.4986 23.1056 22.4111 23.2338 22.3722 23.3124C22.333 23.3961 22.1923 23.7432 22.13 23.8748C22.0642 24.0066 21.9753 24.2486 21.9324 24.2972C21.8896 24.3458 21.7348 24.5517 21.6156 24.6531C21.7212 24.6139 22.1533 24.4822 22.3365 24.4324C22.282 24.5124 22.0054 24.9227 21.7395 25.3173C20.4665 26.0803 19.0455 26.5632 17.5712 26.7339C16.0969 26.9046 14.6031 26.7591 13.1895 26.3071L13.1903 26.3054Z" fill="#E0CD81"/>
<path fill-rule="evenodd" clip-rule="evenodd" d="M11.077 14.6813C11.077 14.6813 10.9223 14.6813 10.892 14.7026C10.8617 14.724 11.0469 14.7686 11.1038 14.7899C11.1607 14.8113 11.2835 14.9091 11.3156 14.9875C11.3458 15.0623 12.428 15.4983 12.428 15.4983L13.1934 15.4591L13.4573 15.0945L12.9553 14.6549L13.3073 13.6172L12.841 13.6919L11.7197 14.3607L11.1572 14.5762L11.077 14.6813Z" fill="#DFC57C"/>
<path fill-rule="evenodd" clip-rule="evenodd" d="M12.7572 15.0191C12.7683 15.037 12.7839 15.0517 12.8024 15.0617C12.8209 15.0716 12.8418 15.0766 12.8628 15.076C13.0212 15.076 13.1671 15.1152 13.2276 15.1952C13.3291 15.3234 13.6104 15.7328 13.6104 15.7328L14.2831 15.9749L14.3266 15.1826L13.5915 14.6719L12.7549 14.9798V15.0189H12.7568L12.7572 15.0191Z" fill="#E5CC7C"/>
<path fill-rule="evenodd" clip-rule="evenodd" d="M12.6267 15.3079C12.6267 15.3079 12.7494 15.3168 12.9043 15.2598C13.0592 15.2028 13.3137 15.08 13.4241 15.1281C13.5789 15.194 13.5468 15.4005 13.7143 15.5857C13.8157 15.6997 14.0008 15.6961 14.1058 15.819C14.2108 15.9418 14.5721 15.8848 14.5721 15.8848L14.7091 16.624L14.1592 17.329L13.9793 18.2046H13.2357L12.5563 17.9351L12.2217 17.1255L12.389 16.3067L12.6267 15.3079Z" fill="#D2C281"/>
<path fill-rule="evenodd" clip-rule="evenodd" d="M14.0654 15.3504C14.0838 15.3561 14.103 15.3591 14.1223 15.3593C14.1009 15.3771 14.0563 15.4162 14.0742 15.5177C14.092 15.6192 14.1489 15.7473 14.1009 15.8256C14.1392 15.8675 14.1678 15.9173 14.1846 15.9716C14.2149 16.0589 14.2238 16.1389 14.4212 16.1514C14.3927 16.169 14.3665 16.1899 14.343 16.2137C14.343 16.2137 14.48 16.3329 14.5495 16.4432C14.6206 16.4402 14.8093 16.3815 14.8093 16.3815L14.8485 16.4083L14.9321 16.3731C14.9321 16.3731 14.8539 16.3428 14.9108 16.1524C14.9641 15.985 15.0123 15.994 15.0164 15.9815C15.0205 15.9691 15.0556 15.7929 15.0556 15.7216C15.0822 15.6292 15.1035 15.3479 15.1035 15.3479L15.0466 14.7268L14.7263 14.5327L14.4658 14.2812L14.2201 14.744L14.0583 14.9053L14.0459 15.3058L14.0654 15.3504Z" fill="#E2C270"/>
<path fill-rule="evenodd" clip-rule="evenodd" d="M14.835 14.8301C14.835 14.8301 14.8919 14.992 14.9133 15.1166C14.9209 15.0924 14.9251 15.0672 14.9258 15.0419C14.9258 15.0419 14.9702 15.2876 14.979 15.3891C14.9969 15.3854 15.0142 15.3801 15.0182 15.3979C15.0222 15.4156 15.0628 15.6133 15.0534 15.7236C15.1276 15.6013 15.2301 15.4987 15.3524 15.4246C15.4236 15.38 15.5073 15.332 15.5946 15.3284C15.7316 15.3249 15.8312 15.4157 15.995 15.4157C16.3901 15.4157 16.748 15.1255 17.0114 15.0366C17.2053 14.9707 17.3726 14.9227 17.4901 14.8158C17.5471 14.7678 17.6486 14.661 17.7411 14.5025C17.8639 14.2913 17.992 14.1074 18.1203 14.0843C18.0623 14.095 18.0032 14.0991 17.9443 14.0968C17.9443 14.0968 17.9835 14.0576 18.0499 14.0042C18.1163 13.9508 18.1959 13.885 18.3097 13.885C18.5127 13.885 18.614 13.9151 18.728 13.9151C18.8419 13.9116 18.9077 13.885 18.9077 13.885C18.9077 13.885 19.027 13.9686 19.2957 13.9686C19.5645 13.9721 19.7443 13.9953 19.885 14.0078C20.0257 14.0204 20.4972 13.9686 20.6325 13.9726C20.7207 13.976 20.8073 13.9972 20.8871 14.0349L20.451 12.7677L18.8844 11.3984L17.9517 12.0588L16.5169 13.4934L15.1286 14.0078L14.8385 14.3335V14.8301H14.835Z" fill="#CCB360"/>
<path fill-rule="evenodd" clip-rule="evenodd" d="M17.9499 14.1013C17.9499 14.1013 17.9891 14.0623 18.0548 14.0089C18.1205 13.9555 18.2009 13.8895 18.3147 13.8895C18.5176 13.8895 18.6191 13.9198 18.733 13.9198C18.8469 13.9163 18.9128 13.8895 18.9128 13.8895C18.9128 13.8895 19.0322 13.9731 19.3008 13.9731C19.5696 13.9766 19.7494 13.9997 19.89 14.0122C20.0307 14.0246 20.5023 13.9731 20.6376 13.977C20.7257 13.9803 20.8123 14.0015 20.8921 14.0393L20.6945 13.4678L20.465 13.0318L19.8099 12.3145C19.8099 12.3145 19.0238 11.8517 19.0178 11.8482C19.0143 11.8447 18.7455 11.7734 18.7455 11.7734L18.0335 12.2042L17.3874 13.8756L17.375 14.2276L17.7932 14.4252C17.8982 14.2492 18.014 14.1084 18.1225 14.0905C18.0246 14.1012 17.9498 14.1012 17.9498 14.1012L17.9499 14.1013Z" fill="#D5B457"/>
<path fill-rule="evenodd" clip-rule="evenodd" d="M17.9417 14.224C17.8794 14.2275 17.8279 14.2151 17.8135 14.1706C17.7602 14.0211 17.7174 13.9998 17.6727 13.9998C17.628 13.9998 17.5677 14.0959 17.5319 14.1047C17.4962 14.1135 17.4537 13.9944 17.4537 13.9944L17.4145 13.9766C17.4145 13.9766 17.1849 14.126 17.0229 14.3023C16.861 14.4785 16.5957 14.7776 16.4765 14.8309C16.3573 14.8841 15.9478 14.9021 15.8077 14.9324C15.6676 14.9626 15.5123 15.0641 15.4909 15.0872C15.4696 15.1104 15.5533 15.1352 15.5658 15.1583C15.5782 15.1797 15.4286 15.1708 15.4162 15.1935C15.4074 15.2114 15.4514 15.3128 15.4732 15.3644C15.5114 15.3454 15.5533 15.3351 15.5959 15.3341C15.733 15.3306 15.8327 15.4214 15.9964 15.4214C16.3916 15.4214 16.7493 15.1312 17.0127 15.0422C17.2068 14.9764 17.3741 14.9283 17.4916 14.8215C17.5485 14.7735 17.65 14.6666 17.7426 14.5082C17.8101 14.3997 17.8761 14.2982 17.942 14.2234L17.9417 14.224Z" fill="#D2B257"/>
<path fill-rule="evenodd" clip-rule="evenodd" d="M12.2737 23.0345C12.2737 23.0345 12.2385 22.9027 11.9124 22.5628C11.8198 22.4667 11.7629 22.3868 11.7006 22.3296C11.5457 22.1836 11.4549 22.1445 11.3446 22.0608C11.1025 21.8811 10.8391 21.8811 10.6362 21.6604C10.4334 21.4397 10.1969 21.018 10.0327 20.587C9.87076 20.1563 9.82617 20.0192 9.82617 20.0068C9.82617 19.9944 9.87076 19.9107 9.92767 19.9231C9.98457 19.9356 9.98457 20.0459 9.99889 20.0726C10.0272 20.1163 10.0594 20.1573 10.095 20.1953C10.1786 20.2916 10.2979 20.4065 10.3584 20.5781C10.346 20.4321 10.2961 20.2702 10.2961 20.2702C10.2961 20.2702 10.6094 20.4678 10.8763 20.6742C11.1451 20.8807 11.2554 20.9519 11.3339 21.0836C11.4124 21.2152 11.5973 21.5624 11.6859 21.6639C11.7745 21.7654 12.9883 22.148 12.9883 22.148L13.5657 22.5785L13.8523 23.2068L13.628 23.5588L13.1973 23.6514L12.4977 23.3381L12.2737 23.0343V23.0345Z" fill="#D2B159"/>
<path fill-rule="evenodd" clip-rule="evenodd" d="M10.7207 20.8665C10.7207 20.8665 10.8667 21.0997 11.2227 21.3204C11.5431 21.5145 12.0503 21.6907 12.5025 21.7957C12.7623 21.858 13.0222 21.906 13.2553 21.9096C13.8837 21.9184 14.3161 21.7388 14.852 21.68C15.1422 21.6497 15.4982 21.6266 15.8684 21.5392C16.3436 21.4253 16.6248 21.297 17.0075 21.1168C17.2852 20.9887 17.5398 20.8926 17.7462 20.7697C18.0363 20.5989 18.2481 20.4085 18.4938 20.3516C18.4635 20.4352 18.4315 20.5847 18.1894 20.7396C18.3176 20.7359 18.4938 20.7271 18.4938 20.7271C18.4938 20.7271 18.323 20.8285 18.0221 21.0564C17.837 21.1972 17.5914 21.4355 17.3404 21.5939C17.1784 21.6954 17.0021 21.7699 16.8865 21.8307C16.6049 21.9855 16.4913 22.0638 16.3062 22.2531C16.3721 22.2495 16.3775 22.2531 16.3775 22.2531C16.3775 22.2531 16.1442 22.2833 15.977 22.3723C15.9418 22.3723 15.8808 22.3598 15.774 22.3901C15.6904 22.4167 15.5799 22.4774 15.4661 22.5093C15.3041 22.5574 15.2508 22.5361 15.2508 22.5361L15.2775 22.5895C15.2775 22.5895 15.0663 22.5858 14.9959 22.593C15.0083 22.5965 15.0048 22.6019 15.0048 22.6019C14.9924 22.604 14.9805 22.6082 14.9696 22.6143C14.9357 22.6363 14.8984 22.6525 14.8593 22.6623C14.8379 22.6658 14.8201 22.6658 14.7933 22.6712C14.8023 22.6926 14.8717 22.812 14.9038 22.8824C14.8771 22.9003 14.4765 23.2029 14.4765 23.2029C14.489 23.2224 14.4991 23.2433 14.5068 23.2652C14.5193 23.3043 14.5246 23.3613 14.5371 23.3879C14.5672 23.4413 14.5851 23.4502 14.5851 23.4502C14.5851 23.4502 14.5371 23.4591 14.4533 23.4805C14.3822 23.4983 14.2949 23.5285 14.1717 23.5463C14.1339 23.5512 14.0959 23.5542 14.0578 23.5552C14.0756 23.5944 14.1539 23.7439 14.0097 23.9165C13.8655 24.0891 13.821 24.1142 13.7765 24.2245C13.7541 24.2076 13.7303 24.1927 13.7053 24.1799C13.6573 24.1586 13.5914 24.1266 13.5683 24.0838C13.5548 24.1409 13.5369 24.1968 13.5149 24.2511C13.4704 24.3703 13.4046 24.4879 13.3921 24.5769C13.344 24.5235 13.2551 24.4185 13.1323 24.4398C13.0094 24.4612 12.9116 24.6285 12.8902 24.6766C12.8902 24.6463 12.8688 24.6232 12.8636 24.6588C12.8599 24.6979 12.7923 25.1072 12.415 25.4383C12.4115 25.3547 12.4115 25.1695 12.4026 25.1091C12.3674 25.1443 12.3243 25.1963 12.0679 25.3067C11.8169 25.417 11.8567 25.5274 11.8567 25.5274C11.8567 25.5274 11.8354 25.3514 11.9707 25.166C12.1077 24.9809 12.1914 24.8937 12.1914 24.8795C12.1891 24.865 12.183 24.8514 12.1735 24.8403C12.1557 24.8224 12.1201 24.8011 12.1201 24.7869C12.1415 24.7781 12.3533 24.6766 12.3408 24.4664C12.3284 24.2779 12.2484 24.1799 12.1914 24.1106C12.1826 24.1017 12.2751 24.0358 12.2626 24.0145C12.2537 24.002 12.1399 23.9183 12.1255 23.8737C12.1289 23.8471 12.1349 23.8209 12.1434 23.7954C12.1558 23.7562 12.1647 23.7295 12.1612 23.7028C12.1523 23.6584 12.1042 23.5355 12.09 23.5231C12.1024 23.5266 12.1914 23.5231 12.1914 23.5231C12.1914 23.5231 12.1203 23.4092 12.1077 23.3558C12.0951 23.3024 12.0685 23.1617 12.0543 23.1351C12.0846 23.1386 12.1593 23.1439 12.1593 23.1351C12.163 23.1083 12.0935 23.0638 12.1241 23.0295C12.1455 23.033 12.1864 23.0508 12.2255 23.1007C12.2041 23.0437 12.1686 22.9334 12.0937 22.8889C12.1289 22.8765 12.2486 22.8443 12.3536 22.9066C12.4586 22.9689 12.4944 23.0561 12.4944 23.0561C12.4944 23.0561 12.5567 23.1042 12.6529 23.1754C12.7632 23.2626 12.9038 23.3866 13.1281 23.4744C13.1763 23.5011 13.299 23.5011 13.388 23.4833C13.4268 23.4741 13.464 23.4591 13.4983 23.4388C13.5107 23.4315 13.5239 23.4256 13.5375 23.421C13.5184 23.3826 13.4964 23.3457 13.4717 23.3106C13.502 23.3106 13.5375 23.3142 13.5375 23.3142C13.5375 23.3142 13.5589 23.2661 13.4628 23.1734C13.4841 23.1521 13.5109 23.1382 13.5109 23.1022C13.4806 23.0987 13.4272 23.0542 13.4148 23.0364C13.4325 23.0239 13.4593 22.983 13.4895 22.9706C13.4628 22.9492 13.397 22.8601 13.3667 22.8513C13.3956 22.8406 13.4236 22.8275 13.4503 22.8122C13.4503 22.8122 13.3009 22.773 13.2528 22.7409C13.2046 22.7057 13.1335 22.6448 13.0908 22.627C13.0462 22.6092 12.968 22.6004 12.936 22.5647C12.9661 22.5736 13.0142 22.5647 13.0499 22.5647C13.0765 22.5647 13.0891 22.5682 13.0979 22.5682C13.0944 22.5558 13.0944 22.529 13.1638 22.5202C13.1972 22.5152 13.2296 22.505 13.2599 22.49C13.2599 22.49 13.194 22.4864 13.1191 22.4152C13.0443 22.344 12.9821 22.2871 12.9394 22.2782C12.8949 22.2693 12.8112 22.3084 12.7596 22.3048C12.6884 22.296 12.6581 22.2603 12.6581 22.2603C12.6581 22.2603 12.4214 22.2817 11.8964 21.9614C11.4424 21.6836 11.2448 21.4381 11.2448 21.4381C11.2023 21.4227 11.1613 21.4036 11.1221 21.381C10.9513 21.2921 10.7145 21.107 10.7216 20.8648L10.7207 20.8665Z" fill="#C2A44D"/>
<path fill-rule="evenodd" clip-rule="evenodd" d="M17.2686 10.1907C17.3097 10.2041 17.3463 10.2287 17.3742 10.2619C17.4578 10.358 17.5112 10.5395 17.3208 10.7336C17.3955 10.7602 17.4264 10.7688 17.4916 10.7602C17.4258 10.8386 17.2763 11.0059 17.2674 11.1519C17.2585 11.2711 17.3332 11.3068 17.3332 11.3068C17.3332 11.3068 17.2193 11.4384 17.214 11.6588C17.2678 11.5981 17.3267 11.5421 17.39 11.4914C17.5218 11.3864 17.7033 11.2672 17.8261 11.1925C17.8245 11.2238 17.8287 11.2552 17.8386 11.2849C17.8386 11.2849 18.0681 11.0963 18.261 11.18C18.3481 11.2192 18.3089 11.342 18.3089 11.342C18.3089 11.342 18.4283 11.2975 18.5119 11.3811C18.5956 11.4648 18.7139 11.6806 18.7745 11.7642C18.8012 11.8034 18.8706 11.8782 18.9417 11.9939C19.0389 12.1558 19.12 12.3269 19.1839 12.5046C19.1874 12.412 19.2105 12.2679 19.4741 12.3586C19.7375 12.4512 20.0364 12.6453 20.2874 13.0274C20.5384 13.4096 20.6006 13.841 20.727 14.0053C20.8551 14.1637 20.9868 14.4271 20.9958 14.5375C21.0047 14.6479 20.9566 15.0038 21.22 15.9668C21.2947 15.6678 21.4087 15.0038 21.4087 15.0038L21.471 14.4182L21.5422 12.6062L19.6501 11.0343L18.171 9.96094L17.208 10.0535L17.2684 10.1906L17.2686 10.1907Z" fill="#CAA13E"/>
<path fill-rule="evenodd" clip-rule="evenodd" d="M20.7844 12.88C20.7844 12.88 20.7576 12.704 20.3127 12.4048C19.8676 12.1094 19.5206 12.1094 19.2002 11.8584C18.9545 11.6608 18.6983 11.2068 18.5314 11.0574C18.3694 10.9096 18.3428 10.4824 18.3428 10.4824L18.8892 10.0248L19.7018 8.8502L20.3888 8.09375L20.7181 8.55135L21.1757 9.08885L21.4302 10.1675L21.5227 11.7463L20.7835 12.8801L20.7844 12.88Z" fill="#B59544"/>
<path fill-rule="evenodd" clip-rule="evenodd" d="M21.3342 14.769C21.3477 14.5296 21.3181 14.2897 21.2469 14.0607C21.1296 13.6958 20.8732 13.0479 20.7541 12.8052C20.706 12.5364 20.7417 12.515 20.7933 12.4848C20.845 12.4545 21.039 12.344 21.1453 11.9562C21.2516 11.5684 21.5815 11.5557 21.5815 11.5557L21.7843 11.4062L22.0923 12.1769L22.361 12.8729L22.4447 13.4051L22.507 13.859L22.361 14.8184L21.6402 15.4699L21.3341 14.769H21.3342Z" fill="#C89D3A"/>
<path fill-rule="evenodd" clip-rule="evenodd" d="M11.2764 25.4616V25.4419C11.2913 25.4325 11.3046 25.4206 11.3154 25.4067C11.3279 25.3888 11.3369 25.3675 11.3457 25.3622C11.3635 25.3533 11.4472 25.327 11.4917 25.3354C11.5361 25.3439 11.6537 25.3923 11.716 25.3888C11.8441 25.3853 11.9936 25.2873 12.2304 25.3319C12.5864 25.3977 12.6701 25.6398 12.8766 25.7769C13.0174 25.8731 13.1631 25.8302 13.1844 25.8302H13.2324C13.2413 25.8302 13.3072 25.7555 13.3428 25.7591C13.4141 25.7627 13.4211 25.8214 13.4656 25.825C13.5706 25.8374 13.7736 25.7716 13.8751 25.7983C13.9052 25.8077 13.9325 25.8243 13.9548 25.8466C13.9771 25.8689 13.9937 25.8962 14.0032 25.9263C14.0245 25.9922 14.0067 26.0758 13.9551 26.1239C13.8448 26.2253 13.7398 26.3215 13.7184 26.4055C13.7456 26.4262 13.7717 26.4483 13.7966 26.4717C12.9159 26.2473 12.0686 25.908 11.2764 25.4626V25.4616Z" fill="#CEB052"/>
<path fill-rule="evenodd" clip-rule="evenodd" d="M20.7529 21.915C20.7529 21.915 21.0305 21.5448 21.1268 21.3614C21.2228 21.1724 20.8224 18.7788 20.8224 18.7788L21.6269 16.1428L21.6055 15.2848C21.6055 15.2848 21.6447 14.4927 21.7372 14.1492C21.8476 14.3467 22.1912 14.5853 22.2659 14.7117C22.3011 14.4695 22.4207 13.9587 22.403 13.4141C22.4688 13.5154 22.6272 14.5354 22.6272 14.5354L22.7856 15.2224L22.9921 15.9522L23.2217 16.723L23.3588 17.2552L23.437 17.3833L23.503 17.6076L23.5653 17.8497L23.745 18.4175L23.8506 18.8838L23.9343 19.7293C23.9525 19.794 23.9656 19.8601 23.9735 19.9269C23.977 20.0195 23.9611 20.0728 23.9611 20.0889C23.9611 20.105 23.9913 20.2918 23.9789 20.4325C23.9611 20.5733 23.9611 20.6834 23.8506 20.7845C23.7402 20.8855 23.6709 21.4893 23.6709 21.4893L23.4733 21.3576C23.4733 21.3576 23.5125 21.1778 23.4199 21.0141C23.3273 20.8504 23.1476 20.8165 23.0461 20.8433C22.9447 20.8646 22.7418 20.8965 22.6759 20.9535C22.6136 21.0105 22.4606 21.1867 22.3199 21.2668C22.1439 21.3724 21.8572 21.3808 21.7042 21.4163C21.5493 21.4515 21.3784 21.5571 21.1986 21.6797C21.0575 21.771 20.9086 21.8496 20.7536 21.9144L20.7529 21.915Z" fill="#CCA847"/>
<path fill-rule="evenodd" clip-rule="evenodd" d="M20.7529 25.7942C20.7529 25.7942 20.7647 25.8018 20.7873 25.8143C22.0519 25.2218 23.1849 24.382 24.1196 23.3444C24.1094 22.9842 24.0961 22.6149 24.0816 22.4781C24.0514 22.188 24.0728 21.8925 24.0638 21.7217C24.0549 21.5508 23.9588 20.8548 23.9144 20.6751C23.8663 20.4953 23.7736 20.4062 23.7595 20.4062C23.747 20.4099 23.6722 20.7445 23.6722 20.8286C23.6722 20.9128 23.6543 21.1153 23.6543 21.1669C23.6419 21.1633 23.6366 21.1317 23.6366 21.1188C23.6188 21.1633 23.5974 21.2417 23.5885 21.2506C23.5796 21.2595 23.601 21.1758 23.5885 21.158C23.5761 21.1402 23.5533 21.1491 23.5583 21.1046C23.5604 21.0782 23.5645 21.0521 23.5707 21.0264C23.5707 21.0264 23.5173 21.1046 23.4782 21.304C23.439 21.5016 23.439 21.507 23.4248 21.5247C23.4124 21.5461 23.3412 21.6172 23.3375 21.644C23.334 21.692 23.4035 21.7401 23.4088 21.7667C23.4123 21.8113 23.3465 22.0177 23.3251 22.1187C23.3038 22.2198 23.3127 22.4177 23.2899 22.5192C23.2721 22.6118 23.2547 22.6652 23.1938 22.7042C23.2383 22.7131 23.281 22.7256 23.281 22.7256C23.281 22.7256 23.3433 22.989 23.1849 23.2133C23.128 23.2916 23.1138 23.3273 23.0532 23.3985C22.9339 23.5301 22.8413 23.6801 22.8324 23.7776C22.8263 23.7488 22.8221 23.7196 22.82 23.6903C22.82 23.6903 22.635 23.9057 22.5566 24.0286C22.4552 24.187 22.3145 24.178 22.275 24.2172C22.2354 24.2564 22.2269 24.3275 22.2398 24.3846C22.2046 24.3934 22.1384 24.4059 22.0938 24.543C22.0725 24.6141 22.0191 24.6838 21.9354 24.7316C21.8518 24.7795 21.7503 24.7939 21.6986 24.8064C21.7431 24.8188 21.7609 24.8188 21.7823 24.833C21.7557 24.8775 21.6328 24.9469 21.4958 25.036C21.3587 25.1196 21.2928 25.2424 21.259 25.3225C21.2238 25.3973 21.1718 25.4454 21.0882 25.4543C21.1234 25.4756 21.1754 25.5254 21.2021 25.5415C21.1629 25.5504 21.0965 25.5504 20.9779 25.6519C20.8532 25.7551 20.8105 25.7854 20.7535 25.7943L20.7529 25.7942Z" fill="#C39D3C"/>
<path fill-rule="evenodd" clip-rule="evenodd" d="M18.277 26.6207C18.3451 26.5729 18.4189 26.5338 18.4967 26.5042C18.7743 26.3939 19.068 26.3725 19.1837 26.337C19.2941 26.3018 19.3813 26.2532 19.5183 26.2266C19.5147 26.2578 19.5117 26.2871 19.5084 26.3148C19.1043 26.4418 18.6929 26.544 18.2764 26.6207H18.277Z" fill="#D2BA6B"/>
<path fill-rule="evenodd" clip-rule="evenodd" d="M23.3972 19.3179C23.3972 19.3179 23.3403 19.6257 23.2388 19.8198C23.1373 20.0139 23.0276 20.2826 23.0276 20.2826C23.0283 20.222 23.0354 20.1617 23.0489 20.1027C22.9208 20.1774 22.6093 20.3573 22.5209 20.4373C22.4373 20.5121 22.2966 20.6438 22.2611 20.7061C22.3447 20.4606 22.4319 20.2399 22.4462 20.1384C22.3181 20.2309 21.7199 20.724 21.4085 21.0497L20.4384 21.8347C20.3264 21.895 20.2112 21.949 20.0931 21.9963C19.9259 22.0674 19.7283 22.128 19.5823 22.185C19.6215 22.08 19.6837 21.9873 19.771 21.8984C19.8636 21.8112 20.1412 21.5103 20.1839 21.3704C20.2231 21.2244 20.232 21.1372 20.1804 21.0144C20.1323 21.0268 20.022 21.0322 19.9472 21.0536C19.8725 21.0749 19.7924 21.1549 19.7924 21.1549C19.7924 21.1549 19.8493 20.8292 19.9721 20.5213C19.8795 20.5249 19.7211 20.5515 19.7211 20.5515C19.7211 20.5515 19.9418 20.1813 20.3195 19.9233C20.2039 19.9479 20.0907 19.983 19.9814 20.0282C19.7607 20.1208 19.5186 20.2578 19.3389 20.3326C19.4402 20.1918 20.1522 19.1756 20.5759 18.2286C20.9983 17.2835 21.1561 17.0415 21.2487 16.5342C21.2967 16.2833 21.2839 15.9124 21.2967 15.5802C21.3091 15.2508 21.3501 14.9554 21.3234 14.7578C21.4337 14.8949 21.8467 15.2811 21.8609 16.1445C21.8734 17.0077 21.4659 18.1736 21.0333 18.8018C21.1389 18.8321 21.4125 18.8678 21.6936 18.3794C21.9748 17.8911 21.9714 17.7547 22.0729 17.5518C22.0853 17.6532 22.0817 17.6888 22.0817 17.6888C22.0817 17.6888 22.4911 17.1922 22.6851 16.5674C22.7243 16.8363 22.84 17.073 22.6583 17.5661C22.4964 18.011 22.2846 18.1196 22.2846 18.1196C22.2846 18.1196 22.3897 18.1018 22.5444 18.0092C22.5712 18.0751 22.5659 18.15 22.6104 18.1766C22.6548 18.2031 22.7154 18.2478 22.7243 18.2905C22.7723 18.2193 22.847 18.1284 22.8702 18.0609C22.8524 18.2017 22.84 18.8173 22.9054 19.1306C23.0426 19.1182 23.1832 19.1092 23.2793 18.8618C23.2134 19.104 23.2134 19.2498 23.2579 19.4563C23.3309 19.4066 23.3967 19.3175 23.3967 19.3175L23.3972 19.3179Z" fill="#C0993A"/>
<path fill-rule="evenodd" clip-rule="evenodd" d="M18.7728 9.51354C18.7728 9.51354 18.6358 9.57045 18.4027 9.57045C18.1998 9.57045 18.2567 9.49219 17.9399 9.49219C17.4523 9.49219 15.7488 9.77379 15.4497 9.7698C15.2557 9.76628 16.1047 9.85346 16.1047 9.85346L18.2745 9.88373L18.7105 9.84853L18.8726 9.51882L18.7728 9.51354Z" fill="#A88F33"/>
<path fill-rule="evenodd" clip-rule="evenodd" d="M13.146 13.7513C13.146 13.7513 12.8682 13.9631 12.7508 14.1251C12.6333 14.2871 12.571 14.3938 12.4375 14.5256C12.4688 14.5267 12.5002 14.5225 12.5301 14.5131C12.5301 14.5131 12.5301 14.5483 12.5087 14.5576C12.5272 14.5555 12.5459 14.5576 12.5634 14.5637C12.5809 14.5698 12.5969 14.5797 12.6101 14.5928C12.5709 14.6141 12.4641 14.721 12.5478 14.8474C12.6101 14.9435 12.7419 14.9523 12.7419 14.9523C12.7419 14.9523 12.7116 15.0396 12.838 15.0307C13.1103 15.0182 13.4147 14.8989 13.5552 14.9292C13.696 14.9644 13.776 14.9773 13.8757 15.15C13.9813 15.3208 14.0732 15.3476 14.0732 15.3476C14.0732 15.3476 14.1355 15.1891 14.1214 14.9524C14.1724 14.8248 14.2008 14.6893 14.205 14.552L14.1124 13.8702L13.7085 13.3594L13.1851 13.6495L13.146 13.7509V13.7513Z" fill="#E3C571"/>
<path fill-rule="evenodd" clip-rule="evenodd" d="M13.6436 13.6456C13.6436 13.6456 13.6827 13.7382 13.8465 13.747C13.8287 13.7862 13.8287 13.7916 13.8341 13.8217C13.8376 13.852 13.8429 13.8965 13.8429 13.8965C13.8609 13.8878 13.8772 13.8758 13.891 13.8613C13.8999 13.9005 13.8821 13.9627 13.891 14.0072C13.8965 14.0344 13.9055 14.0607 13.9176 14.0855C13.9202 14.0794 13.9232 14.0735 13.9266 14.0678C13.9301 14.0589 13.9618 14.1639 14.0494 14.2438C14.0493 14.2315 14.0524 14.2194 14.0582 14.2086C14.0596 14.2309 14.0669 14.2524 14.0796 14.2709C14.073 14.2678 14.067 14.2636 14.0618 14.2585C14.0618 14.2585 14.0706 14.5401 14.1188 14.6857C14.1268 14.6763 14.1339 14.6661 14.1401 14.6554C14.1401 14.6466 14.1366 14.7338 14.1277 14.7962C14.1152 14.8585 14.1242 14.9457 14.1242 14.9457C14.1562 14.9204 14.1915 14.8995 14.229 14.8834C14.2824 14.8619 14.3698 14.7961 14.4231 14.6501C14.454 14.5675 14.4778 14.4823 14.4943 14.3956C14.5115 14.4287 14.5234 14.4644 14.5295 14.5012C14.5332 14.5457 14.6168 14.5226 14.6168 14.5226L14.6347 14.3285L14.7403 13.8889L14.8364 13.6165L15.2991 12.8957L16.1352 12.2518L16.8651 12.4191L17.4808 11.5825L16.42 10.9453L15.4161 11.0503L14.505 12.3122L13.7753 13.4568L13.6436 13.6455V13.6456Z" fill="#D8B65B"/>
<path fill-rule="evenodd" clip-rule="evenodd" d="M18.8998 11.8212C18.8998 11.8212 18.8375 11.8337 18.6577 11.9268C18.478 12.02 18.3534 12.0496 18.2839 12.1866C18.2145 12.3237 18.2092 12.4323 18.2092 12.4323C18.2092 12.4323 18.332 12.3789 18.4032 12.3611C18.478 12.3434 18.5617 12.3487 18.5527 12.3789C18.5442 12.3997 18.5323 12.4189 18.5175 12.4358C18.5175 12.4358 18.6583 12.4323 18.6546 12.5018C18.6508 12.5712 18.6279 12.6477 18.6013 12.6815C18.5746 12.7167 18.4643 12.7688 18.4518 12.8098C18.4216 12.8934 18.4643 12.897 18.4482 12.9645C18.4358 13.0305 18.3771 13.1586 18.1848 13.3828C17.9872 13.6072 17.9032 13.7656 17.9032 13.7656C17.9032 13.7656 17.8071 13.5858 17.7572 13.4309C17.722 13.4487 17.533 13.5537 17.533 13.5537L17.0951 12.0283L17.1039 11.9268C17.1039 11.9268 17.1431 11.8789 17.152 11.7898C17.0862 11.7684 17.0773 11.7506 16.99 11.6671C16.9027 11.5835 16.8316 11.4819 16.6857 11.4125C16.6644 11.3733 16.6376 11.32 16.5308 11.2985C16.4241 11.2771 16.36 11.2595 16.36 11.2595C16.36 11.2595 16.4169 11.238 16.4437 11.1935C16.3777 11.2024 16.3245 11.2238 16.1803 11.2203C16.0343 11.2166 16.0182 11.2113 15.9382 11.2238C15.8582 11.2362 15.7622 11.2719 15.7264 11.149C15.6872 11.1188 15.6036 11.1455 15.5323 11.2504C15.4611 11.3553 15.4362 11.4391 15.2992 11.48C15.2896 11.5405 15.2684 11.5984 15.2369 11.6509C15.1977 11.7168 15.1354 11.7826 15.0517 11.8805C14.92 12.0354 14.9413 12.2899 14.7313 12.4839C14.5195 12.6779 14.7665 11.9463 14.7665 11.9463L15.1047 11.1367L16.0676 10.1951L17.5628 10.0938L17.7088 10.8681L18.4386 11.1191L18.8996 11.8222L18.8998 11.8212Z" fill="#D3AE4D"/>
<path fill-rule="evenodd" clip-rule="evenodd" d="M19.1378 11.9971L18.5095 11.0912L18.0698 10.7529C18.0698 10.7529 17.7565 10.1763 17.7352 10.1585C17.7173 10.146 17.4219 10.114 17.2332 10.1016L17.2684 10.1887C17.3096 10.2021 17.3462 10.2268 17.374 10.26C17.4577 10.3561 17.5111 10.5376 17.3206 10.7316C17.3954 10.7583 17.4262 10.7668 17.4915 10.7583C17.4257 10.8367 17.2762 11.004 17.2673 11.1499C17.2583 11.2691 17.3331 11.3047 17.3331 11.3047C17.3331 11.3047 17.2191 11.4365 17.2139 11.6567C17.2677 11.596 17.3266 11.54 17.3899 11.4894C17.5216 11.3838 17.7031 11.265 17.826 11.1903C17.8243 11.2217 17.8285 11.2531 17.8384 11.2829C17.8384 11.2829 18.0679 11.0942 18.2608 11.1779C18.348 11.2171 18.3088 11.3399 18.3088 11.3399C18.3088 11.3399 18.4281 11.2954 18.5118 11.3791C18.5955 11.4627 18.7147 11.6781 18.7752 11.7618C18.8019 11.801 18.8713 11.8758 18.9424 11.9913C19.0396 12.1533 19.1207 12.3244 19.1846 12.5022C19.1881 12.431 19.2024 12.3314 19.3254 12.3314L19.1385 11.9967L19.1378 11.9971Z" fill="#CAA13E"/>
<path fill-rule="evenodd" clip-rule="evenodd" d="M9.71801 14.5639C9.71801 14.5639 9.67354 14.4535 9.71801 14.2382C9.76248 14.0229 9.83194 13.9214 9.85505 13.6046C9.87817 13.2878 10.0847 12.8926 10.0847 12.8926L10.656 12.6328L11.0601 12.7431L11.1793 13.2842L10.6684 13.5658C10.6684 13.5658 10.6418 13.6851 10.4976 13.7812C10.3534 13.8772 10.154 13.952 10.106 14.05C10.0773 14.11 10.0564 14.1734 10.0437 14.2386C10.0437 14.2386 9.89776 14.2084 9.81058 14.3045C9.71801 14.4024 9.72153 14.4896 9.71801 14.5644V14.5639Z" fill="#F4EFC8"/>
<path fill-rule="evenodd" clip-rule="evenodd" d="M10.8716 14.4249C10.8716 14.4249 10.8235 14.4552 10.7879 14.5305C10.7527 14.4736 10.6686 14.1353 10.6651 13.831C10.6616 13.5266 10.6434 13.4512 10.7138 13.3463C10.7842 13.2414 11.0603 13.1308 11.0211 12.9419C10.9819 12.7622 10.8181 12.6874 10.617 12.7391C10.4762 12.7743 10.3714 13.0737 10.2254 13.2232C10.115 13.3371 9.98339 13.3193 9.94784 13.3816C9.89973 13.4652 9.9442 13.5489 9.93 13.6023C9.92637 13.6201 9.8819 13.7162 9.80176 13.8319C9.63984 14.065 9.36575 14.3944 9.33008 14.6898C9.34252 14.5225 9.33372 14.519 9.37818 14.3339L9.35143 14.2894L9.52743 13.7127L9.64136 13.2375L9.89598 12.4417L10.3444 11.6284L10.7806 11.1406L11.2344 11.1709L11.2878 11.8526L11.5477 13.1325L12.0941 13.8053L11.2183 14.3946L10.8713 14.4249H10.8716Z" fill="#EBCC73"/>
<path fill-rule="evenodd" clip-rule="evenodd" d="M11.1441 14.671C11.1441 14.671 11.0693 14.6889 11.0426 14.6747C11.0158 14.6605 10.9893 14.6444 10.9981 14.6266C11.0069 14.6087 11.055 14.5786 11.055 14.5643C11.056 14.5513 11.0519 14.5385 11.0436 14.5285C11.0353 14.5186 11.0235 14.5122 11.0105 14.5109C10.9696 14.5056 10.9572 14.5322 10.9572 14.5322C10.9572 14.5322 10.918 14.5021 10.8861 14.497C10.9049 14.4947 10.9239 14.4935 10.943 14.4934C10.8938 14.4711 10.8416 14.4561 10.7881 14.4489C10.8326 14.4223 10.9199 14.3439 10.9768 14.3439C11.0337 14.3439 11.0693 14.3351 11.0604 14.3048C11.0515 14.2746 11.007 14.2301 10.959 14.2123C10.9768 14.1909 10.9893 14.1589 10.9466 14.0715C10.902 13.9843 10.9199 13.9255 10.9342 13.9043C10.9466 13.8775 10.9911 13.8295 11.0124 13.7992C11.0338 13.769 11.0516 13.728 11.0872 13.7067C11.105 13.6942 11.1619 13.6715 11.2189 13.6498C11.2812 13.6284 11.3329 13.6017 11.3684 13.6284C11.4076 13.655 11.3898 13.6907 11.3898 13.6907C11.3898 13.6907 11.5126 13.6461 11.6229 13.7031C11.7333 13.7564 12.0021 13.7903 12.0021 13.7903L12.0985 13.9844L11.4612 14.5308L11.1978 14.6626L11.1444 14.6714L11.1441 14.671Z" fill="#E5C66B"/>
<path fill-rule="evenodd" clip-rule="evenodd" d="M12.0277 13.7742C12.0277 13.7742 11.8301 13.9059 11.7857 13.9539C11.8123 13.9575 11.8568 13.9754 11.8389 14.002C11.8176 14.0286 11.6895 14.1212 11.6182 14.2085C11.5435 14.2957 11.4723 14.4061 11.4474 14.4595C11.4208 14.5075 11.2178 14.6482 11.1484 14.6659C11.2944 14.6659 11.5881 14.4861 11.6984 14.4861C11.6949 14.5395 11.7287 14.6001 11.791 14.6053C11.8533 14.6106 12.033 14.6445 12.2751 14.495C12.5171 14.3491 12.4371 14.2404 12.5385 14.1693C12.7326 14.0411 12.8108 13.9272 12.9176 13.856C13.0244 13.7849 13.0796 13.7688 13.0796 13.7688C13.0796 13.7688 13.0831 13.7154 13.1148 13.7208C13.1235 13.7218 13.1317 13.7251 13.1386 13.7304C13.1455 13.7358 13.1509 13.7429 13.154 13.751C13.154 13.751 13.3392 13.6193 13.5764 13.5837C13.5709 13.5812 13.5665 13.5768 13.564 13.5713C13.564 13.5713 13.5817 13.5624 13.5853 13.5534C13.5853 13.5534 13.5978 13.5356 13.6067 13.5445C13.6156 13.5534 13.628 13.6193 13.6459 13.646C13.6851 13.6282 13.7598 13.4609 13.7598 13.4609L13.9397 12.9465V12.4766L13.7989 12.5033L12.7429 12.9518L12.102 13.6158L12.0273 13.7742H12.0277Z" fill="#E6BD62"/>
<path fill-rule="evenodd" clip-rule="evenodd" d="M15.0685 11.471C15.1257 11.4572 15.1804 11.4349 15.231 11.4051C15.2097 11.4621 15.2097 11.5244 15.1171 11.6597C15.0245 11.795 15.021 11.8146 14.9463 11.9551C14.8715 12.1011 14.8626 12.3111 14.7914 12.4036C14.8233 12.3881 14.8576 12.3779 14.8928 12.3734C14.8928 12.3734 14.8217 12.4357 14.7914 12.5016C14.7611 12.5674 14.7077 12.7044 14.5761 12.7882C14.4444 12.872 14.277 12.9253 14.0972 13.1228C13.9174 13.3168 13.7323 13.5625 13.6396 13.6508C13.6878 13.5672 13.7536 13.3999 13.7714 13.2896C13.7892 13.1793 13.7678 13.0474 13.798 12.9016C13.8283 12.7557 13.8283 12.6506 13.974 12.396C14.1198 12.1414 14.3692 11.2568 14.3692 11.2568L14.9067 11.0859L15.0688 11.4704L15.0685 11.471Z" fill="#B6933F"/>
<path fill-rule="evenodd" clip-rule="evenodd" d="M14.6803 11.1404C14.6803 11.1404 14.5183 11.3735 14.4739 11.58C14.4294 11.7865 14.4702 11.7687 14.4436 11.8702C14.4277 11.932 14.4277 11.997 14.4436 12.0588C14.4997 11.9685 14.5764 11.8928 14.6676 11.838C14.8207 11.7456 14.9453 11.6796 15.0196 11.6014C15.0943 11.5177 15.1566 11.3807 15.3185 11.2756C15.2527 11.2667 15.1601 11.2364 15.1425 11.2404C15.2085 11.1657 15.406 11.0518 15.6053 10.9147C15.8029 10.7739 15.7905 10.7171 16.1109 10.5766C16.0059 10.5944 15.956 10.5676 15.8687 10.5766C15.9039 10.5018 16.0271 10.4662 16.1503 10.3434C16.2735 10.2207 16.0721 10.0391 16.0721 10.0391L15.1334 10.6068L14.6795 11.1408L14.6803 11.1404Z" fill="#C49937"/>
<path fill-rule="evenodd" clip-rule="evenodd" d="M12.1328 10.7186L12.1542 10.5477L12.423 10.117L12.7042 9.36054V8.32637L12.6829 7.72832L12.7273 7.33666L12.7611 7.21217L12.7968 7.16406L13.0263 7.28327L13.3432 7.714L13.3735 8.54531L13.0655 9.8571L12.1862 10.8165L12.1328 10.7186Z" fill="#DFC068"/>
<path fill-rule="evenodd" clip-rule="evenodd" d="M12.8334 7.1216C12.8334 7.1216 12.6926 7.12524 12.6626 7.71085C12.6325 8.29646 12.618 8.60434 12.5966 8.89451C12.5753 9.18467 12.5255 9.36079 12.5005 9.53174C12.4755 9.7027 12.4613 9.93572 12.3813 10.0782C12.3461 10.144 12.2709 10.3505 12.0947 10.5054C11.8971 10.6762 11.6019 10.7955 11.5572 10.8045C11.4788 10.8222 11.0818 10.8614 10.9199 10.9504C10.863 10.9807 10.765 11.0162 10.6565 11.1177C10.4411 11.3117 10.1546 11.6588 9.94805 12.0771C9.63125 12.7019 9.31445 14.4657 9.31445 14.4657L9.38567 14.3465C9.38567 14.3465 9.39459 14.1881 9.55299 13.9104C9.70787 13.6328 9.6634 13.3213 9.87871 12.789C9.96237 12.5862 10.0674 12.3228 10.1955 12.0984C10.3985 11.7335 10.6441 11.4202 10.8915 11.2494C11.2955 10.9718 11.7406 10.9112 11.7406 10.9112L12.2194 10.5944C12.2194 10.5944 12.3031 10.4325 12.4135 10.2474C12.5682 9.98758 12.7655 9.69742 12.8085 9.2756C12.8745 8.6508 12.7159 8.24143 12.7249 7.87124C12.7338 7.50106 12.7373 7.22872 12.8122 7.16278C12.887 7.09684 12.8335 7.12183 12.8335 7.12183L12.8334 7.1216Z" fill="#A88F33"/>
<path fill-rule="evenodd" clip-rule="evenodd" d="M12.8328 9.90777C12.8328 9.90777 13.044 9.38798 13.1406 8.92698C13.1585 8.8344 13.194 8.74195 13.2029 8.6672C13.2474 8.23108 13.2598 8.05132 13.2029 7.81278C13.1585 7.63678 12.9876 7.47815 12.8986 7.35518C12.8114 7.22694 12.7704 7.17918 12.7883 7.1522C12.8061 7.12521 12.8755 7.08109 12.943 7.08637C13.0149 7.08846 13.0856 7.10514 13.1507 7.1354C13.2159 7.16566 13.2743 7.20886 13.3223 7.26237C13.4593 7.42077 13.5678 7.95839 13.5678 7.95839L13.682 8.66779L13.9722 9.56128L12.833 9.90847L12.8328 9.90777Z" fill="#C99E3D"/>
<path fill-rule="evenodd" clip-rule="evenodd" d="M14.8182 9.37199C14.8182 9.37199 14.779 9.38971 14.7079 9.37199C14.711 9.40105 14.7059 9.43038 14.6933 9.45675C14.6808 9.48313 14.6612 9.50552 14.6367 9.52148C14.562 9.4912 13.8623 9.55175 13.8623 9.55175C13.8623 9.55175 13.5366 9.49472 13.4351 9.06399C13.364 8.77735 13.4885 8.38229 13.4475 8.12239C13.3852 7.73965 13.298 7.66479 13.2891 7.5457C13.2802 7.42661 13.2713 7.39622 13.2713 7.32147C13.2321 7.31256 13.209 7.30012 13.1699 7.30012C13.161 7.26492 13.1787 7.23418 13.1396 7.17188C13.161 7.18079 13.307 7.19863 13.4778 7.36055C13.6186 7.49231 13.6186 7.5403 13.6398 7.56705C13.6665 7.59369 13.8819 7.77825 13.9745 7.96223C14.0671 8.14621 14.2468 8.73288 14.2878 8.82897C14.3002 8.86816 14.3269 8.90735 14.3934 8.99629C14.4966 9.12454 14.6479 9.33656 14.8187 9.37176L14.8182 9.37199Z" fill="#B58634"/>
<path fill-rule="evenodd" clip-rule="evenodd" d="M13.6641 7.57812C13.7719 7.75231 13.8688 7.93304 13.9541 8.11927C14.0591 8.35593 14.1214 8.55 14.2532 8.7084C14.182 8.50201 14.0556 8.09615 13.9809 7.95195C13.8972 7.79942 13.7264 7.63515 13.6641 7.57824V7.57812Z" fill="#A88F33"/>
<path fill-rule="evenodd" clip-rule="evenodd" d="M12.4541 10.5001C12.4541 10.5001 12.2743 10.5446 11.9397 10.7208C11.8293 10.7777 11.7244 10.8257 11.6229 10.8703C11.3592 10.9895 11.0765 11.0997 10.8521 11.1605C10.8699 11.1818 10.8787 11.1906 10.8787 11.1906C10.8787 11.1906 10.8787 11.2779 10.9269 11.3277C10.9002 11.3544 10.5441 11.5965 10.6492 12.4063C10.7203 12.3797 10.804 12.344 10.8164 12.344C10.8379 12.3476 10.8432 12.4063 10.8698 12.4063C10.8965 12.4063 10.9838 12.3711 11.0763 12.2514C11.0728 12.2995 11.0194 12.7837 11.306 13.1094C11.3593 13.0471 11.4946 12.8406 11.4946 12.8406L11.4981 12.7747C11.4981 12.7747 11.5106 12.5451 11.5854 12.3351C11.6603 12.1251 11.8061 11.9702 11.8061 11.9702L12.5678 10.8826L12.4538 10.5L12.4541 10.5001Z" fill="#E6C367"/>
<path fill-rule="evenodd" clip-rule="evenodd" d="M11.7416 12.0979C11.7068 12.1226 11.6684 12.1418 11.6277 12.1548C11.6153 12.1104 11.5974 11.9573 11.7025 11.8078C11.8253 11.6279 12.094 11.3948 12.1687 11.2094C12.2168 11.09 12.1955 10.7911 12.6227 10.4083C13.0499 10.0256 13.2171 9.89395 13.2171 9.89395L13.9077 9.54688L14.7568 9.88151L14.3349 11.5347L14.0075 12.3091L12.7051 12.0636L11.7415 12.0979H11.7416Z" fill="#DCBA5A"/>
<path fill-rule="evenodd" clip-rule="evenodd" d="M12.2383 11.6474L12.4003 11.4445V11.3003C12.4003 11.3003 12.5801 11.2522 12.774 11.0546C12.968 10.857 13.2368 10.4779 13.4736 10.501C13.7103 10.5278 13.7335 11.0154 13.7424 11.1526C13.7513 11.2897 13.7816 11.601 13.8296 11.7684C13.8829 11.9358 13.2529 12.5694 13.2529 12.5694L12.8249 12.8951L12.2383 11.6474Z" fill="#E9CE77"/>
<path fill-rule="evenodd" clip-rule="evenodd" d="M12.7402 13.3342C12.7402 13.3342 12.872 13.1277 12.7754 13.0832C12.8323 12.9551 12.9374 12.8198 12.9374 12.8198C12.9374 12.8198 13.0121 12.6348 13.2542 12.4069C13.4962 12.179 13.6458 12.0277 13.685 11.8747C13.7092 11.775 13.7223 11.6729 13.7242 11.5703C13.7504 11.5917 13.7784 11.6107 13.8079 11.6272C13.847 11.6451 14.0321 11.7981 14.0054 12.1061C13.9788 12.4141 13.8646 12.5422 13.8646 12.5422C13.8646 12.5422 13.7543 12.6525 13.6761 12.7095C13.5923 12.7664 13.5622 12.8322 13.4215 12.8376C13.4359 12.8261 13.4522 12.8171 13.4696 12.8109C13.4696 12.8109 13.3236 12.7932 13.2452 12.8643C13.1669 12.9354 13.0002 13.1544 12.9166 13.2204C12.8329 13.2738 12.7406 13.3343 12.7406 13.3343L12.7402 13.3342Z" fill="#CDAE50"/>
<path fill-rule="evenodd" clip-rule="evenodd" d="M18.6585 9.87514C18.4482 9.7985 18.2272 9.75526 18.0035 9.74701C17.6297 9.73457 17.0833 9.75593 16.5475 9.75945C15.9708 9.76297 15.4475 9.56186 14.7214 9.52631C14.6021 9.45508 14.2989 9.14356 13.3525 9.80392C13.4094 9.8004 14.0396 9.65795 14.2585 9.93216C14.4792 10.2045 14.4169 10.6673 14.3867 10.7775C14.3297 11.0232 14.1445 11.381 14.0699 11.632C13.9953 11.8829 14.0129 12.0148 13.9595 12.1908C13.9061 12.3668 13.7887 12.4542 13.858 12.6571C13.9506 12.6002 13.9988 12.6002 14.1535 12.2531C14.3081 11.9061 14.2763 11.6586 14.5327 11.3649C14.7837 11.0695 15.2015 10.6654 15.3603 10.5639C15.5192 10.4624 16.7807 9.80744 18.1015 10.4322C18.42 10.3984 18.6586 9.87502 18.6586 9.87502L18.6585 9.87514Z" fill="#D2A83E"/>
<path fill-rule="evenodd" clip-rule="evenodd" d="M13.8849 9.63739C13.8836 9.62402 13.8806 9.61086 13.8761 9.5982C13.8637 9.57217 13.8475 9.54816 13.828 9.52698C13.828 9.52698 13.5147 9.47008 13.3563 9.48779C13.0786 9.51807 12.8276 9.86162 12.7101 10.0379C12.5927 10.2141 12.4467 10.4863 12.2883 10.627C12.2901 10.6133 12.2869 10.5994 12.2794 10.5878C12.2794 10.5878 12.2883 10.6002 12.2706 10.6181C12.2529 10.6359 12.2528 10.6447 12.2617 10.6533L12.2884 10.6799C12.2972 10.6799 12.5429 10.5695 12.8776 10.2575C13.2336 9.93178 13.5059 9.7647 13.6483 9.70744C13.7243 9.67516 13.8037 9.65166 13.885 9.63739H13.8849Z" fill="#C29637"/>
<path fill-rule="evenodd" clip-rule="evenodd" d="M19.9622 8.29688C19.9622 8.29688 19.9052 8.36798 19.834 8.44636C19.6756 8.61367 19.4691 8.80223 19.2928 8.9963C19.1256 9.18145 18.937 9.32565 18.7251 9.56771C18.5132 9.80977 18.2675 10.0785 18.2053 10.1568C18.1484 10.2352 18.1039 10.3633 18.1039 10.4292C18.0736 10.4078 18.0381 10.3847 18.0381 10.3847C18.0531 10.4126 18.0709 10.4389 18.0915 10.4631C18.1359 10.5254 18.2053 10.6039 18.241 10.6518C18.2847 10.7127 18.3161 10.7816 18.3334 10.8546C18.3548 10.8581 18.4918 10.8849 18.6628 10.6036C18.8337 10.3224 19.0578 10.0145 19.0578 10.0145L19.4138 9.48581L19.6382 9.03737L19.9198 8.53541L19.9626 8.29688H19.9622Z" fill="#AC8132"/>
<path fill-rule="evenodd" clip-rule="evenodd" d="M20.3268 7.92969C20.3268 7.92969 20.1114 8.10569 20.0277 8.21129C19.944 8.31689 19.7461 8.59403 19.7461 8.59403L19.8173 8.58511L20.1787 8.26479L20.3195 8.01382L20.3267 7.93016L20.3268 7.92969Z" fill="#A88F33"/>
<path fill-rule="evenodd" clip-rule="evenodd" d="M20.2607 22.0791C20.2607 22.0791 20.2572 21.9331 20.3391 21.8459C20.4227 21.7586 20.6345 21.6305 20.841 21.1499C21.0475 20.6693 21.0705 20.5608 21.0705 20.5608C21.0705 20.5608 20.7004 20.8776 20.4721 20.9523C20.5255 20.8419 20.5558 20.7636 20.5825 20.7066C20.5523 20.68 20.4242 20.6497 20.4117 20.6355C20.4828 20.5643 20.522 20.3898 20.6662 20.2741C20.8514 20.1333 21.1895 19.8914 21.4523 19.6757C21.7152 19.4601 22.2319 18.9585 22.2978 18.8125C22.337 18.8694 22.3458 18.905 22.3458 18.905C22.3458 18.905 22.0861 19.2432 21.9508 19.4585C21.8314 19.6437 21.8404 19.7487 21.8404 19.7487L22.0861 19.6431C22.0861 19.6431 22.1572 19.9065 21.8351 20.3071C21.9759 20.2537 22.0327 20.2857 22.1127 20.2412C21.9809 20.3249 21.7994 20.4389 21.6286 20.752C21.4613 21.0653 21.2334 21.4302 20.849 21.658C20.4752 21.8982 20.2598 22.078 20.2598 22.078L20.2607 22.0791Z" fill="#A67A2E"/>
<path fill-rule="evenodd" clip-rule="evenodd" d="M19.2958 10.0598C19.2958 10.0598 19.1498 10.364 19.1284 10.6008C19.1249 10.6578 19.1106 10.7023 19.1106 10.7681C19.1071 10.9799 19.123 11.2167 19.0754 11.327C19.0576 11.2825 19.0486 11.2522 19.0308 11.2345C19.0042 11.3093 18.9561 11.5424 18.9169 11.6296C18.8992 11.5727 18.86 11.3751 18.8636 11.1419C18.8673 10.9088 18.8724 10.8642 18.8724 10.8162C18.8636 10.8873 18.8155 10.9835 18.7977 11.0404C18.771 10.9925 18.7408 10.9302 18.7051 10.8785C18.6837 10.9137 18.6571 10.9657 18.634 10.9925C18.6304 10.9711 18.6216 10.9141 18.6162 10.8341C18.6126 10.7415 18.6072 10.6223 18.6126 10.5973C18.6214 10.5493 18.6963 10.3606 18.8547 10.1879C19.0434 9.98139 19.2374 9.58457 19.2943 9.46172C19.3513 9.33888 19.5933 8.82812 19.5933 8.82812H19.7785L19.5097 9.44037C19.5097 9.44037 19.3477 9.77501 19.2641 9.89797C19.1804 10.0209 19.0042 10.3733 18.9258 10.5103C18.9827 10.4356 19.0308 10.3964 19.0878 10.3252C19.143 10.2753 19.296 10.06 19.296 10.06L19.2958 10.0598Z" fill="#8C6228"/>
<path fill-rule="evenodd" clip-rule="evenodd" d="M20.3302 7.91406C20.3 8.00715 20.2522 8.09358 20.1894 8.16868C20.079 8.30044 19.8422 8.47656 19.7267 8.61712C19.6211 8.75417 19.4098 9.12799 19.5058 9.57116C19.541 9.47506 19.6073 9.28463 19.7836 9.06921C19.9598 8.85378 20.1485 8.60645 20.2412 8.41425C20.3336 8.22019 20.3461 8.06718 20.3461 8.06718L20.3813 8.02271L20.3599 7.92122L20.3296 7.91406H20.3302Z" fill="#CBA94C"/>
<path fill-rule="evenodd" clip-rule="evenodd" d="M23.934 19.7169C23.934 19.7169 23.8628 19.523 23.8414 19.3467C23.8201 19.1705 23.8766 19.1355 23.8112 18.9338C23.772 18.811 23.7009 18.8282 23.683 18.811C23.6652 18.7937 23.6528 18.6081 23.6563 18.5066C23.6598 18.4051 23.6528 18.2735 23.6349 18.2164C23.6083 18.1951 23.5905 18.1773 23.5513 18.0456C23.5068 17.9138 23.4854 17.848 23.4641 17.809C23.4427 17.7699 23.3803 17.7342 23.3803 17.695C23.3803 17.6166 23.4515 17.5758 23.4515 17.5542C23.448 17.5097 23.3946 17.5454 23.3803 17.5329C23.3626 17.5115 23.4249 17.3834 23.4018 17.3655C23.3929 17.3567 23.3306 17.4315 23.3145 17.4101C23.2967 17.3887 23.2753 17.1769 23.2433 17.0363C23.2131 16.8993 23.181 16.7996 23.1774 16.7587C23.1739 16.7195 22.9317 16.0289 22.8731 15.8616C22.8258 15.7202 22.786 15.5764 22.7539 15.4308C22.736 15.3472 22.7236 15.1762 22.7147 15.1941C22.7058 15.2119 22.7112 15.2991 22.6968 15.2956C22.6844 15.2919 22.6399 14.9877 22.6257 14.9396C22.6133 14.8915 22.5384 14.7284 22.5201 14.6103C22.5023 14.491 22.4632 14.1795 22.4365 13.9677C22.4097 13.7559 22.3973 13.6687 22.3973 13.6157C22.4017 13.486 22.3945 13.3561 22.3759 13.2277C22.3407 13.0033 22.2703 12.731 22.2086 12.5727C22.0894 12.2736 21.7725 11.5083 21.7158 11.3178C21.7158 11.2697 21.7781 11.2965 21.7781 11.2965C21.7781 11.2965 21.9329 11.6845 22.0468 11.9835C22.1572 12.2825 22.2622 12.546 22.289 12.5727C22.3103 12.5993 22.4777 12.893 22.5524 13.3736C22.6271 13.8542 22.6538 14.2974 22.6984 14.5928C22.7197 14.7336 22.7376 14.883 22.782 15.0325C22.83 15.1945 22.9048 15.3618 23.0027 15.6181C23.0864 15.8335 23.1487 16.0133 23.1825 16.1682C23.2217 16.3657 23.2217 16.5152 23.2448 16.6132C23.2663 16.6969 23.2982 16.8641 23.373 17.106C23.4479 17.3479 23.5581 17.6596 23.6328 17.8535C23.7789 18.2416 23.844 18.5655 23.8661 18.7382C23.8855 18.9162 23.9515 19.5321 23.9337 19.7171L23.934 19.7169Z" fill="#A88F33"/>
<path fill-rule="evenodd" clip-rule="evenodd" d="M20.3386 7.8926L20.3297 7.91395C20.3297 7.91395 20.3563 7.92287 20.3511 7.95854C20.3514 8.00734 20.3484 8.05611 20.3421 8.1045C20.3333 8.16681 20.3155 8.2148 20.312 8.25399C20.312 8.33765 20.3244 8.43374 20.2064 8.67228C20.1712 8.7381 20.1495 8.79501 20.1316 8.8342C20.0872 8.9303 20.0783 8.94461 20.0391 8.98908C20.1014 8.95388 20.3257 8.81308 20.4395 8.8342C20.3613 8.87867 20.2419 8.96597 20.1672 9.0799C20.185 9.08342 20.2598 9.09773 20.3784 9.0799C20.576 9.04962 20.7967 8.9784 20.9906 8.9926C21.2025 9.00504 21.1189 8.7381 21.1189 8.7381L20.8744 8.2006L20.4116 7.875L20.3386 7.89272V7.8926Z" fill="#BE9C44"/>
<path fill-rule="evenodd" clip-rule="evenodd" d="M21.5458 11.9224C21.5458 11.9224 21.3393 11.7159 21.2557 11.0072C21.172 10.2953 21.1898 9.24725 21.1898 9.24725L21.0225 8.83787C21.0225 8.83787 20.9873 8.56554 20.8997 8.46416C20.812 8.36279 20.6399 8.19183 20.5615 8.10818C20.4831 8.02452 20.3942 7.91059 20.3408 7.89275C20.3675 7.84828 20.4868 7.59731 20.9441 7.59379C21.4015 7.59027 21.5425 7.84476 21.5903 7.93734C21.6381 8.02991 21.8537 8.43014 21.9337 9.1928C22.0085 9.95453 22.0121 10.0116 21.9997 10.275C21.9908 10.4209 21.9427 10.7591 21.8589 11.1204C21.7824 11.4266 21.6987 11.7684 21.5456 11.9232L21.5458 11.9224Z" fill="#A17C34"/>
<path fill-rule="evenodd" clip-rule="evenodd" d="M20.8982 12.5322C20.967 12.5372 21.0358 12.5217 21.0958 12.4876C21.1616 12.4841 21.4002 12.5144 21.5834 12.2812C21.5959 12.3345 21.628 12.4788 21.5443 12.607C21.5888 12.5624 21.6547 12.5447 21.6636 12.5322C21.6671 12.5981 21.7294 12.8009 21.466 13.294C21.5371 13.2157 21.6208 13.2192 21.6955 13.2103C21.6991 13.3029 21.7489 13.6143 21.6172 13.7817C21.5301 13.8956 21.3876 13.86 21.3876 13.86C21.3897 13.8351 21.3897 13.8101 21.3876 13.7852C21.3841 13.7371 21.3663 13.6891 21.3788 13.6571C21.31 13.6257 21.2473 13.5822 21.1937 13.5289C21.0388 13.3829 20.8377 13.1338 20.8235 12.9486C20.8056 12.7421 20.9908 12.6977 20.9908 12.6977C20.9753 12.6838 20.9621 12.6676 20.9516 12.6496C20.9427 12.6194 20.9338 12.5713 20.8982 12.5322Z" fill="#8C6228"/>
<path fill-rule="evenodd" clip-rule="evenodd" d="M19.5257 10.2827C19.5257 10.2827 19.5167 10.2703 19.4688 10.3272C19.4777 10.2703 19.4866 10.2168 19.4901 10.1651C19.5128 10.1173 19.5422 10.073 19.5774 10.0335C19.5506 10.0868 19.5328 10.1349 19.5328 10.1349C19.5328 10.1349 19.5988 10.012 19.6949 9.93728C19.7607 9.88389 19.8443 9.85902 19.8799 9.80915C19.9191 9.75576 19.9102 9.74684 19.9191 9.73793C19.9191 9.73793 20.0064 9.68102 20.1399 9.51359C20.1576 9.49223 20.1844 9.46912 20.2022 9.44776C20.2324 9.43533 20.3036 9.40329 20.3872 9.36047C20.4745 9.31248 20.5724 9.24665 20.6329 9.21967C20.7521 9.16628 20.8786 9.17168 20.9373 9.0879C20.9818 9.07546 21.0298 8.94194 21.021 8.82812C21.0868 8.85476 21.4249 9.06479 21.5407 9.52403C21.6244 9.84975 21.4748 10.3517 21.4125 10.5939C21.3502 10.8361 21.3414 11.0157 21.2541 11.126C21.1437 11.2721 20.7878 11.478 20.7005 11.5799C20.6258 11.6636 20.4015 11.8754 20.4104 12.0284C20.4193 12.1423 20.5598 12.2044 20.5902 12.226C20.6206 12.2476 20.6204 12.2741 20.6774 12.2612C20.7344 12.2483 20.7557 12.222 20.7789 12.222C20.8055 12.2255 20.8055 12.2309 20.818 12.2309C20.827 12.2306 20.836 12.2294 20.8447 12.2273C20.8447 12.2273 20.8358 12.3893 20.4567 12.4385C20.4299 12.4421 20.4033 12.4509 20.3694 12.4563C20.414 12.435 20.4406 12.435 20.4887 12.3691C20.4353 12.3602 20.2822 12.3513 20.243 12.3389C20.2555 12.3175 20.2964 12.2605 20.3302 12.2338C20.3605 12.2072 20.3267 12.1986 20.3001 12.2125C20.2542 12.2437 20.2102 12.2775 20.1683 12.3139C20.1238 12.3531 20.0846 12.4064 20.0134 12.4547C19.9921 12.3834 19.9956 12.2482 20.0794 12.1503C20.0579 12.1538 20.0169 12.2161 19.9779 12.2037C19.9708 12.1388 19.975 12.0731 19.9903 12.0096C20.0117 11.9295 20.1273 11.7889 20.1273 11.7889L20.6862 10.7903L20.8054 10.0338L19.5257 10.2825V10.2827Z" fill="#92723A"/>
<path fill-rule="evenodd" clip-rule="evenodd" d="M19.4944 10.3278C19.4944 10.3278 19.4641 10.3491 19.5247 10.3901C19.5158 10.4025 19.4944 10.447 19.4676 10.4772C19.4375 10.5124 19.4053 10.5343 19.3929 10.5645C19.3663 10.6268 19.3449 10.6696 19.3449 10.6963C19.3449 10.7231 19.336 10.8939 19.2613 11.0042C19.2345 11.0434 19.2042 11.1092 19.1829 11.1537C19.1384 11.2319 19.0992 11.2945 19.0903 11.3297C19.0726 11.392 19.0601 11.5628 19.0601 11.5628C19.0601 11.5628 19.0993 11.5147 19.1135 11.497C19.0921 11.5415 19.0689 11.5894 19.0352 11.6251C19.0565 11.6073 19.1188 11.5628 19.2238 11.4702C19.3698 11.3475 19.5977 11.141 19.8754 10.9774C19.7916 11.0077 19.7205 11.0077 19.6636 11.0166C19.7081 10.9722 20.1085 10.5022 20.3185 10.4578C20.3313 10.4416 20.3376 10.4213 20.3364 10.4007L20.1565 10.383L19.7916 10.4613L19.7383 10.1797L19.4944 10.3274V10.3278Z" fill="#B18E3E"/>
<path fill-rule="evenodd" clip-rule="evenodd" d="M20.0752 11.9298C20.0752 11.9298 20.0271 11.9778 19.9826 12.0971C19.9484 12.0614 19.9191 12.0213 19.8953 11.9778C19.8295 11.8675 19.7281 11.7268 19.4914 11.807C19.4878 11.7322 19.4824 11.693 19.4914 11.6396C19.5306 11.6308 19.6498 11.5347 19.769 11.3941C19.8528 11.298 19.931 11.1876 19.9844 11.047C20.0196 11.0202 20.0805 10.9758 20.1604 10.9241C20.2743 10.8459 20.4114 10.739 20.4327 10.6198C20.3793 10.6411 20.2654 10.6945 20.0945 10.6857C20.1604 10.6555 20.2618 10.6234 20.2493 10.4917C20.2761 10.4738 20.2974 10.4614 20.2974 10.4614C20.2774 10.4547 20.2563 10.4517 20.2351 10.4525C20.2315 10.44 20.2262 10.4223 20.196 10.4311C20.1657 10.4399 20.1608 10.44 20.1568 10.4525C20.1443 10.4561 20.1034 10.4525 20.0731 10.4739C20.0428 10.4954 19.9592 10.5664 19.9271 10.5788C19.9396 10.5575 19.9573 10.5256 19.9573 10.5256C19.9573 10.5256 19.8701 10.5344 19.8078 10.5608C19.6939 10.6 19.5622 10.6712 19.4287 10.7405C19.4411 10.7192 19.4465 10.7053 19.4553 10.7013C19.4641 10.6973 19.4856 10.6925 19.4856 10.6889C19.4856 10.6853 19.4768 10.6537 19.4821 10.6409C19.522 10.5563 19.5691 10.4754 19.6229 10.3988C19.6852 10.3151 19.6976 10.1959 19.6976 10.1959L19.97 10.0588L20.7353 9.88281L21.232 9.91308L21.1697 10.2566L20.8764 10.8564L20.6254 11.4029L20.3387 11.7376L20.0753 11.9298H20.0752Z" fill="#543E26"/>
<path fill-rule="evenodd" clip-rule="evenodd" d="M21.3166 10.4446C21.3166 10.4446 21.0175 10.8148 20.9339 10.8719C20.9872 10.7579 21.3166 10.0797 21.4358 9.89106C21.4092 9.86971 21.3735 9.86971 21.4572 9.53906C21.3861 9.70626 21.3611 9.79356 21.3024 9.83803C21.2437 9.8825 21.2365 9.8683 21.1968 9.8683C21.2043 9.85475 21.2074 9.83921 21.2056 9.82383C21.2056 9.82383 20.9546 9.79356 20.7832 9.79356C20.6118 9.79356 20.2724 9.88613 20.0837 9.96088C19.9342 10.0232 19.8505 10.0232 19.7971 10.0623C19.7437 10.1067 19.7135 10.1548 19.6867 10.1673C19.6654 10.1797 19.564 10.2117 19.5408 10.2455C19.5194 10.2807 19.4838 10.3203 19.4838 10.3292C19.4838 10.3381 19.4749 10.3507 19.5017 10.3416C19.5105 10.3381 19.5764 10.3024 19.6512 10.258C19.7525 10.2011 19.8754 10.1352 19.9644 10.096C20.2189 9.99455 20.2991 10.0124 20.4129 9.99103C20.5321 9.96968 20.7031 9.91981 20.8169 9.91981C20.9308 9.91629 21.1462 9.91981 21.1961 9.92873C21.1747 9.94656 21.1569 9.96792 21.1658 10.0427C21.1658 10.064 21.148 10.0871 21.1306 10.1388C21.0774 10.2847 20.9759 10.5268 20.9194 10.6496C20.8412 10.8168 20.7522 10.9575 20.7082 11.0447C20.6642 11.1319 20.5674 11.3615 20.4716 11.4843C20.3757 11.6072 20.3256 11.6819 20.2956 11.7087C20.2655 11.7354 20.0499 11.8937 20.0659 11.9507C20.1051 11.9383 20.3526 11.8451 20.5322 11.6428C20.7119 11.4406 20.7476 11.3171 20.8882 11.2067C21.0288 11.0963 21.1392 10.9113 21.205 10.7583C21.2602 10.6158 21.2477 10.5714 21.3171 10.445L21.3166 10.4446Z" fill="#806031"/>
<path fill-rule="evenodd" clip-rule="evenodd" d="M14.8703 13.2118C14.8703 13.2118 14.8311 13.3738 14.742 13.4539C14.6549 13.5323 14.5 13.5999 14.4823 13.7316C14.4609 13.8633 14.6371 13.9292 14.6371 13.9292C14.6371 13.9292 14.5409 14.0876 14.5409 14.2068C14.5409 14.3297 14.5374 14.3528 14.5498 14.4702C14.5357 14.4793 14.5237 14.4913 14.5146 14.5054C14.5146 14.5054 14.5234 14.6194 14.6107 14.6905C14.698 14.7616 14.7727 14.8044 14.8171 14.7866C14.8239 14.8011 14.8299 14.816 14.835 14.8312C14.835 14.8312 14.9009 14.6638 14.9454 14.5179C14.9898 14.3684 15.029 14.3896 15.0468 14.1885C15.0645 13.9874 15.258 13.6421 15.258 13.6421L15.39 13.347L15.1746 13.1797L14.8703 13.2117V13.2118Z" fill="#B6903C"/>
<path fill-rule="evenodd" clip-rule="evenodd" d="M15.2718 13.5C15.2274 13.5456 15.1864 13.5944 15.1492 13.646C15.0923 13.7243 15.0478 13.7954 14.9642 13.8258C14.8805 13.8562 14.8271 13.856 14.8324 13.9398C14.8377 14.0235 14.916 14.059 14.9605 14.1017C15.0086 14.1462 15.0478 14.2209 15.0265 14.3047C15.0531 14.2922 15.1012 14.2779 15.1457 14.1818C15.1901 14.0857 15.5012 13.5001 15.5012 13.5001H15.2718V13.5Z" fill="#685026"/>
<path fill-rule="evenodd" clip-rule="evenodd" d="M16.4979 12.1478C16.4979 12.1478 16.5245 12.0767 16.4979 12.0251C16.4712 11.9717 16.3092 11.9539 16.2291 11.8933C16.1454 11.831 16.0439 11.7877 15.9603 11.8151C15.9727 11.7848 16.0226 11.7189 15.9816 11.7047C15.9424 11.6922 15.7966 11.7581 15.7574 11.7883C15.7182 11.8186 15.6292 11.8542 15.6114 11.8756C15.5937 11.8971 15.5633 11.9379 15.5455 11.9201C15.5277 11.9077 15.5189 11.8756 15.4886 11.8933C15.4583 11.9111 15.3126 12.0304 15.2857 12.0998C15.2589 12.1693 15.1984 12.3242 15.0169 12.5003C14.8354 12.6764 14.757 12.7905 14.8104 12.8563C14.8638 12.9221 14.8888 12.8741 14.8977 12.931C14.9046 12.9869 14.9016 13.0435 14.8888 13.0984C14.8674 13.1909 14.8319 13.2781 14.8799 13.2959C15.0027 13.3351 15.1221 13.2607 15.1487 13.2835C15.2021 13.3315 15.1184 13.5042 15.2448 13.538C15.373 13.5732 15.4994 13.5077 15.4994 13.5077L15.9657 13.2568L16.4142 13.0201L16.6437 12.5661L16.5207 12.187L16.4972 12.1478H16.4979Z" fill="#D4B968"/>
<path fill-rule="evenodd" clip-rule="evenodd" d="M16.0574 13.229C16.0574 13.229 15.9791 13.1098 16.0753 13.0046C16.1715 12.8995 16.3084 12.8552 16.3618 12.7893C16.3516 12.7768 16.338 12.7675 16.3226 12.7627C16.3581 12.6993 16.4121 12.6483 16.4775 12.6166C16.4509 12.59 16.4152 12.5686 16.3761 12.5686C16.2888 12.5686 16.2353 12.622 16.1553 12.622C16.077 12.622 16.0681 12.5828 16.0681 12.5828C16.0681 12.5828 16.1999 12.5704 16.1873 12.5116C16.1749 12.4493 16.1521 12.4493 16.1521 12.4493C16.1521 12.4493 16.4066 12.3437 16.4511 12.2874C16.4956 12.2311 16.4903 12.1645 16.4992 12.1379C16.5294 12.1379 16.7056 12.0453 16.7768 12.0845C16.848 12.1237 16.7982 12.2305 16.7982 12.2305C16.7982 12.2305 17.0137 12.0684 17.1235 11.9096C17.2196 11.9185 17.2643 11.8438 17.3347 11.8438C17.422 11.8438 17.5591 11.963 17.5857 12.2175C17.6035 12.3634 17.6302 12.4471 17.6035 12.7052C17.5911 12.8512 17.5946 13.1628 17.6387 13.3175C17.6689 13.4403 17.7401 13.4279 17.7401 13.4279C17.7292 13.4653 17.7075 13.4987 17.6778 13.524C17.6297 13.5684 17.6244 13.686 17.6297 13.7305C17.6368 13.763 17.6457 13.7951 17.6565 13.8266C17.6565 13.8266 17.5996 13.8924 17.5852 13.937C17.5728 13.9814 17.5141 14.0117 17.4713 14.0117C17.4285 14.0117 17.45 14.0081 17.393 14.0117C17.3361 14.0154 17.3183 14.0242 17.2826 14.0117C17.247 13.9993 17.2203 13.985 17.2346 13.8709C17.2471 13.757 16.795 13.4918 16.795 13.4918L16.0558 13.2284L16.0574 13.229Z" fill="#CCA849"/>
<path fill-rule="evenodd" clip-rule="evenodd" d="M15.2096 14.3617C15.2096 14.3617 15.3715 14.5772 16.0372 14.5772C16.354 14.5772 16.4645 14.5469 16.53 14.529C16.6013 14.5112 16.8682 14.4063 17.137 14.0894C17.3791 13.8029 17.3257 13.6854 17.3257 13.6854L17.1849 13.6641L16.7273 13.7264L15.3733 14.3031L15.209 14.3617H15.2096Z" fill="#585136"/>
<path fill-rule="evenodd" clip-rule="evenodd" d="M15.7066 14.4075C15.7066 14.4075 15.1299 14.5357 15.1299 14.1708C15.1299 13.8148 15.4859 13.441 15.5749 13.3752C15.6675 13.3092 15.8882 13.2344 15.8882 13.2344H16.4204L16.5218 13.5032L16.4773 14.0834L15.7066 14.4074V14.4075Z" fill="#252211"/>
<path fill-rule="evenodd" clip-rule="evenodd" d="M16.2384 13.3409C16.2384 13.3409 16.1281 13.2394 15.8771 13.3761C15.6261 13.5128 15.4231 13.7985 15.4107 14.058C15.3983 14.2875 15.5994 14.4584 15.9127 14.4673C16.1458 14.4761 16.2865 14.4495 16.3577 14.4321C16.3399 14.4108 16.2473 14.2951 16.2473 14.2951L16.2385 13.341L16.2384 13.3409Z" fill="#C3B378"/>
<path fill-rule="evenodd" clip-rule="evenodd" d="M16.1295 13.4038C16.1295 13.4038 16.1029 13.3824 16.0239 13.4251C15.9581 13.4603 15.862 13.5534 15.7873 13.6192C15.7392 13.6584 15.7089 13.6761 15.6817 13.7064C15.5713 13.8381 15.4787 14.0536 15.5322 14.1603C15.5857 14.2671 15.7618 14.39 16.2104 14.3063L16.1283 13.4039L16.1295 13.4038Z" fill="#E6D89C"/>
<path fill-rule="evenodd" clip-rule="evenodd" d="M15.9831 13.6237C15.9831 13.6237 15.9119 13.7341 15.9119 13.9103C15.9119 14.0901 16.0134 14.3766 16.3872 14.398C16.6738 14.4158 16.8659 13.9851 17.0742 13.8177C17.2326 13.6896 17.3287 13.686 17.3287 13.686C17.3287 13.686 17.1668 13.51 16.7343 13.282C16.3071 13.0524 15.8283 13.0221 15.5684 13.3746C15.6912 13.3657 16.0881 13.2642 16.0881 13.2642L16.2822 13.3265L15.9831 13.6238V13.6237Z" fill="#252211"/>
<path fill-rule="evenodd" clip-rule="evenodd" d="M16.5423 13.852C16.5299 13.8254 16.521 13.7897 16.5726 13.7809C16.6242 13.7721 16.6474 13.7773 16.6652 13.8161C16.683 13.855 16.7004 13.8873 16.674 13.9034C16.6474 13.9176 16.5779 13.9034 16.5422 13.8518L16.5423 13.852ZM16.4587 13.601C16.4587 13.601 16.4408 13.6135 16.4498 13.5886C16.4533 13.5584 16.4765 13.5049 16.5334 13.5175C16.5903 13.5301 16.578 13.5922 16.5686 13.6101C16.5592 13.6279 16.5117 13.6581 16.476 13.6453C16.4715 13.6441 16.4673 13.6419 16.4638 13.6388C16.4603 13.6358 16.4576 13.6319 16.4558 13.6276C16.4541 13.6232 16.4534 13.6186 16.4538 13.6139C16.4542 13.6093 16.4557 13.6048 16.4582 13.6008L16.4587 13.601Z" fill="#6F674D"/>
<path fill-rule="evenodd" clip-rule="evenodd" d="M11.6406 13.7156C11.6406 13.7156 11.7814 13.8212 11.945 13.8171C12.1069 13.8134 12.3152 13.6462 12.4113 13.5393C12.4682 13.477 12.5169 13.4112 12.5697 13.3596C12.6143 13.3151 12.6444 13.2937 12.6658 13.2635C12.696 13.2283 12.7281 13.1621 12.7441 13.1406C12.705 13.1709 12.648 13.2244 12.5893 13.26C12.5324 13.2952 12.4095 13.3613 12.3596 13.3792C12.3117 13.397 11.8132 13.6608 11.8132 13.6608L11.6406 13.7156Z" fill="#AC924C"/>
<path fill-rule="evenodd" clip-rule="evenodd" d="M11.8555 12.3996C11.8555 12.3996 11.9337 12.3462 12.0851 12.3123C12.2311 12.2771 12.5247 12.25 12.5247 12.25L12.7668 12.3556L12.8629 12.7205L12.6869 13.0997L12.4627 13.2405L12.2081 12.8312L11.8561 12.4003L11.8555 12.3996Z" fill="#9F8E57"/>
<path fill-rule="evenodd" clip-rule="evenodd" d="M11.5389 12.7333L11.4551 12.7959C11.4551 12.7959 11.4765 12.7567 11.4943 12.6375C11.512 12.5182 11.6047 12.2281 11.74 12.0608C11.8752 11.8934 11.8717 11.9024 11.8717 11.9024C11.8593 11.9001 11.8465 11.9005 11.8342 11.9035C11.8219 11.9066 11.8104 11.9122 11.8005 11.9201C11.8183 11.8807 11.9323 11.7399 12.0462 11.6695C12.1601 11.5991 12.2046 11.5769 12.3238 11.6343C12.443 11.6916 12.4733 11.7214 12.5606 11.7179C12.6479 11.7144 12.7225 11.6218 12.7225 11.6218C12.7225 11.6218 12.7403 11.6787 12.6745 11.8105C12.6087 11.9423 12.3488 12.2109 12.3488 12.2109L11.8077 12.5811L11.5389 12.7337V12.7333Z" fill="#EAC970"/>
<path fill-rule="evenodd" clip-rule="evenodd" d="M11.9389 12.3551C11.9389 12.3551 12.3306 12.4085 12.4498 12.2982C12.4533 12.3106 12.4677 12.3106 12.4677 12.3196C12.4667 12.3263 12.4636 12.3325 12.4587 12.3373C12.4717 12.3352 12.4848 12.334 12.4979 12.3338C12.5136 12.3384 12.5297 12.3414 12.546 12.3427C12.5592 12.3424 12.5723 12.3412 12.5852 12.339C12.584 12.3479 12.581 12.3564 12.5764 12.3641C12.5718 12.3717 12.5657 12.3784 12.5585 12.3836C12.5763 12.3836 12.5937 12.3871 12.5937 12.4013C12.5937 12.4155 12.5972 12.4584 12.5758 12.4673C12.5581 12.4722 12.5393 12.4709 12.5224 12.4636C12.5239 12.4973 12.533 12.5303 12.5492 12.5599C12.5844 12.6257 12.6595 12.7007 12.7604 12.6791C12.7604 12.6791 12.8137 12.8072 12.5894 13.092C12.5593 13.1312 12.5271 13.1845 12.4881 13.229C12.4726 13.2627 12.4608 13.2979 12.4529 13.334C12.4529 13.334 12.8321 13.1881 12.9406 12.8552C13.051 12.5206 13.0724 12.1913 13.051 11.8834C13.0474 11.7961 13.0332 11.734 13.0118 11.6894C12.9585 11.579 12.8089 11.5968 12.7484 11.6591C12.6611 11.7464 12.5152 11.9635 12.3123 12.1129C12.1058 12.2624 12.097 12.2889 11.9385 12.3551H11.9389Z" fill="#D7BC6B"/>
<path fill-rule="evenodd" clip-rule="evenodd" d="M11.4697 12.8435C11.4697 12.8435 11.395 12.888 11.3558 13.0547C11.3166 13.2256 11.391 13.4338 11.434 13.4997C11.4771 13.5655 11.5748 13.7454 11.7776 13.7543C11.8278 13.754 11.8774 13.7437 11.9235 13.724C11.9943 13.6916 12.0607 13.6503 12.1211 13.6012C12.2084 13.5353 12.2795 13.4784 12.2706 13.473C12.2493 13.4641 11.7331 13.0369 11.7331 13.0369L11.539 12.8203L11.4696 12.8438L11.4697 12.8435Z" fill="#585136"/>
<path fill-rule="evenodd" clip-rule="evenodd" d="M11.9574 13.5498C11.9574 13.5498 12.0624 13.541 12.1247 13.5018C12.187 13.4626 11.7598 13.0391 11.7598 13.0391L11.79 13.4967L11.9574 13.5498Z" fill="#453A25"/>
<path fill-rule="evenodd" clip-rule="evenodd" d="M11.5034 12.809C11.5034 12.809 11.45 12.9105 11.45 12.9372C11.4411 13.0244 11.4678 13.2985 11.4892 13.3857C11.5105 13.4782 11.6262 13.6188 11.7758 13.6188C11.8683 13.6188 11.9965 13.5619 11.9965 13.5477C11.9965 13.5299 11.8648 13.5125 11.8292 13.4462C11.8079 13.411 11.799 13.3235 11.794 13.235C11.7905 13.1781 11.7905 13.1158 11.8119 13.0942C11.86 13.0408 11.8688 12.8877 11.8688 12.8877L12.0396 12.5703H11.8149L11.5461 12.7376L11.5034 12.809Z" fill="#84754B"/>
<path fill-rule="evenodd" clip-rule="evenodd" d="M11.4375 12.9033C11.4375 12.9033 11.6135 12.6701 11.7721 12.6166C11.9308 12.5631 12.0018 12.5953 12.0018 12.5953L11.9092 12.8321L11.7774 12.978L11.7863 13.0528C11.7863 13.0528 11.7649 13.2504 11.8966 13.3874C12.0284 13.5244 12.1262 13.5192 12.1833 13.5192C12.2403 13.5192 12.404 13.4711 12.4876 13.2735C12.5624 13.0884 12.6247 12.8511 12.4752 12.6131C12.3291 12.3763 12.0711 12.3672 12.0212 12.3672C11.9714 12.3672 11.5798 12.3868 11.4375 12.9029V12.9033Z" fill="#252211"/>
<path fill-rule="evenodd" clip-rule="evenodd" d="M15.9557 13.7012C15.8899 13.671 15.9522 13.4859 16.0181 13.4289C16.0839 13.3719 16.1675 13.3062 16.3136 13.2971C16.3669 13.2936 16.4185 13.3274 16.4097 13.3631C16.3973 13.4289 16.3047 13.5215 16.221 13.5873C16.1053 13.6781 16.0305 13.735 15.9557 13.7012Z" fill="#F7F7E7"/>
<path fill-rule="evenodd" clip-rule="evenodd" d="M12.3971 12.6877C12.4452 12.6842 12.5075 12.7229 12.52 12.775C12.5324 12.8319 12.4897 12.9459 12.3971 12.9459C12.3224 12.9459 12.2832 12.8533 12.2832 12.8266C12.284 12.8047 12.2902 12.7834 12.301 12.7643C12.3046 12.7589 12.3135 12.6966 12.3971 12.6877Z" fill="#F8F6DE"/>
<path fill-rule="evenodd" clip-rule="evenodd" d="M11.7033 12.7266C11.7033 12.7266 11.5805 12.7835 11.5236 12.9026C11.4829 12.9905 11.4706 13.0889 11.4884 13.1842C11.4973 13.2286 11.5418 13.3389 11.572 13.3781C11.6023 13.4173 11.6433 13.4441 11.6735 13.4404C11.7038 13.4368 11.766 13.3568 11.766 13.3088C11.766 13.2608 11.7696 13.0578 11.8283 12.9474C11.8799 12.8371 11.7037 12.7267 11.7037 12.7267L11.7033 12.7266Z" fill="#D4C38B"/>
<path fill-rule="evenodd" clip-rule="evenodd" d="M11.7204 12.7171C11.699 12.7295 11.6635 12.7473 11.6723 12.7705C11.6812 12.7918 11.7559 12.8057 11.7827 12.8578C11.813 12.9111 11.813 12.9681 11.804 12.9948C11.8273 12.9838 11.8484 12.9687 11.8663 12.9502C11.9055 12.9057 11.9535 12.8453 11.9945 12.8453C12.0212 12.8453 12.0479 12.8578 12.0728 12.8578C12.112 12.8578 12.1511 12.8453 12.1565 12.8044C12.1653 12.751 12.0818 12.7029 12.0337 12.7118C12.0426 12.6766 12.055 12.6246 12.0158 12.5889C11.9766 12.5533 11.8539 12.6157 11.8272 12.6335C11.8004 12.6514 11.7204 12.7172 11.7204 12.7172V12.7171Z" fill="#E2D59D"/>
<path fill-rule="evenodd" clip-rule="evenodd" d="M14.5488 16.4606L14.8122 16.3828L14.887 16.4362C14.887 16.4362 14.9403 16.5501 15.024 16.5643C14.9973 16.6212 14.9278 16.6699 14.9315 16.7103C14.9351 16.7507 14.9706 16.7815 14.9706 16.7815C14.9706 16.7815 14.7339 17.1731 15.2003 17.5676C15.0899 17.6121 14.9493 17.6732 14.8745 17.7084C14.9278 17.7209 15.0417 17.7436 15.0899 17.7868C15.138 17.83 15.138 17.8437 15.1824 17.8705C15.2269 17.8972 15.2535 17.9328 15.2447 17.9487C15.2145 17.9309 15.113 17.8776 15.0953 17.9274C15.0775 17.9771 14.6556 17.9577 14.6556 17.9577L13.9436 18.0947C13.9436 18.0947 13.9703 18.0235 13.8955 17.9577C13.8083 17.8794 13.7016 17.9612 13.5876 17.874C13.4382 17.7601 13.4328 17.6283 13.3848 17.5786C13.4328 17.5483 13.5307 17.5038 13.7639 17.473C13.755 17.4551 13.7247 17.4017 13.7425 17.3537C13.7639 17.2914 13.8528 17.2523 13.8262 17.1777C13.8654 17.1688 13.8831 17.1688 13.9811 17.046C14.0736 16.9231 14.1305 16.8965 14.2018 16.8876C14.273 16.8787 14.3157 16.8876 14.4475 16.7647C14.5399 16.6776 14.5098 16.6028 14.5098 16.6028C14.5098 16.6028 14.5702 16.5832 14.5489 16.4604L14.5488 16.4606Z" fill="#CBAC5A"/>
<path fill-rule="evenodd" clip-rule="evenodd" d="M13.7704 16.5026C13.774 16.4848 13.7883 16.4758 13.8844 16.4848C13.9805 16.4937 14.5892 16.4278 14.7547 16.4189C14.9221 16.4065 15.5112 16.4153 15.7978 16.4758C16.0845 16.5364 16.3745 16.6076 16.5151 16.6432C16.6559 16.6823 16.7002 16.6964 16.6948 16.7143C16.6913 16.7321 16.6596 16.7495 16.6415 16.7445C16.6237 16.741 16.1573 16.5986 16.0133 16.5685C15.8692 16.5385 15.3706 16.4581 15.0981 16.4629C14.8436 16.4666 14.7421 16.4594 14.5268 16.4843C14.3113 16.511 13.9553 16.5466 13.8486 16.5324C13.743 16.52 13.7648 16.52 13.7702 16.5021L13.7704 16.5026Z" fill="#D6BC6F"/>
<path fill-rule="evenodd" clip-rule="evenodd" d="M15.2035 17.8895C15.2035 17.8895 15.5684 18.0871 15.7002 18.3292C15.7963 18.5089 15.6433 18.598 15.6433 18.598C15.6433 18.598 15.8498 18.598 15.8231 18.7119C15.8106 18.783 15.4671 18.9752 15.2374 19.0767C15.0043 19.1782 15.0132 19.1729 14.8993 19.1906C14.7889 19.2085 14.4863 19.1554 14.424 19.244C14.3617 19.3326 14.3888 19.4239 14.4061 19.4381C14.424 19.4505 14.5682 19.4684 14.5682 19.4684C14.5682 19.4684 14.5379 19.552 14.2389 19.5609C13.94 19.5699 13.8651 19.5911 13.8473 19.6232C13.8294 19.6534 13.9042 19.6357 14.0413 19.6584C14.1784 19.6798 14.3706 19.6936 14.3706 19.6936C14.3706 19.6936 14.3083 19.747 14.1464 19.7897C13.9612 19.8377 13.671 19.8823 13.5839 19.9357C13.6283 19.966 13.6943 20.0104 13.7247 20.014C13.6499 20.0318 13.5448 20.071 13.5271 20.0852C13.5537 20.103 13.5894 20.1244 13.5894 20.1244C13.5894 20.1244 13.4398 20.3041 13.3526 20.3487C13.2654 20.3933 12.7635 20.6263 12.5908 20.5819C12.16 20.4679 12.1066 19.9963 12.0016 19.9607C11.8432 19.9073 11.7685 20.014 11.6278 19.9392C11.6901 19.8948 11.724 19.8681 11.7898 19.8378C11.7186 19.8026 11.3502 19.569 11.3502 19.569C11.3117 19.4851 11.2689 19.4031 11.2221 19.3235C11.1508 19.2006 11.0461 19.0368 10.9674 18.8926C10.7966 18.5758 10.7877 18.4299 10.6328 18.2501C10.6596 18.2149 10.752 18.2198 10.752 18.2198L12.0497 18.647L14.3508 18.7137L14.9492 17.8594L15.2036 17.8896L15.2035 17.8895Z" fill="#DFC677"/>
<path fill-rule="evenodd" clip-rule="evenodd" d="M11.7949 19.2015C11.8088 19.217 11.825 19.2302 11.8429 19.2407C11.8875 19.271 11.9533 19.3066 11.9978 19.3599C12.0156 19.3333 12.0601 19.2852 12.1386 19.3599C12.2171 19.4346 12.3146 19.3814 12.3753 19.3991C12.4376 19.4206 12.4411 19.4294 12.4411 19.4294C12.4411 19.4294 12.4763 19.3991 12.555 19.3671C12.6031 19.3492 12.66 19.3368 12.7223 19.3191C12.7792 19.3066 12.8415 19.2888 12.8844 19.2888C12.9236 19.3154 13.0641 19.4648 13.6284 19.2443C14.1606 19.0378 14.2833 19.0147 14.3724 19.0466C14.3813 19.0253 14.3902 18.9843 14.5273 18.9897C14.5273 18.9328 14.4133 18.7387 14.4133 18.7387L13.785 18.5234H13.4413L12.4108 18.7121L11.8397 19.0379L11.7953 19.2022L11.7949 19.2015Z" fill="#C4A859"/>
<path fill-rule="evenodd" clip-rule="evenodd" d="M11.4512 18.8406C11.4512 18.8406 11.4636 18.9367 11.6061 19.0382C11.7469 19.1396 11.7911 19.2002 11.7911 19.2002C11.7911 19.2002 11.8178 19.165 11.8392 19.129C11.8605 19.0899 11.8784 19.0454 11.9139 19.033C11.9852 19.0027 12.1471 19.0596 12.1827 19.0507C12.213 19.0419 12.2041 18.9796 12.2361 18.9796C12.3109 18.9759 12.3589 19.0276 12.3856 19.0276C12.4124 19.0276 12.4781 19.024 12.487 19.0098C12.4959 18.9956 12.4994 18.8478 12.6009 18.7766C12.7113 18.6983 12.8466 18.7321 12.8825 18.7499C12.8825 18.7766 12.886 18.8425 12.9573 18.846C13.0285 18.8496 13.0355 18.8371 13.0981 18.8585C13.1606 18.8798 13.2351 18.855 13.2689 18.9599C13.2992 18.9511 13.3704 18.9421 13.3526 18.8406C13.3878 18.814 13.4185 18.7962 13.4934 18.6912C13.5112 18.6645 13.5413 18.6343 13.5646 18.5951C13.6269 18.5951 13.7016 18.5826 13.8012 18.6698C13.771 18.6912 13.7531 18.705 13.7443 18.7267C13.7704 18.7525 13.7942 18.7805 13.8154 18.8104C13.8422 18.8456 13.86 18.8888 13.8938 18.8977C13.9686 18.919 14.0914 18.8888 14.2285 18.8977C14.3602 18.9066 14.4705 18.9546 14.5186 18.9848C14.5365 18.976 14.5365 18.9724 14.5809 18.9813C14.6254 18.9902 14.6592 18.9938 14.6112 18.9369C14.6378 18.9493 14.6681 18.976 14.6949 18.9493C14.7216 18.9225 14.7428 18.8835 14.8176 18.8746C14.8923 18.8656 14.9191 18.8781 14.9493 18.7998C14.9885 18.7037 14.8533 18.7037 14.8533 18.7037C14.8533 18.7037 14.9156 18.6467 14.985 18.572C15.0687 18.4937 15.1648 18.3922 15.1879 18.2676C15.2271 18.038 15.0029 18.0078 15.0029 18.0078L13.9153 18.3424L12.5857 18.2765L11.4519 18.8408L11.4512 18.8406Z" fill="#927D49"/>
<path fill-rule="evenodd" clip-rule="evenodd" d="M10.4742 15.6939C10.4742 15.6939 10.439 15.7384 10.4173 15.8434C10.3956 15.9484 10.4048 15.936 10.387 16.0107C10.3692 16.0855 10.1501 16.8295 10.2322 17.0805C10.3144 17.3315 10.4566 17.424 10.5455 17.6269C10.5633 17.6714 10.5807 17.6981 10.59 17.7373C10.6202 17.869 10.5936 17.9704 10.6292 18.1022C10.6416 18.1467 10.6737 18.1983 10.7217 18.2517C10.8273 18.362 10.9995 18.467 11.0737 18.5417C11.1786 18.6522 11.3282 18.8765 11.5187 18.8977C11.6202 18.9102 11.7644 18.8675 11.8836 18.7964C11.9892 18.7304 12.0544 18.638 12.1652 18.5852C12.2434 18.546 12.3271 18.5318 12.4018 18.5139C12.5567 18.4837 12.6974 18.4787 12.7811 18.4961C12.9092 18.5229 13.2118 18.6154 13.3795 18.6154C13.5105 18.6133 13.6408 18.5954 13.7675 18.562C14.022 18.4873 14.3299 18.3591 14.5328 18.3022C14.6521 18.267 14.7481 18.2577 14.8461 18.2363C15.0134 18.1971 15.154 18.1438 15.2341 18.0423C15.1808 17.98 15.1149 17.8839 14.7588 17.8874C14.3548 17.8963 13.8884 18.1205 13.6588 18.1562C13.4292 18.1919 13.3296 18.222 13.0732 18.1294C12.8219 18.0359 12.8136 17.9741 12.8136 17.9741C12.8136 17.9741 12.5497 17.7895 12.4393 17.319C12.3289 16.8485 12.4393 16.5057 12.7259 16.1798C12.8007 16.0962 12.7828 16.0214 12.7828 16.0214C12.7828 16.0214 12.9715 15.7669 12.9199 15.5286C12.863 15.2918 12.498 15.34 12.498 15.34L10.4743 15.6939H10.4742Z" fill="#6E6342"/>
<path fill-rule="evenodd" clip-rule="evenodd" d="M10.7784 16.4844C10.7627 16.5139 10.7554 16.5471 10.7571 16.5805C10.7606 16.6285 10.7749 16.6908 10.919 16.8314C11.0418 16.9542 11.0151 17.0912 11.0151 17.0912C11.0151 17.0912 11.0769 17.1037 11.2447 17.0252C11.3765 16.9629 11.4207 17.0733 11.4207 17.0733C11.4591 17.0532 11.5006 17.0399 11.5436 17.0341C11.5825 17.0305 11.6201 17.0185 11.6539 16.9989C11.6539 16.9989 11.8087 17.1573 11.944 17.232C12.0669 17.298 12.1381 17.3424 12.1986 17.298C12.2555 17.2588 12.2555 17.1786 12.2519 17.1431C12.2378 17.1103 12.2199 17.0792 12.1986 17.0505C12.1594 16.9936 12.0971 16.9277 12.093 16.8745C12.0841 16.7518 12.1856 16.6057 12.1641 16.5701C12.1427 16.5346 12.0628 16.5257 11.8652 16.5969C11.6605 16.6645 10.7776 16.4847 10.7776 16.4847L10.7784 16.4844Z" fill="#39331F"/>
<path fill-rule="evenodd" clip-rule="evenodd" d="M11.2453 17.2735C11.2453 17.2735 11.1439 17.1774 11.1794 16.711C11.2225 16.7104 11.2654 16.7145 11.3076 16.7234C11.3076 16.7234 11.3628 17.0848 11.2453 17.2735Z" fill="#292311"/>
<path fill-rule="evenodd" clip-rule="evenodd" d="M10.5228 15.3382C10.5369 15.3278 10.5501 15.316 10.562 15.303C10.5268 15.3689 10.3643 15.6323 10.496 16.047C10.6278 16.4599 10.9588 16.7678 11.3664 16.7821C11.774 16.7965 11.9883 16.597 12.2333 16.298C12.3294 16.1788 12.4398 16.0292 12.5376 15.9278C12.6836 15.7693 12.7975 15.7249 12.7975 15.5718C12.7975 15.2586 12.4771 15.1179 12.0054 14.9773C11.5337 14.8368 11.1083 14.8541 10.8876 14.9503C10.6723 15.0552 10.5797 15.1656 10.5227 15.3384L10.5228 15.3382Z" fill="#252211"/>
<path fill-rule="evenodd" clip-rule="evenodd" d="M12.0375 17.4206L12.0727 17.4027C12.0727 17.4027 12.0815 17.2619 12.1385 17.2657C12.1954 17.2746 12.2221 17.3495 12.2167 17.3761C12.2132 17.4027 12.199 17.4473 12.142 17.4419C12.0673 17.4437 12.0371 17.4206 12.0371 17.4206H12.0375Z" fill="#3F3824"/>
<path fill-rule="evenodd" clip-rule="evenodd" d="M11.8789 16.822C11.8789 16.822 11.9141 16.8096 11.9572 16.8523C11.9924 16.8523 12.1458 16.8344 12.1939 16.8647C12.2421 16.895 12.2562 16.9216 12.2562 16.9216C12.2562 16.9216 12.0765 16.9608 11.9785 16.9216C11.8789 16.8878 11.8789 16.822 11.8789 16.822Z" fill="#2D2815"/>
<path fill-rule="evenodd" clip-rule="evenodd" d="M12.6714 16.8519C12.6714 16.843 12.5753 16.7772 12.4738 16.7557C12.4559 16.7522 12.4523 16.7646 12.4386 16.7646C12.4297 16.7611 12.4261 16.7344 12.4261 16.7344L12.3684 16.7648C12.3684 16.7648 12.3595 16.7772 12.3898 16.8C12.4164 16.8213 12.461 16.8392 12.4734 16.8747C12.4859 16.9103 12.4859 16.9227 12.4913 16.9281C12.4948 16.9316 12.5571 16.9281 12.5874 16.9103C12.6176 16.8924 12.6747 16.8633 12.671 16.8516L12.6714 16.8519Z" fill="#82764F"/>
<path fill-rule="evenodd" clip-rule="evenodd" d="M11.7725 17.2067C11.7725 17.2067 11.7902 17.084 11.9095 17.0786C12.0322 17.0697 12.0555 17.1889 12.0555 17.1889L11.9842 17.2601C11.9842 17.2584 11.9309 17.1836 11.773 17.2067H11.7725Z" fill="#2D2816"/>
<path fill-rule="evenodd" clip-rule="evenodd" d="M12.5468 16.6829C12.5468 16.6829 12.4808 16.7541 12.335 16.7754C12.3225 16.7576 12.2958 16.7221 12.335 16.6652C12.3742 16.6082 12.4186 16.5904 12.4631 16.6081C12.4827 16.6113 12.501 16.62 12.5159 16.6333C12.5307 16.6465 12.5414 16.6637 12.5468 16.6829Z" fill="#574F35"/>
<path fill-rule="evenodd" clip-rule="evenodd" d="M12.8153 16.7658C12.8189 16.748 12.8065 16.7445 12.8153 16.7355C12.8241 16.7266 12.8723 16.7089 12.8813 16.7177C12.8848 16.7213 12.8813 16.7355 12.8813 16.7529C12.8813 16.7703 12.8813 16.7881 12.8723 16.8009C12.8599 16.8187 12.8243 16.8277 12.8065 16.8224C12.7887 16.8171 12.7852 16.7921 12.7852 16.7872C12.794 16.7837 12.8153 16.7747 12.8153 16.7658ZM13.1192 16.5736C13.1192 16.5647 13.1495 16.5469 13.1673 16.5469C13.1939 16.5469 13.1939 16.5682 13.1976 16.5736C13.2064 16.5771 13.2064 16.57 13.2153 16.5861C13.2242 16.6021 13.2368 16.6305 13.2277 16.6484C13.2187 16.6662 13.1833 16.6785 13.1745 16.675C13.162 16.6661 13.1228 16.5861 13.1192 16.5736Z" fill="#82764F"/>
<path fill-rule="evenodd" clip-rule="evenodd" d="M12.5068 16.8126C12.5068 16.8126 12.546 16.8214 12.5994 16.866C12.5816 16.8784 12.5548 16.8926 12.5548 16.8926C12.5548 16.8926 12.5513 16.8517 12.5068 16.8125V16.8126Z" fill="#6E6342"/>
<path fill-rule="evenodd" clip-rule="evenodd" d="M12.4194 16.4215C12.4105 16.4127 12.446 16.3914 12.4674 16.3949C12.4887 16.3984 12.4976 16.4127 12.5208 16.4162C12.5439 16.4198 12.5475 16.4073 12.556 16.3984C12.5644 16.3895 12.5951 16.3949 12.6004 16.3984C12.6037 16.4023 12.6067 16.4065 12.6093 16.4108C12.6097 16.4041 12.6115 16.3974 12.6145 16.3914C12.6176 16.3853 12.6218 16.38 12.6271 16.3756C12.6339 16.3706 12.6418 16.3672 12.6501 16.3657C12.6584 16.3641 12.667 16.3645 12.6752 16.3667C12.6787 16.3792 12.6965 16.4236 12.693 16.4325C12.6895 16.4415 12.6361 16.454 12.6271 16.445C12.636 16.4665 12.6752 16.5109 12.6804 16.5197C12.6857 16.5285 12.6413 16.55 12.6235 16.5465C12.5987 16.5447 12.4455 16.4557 12.4189 16.4219L12.4194 16.4215ZM12.6525 16.1261C12.6492 16.1171 12.6429 16.1096 12.6347 16.1047C12.6222 16.1012 12.5813 16.1047 12.5813 16.1261C12.5813 16.1474 12.6165 16.2669 12.656 16.3291C12.7006 16.3914 12.7308 16.4429 12.7611 16.4572C12.7706 16.4615 12.7813 16.4621 12.7913 16.4588C12.8012 16.4555 12.8094 16.4485 12.8144 16.4393C12.818 16.4304 12.8269 16.3646 12.8234 16.2097C12.8198 16.0548 12.8144 15.9054 12.8055 15.8964C12.7966 15.8875 12.7611 15.8876 12.7486 15.9054C12.7362 15.9231 12.656 16.0994 12.6524 16.1261H12.6525Z" fill="#585136"/>
<path fill-rule="evenodd" clip-rule="evenodd" d="M12.4946 17.0374C12.4946 17.0374 12.4323 16.9982 12.3718 17.025C12.3149 17.0517 12.3184 17.1567 12.3184 17.1567C12.3312 17.1617 12.345 17.1636 12.3587 17.162C12.3724 17.1604 12.3854 17.1556 12.3968 17.1478C12.436 17.1212 12.4857 17.0767 12.4946 17.0375V17.0374Z" fill="#574F35"/>
<path fill-rule="evenodd" clip-rule="evenodd" d="M12.6114 17.1695C12.6079 17.1343 12.5762 17.1343 12.5762 17.1161C12.5784 17.1074 12.5834 17.0997 12.5905 17.0942C12.5976 17.0887 12.6063 17.0858 12.6152 17.0858C12.6331 17.0858 12.6504 17.1072 12.6723 17.121C12.6936 17.1335 12.7257 17.1562 12.7292 17.1833C12.7327 17.2104 12.694 17.2847 12.6509 17.2847C12.6079 17.2847 12.6206 17.2046 12.6117 17.169L12.6114 17.1695ZM12.9549 17.1214C12.9549 17.1214 12.8837 17.1427 12.889 17.1214C12.8943 17.1 12.9105 17.0947 12.9336 17.0947C12.9453 17.0825 12.9611 17.0748 12.978 17.0733C12.9877 17.0728 12.9972 17.076 13.0047 17.0822C13.0047 17.0822 13.0528 17.0608 13.067 17.0733C13.0812 17.0857 13.0706 17.0857 13.0794 17.1C13.0906 17.1159 13.098 17.1342 13.1009 17.1534C13.1009 17.1676 13.0475 17.1979 13.0047 17.1926C12.9549 17.1819 12.9637 17.1303 12.9549 17.1214ZM13.3696 17.0412C13.3696 17.0412 13.3909 17.0537 13.3732 17.068C13.3608 17.0804 13.2985 17.1032 13.245 17.1072C13.1916 17.1072 13.1436 17.116 13.1436 17.0983C13.1436 17.0805 13.1881 17.0449 13.2147 17.036C13.22 17.0293 13.2268 17.0239 13.2345 17.0202C13.2423 17.0165 13.2507 17.0146 13.2593 17.0146C13.2806 17.0146 13.3642 17.0057 13.3874 17.0022C13.4088 16.9985 13.4266 17.011 13.414 17.0288C13.4088 17.0412 13.3696 17.0412 13.3696 17.0412ZM13.4924 16.4916C13.4924 16.4916 13.4657 16.5486 13.4355 16.5486C13.4052 16.545 13.4052 16.5361 13.4052 16.5272C13.4052 16.5148 13.4355 16.4827 13.4319 16.4738C13.4231 16.4738 13.4016 16.4738 13.4052 16.4525C13.4052 16.4346 13.4355 16.4133 13.4622 16.4173C13.4823 16.4007 13.5073 16.3914 13.5334 16.3906C13.5636 16.3906 13.5903 16.3994 13.5903 16.4173C13.5903 16.4351 13.5551 16.4742 13.5422 16.4832C13.528 16.4974 13.5101 16.5067 13.4924 16.492V16.4916ZM13.0866 17.5435C13.0866 17.5435 13.0514 17.5472 13.0514 17.5649C13.0514 17.5738 13.0602 17.5738 13.0727 17.5685C13.08 17.5681 13.0871 17.5669 13.0941 17.5649C13.0976 17.5685 13.0976 17.5863 13.1244 17.5863C13.1463 17.5833 13.1675 17.576 13.1867 17.5649C13.208 17.5561 13.2258 17.5471 13.2258 17.5297C13.2169 17.4994 13.1991 17.4851 13.1725 17.4851C13.1588 17.4842 13.1452 17.4873 13.1333 17.494C13.1333 17.494 13.1244 17.4762 13.0941 17.494C13.0638 17.5119 13.0673 17.5119 13.0762 17.5208C13.0922 17.535 13.0869 17.5442 13.0869 17.5442L13.0866 17.5435ZM12.8855 17.7287C12.8855 17.7198 12.9299 17.7019 12.9424 17.7073C12.9548 17.7109 12.9904 17.7784 12.9904 17.7856C12.9904 17.7945 12.9459 17.8159 12.9281 17.8159C12.9102 17.8159 12.8801 17.7856 12.8801 17.7807C12.8801 17.7772 12.9014 17.7719 12.9014 17.7682C12.9067 17.7594 12.8855 17.738 12.8855 17.729V17.7287ZM12.7447 17.4688C12.7536 17.4653 12.7536 17.4564 12.766 17.4474C12.7699 17.4449 12.7743 17.4432 12.779 17.4426C12.7836 17.442 12.7883 17.4424 12.7928 17.4439C12.7959 17.4383 12.8003 17.4335 12.8055 17.4298C12.8107 17.4261 12.8167 17.4236 12.823 17.4225C12.8444 17.4189 12.8622 17.4225 12.8582 17.4314C12.8582 17.4581 12.8761 17.4758 12.8761 17.4972C12.8761 17.5185 12.8636 17.5453 12.8192 17.5631C12.7747 17.5756 12.7142 17.5756 12.7052 17.5721C12.6963 17.5685 12.6874 17.5329 12.6963 17.515C12.7052 17.4972 12.7301 17.4777 12.7444 17.4688H12.7447Z" fill="#82764F"/>
<path fill-rule="evenodd" clip-rule="evenodd" d="M12.8014 17.4844C12.8014 17.4844 12.7712 17.5022 12.7712 17.5111C12.7685 17.5197 12.7673 17.5287 12.7676 17.5378C12.7676 17.543 12.8068 17.5342 12.8121 17.5288C12.8139 17.5253 12.8014 17.4936 12.8014 17.4844Z" fill="#6E6342"/>
<path fill-rule="evenodd" clip-rule="evenodd" d="M12.5375 17.3999C12.5553 17.4036 12.5855 17.3999 12.6087 17.4088C12.6265 17.4178 12.6389 17.4356 12.6211 17.457C12.6033 17.4783 12.5859 17.5103 12.5463 17.5049C12.5019 17.5014 12.4592 17.4783 12.4592 17.4605C12.4584 17.4492 12.4599 17.4379 12.4636 17.4272C12.4673 17.4165 12.473 17.4066 12.4805 17.3982C12.4984 17.384 12.5072 17.3929 12.5374 17.3999H12.5375Z" fill="#585136"/>
<path fill-rule="evenodd" clip-rule="evenodd" d="M12.5153 17.4219C12.5153 17.4219 12.4583 17.4663 12.444 17.4878C12.4262 17.5092 12.339 17.6195 12.3124 17.6426C12.3212 17.627 12.3313 17.6121 12.3425 17.5981C12.3073 17.6206 12.281 17.6545 12.2678 17.6942C12.2464 17.7601 12.3871 17.7957 12.4796 17.8225C12.572 17.8492 12.6078 17.8577 12.6078 17.8577C12.5738 17.8065 12.5446 17.7523 12.5205 17.6957C12.4853 17.6121 12.4671 17.6032 12.4903 17.564C12.5081 17.5248 12.5349 17.4981 12.5349 17.4679C12.5242 17.4397 12.5153 17.4219 12.5153 17.4219Z" fill="#574F35"/>
<path fill-rule="evenodd" clip-rule="evenodd" d="M10.4866 17.5661C10.4995 17.5684 10.5128 17.5684 10.5258 17.5661C10.5524 17.5624 10.8301 17.4605 11.1203 17.4788C11.3375 17.4919 11.5528 17.5273 11.7628 17.5844C12.1277 17.6805 12.5815 17.8709 12.8752 17.9795C12.9535 18.0097 13.0301 18.0632 13.0864 18.0844C13.3108 18.1717 13.3196 18.1717 13.4513 18.1948C13.6062 18.2162 13.7646 18.1646 13.9302 18.129C14.133 18.0844 14.4801 18.0631 14.7845 18.0186C14.8829 18.005 14.98 17.9829 15.0746 17.9528C15.0746 17.9528 14.8326 18.1948 14.2523 18.282C14.0177 18.3176 13.7793 18.3206 13.5439 18.2909C13.3588 18.2731 13.236 18.2464 13.1435 18.2197C13.0384 18.1894 12.823 18.1093 12.5578 18.0437C12.3727 17.9956 12.1662 17.9601 11.9295 17.9156C11.3457 17.8087 10.7121 17.686 10.4863 17.5668L10.4866 17.5661Z" fill="#252211"/>
<path fill-rule="evenodd" clip-rule="evenodd" d="M9.83202 16.4688C9.69122 16.588 9.54185 16.7019 9.396 16.8122L8.95636 17.15C8.80687 17.2603 8.66091 17.3742 8.51131 17.4846C8.36171 17.595 8.21235 17.6999 8.05371 17.8014C8.19451 17.6822 8.34388 17.5718 8.49336 17.4633C8.64284 17.3547 8.79784 17.2483 8.94204 17.1383L9.38169 16.8C9.53293 16.6897 9.67889 16.5758 9.83202 16.469V16.4688ZM9.05421 17.7147C9.05421 17.7147 9.21261 17.5829 9.4102 17.3979C9.65578 17.1684 9.95662 16.8746 10.0527 16.8213L9.05409 17.7148L9.05421 17.7147Z" fill="#CFB66C"/>
<path fill-rule="evenodd" clip-rule="evenodd" d="M9.05469 17.7096C9.13307 17.6314 9.21672 17.5549 9.30038 17.48L9.42851 17.3697C9.4677 17.3345 9.51229 17.295 9.55136 17.2558C9.62962 17.1775 9.70624 17.0937 9.7845 17.0137C9.82329 16.9735 9.8643 16.9354 9.90735 16.8998C9.92887 16.8808 9.95277 16.8646 9.97845 16.8517C9.99992 16.8393 10.023 16.8165 10.0532 16.8125C10.0355 16.8393 10.0141 16.8517 9.99629 16.8748C9.97493 16.8926 9.9571 16.914 9.93938 16.9317C9.90019 16.9709 9.85572 17.0065 9.81653 17.0421C9.73287 17.1133 9.6457 17.1829 9.56204 17.2574C9.47838 17.3319 9.40012 17.4123 9.31634 17.487C9.22564 17.5637 9.14198 17.6384 9.05469 17.71V17.7096ZM10.1191 16.9977C10.1191 16.9977 9.53892 17.5655 9.41959 17.658L10.1191 16.9977Z" fill="#CFB66C"/>
<path fill-rule="evenodd" clip-rule="evenodd" d="M10.1185 17C10.0663 17.0604 10.0103 17.1175 9.95093 17.1708L9.77493 17.3382C9.71803 17.3951 9.66452 17.4521 9.6041 17.509C9.54179 17.5624 9.48489 17.6146 9.41895 17.6639L9.58978 17.4966C9.64681 17.4396 9.70911 17.3917 9.76965 17.3346L9.94049 17.1673C9.99916 17.1087 10.0562 17.0516 10.1185 17ZM10.1451 17.3079C10.0916 17.4572 10.0286 17.6028 9.95645 17.744C9.80697 18.0431 9.58274 18.4168 9.48477 18.6073L10.1451 17.3079Z" fill="#CFB66C"/>
<path fill-rule="evenodd" clip-rule="evenodd" d="M10.1449 17.3047C10.1449 17.3705 10.1271 17.4275 10.1057 17.4844C10.0849 17.5414 10.0612 17.5972 10.0346 17.6518C10.0079 17.7051 9.9776 17.7622 9.94733 17.8138C9.91706 17.8654 9.88151 17.9187 9.85475 17.9722L9.675 18.289C9.6127 18.3946 9.55215 18.5008 9.48633 18.6023C9.5308 18.4883 9.59134 18.3816 9.64837 18.2766C9.71067 18.171 9.76758 18.0654 9.82437 17.9561C9.85209 17.9017 9.87704 17.8459 9.89911 17.7889C9.92574 17.7319 9.95238 17.6785 9.97385 17.6269C10.0005 17.57 10.0218 17.5165 10.0486 17.465C10.0787 17.4097 10.1037 17.3563 10.1447 17.3047H10.1449Z" fill="#CFB66C"/>
<path fill-rule="evenodd" clip-rule="evenodd" d="M10.7788 18.7656C10.7788 18.7656 10.6028 18.9988 10.6204 19.2942C10.6684 19.1394 10.7289 18.9027 10.7788 18.7656ZM10.9461 18.9994C10.9461 18.9994 10.8838 19.633 10.8322 19.9445C10.9051 19.5844 10.9193 19.6146 10.9461 18.9994ZM12.1119 19.9819C12.1119 19.9819 11.8485 20.7563 11.8431 20.9715C11.9001 20.7502 12.0104 20.2981 12.1119 19.9813V19.9819Z" fill="#DEC270"/>
<path fill-rule="evenodd" clip-rule="evenodd" d="M12.7275 18.7109C12.7275 18.7109 13.1548 19.4158 13.4752 20.0173C13.3885 19.7146 13.189 19.1594 12.7275 18.7109Z" fill="#CBAF59"/>
<path fill-rule="evenodd" clip-rule="evenodd" d="M13.876 19.7578C14.1105 20.1724 14.3221 20.5997 14.5096 21.0376C14.474 20.735 14.3778 20.2171 13.876 19.7578Z" fill="#E3C677"/>
<path fill-rule="evenodd" clip-rule="evenodd" d="M17.25 20.79C17.3211 20.7456 17.4618 20.5034 17.5847 20.443C17.7074 20.3807 17.8 20.3682 17.9104 20.2454C18.0207 20.1171 18.0512 20.0389 18.293 19.9375C18.6313 19.7914 18.3986 19.6028 18.3986 19.6028C18.4359 19.5662 18.4757 19.5323 18.5178 19.5014C18.6051 19.4356 18.7065 19.3554 18.6977 19.2147C18.6853 18.9781 18.6408 18.6345 18.4467 18.4352C18.6354 18.396 18.9967 18.3693 19.2211 18.3124C19.4809 18.2465 19.6002 18.1539 19.6002 18.1539C19.6002 18.1539 19.4507 17.8994 19.6928 17.6432C19.9349 17.3869 20.1324 17.2338 20.2784 16.9471C20.1111 16.9258 19.856 16.8369 19.205 17.0842C19.2402 17.1007 19.2741 17.1197 19.3065 17.1411C19.3065 17.1411 18.9061 17.2515 18.7601 17.3744C18.5055 17.5897 18.4735 17.7659 18.1976 17.8977C17.9218 18.0294 17.644 17.9938 17.4145 18.1005C17.185 18.2073 17.1511 18.2981 17.0673 18.3373C17.0852 18.3587 17.0638 18.3942 17.0976 18.4245C17.0763 18.4548 16.9517 18.6576 16.8253 18.6576C16.8377 18.7057 16.9445 18.7413 16.9445 18.7413C16.9445 18.7413 16.8662 18.7983 16.6669 18.8125C16.7683 18.9181 16.8645 19.0332 17.1296 19.2005C17.1083 19.245 17.0192 19.3109 17.0549 19.3946C17.0941 19.4783 17.1957 19.5922 17.6013 19.6848C17.3948 19.6936 17.1529 19.7417 16.8269 19.6972C16.5012 19.658 16.4478 19.6349 16.2467 19.6848C16.2681 19.7061 16.325 19.7061 16.3748 19.763C16.3215 19.7666 15.9868 19.7238 15.8729 19.8734C15.7537 20.0282 15.7021 20.2828 15.711 20.4537C15.6487 20.4839 15.5881 20.5373 15.6184 20.6477C15.6487 20.7581 15.8071 20.7937 15.9086 20.863C16.0099 20.9378 16.0189 20.9644 16.1151 20.9467C16.2164 20.9253 16.3659 20.824 16.4532 20.824C16.5405 20.824 16.6027 20.8898 16.6027 20.8898C16.6027 20.8898 16.8395 20.7759 16.8626 20.7972C16.8839 20.8186 16.8661 20.9556 16.8892 20.977C16.9127 20.993 17.1794 20.8346 17.2506 20.79H17.25Z" fill="#ECD592"/>
<path fill-rule="evenodd" clip-rule="evenodd" d="M22.4254 13.6628C21.3129 10.79 18.5629 10.2578 18.5629 10.2578H10.7169L10.7472 13.184H12.3097V19.7182H10.7168V22.6391H18.3457C20.1843 22.6391 21.6581 20.7914 21.6581 20.7914C24.0183 17.4417 22.4253 13.6628 22.4253 13.6628H22.4254ZM18.3866 18.8228C18.3866 18.8228 17.7882 19.6861 17.1372 19.6861H15.8348L15.8039 13.1911H17.4753C17.4753 13.1911 18.2497 13.3531 18.7907 14.8856C18.7907 14.8856 19.508 17.0797 18.3866 18.8228Z" fill="white" fill-opacity="0.8"/>
</g>
<defs>
<clipPath id="clip0_48948_109742">
<rect width="22" height="22" fill="white" transform="translate(5.375 5.375)"/>
</clipPath>
</defs>
</svg>
