<svg width="32" height="32" viewBox="0 0 32 32" fill="none" xmlns="http://www.w3.org/2000/svg">
<g clip-path="url(#clip0_48948_109885)">
<path d="M16 5C22.0751 5 27 9.92487 27 16C27 22.0751 22.0751 27 16 27C9.92487 27 5 22.0751 5 16C5 9.92487 9.92487 5 16 5ZM16 6.1C10.5324 6.1 6.1 10.5324 6.1 16C6.1 21.4676 10.5324 25.9 16 25.9C21.4676 25.9 25.9 21.4676 25.9 16C25.9 10.5324 21.4676 6.1 16 6.1Z" fill="#E53935"/>
<path d="M15.716 13.0078H9.66602V14.1078H15.716V13.0078Z" fill="#E53935"/>
<path d="M22.3164 13.0078H16.8164V14.1078H22.3164V13.0078Z" fill="#E53935"/>
<path d="M22.3164 11.0859H16.8164V12.1859H22.3164V11.0859Z" fill="#E53935"/>
<path d="M14.3406 11.0859H10.7656V12.1859H14.3406V11.0859Z" fill="#E53935"/>
<path d="M20.3634 11.1017L18.6133 9.35156L17.8355 10.1294L19.5856 11.8795L20.3634 11.1017Z" fill="#E53935"/>
<path d="M13.0799 13.9896L14.3418 12.1875L13.4407 11.5566L12.1789 13.3587L13.0799 13.9896Z" fill="#E53935"/>
<path d="M9.20029 14.4494L12.5127 9.71875L11.6116 9.08782L8.29922 13.8184L9.20029 14.4494Z" fill="#E53935"/>
<path d="M17.2636 21.2197L18.3096 18.9766L17.3126 18.5117L16.2667 20.7548L17.2636 21.2197Z" fill="#E53935"/>
<path d="M22.1769 22.2166L20.666 18.9766L21.663 18.5117L23.1738 21.7517L22.1769 22.2166Z" fill="#E53935"/>
<path d="M22.3164 16.5859H16.8164V17.6859H22.3164V16.5859Z" fill="#E53935"/>
<path d="M20.1156 21.5391H17.6406V22.6391H20.1156V21.5391Z" fill="#E53935"/>
<path d="M15.4414 17.6875H9.94141V18.7875H15.4414V17.6875Z" fill="#E53935"/>
<path d="M15.1668 15.4922H10.2168V16.3172H15.1668V15.4922Z" fill="#E53935"/>
<path d="M10.766 13.8359H9.66602V18.7859H10.766V13.8359Z" fill="#E53935"/>
<path d="M13.2406 13.8359H12.1406V18.7859H13.2406V13.8359Z" fill="#E53935"/>
<path d="M17.9164 13.8359H16.8164V16.8609H17.9164V13.8359Z" fill="#E53935"/>
<path d="M20.1156 17.1328H19.0156V22.6328H20.1156V17.1328Z" fill="#E53935"/>
<path d="M10.766 19.6172H9.66602V22.0922H10.766V19.6172Z" fill="#E53935"/>
<path d="M12.4164 19.6172H11.3164V22.0922H12.4164V19.6172Z" fill="#E53935"/>
<path d="M14.0668 19.6172H12.9668V22.0922H14.0668V19.6172Z" fill="#E53935"/>
<path d="M15.7172 19.6172H14.6172V20.7172H15.7172V19.6172Z" fill="#E53935"/>
<path d="M22.3168 13.8359H21.2168V16.8609H22.3168V13.8359Z" fill="#E53935"/>
<path d="M15.7172 13.8359H14.6172V18.7859H15.7172V13.8359Z" fill="#E53935"/>
</g>
<defs>
<clipPath id="clip0_48948_109885">
<rect width="22" height="22" fill="white" transform="translate(5 5)"/>
</clipPath>
</defs>
</svg>
