<svg width="24" height="24" viewBox="0 0 24 24" fill="none" xmlns="http://www.w3.org/2000/svg">
<path d="M6 8C6 4.68629 8.68629 2 12 2C15.3137 2 18 4.68629 18 8C18 11.0902 18.7843 13.206 19.5 14.6054C20.0819 15.7338 20.3729 16.298 20.2841 16.4529C20.1953 16.6078 19.6461 16.6078 18.5476 16.6078H5.45237C4.35393 16.6078 3.8047 16.6078 3.71591 16.4529C3.62712 16.298 3.91808 15.7338 4.5 14.6054C5.21567 13.206 6 11.0902 6 8Z" stroke="#F0F4FC" stroke-width="2" stroke-linecap="round" stroke-linejoin="round"/>
<path d="M9.5 16.6078V17.5C9.5 18.8807 10.6193 20 12 20C13.3807 20 14.5 18.8807 14.5 17.5V16.6078" stroke="#F0F4FC" stroke-width="2" stroke-linecap="round" stroke-linejoin="round"/>
</svg>
