<svg width="24" height="24" viewBox="0 0 24 24" fill="none" xmlns="http://www.w3.org/2000/svg">
<path id="Vector" d="M10.8008 9.60039C10.8008 8.93799 11.3372 8.40039 12.0008 8.40039C12.6644 8.40039 13.2008 8.93799 13.2008 9.60039V15.0004C13.2008 15.6628 12.6644 16.2004 12.0008 16.2004C11.3372 16.2004 10.8008 15.6628 10.8008 15.0004V9.60039Z" fill="#F0F4FC"/>
<path id="Vector_2" d="M12 20.4004C12.8284 20.4004 13.5 19.7288 13.5 18.9004C13.5 18.072 12.8284 17.4004 12 17.4004C11.1716 17.4004 10.5 18.072 10.5 18.9004C10.5 19.7288 11.1716 20.4004 12 20.4004Z" fill="#F0F4FC"/>
<path id="Vector_3" d="M16.4702 19.2003H18.2354C20.0834 19.2003 21.2378 17.1999 20.3138 15.6003L14.0786 4.80029C13.1546 3.20069 10.8458 3.20069 9.92182 4.80029L3.68662 15.6003C2.76262 17.1999 3.91702 19.2003 5.76502 19.2003H7.53022" stroke="#F0F4FC" stroke-width="2" stroke-linecap="round" stroke-linejoin="round"/>
</svg>
