<svg width="20" height="20" viewBox="0 0 20 20" fill="none" xmlns="http://www.w3.org/2000/svg">
<path fill-rule="evenodd" clip-rule="evenodd" d="M9.27533 1.87541C9.74575 1.71861 10.2543 1.71861 10.7247 1.87541L15.933 3.61152C16.8688 3.92345 17.5 4.79919 17.5 5.78559V9.92798C17.5 12.2091 16.5137 13.8927 15.1177 15.2174C13.7452 16.5197 11.9503 17.4989 10.2968 18.391C10.1115 18.4909 9.8885 18.4909 9.70325 18.391C8.04963 17.4989 6.25483 16.5197 4.8823 15.2174C3.48626 13.8927 2.5 12.2091 2.5 9.92798V5.78559C2.5 4.79919 3.13119 3.92345 4.06698 3.61152L9.27533 1.87541ZM12.7336 8.3594C12.9777 8.11535 12.9777 7.71961 12.7336 7.47554C12.4895 7.23146 12.0938 7.23146 11.8497 7.47554L9.16667 10.1586L8.15027 9.14223C7.9062 8.89815 7.51047 8.89815 7.26639 9.14223C7.02232 9.38631 7.02232 9.78198 7.26639 10.0261L8.72475 11.4844C8.84192 11.6016 9.00092 11.6675 9.16667 11.6675C9.33242 11.6675 9.49142 11.6016 9.60858 11.4844L12.7336 8.3594Z" fill="#5CA7FF"/>
</svg>
