<svg width="24" height="24" viewBox="0 0 24 24" fill="none" xmlns="http://www.w3.org/2000/svg">
<path id="Vector" d="M5.24059 3.65234L4.52539 8.15714L9.01939 7.37354L5.24059 3.65234Z" fill="#F0F4FC" stroke="#F0F4FC" stroke-width="2" stroke-linecap="round" stroke-linejoin="round"/>
<path id="Vector_2" d="M6.12109 5.99961C7.63669 4.51521 9.71149 3.59961 11.9999 3.59961C16.6391 3.59961 20.3999 7.36041 20.3999 11.9996" stroke="#F0F4FC" stroke-width="2" stroke-linecap="round" stroke-linejoin="round"/>
<path id="Vector_3" d="M18.7593 20.3476L19.4745 15.8428L14.9805 16.6264L18.7593 20.3476Z" fill="#F0F4FC" stroke="#F0F4FC" stroke-width="2" stroke-linecap="round" stroke-linejoin="round"/>
<path id="Vector_4" d="M17.8784 18C16.3628 19.4844 14.288 20.4 11.9996 20.4C7.36041 20.4 3.59961 16.6392 3.59961 12" stroke="#F0F4FC" stroke-width="2" stroke-linecap="round" stroke-linejoin="round"/>
<path id="Vector_5" d="M12.0008 13.1998C12.6635 13.1998 13.2008 12.6625 13.2008 11.9998C13.2008 11.3371 12.6635 10.7998 12.0008 10.7998C11.338 10.7998 10.8008 11.3371 10.8008 11.9998C10.8008 12.6625 11.338 13.1998 12.0008 13.1998Z" fill="#F0F4FC" stroke="#F0F4FC" stroke-width="2" stroke-linecap="round" stroke-linejoin="round"/>
</svg>
