<svg width="32" height="32" viewBox="0 0 32 32" fill="none" xmlns="http://www.w3.org/2000/svg">
<g clip-path="url(#clip0_48948_110021)">
<path d="M16.5 5.5C18.6756 5.5 20.8023 6.14514 22.6113 7.35383C24.4202 8.56253 25.8301 10.2805 26.6627 12.2905C27.4952 14.3005 27.7131 16.5122 27.2886 18.646C26.8642 20.7798 25.8166 22.7398 24.2782 24.2782C22.7398 25.8166 20.7798 26.8642 18.646 27.2886C16.5122 27.7131 14.3005 27.4952 12.2905 26.6627C10.2805 25.8301 8.56253 24.4202 7.35383 22.6113C6.14514 20.8023 5.5 18.6756 5.5 16.5C5.5 13.5826 6.65893 10.7847 8.72183 8.72183C10.7847 6.65893 13.5826 5.5 16.5 5.5Z" fill="#F3B724"/>
<path d="M15.5156 9.8999V11.6416H12.6079V13.7401H17.1196L12.6079 19.7065V21.2861H15.5156V23.0166H17.3024V21.2861H20.2098V19.1876H15.6984L20.2098 13.2212V11.6416H17.3024V9.8999H15.5156Z" fill="white"/>
</g>
<defs>
<clipPath id="clip0_48948_110021">
<rect width="22" height="22" fill="white" transform="translate(5.5 5.5)"/>
</clipPath>
</defs>
</svg>
