<svg width="12" height="12" viewBox="0 0 12 12" fill="none" xmlns="http://www.w3.org/2000/svg">
<path d="M4.67499 5.675L5.5 6.5L7.425 4.57502M4.64711 9.2418L5.67965 10.1074C5.8646 10.2624 6.13395 10.2631 6.31985 10.1091L7.369 9.23995C7.45865 9.16565 7.5715 9.125 7.68795 9.125H9.125C9.6773 9.125 10.125 8.6773 10.125 8.125V2.875C10.125 2.32271 9.6773 1.875 9.125 1.875H2.875C2.32271 1.875 1.875 2.32271 1.875 2.875V8.125C1.875 8.6773 2.32271 9.125 2.875 9.125H4.32591C4.44338 9.125 4.55709 9.16635 4.64711 9.2418Z" stroke="#5CA7FF" stroke-width="1.5" stroke-linecap="round" stroke-linejoin="round"/>
</svg>
