<svg width="32" height="32" viewBox="0 0 32 32" fill="none" xmlns="http://www.w3.org/2000/svg">
<g clip-path="url(#clip0_48948_110017)">
<path d="M16 27C22.0893 27 27 22.0893 27 16C27 9.91071 22.0893 5 16 5C9.91071 5 5 9.91071 5 16C5 22.0893 9.91071 27 16 27Z" fill="#0098EA"/>
<path d="M19.7713 11.1284H12.2285C10.8535 11.1284 9.98917 12.6213 10.657 13.8391L15.2927 21.8927C15.607 22.4034 16.3535 22.4034 16.6677 21.8927L21.3035 13.8391C22.0106 12.6213 21.1463 11.1284 19.7713 11.1284ZM15.332 19.457L14.3106 17.4927L11.8749 13.132C11.7177 12.857 11.9142 12.5034 12.2677 12.5034H15.332V19.457ZM20.1249 13.132L17.6892 17.4927L16.6677 19.457V12.5034H19.732C20.0856 12.5034 20.282 12.857 20.1249 13.132Z" fill="white"/>
</g>
<defs>
<clipPath id="clip0_48948_110017">
<rect width="22" height="22" fill="white" transform="translate(5 5)"/>
</clipPath>
</defs>
</svg>
