<svg width="24" height="24" viewBox="0 0 24 24" fill="none" xmlns="http://www.w3.org/2000/svg">
<g id="gear">
<path id="Vector" d="M20.9372 10.3256L19.4036 9.55884C19.2824 9.19044 19.1312 8.83644 18.9584 8.49444L19.502 6.86364C19.646 6.43284 19.5332 5.95644 19.2128 5.63604L18.3644 4.78764C18.044 4.46604 17.5676 4.35324 17.1368 4.49724L15.5048 5.04084C15.1628 4.86804 14.8088 4.71804 14.4404 4.59564L13.6736 3.06204C13.4696 2.65524 13.0544 2.39844 12.5996 2.39844H11.3996C10.9448 2.39844 10.5296 2.65524 10.3256 3.06204L9.55884 4.59564C9.19044 4.71684 8.83644 4.86804 8.49444 5.04084L6.86244 4.49724C6.43164 4.35324 5.95524 4.46604 5.63484 4.78764L4.78644 5.63604C4.46484 5.95764 4.35324 6.43284 4.49724 6.86364L5.04084 8.49444C4.86804 8.83644 4.71804 9.19044 4.59564 9.55884L3.06204 10.3256C2.65524 10.5284 2.39844 10.9448 2.39844 11.3996V12.5996C2.39844 13.0544 2.65524 13.4696 3.06204 13.6736L4.59564 14.4404C4.71684 14.8088 4.86804 15.1628 5.04084 15.5048L4.49724 17.1356C4.35324 17.5664 4.46604 18.0428 4.78644 18.3632L5.63484 19.2116C5.86284 19.4408 6.17004 19.5632 6.48324 19.5632C6.60924 19.5632 6.73884 19.5428 6.86244 19.502L8.49444 18.9584C8.83644 19.1312 9.19044 19.2812 9.55884 19.4036L10.3256 20.9372C10.5296 21.344 10.9448 21.6008 11.3996 21.6008H12.5996C13.0544 21.6008 13.4696 21.344 13.6736 20.9372L14.4404 19.4036C14.8088 19.2824 15.1628 19.1312 15.5048 18.9584L17.1368 19.502C17.2616 19.544 17.39 19.5632 17.516 19.5632C17.8292 19.5632 18.1364 19.4396 18.3644 19.2116L19.2128 18.3632C19.5344 18.0416 19.646 17.5664 19.502 17.1356L18.9584 15.5048C19.1312 15.1628 19.2812 14.8088 19.4036 14.4404L20.9372 13.6736C21.344 13.4708 21.6008 13.0544 21.6008 12.5996V11.3996C21.6008 10.9448 21.344 10.5296 20.9372 10.3256ZM12.0008 15.5996C10.0124 15.5996 8.40084 13.988 8.40084 11.9996C8.40084 10.0112 10.0124 8.39964 12.0008 8.39964C13.9892 8.39964 15.6008 10.0112 15.6008 11.9996C15.6008 13.988 13.9892 15.5996 12.0008 15.5996Z" fill="#F0F4FC"/>
</g>
</svg>
