<svg width="32" height="32" viewBox="0 0 32 32" fill="none" xmlns="http://www.w3.org/2000/svg">
<g clip-path="url(#clip0_48948_109925)">
<path d="M23.7961 18.0992C23.7977 18.8477 23.6508 19.589 23.3641 20.2804C23.0785 20.9718 22.6589 21.5999 22.1295 22.1285C21.6006 22.658 20.9721 23.0776 20.2803 23.3631C19.5906 23.6494 18.8512 23.7966 18.1044 23.7961H18.0769C16.8751 23.7961 15.6824 23.4044 14.7156 22.6923C13.9991 22.1602 13.4168 21.468 13.0153 20.6709C12.6138 19.8738 12.4042 18.9939 12.4032 18.1013V13.9011C12.4028 13.7042 12.4415 13.5093 12.5169 13.3274C12.5923 13.1456 12.703 12.9805 12.8426 12.8417C12.9815 12.7026 13.1465 12.5923 13.3282 12.5171C13.5098 12.4418 13.7045 12.4031 13.9011 12.4032C14.0977 12.4033 14.2924 12.4422 14.4739 12.5176C14.6555 12.5931 14.8204 12.7036 14.9592 12.8428C15.2414 13.1255 15.3975 13.5014 15.3986 13.9005V18.0998C15.3979 18.4547 15.4677 18.8063 15.6039 19.1341C15.7402 19.4619 15.9401 19.7594 16.1922 20.0093C16.5696 20.3865 17.0508 20.6427 17.5745 20.7452C18.0991 20.8495 18.6386 20.796 19.1336 20.5917C19.6269 20.3878 20.0485 20.0419 20.3449 19.598C20.6435 19.1533 20.8018 18.6355 20.8028 18.0998V9.70131C20.8024 9.50464 20.841 9.30983 20.9162 9.12811C20.9914 8.94639 21.1019 8.78136 21.2412 8.64251C21.4153 8.46858 21.6295 8.34023 21.8651 8.26885C22.1006 8.19746 22.35 8.18522 22.5914 8.23322C22.8328 8.28122 23.0586 8.38798 23.2489 8.54404C23.4391 8.7001 23.588 8.90066 23.6823 9.12797C23.758 9.31062 23.7961 9.50385 23.7961 9.70131V18.0992ZM11.9918 11.9899C11.7401 12.2403 11.5404 12.538 11.4044 12.8659C11.2684 13.1939 11.1987 13.5455 11.1993 13.9005V22.2984C11.1998 22.4952 11.1613 22.6901 11.0859 22.8718C11.0106 23.0536 10.8999 23.2186 10.7604 23.3573C10.195 23.9237 9.20818 23.9237 8.64224 23.3573C8.50287 23.2185 8.39238 23.0534 8.31714 22.8717C8.2419 22.69 8.20341 22.4951 8.20388 22.2984V13.9011C8.20506 12.5353 8.69651 11.2154 9.58883 10.1815C10.1154 9.57217 10.7652 9.08135 11.4952 8.74138C12.2253 8.4014 13.0191 8.21999 13.8244 8.20908C14.6297 8.19818 15.4281 8.35803 16.1671 8.67812C16.9061 8.9982 17.5689 9.47124 18.1118 10.0661L18.1203 10.056L18.1282 10.0862C18.691 10.708 19.1093 11.4464 19.3533 12.2488L19.3766 12.3256C19.5254 12.838 19.6005 13.368 19.6011 13.9005V18.0992C19.6007 18.3952 19.5128 18.6844 19.3484 18.9305C19.184 19.1765 18.9505 19.3684 18.6772 19.482C18.4988 19.5561 18.3104 19.5911 18.1203 19.5932V19.5958C18.1129 19.5958 18.106 19.5937 18.0986 19.5937C18.0033 19.5937 17.9075 19.5874 17.8122 19.5683C17.7575 19.5568 17.7036 19.5419 17.6507 19.5238V19.5164C17.6147 19.5048 17.5776 19.499 17.5427 19.4847C17.2694 19.3711 17.0358 19.1791 16.8713 18.9329C16.7069 18.6867 16.6191 18.3974 16.6189 18.1013V14.2986H16.6178V13.9C16.6172 13.3639 16.4572 12.8402 16.1582 12.3953C15.8592 11.9503 15.4346 11.6043 14.9385 11.4012C14.6103 11.2635 14.2573 11.1945 13.9014 11.1985C13.5466 11.1979 13.1952 11.2676 12.8674 11.4036C12.5397 11.5395 12.2421 11.7384 11.9918 11.9899ZM24.2075 7.79282C23.9573 7.54148 23.6599 7.3421 23.3323 7.20618C23.0048 7.07026 22.6536 7.00047 22.2989 7.00083H22.2979C21.9434 7.00098 21.5924 7.07122 21.2651 7.2075C20.9379 7.34378 20.6408 7.54342 20.3909 7.79494C20.1402 8.04511 19.9413 8.34235 19.8058 8.6696C19.6702 8.99684 19.6007 9.34764 19.6011 9.70184V10.0052C18.7411 8.7496 17.4907 7.81304 16.044 7.34091C14.5972 6.86878 13.0351 6.88751 11.6001 7.39418C10.2542 7.86897 9.08951 8.75078 8.26741 9.91731C7.44175 11.0813 6.9988 12.4734 7 13.9005V22.2984C7 23.02 7.28112 23.6982 7.79147 24.2085C8.04167 24.4603 8.33933 24.6598 8.66721 24.7957C8.99509 24.9315 9.34668 25.001 9.70159 25C10.0565 25.0009 10.408 24.9314 10.7359 24.7956C11.0638 24.6597 11.3615 24.4602 11.6117 24.2085C11.8634 23.9583 12.0629 23.6606 12.1988 23.3328C12.3346 23.0049 12.4041 22.6533 12.4032 22.2984V21.9972C13.2636 23.2515 14.5136 24.187 15.9597 24.6587C17.4058 25.1304 18.967 25.1119 20.4015 24.6061C21.747 24.1312 22.9114 23.2494 23.7331 22.083C24.5582 20.9195 25.0009 19.5282 25 18.1019V9.70078C25.0003 9.34613 24.9304 8.99492 24.7944 8.66738C24.6583 8.33984 24.4589 8.04243 24.2075 7.79229V7.79282Z" fill="url(#paint0_linear_48948_109925)"/>
</g>
<defs>
<linearGradient id="paint0_linear_48948_109925" x1="6.20588" y1="24.8671" x2="24.8964" y2="4.84373" gradientUnits="userSpaceOnUse">
<stop offset="0.05" stop-color="white"/>
<stop offset="0.38" stop-color="#A7B3FF"/>
<stop offset="1" stop-color="#74A4FF"/>
</linearGradient>
<clipPath id="clip0_48948_109925">
<rect width="18" height="18" fill="white" transform="translate(7 7)"/>
</clipPath>
</defs>
</svg>
