<svg width="46" height="46" viewBox="0 0 46 46" fill="none" xmlns="http://www.w3.org/2000/svg">
<g clip-path="url(#clip0_1127_12151)">
<path d="M39.6571 12.5961V43.0352C39.6571 44.6703 38.3274 46 36.6922 46H9.30786C7.67271 46 6.34302 44.6703 6.34302 43.0352V2.96484C6.34302 1.32969 7.67271 0 9.30786 0H27.061L39.6571 12.5961Z" fill="#33E6BF"/>
<path d="M14.4829 23.0989H31.5173V24.9946H14.4829V23.0989Z" fill="white"/>
<path d="M14.4829 27.3215H31.5173V29.2172H14.4829V27.3215Z" fill="white"/>
<path d="M14.4829 31.5532H31.5173V33.4489H14.4829V31.5532Z" fill="white"/>
<path d="M14.4829 35.7759H26.6028V37.6716H14.4829V35.7759Z" fill="white"/>
<path opacity="0.19" d="M28.7769 12.1199L39.6569 20.9336V12.65L33.4937 9.07422L28.7769 12.1199Z" fill="black"/>
<path d="M39.6571 12.5961H30.0259C28.3907 12.5961 27.061 11.2664 27.061 9.63125V0L39.6571 12.5961Z" fill="#A6FBE8"/>
</g>
<defs>
<clipPath id="clip0_1127_12151">
<rect width="46" height="46" fill="white"/>
</clipPath>
</defs>
</svg>
