<svg width="24" height="24" viewBox="0 0 24 24" fill="none" xmlns="http://www.w3.org/2000/svg">
<path d="M6.75 18.25H5.75C4.64543 18.25 3.75 17.3546 3.75 16.25V5.75C3.75 4.64543 4.64543 3.75 5.75 3.75H18.25C19.3546 3.75 20.25 4.64543 20.25 5.75V16.25C20.25 17.3546 19.3546 18.25 18.25 18.25H17.25M6.75 18.25V20.25M6.75 18.25H17.25M17.25 18.25V20.25M7.75 11C7.75 13.3472 9.65279 15.25 12 15.25C14.3472 15.25 16.25 13.3472 16.25 11C16.25 8.65279 14.3472 6.75 12 6.75C9.65279 6.75 7.75 8.65279 7.75 11ZM7.75 11H11.25" stroke="#8295AE" stroke-width="1.5" stroke-linecap="round" stroke-linejoin="round"/>
</svg>
