<svg width="24" height="24" viewBox="0 0 24 24" fill="none" xmlns="http://www.w3.org/2000/svg">
<path id="Vector" d="M16.7992 3.59961H7.19922C5.54236 3.59961 4.19922 4.94275 4.19922 6.59961V14.9996C4.19922 16.6565 5.54236 17.9996 7.19922 17.9996H16.7992C18.4561 17.9996 19.7992 16.6565 19.7992 14.9996V6.59961C19.7992 4.94275 18.4561 3.59961 16.7992 3.59961Z" stroke="#F0F4FC" stroke-width="2" stroke-linecap="round" stroke-linejoin="round"/>
<path id="Vector_2" d="M8.40039 18V20.4" stroke="#F0F4FC" stroke-width="2" stroke-linecap="round" stroke-linejoin="round"/>
<path id="Vector_3" d="M15.5996 18V20.4" stroke="#F0F4FC" stroke-width="2" stroke-linecap="round" stroke-linejoin="round"/>
<path id="Vector_4" d="M11.9996 13.2004C13.3251 13.2004 14.3996 12.1259 14.3996 10.8004C14.3996 9.47491 13.3251 8.40039 11.9996 8.40039C10.6741 8.40039 9.59961 9.47491 9.59961 10.8004C9.59961 12.1259 10.6741 13.2004 11.9996 13.2004Z" stroke="#F0F4FC" stroke-width="2" stroke-linecap="round" stroke-linejoin="round"/>
<path id="Vector_5" d="M13.697 9.10296L15.3 7.5" stroke="#F0F4FC" stroke-width="2" stroke-linecap="round" stroke-linejoin="round"/>
<path id="Vector_6" d="M13.697 12.497L15.3 14.1" stroke="#F0F4FC" stroke-width="2" stroke-linecap="round" stroke-linejoin="round"/>
<path id="Vector_7" d="M10.3022 12.4971L8.69922 14.1" stroke="#F0F4FC" stroke-width="2" stroke-linecap="round" stroke-linejoin="round"/>
<path id="Vector_8" d="M10.3022 9.10296L8.69922 7.5" stroke="#F0F4FC" stroke-width="2" stroke-linecap="round" stroke-linejoin="round"/>
</svg>
