<svg width="32" height="32" viewBox="0 0 32 32" fill="none" xmlns="http://www.w3.org/2000/svg">
<g clip-path="url(#clip0_48948_109928)">
<path d="M16 27C22.0751 27 27 22.0751 27 16C27 9.92487 22.0751 5 16 5C9.92487 5 5 9.92487 5 16C5 22.0751 9.92487 27 16 27Z" fill="#FF0420"/>
<path d="M12.7933 18.921C12.1377 18.921 11.6009 18.767 11.1829 18.459C10.7693 18.1466 10.5625 17.6978 10.5625 17.1214C10.5625 16.9982 10.5757 16.853 10.6021 16.677C10.6725 16.281 10.7737 15.8058 10.9057 15.247C11.2797 13.7334 12.2477 12.9766 13.8053 12.9766C14.2277 12.9766 14.6105 13.047 14.9449 13.1922C15.2793 13.3286 15.5433 13.5398 15.7369 13.8214C15.9305 14.0986 16.0273 14.4286 16.0273 14.8114C16.0273 14.9258 16.0141 15.071 15.9877 15.247C15.9041 15.7354 15.8073 16.215 15.6885 16.677C15.4949 17.4294 15.1649 17.997 14.6897 18.371C14.2189 18.7406 13.5853 18.921 12.7933 18.921ZM12.9121 17.733C13.2201 17.733 13.4797 17.6406 13.6953 17.4602C13.9153 17.2798 14.0737 17.0026 14.1661 16.6242C14.2937 16.105 14.3905 15.6562 14.4565 15.269C14.4785 15.1546 14.4917 15.0358 14.4917 14.9126C14.4917 14.411 14.2321 14.1602 13.7085 14.1602C13.4005 14.1602 13.1365 14.2526 12.9165 14.433C12.7009 14.6134 12.5469 14.8906 12.4545 15.269C12.3533 15.6386 12.2565 16.0874 12.1553 16.6242C12.1333 16.7342 12.1201 16.8486 12.1201 16.9718C12.1157 17.4822 12.3841 17.733 12.9121 17.733Z" fill="white"/>
<path d="M16.4088 18.8441C16.3472 18.8441 16.3032 18.8265 16.268 18.7869C16.2416 18.7429 16.2328 18.6945 16.2416 18.6373L17.3812 13.2693C17.39 13.2077 17.4208 13.1593 17.4736 13.1197C17.522 13.0801 17.5748 13.0625 17.632 13.0625H19.8276C20.4392 13.0625 20.9276 13.1901 21.2972 13.4409C21.6712 13.6961 21.8604 14.0613 21.8604 14.5409C21.8604 14.6773 21.8428 14.8225 21.812 14.9721C21.6756 15.6057 21.3984 16.0721 20.976 16.3757C20.5624 16.6793 19.9948 16.8289 19.2732 16.8289H18.16L17.7816 18.6373C17.7684 18.6989 17.742 18.7473 17.6892 18.7869C17.6408 18.8265 17.588 18.8441 17.5308 18.8441H16.4088ZM19.3304 15.6893C19.5636 15.6893 19.7616 15.6277 19.9332 15.5001C20.1092 15.3725 20.2236 15.1921 20.2808 14.9545C20.2984 14.8621 20.3072 14.7785 20.3072 14.7081C20.3072 14.5497 20.2588 14.4265 20.1664 14.3429C20.074 14.2549 19.9112 14.2109 19.6868 14.2109H18.6968L18.3844 15.6893H19.3304Z" fill="white"/>
</g>
<defs>
<clipPath id="clip0_48948_109928">
<rect width="22" height="22" fill="white" transform="translate(5 5)"/>
</clipPath>
</defs>
</svg>
