<svg width="30" height="30" viewBox="0 0 30 30" fill="none" xmlns="http://www.w3.org/2000/svg">
<path d="M22.4257 12.6017C22.7539 10.351 21.0424 9.15534 18.7214 8.33479L19.4717 5.28701L17.6195 4.81812L16.8928 7.77212C16.4004 7.6549 15.9081 7.53768 15.4158 7.42045L16.166 4.44301L14.3139 3.97412L13.5637 7.0219C13.1651 6.92812 12.7665 6.83434 12.3914 6.74056L9.83599 6.10757L9.34365 8.0769C9.34365 8.0769 10.7269 8.38168 10.68 8.40512C11.4302 8.59268 11.5709 9.08501 11.5474 9.48357L10.68 12.9533C10.7269 12.9768 10.7972 12.9768 10.8675 13.0237C10.7972 13.0002 10.7503 13.0002 10.68 12.9768L9.46088 17.8298C9.3671 18.0642 9.13266 18.3925 8.61688 18.2752C8.64032 18.2987 7.28054 17.947 7.28054 17.947L6.36621 20.057L8.78099 20.6666C9.22643 20.7838 9.67188 20.901 10.0939 21.0182L9.32021 24.0895L11.1723 24.5583L11.9225 21.5106C12.4383 21.6512 12.9072 21.7685 13.3995 21.8857L12.6493 24.91L14.5014 25.3789L15.2751 22.3077C18.4401 22.8938 20.808 22.6593 21.8161 19.7991C22.6132 17.5016 21.7692 16.1652 20.1047 15.2978C21.2769 15.0399 22.1912 14.2428 22.4257 12.6017ZM18.2057 18.5331C17.643 20.8307 13.7512 19.5881 12.5087 19.2833L13.5168 15.204C14.7828 15.5088 18.7918 16.1418 18.2057 18.5331ZM18.7683 12.5782C18.2525 14.6648 15.0172 13.6098 13.9857 13.3519L14.9 9.64768C15.955 9.90556 19.331 10.3979 18.7683 12.5782Z" fill="#02122B"/>
</svg>
