<svg width="24" height="24" viewBox="0 0 24 24" fill="none" xmlns="http://www.w3.org/2000/svg">
<path id="Vector" d="M12 10.8C12.8284 10.8 13.5 10.1284 13.5 9.3C13.5 8.47157 12.8284 7.8 12 7.8C11.1716 7.8 10.5 8.47157 10.5 9.3C10.5 10.1284 11.1716 10.8 12 10.8Z" fill="#F0F4FC"/>
<path id="Vector_2" d="M7.5 10.8C8.32843 10.8 9 10.1284 9 9.3C9 8.47157 8.32843 7.8 7.5 7.8C6.67157 7.8 6 8.47157 6 9.3C6 10.1284 6.67157 10.8 7.5 10.8Z" fill="#F0F4FC"/>
<path id="Vector_3" d="M21.6004 7.25001V7.19961C21.6004 5.21121 19.9888 3.59961 18.0004 3.59961H6.00039C4.01199 3.59961 2.40039 5.21121 2.40039 7.19961V11.9996C2.40039 13.988 4.01199 15.5996 6.00039 15.5996H8.58399" stroke="#F0F4FC" stroke-width="2" stroke-linecap="round" stroke-linejoin="round"/>
<path id="Vector_4" d="M12 20.4003L12.6 16.8003L18.2484 11.1615C18.7176 10.6923 19.4772 10.6923 19.9452 11.1615L21.2484 12.4647C21.7176 12.9339 21.7176 13.6935 21.2484 14.1615L15.6 19.8003L12 20.4003Z" stroke="#F0F4FC" stroke-width="2" stroke-linecap="round" stroke-linejoin="round"/>
</svg>
