<svg width="16" height="16" viewBox="0 0 16 16" fill="none" xmlns="http://www.w3.org/2000/svg">
<path d="M10.6667 5.33325L5.33337 10.6666M14.1667 7.99992C14.1667 11.4057 11.4058 14.1666 8.00004 14.1666C4.59429 14.1666 1.83337 11.4057 1.83337 7.99992C1.83337 4.59417 4.59429 1.83325 8.00004 1.83325C11.4058 1.83325 14.1667 4.59417 14.1667 7.99992Z" stroke="#8295AE" stroke-width="1.5" stroke-linecap="round" stroke-linejoin="round"/>
<path d="M5.5 6C5.5 6.27614 5.72386 6.5 6 6.5C6.27614 6.5 6.5 6.27614 6.5 6C6.5 5.72386 6.27614 5.5 6 5.5C5.72386 5.5 5.5 5.72386 5.5 6Z" fill="#F0F4FC" stroke="#F0F4FC" stroke-width="0.5" stroke-linecap="round" stroke-linejoin="round"/>
<path d="M9.5 10C9.5 10.2761 9.72387 10.5 10 10.5C10.2761 10.5 10.5 10.2761 10.5 10C10.5 9.72387 10.2761 9.5 10 9.5C9.72387 9.5 9.5 9.72387 9.5 10Z" fill="#F0F4FC" stroke="#F0F4FC" stroke-width="0.5" stroke-linecap="round" stroke-linejoin="round"/>
</svg>
