<svg width="24" height="24" viewBox="0 0 24 24" fill="none" xmlns="http://www.w3.org/2000/svg">
<path id="Vector" d="M21.0141 9.83481C19.9617 7.96041 16.9761 3.59961 12.0009 3.59961C7.02569 3.59961 4.04008 7.96041 3.00568 9.80361C2.21008 11.1272 2.20408 12.8336 2.98648 14.1632C3.78208 15.6644 6.71488 20.3984 12.0009 20.3984C16.9761 20.3984 19.9617 16.0376 20.9961 14.1944C21.7977 12.8612 21.7977 11.1368 21.0141 9.83361V9.83481ZM12.0009 15.5996C10.0125 15.5996 8.40089 13.988 8.40089 11.9996C8.40089 10.0112 10.0125 8.39961 12.0009 8.39961C13.9893 8.39961 15.6009 10.0112 15.6009 11.9996C15.6009 13.988 13.9893 15.5996 12.0009 15.5996Z" fill="#F0F4FC"/>
</svg>
