<svg width="32" height="32" viewBox="0 0 32 32" fill="none" xmlns="http://www.w3.org/2000/svg">
<g clip-path="url(#clip0_48948_109997)">
<path d="M14.0387 22.8784C14.6807 25.2489 16.9749 27.0582 18.1332 26.9864C18.1736 26.9864 22.5285 26.1693 24.9125 22.1781C26.7667 19.0713 26.1382 16.0722 23.615 16.0049C22.7171 16.0722 12.84 18.3619 14.0387 22.8784Z" fill="url(#paint0_linear_48948_109997)"/>
<path d="M23.3765 7.64996C21.7885 6.29565 19.8496 5.41844 17.7839 5.11971C15.7183 4.82099 13.6103 5.11296 11.7036 5.96187C11.4618 6.06262 11.2264 6.17807 10.9987 6.30757C10.8461 6.38838 10.689 6.47368 10.5498 6.56348H10.5902C10.1374 6.87346 9.73847 7.25566 9.40943 7.69485C6.24427 11.8836 16.8846 14.9455 22.5819 14.9545C25.2038 16.8401 25.9401 9.64782 23.3765 7.64996Z" fill="url(#paint1_linear_48948_109997)"/>
<path d="M12.3509 7.73614C10.8873 9.94053 6.01164 11.4939 5.20801 11.2515L5.30678 11.0495C5.57947 10.5071 5.89316 9.98624 6.2451 9.49157C6.95968 8.53097 7.8148 7.68342 8.78172 6.9774C9.08033 6.75183 9.39054 6.54203 9.71107 6.34886C10.2027 6.06776 10.7566 5.91347 11.3228 5.8999C13.4958 5.94031 12.3599 7.69574 12.3509 7.69574" fill="url(#paint2_linear_48948_109997)"/>
<path d="M11.1472 23.3147C11.255 24.0061 11.1472 26.7402 11.0036 26.9737C10.8824 26.9737 10.6309 26.9961 9.89464 26.5831C9.50888 26.3638 9.13704 26.1209 8.78123 25.8558C8.30317 25.5016 7.8529 25.1113 7.43435 24.6885C7.01034 24.271 6.62003 23.8207 6.26706 23.3416C5.54805 22.3662 4.98884 21.2827 4.6104 20.1316C4.41208 19.5462 4.26193 18.9456 4.16144 18.3357C3.95791 17.0793 3.95791 15.7984 4.16144 14.542C4.26296 13.9324 4.4131 13.3319 4.6104 12.7462C4.64632 12.6295 4.68672 12.5127 4.73162 12.396C5.57117 13.5184 6.52745 14.533 7.37599 15.6644C8.22452 16.7958 9.24814 18.5018 9.46813 18.879C10.815 21.2091 11.0574 22.6502 11.1607 23.3416" fill="url(#paint3_linear_48948_109997)"/>
<path d="M27.3456 16.4206C27.3472 17.8911 27.0715 19.3488 26.533 20.7172C25.1592 22.1942 15.8882 18.5532 15.7984 18.5128C14.5278 17.9561 10.6713 16.268 10.3211 13.6012C9.83622 9.77154 17.5718 7.10473 20.9794 7.00146C21.3879 7.00146 22.6316 7.00146 23.3544 7.61205C24.6104 8.70984 25.6166 10.0641 26.3051 11.5836C26.9936 13.103 27.3484 14.7524 27.3456 16.4206Z" fill="url(#paint4_linear_48948_109997)"/>
<path d="M21.0602 26.791C20.05 27.2669 18.9366 26.9212 19.2285 25.9335C19.7807 24.0433 24.616 22.0994 25.698 21.9961C25.8281 21.9961 25.8865 22.0724 25.8281 22.1757C24.7119 24.1376 23.0574 25.7391 21.0602 26.791Z" fill="url(#paint5_linear_48948_109997)"/>
</g>
<defs>
<linearGradient id="paint0_linear_48948_109997" x1="19.9605" y1="26.9864" x2="19.9605" y2="16.0049" gradientUnits="userSpaceOnUse">
<stop stop-color="#4366C2"/>
<stop offset="0.15" stop-color="#3458B8"/>
<stop offset="0.4" stop-color="#2348AC"/>
<stop offset="0.67" stop-color="#193FA5"/>
<stop offset="1" stop-color="#163CA3"/>
</linearGradient>
<linearGradient id="paint1_linear_48948_109997" x1="16.8981" y1="15.2643" x2="16.8981" y2="5.0011" gradientUnits="userSpaceOnUse">
<stop stop-color="#4366C2"/>
<stop offset="0.15" stop-color="#3458B8"/>
<stop offset="0.4" stop-color="#2348AC"/>
<stop offset="0.67" stop-color="#193FA5"/>
<stop offset="1" stop-color="#163CA3"/>
</linearGradient>
<linearGradient id="paint2_linear_48948_109997" x1="5.20352" y1="8.60263" x2="12.6562" y2="8.60263" gradientUnits="userSpaceOnUse">
<stop stop-color="#58C66B"/>
<stop offset="1" stop-color="#5491F6"/>
</linearGradient>
<linearGradient id="paint3_linear_48948_109997" x1="3.99982" y1="19.6736" x2="11.1921" y2="19.6736" gradientUnits="userSpaceOnUse">
<stop stop-color="#58C66B"/>
<stop offset="1" stop-color="#5491F6"/>
</linearGradient>
<linearGradient id="paint4_linear_48948_109997" x1="10.2987" y1="14.0366" x2="27.3456" y2="14.0366" gradientUnits="userSpaceOnUse">
<stop stop-color="#58C66B"/>
<stop offset="1" stop-color="#5491F6"/>
</linearGradient>
<linearGradient id="paint5_linear_48948_109997" x1="19.188" y1="24.4968" x2="25.8596" y2="24.4968" gradientUnits="userSpaceOnUse">
<stop stop-color="#58C66B"/>
<stop offset="1" stop-color="#5491F6"/>
</linearGradient>
<clipPath id="clip0_48948_109997">
<rect width="23.3459" height="22" fill="white" transform="translate(4 5.00098)"/>
</clipPath>
</defs>
</svg>
