<svg width="32" height="32" viewBox="0 0 32 32" fill="none" xmlns="http://www.w3.org/2000/svg">
<g clip-path="url(#clip0_48948_109979)">
<path d="M16.0252 10.0233C18.113 10.0233 19.8053 9.02647 19.8053 7.79681C19.8053 6.56715 18.113 5.57031 16.0252 5.57031C13.9376 5.57031 12.2451 6.56715 12.2451 7.79681C12.2451 9.02647 13.9376 10.0233 16.0252 10.0233Z" fill="#FF2670"/>
<path d="M16.0252 26.7889C18.113 26.7889 19.8053 25.7921 19.8053 24.5624C19.8053 23.3328 18.113 22.3359 16.0252 22.3359C13.9376 22.3359 12.2451 23.3328 12.2451 24.5624C12.2451 25.7921 13.9376 26.7889 16.0252 26.7889Z" fill="#FF2670"/>
<path d="M10.7557 13.1015C11.7996 11.2715 11.7931 9.28973 10.7412 8.67506C9.68938 8.06039 7.99047 9.04558 6.94663 10.8756C5.90278 12.7055 5.90927 14.6874 6.96113 15.302C8.01299 15.9167 9.71189 14.9314 10.7557 13.1015Z" fill="#FF2670"/>
<path d="M25.1042 21.4847C26.1481 19.6547 26.1413 17.6728 25.0892 17.058C24.0371 16.4431 22.338 17.4282 21.2941 19.2582C20.2503 21.0881 20.257 23.07 21.3091 23.6849C22.3612 24.2997 24.0603 23.3146 25.1042 21.4847Z" fill="#FF2670"/>
<path d="M10.7416 23.6849C11.7937 23.07 11.8004 21.0881 10.7566 19.2582C9.71272 17.4282 8.0136 16.4431 6.96148 17.058C5.90935 17.6728 5.90264 19.6547 6.94649 21.4847C7.99034 23.3146 9.68946 24.2997 10.7416 23.6849Z" fill="#FF2670"/>
<path d="M25.0892 15.2943C26.1413 14.6795 26.1481 12.6975 25.1042 10.8676C24.0603 9.03758 22.3612 8.05251 21.3091 8.66734C20.257 9.28217 20.2503 11.2641 21.2941 13.0941C22.338 14.9241 24.0371 15.9091 25.0892 15.2943Z" fill="#FF2670"/>
</g>
<defs>
<clipPath id="clip0_48948_109979">
<rect width="22" height="21.3071" fill="white" transform="translate(5 5.5)"/>
</clipPath>
</defs>
</svg>
