<svg width="32" height="32" viewBox="0 0 32 32" fill="none" xmlns="http://www.w3.org/2000/svg">
<g clip-path="url(#clip0_49057_157524)">
<path fill-rule="evenodd" clip-rule="evenodd" d="M21.4109 14.1753L21.4105 14.1763C22.308 15.3017 22.8444 16.7271 22.8444 18.2775C22.8444 19.8509 22.292 21.2956 21.3702 22.4286L21.2908 22.5262L21.2698 22.4022C21.2519 22.2968 21.2309 22.1903 21.2064 22.083C20.7452 20.0562 19.2422 18.3182 16.7685 16.911C15.0981 15.9633 14.1419 14.8222 13.8909 13.5257C13.7287 12.6873 13.8493 11.8452 14.0822 11.1239C14.3151 10.4029 14.6615 9.79873 14.9558 9.43502L15.9182 8.25814C16.087 8.05179 16.4028 8.05179 16.5716 8.25814L21.4109 14.1753ZM22.9329 12.9998L16.4833 5.11293C16.3601 4.96236 16.1296 4.96236 16.0065 5.11293L9.55664 12.9994L9.53583 13.0259C8.34894 14.4987 7.63867 16.3704 7.63867 18.4079C7.63867 23.1531 11.4917 27 16.2449 27C20.998 27 24.8511 23.1531 24.8511 18.4079C24.8511 16.3705 24.1408 14.4987 22.954 13.0259L22.9329 12.9998ZM11.0999 14.15L11.677 13.4442L11.6945 13.5744C11.7083 13.6776 11.725 13.7813 11.7449 13.8854C12.1182 15.8439 13.4516 17.477 15.681 18.7417C17.6188 19.8446 18.7471 21.1129 19.0723 22.5039C19.2079 23.0844 19.2321 23.6555 19.1733 24.1549L19.1697 24.1857L19.1417 24.1994C18.2671 24.6267 17.2838 24.8665 16.2447 24.8665C12.5999 24.8665 9.645 21.9166 9.645 18.2775C9.645 16.7151 10.1897 15.2794 11.0999 14.15Z" fill="#F7F7F8"/>
</g>
<defs>
<clipPath id="clip0_49057_157524">
<rect width="17.7222" height="22" fill="white" transform="translate(7.63867 5)"/>
</clipPath>
</defs>
</svg>
