<svg width="20" height="20" viewBox="0 0 20 20" fill="none" xmlns="http://www.w3.org/2000/svg">
<mask id="path-1-inside-1_51177_136710" fill="white">
<path d="M12.8873 4.79167L12.3463 5.10462C12.4579 5.29774 12.6641 5.41667 12.8873 5.41667V4.79167ZM7.11245 4.79167V5.41667C7.33555 5.41667 7.54174 5.29774 7.65345 5.10462L7.11245 4.79167ZM1.6665 6.45833V15.2083H2.9165V6.45833H1.6665ZM3.95817 17.5H16.0415V16.25H3.95817V17.5ZM18.3332 15.2083V6.45833H17.0832V15.2083H18.3332ZM9.99984 3.75C11.0015 3.75 11.877 4.29347 12.3463 5.10462L13.4283 4.47872C12.7448 3.29719 11.4658 2.5 9.99984 2.5V3.75ZM7.65345 5.10462C8.12268 4.29347 8.99817 3.75 9.99984 3.75V2.5C8.53392 2.5 7.25491 3.29719 6.57144 4.47872L7.65345 5.10462ZM16.0415 4.16667H12.8873V5.41667H16.0415V4.16667ZM7.11245 4.16667H3.95817V5.41667H7.11245V4.16667ZM18.3332 6.45833C18.3332 5.19268 17.3072 4.16667 16.0415 4.16667V5.41667C16.6168 5.41667 17.0832 5.88303 17.0832 6.45833H18.3332ZM16.0415 17.5C17.3072 17.5 18.3332 16.474 18.3332 15.2083H17.0832C17.0832 15.7837 16.6168 16.25 16.0415 16.25V17.5ZM1.6665 15.2083C1.6665 16.474 2.69252 17.5 3.95817 17.5V16.25C3.38287 16.25 2.9165 15.7837 2.9165 15.2083H1.6665ZM2.9165 6.45833C2.9165 5.88303 3.38287 5.41667 3.95817 5.41667V4.16667C2.69252 4.16667 1.6665 5.19268 1.6665 6.45833H2.9165ZM12.0832 10.4167C12.0832 11.5673 11.1504 12.5 9.99984 12.5V13.75C11.8408 13.75 13.3332 12.2576 13.3332 10.4167H12.0832ZM9.99984 12.5C8.84925 12.5 7.9165 11.5673 7.9165 10.4167H6.6665C6.6665 12.2576 8.15889 13.75 9.99984 13.75V12.5ZM7.9165 10.4167C7.9165 9.26608 8.84925 8.33333 9.99984 8.33333V7.08333C8.15889 7.08333 6.6665 8.57575 6.6665 10.4167H7.9165ZM9.99984 8.33333C11.1504 8.33333 12.0832 9.26608 12.0832 10.4167H13.3332C13.3332 8.57575 11.8408 7.08333 9.99984 7.08333V8.33333Z"/>
</mask>
<path d="M12.8873 4.79167L12.3463 5.10462C12.4579 5.29774 12.6641 5.41667 12.8873 5.41667V4.79167ZM7.11245 4.79167V5.41667C7.33555 5.41667 7.54174 5.29774 7.65345 5.10462L7.11245 4.79167ZM1.6665 6.45833V15.2083H2.9165V6.45833H1.6665ZM3.95817 17.5H16.0415V16.25H3.95817V17.5ZM18.3332 15.2083V6.45833H17.0832V15.2083H18.3332ZM9.99984 3.75C11.0015 3.75 11.877 4.29347 12.3463 5.10462L13.4283 4.47872C12.7448 3.29719 11.4658 2.5 9.99984 2.5V3.75ZM7.65345 5.10462C8.12268 4.29347 8.99817 3.75 9.99984 3.75V2.5C8.53392 2.5 7.25491 3.29719 6.57144 4.47872L7.65345 5.10462ZM16.0415 4.16667H12.8873V5.41667H16.0415V4.16667ZM7.11245 4.16667H3.95817V5.41667H7.11245V4.16667ZM18.3332 6.45833C18.3332 5.19268 17.3072 4.16667 16.0415 4.16667V5.41667C16.6168 5.41667 17.0832 5.88303 17.0832 6.45833H18.3332ZM16.0415 17.5C17.3072 17.5 18.3332 16.474 18.3332 15.2083H17.0832C17.0832 15.7837 16.6168 16.25 16.0415 16.25V17.5ZM1.6665 15.2083C1.6665 16.474 2.69252 17.5 3.95817 17.5V16.25C3.38287 16.25 2.9165 15.7837 2.9165 15.2083H1.6665ZM2.9165 6.45833C2.9165 5.88303 3.38287 5.41667 3.95817 5.41667V4.16667C2.69252 4.16667 1.6665 5.19268 1.6665 6.45833H2.9165ZM12.0832 10.4167C12.0832 11.5673 11.1504 12.5 9.99984 12.5V13.75C11.8408 13.75 13.3332 12.2576 13.3332 10.4167H12.0832ZM9.99984 12.5C8.84925 12.5 7.9165 11.5673 7.9165 10.4167H6.6665C6.6665 12.2576 8.15889 13.75 9.99984 13.75V12.5ZM7.9165 10.4167C7.9165 9.26608 8.84925 8.33333 9.99984 8.33333V7.08333C8.15889 7.08333 6.6665 8.57575 6.6665 10.4167H7.9165ZM9.99984 8.33333C11.1504 8.33333 12.0832 9.26608 12.0832 10.4167H13.3332C13.3332 8.57575 11.8408 7.08333 9.99984 7.08333V8.33333Z" fill="#F0F4FC"/>
<path d="M1.6665 15.2083V15.9583H2.9165V15.2083V14.4583H1.6665V15.2083ZM2.9165 6.45833V5.70833H1.6665V6.45833V7.20833H2.9165V6.45833ZM16.0415 17.5H16.7915V16.25H16.0415H15.2915V17.5H16.0415ZM3.95817 16.25H3.20817V17.5H3.95817H4.70817V16.25H3.95817ZM18.3332 6.45833V5.70833H17.0832V6.45833V7.20833H18.3332V6.45833ZM17.0832 15.2083V15.9583H18.3332V15.2083V14.4583H17.0832V15.2083ZM9.99984 2.5H9.24984V3.75H9.99984H10.7498V2.5H9.99984ZM16.0415 5.41667H16.7915V4.16667H16.0415H15.2915V5.41667H16.0415ZM3.95817 4.16667H3.20817V5.41667H3.95817H4.70817V4.16667H3.95817ZM9.99984 12.5H9.24984V13.75H9.99984H10.7498V12.5H9.99984ZM13.3332 10.4167V9.66667H12.0832V10.4167V11.1667H13.3332V10.4167ZM7.9165 10.4167V9.66667H6.6665V10.4167V11.1667H7.9165V10.4167ZM9.99984 8.33333H10.7498V7.08333H9.99984H9.24984V8.33333H9.99984ZM12.8873 4.79167H14.3873V2.19108L12.1362 3.49326L12.8873 4.79167ZM7.11245 4.79167L7.86353 3.49326L5.61245 2.19108V4.79167H7.11245ZM13.4283 4.47872L14.1793 5.77713L15.4778 5.02603L14.7267 3.72761L13.4283 4.47872ZM6.57144 4.47872L5.27303 3.72763L4.52194 5.02604L5.82036 5.77713L6.57144 4.47872ZM12.8873 4.16667V2.66667H11.3873V4.16667H12.8873ZM7.11245 4.16667H8.61245V2.66667H7.11245V4.16667ZM12.8873 4.79167L12.1362 3.49326L11.5952 3.80621L12.3463 5.10462L13.0973 6.40303L13.6383 6.09008L12.8873 4.79167ZM12.3463 5.10462L11.0477 5.85545C11.4275 6.51237 12.1287 6.91667 12.8873 6.91667V5.41667V3.91667C13.1995 3.91667 13.4883 4.08311 13.6448 4.35378L12.3463 5.10462ZM12.8873 5.41667H14.3873V4.79167H12.8873H11.3873V5.41667H12.8873ZM7.11245 4.79167H5.61245V5.41667H7.11245H8.61245V4.79167H7.11245ZM7.11245 5.41667V6.91667C7.87098 6.91667 8.57205 6.51233 8.95188 5.85566L7.65345 5.10462L6.35501 4.35357C6.51143 4.08315 6.80011 3.91667 7.11245 3.91667V5.41667ZM7.65345 5.10462L8.40453 3.80621L7.86353 3.49326L7.11245 4.79167L6.36136 6.09008L6.90236 6.40303L7.65345 5.10462ZM1.6665 6.45833H0.166504V15.2083H1.6665H3.1665V6.45833H1.6665ZM2.9165 15.2083H4.4165V6.45833H2.9165H1.4165V15.2083H2.9165ZM3.95817 17.5V19H16.0415V17.5V16H3.95817V17.5ZM16.0415 16.25V14.75H3.95817V16.25V17.75H16.0415V16.25ZM18.3332 15.2083H19.8332V6.45833H18.3332H16.8332V15.2083H18.3332ZM17.0832 6.45833H15.5832V15.2083H17.0832H18.5832V6.45833H17.0832ZM9.99984 3.75V5.25C10.445 5.25 10.836 5.4895 11.0479 5.85574L12.3463 5.10462L13.6446 4.3535C12.918 3.09743 11.558 2.25 9.99984 2.25V3.75ZM12.3463 5.10462L13.0973 6.40303L14.1793 5.77713L13.4283 4.47872L12.6772 3.18031L11.5952 3.80621L12.3463 5.10462ZM13.4283 4.47872L14.7267 3.72761C13.7863 2.10201 12.0232 1 9.99984 1V2.5V4C10.9083 4 11.7032 4.49237 12.1299 5.22983L13.4283 4.47872ZM7.65345 5.10462L8.95185 5.85572C9.1637 5.4895 9.5547 5.25 9.99984 5.25V3.75V2.25C8.44164 2.25 7.08166 3.09743 6.35504 4.35352L7.65345 5.10462ZM9.99984 2.5V1C7.97644 1 6.2134 2.10201 5.27303 3.72763L6.57144 4.47872L7.86985 5.22981C8.29643 4.49237 9.0914 4 9.99984 4V2.5ZM6.57144 4.47872L5.82036 5.77713L6.90236 6.40303L7.65345 5.10462L8.40453 3.8062L7.32252 3.1803L6.57144 4.47872ZM16.0415 4.16667V2.66667H12.8873V4.16667V5.66667H16.0415V4.16667ZM12.8873 4.16667H11.3873V5.41667H12.8873H14.3873V4.16667H12.8873ZM12.8873 5.41667V6.91667H16.0415V5.41667V3.91667H12.8873V5.41667ZM7.11245 4.16667V2.66667H3.95817V4.16667V5.66667H7.11245V4.16667ZM3.95817 5.41667V6.91667H7.11245V5.41667V3.91667H3.95817V5.41667ZM7.11245 5.41667H8.61245V4.16667H7.11245H5.61245V5.41667H7.11245ZM18.3332 6.45833H19.8332C19.8332 4.36426 18.1356 2.66667 16.0415 2.66667V4.16667V5.66667C16.4787 5.66667 16.8332 6.0211 16.8332 6.45833H18.3332ZM16.0415 5.41667V6.91667C15.7884 6.91667 15.5832 6.71143 15.5832 6.45833H17.0832H18.5832C18.5832 5.05464 17.4453 3.91667 16.0415 3.91667V5.41667ZM16.0415 17.5V19C18.1356 19 19.8332 17.3024 19.8332 15.2083H18.3332H16.8332C16.8332 15.6456 16.4787 16 16.0415 16V17.5ZM17.0832 15.2083H15.5832C15.5832 14.9552 15.7884 14.75 16.0415 14.75V16.25V17.75C17.4453 17.75 18.5832 16.6121 18.5832 15.2083H17.0832ZM1.6665 15.2083H0.166504C0.166504 17.3024 1.8641 19 3.95817 19V17.5V16C3.52094 16 3.1665 15.6456 3.1665 15.2083H1.6665ZM3.95817 16.25V14.75C4.21127 14.75 4.4165 14.9552 4.4165 15.2083H2.9165H1.4165C1.4165 16.6121 2.55447 17.75 3.95817 17.75V16.25ZM2.9165 6.45833H4.4165C4.4165 6.71146 4.2113 6.91667 3.95817 6.91667V5.41667V3.91667C2.55444 3.91667 1.4165 5.05461 1.4165 6.45833H2.9165ZM3.95817 4.16667V2.66667C1.86409 2.66667 0.166504 4.36426 0.166504 6.45833H1.6665H3.1665C3.1665 6.02111 3.52095 5.66667 3.95817 5.66667V4.16667ZM12.0832 10.4167H10.5832C10.5832 10.7388 10.322 11 9.99984 11V12.5V14C11.9788 14 13.5832 12.3957 13.5832 10.4167H12.0832ZM9.99984 13.75V15.25C12.6692 15.25 14.8332 13.086 14.8332 10.4167H13.3332H11.8332C11.8332 11.4292 11.0123 12.25 9.99984 12.25V13.75ZM9.99984 12.5V11C9.67768 11 9.4165 10.7388 9.4165 10.4167H7.9165H6.4165C6.4165 12.3957 8.02083 14 9.99984 14V12.5ZM6.6665 10.4167H5.1665C5.1665 13.086 7.33045 15.25 9.99984 15.25V13.75V12.25C8.98732 12.25 8.1665 11.4292 8.1665 10.4167H6.6665ZM7.9165 10.4167H9.4165C9.4165 10.0945 9.67768 9.83333 9.99984 9.83333V8.33333V6.83333C8.02083 6.83333 6.4165 8.43766 6.4165 10.4167H7.9165ZM9.99984 7.08333V5.58333C7.33045 5.58333 5.1665 7.74733 5.1665 10.4167H6.6665H8.1665C8.1665 9.40417 8.98732 8.58333 9.99984 8.58333V7.08333ZM9.99984 8.33333V9.83333C10.322 9.83333 10.5832 10.0945 10.5832 10.4167H12.0832H13.5832C13.5832 8.43766 11.9788 6.83333 9.99984 6.83333V8.33333ZM13.3332 10.4167H14.8332C14.8332 7.74732 12.6692 5.58333 9.99984 5.58333V7.08333V8.58333C11.0123 8.58333 11.8332 9.40418 11.8332 10.4167H13.3332Z" fill="#F0F4FC" mask="url(#path-1-inside-1_51177_136710)"/>
</svg>
