<svg width="269" height="430" viewBox="0 0 269 430" fill="none" xmlns="http://www.w3.org/2000/svg">
<path d="M155.325 146.816C127.744 179.172 99.1141 210.758 70.3173 242.129C62.1168 251.062 53.8068 259.907 45.7214 268.936C45.5185 269.163 45.9212 269.507 46.1356 269.287C61.0258 253.982 75.2911 238.098 89.6184 222.314C103.933 206.546 118.131 190.681 132.211 174.722C140.232 165.63 148.174 156.474 156.203 147.388C156.64 146.895 155.753 146.314 155.325 146.816Z" fill="white"/>
<path d="M98.7942 148.54C127.37 180.02 156.971 210.698 186.732 241.155C195.207 249.829 203.789 258.41 212.152 267.182C212.362 267.403 211.97 267.76 211.749 267.546C196.388 252.713 181.635 237.281 166.822 221.953C152.023 206.638 137.337 191.224 122.766 175.712C114.465 166.874 106.242 157.97 97.9334 149.139C97.4816 148.66 98.35 148.051 98.7942 148.54Z" fill="white"/>
<path d="M233.292 340.317C232.795 340.358 232.264 340.368 231.696 340.345C216.781 339.734 201.754 340.277 186.755 340.275C182.38 340.274 179.567 336.895 179.575 332.723C179.613 314.591 179.704 296.459 179.704 278.327C179.704 267.238 179.704 256.148 179.704 245.054C179.704 241.16 182.86 238.003 186.754 238.002C202.35 237.998 217.708 238.002 233.282 238.002C237.177 238.002 240.334 241.159 240.334 245.054C240.334 262.916 240.154 280.777 240.141 298.638C240.135 307.436 240.168 316.235 240.283 325.032C240.37 331.609 240.982 339.68 233.292 340.317Z" fill="#324E77"/>
<path d="M187.018 247.033C186.407 259.497 187.114 272.194 186.856 284.751C186.584 297.987 186.243 311.226 186.4 324.466C186.422 324.466 186.445 324.467 186.467 324.467C189.305 324.531 192.142 324.534 194.98 324.519C205.145 298.709 213.759 272.124 225.551 247.128C212.09 247.054 187.024 246.909 187.018 247.033Z" fill="#81F8DE"/>
<path d="M194.979 324.52C200.143 324.493 205.307 324.386 210.47 324.324C214.57 324.275 218.671 324.254 222.77 324.341C226.128 324.412 229.529 325.171 232.883 324.682C233.665 321.274 233.226 317.08 233.343 313.552C233.473 309.614 233.58 305.674 233.58 301.734C233.58 295.538 233.58 289.342 233.58 283.147C233.58 271.508 233.58 259.869 233.58 248.229C233.58 248.177 233.58 247.168 233.58 247.168C232.667 247.168 229.645 247.152 225.549 247.129C213.758 272.125 205.144 298.71 194.979 324.52Z" fill="#33E6BF"/>
<path d="M215.403 335.772H204.636C203.131 335.772 201.911 334.557 201.902 333.052C201.883 329.665 207.134 330.448 209.241 330.52C210.991 330.579 214.831 329.93 216.38 330.481C219.177 331.477 218.34 335.772 215.403 335.772Z" fill="#162A48"/>
<path d="M214.438 243.308C211.468 243.308 208.575 243.314 205.599 243.308C205.067 243.307 204.636 242.875 204.636 242.343C204.636 241.81 205.068 241.378 205.601 241.378H214.437C214.97 241.378 215.402 241.81 215.402 242.343C215.402 242.876 214.971 243.308 214.438 243.308Z" fill="#162A48"/>
<path d="M95.545 355.661C94.979 355.708 94.373 355.719 93.725 355.693C76.72 354.997 40.289 355.616 23.186 355.613C18.197 355.612 14.99 351.759 15 347.003C15.044 326.329 15.147 305.655 15.147 284.981C15.147 272.337 15.147 259.693 15.147 247.043C15.147 242.603 18.746 239.003 23.186 239.002C40.969 238.997 77.776 239.002 95.534 239.002C99.975 239.002 103.575 242.602 103.575 247.043C103.575 267.409 103.369 287.774 103.355 308.139C103.348 318.171 103.385 328.203 103.517 338.233C103.616 345.733 104.314 354.935 95.545 355.661Z" fill="#324E77"/>
<path d="M23.4872 249.299C22.7902 263.511 23.5972 277.988 23.3022 292.304C22.9912 307.396 22.6031 328.28 22.7821 343.376C22.8071 343.377 22.8332 343.377 22.8582 343.378C25.6112 343.44 28.3641 343.452 31.1171 343.446C44.9651 311.668 60.3802 280.428 76.1342 249.376C54.6392 249.29 23.4932 249.175 23.4872 249.299Z" fill="#81F8DE"/>
<path d="M31.1169 343.447C37.4869 343.433 43.858 343.291 50.228 343.215C54.903 343.159 78.8749 343.134 83.5489 343.234C87.3779 343.315 91.2559 344.18 95.0799 343.623C95.9719 339.738 95.471 329.166 95.604 325.144C95.753 320.654 95.875 316.162 95.875 311.669C95.875 304.605 95.875 297.54 95.875 290.476C95.875 277.205 95.875 263.934 95.875 250.663C95.875 250.604 95.875 249.454 95.875 249.454C94.435 249.454 86.38 249.419 76.134 249.377C60.38 280.429 44.9649 311.669 31.1169 343.447Z" fill="#33E6BF"/>
<path d="M64.3259 245.053C60.9389 245.053 57.6409 245.06 54.2479 245.053C53.6419 245.052 53.1499 244.56 53.1499 243.953C53.1499 243.345 53.6429 242.853 54.2499 242.853H64.3249C64.9329 242.853 65.4249 243.345 65.4249 243.953C65.4249 244.561 64.9329 245.053 64.3259 245.053Z" fill="#162A48"/>
<path d="M63.4689 349.637C63.4689 351.946 61.5969 353.818 59.2879 353.818C56.9789 353.818 55.1069 351.946 55.1069 349.637C55.1069 347.328 56.9789 345.456 59.2879 345.456C61.5969 345.456 63.4689 347.328 63.4689 349.637Z" fill="#162A48"/>
<path d="M50.3588 169.906C50.2958 169.152 50.2808 168.346 50.3158 167.484C51.2418 144.85 50.4188 110.659 50.4228 87.896C50.4238 81.256 55.5528 76.987 61.8828 77C89.3998 77.058 116.918 77.196 144.435 77.196C161.264 77.196 178.093 77.196 194.93 77.196C200.84 77.196 205.631 81.986 205.632 87.895C205.638 111.564 205.632 146.256 205.632 169.892C205.632 175.803 200.84 180.594 194.93 180.594C167.823 180.594 140.718 180.32 113.611 180.301C100.259 180.291 86.9068 180.341 73.5558 180.517C63.5738 180.648 51.3258 181.577 50.3588 169.906Z" fill="#36537D"/>
<path d="M36.0749 199.101C36.0009 199.038 35.9829 198.971 36.0249 198.9C37.1219 197.018 36.1459 194.175 36.1519 192.282C36.1529 191.73 42.2259 191.375 49.7209 191.376C82.3019 191.381 114.885 191.392 147.467 191.392C167.394 191.392 187.32 191.392 207.256 191.392C214.253 191.392 219.926 191.79 219.928 192.282C219.935 194.25 219.928 197.135 219.928 199.101C219.928 199.593 214.255 199.991 207.256 199.991C175.16 199.991 143.065 199.968 110.97 199.967C95.1599 199.966 79.3499 199.97 63.5419 199.985C51.7219 199.994 37.2199 200.072 36.0749 199.101Z" fill="#162A48"/>
<path d="M36.0609 191.642C35.9989 191.562 35.983 191.477 36.019 191.386C36.945 188.994 50.42 183.869 50.424 181.463C50.425 180.761 55.554 180.31 61.884 180.311C89.4 180.317 116.919 180.332 144.436 180.332C161.265 180.332 178.094 180.332 194.931 180.332C200.841 180.332 205.632 180.838 205.633 181.463C205.639 183.965 219.931 189.143 219.931 191.641C219.931 192.266 215.14 192.772 209.229 192.772C182.122 192.772 140.718 192.743 113.612 192.741C100.26 192.74 72.6089 192.745 59.2579 192.764C49.2759 192.777 37.0279 192.875 36.0609 191.642Z" fill="#162A48"/>
<path d="M209.228 190.627C195.011 190.627 176.861 190.619 158.904 190.612C142.624 190.604 126.501 190.597 113.611 190.597H109.385C95.0691 190.597 71.3211 190.603 59.2541 190.62L53.9121 190.627C51.3081 190.627 44.9531 190.627 40.8311 190.376C41.8761 189.778 43.0221 189.161 43.9611 188.655C48.4821 186.22 51.1761 184.703 52.1511 182.999C53.5151 182.741 56.8881 182.458 61.8551 182.458L91.9251 182.467C109.429 182.473 126.932 182.479 144.435 182.479H194.929C199.386 182.479 202.578 182.766 203.914 183.022C204.873 184.677 207.457 186.129 211.768 188.444C212.791 188.993 214.151 189.724 215.34 190.421C213.752 190.539 211.682 190.627 209.228 190.627Z" fill="#36537D"/>
<path d="M203.023 188.073C189.894 188.073 173.131 188.066 156.547 188.059C141.512 188.052 126.622 188.046 114.717 188.045H110.814C97.5929 188.045 75.661 188.051 64.517 188.066L59.5829 188.072C57.1779 188.072 51.309 188.072 47.502 187.847C48.467 187.31 49.5249 186.757 50.3929 186.304C54.5679 184.12 57.056 182.759 57.957 181.231C59.217 180.999 62.3319 180.746 66.9189 180.746L94.69 180.754C110.855 180.759 127.02 180.765 143.185 180.765H189.818C193.934 180.765 196.882 181.022 198.116 181.252C199.002 182.736 201.388 184.038 205.37 186.115C206.315 186.608 207.571 187.263 208.669 187.888C207.201 187.995 205.289 188.073 203.023 188.073Z" fill="#162A48"/>
<path d="M135.32 88.05C113.387 87.637 83.036 87.12 61.097 87.357C61.096 87.391 58.951 87.425 58.95 87.459C58.651 99.602 59.03 97.447 59.189 109.589C59.27 115.811 59.306 147.718 59.162 153.939C59.044 159.035 57.787 164.197 58.596 169.286C64.242 170.473 81.751 169.806 87.597 169.984C91.723 170.109 95.85 170.215 99.977 170.279C115.339 142.131 131.633 114.506 149.661 88.125C144.873 88.148 140.09 88.14 135.32 88.05Z" fill="#81F8DE"/>
<path d="M149.66 88.125C131.632 114.507 115.338 142.131 99.9761 170.279C102.377 170.317 104.777 170.344 107.178 170.344C117.445 170.344 127.711 170.344 137.978 170.344C157.265 170.344 176.551 170.344 195.838 170.344C195.924 170.344 197.596 170.344 197.596 170.344C197.596 164.407 198.086 88.307 197.819 88.295C181.901 87.581 165.754 88.05 149.66 88.125Z" fill="#33E6BF"/>
<path d="M205.628 185.32H50.394V186.304H205.628V185.32Z" fill="#36537D"/>
<path d="M201.932 182.587H55.616V183.571H201.932V182.587Z" fill="#36537D"/>
<path d="M124.351 8H129.911V22H127.311V10.18H124.351V8Z" fill="white"/>
<path d="M57.5997 379.8H64.1997V382H53.8797V380.26L59.4397 374.98C60.7997 373.68 61.0397 372.86 61.0397 372.08C61.0397 370.8 60.1597 370.06 58.4397 370.06C57.0797 370.06 55.9397 370.52 55.1597 371.52L53.3397 370.12C54.4197 368.66 56.3597 367.8 58.6597 367.8C61.6997 367.8 63.6597 369.34 63.6597 371.82C63.6597 373.18 63.2797 374.42 61.3397 376.24L57.5997 379.8Z" fill="white"/>
<path d="M211.02 373.78C213.66 374.12 215 375.7 215 377.8C215 380.16 213.22 382.2 209.46 382.2C207.48 382.2 205.5 381.6 204.2 380.58L205.32 378.56C206.32 379.4 207.84 379.94 209.42 379.94C211.28 379.94 212.38 379.12 212.38 377.82C212.38 376.56 211.46 375.74 209.34 375.74H208.06V373.96L211.24 370.18H204.88V368H214.42V369.74L211.02 373.78Z" fill="white"/>
<path d="M122.287 43H120.565L120.551 36.504L117.331 41.88H116.519L113.299 36.588V43H111.563V33.2H113.061L116.953 39.696L120.775 33.2H122.273L122.287 43ZM127.622 35.44C129.778 35.44 131.024 36.462 131.024 38.618V43H129.372V42.09C128.952 42.734 128.14 43.098 127.02 43.098C125.312 43.098 124.234 42.16 124.234 40.858C124.234 39.612 125.074 38.632 127.342 38.632H129.274V38.52C129.274 37.498 128.658 36.896 127.412 36.896C126.572 36.896 125.704 37.176 125.144 37.638L124.458 36.364C125.256 35.748 126.418 35.44 127.622 35.44ZM127.384 41.824C128.238 41.824 128.98 41.432 129.274 40.662V39.794H127.468C126.278 39.794 125.956 40.242 125.956 40.788C125.956 41.418 126.488 41.824 127.384 41.824ZM134.152 34.292C133.508 34.292 133.032 33.83 133.032 33.242C133.032 32.654 133.508 32.192 134.152 32.192C134.796 32.192 135.272 32.626 135.272 33.2C135.272 33.816 134.81 34.292 134.152 34.292ZM133.27 43V35.524H135.02V43H133.27ZM141.559 35.44C143.351 35.44 144.681 36.462 144.681 38.716V43H142.931V38.94C142.931 37.61 142.273 36.966 141.153 36.966C139.907 36.966 139.067 37.722 139.067 39.22V43H137.317V35.524H138.983V36.49C139.557 35.804 140.467 35.44 141.559 35.44Z" fill="white"/>
<path d="M100.659 63L99.9514 61.38H96.2914L95.5714 63H94.4314L97.5514 56.184H98.7034L101.835 63H100.659ZM96.6994 60.456H99.5434L98.1274 57.24L96.6994 60.456ZM113.701 63H112.585L112.573 58.272L110.221 62.184H109.681L107.329 58.38V63H106.213V56.184H107.209L109.969 60.768L112.681 56.184H113.689L113.701 63ZM121.085 63L120.377 61.38H116.717L115.997 63H114.857L117.977 56.184H119.129L122.261 63H121.085ZM117.125 60.456H119.969L118.553 57.24L117.125 60.456ZM126.359 63.096C124.247 63.096 122.663 61.608 122.663 59.592C122.663 57.576 124.247 56.088 126.359 56.088C127.523 56.088 128.423 56.436 129.047 57.156L128.303 57.912C127.775 57.348 127.139 57.096 126.395 57.096C124.919 57.096 123.839 58.14 123.839 59.592C123.839 61.032 124.919 62.088 126.395 62.088C127.139 62.088 127.775 61.824 128.303 61.26L129.047 62.016C128.411 62.748 127.511 63.096 126.359 63.096ZM135.399 59.46C136.203 59.688 136.671 60.264 136.671 61.152C136.671 62.316 135.759 63 133.971 63H130.611V56.184H133.779C135.411 56.184 136.311 56.868 136.311 57.948C136.311 58.668 135.963 59.184 135.399 59.46ZM133.659 57.072H131.775V59.112H133.659C134.607 59.112 135.147 58.752 135.147 58.092C135.147 57.408 134.607 57.072 133.659 57.072ZM133.911 62.112C134.943 62.112 135.495 61.776 135.495 61.056C135.495 60.324 134.943 60 133.911 60H131.775V62.112H133.911ZM141.406 63.096C139.282 63.096 137.698 61.608 137.698 59.592C137.698 57.576 139.282 56.088 141.406 56.088C143.542 56.088 145.114 57.576 145.114 59.592C145.114 61.608 143.542 63.096 141.406 63.096ZM141.406 62.088C142.858 62.088 143.938 61.044 143.938 59.592C143.938 58.14 142.858 57.096 141.406 57.096C139.954 57.096 138.874 58.14 138.874 59.592C138.874 61.044 139.954 62.088 141.406 62.088ZM149.879 63.096C147.755 63.096 146.171 61.608 146.171 59.592C146.171 57.576 147.755 56.088 149.879 56.088C152.015 56.088 153.587 57.576 153.587 59.592C153.587 61.608 152.015 63.096 149.879 63.096ZM149.879 62.088C151.331 62.088 152.411 61.044 152.411 59.592C152.411 58.14 151.331 57.096 149.879 57.096C148.427 57.096 147.347 58.14 147.347 59.592C147.347 61.044 148.427 62.088 149.879 62.088ZM160.115 63L157.607 60.06L156.443 61.236V63H155.279V56.184H156.443V59.796L160.007 56.184H161.303L158.387 59.256L161.495 63H160.115Z" fill="white"/>
<path d="M6.42303 423L5.71503 421.38H2.05503L1.33503 423H0.195031L3.31503 416.184H4.46703L7.59903 423H6.42303ZM2.46303 420.456H5.30703L3.89103 417.24L2.46303 420.456ZM13.6498 416.184H14.8138V423H13.8538L9.91784 418.188V423H8.75384V416.184H9.71384L13.6498 421.02V416.184ZM22.7725 416.184L19.9645 420.78V423H18.8005V420.744L16.0045 416.184H17.2405L19.4125 419.676L21.5725 416.184H22.7725ZM27.1992 423V416.184H28.3632V423H27.1992ZM33.4636 416.184C35.2516 416.184 36.3796 417.06 36.3796 418.584C36.3796 420.108 35.2516 420.996 33.4636 420.996H31.8436V423H30.6796V416.184H33.4636ZM33.3916 420.024C34.5796 420.024 35.2036 419.508 35.2036 418.584C35.2036 417.66 34.5796 417.144 33.3916 417.144H31.8436V420.024H33.3916ZM42.6691 423L41.9611 421.38H38.3011L37.5811 423H36.4411L39.5611 416.184H40.7131L43.8451 423H42.6691ZM38.7091 420.456H41.5531L40.1371 417.24L38.7091 420.456ZM44.9999 423V416.184H47.9639C50.2679 416.184 51.7319 417.528 51.7319 419.592C51.7319 421.656 50.2679 423 47.9639 423H44.9999ZM46.1639 422.028H47.9159C49.5839 422.028 50.5559 421.092 50.5559 419.592C50.5559 418.08 49.5839 417.144 47.9159 417.144H46.1639V422.028ZM59.7204 423.096C57.5964 423.096 56.0124 421.608 56.0124 419.592C56.0124 417.576 57.5964 416.088 59.7204 416.088C61.8564 416.088 63.4284 417.576 63.4284 419.592C63.4284 421.608 61.8564 423.096 59.7204 423.096ZM59.7204 422.088C61.1724 422.088 62.2524 421.044 62.2524 419.592C62.2524 418.14 61.1724 417.096 59.7204 417.096C58.2684 417.096 57.1884 418.14 57.1884 419.592C57.1884 421.044 58.2684 422.088 59.7204 422.088ZM70.941 423H69.681L68.217 420.96C68.121 420.972 68.013 420.972 67.905 420.972H66.285V423H65.121V416.184H67.905C69.693 416.184 70.821 417.06 70.821 418.584C70.821 419.64 70.269 420.384 69.321 420.744L70.941 423ZM67.833 420.024C69.021 420.024 69.645 419.508 69.645 418.584C69.645 417.66 69.021 417.144 67.833 417.144H66.285V420.024H67.833ZM75.9023 423V416.184H77.0663V423H75.9023ZM82.1668 416.184C83.9548 416.184 85.0828 417.06 85.0828 418.584C85.0828 420.108 83.9548 420.996 82.1668 420.996H80.5468V423H79.3828V416.184H82.1668ZM82.0948 420.024C83.2828 420.024 83.9068 419.508 83.9068 418.584C83.9068 417.66 83.2828 417.144 82.0948 417.144H80.5468V420.024H82.0948ZM86.8593 423V416.184H88.0233V419.064H91.7553V416.184H92.9193V423H91.7553V420.024H88.0233V423H86.8593ZM98.3219 423.096C96.1979 423.096 94.6139 421.608 94.6139 419.592C94.6139 417.576 96.1979 416.088 98.3219 416.088C100.458 416.088 102.03 417.576 102.03 419.592C102.03 421.608 100.458 423.096 98.3219 423.096ZM98.3219 422.088C99.7739 422.088 100.854 421.044 100.854 419.592C100.854 418.14 99.7739 417.096 98.3219 417.096C96.8699 417.096 95.7899 418.14 95.7899 419.592C95.7899 421.044 96.8699 422.088 98.3219 422.088ZM108.619 416.184H109.783V423H108.823L104.887 418.188V423H103.723V416.184H104.683L108.619 421.02V416.184ZM113.277 422.028H117.225V423H112.113V416.184H117.093V417.144H113.277V419.064H116.673V420.012H113.277V422.028Z" fill="white"/>
<path d="M157.423 423L156.715 421.38H153.055L152.335 423H151.195L154.315 416.184H155.467L158.599 423H157.423ZM153.463 420.456H156.307L154.891 417.24L153.463 420.456ZM164.65 416.184H165.814V423H164.854L160.918 418.188V423H159.754V416.184H160.714L164.65 421.02V416.184ZM173.772 416.184L170.964 420.78V423H169.8V420.744L167.004 416.184H168.24L170.412 419.676L172.572 416.184H173.772ZM178.199 423V416.184H179.363V423H178.199ZM184.464 416.184C186.252 416.184 187.38 417.06 187.38 418.584C187.38 420.108 186.252 420.996 184.464 420.996H182.844V423H181.68V416.184H184.464ZM184.392 420.024C185.58 420.024 186.204 419.508 186.204 418.584C186.204 417.66 185.58 417.144 184.392 417.144H182.844V420.024H184.392ZM193.669 423L192.961 421.38H189.301L188.581 423H187.441L190.561 416.184H191.713L194.845 423H193.669ZM189.709 420.456H192.553L191.137 417.24L189.709 420.456ZM196 423V416.184H198.964C201.268 416.184 202.732 417.528 202.732 419.592C202.732 421.656 201.268 423 198.964 423H196ZM197.164 422.028H198.916C200.584 422.028 201.556 421.092 201.556 419.592C201.556 418.08 200.584 417.144 198.916 417.144H197.164V422.028ZM210.72 423.096C208.596 423.096 207.012 421.608 207.012 419.592C207.012 417.576 208.596 416.088 210.72 416.088C212.856 416.088 214.428 417.576 214.428 419.592C214.428 421.608 212.856 423.096 210.72 423.096ZM210.72 422.088C212.172 422.088 213.252 421.044 213.252 419.592C213.252 418.14 212.172 417.096 210.72 417.096C209.268 417.096 208.188 418.14 208.188 419.592C208.188 421.044 209.268 422.088 210.72 422.088ZM221.941 423H220.681L219.217 420.96C219.121 420.972 219.013 420.972 218.905 420.972H217.285V423H216.121V416.184H218.905C220.693 416.184 221.821 417.06 221.821 418.584C221.821 419.64 221.269 420.384 220.321 420.744L221.941 423ZM218.833 420.024C220.021 420.024 220.645 419.508 220.645 418.584C220.645 417.66 220.021 417.144 218.833 417.144H217.285V420.024H218.833ZM226.902 423V416.184H228.066V423H226.902ZM233.167 416.184C234.955 416.184 236.083 417.06 236.083 418.584C236.083 420.108 234.955 420.996 233.167 420.996H231.547V423H230.383V416.184H233.167ZM233.095 420.024C234.283 420.024 234.907 419.508 234.907 418.584C234.907 417.66 234.283 417.144 233.095 417.144H231.547V420.024H233.095ZM237.859 423V416.184H239.023V419.064H242.755V416.184H243.919V423H242.755V420.024H239.023V423H237.859ZM249.322 423.096C247.198 423.096 245.614 421.608 245.614 419.592C245.614 417.576 247.198 416.088 249.322 416.088C251.458 416.088 253.03 417.576 253.03 419.592C253.03 421.608 251.458 423.096 249.322 423.096ZM249.322 422.088C250.774 422.088 251.854 421.044 251.854 419.592C251.854 418.14 250.774 417.096 249.322 417.096C247.87 417.096 246.79 418.14 246.79 419.592C246.79 421.044 247.87 422.088 249.322 422.088ZM259.619 416.184H260.783V423H259.823L255.887 418.188V423H254.723V416.184H255.683L259.619 421.02V416.184ZM264.277 422.028H268.225V423H263.113V416.184H268.093V417.144H264.277V419.064H267.673V420.012H264.277V422.028Z" fill="white"/>
<path d="M49.6566 393.2C52.2326 393.2 53.8286 394.516 53.8286 396.686C53.8286 398.842 52.2326 400.172 49.6566 400.172H47.4446V403H45.6246V393.2H49.6566ZM49.5726 398.632C51.1686 398.632 51.9946 397.918 51.9946 396.686C51.9946 395.454 51.1686 394.74 49.5726 394.74H47.4446V398.632H49.5726ZM58.2657 395.44C60.4217 395.44 61.6677 396.462 61.6677 398.618V403H60.0157V402.09C59.5957 402.734 58.7837 403.098 57.6637 403.098C55.9557 403.098 54.8777 402.16 54.8777 400.858C54.8777 399.612 55.7177 398.632 57.9857 398.632H59.9177V398.52C59.9177 397.498 59.3017 396.896 58.0557 396.896C57.2157 396.896 56.3477 397.176 55.7877 397.638L55.1017 396.364C55.8997 395.748 57.0617 395.44 58.2657 395.44ZM58.0277 401.824C58.8817 401.824 59.6237 401.432 59.9177 400.662V399.794H58.1117C56.9217 399.794 56.5997 400.242 56.5997 400.788C56.5997 401.418 57.1317 401.824 58.0277 401.824ZM64.7956 394.292C64.1516 394.292 63.6756 393.83 63.6756 393.242C63.6756 392.654 64.1516 392.192 64.7956 392.192C65.4396 392.192 65.9156 392.626 65.9156 393.2C65.9156 393.816 65.4536 394.292 64.7956 394.292ZM63.9136 403V395.524H65.6636V403H63.9136ZM69.6265 396.616C70.1305 395.832 71.0405 395.44 72.2865 395.44V397.106C72.1325 397.078 72.0065 397.064 71.8805 397.064C70.5505 397.064 69.7105 397.848 69.7105 399.374V403H67.9605V395.524H69.6265V396.616Z" fill="white"/>
<path d="M200.657 393.2C203.233 393.2 204.829 394.516 204.829 396.686C204.829 398.842 203.233 400.172 200.657 400.172H198.445V403H196.625V393.2H200.657ZM200.573 398.632C202.169 398.632 202.995 397.918 202.995 396.686C202.995 395.454 202.169 394.74 200.573 394.74H198.445V398.632H200.573ZM209.266 395.44C211.422 395.44 212.668 396.462 212.668 398.618V403H211.016V402.09C210.596 402.734 209.784 403.098 208.664 403.098C206.956 403.098 205.878 402.16 205.878 400.858C205.878 399.612 206.718 398.632 208.986 398.632H210.918V398.52C210.918 397.498 210.302 396.896 209.056 396.896C208.216 396.896 207.348 397.176 206.788 397.638L206.102 396.364C206.9 395.748 208.062 395.44 209.266 395.44ZM209.028 401.824C209.882 401.824 210.624 401.432 210.918 400.662V399.794H209.112C207.922 399.794 207.6 400.242 207.6 400.788C207.6 401.418 208.132 401.824 209.028 401.824ZM215.796 394.292C215.152 394.292 214.676 393.83 214.676 393.242C214.676 392.654 215.152 392.192 215.796 392.192C216.44 392.192 216.916 392.626 216.916 393.2C216.916 393.816 216.454 394.292 215.796 394.292ZM214.914 403V395.524H216.664V403H214.914ZM220.627 396.616C221.131 395.832 222.041 395.44 223.287 395.44V397.106C223.133 397.078 223.007 397.064 222.881 397.064C221.551 397.064 220.711 397.848 220.711 399.374V403H218.961V395.524H220.627V396.616Z" fill="white"/>
</svg>
