<svg width="32" height="32" viewBox="0 0 32 32" fill="none" xmlns="http://www.w3.org/2000/svg">
<path d="M23.7104 7.5H26.7095L20.4683 13.6756C18.208 15.9108 14.5436 15.9108 12.2817 13.6756L6.03809 7.5H9.03954L13.7812 12.1912C14.4721 12.8717 15.4032 13.2531 16.3732 13.2531C17.3432 13.2531 18.2742 12.8717 18.9651 12.1912L23.7104 7.5Z" fill="white"/>
<path d="M9.00105 24.6792H6L12.2817 18.4655C14.5419 16.2303 18.2064 16.2303 20.4683 18.4655L26.75 24.6792H23.751L18.9688 19.9499C18.2779 19.2694 17.3468 18.8879 16.3768 18.8879C15.4068 18.8879 14.4758 19.2694 13.7849 19.9499L9.00105 24.6792Z" fill="white"/>
</svg>
