<svg width="21" height="22" viewBox="0 0 21 22" fill="none" xmlns="http://www.w3.org/2000/svg">
<g clip-path="url(#clip0_49019_123670)">
<path d="M4.54526 3.36976L10.3833 0L16.2214 3.36976L14.075 4.61464L10.3833 2.48976L6.69161 4.61464L4.54526 3.36976ZM16.2214 7.61951L14.075 6.37464L10.3833 8.49952L6.69161 6.37464L4.54526 7.61951V10.1093L8.23696 12.2341V16.4839L10.3833 17.7288L12.5297 16.4839V12.2341L16.2214 10.1093V7.61951ZM16.2214 14.359V11.8693L14.075 13.1141V15.6039L16.2214 14.359ZM17.7452 15.239L14.0536 17.3639V19.8536L19.8916 16.4839V9.74435L17.7452 10.9893V15.239ZM15.599 5.49464L17.7452 6.73951V9.22928L19.8916 7.98439V5.49464L17.7452 4.24976L15.599 5.49464ZM8.23696 18.2654V20.7552L10.3833 22L12.5297 20.7552V18.2654L10.3833 19.5102L8.23696 18.2654ZM4.54526 14.359L6.69161 15.6039V13.1141L4.54526 11.8693V14.359ZM8.23696 5.49464L10.3833 6.73951L12.5297 5.49464L10.3833 4.24976L8.23696 5.49464ZM3.02134 6.73951L5.16769 5.49464L3.02134 4.24976L0.875 5.49464V7.98439L3.02134 9.22928V6.73951ZM3.02134 10.9893L0.875 9.74435V16.4839L6.71304 19.8536V17.3639L3.02134 15.239V10.9893Z" fill="#02122B"/>
</g>
<defs>
<clipPath id="clip0_49019_123670">
<rect width="19.25" height="22" fill="white" transform="translate(0.875)"/>
</clipPath>
</defs>
</svg>
