<svg width="32" height="32" viewBox="0 0 32 32" fill="none" xmlns="http://www.w3.org/2000/svg">
<g clip-path="url(#clip0_48948_109733)">
<path d="M11.8548 9.01562H19.4572L20.3734 12.8909H10.9746L11.8548 9.01562ZM17.3268 15.6396L18.1379 13.4768H13.2179L14.0459 15.6396L13.7925 18.0679H15.6701L17.5619 18.0573L17.3268 15.6396Z" fill="white"/>
<path d="M20.3893 14.2109L18.1644 15.6601V18.2338L16.4625 19.8665V20.6345L18.1023 22.1443H19.4731L22.9291 16.1232L20.3893 14.2109ZM13.2077 15.6601L10.9545 14.2286L8.40625 16.1232L11.8799 22.1613H13.2684L14.9081 20.6345V19.8665L13.207 18.2338L13.2077 15.6601Z" fill="white"/>
<path fill-rule="evenodd" clip-rule="evenodd" d="M5.59936 9.66097L15.6603 3.85156L25.7474 9.67509V21.3207L15.6624 27.1457L15.6363 27.1316L5.57324 21.3222V9.67509L5.59936 9.66097ZM15.6603 5.04027L6.60383 10.2709V20.7292L15.6603 25.9584L24.7182 20.7292V10.2716L15.6603 5.04027Z" fill="white"/>
</g>
<defs>
<clipPath id="clip0_48948_109733">
<rect width="20.4706" height="24" fill="white" transform="translate(5.57324 3.5)"/>
</clipPath>
</defs>
</svg>
