<svg width="24" height="24" viewBox="0 0 24 24" fill="none" xmlns="http://www.w3.org/2000/svg">
<path id="Vector" d="M17.3992 10.7998H13.7992C13.468 10.7998 13.1992 10.531 13.1992 10.1998V5.3998C13.1992 5.0686 13.468 4.7998 13.7992 4.7998H15.5992L17.9992 7.1998V10.1998C17.9992 10.531 17.7304 10.7998 17.3992 10.7998Z" fill="#F0F4FC" stroke="#F0F4FC" stroke-width="2" stroke-linecap="round" stroke-linejoin="round"/>
<path id="Vector_2" d="M17.3992 20.4004H13.7992C13.468 20.4004 13.1992 20.1316 13.1992 19.8004V15.0004C13.1992 14.6692 13.468 14.4004 13.7992 14.4004H15.5992L17.9992 16.8004V19.8004C17.9992 20.1316 17.7304 20.4004 17.3992 20.4004Z" fill="#F0F4FC" stroke="#F0F4FC" stroke-width="2" stroke-linecap="round" stroke-linejoin="round"/>
<path id="Vector_3" d="M6 3.59961V8.39961H9.6" stroke="#F0F4FC" stroke-width="2" stroke-linecap="round" stroke-linejoin="round"/>
<path id="Vector_4" d="M6 8.40039V15.6004C6 16.9264 7.074 18.0004 8.4 18.0004H9.6" stroke="#F0F4FC" stroke-width="2" stroke-linecap="round" stroke-linejoin="round"/>
</svg>
