<svg width="880" height="880" viewBox="0 0 880 880" fill="none" xmlns="http://www.w3.org/2000/svg">
<circle cx="401" cy="401" r="401" fill="#E1E1E1"/>
<g clip-path="url(#clip0_2871_10657)">
<path d="M401.578 580.448L212.12 487.948L401.406 742.667L429.844 704.396V566.604L401.578 580.448Z" fill="#8C8C8C"/>
<path d="M401.406 60L184 450.099H618.818L401.406 60Z" fill="#8C8C8C"/>
<path d="M618.818 450.677L401.406 60V450.677H618.818Z" fill="#343434"/>
<path d="M401.406 344.161L400.552 343.755L184.021 450.422H184.214L400.745 557.089L401.599 556.682L429.844 542.859V358.089L401.406 344.161Z" fill="#393939"/>
<path d="M401.578 580.448L401.406 742.667L590.828 487.776L401.578 580.448Z" fill="#3C3C3B"/>
<path d="M618.412 450.422L401.406 344.161L400.552 343.755L400.745 557.089L401.599 556.682L618.604 450.422H618.412Z" fill="#141414"/>
</g>
<g clip-path="url(#clip1_2871_10657)">
<path d="M657 861C769.666 861 861 769.666 861 657C861 544.334 769.666 453 657 453C544.334 453 453 544.334 453 657C453 769.666 544.334 861 657 861Z" fill="#FF0420"/>
<path d="M597.475 711.1C586.861 711.553 576.387 708.545 567.631 702.529C563.848 699.64 560.826 695.872 558.827 691.553C556.827 687.233 555.909 682.492 556.154 677.738C556.2 674.968 556.456 672.205 556.92 669.474C558.246 662.117 560.133 653.291 562.581 642.998C569.52 614.939 587.425 600.91 616.297 600.91C623.534 600.792 630.719 602.146 637.416 604.89C643.361 607.22 648.476 611.269 652.107 616.521C655.769 621.932 657.641 628.356 657.458 634.888C657.406 637.606 657.15 640.317 656.692 642.998C655.161 652.078 653.325 660.904 651.184 669.474C647.617 683.451 641.445 693.908 632.667 700.847C623.898 707.682 612.168 711.1 597.475 711.1ZM599.619 689.061C604.92 689.208 610.091 687.412 614.16 684.012C618.657 679.934 621.716 674.512 622.882 668.554C625.229 658.968 627.013 650.601 628.233 643.456C628.643 641.286 628.848 639.082 628.845 636.874C628.845 627.588 623.999 622.947 614.307 622.949C608.964 622.821 603.751 624.612 599.616 627.999C595.202 632.12 592.202 637.529 591.044 643.456C589.207 650.291 587.371 658.658 585.536 668.554C585.121 670.672 584.916 672.825 584.924 674.982C584.924 684.368 589.823 689.061 599.619 689.061Z" fill="white"/>
<path d="M664.508 709.572C664.022 709.6 663.535 709.519 663.085 709.333C662.634 709.148 662.232 708.864 661.906 708.502C661.397 707.679 661.232 706.689 661.448 705.746L682.567 606.268C682.754 605.17 683.352 604.185 684.239 603.512C685.059 602.835 686.085 602.458 687.149 602.442H727.858C737.443 601.971 746.944 604.427 755.101 609.481C758.454 611.678 761.178 614.711 763.003 618.28C764.827 621.85 765.691 625.833 765.508 629.838C765.493 632.517 765.185 635.186 764.588 637.797C762.901 648.109 757.38 657.402 749.131 663.816C741.479 669.427 730.971 672.233 717.605 672.233H696.947L689.908 705.749C689.72 706.847 689.122 707.832 688.235 708.505C687.416 709.181 686.391 709.558 685.329 709.575L664.508 709.572ZM718.685 651.107C722.695 651.196 726.622 649.959 729.858 647.589C733.187 645.144 735.481 641.541 736.286 637.49C736.57 635.975 736.723 634.439 736.744 632.898C736.831 631.653 736.643 630.404 736.193 629.24C735.744 628.076 735.043 627.026 734.142 626.163C731.588 624.276 728.426 623.404 725.266 623.715H706.903L701.087 651.107H718.685Z" fill="white"/>
</g>
<defs>
<clipPath id="clip0_2871_10657">
<rect width="682.667" height="682.667" fill="white" transform="translate(60 60)"/>
</clipPath>
<clipPath id="clip1_2871_10657">
<rect width="408" height="408" fill="white" transform="translate(453 453)"/>
</clipPath>
</defs>
</svg>
