<svg width="28" height="28" viewBox="0 0 28 28" fill="none" xmlns="http://www.w3.org/2000/svg">
<g clip-path="url(#clip0_49019_123739)">
<path d="M14.0281 1.78979C12.5169 1.78979 11.2915 7.27113 11.2915 14.0328C11.2915 20.7944 12.5169 26.2757 14.0281 26.2757C15.5394 26.2757 16.7648 20.7944 16.7648 14.0328C16.7648 7.27113 15.5394 1.78979 14.0281 1.78979ZM14.2171 25.5848C14.0443 25.8153 13.8715 25.6423 13.8715 25.6423C13.1755 24.8359 12.8275 23.3378 12.8275 23.3378C11.6101 19.4201 11.8999 11.0085 11.8999 11.0085C12.472 4.33054 13.5127 2.753 13.8669 2.40278C13.903 2.36703 13.9506 2.34519 14.0013 2.34109C14.052 2.337 14.1025 2.35091 14.144 2.38038C14.6578 2.74449 15.0888 4.26726 15.0888 4.26726C16.3615 8.99158 16.2462 13.4278 16.2462 13.4278C16.3615 17.288 15.6085 21.609 15.6085 21.609C15.0289 24.8928 14.2171 25.5848 14.2171 25.5848Z" fill="#02122B"/>
<path d="M24.6482 7.93533C23.8958 6.62402 18.5319 8.28902 12.6641 11.6538C6.79623 15.0185 2.65711 18.8094 3.40898 20.1202C4.16084 21.4309 9.52525 19.7665 15.3931 16.4017C21.261 13.037 25.4001 9.24608 24.6482 7.93533ZM4.10316 19.9403C3.81509 19.904 3.88017 19.6672 3.88017 19.6672C4.23353 18.6625 5.35802 17.615 5.35802 17.615C8.15167 14.6094 15.5926 10.6749 15.5926 10.6749C21.6691 7.84774 23.5565 7.96702 24.0353 8.09885C24.0845 8.11256 24.1272 8.14323 24.1559 8.18542C24.1846 8.22761 24.1974 8.2786 24.1921 8.32935C24.1346 8.95655 23.0254 10.0878 23.0254 10.0878C19.5632 13.544 15.6577 15.6521 15.6577 15.6521C12.3667 17.6737 8.24396 19.1699 8.24396 19.1699C5.10692 20.3004 4.10327 19.9403 4.10327 19.9403H4.10316Z" fill="#02122B"/>
<path d="M24.6223 20.1633C25.3805 18.8554 21.2518 15.0472 15.4046 11.6571C9.55731 8.26705 4.19414 6.58144 3.43656 7.89151C2.67898 9.20159 6.80701 13.0076 12.6576 16.3977C18.5082 19.7877 23.8647 21.4734 24.6223 20.1633ZM3.939 8.39686C3.827 8.13131 4.06343 8.06736 4.06343 8.06736C5.11019 7.86967 6.58054 8.32014 6.58054 8.32014C10.5807 9.23105 17.7135 13.699 17.7135 13.699C23.2052 17.5419 24.0475 19.2345 24.1737 19.715C24.1865 19.7643 24.1815 19.8165 24.1596 19.8625C24.1377 19.9085 24.1002 19.9452 24.0538 19.9662C23.4812 20.2284 21.9474 19.8378 21.9474 19.8378C17.2202 18.5703 13.4396 16.2479 13.4396 16.2479C10.0427 14.4158 6.68381 11.5967 6.68381 11.5967C4.13153 9.44777 3.93978 8.39977 3.93978 8.39977L3.939 8.39686Z" fill="#02122B"/>
<path d="M13.9997 15.4388C14.7951 15.4388 15.44 14.7939 15.44 13.9984C15.44 13.203 14.7951 12.5581 13.9997 12.5581C13.2042 12.5581 12.5593 13.203 12.5593 13.9984C12.5593 14.7939 13.2042 15.4388 13.9997 15.4388Z" fill="#02122B"/>
<path d="M19.9052 9.3346C20.3666 9.3346 20.7407 8.94769 20.7407 8.4704C20.7407 7.99312 20.3666 7.6062 19.9052 7.6062C19.4439 7.6062 19.0698 7.99312 19.0698 8.4704C19.0698 8.94769 19.4439 9.3346 19.9052 9.3346Z" fill="#02122B"/>
<path d="M6.19333 12.2682C6.65471 12.2682 7.02874 11.8813 7.02874 11.404C7.02874 10.9267 6.65471 10.5398 6.19333 10.5398C5.73194 10.5398 5.35791 10.9267 5.35791 11.404C5.35791 11.8813 5.73194 12.2682 6.19333 12.2682Z" fill="#02122B"/>
<path d="M12.2998 22.8678C12.7612 22.8678 13.1352 22.4809 13.1352 22.0036C13.1352 21.5263 12.7612 21.1394 12.2998 21.1394C11.8384 21.1394 11.4644 21.5263 11.4644 22.0036C11.4644 22.4809 11.8384 22.8678 12.2998 22.8678Z" fill="#02122B"/>
</g>
<defs>
<clipPath id="clip0_49019_123739">
<rect width="28.0003" height="28.0003" fill="white" transform="translate(-0.000244141 -0.000244141)"/>
</clipPath>
</defs>
</svg>
