<svg width="208" height="229" viewBox="0 0 208 229" fill="none" xmlns="http://www.w3.org/2000/svg">
<path d="M144.208 228.493H146.773V161.263L182.28 133.418V53.712L163.419 38.8404V0H160.854V39.6782L179.715 54.5508V132.58L144.208 160.425V228.493Z" fill="#33E6BF" fill-opacity="0.28"/>
<path d="M120.423 228.493H122.987V155.509L148.429 135.449V69.5909L152.925 66.0447V0H150.361V65.2078L145.865 68.7521V134.611L120.423 154.67V228.493Z" fill="#33E6BF" fill-opacity="0.28"/>
<path d="M91.5104 228.493H94.0757V132.462L79.919 121.3V75.415L87.1507 69.7118V0H84.5864V68.875L77.3538 74.5783V122.139L91.5104 133.3V228.493Z" fill="#33E6BF" fill-opacity="0.28"/>
<path d="M69.9758 228.493H72.5401V158.696L41.2025 133.987V67.1141L24.0642 53.6003V21.4158H21.5V54.4391L38.6383 67.9519V134.825L39.013 135.122L69.9758 159.534V228.493Z" fill="#33E6BF" fill-opacity="0.28"/>
<path d="M60.0063 228.493H62.5716V163.226L10.4805 122.152L8.66467 123.583L60.0063 164.064V228.493Z" fill="#33E6BF" fill-opacity="0.28"/>
<path d="M77.7285 75.7116L79.5443 74.2817L70.2023 66.917V0H67.6371V67.7548L77.7285 75.7116Z" fill="#33E6BF" fill-opacity="0.28"/>
<path d="M93.7009 133.596L106.201 123.739V86.2823H103.636V122.902L91.8851 132.167L93.7009 133.596Z" fill="#33E6BF" fill-opacity="0.28"/>
<path d="M146.24 69.8863L148.056 68.4555L133.42 56.9169V15.297H130.856V57.7557L146.24 69.8863Z" fill="#33E6BF" fill-opacity="0.28"/>
<path d="M181.906 54.8463L194.711 44.7478V20.3961H192.147V43.91L180.09 53.4164L181.906 54.8463Z" fill="#33E6BF" fill-opacity="0.28"/>
<path d="M181.906 133.714L202.396 117.615V95.8386H199.831V116.778L180.09 132.283L181.906 133.714Z" fill="#33E6BF" fill-opacity="0.28"/>
<path d="M39.013 115.561L40.8288 114.13L12.5308 91.82V60.7963H9.96655V92.6578L39.013 115.561Z" fill="#33E6BF" fill-opacity="0.28"/>
<path d="M40.8268 68.2484L48.7937 61.9683V0H46.2284V61.1295L39.014 66.8175L40.8268 68.2484Z" fill="#33E6BF" fill-opacity="0.28"/>
<path d="M105.25 228.493H107.814V139.854L125.361 126.019V74.2126L108.968 61.2889V0H106.403V62.1267L122.796 75.0515V125.181L105.25 139.015V228.493Z" fill="#33E6BF" fill-opacity="0.28"/>
<path d="M194.712 91.6871C194.712 88.3581 197.531 85.6497 200.997 85.6497C204.463 85.6497 207.283 88.3581 207.283 91.6871C207.283 95.016 204.464 97.7234 200.997 97.7234C197.532 97.7234 194.712 95.016 194.712 91.6871ZM205.097 91.6871C205.097 89.5676 203.258 87.8432 200.997 87.8432C198.735 87.8432 196.897 89.5676 196.897 91.6871C196.897 93.8055 198.736 95.5299 200.997 95.5299C203.257 95.5299 205.097 93.8045 205.097 91.6871Z" fill="#33E6BF" fill-opacity="0.28"/>
<path d="M187.011 15.7967C187.011 12.4677 189.83 9.75928 193.296 9.75928C196.762 9.75928 199.582 12.4677 199.582 15.7967C199.582 19.1256 196.763 21.833 193.296 21.833C189.83 21.833 187.011 19.1256 187.011 15.7967ZM197.397 15.7967C197.397 13.6772 195.558 11.9528 193.296 11.9528C191.035 11.9528 189.196 13.6772 189.196 15.7967C189.196 17.9151 191.035 19.6395 193.296 19.6395C195.557 19.6385 197.397 17.9151 197.397 15.7967Z" fill="#33E6BF" fill-opacity="0.28"/>
<path d="M0 119.676C0 116.347 2.81915 113.639 6.28519 113.639C9.75123 113.639 12.5714 116.347 12.5714 119.676C12.5714 123.005 9.75123 125.713 6.28519 125.713C2.81915 125.714 0 123.006 0 119.676ZM10.3859 119.676C10.3859 117.557 8.5468 115.832 6.28519 115.832C4.0246 115.832 2.18545 117.557 2.18545 119.676C2.18545 121.795 4.0246 123.519 6.28519 123.519C8.54578 123.519 10.3859 121.795 10.3859 119.676Z" fill="#33E6BF" fill-opacity="0.28"/>
<path d="M4.75879 56.0568C4.75879 52.7279 7.57792 50.0194 11.044 50.0194C14.51 50.0194 17.3292 52.7279 17.3292 56.0568C17.3292 59.3857 14.51 62.0932 11.044 62.0932C7.57792 62.0942 4.75879 59.3868 4.75879 56.0568ZM15.1447 56.0568C15.1447 53.9374 13.3056 52.214 11.044 52.214C8.78337 52.214 6.94422 53.9384 6.94422 56.0568C6.94422 58.1752 8.78337 59.8996 11.044 59.8996C13.3046 59.8996 15.1447 58.1752 15.1447 56.0568Z" fill="#33E6BF" fill-opacity="0.28"/>
<path d="M16.6752 17.3688C16.6752 14.0399 19.4943 11.3314 22.9603 11.3314C26.4264 11.3314 29.2465 14.0399 29.2465 17.3688C29.2465 20.6977 26.4274 23.4052 22.9603 23.4052C19.4943 23.4052 16.6752 20.6977 16.6752 17.3688ZM27.0611 17.3688C27.0611 15.2494 25.222 13.525 22.9603 13.525C20.6987 13.525 18.8606 15.2494 18.8606 17.3688C18.8606 19.4872 20.6998 21.2116 22.9603 21.2116C25.2209 21.2116 27.0611 19.4872 27.0611 17.3688Z" fill="#33E6BF" fill-opacity="0.28"/>
<path d="M125.909 11.3771C125.909 8.04818 128.728 5.33972 132.194 5.33972C135.66 5.33972 138.48 8.04818 138.48 11.3771C138.48 14.7061 135.661 17.4135 132.194 17.4135C128.729 17.4145 125.909 14.7071 125.909 11.3771ZM136.295 11.3771C136.295 9.25768 134.456 7.53329 132.194 7.53329C129.932 7.53329 128.094 9.25768 128.094 11.3771C128.094 13.4955 129.933 15.2199 132.194 15.2199C134.455 15.2199 136.295 13.4955 136.295 11.3771Z" fill="#33E6BF" fill-opacity="0.28"/>
<path d="M98.6202 82.4294C98.6202 79.1004 101.439 76.392 104.905 76.392C108.371 76.392 111.192 79.1004 111.192 82.4294C111.192 85.7583 108.372 88.4657 104.905 88.4657C101.439 88.4668 98.6202 85.7593 98.6202 82.4294ZM109.006 82.4294C109.006 80.3099 107.167 78.5855 104.905 78.5855C102.644 78.5855 100.806 80.3099 100.806 82.4294C100.806 84.5478 102.645 86.2722 104.905 86.2722C107.166 86.2722 109.006 84.5478 109.006 82.4294Z" fill="#33E6BF" fill-opacity="0.28"/>
<path d="M54.9295 172.272L28.0345 156.744V84.9318L54.9295 100.46V172.272Z" fill="#0439C7"/>
<path d="M52.0921 166.995L30.8713 154.743V90.2083L52.0921 102.46V166.995Z" fill="#042271"/>
<path d="M51.0865 164.695L31.8767 153.604V92.5083L51.0865 103.599V164.695Z" fill="#0439C7"/>
<path d="M49.8153 108.607L33.1486 98.9847V96.6333L49.8153 106.256V108.607Z" fill="#042271"/>
<path d="M51.0865 134.147L31.8767 123.056V121.149L51.0865 132.24V134.147Z" fill="#042271"/>
<path d="M51.0865 138.881L31.8767 127.791V125.883L51.0865 136.974V138.881Z" fill="#042271"/>
<path d="M51.0865 143.615L31.8767 132.524V130.617L51.0865 141.708V143.615Z" fill="#042271"/>
<path d="M51.0865 162.564L31.8767 151.473V149.566L51.0865 160.657V162.564Z" fill="#042271"/>
<path d="M43.4313 146.77C43.4313 148.922 42.5584 150.162 41.4819 149.54C40.4051 148.918 39.5326 146.67 39.5326 144.519C39.5326 142.367 40.4051 141.127 41.4819 141.748C42.5584 142.371 43.4313 144.618 43.4313 146.77Z" fill="#042271"/>
<path d="M115.426 65.5198L54.8953 100.467L28 84.9393L88.5306 49.9922L115.426 65.5198Z" fill="#4879FD"/>
<path d="M115.462 137.323L54.9293 172.272V100.46L115.462 65.5118V137.323Z" fill="#042271"/>
<path d="M72.4039 152.787L70.4703 153.903V136.862L72.4039 135.745V152.787Z" fill="#0439C7"/>
<path d="M77.9073 149.61L75.9738 150.726V133.684L77.9073 132.568V149.61Z" fill="#0439C7"/>
<path d="M83.4109 146.432L81.4773 147.549V130.507L83.4109 129.391V146.432Z" fill="#0439C7"/>
<path d="M88.9139 143.255L86.9803 144.371V127.329L88.9139 126.213V143.255Z" fill="#0439C7"/>
<path d="M94.4172 140.077L92.4836 141.194V124.152L94.4172 123.035V140.077Z" fill="#0439C7"/>
<path d="M99.9209 136.9L97.9873 138.016V120.975L99.9209 119.859V136.9Z" fill="#0439C7"/>
<path d="M86.4688 191.757L59.5739 176.229V104.417L86.4688 119.945V191.757Z" fill="#0439C7"/>
<path d="M83.6318 186.48L62.411 174.228V109.693L83.6318 121.945V186.48Z" fill="#042271"/>
<path d="M82.6265 184.18L63.4166 173.089V111.994L82.6265 123.084V184.18Z" fill="#0439C7"/>
<path d="M81.3546 128.091L64.6879 118.469V116.118L81.3546 125.741V128.091Z" fill="#042271"/>
<path d="M82.6265 153.632L63.4166 142.541V140.634L82.6265 151.724V153.632Z" fill="#042271"/>
<path d="M82.6265 158.366L63.4166 147.275V145.368L82.6265 156.459V158.366Z" fill="#042271"/>
<path d="M82.6265 163.1L63.4166 152.009V150.102L82.6265 161.192V163.1Z" fill="#042271"/>
<path d="M82.6265 182.049L63.4166 170.958V169.051L82.6265 180.141V182.049Z" fill="#042271"/>
<path d="M74.9707 166.255C74.9707 168.407 74.0981 169.647 73.0214 169.025C71.9449 168.404 71.072 166.155 71.072 164.004C71.072 161.852 71.9449 160.612 73.0214 161.234C74.0981 161.855 74.9707 164.103 74.9707 166.255Z" fill="#042271"/>
<path d="M146.965 85.0051L86.4343 119.953L59.5393 104.425L120.07 69.4772L146.965 85.0051Z" fill="#4879FD"/>
<path d="M147.001 156.809L86.4688 191.757V119.945L147.001 84.9968V156.809Z" fill="#042271"/>
<path d="M103.944 172.272L102.01 173.388V156.346L103.944 155.23V172.272Z" fill="#0439C7"/>
<path d="M109.447 169.094L107.513 170.211V153.169L109.447 152.053V169.094Z" fill="#0439C7"/>
<path d="M114.95 165.917L113.017 167.033V149.992L114.95 148.875V165.917Z" fill="#0439C7"/>
<path d="M120.453 162.74L118.52 163.856V146.815L120.453 145.698V162.74Z" fill="#0439C7"/>
<path d="M125.957 159.562L124.023 160.679V143.637L125.957 142.521V159.562Z" fill="#0439C7"/>
<path d="M131.46 156.384L129.527 157.501V140.459L131.46 139.343V156.384Z" fill="#0439C7"/>
<path d="M118.008 211.242L91.1133 195.714V123.902L118.008 139.43V211.242Z" fill="#0439C7"/>
<path d="M115.171 205.965L93.95 193.714V129.179L115.171 141.431V205.965Z" fill="#042271"/>
<path d="M114.165 203.665L94.9558 192.575V131.479L114.165 142.569V203.665Z" fill="#0439C7"/>
<path d="M112.894 147.577L96.2277 137.955V135.604L112.894 145.226V147.577Z" fill="#042271"/>
<path d="M114.165 173.118L94.9558 162.027V160.119L114.165 171.21V173.118Z" fill="#042271"/>
<path d="M114.165 177.852L94.9558 166.761V164.853L114.165 175.944V177.852Z" fill="#042271"/>
<path d="M114.165 182.585L94.9558 171.494V169.587L114.165 180.678V182.585Z" fill="#042271"/>
<path d="M114.165 201.534L94.9558 190.443V188.536L114.165 199.627V201.534Z" fill="#042271"/>
<path d="M106.51 185.74C106.51 187.892 105.637 189.132 104.561 188.51C103.484 187.889 102.612 185.64 102.612 183.489C102.612 181.338 103.484 180.097 104.561 180.719C105.637 181.34 106.51 183.588 106.51 185.74Z" fill="#042271"/>
<path d="M178.504 104.49L117.974 139.438L91.0787 123.91L151.609 88.9625L178.504 104.49Z" fill="#4879FD"/>
<path d="M178.54 176.293L118.008 211.242V139.43L178.54 104.482V176.293Z" fill="#042271"/>
<path d="M135.482 191.756L133.549 192.872V175.831L135.482 174.715V191.756Z" fill="#0439C7"/>
<path d="M140.986 188.579L139.053 189.695V172.654L140.986 171.537V188.579Z" fill="#0439C7"/>
<path d="M146.489 185.401L144.556 186.518V169.476L146.489 168.36V185.401Z" fill="#0439C7"/>
<path d="M151.993 182.224L150.059 183.34V166.299L151.993 165.183V182.224Z" fill="#0439C7"/>
<path d="M157.496 179.047L155.563 180.163V163.121L157.496 162.005V179.047Z" fill="#0439C7"/>
<path d="M163 175.869L161.066 176.985V159.944L163 158.828V175.869Z" fill="#0439C7"/>
<path d="M32.7737 66.1813L37.2908 63.5562C54.3654 73.4139 68.5299 66.3121 69.2756 65.9383L64.7584 68.5635C64.0131 68.9369 49.8486 76.039 32.7737 66.1813Z" fill="#A6FBE8"/>
<path d="M96.6652 103.074L96.2646 106.054L89.5028 156.367L64.4741 166.125L53.3862 148.932L49.3162 142.603L45.1983 136.226L39.6062 127.557L38.9497 121.661L32.7806 66.1882C49.8455 76.0424 64.01 68.9442 64.7632 68.5597C65.1638 69.2326 69.5065 76.443 76.1396 84.4868C79.0883 88.0759 82.4846 91.8255 86.2022 95.2221C88.0448 96.9048 89.9676 98.5069 91.9546 99.9654C93.4929 101.103 95.0631 102.144 96.6652 103.074Z" fill="#33E6BF"/>
<path d="M64.7542 74.5029C65.4031 75.5811 77.7326 96.0727 92.6847 104.705L86.4093 151.35L64.5119 159.885L42.7346 126.134L36.7616 72.4181C51.7048 81.0457 64.1016 74.83 64.7542 74.5029Z" fill="#A6FBE8"/>
<path d="M64.7513 78.6123C65.3361 79.5844 76.449 98.0539 89.9259 105.834L84.27 147.877L64.5331 155.57L44.9043 125.149L39.5208 76.7335C52.9894 84.5097 64.1629 78.9072 64.7513 78.6123Z" fill="#33E6BF"/>
<path d="M64.7585 68.5636L69.2757 65.9385C70.0171 67.1708 84.1053 90.5846 101.19 100.448L96.6727 103.074C79.5881 93.2094 65.5003 69.7959 64.7585 68.5636Z" fill="#A6FBE8"/>
<path d="M96.6725 103.073L101.19 100.448L94.0195 153.745L89.502 156.37L96.6725 103.073Z" fill="#A6FBE8"/>
<g opacity="0.3">
<path d="M86.2021 95.2222L45.1982 136.226L39.6061 127.557L38.9496 121.661L76.1395 84.4869C79.0878 88.076 82.4845 91.8256 86.2021 95.2222Z" fill="white"/>
<path d="M96.6652 103.074L96.2646 106.054L53.3866 148.933L49.3163 142.603L91.9542 99.9656C93.4929 101.103 95.0631 102.145 96.6652 103.074Z" fill="white"/>
</g>
</svg>
