<svg width="71" height="14" viewBox="0 0 71 14" fill="none" xmlns="http://www.w3.org/2000/svg">
<g clip-path="url(#clip0_44408_3596)">
<path d="M13.6824 13.24V0.5H16.3215V13.24H13.6824Z" fill="#8295AE"/>
<path d="M22.3684 13.5001C19.2937 13.5001 17.1926 11.3964 17.1926 8.67826C17.1926 5.96008 19.2937 3.85645 22.3684 3.85645C25.4431 3.85645 27.5441 5.96008 27.5441 8.67826C27.5441 11.3964 25.4431 13.5001 22.3684 13.5001ZM22.3684 11.6564C23.9826 11.6564 24.8794 10.4746 24.8794 8.67826C24.8794 6.90554 23.9826 5.67645 22.3684 5.67645C20.7542 5.67645 19.8574 6.8819 19.8574 8.67826C19.8574 10.451 20.7542 11.6564 22.3684 11.6564Z" fill="#8295AE"/>
<path d="M33.0017 13.5001C29.8758 13.5001 27.9028 11.3964 27.9028 8.67826C27.9028 5.96008 29.8245 3.85645 32.848 3.85645C35.4102 3.85645 36.9988 5.22735 37.3575 7.21281H34.7953C34.6159 6.40917 33.9497 5.79463 32.9761 5.79463C31.3875 5.79463 30.5676 6.90554 30.5676 8.67826C30.5676 10.4037 31.3106 11.5619 32.9248 11.5619C34.001 11.5619 34.744 11.0419 34.9234 10.0019H37.46C37.2807 11.9401 35.6408 13.5001 33.0017 13.5001Z" fill="#8295AE"/>
<path d="M44.7625 13.24L41.9696 9.08L40.8166 10.1673V13.24H38.2031V0.5H40.8166V7.54364L44.3269 4.09273H47.4785L43.8145 7.56727L47.9141 13.24H44.7625Z" fill="#8295AE"/>
<path d="M54.3454 13.2399C54.1917 13.0508 54.0892 12.6253 54.0379 12.2235H53.9867C53.4742 12.909 52.7568 13.4526 51.0657 13.4526C49.0416 13.4526 47.6067 12.4835 47.6067 10.6635C47.6067 8.65443 49.3746 8.01625 51.5782 7.73261C53.218 7.51988 53.9867 7.4017 53.9867 6.69261C53.9867 6.03079 53.423 5.60534 52.3212 5.60534C51.0914 5.60534 50.4764 6.00716 50.3995 6.8817H48.0679C48.1448 5.27443 49.4515 3.87988 52.3469 3.87988C55.3191 3.87988 56.5233 5.10897 56.5233 7.23625V11.8926C56.5233 12.5781 56.6514 13.0035 56.882 13.1453V13.2399H54.3454ZM51.7319 11.7508C53.2436 11.7508 54.0636 10.8999 54.0636 10.0017V8.63079C53.6024 8.89079 52.8849 9.03261 52.2187 9.17443C50.8351 9.45807 50.1689 9.7417 50.1689 10.5926C50.1689 11.4435 50.7839 11.7508 51.7319 11.7508Z" fill="#8295AE"/>
<path d="M57.8301 13.24V4.09273H60.4692V13.24H57.8301ZM57.8301 2.67455V0.5H60.4692V2.67455H57.8301Z" fill="#8295AE"/>
<path d="M65.4655 13.5C62.9801 13.5 61.2634 11.6327 61.2634 8.67818C61.2634 5.81818 63.0314 3.85636 65.4911 3.85636C66.8748 3.85636 67.7459 4.44727 68.284 5.20364H68.3352V0.5H70.9744V13.24H68.4377V12.0582H68.3865C67.8484 12.9091 66.8748 13.5 65.4655 13.5ZM66.0548 11.4673C67.6178 11.4673 68.4377 10.4036 68.4377 8.72545C68.4377 6.97636 67.8228 5.79455 66.1317 5.79455C64.6712 5.79455 63.9538 6.97636 63.9538 8.65455C63.9538 10.4273 64.6968 11.4673 66.0548 11.4673Z" fill="#8295AE"/>
<path fill-rule="evenodd" clip-rule="evenodd" d="M9.58282 2.58H0.128113V0.5H9.58282C11.3508 0.5 12.7856 1.82364 12.7856 3.45455C12.7856 5.08545 11.3508 6.40909 9.58282 6.40909H2.71599C2.45976 6.40909 2.22916 6.59818 2.22916 6.83455C2.22916 7.07091 2.43414 7.26 2.71599 7.26H9.58282C11.3508 7.26 12.7856 8.58364 12.7856 10.2145C12.7856 11.8455 11.3508 13.1691 9.58282 13.1691H0.128113V11.0891H9.58282C10.0953 11.0891 10.5309 10.6873 10.5309 10.2145C10.5309 9.74182 10.0953 9.34 9.58282 9.34H2.71599C1.22988 9.36364 0 8.22909 0 6.83455C0 5.46364 1.22988 4.32909 2.71599 4.32909H9.58282C10.0953 4.32909 10.5309 3.92727 10.5309 3.45455C10.5309 2.98182 10.0953 2.58 9.58282 2.58Z" fill="#8295AE"/>
</g>
<defs>
<clipPath id="clip0_44408_3596">
<rect width="71" height="13" fill="white" transform="translate(0 0.5)"/>
</clipPath>
</defs>
</svg>
