<svg width="24" height="24" viewBox="0 0 24 24" fill="none" xmlns="http://www.w3.org/2000/svg">
<path id="Vector" d="M16.8 4.8H7.2C5.5956 4.8 4.2516 5.8572 3.7872 7.3068L11.4048 11.6592C11.7732 11.8704 12.2268 11.8704 12.5952 11.6592L20.2128 7.3068C19.7484 5.8572 18.4044 4.8 16.8 4.8Z" fill="#F0F4FC"/>
<path id="Vector_2" d="M3.7872 7.3068L11.4048 11.6592C11.7732 11.8704 12.2268 11.8704 12.5952 11.6592L20.2128 7.3068" stroke="#F0F4FC" stroke-width="2" stroke-linecap="round" stroke-linejoin="round"/>
<path id="Vector_3" d="M20.3996 12.745V8.3998C20.3996 6.4114 18.788 4.7998 16.7996 4.7998H7.19961C5.21121 4.7998 3.59961 6.4114 3.59961 8.3998V15.5998C3.59961 17.5882 5.21121 19.1998 7.19961 19.1998H13.9448" stroke="#F0F4FC" stroke-width="2" stroke-linecap="round" stroke-linejoin="round"/>
<path id="Vector_4" d="M19.2 19.2C19.8627 19.2 20.4 18.6627 20.4 18C20.4 17.3373 19.8627 16.8 19.2 16.8C18.5373 16.8 18 17.3373 18 18C18 18.6627 18.5373 19.2 19.2 19.2Z" fill="#F0F4FC" stroke="#F0F4FC" stroke-width="2" stroke-linecap="round" stroke-linejoin="round"/>
</svg>
