<svg version="1.1" id="Layer_1" xmlns:x="ns_extend;" xmlns:i="ns_ai;" xmlns:graph="ns_graphs;" xmlns="http://www.w3.org/2000/svg" xmlns:xlink="http://www.w3.org/1999/xlink" x="0px" y="0px" viewBox="0 0 83 83" style="enable-background:new 0 0 83 83;" xml:space="preserve">
 <style type="text/css">
  .st0{fill:url(#SVGID_1_);}
	.st1{fill:url(#SVGID_2_);}
 </style>
 <metadata>
  <sfw xmlns="ns_sfw;">
   <slices>
   </slices>
   <sliceSourceBounds bottomLeftOrigin="true" height="83" width="83" x="38.2" y="-241.7">
   </sliceSourceBounds>
  </sfw>
 </metadata>
 <g>
  <linearGradient id="SVGID_1_" gradientUnits="userSpaceOnUse" x1="232.8625" y1="-247.0296" x2="291.2847" y2="-188.6074" gradientTransform="matrix(1 0 0 -1 -206 -161.3897)">
   <stop offset="0" style="stop-color:#B090F5">
   </stop>
   <stop offset="1" style="stop-color:#5FBFFF">
   </stop>
  </linearGradient>
  <path class="st0" d="M77.5,20.9l-1.8-3.1c-0.5-0.9-1.6-1.2-2.5-0.7c-0.1,0.1-0.3,0.2-0.4,0.3l-4.1,4.1c-0.6,0.6-0.7,1.6-0.2,2.3
		c1.5,2.3,2.7,4.8,3.6,7.4l0,0c5.7,16.9-3.4,35.2-20.3,40.9c-3.3,1.1-6.8,1.7-10.3,1.7c-5.3,0-10.5-1.3-15.1-3.8l7-7
		c11.9,4.5,25.2-1.5,29.7-13.4c2.2-5.9,1.9-12.5-0.8-18.2c-0.4-0.9-1.5-1.3-2.5-0.9c-0.2,0.1-0.4,0.2-0.5,0.4l-4.2,4.1
		c-0.5,0.5-0.6,1.1-0.5,1.7l0.4,1.5c1.7,7.4-2.9,14.9-10.3,16.6c-3.4,0.8-7,0.3-10-1.5l-1.8-1.1c-0.7-0.4-1.6-0.3-2.2,0.3l-17,17
		c-0.7,0.7-0.7,1.9,0,2.6c0.1,0.1,0.1,0.1,0.2,0.2l2.5,1.9C23.5,80,32.4,83,41.5,83C64.4,83,83,64.4,83,41.4
		C83,34.2,81.1,27.2,77.5,20.9z">
  </path>
  <linearGradient id="SVGID_2_" gradientUnits="userSpaceOnUse" x1="203.6978" y1="-217.1747" x2="262.1281" y2="-158.7479" gradientTransform="matrix(1 0 0 -1 -206 -161.3897)">
   <stop offset="0" style="stop-color:#68D7FA">
   </stop>
   <stop offset="1" style="stop-color:#4EE498">
   </stop>
  </linearGradient>
  <path class="st1" d="M66.7,8.6C59.5,3,50.6,0,41.5,0C18.6,0,0,18.6,0,41.6c0,7.2,1.9,14.3,5.4,20.5l1.8,3.1
		c0.5,0.9,1.6,1.2,2.5,0.7c0.1-0.1,0.3-0.2,0.4-0.3l4.1-4.1c0.6-0.6,0.7-1.6,0.2-2.3c-1.5-2.3-2.7-4.8-3.6-7.4l0,0
		c-5.7-16.9,3.4-35.2,20.3-40.9c3.3-1.1,6.8-1.7,10.3-1.7c5.3,0,10.5,1.3,15.1,3.8l-7,7c-11.9-4.5-25.2,1.5-29.7,13.4
		c-1,2.6-1.5,5.4-1.5,8.2c0,0.4,0.1,2.1,0.1,2.4c0.3,2.6,1,5.2,2.2,7.6c0.4,0.9,1.5,1.3,2.5,0.9c0.2-0.1,0.4-0.2,0.5-0.4l4.2-4.2
		c0.5-0.5,0.6-1.1,0.5-1.7L28,44.7c-1.7-7.4,2.9-14.9,10.3-16.6c3.4-0.8,7-0.3,10,1.5l1.8,1.1c0.7,0.4,1.6,0.3,2.2-0.3l17-17
		c0.7-0.7,0.7-1.9,0-2.6c-0.1-0.1-0.1-0.1-0.2-0.2L66.7,8.6z">
  </path>
 </g>
</svg>