<svg width="1050" height="1050" viewBox="0 0 1050 1050" fill="none" xmlns="http://www.w3.org/2000/svg">
<path d="M154 645.964L485.5 267" stroke="#F7F8FB" stroke-width="2.34769" stroke-linecap="round" stroke-dasharray="4.7 4.7"/>
<line x1="516.74" y1="733.857" x2="516.74" y2="230.958" stroke="#F7F8FB" stroke-width="2.34769" stroke-linecap="round" stroke-dasharray="4.7 4.7"/>
<path d="M903.995 642.863L523 336.863" stroke="#F7F8FB" stroke-width="2.34769" stroke-linecap="round" stroke-dasharray="4.7 4.7"/>
<path d="M964.47 836.732C963.233 836.834 961.911 836.859 960.497 836.802C923.364 835.28 885.952 836.632 848.61 836.627C837.718 836.625 830.715 828.212 830.734 817.826C830.829 772.683 831.056 727.541 831.056 682.399C831.056 654.792 831.056 627.181 831.056 599.561C831.056 589.867 838.913 582.007 848.608 582.004C887.436 581.994 925.672 582.004 964.445 582.004C974.143 582.004 982.002 589.864 982.002 599.561C982.002 644.031 981.554 688.499 981.522 732.966C981.507 754.87 981.589 776.776 981.875 798.678C982.092 815.052 983.616 835.146 964.47 836.732Z" fill="#324E77"/>
<path d="M849.264 604.489C847.743 635.519 849.503 667.13 848.861 698.393C848.184 731.346 847.335 764.306 847.726 797.269C847.781 797.269 847.838 797.271 847.893 797.271C854.958 797.431 862.021 797.438 869.087 797.401C894.394 733.143 915.84 666.956 945.198 604.725C911.685 604.541 849.279 604.18 849.264 604.489Z" fill="#81F8DE"/>
<path d="M869.084 797.403C881.94 797.335 894.797 797.069 907.651 796.915C917.858 796.793 928.068 796.74 938.274 796.957C946.634 797.134 955.101 799.023 963.451 797.806C965.398 789.321 964.305 778.88 964.596 770.096C964.92 760.292 965.186 750.483 965.186 740.674C965.186 725.248 965.186 709.822 965.186 694.399C965.186 665.422 965.186 636.445 965.186 607.466C965.186 607.336 965.186 604.824 965.186 604.824C962.913 604.824 955.39 604.784 945.192 604.727C915.837 666.958 894.391 733.145 869.084 797.403Z" fill="#33E6BF"/>
<path d="M919.935 825.416H893.129C889.382 825.416 886.345 822.391 886.322 818.645C886.275 810.212 899.348 812.162 904.594 812.341C908.951 812.488 918.511 810.872 922.367 812.244C929.331 814.723 927.247 825.416 919.935 825.416Z" fill="#162A48"/>
<path d="M917.528 595.215C910.134 595.215 902.932 595.23 895.523 595.215C894.198 595.212 893.125 594.137 893.125 592.812C893.125 591.485 894.201 590.41 895.528 590.41H917.526C918.853 590.41 919.929 591.485 919.929 592.812C919.929 594.139 918.855 595.215 917.528 595.215Z" fill="#162A48"/>
<path d="M200.736 836.732C199.499 836.834 198.177 836.859 196.763 836.802C159.63 835.28 122.218 836.632 84.8756 836.627C73.9835 836.625 66.9801 828.212 67 817.826C67.0946 772.683 67.3212 727.541 67.3212 682.399C67.3212 654.792 67.3212 627.181 67.3212 599.561C67.3212 589.867 75.1785 582.007 84.8731 582.004C123.702 581.994 161.937 582.004 200.711 582.004C210.408 582.004 218.268 589.864 218.268 599.561C218.268 644.031 217.82 688.499 217.787 732.966C217.773 754.87 217.855 776.776 218.141 798.678C218.358 815.052 219.881 835.146 200.736 836.732Z" fill="#324E77"/>
<path d="M85.5301 604.489C84.0089 635.519 85.769 667.13 85.1267 698.393C84.4495 731.346 83.6006 764.306 83.9914 797.269C84.0462 797.269 84.1035 797.271 84.1583 797.271C91.2239 797.431 98.287 797.438 105.353 797.401C130.66 733.143 152.105 666.956 181.463 604.725C147.95 604.541 85.545 604.18 85.5301 604.489Z" fill="#81F8DE"/>
<path d="M105.35 797.403C118.206 797.335 131.063 797.069 143.917 796.915C154.124 796.793 164.334 796.74 174.539 796.957C182.899 797.134 191.367 799.023 199.717 797.806C201.664 789.321 200.571 778.88 200.862 770.096C201.186 760.292 201.452 750.483 201.452 740.674C201.452 725.248 201.452 709.822 201.452 694.399C201.452 665.422 201.452 636.445 201.452 607.466C201.452 607.336 201.452 604.824 201.452 604.824C199.179 604.824 191.655 604.784 181.458 604.727C152.103 666.958 130.657 733.145 105.35 797.403Z" fill="#33E6BF"/>
<path d="M156.201 825.416H129.395C125.648 825.416 122.61 822.391 122.588 818.645C122.541 810.212 135.614 812.162 140.859 812.341C145.216 812.488 154.777 810.872 158.633 812.244C165.597 814.723 163.513 825.416 156.201 825.416Z" fill="#162A48"/>
<path d="M153.794 595.215C146.4 595.215 139.197 595.23 131.788 595.215C130.464 595.212 129.391 594.137 129.391 592.812C129.391 591.485 130.466 590.41 131.793 590.41H153.792C155.119 590.41 156.194 591.485 156.194 592.812C156.194 594.139 155.121 595.215 153.794 595.215Z" fill="#162A48"/>
<path d="M606.528 872.444C605.119 872.561 603.61 872.589 601.997 872.524C559.661 870.791 468.961 872.332 426.38 872.325C413.959 872.322 405.975 862.73 406 850.889C406.11 799.418 406.366 747.947 406.366 696.477C406.366 664.998 406.366 633.519 406.366 602.025C406.366 590.971 415.326 582.008 426.38 582.006C470.653 581.993 562.29 582.006 606.501 582.006C617.557 582.006 626.52 590.968 626.52 602.025C626.52 652.729 626.007 703.43 625.972 754.132C625.955 779.108 626.047 804.084 626.375 829.055C626.622 847.727 628.36 870.637 606.528 872.444Z" fill="#324E77"/>
<path d="M427.128 607.641C425.393 643.024 427.402 679.067 426.667 714.708C425.893 752.282 424.927 804.276 425.373 841.859C425.435 841.862 425.5 841.862 425.562 841.864C432.416 842.018 439.27 842.048 446.124 842.033C480.6 762.918 518.978 685.141 558.2 607.833C504.685 607.619 427.143 607.333 427.128 607.641Z" fill="#81F8DE"/>
<path d="M446.125 842.036C461.984 842.001 477.846 841.647 493.705 841.458C505.344 841.319 565.025 841.257 576.662 841.506C586.195 841.707 595.849 843.861 605.37 842.474C607.591 832.802 606.343 806.481 606.674 796.468C607.045 785.289 607.349 774.106 607.349 762.92C607.349 745.333 607.349 727.744 607.349 710.157C607.349 677.117 607.349 644.077 607.349 611.037C607.349 610.89 607.349 608.027 607.349 608.027C603.764 608.027 583.71 607.94 558.201 607.835C518.979 685.144 480.602 762.92 446.125 842.036Z" fill="#33E6BF"/>
<path d="M528.805 597.07C520.372 597.07 512.161 597.088 503.714 597.07C502.205 597.068 500.98 595.843 500.98 594.332C500.98 592.818 502.208 591.593 503.719 591.593H528.802C530.316 591.593 531.541 592.818 531.541 594.332C531.541 595.846 530.316 597.07 528.805 597.07Z" fill="#162A48"/>
<path d="M526.668 857.446C526.668 863.195 522.007 867.855 516.259 867.855C510.51 867.855 505.85 863.195 505.85 857.446C505.85 851.698 510.51 847.037 516.259 847.037C522.007 847.037 526.668 851.698 526.668 857.446Z" fill="#162A48"/>
<path d="M311.032 408.302C310.875 406.425 310.838 404.419 310.925 402.273C313.23 345.922 311.181 260.799 311.191 204.127C311.194 187.596 323.963 176.968 339.723 177C408.23 177.144 476.74 177.488 545.247 177.488C587.145 177.488 629.044 177.488 670.962 177.488C685.675 177.488 697.603 189.413 697.606 204.125C697.621 263.052 697.606 349.423 697.606 408.268C697.606 422.984 685.675 434.912 670.962 434.912C603.475 434.912 535.993 434.23 468.507 434.182C435.265 434.157 402.023 434.282 368.784 434.72C343.933 435.046 313.439 437.359 311.032 408.302Z" fill="#36537D"/>
<path d="M275.469 480.988C275.285 480.831 275.24 480.664 275.344 480.487C278.076 475.802 275.646 468.724 275.661 464.011C275.663 462.637 290.783 461.753 309.442 461.755C390.557 461.768 471.677 461.795 552.795 461.795C602.406 461.795 652.014 461.795 701.648 461.795C719.068 461.795 733.192 462.786 733.197 464.011C733.214 468.911 733.197 476.093 733.197 480.988C733.197 482.213 719.073 483.204 701.648 483.204C621.74 483.204 541.835 483.146 461.93 483.144C422.569 483.141 383.208 483.151 343.852 483.189C314.424 483.211 278.32 483.405 275.469 480.988Z" fill="#162A48"/>
<path d="M275.435 462.418C275.281 462.218 275.241 462.007 275.33 461.78C277.636 455.825 311.184 443.066 311.194 437.076C311.196 435.328 323.966 434.205 339.725 434.208C408.23 434.222 476.742 434.26 545.25 434.26C587.148 434.26 629.046 434.26 670.964 434.26C685.678 434.26 697.606 435.52 697.608 437.076C697.623 443.305 733.205 456.196 733.205 462.415C733.205 463.971 721.277 465.231 706.561 465.231C639.074 465.231 535.993 465.159 468.509 465.154C435.267 465.151 366.426 465.164 333.187 465.211C308.336 465.243 277.842 465.487 275.435 462.418Z" fill="#162A48"/>
<path d="M706.56 459.891C671.165 459.891 625.978 459.871 581.272 459.853C540.74 459.833 500.6 459.816 468.508 459.816H457.987C422.346 459.816 363.222 459.831 333.179 459.873L319.879 459.891C313.396 459.891 297.575 459.891 287.312 459.266C289.914 457.777 292.767 456.241 295.105 454.981C306.361 448.919 313.068 445.142 315.495 440.9C318.891 440.257 327.289 439.553 339.655 439.553L414.518 439.575C458.097 439.59 501.673 439.605 545.249 439.605H670.961C682.057 439.605 690.004 440.32 693.33 440.957C695.718 445.077 702.151 448.692 712.884 454.456C715.431 455.823 718.817 457.642 721.777 459.378C717.823 459.672 712.67 459.891 706.56 459.891Z" fill="#36537D"/>
<path d="M691.109 453.532C658.423 453.532 616.689 453.514 575.401 453.497C537.969 453.479 500.898 453.464 471.259 453.462H461.542C428.626 453.462 374.024 453.477 346.279 453.514L333.995 453.529C328.008 453.529 313.396 453.529 303.918 452.969C306.32 451.632 308.954 450.255 311.115 449.127C321.51 443.69 327.704 440.302 329.947 436.498C333.084 435.92 340.839 435.29 352.259 435.29L421.399 435.31C461.644 435.322 501.889 435.337 542.134 435.337H658.233C668.481 435.337 675.82 435.977 678.892 436.55C681.098 440.244 687.039 443.486 696.952 448.657C699.305 449.884 702.432 451.515 705.166 453.071C701.511 453.337 696.751 453.532 691.109 453.532Z" fill="#162A48"/>
<path d="M522.552 204.51C467.947 203.482 392.384 202.195 337.763 202.785C337.761 202.87 332.421 202.954 332.418 203.039C331.674 233.271 332.617 227.905 333.013 258.135C333.215 273.625 333.305 353.062 332.946 368.55C332.652 381.237 329.523 394.089 331.537 406.759C345.593 409.714 389.185 408.053 403.739 408.496C414.011 408.808 424.286 409.071 434.561 409.231C472.806 339.152 513.373 270.376 558.256 204.697C546.336 204.754 534.428 204.734 522.552 204.51Z" fill="#81F8DE"/>
<path d="M558.254 204.697C513.371 270.378 472.804 339.152 434.559 409.231C440.536 409.325 446.511 409.392 452.489 409.392C478.05 409.392 503.609 409.392 529.17 409.392C577.188 409.392 625.203 409.392 673.22 409.392C673.434 409.392 677.597 409.392 677.597 409.392C677.597 394.611 678.817 205.15 678.152 205.12C638.522 203.342 598.322 204.51 558.254 204.697Z" fill="#33E6BF"/>
<path d="M697.596 446.678H311.119V449.128H697.596V446.678Z" fill="#36537D"/>
<path d="M688.395 439.874H324.121V442.323H688.395V439.874Z" fill="#36537D"/>
<path d="M443.926 97.6C440.646 97.6 437.506 97.14 434.506 96.22C431.506 95.26 429.126 94.04 427.366 92.56L430.066 86.5C431.746 87.82 433.826 88.92 436.306 89.8C438.786 90.68 441.326 91.12 443.926 91.12C446.126 91.12 447.906 90.88 449.266 90.4C450.626 89.92 451.626 89.28 452.266 88.48C452.906 87.64 453.226 86.7 453.226 85.66C453.226 84.38 452.766 83.36 451.846 82.6C450.926 81.8 449.726 81.18 448.246 80.74C446.806 80.26 445.186 79.82 443.386 79.42C441.626 79.02 439.846 78.56 438.046 78.04C436.286 77.48 434.666 76.78 433.186 75.94C431.746 75.06 430.566 73.9 429.646 72.46C428.726 71.02 428.266 69.18 428.266 66.94C428.266 64.66 428.866 62.58 430.066 60.7C431.306 58.78 433.166 57.26 435.646 56.14C438.166 54.98 441.346 54.4 445.186 54.4C447.706 54.4 450.206 54.72 452.686 55.36C455.166 56 457.326 56.92 459.166 58.12L456.706 64.18C454.826 63.06 452.886 62.24 450.886 61.72C448.886 61.16 446.966 60.88 445.126 60.88C442.966 60.88 441.206 61.14 439.846 61.66C438.526 62.18 437.546 62.86 436.906 63.7C436.306 64.54 436.006 65.5 436.006 66.58C436.006 67.86 436.446 68.9 437.326 69.7C438.246 70.46 439.426 71.06 440.866 71.5C442.346 71.94 443.986 72.38 445.786 72.82C447.586 73.22 449.366 73.68 451.126 74.2C452.926 74.72 454.546 75.4 455.986 76.24C457.466 77.08 458.646 78.22 459.526 79.66C460.446 81.1 460.906 82.92 460.906 85.12C460.906 87.36 460.286 89.44 459.046 91.36C457.846 93.24 455.986 94.76 453.466 95.92C450.946 97.04 447.766 97.6 443.926 97.6ZM476.574 97V61.6H462.654V55H498.294V61.6H484.374V97H476.574ZM496.098 97L514.998 55H522.678L541.638 97H533.478L517.218 59.14H520.338L504.138 97H496.098ZM504.798 87.28L506.898 81.16H529.578L531.678 87.28H504.798ZM546.98 97V55H564.26C567.98 55 571.16 55.6 573.8 56.8C576.48 58 578.54 59.72 579.98 61.96C581.42 64.2 582.14 66.86 582.14 69.94C582.14 73.02 581.42 75.68 579.98 77.92C578.54 80.12 576.48 81.82 573.8 83.02C571.16 84.18 567.98 84.76 564.26 84.76H551.3L554.78 81.22V97H546.98ZM574.46 97L563.84 81.76H572.18L582.86 97H574.46ZM554.78 82.06L551.3 78.34H563.9C567.34 78.34 569.92 77.6 571.64 76.12C573.4 74.64 574.28 72.58 574.28 69.94C574.28 67.26 573.4 65.2 571.64 63.76C569.92 62.32 567.34 61.6 563.9 61.6H551.3L554.78 57.76V82.06ZM598.801 97V61.6H584.881V55H620.521V61.6H606.601V97H598.801Z" fill="white"/>
<path d="M448.226 943V901H465.506C469.226 901 472.406 901.6 475.046 902.8C477.726 904 479.786 905.72 481.226 907.96C482.666 910.2 483.386 912.86 483.386 915.94C483.386 919.02 482.666 921.68 481.226 923.92C479.786 926.16 477.726 927.88 475.046 929.08C472.406 930.28 469.226 930.88 465.506 930.88H452.546L456.026 927.22V943H448.226ZM456.026 928.06L452.546 924.28H465.146C468.586 924.28 471.166 923.56 472.886 922.12C474.646 920.64 475.526 918.58 475.526 915.94C475.526 913.26 474.646 911.2 472.886 909.76C471.166 908.32 468.586 907.6 465.146 907.6H452.546L456.026 903.76V928.06ZM483.126 943L502.026 901H509.706L528.666 943H520.506L504.246 905.14H507.366L491.166 943H483.126ZM491.826 933.28L493.926 927.16H516.606L518.706 933.28H491.826ZM534.007 943V901H541.807V943H534.007ZM553.167 943V901H570.447C574.167 901 577.347 901.6 579.987 902.8C582.667 904 584.727 905.72 586.167 907.96C587.607 910.2 588.327 912.86 588.327 915.94C588.327 919.02 587.607 921.68 586.167 923.92C584.727 926.12 582.667 927.82 579.987 929.02C577.347 930.18 574.167 930.76 570.447 930.76H557.487L560.967 927.22V943H553.167ZM580.647 943L570.027 927.76H578.367L589.047 943H580.647ZM560.967 928.06L557.487 924.34H570.087C573.527 924.34 576.107 923.6 577.827 922.12C579.587 920.64 580.467 918.58 580.467 915.94C580.467 913.26 579.587 911.2 577.827 909.76C576.107 908.32 573.527 907.6 570.087 907.6H557.487L560.967 903.76V928.06Z" fill="white"/>
<path d="M838.226 907V865H855.506C859.226 865 862.406 865.6 865.046 866.8C867.726 868 869.786 869.72 871.226 871.96C872.666 874.2 873.386 876.86 873.386 879.94C873.386 883.02 872.666 885.68 871.226 887.92C869.786 890.16 867.726 891.88 865.046 893.08C862.406 894.28 859.226 894.88 855.506 894.88H842.546L846.026 891.22V907H838.226ZM846.026 892.06L842.546 888.28H855.146C858.586 888.28 861.166 887.56 862.886 886.12C864.646 884.64 865.526 882.58 865.526 879.94C865.526 877.26 864.646 875.2 862.886 873.76C861.166 872.32 858.586 871.6 855.146 871.6H842.546L846.026 867.76V892.06ZM873.126 907L892.026 865H899.706L918.666 907H910.506L894.246 869.14H897.366L881.166 907H873.126ZM881.826 897.28L883.926 891.16H906.606L908.706 897.28H881.826ZM924.007 907V865H931.807V907H924.007ZM943.167 907V865H960.447C964.167 865 967.347 865.6 969.987 866.8C972.667 868 974.727 869.72 976.167 871.96C977.607 874.2 978.327 876.86 978.327 879.94C978.327 883.02 977.607 885.68 976.167 887.92C974.727 890.12 972.667 891.82 969.987 893.02C967.347 894.18 964.167 894.76 960.447 894.76H947.487L950.967 891.22V907H943.167ZM970.647 907L960.027 891.76H968.367L979.047 907H970.647ZM950.967 892.06L947.487 888.34H960.087C963.527 888.34 966.107 887.6 967.827 886.12C969.587 884.64 970.467 882.58 970.467 879.94C970.467 877.26 969.587 875.2 967.827 873.76C966.107 872.32 963.527 871.6 960.087 871.6H947.487L950.967 867.76V892.06Z" fill="white"/>
<path d="M73.2259 907V865H90.5059C94.2259 865 97.4059 865.6 100.046 866.8C102.726 868 104.786 869.72 106.226 871.96C107.666 874.2 108.386 876.86 108.386 879.94C108.386 883.02 107.666 885.68 106.226 887.92C104.786 890.16 102.726 891.88 100.046 893.08C97.4059 894.28 94.2259 894.88 90.5059 894.88H77.5459L81.0259 891.22V907H73.2259ZM81.0259 892.06L77.5459 888.28H90.1459C93.5859 888.28 96.1659 887.56 97.8859 886.12C99.6459 884.64 100.526 882.58 100.526 879.94C100.526 877.26 99.6459 875.2 97.8859 873.76C96.1659 872.32 93.5859 871.6 90.1459 871.6H77.5459L81.0259 867.76V892.06ZM108.126 907L127.026 865H134.706L153.666 907H145.506L129.246 869.14H132.366L116.166 907H108.126ZM116.826 897.28L118.926 891.16H141.606L143.706 897.28H116.826ZM159.007 907V865H166.807V907H159.007ZM178.167 907V865H195.447C199.167 865 202.347 865.6 204.987 866.8C207.667 868 209.727 869.72 211.167 871.96C212.607 874.2 213.327 876.86 213.327 879.94C213.327 883.02 212.607 885.68 211.167 887.92C209.727 890.12 207.667 891.82 204.987 893.02C202.347 894.18 199.167 894.76 195.447 894.76H182.487L185.967 891.22V907H178.167ZM205.647 907L195.027 891.76H203.367L214.047 907H205.647ZM185.967 892.06L182.487 888.34H195.087C198.527 888.34 201.107 887.6 202.827 886.12C204.587 884.64 205.467 882.58 205.467 879.94C205.467 877.26 204.587 875.2 202.827 873.76C201.107 872.32 198.527 871.6 195.087 871.6H182.487L185.967 867.76V892.06Z" fill="white"/>
</svg>
