<svg width="218" height="304" viewBox="0 0 218 304" fill="none" xmlns="http://www.w3.org/2000/svg">
<line x1="47.2115" y1="190.306" x2="102.079" y2="56.3126" stroke="#F7F8FB" stroke-width="2.34769" stroke-linecap="round" stroke-dasharray="4.7 4.7"/>
<line x1="170.111" y1="184.879" x2="104.282" y2="57.8404" stroke="#F7F8FB" stroke-width="2.34769" stroke-linecap="round" stroke-dasharray="4.7 4.7"/>
<path d="M199.741 256.967C199.3 257 198.828 257.009 198.323 256.99C185.067 256.494 171.712 256.935 158.381 256.933C154.493 256.932 151.993 254.192 152 250.809C152.034 236.104 152.115 221.4 152.115 206.695C152.115 197.702 152.115 188.709 152.115 179.712C152.115 176.554 154.92 173.993 158.38 173.993C172.241 173.989 185.891 173.993 199.732 173.993C203.194 173.993 206 176.553 206 179.712C206 194.197 205.84 208.682 205.828 223.167C205.823 230.302 205.852 237.437 205.955 244.572C206.032 249.905 206.576 256.451 199.741 256.967Z" fill="#324E77"/>
<path d="M158.614 181.318C158.071 191.425 158.7 201.722 158.47 211.906C158.229 222.64 157.926 233.376 158.065 244.113C158.085 244.113 158.105 244.114 158.125 244.114C160.647 244.166 163.168 244.169 165.691 244.156C174.725 223.225 182.381 201.666 192.861 181.395C180.897 181.335 158.62 181.217 158.614 181.318Z" fill="#81F8DE"/>
<path d="M165.69 244.155C170.279 244.133 174.869 244.046 179.458 243.996C183.102 243.956 186.746 243.939 190.389 244.01C193.374 244.067 196.396 244.683 199.377 244.286C200.072 241.523 199.682 238.121 199.786 235.26C199.902 232.067 199.997 228.871 199.997 225.676C199.997 220.651 199.997 215.627 199.997 210.603C199.997 201.164 199.997 191.725 199.997 182.285C199.997 182.243 199.997 181.425 199.997 181.425C199.185 181.425 196.5 181.412 192.859 181.393C182.38 201.664 174.724 223.224 165.69 244.155Z" fill="#33E6BF"/>
<path d="M183.842 253.282H174.273C172.936 253.282 171.851 252.297 171.843 251.076C171.826 248.329 176.493 248.964 178.366 249.023C179.921 249.071 183.334 248.544 184.711 248.991C187.197 249.799 186.453 253.282 183.842 253.282Z" fill="#162A48"/>
<path d="M182.984 178.294C180.344 178.294 177.773 178.299 175.128 178.294C174.656 178.293 174.272 177.943 174.272 177.512C174.272 177.079 174.656 176.729 175.13 176.729H182.983C183.457 176.729 183.841 177.079 183.841 177.512C183.841 177.944 183.458 178.294 182.984 178.294Z" fill="#162A48"/>
<path d="M75.5633 269.097C75.1096 269.135 74.6239 269.144 74.1045 269.123C60.4736 268.556 31.2712 269.06 17.5617 269.058C13.5627 269.057 10.992 265.916 11 262.039C11.0353 245.187 11.1178 228.334 11.1178 211.482C11.1178 201.175 11.1178 190.868 11.1178 180.556C11.1178 176.937 14.0027 174.003 17.5617 174.002C31.8163 173.998 61.32 174.002 75.5545 174.002C79.1143 174.002 82 176.936 82 180.556C82 197.158 81.8349 213.759 81.8237 230.359C81.818 238.537 81.8477 246.715 81.9535 254.891C82.0329 261.004 82.5924 268.505 75.5633 269.097Z" fill="#324E77"/>
<path d="M17.8026 182.396C17.2439 193.981 17.8908 205.782 17.6543 217.452C17.405 229.754 17.094 246.778 17.2375 259.083C17.2575 259.084 17.2784 259.084 17.2984 259.085C19.5052 259.136 21.7119 259.145 23.9187 259.14C35.019 233.236 47.3753 207.771 60.0034 182.459C42.7735 182.389 17.8074 182.295 17.8026 182.396Z" fill="#81F8DE"/>
<path d="M23.918 259.14C29.024 259.129 34.1309 259.013 39.237 258.951C42.9844 258.905 62.1998 258.885 65.9464 258.967C69.0157 259.033 72.1242 259.738 75.1895 259.284C75.9045 256.117 75.5029 247.499 75.6095 244.22C75.7289 240.56 75.8267 236.899 75.8267 233.236C75.8267 227.478 75.8267 221.719 75.8267 215.961C75.8267 205.143 75.8267 194.325 75.8267 183.507C75.8267 183.459 75.8267 182.521 75.8267 182.521C74.6725 182.521 68.2157 182.493 60.0027 182.458C47.3746 207.771 35.0183 233.236 23.918 259.14Z" fill="#33E6BF"/>
<path d="M50.5395 178.935C47.8246 178.935 45.181 178.941 42.4612 178.935C41.9754 178.935 41.5811 178.534 41.5811 178.039C41.5811 177.543 41.9762 177.142 42.4628 177.142H50.5387C51.0261 177.142 51.4205 177.543 51.4205 178.039C51.4205 178.534 51.0261 178.935 50.5395 178.935Z" fill="#162A48"/>
<path d="M49.8517 264.187C49.8517 266.069 48.3512 267.595 46.5003 267.595C44.6495 267.595 43.1489 266.069 43.1489 264.187C43.1489 262.305 44.6495 260.779 46.5003 260.779C48.3512 260.779 49.8517 262.305 49.8517 264.187Z" fill="#162A48"/>
<path d="M40.3435 115.167C40.2912 114.542 40.2788 113.873 40.3078 113.157C41.0763 94.3738 40.3933 65.9994 40.3966 47.1088C40.3974 41.5984 44.6539 38.0556 49.907 38.0664C72.7428 38.1146 95.5795 38.2291 118.415 38.2291C132.381 38.2291 146.347 38.2291 160.32 38.2291C165.225 38.2291 169.201 42.2042 169.201 47.108C169.206 66.7504 169.201 95.5406 169.201 115.156C169.201 120.061 165.225 124.037 160.32 124.037C137.824 124.037 115.331 123.81 92.835 123.794C81.7545 123.786 70.6739 123.827 59.5942 123.973C51.3104 124.082 41.146 124.853 40.3435 115.167Z" fill="#36537D"/>
<path d="M28.4896 139.396C28.4282 139.343 28.4133 139.288 28.4481 139.229C29.3585 137.667 28.5485 135.308 28.5535 133.737C28.5544 133.279 33.5942 132.984 39.8142 132.985C66.8525 132.989 93.8925 132.998 120.932 132.998C137.469 132.998 154.005 132.998 170.549 132.998C176.356 132.998 181.064 133.328 181.066 133.737C181.071 135.37 181.066 137.764 181.066 139.396C181.066 139.804 176.358 140.134 170.549 140.134C143.913 140.134 117.278 140.115 90.6435 140.114C77.5231 140.114 64.4027 140.117 51.2839 140.129C41.4748 140.137 29.4398 140.201 28.4896 139.396Z" fill="#162A48"/>
<path d="M28.4778 133.206C28.4264 133.139 28.4131 133.069 28.443 132.993C29.2114 131.008 40.3941 126.755 40.3974 124.758C40.3982 124.176 44.6547 123.801 49.9078 123.802C72.7428 123.807 95.5803 123.82 118.416 123.82C132.382 123.82 146.348 123.82 160.321 123.82C165.225 123.82 169.201 124.24 169.202 124.758C169.207 126.835 181.068 131.132 181.068 133.205C181.068 133.723 177.092 134.143 172.186 134.143C149.691 134.143 115.331 134.119 92.8358 134.118C81.7553 134.117 58.8083 134.121 47.7285 134.137C39.4447 134.148 29.2803 134.229 28.4778 133.206Z" fill="#162A48"/>
<path d="M172.186 132.363C160.387 132.363 145.325 132.357 130.423 132.351C116.912 132.344 103.532 132.338 92.8352 132.338H89.3281C77.4475 132.338 57.7396 132.343 47.7254 132.357L43.2922 132.363C41.1312 132.363 35.8573 132.363 32.4365 132.155C33.3037 131.659 34.2548 131.147 35.0341 130.727C38.7859 128.706 41.0216 127.447 41.8308 126.033C42.9627 125.819 45.7619 125.584 49.8839 125.584L74.8384 125.591C89.3646 125.596 103.89 125.601 118.415 125.601H160.319C164.018 125.601 166.667 125.84 167.776 126.052C168.572 127.425 170.716 128.63 174.294 130.552C175.143 131.007 176.271 131.614 177.258 132.192C175.94 132.29 174.222 132.363 172.186 132.363Z" fill="#36537D"/>
<path d="M167.036 130.244C156.141 130.244 142.23 130.238 128.467 130.232C115.99 130.226 103.633 130.221 93.753 130.22H90.514C79.5422 130.22 61.3412 130.225 52.0931 130.238L47.9984 130.243C46.0026 130.243 41.132 130.243 37.9727 130.056C38.7735 129.61 39.6515 129.151 40.3718 128.776C43.8366 126.963 45.9013 125.834 46.6491 124.566C47.6947 124.373 50.2798 124.163 54.0864 124.163L77.133 124.17C90.548 124.174 103.963 124.179 117.378 124.179H156.078C159.494 124.179 161.94 124.392 162.964 124.583C163.699 125.815 165.68 126.895 168.984 128.619C169.768 129.028 170.811 129.571 171.722 130.09C170.504 130.179 168.917 130.244 167.036 130.244Z" fill="#162A48"/>
<path d="M110.851 47.2365C92.6489 46.8938 67.4612 46.4647 49.2545 46.6614C49.2537 46.6896 47.4736 46.7178 47.4727 46.746C47.2246 56.8233 47.5391 55.0349 47.6711 65.1113C47.7383 70.2748 47.7682 96.7538 47.6487 101.916C47.5508 106.146 46.5076 110.429 47.179 114.653C51.8645 115.638 66.3948 115.084 71.2463 115.232C74.6704 115.336 78.0953 115.424 81.5202 115.477C94.2688 92.1172 107.791 69.1918 122.752 47.2987C118.779 47.3178 114.809 47.3112 110.851 47.2365Z" fill="#81F8DE"/>
<path d="M122.751 47.2987C107.79 69.1925 94.2677 92.1171 81.519 115.477C83.5116 115.508 85.5033 115.531 87.4958 115.531C96.0162 115.531 104.536 115.531 113.056 115.531C129.062 115.531 145.067 115.531 161.073 115.531C161.144 115.531 162.532 115.531 162.532 115.531C162.532 110.604 162.939 47.4497 162.717 47.4397C149.507 46.8472 136.107 47.2364 122.751 47.2987Z" fill="#33E6BF"/>
<path d="M169.198 127.959H40.3721V128.776H169.198V127.959Z" fill="#36537D"/>
<path d="M166.131 125.691H44.7061V126.508H166.131V125.691Z" fill="#36537D"/>
<path d="M80.6419 23.2C79.5485 23.2 78.5019 23.0467 77.5019 22.74C76.5019 22.42 75.7085 22.0133 75.1219 21.52L76.0219 19.5C76.5819 19.94 77.2752 20.3067 78.1019 20.6C78.9285 20.8933 79.7752 21.04 80.6419 21.04C81.3752 21.04 81.9685 20.96 82.4219 20.8C82.8752 20.64 83.2085 20.4267 83.4219 20.16C83.6352 19.88 83.7419 19.5667 83.7419 19.22C83.7419 18.7933 83.5885 18.4533 83.2819 18.2C82.9752 17.9333 82.5752 17.7267 82.0819 17.58C81.6019 17.42 81.0619 17.2733 80.4619 17.14C79.8752 17.0067 79.2819 16.8533 78.6819 16.68C78.0952 16.4933 77.5552 16.26 77.0619 15.98C76.5819 15.6867 76.1885 15.3 75.8819 14.82C75.5752 14.34 75.4219 13.7267 75.4219 12.98C75.4219 12.22 75.6219 11.5267 76.0219 10.9C76.4352 10.26 77.0552 9.75333 77.8819 9.38C78.7219 8.99333 79.7819 8.8 81.0619 8.8C81.9019 8.8 82.7352 8.90667 83.5619 9.12C84.3885 9.33333 85.1085 9.64 85.7219 10.04L84.9019 12.06C84.2752 11.6867 83.6285 11.4133 82.9619 11.24C82.2952 11.0533 81.6552 10.96 81.0419 10.96C80.3219 10.96 79.7352 11.0467 79.2819 11.22C78.8419 11.3933 78.5152 11.62 78.3019 11.9C78.1019 12.18 78.0019 12.5 78.0019 12.86C78.0019 13.2867 78.1485 13.6333 78.4419 13.9C78.7485 14.1533 79.1419 14.3533 79.6219 14.5C80.1152 14.6467 80.6619 14.7933 81.2619 14.94C81.8619 15.0733 82.4552 15.2267 83.0419 15.4C83.6419 15.5733 84.1819 15.8 84.6619 16.08C85.1552 16.36 85.5485 16.74 85.8419 17.22C86.1485 17.7 86.3019 18.3067 86.3019 19.04C86.3019 19.7867 86.0952 20.48 85.6819 21.12C85.2819 21.7467 84.6619 22.2533 83.8219 22.64C82.9819 23.0133 81.9219 23.2 80.6419 23.2ZM91.5247 23V11.2H86.8847V9H98.7647V11.2H94.1247V23H91.5247ZM98.0328 23L104.333 9H106.893L113.213 23H110.493L105.073 10.38H106.113L100.713 23H98.0328ZM100.933 19.76L101.633 17.72H109.193L109.893 19.76H100.933ZM114.993 23V9H120.753C121.993 9 123.053 9.2 123.933 9.6C124.827 10 125.513 10.5733 125.993 11.32C126.473 12.0667 126.713 12.9533 126.713 13.98C126.713 15.0067 126.473 15.8933 125.993 16.64C125.513 17.3733 124.827 17.94 123.933 18.34C123.053 18.7267 121.993 18.92 120.753 18.92H116.433L117.593 17.74V23H114.993ZM124.153 23L120.613 17.92H123.393L126.953 23H124.153ZM117.593 18.02L116.433 16.78H120.633C121.78 16.78 122.64 16.5333 123.213 16.04C123.8 15.5467 124.093 14.86 124.093 13.98C124.093 13.0867 123.8 12.4 123.213 11.92C122.64 11.44 121.78 11.2 120.633 11.2H116.433L117.593 9.92V18.02ZM132.267 23V11.2H127.627V9H139.507V11.2H134.867V23H132.267Z" fill="white"/>
<path d="M22.0753 297V283H27.8353C29.0753 283 30.1353 283.2 31.0153 283.6C31.9086 284 32.5953 284.573 33.0753 285.32C33.5553 286.067 33.7953 286.953 33.7953 287.98C33.7953 289.007 33.5553 289.893 33.0753 290.64C32.5953 291.387 31.9086 291.96 31.0153 292.36C30.1353 292.76 29.0753 292.96 27.8353 292.96H23.5153L24.6753 291.74V297H22.0753ZM24.6753 292.02L23.5153 290.76H27.7153C28.862 290.76 29.722 290.52 30.2953 290.04C30.882 289.547 31.1753 288.86 31.1753 287.98C31.1753 287.087 30.882 286.4 30.2953 285.92C29.722 285.44 28.862 285.2 27.7153 285.2H23.5153L24.6753 283.92V292.02ZM33.7086 297L40.0086 283H42.5686L48.8886 297H46.1686L40.7486 284.38H41.7886L36.3886 297H33.7086ZM36.6086 293.76L37.3086 291.72H44.8686L45.5686 293.76H36.6086ZM50.6691 297V283H53.2691V297H50.6691ZM57.0558 297V283H62.8158C64.0558 283 65.1158 283.2 65.9958 283.6C66.8891 284 67.5758 284.573 68.0558 285.32C68.5358 286.067 68.7758 286.953 68.7758 287.98C68.7758 289.007 68.5358 289.893 68.0558 290.64C67.5758 291.373 66.8891 291.94 65.9958 292.34C65.1158 292.727 64.0558 292.92 62.8158 292.92H58.4958L59.6558 291.74V297H57.0558ZM66.2158 297L62.6758 291.92H65.4558L69.0158 297H66.2158ZM59.6558 292.02L58.4958 290.78H62.6958C63.8424 290.78 64.7024 290.533 65.2758 290.04C65.8624 289.547 66.1558 288.86 66.1558 287.98C66.1558 287.087 65.8624 286.4 65.2758 285.92C64.7024 285.44 63.8424 285.2 62.6958 285.2H58.4958L59.6558 283.92V292.02Z" fill="white"/>
<path d="M150.075 288V274H155.835C157.075 274 158.135 274.2 159.015 274.6C159.909 275 160.595 275.573 161.075 276.32C161.555 277.067 161.795 277.953 161.795 278.98C161.795 280.007 161.555 280.893 161.075 281.64C160.595 282.387 159.909 282.96 159.015 283.36C158.135 283.76 157.075 283.96 155.835 283.96H151.515L152.675 282.74V288H150.075ZM152.675 283.02L151.515 281.76H155.715C156.862 281.76 157.722 281.52 158.295 281.04C158.882 280.547 159.175 279.86 159.175 278.98C159.175 278.087 158.882 277.4 158.295 276.92C157.722 276.44 156.862 276.2 155.715 276.2H151.515L152.675 274.92V283.02ZM161.709 288L168.009 274H170.569L176.889 288H174.169L168.749 275.38H169.789L164.389 288H161.709ZM164.609 284.76L165.309 282.72H172.869L173.569 284.76H164.609ZM178.669 288V274H181.269V288H178.669ZM185.056 288V274H190.816C192.056 274 193.116 274.2 193.996 274.6C194.889 275 195.576 275.573 196.056 276.32C196.536 277.067 196.776 277.953 196.776 278.98C196.776 280.007 196.536 280.893 196.056 281.64C195.576 282.373 194.889 282.94 193.996 283.34C193.116 283.727 192.056 283.92 190.816 283.92H186.496L187.656 282.74V288H185.056ZM194.216 288L190.676 282.92H193.456L197.016 288H194.216ZM187.656 283.02L186.496 281.78H190.696C191.842 281.78 192.702 281.533 193.276 281.04C193.862 280.547 194.156 279.86 194.156 278.98C194.156 278.087 193.862 277.4 193.276 276.92C192.702 276.44 191.842 276.2 190.696 276.2H186.496L187.656 274.92V283.02Z" fill="white"/>
</svg>
