<svg width="272" height="362" viewBox="0 0 272 362" fill="none" xmlns="http://www.w3.org/2000/svg">
<line x1="56.2111" y1="226.386" x2="121.565" y2="66.7832" stroke="#F7F8FB" stroke-width="2.34769" stroke-linecap="round" stroke-dasharray="4.7 4.7"/>
<line x1="202.401" y1="219.744" x2="123.988" y2="68.4211" stroke="#F7F8FB" stroke-width="2.34769" stroke-linecap="round" stroke-dasharray="4.7 4.7"/>
<path d="M228.295 304.845C227.805 304.886 227.281 304.896 226.721 304.873C212.016 304.27 197.2 304.806 182.411 304.804C178.098 304.803 175.324 301.471 175.332 297.358C175.37 279.481 175.459 261.603 175.459 243.726C175.459 232.792 175.459 221.858 175.459 210.92C175.459 207.081 178.571 203.968 182.41 203.967C197.787 203.963 212.93 203.967 228.285 203.967C232.125 203.967 235.238 207.08 235.238 210.92C235.238 228.531 235.06 246.141 235.048 263.751C235.042 272.426 235.074 281.101 235.188 289.775C235.273 296.26 235.877 304.217 228.295 304.845Z" fill="#324E77"/>
<path d="M182.67 212.871C182.068 225.16 182.765 237.679 182.51 250.06C182.242 263.11 181.906 276.163 182.061 289.217C182.082 289.217 182.105 289.218 182.127 289.218C184.925 289.281 187.722 289.284 190.52 289.269C200.542 263.822 209.035 237.61 220.662 212.965C207.39 212.892 182.676 212.749 182.67 212.871Z" fill="#81F8DE"/>
<path d="M190.52 289.27C195.611 289.244 200.703 289.138 205.793 289.077C209.835 289.029 213.879 289.008 217.92 289.094C221.231 289.164 224.584 289.912 227.891 289.43C228.662 286.07 228.229 281.935 228.345 278.456C228.473 274.574 228.578 270.689 228.578 266.804C228.578 260.695 228.578 254.586 228.578 248.478C228.578 237.003 228.578 225.527 228.578 214.05C228.578 213.999 228.578 213.004 228.578 213.004C227.678 213.004 224.699 212.989 220.66 212.966C209.035 237.611 200.542 263.823 190.52 289.27Z" fill="#33E6BF"/>
<path d="M210.657 300.364H200.041C198.557 300.364 197.355 299.166 197.346 297.682C197.327 294.343 202.504 295.115 204.582 295.186C206.307 295.244 210.093 294.604 211.62 295.147C214.378 296.129 213.553 300.364 210.657 300.364Z" fill="#162A48"/>
<path d="M209.704 209.199C206.776 209.199 203.924 209.205 200.99 209.199C200.465 209.198 200.04 208.772 200.04 208.247C200.04 207.722 200.466 207.296 200.992 207.296H209.703C210.229 207.296 210.655 207.722 210.655 208.247C210.655 208.773 210.23 209.199 209.704 209.199Z" fill="#162A48"/>
<path d="M92.4824 319.974C91.9243 320.02 91.3268 320.031 90.6879 320.006C73.9217 319.319 38.0023 319.93 21.1394 319.927C16.2205 319.926 13.0585 316.127 13.0684 311.438C13.1118 291.054 13.2133 270.67 13.2133 250.287C13.2133 237.82 13.2133 225.354 13.2133 212.881C13.2133 208.504 16.7618 204.954 21.1394 204.953C38.6727 204.948 74.9629 204.953 92.4715 204.953C96.8502 204.953 100.4 208.503 100.4 212.881C100.4 232.961 100.196 253.04 100.183 273.119C100.176 283.011 100.212 292.902 100.342 302.791C100.44 310.186 101.128 319.258 92.4824 319.974Z" fill="#324E77"/>
<path d="M21.4361 215.106C20.7489 229.118 21.5445 243.392 21.2537 257.507C20.9471 272.387 20.5645 292.977 20.741 307.861C20.7656 307.862 20.7913 307.862 20.8159 307.863C23.5303 307.925 26.2446 307.936 28.9589 307.931C42.6125 276.599 57.811 245.797 73.3438 215.181C52.1507 215.097 21.442 214.983 21.4361 215.106Z" fill="#81F8DE"/>
<path d="M28.959 307.932C35.2395 307.918 41.5211 307.778 47.8016 307.703C52.411 307.648 76.0464 307.623 80.6547 307.722C84.43 307.801 88.2535 308.654 92.0238 308.105C92.9033 304.275 92.4093 293.851 92.5405 289.886C92.6874 285.459 92.8077 281.03 92.8077 276.6C92.8077 269.635 92.8077 262.669 92.8077 255.704C92.8077 242.62 92.8077 229.535 92.8077 216.45C92.8077 216.392 92.8077 215.258 92.8077 215.258C91.3879 215.258 83.446 215.224 73.3439 215.182C57.8111 245.798 42.6125 276.6 28.959 307.932Z" fill="#33E6BF"/>
<path d="M61.7017 210.919C58.3622 210.919 55.1106 210.926 51.7652 210.919C51.1677 210.918 50.6826 210.433 50.6826 209.835C50.6826 209.235 51.1687 208.75 51.7672 208.75H61.7007C62.3002 208.75 62.7852 209.235 62.7852 209.835C62.7852 210.434 62.3002 210.919 61.7017 210.919Z" fill="#162A48"/>
<path d="M60.8569 314.035C60.8569 316.311 59.0112 318.157 56.7346 318.157C54.458 318.157 52.6123 316.311 52.6123 314.035C52.6123 311.758 54.458 309.912 56.7346 309.912C59.0112 309.912 60.8569 311.758 60.8569 314.035Z" fill="#162A48"/>
<path d="M47.9307 136.827C47.8686 136.084 47.8538 135.289 47.8883 134.439C48.8013 112.123 47.9899 78.412 47.9938 55.9686C47.9948 49.4219 53.0518 45.2128 59.2929 45.2256C86.4235 45.2828 113.555 45.4189 140.686 45.4189C157.278 45.4189 173.871 45.4189 190.472 45.4189C196.299 45.4189 201.022 50.1416 201.023 55.9676C201.029 79.3043 201.023 113.509 201.023 136.813C201.023 142.641 196.299 147.365 190.472 147.365C163.745 147.365 137.021 147.095 110.295 147.076C97.13 147.066 83.9655 147.115 70.802 147.289C60.9602 147.418 48.8841 148.334 47.9307 136.827Z" fill="#36537D"/>
<path d="M33.8478 165.612C33.7749 165.55 33.7571 165.484 33.7985 165.414C34.8801 163.558 33.9178 160.755 33.9237 158.889C33.9247 158.345 39.9124 157.994 47.3022 157.995C79.4257 158 111.551 158.011 143.676 158.011C163.323 158.011 182.969 158.011 202.625 158.011C209.524 158.011 215.117 158.404 215.119 158.889C215.126 160.829 215.119 163.674 215.119 165.612C215.119 166.097 209.526 166.49 202.625 166.49C170.98 166.49 139.335 166.467 107.691 166.466C92.1032 166.465 76.5151 166.469 60.9291 166.484C49.2751 166.492 34.9767 166.569 33.8478 165.612Z" fill="#162A48"/>
<path d="M33.8338 158.258C33.7726 158.179 33.7569 158.095 33.7924 158.005C34.7054 155.647 47.9911 150.594 47.9951 148.222C47.9961 147.529 53.0531 147.085 59.2942 147.086C86.4238 147.092 113.556 147.107 140.687 147.107C157.28 147.107 173.872 147.107 190.473 147.107C196.3 147.107 201.024 147.605 201.025 148.222C201.031 150.689 215.122 155.794 215.122 158.257C215.122 158.873 210.398 159.372 204.57 159.372C177.844 159.372 137.021 159.343 110.296 159.341C97.1313 159.34 69.8686 159.345 56.705 159.364C46.8632 159.377 34.7872 159.473 33.8338 158.258Z" fill="#162A48"/>
<path d="M204.569 157.257C190.552 157.257 172.657 157.249 154.952 157.242C138.9 157.235 123.004 157.228 110.295 157.228H106.128C92.0133 157.228 68.5987 157.234 56.7012 157.25L51.4342 157.257C48.8668 157.257 42.601 157.257 38.5369 157.01C39.5672 156.42 40.6971 155.812 41.6229 155.313C46.0804 152.912 48.7366 151.416 49.6979 149.736C51.0428 149.482 54.3684 149.203 59.2656 149.203L88.9134 149.212C106.172 149.218 123.429 149.224 140.686 149.224H190.471C194.865 149.224 198.013 149.507 199.33 149.759C200.275 151.391 202.823 152.822 207.074 155.105C208.082 155.646 209.423 156.367 210.595 157.054C209.03 157.171 206.989 157.257 204.569 157.257Z" fill="#36537D"/>
<path d="M198.451 154.739C185.507 154.739 168.979 154.732 152.628 154.725C137.804 154.718 123.123 154.712 111.385 154.711H107.537C94.5019 154.711 72.8779 154.717 61.8903 154.732L57.0256 154.738C54.6544 154.738 48.8678 154.738 45.1143 154.516C46.0657 153.987 47.1088 153.441 47.9647 152.995C52.081 150.842 54.5341 149.5 55.4225 147.993C56.6648 147.764 59.736 147.515 64.2586 147.515L91.6397 147.523C107.578 147.528 123.516 147.534 139.454 147.534H185.432C189.49 147.534 192.397 147.787 193.613 148.014C194.487 149.477 196.839 150.761 200.765 152.809C201.697 153.295 202.936 153.94 204.018 154.557C202.571 154.662 200.686 154.739 198.451 154.739Z" fill="#162A48"/>
<path d="M131.699 56.1205C110.074 55.7133 80.1489 55.2035 58.518 55.4372C58.517 55.4707 56.4021 55.5042 56.4012 55.5378C56.1064 67.5103 56.48 65.3855 56.6368 77.357C56.7167 83.4917 56.7522 114.951 56.6102 121.084C56.4938 126.109 55.2545 131.198 56.0521 136.216C61.6188 137.386 78.882 136.728 84.6459 136.904C88.714 137.027 92.783 137.132 96.8521 137.195C111.998 109.442 128.064 82.205 145.838 56.1944C141.118 56.2171 136.402 56.2092 131.699 56.1205Z" fill="#81F8DE"/>
<path d="M145.837 56.1943C128.062 82.2058 111.997 109.442 96.8506 137.195C99.2179 137.232 101.584 137.259 103.951 137.259C114.074 137.259 124.196 137.259 134.319 137.259C153.335 137.259 172.35 137.259 191.366 137.259C191.451 137.259 193.1 137.259 193.1 137.259C193.1 131.405 193.583 56.3737 193.32 56.3619C177.625 55.6579 161.705 56.1203 145.837 56.1943Z" fill="#33E6BF"/>
<path d="M201.019 152.025H47.9651V152.995H201.019V152.025Z" fill="#36537D"/>
<path d="M197.375 149.33H53.114V150.3H197.375V149.33Z" fill="#36537D"/>
<path d="M109.826 23.1881V17.6481L110.406 19.2481L104.326 9.18811H107.106L111.986 17.2881H110.426L115.346 9.18811H117.906L111.826 19.2481L112.426 17.6481V23.1881H109.826ZM125.563 23.3881C124.47 23.3881 123.463 23.2081 122.543 22.8481C121.623 22.4881 120.823 21.9881 120.143 21.3481C119.463 20.6948 118.937 19.9348 118.563 19.0681C118.19 18.1881 118.003 17.2281 118.003 16.1881C118.003 15.1481 118.19 14.1948 118.563 13.3281C118.937 12.4481 119.463 11.6881 120.143 11.0481C120.823 10.3948 121.623 9.88811 122.543 9.52811C123.463 9.16811 124.463 8.98811 125.543 8.98811C126.637 8.98811 127.637 9.16811 128.543 9.52811C129.463 9.88811 130.263 10.3948 130.943 11.0481C131.623 11.6881 132.15 12.4481 132.523 13.3281C132.897 14.1948 133.083 15.1481 133.083 16.1881C133.083 17.2281 132.897 18.1881 132.523 19.0681C132.15 19.9481 131.623 20.7081 130.943 21.3481C130.263 21.9881 129.463 22.4881 128.543 22.8481C127.637 23.2081 126.643 23.3881 125.563 23.3881ZM125.543 21.1081C126.25 21.1081 126.903 20.9881 127.503 20.7481C128.103 20.5081 128.623 20.1681 129.063 19.7281C129.503 19.2748 129.843 18.7548 130.083 18.1681C130.337 17.5681 130.463 16.9081 130.463 16.1881C130.463 15.4681 130.337 14.8148 130.083 14.2281C129.843 13.6281 129.503 13.1081 129.063 12.6681C128.623 12.2148 128.103 11.8681 127.503 11.6281C126.903 11.3881 126.25 11.2681 125.543 11.2681C124.837 11.2681 124.183 11.3881 123.583 11.6281C122.997 11.8681 122.477 12.2148 122.023 12.6681C121.583 13.1081 121.237 13.6281 120.983 14.2281C120.743 14.8148 120.623 15.4681 120.623 16.1881C120.623 16.8948 120.743 17.5481 120.983 18.1481C121.237 18.7481 121.583 19.2748 122.023 19.7281C122.463 20.1681 122.983 20.5081 123.583 20.7481C124.183 20.9881 124.837 21.1081 125.543 21.1081ZM141.859 23.3881C139.939 23.3881 138.433 22.8481 137.339 21.7681C136.259 20.6881 135.719 19.1281 135.719 17.0881V9.18811H138.319V16.9881C138.319 18.4281 138.626 19.4748 139.239 20.1281C139.866 20.7814 140.746 21.1081 141.879 21.1081C143.013 21.1081 143.886 20.7814 144.499 20.1281C145.113 19.4748 145.419 18.4281 145.419 16.9881V9.18811H147.979V17.0881C147.979 19.1281 147.433 20.6881 146.339 21.7681C145.259 22.8481 143.766 23.3881 141.859 23.3881Z" fill="white"/>
<path d="M30.5386 348.72V334.72H36.2986C37.5386 334.72 38.5986 334.92 39.4786 335.32C40.3719 335.72 41.0586 336.293 41.5386 337.04C42.0186 337.787 42.2586 338.673 42.2586 339.7C42.2586 340.727 42.0186 341.613 41.5386 342.36C41.0586 343.107 40.3719 343.68 39.4786 344.08C38.5986 344.48 37.5386 344.68 36.2986 344.68H31.9786L33.1386 343.46V348.72H30.5386ZM33.1386 343.74L31.9786 342.48H36.1786C37.3252 342.48 38.1852 342.24 38.7586 341.76C39.3452 341.267 39.6386 340.58 39.6386 339.7C39.6386 338.807 39.3452 338.12 38.7586 337.64C38.1852 337.16 37.3252 336.92 36.1786 336.92H31.9786L33.1386 335.64V343.74ZM42.1719 348.72L48.4719 334.72H51.0319L57.3519 348.72H54.6319L49.2119 336.1H50.2519L44.8519 348.72H42.1719ZM45.0719 345.48L45.7719 343.44H53.3319L54.0319 345.48H45.0719ZM59.1323 348.72V334.72H61.7323V348.72H59.1323ZM65.519 348.72V334.72H71.279C72.519 334.72 73.579 334.92 74.459 335.32C75.3524 335.72 76.039 336.293 76.519 337.04C76.999 337.787 77.239 338.673 77.239 339.7C77.239 340.727 76.999 341.613 76.519 342.36C76.039 343.093 75.3524 343.66 74.459 344.06C73.579 344.447 72.519 344.64 71.279 344.64H66.959L68.119 343.46V348.72H65.519ZM74.679 348.72L71.139 343.64H73.919L77.479 348.72H74.679ZM68.119 343.74L66.959 342.5H71.159C72.3057 342.5 73.1657 342.253 73.739 341.76C74.3257 341.267 74.619 340.58 74.619 339.7C74.619 338.807 74.3257 338.12 73.739 337.64C73.1657 337.16 72.3057 336.92 71.159 336.92H66.959L68.119 335.64V343.74Z" fill="white"/>
<path d="M161.78 337.167V323.167H168.34C170.02 323.167 171.3 323.5 172.18 324.167C173.06 324.82 173.5 325.7 173.5 326.807C173.5 327.553 173.327 328.193 172.98 328.727C172.634 329.247 172.167 329.653 171.58 329.947C171.007 330.227 170.38 330.367 169.7 330.367L170.06 329.647C170.847 329.647 171.554 329.793 172.18 330.087C172.807 330.367 173.3 330.78 173.66 331.327C174.034 331.873 174.22 332.553 174.22 333.367C174.22 334.567 173.76 335.5 172.84 336.167C171.92 336.833 170.554 337.167 168.74 337.167H161.78ZM164.38 335.127H168.58C169.554 335.127 170.3 334.967 170.82 334.647C171.34 334.327 171.6 333.813 171.6 333.107C171.6 332.413 171.34 331.907 170.82 331.587C170.3 331.253 169.554 331.087 168.58 331.087H164.18V329.067H168.06C168.967 329.067 169.66 328.907 170.14 328.587C170.634 328.267 170.88 327.787 170.88 327.147C170.88 326.493 170.634 326.007 170.14 325.687C169.66 325.367 168.967 325.207 168.06 325.207H164.38V335.127ZM175.015 337.167L181.315 323.167H183.875L190.195 337.167H187.475L182.055 324.547H183.095L177.695 337.167H175.015ZM177.915 333.927L178.615 331.887H186.175L186.875 333.927H177.915ZM198.26 337.367C197.194 337.367 196.2 337.193 195.28 336.847C194.374 336.487 193.58 335.987 192.9 335.347C192.234 334.693 191.714 333.927 191.34 333.047C190.967 332.167 190.78 331.207 190.78 330.167C190.78 329.127 190.967 328.167 191.34 327.287C191.714 326.407 192.24 325.647 192.92 325.007C193.6 324.353 194.394 323.853 195.3 323.507C196.207 323.147 197.2 322.967 198.28 322.967C199.427 322.967 200.474 323.167 201.42 323.567C202.367 323.953 203.167 324.533 203.82 325.307L202.14 326.887C201.634 326.34 201.067 325.933 200.44 325.667C199.814 325.387 199.134 325.247 198.4 325.247C197.667 325.247 196.994 325.367 196.38 325.607C195.78 325.847 195.254 326.187 194.8 326.627C194.36 327.067 194.014 327.587 193.76 328.187C193.52 328.787 193.4 329.447 193.4 330.167C193.4 330.887 193.52 331.547 193.76 332.147C194.014 332.747 194.36 333.267 194.8 333.707C195.254 334.147 195.78 334.487 196.38 334.727C196.994 334.967 197.667 335.087 198.4 335.087C199.134 335.087 199.814 334.953 200.44 334.687C201.067 334.407 201.634 333.987 202.14 333.427L203.82 335.027C203.167 335.787 202.367 336.367 201.42 336.767C200.474 337.167 199.42 337.367 198.26 337.367ZM208.632 333.867L208.492 330.787L215.832 323.167H218.752L212.652 329.647L211.212 331.227L208.632 333.867ZM206.312 337.167V323.167H208.912V337.167H206.312ZM216.072 337.167L210.712 330.787L212.432 328.887L219.112 337.167H216.072ZM226.707 337.367C224.787 337.367 223.28 336.827 222.187 335.747C221.107 334.667 220.567 333.107 220.567 331.067V323.167H223.167V330.967C223.167 332.407 223.473 333.453 224.087 334.107C224.713 334.76 225.593 335.087 226.727 335.087C227.86 335.087 228.733 334.76 229.347 334.107C229.96 333.453 230.267 332.407 230.267 330.967V323.167H232.827V331.067C232.827 333.107 232.28 334.667 231.187 335.747C230.107 336.827 228.613 337.367 226.707 337.367ZM236.468 337.167V323.167H242.228C243.468 323.167 244.528 323.367 245.408 323.767C246.301 324.167 246.988 324.74 247.468 325.487C247.948 326.233 248.188 327.12 248.188 328.147C248.188 329.173 247.948 330.06 247.468 330.807C246.988 331.553 246.301 332.127 245.408 332.527C244.528 332.927 243.468 333.127 242.228 333.127H237.908L239.068 331.907V337.167H236.468ZM239.068 332.187L237.908 330.927H242.108C243.255 330.927 244.115 330.687 244.688 330.207C245.275 329.713 245.568 329.027 245.568 328.147C245.568 327.253 245.275 326.567 244.688 326.087C244.115 325.607 243.255 325.367 242.108 325.367H237.908L239.068 324.087V332.187Z" fill="white"/>
</svg>
