<svg width="27" height="24" viewBox="0 0 27 24" fill="none" xmlns="http://www.w3.org/2000/svg">
<g clip-path="url(#clip0_49019_123883)">
<path d="M11.8899 19.5031C12.5903 22.0891 15.093 24.0629 16.3567 23.9845C16.4007 23.9845 21.1515 23.0931 23.7522 18.739C25.775 15.3498 25.0893 12.0781 22.3368 12.0046C21.3572 12.0781 10.5822 14.5759 11.8899 19.5031Z" fill="#3D6195"/>
<path d="M22.0771 2.8896C20.3447 1.41217 18.2295 0.455209 15.9761 0.12933C13.7226 -0.196549 11.423 0.121964 9.34299 1.04805C9.07923 1.15795 8.82243 1.2839 8.57405 1.42517C8.40753 1.51333 8.23611 1.60639 8.08428 1.70434H8.12836C7.63435 2.04251 7.1992 2.45946 6.84025 2.93857C3.38735 7.50816 14.995 10.8484 21.2102 10.8582C24.0705 12.9153 24.8737 5.06909 22.0771 2.8896Z" fill="#3D6195"/>
<path d="M10.0486 2.98413C8.45198 5.38892 3.13304 7.08353 2.25635 6.81905L2.3641 6.59866C2.66158 6.00694 3.00378 5.43879 3.38772 4.89914C4.16727 3.85121 5.10013 2.92661 6.15494 2.15641C6.4807 1.91034 6.81911 1.68146 7.16877 1.47073C7.70514 1.16408 8.3094 0.995761 8.92706 0.980957C11.2976 1.02504 10.0584 2.94005 10.0486 2.94005" fill="#02122B"/>
<path d="M8.73564 19.9787C8.85319 20.7329 8.73564 23.7156 8.57892 23.9703C8.44668 23.9703 8.1724 23.9948 7.36918 23.5442C6.94835 23.305 6.54269 23.04 6.15454 22.7508C5.63303 22.3644 5.14182 21.9387 4.68522 21.4774C4.22267 21.0219 3.79687 20.5306 3.41181 20.0081C2.62744 18.944 2.01739 17.7619 1.60454 16.5062C1.3882 15.8676 1.22439 15.2124 1.11477 14.5471C0.892733 13.1765 0.892733 11.7791 1.11477 10.4085C1.22552 9.74345 1.3893 9.08833 1.60454 8.44941C1.64373 8.32207 1.68781 8.19472 1.73678 8.06738C2.65266 9.29182 3.69588 10.3987 4.62155 11.6329C5.54722 12.8672 6.6639 14.7283 6.90389 15.1397C8.37321 17.6816 8.63769 19.2538 8.75034 20.0081" fill="#02122B"/>
<path d="M26.4068 12.4578C26.4084 14.062 26.1077 15.6522 25.5203 17.1449C24.0216 18.7563 13.9077 14.7842 13.8098 14.7402C12.4237 14.1328 8.21658 12.2913 7.83455 9.38204C7.3056 5.20427 15.7444 2.29502 19.4618 2.18237C19.9075 2.18237 21.2641 2.18237 22.0527 2.84846C23.4229 4.04605 24.5206 5.52342 25.2716 7.18103C26.0227 8.83865 26.4098 10.638 26.4068 12.4578Z" fill="#02122B"/>
<path d="M19.5499 23.7706C18.4479 24.2897 17.2332 23.9126 17.5516 22.8351C18.154 20.7732 23.4289 18.6524 24.6092 18.5398C24.7513 18.5398 24.8149 18.6231 24.7513 18.7357C23.5335 20.876 21.7287 22.6231 19.5499 23.7706Z" fill="#02122B"/>
</g>
<defs>
<clipPath id="clip0_49019_123883">
<rect width="25.4682" height="24" fill="white" transform="translate(0.938721)"/>
</clipPath>
</defs>
</svg>
