<svg width="24" height="24" viewBox="0 0 24 24" fill="none" xmlns="http://www.w3.org/2000/svg">
<path id="Vector" d="M3.90039 21.5996C4.72882 21.5996 5.40039 20.928 5.40039 20.0996C5.40039 19.2712 4.72882 18.5996 3.90039 18.5996C3.07196 18.5996 2.40039 19.2712 2.40039 20.0996C2.40039 20.928 3.07196 21.5996 3.90039 21.5996Z" fill="#F0F4FC"/>
<path id="Vector_2" d="M9.30078 21.5996C10.1292 21.5996 10.8008 20.928 10.8008 20.0996C10.8008 19.2712 10.1292 18.5996 9.30078 18.5996C8.47235 18.5996 7.80078 19.2712 7.80078 20.0996C7.80078 20.928 8.47235 21.5996 9.30078 21.5996Z" fill="#F0F4FC"/>
<path id="Vector_3" d="M14.6992 21.5996C15.5276 21.5996 16.1992 20.928 16.1992 20.0996C16.1992 19.2712 15.5276 18.5996 14.6992 18.5996C13.8708 18.5996 13.1992 19.2712 13.1992 20.0996C13.1992 20.928 13.8708 21.5996 14.6992 21.5996Z" fill="#F0F4FC"/>
<path id="Vector_4" d="M20.0996 21.5996C20.928 21.5996 21.5996 20.928 21.5996 20.0996C21.5996 19.2712 20.928 18.5996 20.0996 18.5996C19.2712 18.5996 18.5996 19.2712 18.5996 20.0996C18.5996 20.928 19.2712 21.5996 20.0996 21.5996Z" fill="#F0F4FC"/>
<path id="Vector_5" d="M16.2 9.59961H7.8C6.80589 9.59961 6 10.4055 6 11.3996V13.7996C6 14.7937 6.80589 15.5996 7.8 15.5996H16.2C17.1941 15.5996 18 14.7937 18 13.7996V11.3996C18 10.4055 17.1941 9.59961 16.2 9.59961Z" stroke="#F0F4FC" stroke-width="2" stroke-linecap="round" stroke-linejoin="round"/>
<path id="Vector_6" d="M9 9.59961V6.59961C9 4.94277 10.3432 3.59961 12 3.59961C13.6568 3.59961 15 4.94277 15 6.59961V9.59961H15.6" stroke="#F0F4FC" stroke-width="2" stroke-linecap="round" stroke-linejoin="round"/>
<path id="Vector_7" d="M16.2 9.59961H7.8C6.80592 9.59961 6 10.4055 6 11.3996V13.7996C6 14.7937 6.80592 15.5996 7.8 15.5996H16.2C17.1941 15.5996 18 14.7937 18 13.7996V11.3996C18 10.4055 17.1941 9.59961 16.2 9.59961ZM13.2 13.1996C13.2 13.8622 12.6626 14.3996 12 14.3996C11.3374 14.3996 10.8 13.8622 10.8 13.1996V11.9996C10.8 11.337 11.3374 10.7996 12 10.7996C12.6626 10.7996 13.2 11.337 13.2 11.9996V13.1996Z" fill="#F0F4FC"/>
</svg>
