<svg width="32" height="32" viewBox="0 0 32 32" fill="none" xmlns="http://www.w3.org/2000/svg">
<g clip-path="url(#clip0_48948_109700)">
<path d="M10.5485 15.9216C10.4986 16.8013 11.1739 17.5577 12.0532 17.608C12.0842 17.6096 12.1149 17.6107 12.1452 17.6107C12.9911 17.6107 13.6915 16.9486 13.7397 16.1029C13.7897 15.2232 13.1149 14.4668 12.2349 14.4168C11.3498 14.3651 10.5986 15.0457 10.5485 15.9216Z" fill="#2359DC"/>
<path d="M4.58959 15.5087C4.30498 15.4923 4.06063 15.7102 4.04482 15.995C4.02832 16.2796 4.24606 16.5241 4.53075 16.5402C4.81561 16.5564 5.05988 16.3385 5.07621 16.0539C5.09201 15.7687 4.87445 15.5248 4.58959 15.5087Z" fill="#2359DC"/>
<path d="M10.4455 6.64204C10.7 6.51379 10.8028 6.20309 10.6744 5.94816C10.5457 5.69368 10.2353 5.59092 9.98024 5.71952C9.72576 5.84776 9.62327 6.15847 9.75168 6.41313C9.88011 6.66805 10.1905 6.77028 10.4455 6.64204Z" fill="#2359DC"/>
<path d="M12.0679 9.4722C12.4619 9.27394 12.6202 8.79387 12.4217 8.40023C12.2233 8.00658 11.7431 7.84814 11.3494 8.0464C10.9558 8.24474 10.7972 8.72482 10.9958 9.11855C11.1943 9.51236 11.6742 9.6709 12.0679 9.4722Z" fill="#2359DC"/>
<path d="M6.61149 11.418C6.9153 11.6173 7.32282 11.5327 7.52204 11.2288C7.721 10.9253 7.63632 10.5177 7.33268 10.3187C7.0287 10.1195 6.62144 10.2043 6.42222 10.508C6.22299 10.8116 6.30794 11.2192 6.61149 11.418Z" fill="#2359DC"/>
<path d="M7.58409 15.2201C7.14409 15.1949 6.76695 15.5315 6.74155 15.9717C6.71649 16.4122 7.05321 16.7891 7.4933 16.8145C7.93365 16.8394 8.31114 16.5028 8.33602 16.0625C8.36099 15.6221 8.02444 15.2449 7.58409 15.2201Z" fill="#2359DC"/>
<path d="M6.69943 20.5863C6.37528 20.7495 6.24494 21.1451 6.40845 21.4692C6.57171 21.7935 6.96727 21.9237 7.29125 21.7605C7.61549 21.5968 7.746 21.2016 7.5824 20.8771C7.41915 20.5532 7.02393 20.4226 6.69943 20.5863Z" fill="#2359DC"/>
<path d="M9.80121 13.5684C10.2351 13.853 10.8175 13.7319 11.1017 13.2979C11.3863 12.8644 11.2652 12.282 10.8314 11.9979C10.3976 11.7131 9.81544 11.8343 9.53102 12.2678C9.24632 12.7019 9.3675 13.284 9.80121 13.5684Z" fill="#2359DC"/>
<path d="M19.6418 9.4039C20.0106 9.64564 20.5054 9.54262 20.7471 9.17377C20.9891 8.80536 20.8864 8.31045 20.5175 8.06845C20.149 7.82654 19.6539 7.92929 19.4121 8.2984C19.1702 8.66681 19.2733 9.16199 19.6418 9.4039Z" fill="#2359DC"/>
<path d="M21.2795 6.59717C21.5177 6.7537 21.8383 6.68691 21.9947 6.44849C22.1509 6.20981 22.0844 5.88968 21.8459 5.73314C21.6076 5.57652 21.2873 5.6434 21.1305 5.88173C20.974 6.1205 21.0409 6.44054 21.2795 6.59717Z" fill="#2359DC"/>
<path d="M19.7661 14.3934C18.8811 14.3419 18.1293 15.0223 18.0798 15.8978C18.0297 16.7777 18.7047 17.5342 19.5842 17.5843C19.6149 17.586 19.6458 17.5869 19.6762 17.5869C20.5221 17.5869 21.2224 16.9248 21.2705 16.0798C21.2948 15.6533 21.1515 15.2431 20.8673 14.9249C20.5836 14.6061 20.1921 14.4175 19.7661 14.3934Z" fill="#2359DC"/>
<path d="M12.5926 13.4583C12.8657 14.0004 13.4128 14.3375 14.0209 14.3375C14.268 14.3375 14.5165 14.2782 14.7388 14.1663C15.5257 13.7697 15.8433 12.8068 15.4468 12.0198C15.1734 11.4773 14.6264 11.1406 14.0185 11.1406C13.7714 11.1406 13.5229 11.2 13.3007 11.3116C12.5138 11.7082 12.1961 12.6709 12.5926 13.4583Z" fill="#2359DC"/>
<path d="M25.1187 11.4168C25.4426 11.2534 25.5734 10.8581 25.4099 10.5335C25.2463 10.2092 24.8511 10.079 24.5269 10.2424C24.2025 10.4057 24.072 10.8011 24.2356 11.1254C24.3992 11.4495 24.7942 11.5799 25.1187 11.4168Z" fill="#2359DC"/>
<path d="M21.0668 11.9211C20.6032 12.1545 20.4172 12.7193 20.6504 13.1826C20.884 13.6459 21.4486 13.8319 21.9119 13.5987C22.3751 13.3652 22.5615 12.8003 22.3283 12.337C22.0947 11.8739 21.5298 11.6874 21.0668 11.9211Z" fill="#2359DC"/>
<path d="M15.8508 6.35307C16.2133 6.37367 16.5239 6.09666 16.5446 5.73384C16.5651 5.37145 16.288 5.06066 15.9256 5.04014C15.5629 5.01954 15.2521 5.29672 15.2315 5.65937C15.2111 6.02185 15.4881 6.33247 15.8508 6.35307Z" fill="#2359DC"/>
<path d="M15.8412 10.4868C16.359 10.5163 16.8029 10.1202 16.8324 9.60222C16.8618 9.08426 16.4657 8.64016 15.9476 8.61091C15.43 8.5815 14.9862 8.97741 14.9566 9.49554C14.9272 10.0133 15.3233 10.4572 15.8412 10.4868Z" fill="#2359DC"/>
<path d="M10.7515 20.083C11.215 19.8495 11.4013 19.2847 11.1681 18.8215C10.9345 18.3584 10.3696 18.1717 9.90651 18.4055C9.44329 18.6389 9.2569 19.2033 9.49026 19.6668C9.72379 20.1299 10.2884 20.3162 10.7515 20.083Z" fill="#2359DC"/>
<path d="M16.4488 11.8548C15.9655 12.5917 16.1718 13.5842 16.9087 14.0675C17.1699 14.2389 17.4725 14.3295 17.7838 14.3295C18.3253 14.3295 18.8248 14.0598 19.1217 13.6077C19.6047 12.8706 19.3984 11.8778 18.6616 11.395C18.4003 11.2236 18.0979 11.1328 17.7866 11.1328C17.2451 11.1328 16.7453 11.4027 16.4488 11.8548Z" fill="#2359DC"/>
<path d="M19.2273 18.5357C18.9539 17.9931 18.4065 17.6562 17.799 17.6562C17.5516 17.6562 17.303 17.7152 17.0808 17.8274C16.6997 18.0195 16.4163 18.3486 16.2827 18.7542C16.1487 19.1594 16.1807 19.5924 16.3731 19.9739C16.6462 20.5162 17.1934 20.8531 17.8008 20.8531C18.0484 20.8531 18.2966 20.794 18.5193 20.682C19.3062 20.2856 19.6238 19.3225 19.2273 18.5357Z" fill="#2359DC"/>
<path d="M22.0198 18.435C21.5864 18.1508 21.0037 18.2719 20.7193 18.7053C20.4348 19.1391 20.5562 19.7216 20.9897 20.006C21.4236 20.2903 22.0057 20.1695 22.2903 19.7354C22.5748 19.3019 22.454 18.7194 22.0198 18.435Z" fill="#2359DC"/>
<path d="M25.0782 16.0239C25.1035 15.5836 24.7666 15.2061 24.3261 15.181C23.8861 15.156 23.509 15.4925 23.4838 15.9332C23.4585 16.3732 23.7952 16.7505 24.2358 16.7756C24.6758 16.8008 25.0533 16.4637 25.0782 16.0239Z" fill="#2359DC"/>
<path d="M27.2875 15.4618C27.0023 15.4458 26.7586 15.6633 26.7421 15.9483C26.7259 16.2331 26.9436 16.4774 27.2288 16.4935C27.5135 16.5096 27.7575 16.2919 27.7737 16.007C27.7902 15.722 27.5724 15.4778 27.2875 15.4618Z" fill="#2359DC"/>
<path d="M25.2066 20.5922C24.9027 20.3929 24.4949 20.4778 24.2963 20.7814C24.0971 21.085 24.1818 21.4928 24.4855 21.6919C24.789 21.891 25.1964 21.8064 25.396 21.5025C25.5947 21.1986 25.5104 20.7914 25.2066 20.5922Z" fill="#2359DC"/>
<path d="M10.5412 25.4129C10.3027 25.2563 9.98239 25.323 9.82594 25.5615C9.66941 25.8002 9.73593 26.1203 9.97461 26.2768C10.2131 26.4334 10.5334 26.3665 10.6896 26.1281C10.8463 25.8893 10.7797 25.5692 10.5412 25.4129Z" fill="#2359DC"/>
<path d="M21.3738 25.3601C21.1193 25.4881 21.0168 25.7987 21.1453 26.0538C21.2735 26.3083 21.584 26.4108 21.8391 26.2823C22.0936 26.1538 22.1964 25.8435 22.0679 25.5888C21.9396 25.3341 21.6288 25.2317 21.3738 25.3601Z" fill="#2359DC"/>
<path d="M15.3698 20.1464C15.6037 19.7895 15.685 19.3627 15.5981 18.945C15.511 18.5273 15.2667 18.1681 14.9097 17.934C14.6484 17.7627 14.3456 17.6719 14.0342 17.6719C13.4932 17.6719 12.9932 17.9416 12.6967 18.3939C12.4626 18.7509 12.3815 19.1777 12.4687 19.5956C12.5554 20.0133 12.8 20.3725 13.1569 20.6065C13.4183 20.7779 13.7208 20.8683 14.0321 20.8683C14.5733 20.8684 15.0732 20.5986 15.3698 20.1464Z" fill="#2359DC"/>
<path d="M12.1777 22.5918C11.809 22.3499 11.3143 22.4529 11.0723 22.8215C10.8304 23.1904 10.9333 23.6851 11.302 23.9271C11.6708 24.1689 12.1659 24.066 12.4076 23.6972C12.6496 23.3283 12.5463 22.8336 12.1777 22.5918Z" fill="#2359DC"/>
<path d="M15.903 25.6495C15.5405 25.6288 15.2298 25.9061 15.2091 26.2686C15.1884 26.6314 15.4654 26.9418 15.8282 26.9627C16.1906 26.9831 16.5016 26.706 16.522 26.3433C16.5425 25.9808 16.2654 25.67 15.903 25.6495Z" fill="#2359DC"/>
<path d="M15.9086 21.5093C15.391 21.4801 14.9469 21.8758 14.9176 22.3938C14.8881 22.9117 15.284 23.3557 15.8019 23.3849C16.3201 23.4146 16.7639 23.0184 16.7931 22.5006C16.8229 21.9826 16.4267 21.5387 15.9086 21.5093Z" fill="#2359DC"/>
<path d="M19.7534 22.5308C19.36 22.7295 19.2015 23.2093 19.4002 23.6033C19.5983 23.9972 20.0784 24.1552 20.4723 23.9568C20.8662 23.7586 21.0242 23.2785 20.826 22.8847C20.6276 22.4909 20.1477 22.3325 19.7534 22.5308Z" fill="#2359DC"/>
</g>
<defs>
<clipPath id="clip0_48948_109700">
<rect width="23.746" height="22" fill="white" transform="translate(4.04395 5)"/>
</clipPath>
</defs>
</svg>
