<svg width="24" height="24" viewBox="0 0 24 24" fill="none" xmlns="http://www.w3.org/2000/svg">
<path id="Vector" d="M12.0004 2.40039C6.70671 2.40039 2.40039 6.70671 2.40039 12.0004C2.40039 17.2941 6.70671 21.6004 12.0004 21.6004C17.2941 21.6004 21.6004 17.2941 21.6004 12.0004C21.6004 6.70671 17.2941 2.40039 12.0004 2.40039ZM9.00039 7.20039C9.99447 7.20039 10.8004 8.00631 10.8004 9.00039C10.8004 9.99447 9.99447 10.8004 9.00039 10.8004C8.00631 10.8004 7.20039 9.99447 7.20039 9.00039C7.20039 8.00631 8.00631 7.20039 9.00039 7.20039ZM15.0004 16.8004C14.0063 16.8004 13.2004 15.9945 13.2004 15.0004C13.2004 14.0063 14.0063 13.2004 15.0004 13.2004C15.9945 13.2004 16.8004 14.0063 16.8004 15.0004C16.8004 15.9945 15.9945 16.8004 15.0004 16.8004ZM16.4488 9.24879L9.24879 16.4488C9.01443 16.6832 8.70735 16.8004 8.40039 16.8004C8.09343 16.8004 7.78635 16.6832 7.55199 16.4488C7.08327 15.9801 7.08327 15.2207 7.55199 14.7519L14.752 7.55187C15.2207 7.08315 15.9801 7.08315 16.4489 7.55187C16.9178 8.02059 16.9175 8.77995 16.4488 9.24879Z" fill="#F0F4FC"/>
</svg>
