<svg width="24" height="24" viewBox="0 0 24 24" fill="none" xmlns="http://www.w3.org/2000/svg">
<g clip-path="url(#clip0_2010_9444)">
<path d="M8.65643 19.2968C8.48957 19.3279 8.41667 19.4062 8.43758 19.5311C8.45837 19.6561 8.55212 19.6978 8.71877 19.6561C8.88563 19.6145 8.95847 19.5414 8.93751 19.4373C8.91683 19.3228 8.82308 19.2759 8.65643 19.2968Z" fill="#33E6BF"/>
<path d="M7.76574 19.4222C7.59904 19.4222 7.51575 19.4791 7.51575 19.594C7.51575 19.7294 7.60435 19.7865 7.78134 19.7657C7.94804 19.7657 8.03144 19.7084 8.03144 19.594C8.03144 19.4587 7.94284 19.4012 7.76574 19.4222Z" fill="#33E6BF"/>
<path d="M6.54702 19.3746C6.50543 19.4892 6.57318 19.5671 6.75012 19.609C6.90636 19.6712 7.00537 19.6401 7.04696 19.5152C7.07826 19.4008 7.01051 19.3176 6.84387 19.2652C6.68756 19.2237 6.58867 19.2596 6.54702 19.3746Z" fill="#33E6BF"/>
<path d="M22.6796 1.32019C21.7994 0.440119 20.7398 0 19.4999 0H4.49997C3.2605 0 2.20048 0.440119 1.32019 1.32019C0.440119 2.20043 0 3.26045 0 4.49997V19.5001C0 20.7397 0.440119 21.7996 1.32019 22.6797C2.20043 23.5599 3.2605 24.0001 4.49997 24.0001H7.99996C8.22894 24.0001 8.40095 23.9922 8.5155 23.9769C8.62999 23.9611 8.74448 23.8933 8.85913 23.7734C8.97384 23.6537 9.03098 23.4792 9.03098 23.2501C9.03098 23.219 9.02824 22.8645 9.0231 22.1875C9.01779 21.5102 9.01521 20.9738 9.01521 20.5779L8.65582 20.6405C8.42667 20.6821 8.1376 20.7004 7.78861 20.6952C7.43977 20.6899 7.07769 20.6536 6.70276 20.5858C6.3276 20.518 5.97877 20.3618 5.65582 20.1172C5.33304 19.8722 5.10389 19.552 4.96844 19.1563L4.81214 18.7967C4.70799 18.5573 4.54403 18.2916 4.32003 18.0002C4.09603 17.7084 3.86951 17.5104 3.64037 17.4063L3.53097 17.3281C3.45812 17.2761 3.39043 17.2133 3.32787 17.1404C3.26543 17.0674 3.21858 16.9944 3.18733 16.9217C3.15608 16.8486 3.18202 16.7887 3.26543 16.7417C3.34883 16.6949 3.49972 16.6717 3.71857 16.6717L4.03096 16.7185C4.23936 16.7601 4.49702 16.885 4.80448 17.0934C5.11172 17.3017 5.36428 17.5725 5.56223 17.9058C5.80194 18.333 6.09074 18.6583 6.42945 18.8823C6.76788 19.1065 7.10911 19.2185 7.4528 19.2185C7.79649 19.2185 8.09333 19.1924 8.34343 19.1405C8.59326 19.0883 8.82766 19.01 9.04652 18.9059C9.14027 18.208 9.39552 17.6713 9.81205 17.2963C9.21836 17.2338 8.68455 17.1401 8.21045 17.015C7.73661 16.8899 7.24697 16.6869 6.74183 16.4056C6.23648 16.1243 5.81726 15.7755 5.48392 15.3586C5.15063 14.9417 4.8771 14.3949 4.66372 13.718C4.45023 13.0408 4.34345 12.2594 4.34345 11.3741C4.34345 10.1138 4.75506 9.04066 5.57794 8.15533C5.19244 7.20745 5.22883 6.14508 5.68723 4.96789C5.98933 4.87409 6.43733 4.94447 7.03101 5.17887C7.62481 5.41343 8.05956 5.61401 8.33572 5.78043C8.61187 5.94691 8.83314 6.08767 8.99984 6.20238C9.96879 5.93154 10.9687 5.79614 11.9999 5.79614C13.031 5.79614 14.0311 5.93154 15.0001 6.20238L15.5938 5.82739C16.0003 5.57728 16.4793 5.34814 17.0315 5.1399C17.5836 4.93161 18.0054 4.87425 18.2972 4.96806C18.7657 6.14525 18.8077 7.20762 18.4219 8.15544C19.2448 9.04088 19.6565 10.1139 19.6565 11.3742C19.6565 12.2597 19.5497 13.0437 19.3362 13.7258C19.1229 14.4081 18.847 14.9552 18.5082 15.3666C18.1698 15.7781 17.7478 16.1242 17.2427 16.4057C16.7374 16.6868 16.2478 16.8902 15.7738 17.0149C15.2998 17.14 14.766 17.234 14.1723 17.2966C14.7136 17.7652 14.9844 18.5045 14.9844 19.5151V23.2496C14.9844 23.4268 15.0102 23.5699 15.0623 23.6793C15.1148 23.7886 15.198 23.8639 15.3125 23.9059C15.4275 23.9475 15.5286 23.9735 15.6174 23.9839C15.7061 23.9943 15.8335 23.9996 16.0002 23.9996H19.5002C20.7397 23.9996 21.7997 23.5594 22.6796 22.6792C23.5598 21.799 23.9999 20.7389 23.9999 19.4994V4.49997C23.9998 3.26045 23.5597 2.20027 22.6796 1.32019Z" fill="#33E6BF"/>
<path d="M4.74995 17.4688C4.6771 17.5207 4.6875 17.604 4.78125 17.7186C4.88556 17.8227 4.9688 17.8384 5.03136 17.7654C5.1042 17.7135 5.0938 17.6302 4.99989 17.5154C4.8958 17.4218 4.8125 17.4061 4.74995 17.4688Z" fill="#33E6BF"/>
<path d="M4.23448 17.0783C4.20329 17.1514 4.23974 17.214 4.34388 17.2658C4.42712 17.3181 4.49504 17.3078 4.54698 17.2348C4.57817 17.1617 4.54172 17.0991 4.43758 17.0469C4.33343 17.0156 4.26573 17.0261 4.23448 17.0783Z" fill="#33E6BF"/>
<path d="M5.23446 18.078C5.1406 18.1298 5.1406 18.2239 5.23446 18.3591C5.3282 18.4947 5.41659 18.5311 5.50005 18.4684C5.59385 18.3954 5.59385 18.2965 5.50005 18.1714C5.41681 18.0364 5.3282 18.0047 5.23446 18.078Z" fill="#33E6BF"/>
<path d="M5.78149 18.7808C5.68768 18.8644 5.70837 18.9629 5.84399 19.0779C5.96882 19.2026 6.07302 19.2183 6.15637 19.1244C6.23978 19.0412 6.21892 18.9423 6.09387 18.8277C5.96904 18.703 5.86484 18.6872 5.78149 18.7808Z" fill="#33E6BF"/>
</g>
<defs>
<clipPath id="clip0_2010_9444">
<rect width="24" height="24" fill="white"/>
</clipPath>
</defs>
</svg>
