<svg width="24" height="24" viewBox="0 0 24 24" fill="none" xmlns="http://www.w3.org/2000/svg">
<path id="Vector" d="M3.59961 5.99961C3.59961 4.67409 4.67409 3.59961 5.99961 3.59961H15.5996C16.2624 3.59961 16.7996 4.13685 16.7996 4.79961V8.39961" stroke="#F0F4FC" stroke-width="2" stroke-linecap="round" stroke-linejoin="round"/>
<path id="Vector_2" d="M16.7996 8.4H5.99961C4.67409 8.4 3.59961 7.32552 3.59961 6V15.6C3.59961 17.5883 5.21133 19.2 7.19961 19.2H19.1996C19.8624 19.2 20.3996 18.6628 20.3996 18V9.6C20.3996 8.93724 19.8624 8.4 19.1996 8.4H16.7996Z" stroke="#F0F4FC" stroke-width="2" stroke-linecap="round" stroke-linejoin="round"/>
<path id="Vector_3" d="M19.1996 8.4H5.99961C4.67409 8.4 3.59961 7.32552 3.59961 6V15.6C3.59961 17.5883 5.21133 19.2 7.19961 19.2H19.1996C19.8624 19.2 20.3996 18.6628 20.3996 18V9.6C20.3996 8.93724 19.8624 8.4 19.1996 8.4ZM16.4996 15.3C15.6711 15.3 14.9996 14.6285 14.9996 13.8C14.9996 12.9715 15.6711 12.3 16.4996 12.3C17.3281 12.3 17.9996 12.9715 17.9996 13.8C17.9996 14.6285 17.3281 15.3 16.4996 15.3Z" fill="#F0F4FC"/>
</svg>
