<svg width="20" height="21" viewBox="0 0 20 21" fill="none" xmlns="http://www.w3.org/2000/svg">
<path d="M9.23047 17.9619L9.22363 17.9727L7.95996 20.1621L7.93457 20.2051L7.8916 20.1797L6.25098 19.2334L6.20801 19.208L6.2334 19.165L9.13672 14.1348L9.23047 13.9736V17.9619ZM10.0645 14.1348L12.9658 19.165L12.9912 19.208L12.9482 19.2334L11.3096 20.1797L11.2666 20.2051L11.2412 20.1621L9.97754 17.9727L9.9707 17.9619V13.9727L10.0645 14.1348ZM6.37012 12.5371L3.46582 17.5684L3.44141 17.6113L3.39746 17.5869L1.75781 16.6396L1.71484 16.6152L1.73926 16.5713L3.00293 14.3809L3.00977 14.3691L3.02148 14.3623L6.30176 12.4688L6.46289 12.375L6.37012 12.5371ZM12.8975 12.4688L16.1777 14.3623L16.1895 14.3691L16.1963 14.3809L17.46 16.5713L17.4844 16.6152L17.4414 16.6396L15.8018 17.5869L15.7578 17.6113L15.7334 17.5684L12.8291 12.5371L12.7363 12.375L12.8975 12.4688ZM6.09375 11.7344L5.93262 11.8281L2.65234 13.7217L2.64062 13.7285H0.0498047V11.7344H6.09375ZM19.1494 11.7344V13.7285H16.5586L16.5469 13.7217L13.2686 11.8281L13.1074 11.7344H19.1494ZM2.64062 6.54492L2.65234 6.55176L5.93262 8.44531L6.09375 8.53906H0.0498047V6.54492H2.64062ZM19.1494 6.54492V8.53906H13.1074L13.2686 8.44531L16.5469 6.55176L16.5586 6.54492H19.1494ZM3.46582 2.70703L6.37012 7.73633L6.46289 7.89844L6.30176 7.80469L3.02148 5.91113L3.00977 5.9043L3.00293 5.89258L1.73926 3.7041L1.71484 3.66016L1.75781 3.63574L3.39746 2.68848L3.44141 2.66309L3.46582 2.70703ZM15.8018 2.68848L17.4414 3.63574L17.4844 3.66016L17.46 3.7041L16.1963 5.89258L16.1895 5.9043L16.1777 5.91113L12.8975 7.80469L12.7363 7.89844L12.8291 7.73633L15.7334 2.70703L15.7578 2.66309L15.8018 2.68848ZM11.3096 0.09375L12.9482 1.04004L12.9912 1.06543L12.9658 1.1084L10.0645 6.13867L9.9707 6.30078V2.31152L9.97754 2.30078L11.2412 0.111328L11.2666 0.0683594L11.3096 0.09375ZM9.23047 6.2998L9.13672 6.13867L6.2334 1.1084L6.20801 1.06543L6.25098 1.04004L7.8916 0.09375L7.93457 0.0683594L7.95996 0.111328L9.22363 2.30078L9.23047 2.31152V6.2998Z" fill="url(#paint0_linear_57180_112136)" stroke="url(#paint1_linear_57180_112136)" stroke-width="0.1"/>
<defs>
<linearGradient id="paint0_linear_57180_112136" x1="15.5577" y1="0.136719" x2="7.70559" y2="21.622" gradientUnits="userSpaceOnUse">
<stop stop-color="#9747FF"/>
<stop offset="1" stop-color="#00CCFF"/>
</linearGradient>
<linearGradient id="paint1_linear_57180_112136" x1="9.59961" y1="0.136718" x2="-2.40039" y2="5.13672" gradientUnits="userSpaceOnUse">
<stop stop-color="#4A3311" stop-opacity="0.19"/>
<stop offset="0.778845" stop-color="#0439C7"/>
<stop offset="1" stop-color="#33E6BF"/>
</linearGradient>
</defs>
</svg>
