<svg width="25" height="20" viewBox="0 0 25 20" fill="none" xmlns="http://www.w3.org/2000/svg">
<g clip-path="url(#clip0_49019_123801)">
<path fill-rule="evenodd" clip-rule="evenodd" d="M15.3221 0.5H6.80382L6.09787 4.44583L13.7846 4.45509C17.5702 4.45509 18.6897 5.82941 18.6578 8.11104C18.6413 9.2799 18.1346 11.2556 17.9158 11.8962C17.3324 13.6036 16.1341 15.5521 11.6409 15.5444L4.16898 15.5413L3.46148 19.4887H11.9607C14.9586 19.4887 16.2346 19.1401 17.5836 18.516C20.5769 17.1339 22.358 14.1799 23.0711 10.3247C24.1339 4.58382 22.8106 0.5 15.3221 0.5ZM0.375343 10.3103C0.586798 9.42883 0.926725 8.01187 3.12916 8.01187H11.8509C11.8509 8.01187 11.7603 8.47788 11.4837 9.62877C11.481 9.64002 11.4783 9.65142 11.4755 9.6629C11.2641 10.5444 10.9241 11.9613 8.72173 11.9613H0C0 11.9613 0.0906256 11.4953 0.367137 10.3445C0.369853 10.3332 0.372587 10.3218 0.375343 10.3103Z" fill="#02122B"/>
</g>
<defs>
<clipPath id="clip0_49019_123801">
<rect width="24.1154" height="19" fill="white" transform="translate(0 0.5)"/>
</clipPath>
</defs>
</svg>
