<svg width="20" height="20" viewBox="0 0 20 20" fill="none" xmlns="http://www.w3.org/2000/svg">
<path d="M11.1782 2.84508C10.5273 2.19422 9.472 2.19422 8.82117 2.84508L2.84485 8.82133C2.19397 9.47225 2.19397 10.5275 2.84484 11.1784L8.82117 17.1548C9.472 17.8056 10.5273 17.8056 11.1782 17.1548L17.1545 11.1784C17.8053 10.5275 17.8053 9.47225 17.1545 8.82133L11.1782 2.84508Z" stroke="#5CA7FF" stroke-width="1.5" stroke-linejoin="round"/>
<path d="M9.99992 12.2918C11.2656 12.2918 12.2916 11.2658 12.2916 10.0002C12.2916 8.73451 11.2656 7.7085 9.99992 7.7085C8.73427 7.7085 7.70825 8.73451 7.70825 10.0002C7.70825 11.2658 8.73427 12.2918 9.99992 12.2918Z" stroke="#5CA7FF" stroke-width="1.5"/>
</svg>
