<svg width="282" height="262" viewBox="0 0 282 262" fill="none" xmlns="http://www.w3.org/2000/svg">
<path d="M200.5 196.5C236.675 160.325 236.675 101.675 200.5 65.5C164.325 29.3253 105.675 29.3254 69.5 65.5C33.3253 101.675 33.3254 160.325 69.5 196.5C105.675 232.675 164.325 232.675 200.5 196.5Z" fill="#102E59"/>
<path d="M207.117 157.254C207.428 143.349 195.809 132.932 184.467 126.886C172.615 120.567 159.134 117.444 145.799 116.432C131.754 115.365 117.367 116.619 103.857 120.677C91.0822 124.514 77.4117 131.244 70.1157 142.873C66.8159 148.133 65.9141 153.527 65.9141 159.619C65.9141 165.489 65.917 171.359 65.917 177.229C65.917 183.16 66.1502 188.515 68.9984 193.885C72.3271 200.16 77.7766 205.106 83.6859 208.934C95.1156 216.339 108.724 220.165 122.16 221.763C136.116 223.423 150.481 222.719 164.145 219.379C177.351 216.152 191.277 210.236 200.166 199.59C203.986 195.015 206.694 189.45 207.076 183.449C207.444 177.652 207.12 171.737 207.12 165.928C207.12 163.039 207.181 160.143 207.117 157.254Z" fill="#0439C7"/>
<path d="M136.516 197.376C175.519 197.376 207.138 179.177 207.138 156.729C207.138 134.28 175.519 116.081 136.516 116.081C97.5129 116.081 65.8945 134.28 65.8945 156.729C65.8945 179.177 97.5129 197.376 136.516 197.376Z" fill="#042D9A"/>
<path d="M200.934 147.632C201.218 136.229 192.534 127.213 183.385 121.642C173.756 115.779 162.623 112.544 151.504 111.02C129.209 107.964 102.532 110.926 84.3636 125.304C80.0063 128.753 76.1566 133.05 73.9611 138.198C71.9858 142.829 72.0928 147.517 72.0928 152.448C72.0928 157.425 72.2119 162.01 74.4011 166.601C76.8526 171.741 80.9206 175.98 85.4563 179.36C104.012 193.187 130.452 195.957 152.759 192.626C172.692 189.649 200.934 179.086 200.934 155.123C200.934 152.628 200.996 150.126 200.934 147.632Z" fill="#15D7AC"/>
<path d="M207.117 118.725C207.428 104.821 195.809 94.403 184.467 88.3569C172.615 82.0385 159.134 78.9148 145.799 77.9029C131.754 76.8367 117.367 78.0898 103.857 82.1475C91.0822 85.9848 77.4117 92.7145 70.1157 104.344C66.8159 109.603 65.9141 114.997 65.9141 121.09C65.9141 126.96 65.917 132.83 65.917 138.7C65.917 144.63 66.1502 149.986 68.9984 155.355C72.3271 161.631 77.7766 166.576 83.6859 170.405C95.1156 177.809 108.724 181.636 122.16 183.234C136.116 184.894 150.481 184.189 164.145 180.85C177.351 177.622 191.277 171.707 200.166 161.06C203.986 156.486 206.694 150.92 207.076 144.92C207.444 139.123 207.12 133.208 207.12 127.398C207.12 124.51 207.181 121.614 207.117 118.725Z" fill="#0439C7"/>
<path d="M136.516 158.846C175.519 158.846 207.138 140.648 207.138 118.199C207.138 95.7508 175.519 77.5526 136.516 77.5526C97.5129 77.5526 65.8945 95.7508 65.8945 118.199C65.8945 140.648 97.5129 158.846 136.516 158.846Z" fill="#042D9A"/>
<path d="M200.934 109.103C201.218 97.7006 192.534 88.6842 183.385 83.1133C173.756 77.2504 162.623 74.0152 151.504 72.4911C129.209 69.4352 102.532 72.3964 84.3636 86.7756C80.0063 90.2237 76.1566 94.5217 73.9611 99.6697C71.9858 104.3 72.0928 108.988 72.0928 113.919C72.0928 118.896 72.2119 123.481 74.4011 128.072C76.8526 133.212 80.9206 137.451 85.4563 140.831C104.012 154.659 130.452 157.428 152.759 154.097C172.692 151.12 200.934 140.557 200.934 116.595C200.934 114.099 200.996 111.596 200.934 109.103Z" fill="#15D7AC"/>
<path d="M207.117 80.1963C207.428 66.2913 195.809 55.8742 184.467 49.8282C172.615 43.5097 159.134 40.386 145.799 39.3736C131.754 38.3074 117.367 39.561 103.857 43.6188C91.0822 47.4555 77.4117 54.1858 70.1157 65.8151C66.8159 71.0741 65.9141 76.4686 65.9141 82.5613C65.9141 88.431 65.917 94.3011 65.917 100.171C65.917 106.102 66.1502 111.457 68.9984 116.827C72.3271 123.102 77.7766 128.048 83.6859 131.876C95.1156 139.281 108.724 143.107 122.16 144.705C136.116 146.365 150.481 145.661 164.145 142.321C177.351 139.094 191.277 133.179 200.166 122.532C203.986 117.957 206.694 112.392 207.076 106.391C207.444 100.594 207.12 94.6788 207.12 88.8697C207.12 85.9809 207.181 83.0845 207.117 80.1963Z" fill="#0439C7"/>
<path d="M136.516 120.317C175.519 120.317 207.138 102.119 207.138 79.6706C207.138 57.222 175.519 39.0239 136.516 39.0239C97.5129 39.0239 65.8945 57.222 65.8945 79.6706C65.8945 102.119 97.5129 120.317 136.516 120.317Z" fill="#4879FD"/>
<path d="M62.3826 93.2027C61.6557 93.2599 61.7545 96.4605 61.7545 96.8251C61.755 99.1157 61.7646 101.371 61.9097 103.578C62.0437 105.611 62.1946 107.757 62.947 109.637C63.75 111.637 64.674 111.686 66.6695 111.132C67.8576 110.802 69.8126 110.77 70.7245 109.919C72.2371 108.507 71.9344 105.376 71.7237 103.584C71.4466 101.237 70.7848 98.8941 69.8574 96.6656C69.6699 96.2154 68.1993 93.1018 67.5366 93.0643C67.4339 93.0586 62.4925 93.1941 62.3826 93.2027Z" fill="#FFC947"/>
<path d="M84.7633 109.487C82.3446 108.038 79.7544 108.795 77.2263 109.519C75.2361 110.09 74.2013 111.615 73.7896 113.429C72.8878 117.4 74.4827 122.338 77.8717 125.119C79.9795 126.848 82.4512 127.425 84.7643 126.314C86.6518 125.408 88.6376 124.697 89.5178 122.615C91.3412 118.3 88.9071 112.082 84.7633 109.487Z" fill="#FFC947"/>
<path d="M116.023 128.87C116.168 124.926 113.618 121.286 109.579 119.9C105.245 118.413 101.368 120.456 99.0825 123.613C93.9979 130.637 104.415 137.706 110.8 137.463C113.911 135.587 116.049 132.039 116.023 128.87Z" fill="#FFC947"/>
<path d="M97.2876 127.252C97.7609 122.271 102.022 120.02 106.8 120.98C111.426 121.986 114.856 125.653 114.774 130.618C114.691 135.583 110.93 138.955 105.925 138.088C100.768 137.255 96.8143 132.233 97.2876 127.252ZM78.6776 125.704C82.2776 128.307 86.1553 126.827 86.9318 122.131C87.7397 117.435 85.1209 112.394 81.4018 110.312C77.5902 108.342 74.3699 109.72 73.6913 113.898C73.0131 118.076 74.9787 123.348 78.6776 125.704ZM62.9461 109.636C64.1554 112.81 66.4815 111.992 66.978 107.981C67.4802 103.926 65.7402 98.5761 64.0238 95.3323C62.3069 92.088 61.7517 92.3321 61.7599 96.3447C61.768 100.358 61.7256 106.423 62.9461 109.636Z" fill="#FFF242"/>
<path d="M62.3826 132.238C61.6557 132.296 61.7545 135.496 61.7545 135.861C61.755 138.151 61.7646 140.406 61.9097 142.613C62.0437 144.647 62.1946 146.793 62.947 148.672C63.75 150.673 64.674 150.722 66.6695 150.168C67.8576 149.838 69.8126 149.806 70.7245 148.955C72.2371 147.543 71.9344 144.412 71.7237 142.619C71.4466 140.273 70.7848 137.93 69.8574 135.701C69.6699 135.251 68.1993 132.137 67.5366 132.1C67.4339 132.094 62.4925 132.23 62.3826 132.238Z" fill="#FFC947"/>
<path d="M84.7633 148.523C82.3446 147.074 79.7544 147.831 77.2263 148.555C75.2361 149.126 74.2013 150.651 73.7896 152.465C72.8878 156.436 74.4827 161.374 77.8717 164.154C79.9795 165.883 82.4512 166.46 84.7643 165.35C86.6518 164.444 88.6376 163.733 89.5178 161.65C91.3412 157.336 88.9071 151.118 84.7633 148.523Z" fill="#FFC947"/>
<path d="M116.023 167.906C116.168 163.962 113.618 160.322 109.579 158.937C105.245 157.449 101.368 159.492 99.0825 162.65C93.9979 169.674 104.415 176.743 110.8 176.499C113.911 174.623 116.049 171.076 116.023 167.906Z" fill="#FFC947"/>
<path d="M97.2876 166.288C97.7609 161.307 102.022 159.055 106.8 160.015C111.426 161.021 114.856 164.689 114.774 169.654C114.691 174.618 110.93 177.99 105.925 177.124C100.768 176.291 96.8143 171.268 97.2876 166.288ZM78.6776 164.739C82.2776 167.342 86.1553 165.863 86.9318 161.167C87.7397 156.472 85.1209 151.43 81.4018 149.348C77.5902 147.377 74.3699 148.756 73.6913 152.934C73.0131 157.112 74.9787 162.384 78.6776 164.739ZM62.9461 148.672C64.1554 151.846 66.4815 151.028 66.978 147.017C67.4802 142.963 65.7402 137.613 64.0238 134.368C62.3069 131.124 61.7517 131.368 61.7599 135.381C61.768 139.393 61.7256 145.459 62.9461 148.672Z" fill="#FFF242"/>
<path d="M62.3826 171.275C61.6557 171.332 61.7545 174.532 61.7545 174.897C61.755 177.188 61.7646 179.443 61.9097 181.649C62.0437 183.683 62.1946 185.829 62.947 187.708C63.75 189.709 64.674 189.758 66.6695 189.204C67.8576 188.874 69.8126 188.842 70.7245 187.991C72.2371 186.579 71.9344 183.448 71.7237 181.656C71.4466 179.309 70.7848 176.966 69.8574 174.738C69.6699 174.287 68.1993 171.174 67.5366 171.136C67.4339 171.13 62.4925 171.266 62.3826 171.275Z" fill="#FFC947"/>
<path d="M84.7633 187.559C82.3446 186.11 79.7544 186.867 77.2263 187.591C75.2361 188.161 74.2013 189.687 73.7896 191.501C72.8878 195.472 74.4827 200.41 77.8717 203.191C79.9795 204.92 82.4512 205.497 84.7643 204.386C86.6518 203.48 88.6376 202.769 89.5178 200.686C91.3412 196.372 88.9071 190.154 84.7633 187.559Z" fill="#FFC947"/>
<path d="M116.023 206.942C116.168 202.998 113.618 199.358 109.579 197.972C105.245 196.485 101.368 198.528 99.0825 201.685C93.9979 208.709 104.415 215.778 110.8 215.535C113.911 213.659 116.049 210.111 116.023 206.942Z" fill="#FFC947"/>
<path d="M97.2876 205.324C97.7609 200.343 102.022 198.091 106.8 199.051C111.426 200.058 114.856 203.725 114.774 208.69C114.691 213.654 110.93 217.027 105.925 216.16C100.768 215.327 96.8143 210.305 97.2876 205.324ZM78.6776 203.775C82.2776 206.378 86.1553 204.899 86.9318 200.203C87.7397 195.507 85.1209 190.466 81.4018 188.383C77.5902 186.413 74.3699 187.792 73.6913 191.969C73.0131 196.148 74.9787 201.42 78.6776 203.775ZM62.9461 187.708C64.1554 190.882 66.4815 190.064 66.978 186.053C67.4802 181.998 65.7402 176.648 64.0238 173.404C62.3069 170.16 61.7517 170.404 61.7599 174.417C61.768 178.43 61.7256 184.495 62.9461 187.708Z" fill="#FFF242"/>
<g opacity="0.9" clip-path="url(#clip0_139_168)">
<path d="M28.8289 157.544L14.4141 166.044V149.428L28.8289 141.22V157.544Z" fill="#15D7AC"/>
<path d="M27.6918 156.756L15.5547 163.976V150.101L27.6918 143.191V156.756Z" fill="#072E25"/>
<path d="M14.4149 165.932L0 158.051V141.22L14.4149 149.427V165.932Z" fill="#33E6BF"/>
<path d="M13.2757 163.905L1.13867 156.981V143.191L13.2757 150.101V163.905Z" fill="#0C4A3D"/>
<path d="M28.8292 141.207L14.4144 133L0 141.207L14.4148 149.414L28.8292 141.207Z" fill="#A6FBE8"/>
<path d="M26.5511 141.207L14.414 134.297L2.27734 141.207L14.4144 148.117L26.5511 141.207Z" fill="#45B19A"/>
</g>
<g opacity="0.9" clip-path="url(#clip1_139_168)">
<path d="M47.1522 191.043L38.0762 196.253V186.068L47.1522 181.038V191.043Z" fill="#15D7AC"/>
<path d="M46.4348 190.56L38.793 194.985V186.481L46.4348 182.246V190.56Z" fill="#072E25"/>
<path d="M38.076 196.184L29 191.354V181.038L38.076 186.068V196.184Z" fill="#33E6BF"/>
<path d="M37.3586 194.942L29.7168 190.698V182.246L37.3586 186.481V194.942Z" fill="#0C4A3D"/>
<path d="M47.1517 181.03L38.0757 176L29 181.03L38.076 186.06L47.1517 181.03Z" fill="#A6FBE8"/>
<path d="M45.7171 181.03L38.0752 176.795L30.4336 181.03L38.0754 185.265L45.7171 181.03Z" fill="#45B19A"/>
</g>
<g opacity="0.9" clip-path="url(#clip2_139_168)">
<path d="M79.6746 37.544L65.2598 46.0443V29.4275L79.6746 21.2205V37.544Z" fill="#15D7AC"/>
<path d="M78.5375 36.7559L66.4004 43.9756V30.1007L78.5375 23.1907V36.7559Z" fill="#072E25"/>
<path d="M65.2606 45.9317L50.8457 38.0506V21.2205L65.2606 29.4275V45.9317Z" fill="#33E6BF"/>
<path d="M64.1214 43.9052L51.9844 36.981V23.1907L64.1214 30.1007V43.9052Z" fill="#0C4A3D"/>
<path d="M79.6749 21.2069L65.2601 13L50.8457 21.2066L65.2605 29.4136L79.6749 21.2069Z" fill="#A6FBE8"/>
<path d="M77.3968 21.2069L65.2597 14.2968L53.123 21.2067L65.2601 28.1169L77.3968 21.2069Z" fill="#45B19A"/>
</g>
<g opacity="0.9" clip-path="url(#clip3_139_168)">
<path d="M260.559 122.585L248.279 129.715V115.778L260.559 108.895V122.585Z" fill="#15D7AC"/>
<path d="M259.589 121.924L249.25 127.98V116.343L259.589 110.547V121.924Z" fill="#072E25"/>
<path d="M248.279 129.62L236 123.01V108.895L248.279 115.778V129.62Z" fill="#33E6BF"/>
<path d="M247.31 127.92L236.971 122.113V110.547L247.31 116.343V127.92Z" fill="#0C4A3D"/>
<path d="M260.558 108.883L248.279 102L236 108.883L248.279 115.766L260.558 108.883Z" fill="#A6FBE8"/>
<path d="M258.619 108.883L248.28 103.088L237.941 108.883L248.28 114.679L258.619 108.883Z" fill="#45B19A"/>
</g>
<g opacity="0.9" clip-path="url(#clip4_139_168)">
<path d="M281.863 193.45L263.711 203.869V183.5L281.863 173.44V193.45Z" fill="#15D7AC"/>
<path d="M280.428 192.484L265.145 201.334V184.326L280.428 175.855V192.484Z" fill="#072E25"/>
<path d="M263.711 203.731L245.559 194.071V173.44L263.711 183.5V203.731Z" fill="#33E6BF"/>
<path d="M262.276 201.247L246.992 192.76V175.855L262.276 184.326V201.247Z" fill="#0C4A3D"/>
<path d="M281.862 173.424L263.71 163.363L245.559 173.423L263.711 183.483L281.862 173.424Z" fill="#A6FBE8"/>
<path d="M278.995 173.424L263.711 164.953L248.428 173.423L263.711 181.894L278.995 173.424Z" fill="#45B19A"/>
</g>
<defs>
<clipPath id="clip0_139_168">
<rect width="28.8296" height="33.1006" fill="white" transform="translate(0 133)"/>
</clipPath>
<clipPath id="clip1_139_168">
<rect width="18.152" height="20.2875" fill="white" transform="translate(29 176)"/>
</clipPath>
<clipPath id="clip2_139_168">
<rect width="28.8296" height="33.1006" fill="white" transform="translate(50.8457 13)"/>
</clipPath>
<clipPath id="clip3_139_168">
<rect width="24.5585" height="27.7618" fill="white" transform="translate(236 102)"/>
</clipPath>
<clipPath id="clip4_139_168">
<rect width="36.3039" height="40.5749" fill="white" transform="translate(245.559 163.364)"/>
</clipPath>
</defs>
</svg>
