<svg width="25" height="24" viewBox="0 0 25 24" fill="none" xmlns="http://www.w3.org/2000/svg">
<path d="M9.37501 9.76627L12.125 8.1786C12.3571 8.04463 12.6429 8.04463 12.875 8.1786L15.625 9.76627C15.857 9.90024 16 10.1478 16 10.4158V13.591C16 13.859 15.857 14.1066 15.625 14.2406L12.875 15.8282C12.6429 15.9622 12.3571 15.9622 12.125 15.8282L9.37501 14.2406C9.14295 14.1066 9 13.859 9 13.591V10.4158C9 10.1478 9.14295 9.90024 9.37501 9.76627Z" fill="#4879FD"/>
<path fill-rule="evenodd" clip-rule="evenodd" d="M2.5 12C2.5 6.47715 6.97715 2 12.5 2C18.0228 2 22.5 6.47715 22.5 12C22.5 17.5228 18.0228 22 12.5 22C6.97715 22 2.5 17.5228 2.5 12ZM16.375 8.46379L13.625 6.87612C12.9288 6.47421 12.0712 6.47421 11.375 6.87612L8.62502 8.46379C7.92886 8.86571 7.5 9.60851 7.5 10.4124V13.5876C7.5 14.3915 7.92886 15.1343 8.62502 15.5362L11.375 17.1239C12.0712 17.5258 12.9288 17.5258 13.625 17.1239L16.375 15.5362C17.0711 15.1343 17.5 14.3915 17.5 13.5876V10.4124C17.5 9.60851 17.0711 8.86571 16.375 8.46379Z" fill="#4879FD"/>
</svg>
