<svg width="24" height="24" viewBox="0 0 24 24" fill="none" xmlns="http://www.w3.org/2000/svg">
<path id="Vector" d="M12.0004 16.2C13.9886 16.2 15.6004 14.5882 15.6004 12.6C15.6004 10.6118 13.9886 9 12.0004 9C10.0122 9 8.40039 10.6118 8.40039 12.6C8.40039 14.5882 10.0122 16.2 12.0004 16.2Z" fill="#F0F4FC"/>
<path id="Vector_2" d="M16.7996 5.99961H15.4996L14.7205 4.29957C14.525 3.87309 14.0988 3.59961 13.6296 3.59961H10.3696C9.90045 3.59961 9.47433 3.87309 9.27873 4.29957L8.49957 5.99961H7.19961C5.21133 5.99961 3.59961 7.61133 3.59961 9.59961V15.5996C3.59961 17.5879 5.21133 19.1996 7.19961 19.1996H16.7996C18.7879 19.1996 20.3996 17.5879 20.3996 15.5996V9.59961C20.3996 7.61133 18.7879 5.99961 16.7996 5.99961Z" stroke="#F0F4FC" stroke-width="2" stroke-linecap="round" stroke-linejoin="round"/>
</svg>
