<svg width="16" height="16" viewBox="0 0 16 16" fill="none" xmlns="http://www.w3.org/2000/svg">
<path d="M4.33301 5.5C5.16144 5.5 5.83301 4.82843 5.83301 4C5.83301 3.17157 5.16144 2.5 4.33301 2.5C3.50458 2.5 2.83301 3.17157 2.83301 4C2.83301 4.82843 3.50458 5.5 4.33301 5.5Z" stroke="#C9D6E8" stroke-width="1.5" stroke-linecap="round" stroke-linejoin="round"/>
<path d="M4.33301 13.5C5.16144 13.5 5.83301 12.8284 5.83301 12C5.83301 11.1716 5.16144 10.5 4.33301 10.5C3.50458 10.5 2.83301 11.1716 2.83301 12C2.83301 12.8284 3.50458 13.5 4.33301 13.5Z" stroke="#F0F4FC" stroke-width="1.5" stroke-linecap="round" stroke-linejoin="round"/>
<path d="M11.667 5.5C12.4954 5.5 13.167 4.82843 13.167 4C13.167 3.17157 12.4954 2.5 11.667 2.5C10.8386 2.5 10.167 3.17157 10.167 4C10.167 4.82843 10.8386 5.5 11.667 5.5Z" stroke="#F0F4FC" stroke-width="1.5" stroke-linecap="round" stroke-linejoin="round"/>
<path d="M4.33301 5.5V10.5" stroke="#F0F4FC" stroke-width="1.5" stroke-linecap="round" stroke-linejoin="round"/>
<path d="M11.6663 5.5V6.66667C11.6663 7.40307 11.0694 8 10.333 8H5.66634C4.92996 8 4.33301 8.59693 4.33301 9.33333V10.5" stroke="#F0F4FC" stroke-width="1.5" stroke-linecap="round" stroke-linejoin="round"/>
</svg>
