<svg width="24" height="24" viewBox="0 0 24 24" fill="none" xmlns="http://www.w3.org/2000/svg">
<path id="Vector" d="M4.03251 13.5768C3.45531 12.6168 3.45531 11.382 4.03251 10.422C5.18691 8.36523 7.84251 4.79883 11.9993 4.79883C16.1561 4.79883 18.8117 8.36403 19.9661 10.422C20.5433 11.382 20.5433 12.6168 19.9661 13.5768C18.8117 15.6336 16.1561 19.2 11.9993 19.2C7.84251 19.2 5.18691 15.7716 4.03251 13.5768Z" stroke="#F0F4FC" stroke-width="2" stroke-linecap="round" stroke-linejoin="round"/>
<path id="Vector_2" d="M12.0004 15.6004C13.9886 15.6004 15.6004 13.9886 15.6004 12.0004C15.6004 10.0122 13.9886 8.40039 12.0004 8.40039C10.0122 8.40039 8.40039 10.0122 8.40039 12.0004C8.40039 13.9886 10.0122 15.6004 12.0004 15.6004Z" fill="#F0F4FC"/>
</svg>
