<svg width="20" height="20" viewBox="0 0 20 20" fill="none" xmlns="http://www.w3.org/2000/svg">
<path d="M10 2.50033C14.1349 2.50033 17.5 5.86547 17.5 10.0003C17.5 14.1352 14.1349 17.5003 10 17.5003C5.86514 17.5003 2.5 14.1352 2.5 10.0003C2.5 5.86547 5.86514 2.50033 10 2.50033ZM11.0605 5.43978C10.4743 4.85352 9.52572 4.85352 8.93945 5.43978L6.43945 7.93978C5.85319 8.52604 5.85319 9.47461 6.43945 10.0609C7.00636 10.6278 7.91072 10.645 8.5 10.1156V14.0003C8.5 14.8285 9.17186 15.5003 10 15.5003C10.8281 15.5003 11.5 14.8285 11.5 14.0003V10.1156C12.0893 10.645 12.9936 10.6278 13.5605 10.0609C13.8529 9.76856 14 9.38384 14 9.00033C14 8.61682 13.8529 8.2321 13.5605 7.93978L11.0605 5.43978Z" fill="black" stroke="black"/>
</svg>
