<svg width="24" height="24" viewBox="0 0 24 24" fill="none" xmlns="http://www.w3.org/2000/svg">
<path id="Vector" d="M7.79961 3.59961H5.39961C4.4055 3.59961 3.59961 4.4055 3.59961 5.39961V7.79961C3.59961 8.79372 4.4055 9.59961 5.39961 9.59961H7.79961C8.79372 9.59961 9.59961 8.79372 9.59961 7.79961V5.39961C9.59961 4.4055 8.79372 3.59961 7.79961 3.59961Z" stroke="#F0F4FC" stroke-width="2" stroke-linecap="round" stroke-linejoin="round"/>
<path id="Vector_2" d="M18.6004 3.59961H16.2004C15.2063 3.59961 14.4004 4.4055 14.4004 5.39961V7.79961C14.4004 8.79372 15.2063 9.59961 16.2004 9.59961H18.6004C19.5945 9.59961 20.4004 8.79372 20.4004 7.79961V5.39961C20.4004 4.4055 19.5945 3.59961 18.6004 3.59961Z" stroke="#F0F4FC" stroke-width="2" stroke-linecap="round" stroke-linejoin="round"/>
<path id="Vector_3" d="M7.79961 14.4004H5.39961C4.4055 14.4004 3.59961 15.2063 3.59961 16.2004V18.6004C3.59961 19.5945 4.4055 20.4004 5.39961 20.4004H7.79961C8.79372 20.4004 9.59961 19.5945 9.59961 18.6004V16.2004C9.59961 15.2063 8.79372 14.4004 7.79961 14.4004Z" stroke="#F0F4FC" stroke-width="2" stroke-linecap="round" stroke-linejoin="round"/>
<path id="Vector_4" d="M17.4004 14.4004V20.4004" stroke="#F0F4FC" stroke-width="2" stroke-linecap="round" stroke-linejoin="round"/>
<path id="Vector_5" d="M20.4004 17.4004H14.4004" stroke="#F0F4FC" stroke-width="2" stroke-linecap="round" stroke-linejoin="round"/>
</svg>
