<svg width="24" height="24" viewBox="0 0 24 24" fill="none" xmlns="http://www.w3.org/2000/svg">
<g id="circles-5">
<path id="Vector" d="M20.0996 2.90039C20.6519 2.90039 21.0996 3.34811 21.0996 3.90039C21.0996 4.45268 20.6519 4.90039 20.0996 4.90039C19.5473 4.90039 19.0996 4.45268 19.0996 3.90039C19.0996 3.34811 19.5473 2.90039 20.0996 2.90039Z" fill="#FFC25C" stroke="#FFC25C"/>
<path id="Vector_2" d="M20.0996 19.0996C20.6519 19.0996 21.0996 19.5473 21.0996 20.0996C21.0996 20.6519 20.6519 21.0996 20.0996 21.0996C19.5473 21.0996 19.0996 20.6519 19.0996 20.0996C19.0996 19.5473 19.5473 19.0996 20.0996 19.0996Z" fill="#FFC25C" stroke="#FFC25C"/>
<path id="Vector_3" d="M3.90039 19.0996C4.45268 19.0996 4.90039 19.5473 4.90039 20.0996C4.90039 20.6519 4.45268 21.0996 3.90039 21.0996C3.34811 21.0996 2.90039 20.6519 2.90039 20.0996C2.90039 19.5473 3.34811 19.0996 3.90039 19.0996Z" fill="#FFC25C" stroke="#FFC25C"/>
<path id="Vector_4" d="M3.90039 2.90039C4.45268 2.90039 4.90039 3.34811 4.90039 3.90039C4.90039 4.45268 4.45268 4.90039 3.90039 4.90039C3.34811 4.90039 2.90039 4.45268 2.90039 3.90039C2.90039 3.34811 3.34811 2.90039 3.90039 2.90039Z" fill="#FFC25C" stroke="#FFC25C"/>
<path id="Vector_5" d="M12 18C15.3137 18 18 15.3137 18 12C18 8.68629 15.3137 6 12 6C8.68629 6 6 8.68629 6 12C6 15.3137 8.68629 18 12 18Z" stroke="#FFC25C" stroke-width="2" stroke-linecap="round" stroke-linejoin="round"/>
</g>
</svg>
