<svg width="24" height="24" viewBox="0 0 24 24" fill="none" xmlns="http://www.w3.org/2000/svg">
<path id="Vector" d="M20.0996 5.40039C20.928 5.40039 21.5996 4.72882 21.5996 3.90039C21.5996 3.07196 20.928 2.40039 20.0996 2.40039C19.2712 2.40039 18.5996 3.07196 18.5996 3.90039C18.5996 4.72882 19.2712 5.40039 20.0996 5.40039Z" fill="#F0F4FC"/>
<path id="Vector_2" d="M20.0996 21.5996C20.928 21.5996 21.5996 20.928 21.5996 20.0996C21.5996 19.2712 20.928 18.5996 20.0996 18.5996C19.2712 18.5996 18.5996 19.2712 18.5996 20.0996C18.5996 20.928 19.2712 21.5996 20.0996 21.5996Z" fill="#F0F4FC"/>
<path id="Vector_3" d="M3.90039 21.5996C4.72882 21.5996 5.40039 20.928 5.40039 20.0996C5.40039 19.2712 4.72882 18.5996 3.90039 18.5996C3.07196 18.5996 2.40039 19.2712 2.40039 20.0996C2.40039 20.928 3.07196 21.5996 3.90039 21.5996Z" fill="#F0F4FC"/>
<path id="Vector_4" d="M3.90039 5.40039C4.72882 5.40039 5.40039 4.72882 5.40039 3.90039C5.40039 3.07196 4.72882 2.40039 3.90039 2.40039C3.07196 2.40039 2.40039 3.07196 2.40039 3.90039C2.40039 4.72882 3.07196 5.40039 3.90039 5.40039Z" fill="#F0F4FC"/>
<path id="Vector_5" d="M12 18C15.3137 18 18 15.3137 18 12C18 8.68629 15.3137 6 12 6C8.68629 6 6 8.68629 6 12C6 15.3137 8.68629 18 12 18Z" stroke="#F0F4FC" stroke-width="2" stroke-linecap="round" stroke-linejoin="round"/>
</svg>
