<svg width="24" height="24" viewBox="0 0 24 24" fill="none" xmlns="http://www.w3.org/2000/svg">
<path id="Vector" d="M9.27734 10.6623L14.7217 7.93945" stroke="#F0F4FC" stroke-width="2" stroke-linecap="round" stroke-linejoin="round"/>
<path id="Vector_2" d="M9.2772 13.338L14.7216 16.0608" stroke="#F0F4FC" stroke-width="2" stroke-linecap="round" stroke-linejoin="round"/>
<path id="Vector_3" d="M6.59961 15C8.25646 15 9.59961 13.6569 9.59961 12C9.59961 10.3431 8.25646 9 6.59961 9C4.94276 9 3.59961 10.3431 3.59961 12C3.59961 13.6569 4.94276 15 6.59961 15Z" stroke="#F0F4FC" stroke-width="2" stroke-linecap="round" stroke-linejoin="round"/>
<path id="Vector_4" d="M17.4004 20.4004C19.0572 20.4004 20.4004 19.0572 20.4004 17.4004C20.4004 15.7435 19.0572 14.4004 17.4004 14.4004C15.7435 14.4004 14.4004 15.7435 14.4004 17.4004C14.4004 19.0572 15.7435 20.4004 17.4004 20.4004Z" stroke="#F0F4FC" stroke-width="2" stroke-linecap="round" stroke-linejoin="round"/>
<path id="Vector_5" d="M17.4004 9.59961C19.0572 9.59961 20.4004 8.25646 20.4004 6.59961C20.4004 4.94276 19.0572 3.59961 17.4004 3.59961C15.7435 3.59961 14.4004 4.94276 14.4004 6.59961C14.4004 8.25646 15.7435 9.59961 17.4004 9.59961Z" stroke="#F0F4FC" stroke-width="2" stroke-linecap="round" stroke-linejoin="round"/>
</svg>
