<svg width="120" height="120" viewBox="0 0 120 120" fill="none" xmlns="http://www.w3.org/2000/svg">
<path d="M118.191 74.5143C110.178 106.657 77.6222 126.219 45.4752 118.204C13.3417 110.19 -6.22004 77.6324 1.79691 45.4918C9.80683 13.3451 42.3626 -6.21803 74.4997 1.79541C106.644 9.80884 126.205 42.3702 118.191 74.5149L118.191 74.5143H118.191Z" fill="#50AF95"/>
<path fill-rule="evenodd" clip-rule="evenodd" d="M67.5926 66.8023C67.1683 66.8341 64.9764 66.9649 60.0868 66.9649C56.1978 66.9649 53.4366 66.8482 52.4679 66.8023C37.4387 66.1411 26.2207 63.5249 26.2207 60.3925C26.2207 57.2601 37.4387 54.6474 52.4679 53.9756V64.1966C53.4508 64.2673 56.265 64.4335 60.154 64.4335C64.8208 64.4335 67.1577 64.2391 67.5784 64.2002V53.9827C82.5758 54.6509 93.7691 57.2671 93.7691 60.3925C93.7691 63.5178 82.5794 66.1341 67.5784 66.7987L67.5926 66.8023ZM67.5926 52.9256V43.7794H88.5225V29.832H31.538V43.7794H52.4644V52.9221C35.4553 53.7034 22.6641 57.0727 22.6641 61.1102C22.6641 65.1477 35.4553 68.5134 52.4644 69.2983V98.6072H67.5891V69.2877C84.5592 68.5063 97.3293 65.1406 97.3293 61.1066C97.3293 57.0727 84.5698 53.7069 67.5891 52.9221L67.5926 52.9256Z" fill="white"/>
</svg>
