<svg width="24" height="24" viewBox="0 0 24 24" fill="none" xmlns="http://www.w3.org/2000/svg">
<path d="M12 13.0002V21.0002M12 13.0002L8 17.0002M12 13.0002L16 17.0002M4.00009 14.8993C3.25714 14.1402 2.69666 13.222 2.36113 12.2142C2.0256 11.2064 1.9238 10.1355 2.06346 9.08256C2.20311 8.02962 2.58055 7.02226 3.16719 6.1368C3.75383 5.25133 4.53428 4.51098 5.44943 3.97182C6.36458 3.43265 7.39042 3.10882 8.44926 3.02484C9.5081 2.94087 10.5722 3.09895 11.5609 3.48712C12.5496 3.8753 13.4369 4.48337 14.1558 5.2653C14.8747 6.04723 15.4062 6.9825 15.7101 8.00026H17.5001C18.4656 8.00015 19.4056 8.31059 20.1811 8.8857C20.9566 9.46082 21.5266 10.2701 21.8069 11.1941C22.0871 12.118 22.0628 13.1076 21.7374 14.0166C21.4121 14.9257 20.803 15.706 20.0001 16.2423" stroke="#F0F4FC" stroke-width="2" stroke-linecap="round" stroke-linejoin="round"/>
</svg>
