<svg width="20" height="20" viewBox="0 0 20 20" fill="none" xmlns="http://www.w3.org/2000/svg">
<path d="M9.99967 16.0416V9.79159M9.99967 9.79159L12.083 11.8749M9.99967 9.79159L7.91634 11.8749M12.4997 16.0416H15.1038C17.0023 16.0416 18.5413 14.5026 18.5413 12.6041C18.5413 10.7056 17.0023 9.16659 15.1038 9.16659C15.0675 9.16659 15.0313 9.16717 14.9953 9.16825C14.9983 9.09859 14.9997 9.02859 14.9997 8.95825C14.9997 6.19683 12.7611 3.95825 9.99967 3.95825C7.80934 3.95825 5.94795 5.36666 5.27173 7.32725C3.12057 7.60274 1.45801 9.4405 1.45801 11.6666C1.45801 14.0828 3.41677 16.0416 5.83301 16.0416H7.49967" stroke="#4879FD" stroke-width="1.5" stroke-linecap="round" stroke-linejoin="round"/>
</svg>
