<svg width="152" height="149" viewBox="0 0 152 149" fill="none" xmlns="http://www.w3.org/2000/svg">
<path d="M73.0043 87.1146L10.2239 123.453L1 114.229L56.0356 77.2485L73.0043 87.1146Z" fill="url(#paint0_linear_1122_11416)"/>
<path d="M74.4233 89.5725L11.563 125.773L14.9391 138.373L74.4833 109.201L74.4233 89.5725Z" fill="url(#paint1_linear_1122_11416)"/>
<path d="M76.9189 89.5724L139.779 125.773L136.403 138.373L76.859 109.201L76.9189 89.5724Z" fill="url(#paint2_linear_1122_11416)"/>
<path d="M78.338 87.1145L141.118 123.453L150.342 114.229L95.3066 77.2485L78.338 87.1145Z" fill="url(#paint3_linear_1122_11416)"/>
<path d="M76.919 84.4292L76.8391 11.8905L89.4391 8.51428L93.9476 74.667L76.919 84.4292Z" fill="url(#paint4_linear_1122_11416)"/>
<path d="M74.0809 84.4292L74.1609 11.8905L61.5609 8.51428L57.0524 74.667L74.0809 84.4292Z" fill="url(#paint5_linear_1122_11416)"/>
<path d="M73.0043 87.1146L10.2239 123.453L1 114.229L56.0356 77.2485L73.0043 87.1146Z" stroke="url(#paint6_linear_1122_11416)"/>
<path d="M74.4233 89.5725L11.563 125.773L14.9391 138.373L74.4833 109.201L74.4233 89.5725Z" stroke="url(#paint7_linear_1122_11416)"/>
<path d="M76.9189 89.5724L139.779 125.773L136.403 138.373L76.859 109.201L76.9189 89.5724Z" stroke="url(#paint8_linear_1122_11416)"/>
<path d="M78.338 87.1145L141.118 123.453L150.342 114.229L95.3066 77.2485L78.338 87.1145Z" stroke="url(#paint9_linear_1122_11416)"/>
<path d="M76.919 84.4292L76.8391 11.8905L89.4391 8.51428L93.9476 74.667L76.919 84.4292Z" stroke="url(#paint10_linear_1122_11416)"/>
<path d="M74.0809 84.4292L74.1609 11.8905L61.5609 8.51428L57.0524 74.667L74.0809 84.4292Z" stroke="url(#paint11_linear_1122_11416)"/>
<defs>
<linearGradient id="paint0_linear_1122_11416" x1="75.6711" y1="8.51428" x2="75.6711" y2="138.373" gradientUnits="userSpaceOnUse">
<stop stop-color="#33E6BF"/>
<stop offset="1" stop-color="#0439C7"/>
</linearGradient>
<linearGradient id="paint1_linear_1122_11416" x1="75.6711" y1="8.51428" x2="75.6711" y2="138.373" gradientUnits="userSpaceOnUse">
<stop stop-color="#33E6BF"/>
<stop offset="1" stop-color="#0439C7"/>
</linearGradient>
<linearGradient id="paint2_linear_1122_11416" x1="75.6711" y1="8.51428" x2="75.6711" y2="138.373" gradientUnits="userSpaceOnUse">
<stop stop-color="#33E6BF"/>
<stop offset="1" stop-color="#0439C7"/>
</linearGradient>
<linearGradient id="paint3_linear_1122_11416" x1="75.6711" y1="8.51428" x2="75.6711" y2="138.373" gradientUnits="userSpaceOnUse">
<stop stop-color="#33E6BF"/>
<stop offset="1" stop-color="#0439C7"/>
</linearGradient>
<linearGradient id="paint4_linear_1122_11416" x1="75.6711" y1="8.51428" x2="75.6711" y2="138.373" gradientUnits="userSpaceOnUse">
<stop stop-color="#33E6BF"/>
<stop offset="1" stop-color="#0439C7"/>
</linearGradient>
<linearGradient id="paint5_linear_1122_11416" x1="75.6711" y1="8.51428" x2="75.6711" y2="138.373" gradientUnits="userSpaceOnUse">
<stop stop-color="#33E6BF"/>
<stop offset="1" stop-color="#0439C7"/>
</linearGradient>
<linearGradient id="paint6_linear_1122_11416" x1="75.6711" y1="8.51428" x2="75.6711" y2="138.373" gradientUnits="userSpaceOnUse">
<stop stop-color="#33E6BF"/>
<stop offset="1" stop-color="#0439C7"/>
</linearGradient>
<linearGradient id="paint7_linear_1122_11416" x1="75.6711" y1="8.51428" x2="75.6711" y2="138.373" gradientUnits="userSpaceOnUse">
<stop stop-color="#33E6BF"/>
<stop offset="1" stop-color="#0439C7"/>
</linearGradient>
<linearGradient id="paint8_linear_1122_11416" x1="75.6711" y1="8.51428" x2="75.6711" y2="138.373" gradientUnits="userSpaceOnUse">
<stop stop-color="#33E6BF"/>
<stop offset="1" stop-color="#0439C7"/>
</linearGradient>
<linearGradient id="paint9_linear_1122_11416" x1="75.6711" y1="8.51428" x2="75.6711" y2="138.373" gradientUnits="userSpaceOnUse">
<stop stop-color="#33E6BF"/>
<stop offset="1" stop-color="#0439C7"/>
</linearGradient>
<linearGradient id="paint10_linear_1122_11416" x1="75.6711" y1="8.51428" x2="75.6711" y2="138.373" gradientUnits="userSpaceOnUse">
<stop stop-color="#33E6BF"/>
<stop offset="1" stop-color="#0439C7"/>
</linearGradient>
<linearGradient id="paint11_linear_1122_11416" x1="75.6711" y1="8.51428" x2="75.6711" y2="138.373" gradientUnits="userSpaceOnUse">
<stop stop-color="#33E6BF"/>
<stop offset="1" stop-color="#0439C7"/>
</linearGradient>
</defs>
</svg>
