<svg width="25" height="24" viewBox="0 0 25 24" fill="none" xmlns="http://www.w3.org/2000/svg">
<path d="M21.75 12C21.75 17.1086 17.6086 21.25 12.5 21.25C7.39137 21.25 3.25 17.1086 3.25 12C3.25 6.89137 7.39137 2.75 12.5 2.75C17.6086 2.75 21.75 6.89137 21.75 12Z" stroke="#4879FD" stroke-width="1.5" stroke-linecap="round" stroke-linejoin="round"/>
<path d="M11.75 7.52565C12.2141 7.25772 12.7859 7.25772 13.25 7.52565L16 9.11333C16.4641 9.38127 16.75 9.87647 16.75 10.4124V13.5876C16.75 14.1235 16.4641 14.6187 16 14.8867L13.25 16.4744C12.7859 16.7423 12.2141 16.7423 11.75 16.4744L9.00002 14.8867C8.53591 14.6187 8.25 14.1235 8.25 13.5876V10.4124C8.25 9.87647 8.5359 9.38127 9.00001 9.11333L11.75 7.52565Z" stroke="#4879FD" stroke-width="1.5" stroke-linecap="round" stroke-linejoin="round"/>
</svg>
