<svg width="25" height="20" viewBox="0 0 25 20" fill="none" xmlns="http://www.w3.org/2000/svg">
<path d="M20.8384 0.179199H24.2986L17.0976 7.30442C14.4898 9.88339 10.2619 9.88339 7.65223 7.30442L0.448486 0.179199H3.91148L9.38232 5.59181C10.1794 6.3769 11.2536 6.81701 12.3728 6.81701C13.492 6.81701 14.5662 6.3769 15.3633 5.59181L20.8384 0.179199Z" fill="#02122B"/>
<path d="M3.86707 20.0001H0.404541L7.65224 12.831C10.26 10.252 14.488 10.252 17.0976 12.831L24.3453 20.0001H20.8851L15.3675 14.5436C14.5704 13.7585 13.4962 13.3184 12.377 13.3184C11.2579 13.3184 10.1836 13.7585 9.38654 14.5436L3.86707 20.0001Z" fill="#02122B"/>
</svg>
