<svg width="295" height="246" viewBox="0 0 295 246" fill="none" xmlns="http://www.w3.org/2000/svg">
<path d="M144.029 151.731L69.2974 193.207L58.3176 182.679L123.83 140.47L144.029 151.731Z" fill="black" stroke="black"/>
<path d="M145.718 154.536L70.8914 195.854L74.9102 210.235L145.79 176.939L145.718 154.536Z" fill="black" stroke="black"/>
<path d="M148.689 154.536L223.516 195.854L219.497 210.235L148.618 176.939L148.689 154.536Z" fill="black" stroke="black"/>
<path d="M150.378 151.731L225.11 193.207L236.09 182.679L170.577 140.47L150.378 151.731Z" fill="black" stroke="black"/>
<path d="M148.689 148.666L148.594 65.8714L163.593 62.0178L168.959 137.523L148.689 148.666Z" fill="black" stroke="black"/>
<path d="M145.311 148.666L145.406 65.8714L130.407 62.0178L125.041 137.523L145.311 148.666Z" fill="black" stroke="black"/>
</svg>
