<svg width="24" height="18" viewBox="0 0 24 18" fill="none" xmlns="http://www.w3.org/2000/svg">
<path d="M8.67784 6.52246C7.29001 6.52246 6.16089 7.76638 6.16089 9.29535C6.16089 10.8243 7.29001 12.0682 8.67784 12.0682C10.0657 12.0682 11.1949 10.8243 11.1949 9.29535C11.1949 7.76638 10.0657 6.52246 8.67784 6.52246ZM8.67784 10.662C8.06542 10.662 7.56714 10.0489 7.56714 9.29535C7.56714 8.54179 8.06542 7.92871 8.67784 7.92871C9.29031 7.92871 9.78864 8.54179 9.78864 9.29535C9.78864 10.0489 9.29031 10.662 8.67784 10.662Z" fill="#F0F4FC"/>
<path d="M15.3222 6.52246C13.9343 6.52246 12.8052 7.76638 12.8052 9.29535C12.8052 10.8243 13.9343 12.0682 15.3222 12.0682C16.7101 12.0682 17.8392 10.8243 17.8392 9.29535C17.8392 7.76638 16.7101 6.52246 15.3222 6.52246ZM15.3222 10.662C14.7098 10.662 14.2114 10.0489 14.2114 9.29535C14.2114 8.54179 14.7098 7.92871 15.3222 7.92871C15.9346 7.92871 16.4329 8.54179 16.4329 9.29535C16.4329 10.0489 15.9346 10.662 15.3222 10.662Z" fill="#F0F4FC"/>
<path d="M23.9989 13.9956C23.9823 13.6983 23.5619 6.66631 20.8915 2.4598C20.8369 2.37378 20.7642 2.30061 20.6786 2.24548C17.3767 0.119281 15.1276 0.125375 15.0335 0.125C14.7608 0.128609 14.5259 0.287235 14.4124 0.516453L13.2781 2.69023C12.8555 2.66258 12.4289 2.64823 12 2.64823C11.5712 2.64823 11.1445 2.66258 10.722 2.69023L9.58895 0.518984C9.47594 0.288453 9.2403 0.128656 8.9665 0.125047C8.87186 0.124484 6.62303 0.119516 3.32153 2.24553C3.23589 2.3007 3.16319 2.37383 3.10858 2.45984C0.438204 6.66631 0.0176883 13.6983 0.00109456 13.9956C-0.00931169 14.182 0.0548133 14.3648 0.17936 14.5039C0.303204 14.6421 3.24503 17.8746 7.3113 17.8746C7.32948 17.8746 7.34819 17.8745 7.36642 17.8745C7.58013 17.8729 7.78145 17.7743 7.91369 17.6065L9.7893 15.2263C10.5097 15.3085 11.2496 15.3514 12 15.3514C12.7505 15.3514 13.4904 15.3085 14.2107 15.2263L16.0863 17.6065C16.2186 17.7743 16.4199 17.8729 16.6336 17.8745C16.6521 17.8746 16.6703 17.8746 16.6887 17.8746C20.7546 17.8746 23.6969 14.6421 23.8207 14.5039C23.9452 14.3648 24.0093 14.182 23.9989 13.9956ZM16.9747 16.4618L15.8021 14.9736C17.5871 14.6064 19.1892 13.9815 20.4398 13.1425C20.7623 12.9262 20.8483 12.4894 20.632 12.1669C20.4157 11.8444 19.9787 11.7583 19.6563 11.9747C17.7899 13.227 14.9992 13.9451 12 13.9451C9.00095 13.9451 6.2103 13.227 4.34369 11.9749C4.02114 11.7585 3.58441 11.8446 3.36808 12.1671C3.15175 12.4896 3.23781 12.9264 3.56031 13.1427C4.81094 13.9816 6.41303 14.6065 8.19798 14.9736L7.02541 16.4617C4.2723 16.334 2.08136 14.4087 1.42713 13.7698C1.53634 12.4074 2.10306 6.78833 4.21445 3.34391C6.28778 2.03516 7.85242 1.67117 8.55124 1.57002L9.21836 2.84834C7.64988 3.07738 6.18039 3.49827 4.92869 4.08758C4.57736 4.25295 4.42666 4.67188 4.59203 5.02325C4.75745 5.37453 5.17638 5.52519 5.52766 5.35991C7.31575 4.51808 9.61436 4.05448 12 4.05448C14.3858 4.05448 16.6845 4.51817 18.4725 5.36009C18.5693 5.40566 18.6711 5.42727 18.7715 5.42727C19.0353 5.42727 19.2883 5.27797 19.4081 5.02348C19.5735 4.6722 19.4228 4.25323 19.0715 4.08781C17.8197 3.49845 16.3503 3.07747 14.7816 2.84844L15.4487 1.57011C16.1475 1.67127 17.7122 2.03525 19.7856 3.344C21.8946 6.78481 22.4632 12.4097 22.5729 13.7711C21.9203 14.4113 19.7391 16.335 16.9747 16.4618Z" fill="#F0F4FC"/>
</svg>
