<svg width="24" height="24" viewBox="0 0 24 24" fill="none" xmlns="http://www.w3.org/2000/svg">
<path id="Vector" d="M12.0004 2.40039C6.70719 2.40039 2.40039 6.70719 2.40039 12.0004C2.40039 17.2936 6.70719 21.6004 12.0004 21.6004C17.2936 21.6004 21.6004 17.2936 21.6004 12.0004C21.6004 6.70719 17.2936 2.40039 12.0004 2.40039ZM13.2004 16.8004C13.2004 17.4628 12.664 18.0004 12.0004 18.0004C11.3368 18.0004 10.8004 17.4628 10.8004 16.8004V11.4004C10.8004 10.738 11.3368 10.2004 12.0004 10.2004C12.664 10.2004 13.2004 10.738 13.2004 11.4004V16.8004ZM12.0004 9.00039C11.1736 9.00039 10.5004 8.32719 10.5004 7.50039C10.5004 6.67359 11.1736 6.00039 12.0004 6.00039C12.8272 6.00039 13.5004 6.67359 13.5004 7.50039C13.5004 8.32719 12.8272 9.00039 12.0004 9.00039Z" fill="#F0F4FC"/>
</svg>
